; NON-PLATED HOLES START AT T1
; THROUGH (PLATED) HOLES START AT T100
M48
INCH
T100C0.035000
T101C0.038000
T102C0.052000
%
T100
X007971Y023342
X001971Y023342
X007971Y015342
X001971Y015342
X007971Y028342
X001971Y028342
X002971Y003842
X005971Y003842
X002971Y008842
X007971Y021342
X001971Y021342
X005971Y008842
X007971Y013342
X001971Y013342
X007971Y026342
X001971Y026342
X002971Y001842
X007971Y018342
X001971Y018342
X005971Y001842
X002971Y006842
X005971Y006842
X007971Y024342
X001971Y024342
X007971Y016342
X001971Y016342
X007971Y029342
X001971Y029342
X002971Y004842
X005971Y004842
X007971Y030342
X001971Y030342
X007971Y022342
X001971Y022342
X007971Y014342
X001971Y014342
X007971Y027342
X001971Y027342
X002971Y002842
X007971Y019342
X001971Y019342
X005971Y002842
X002971Y007842
X007971Y020342
X001971Y020342
X005971Y007842
X007971Y012342
X001971Y012342
X007971Y025342
X001971Y025342
X007971Y017342
X001971Y017342
X002971Y005842
X005971Y005842
X007971Y031342
X001971Y031342
T101
X001471Y004842
X001471Y005842
T102
X009471Y031342
X009471Y028342
T00
M30
