G04 MADE WITH FRITZING*
G04 WWW.FRITZING.ORG*
G04 DOUBLE SIDED*
G04 HOLES PLATED*
G04 CONTOUR ON CENTER OF CONTOUR VECTOR*
%ASAXBY*%
%FSLAX23Y23*%
%MOIN*%
%OFA0B0*%
%SFA1.0B1.0*%
%ADD10C,0.085000*%
%ADD11C,0.088000*%
%ADD12C,0.102000*%
%ADD13R,0.085000X0.085000*%
%ADD14R,0.088000X0.088000*%
%ADD15R,0.102000X0.102000*%
%LNMASK1*%
G90*
G70*
G54D10*
X197Y3134D03*
X797Y3134D03*
X197Y3034D03*
X797Y3034D03*
X197Y2934D03*
X797Y2934D03*
X197Y2834D03*
X797Y2834D03*
X197Y2734D03*
X797Y2734D03*
X197Y2634D03*
X797Y2634D03*
X197Y2534D03*
X797Y2534D03*
X197Y2434D03*
X797Y2434D03*
X197Y2334D03*
X797Y2334D03*
X197Y2234D03*
X797Y2234D03*
X197Y2134D03*
X797Y2134D03*
X197Y2034D03*
X797Y2034D03*
X197Y1934D03*
X797Y1934D03*
X197Y1834D03*
X797Y1834D03*
X197Y1734D03*
X797Y1734D03*
X197Y1634D03*
X797Y1634D03*
X197Y1534D03*
X797Y1534D03*
X197Y1434D03*
X797Y1434D03*
X197Y1334D03*
X797Y1334D03*
X197Y1234D03*
X797Y1234D03*
X297Y884D03*
X597Y884D03*
X297Y784D03*
X597Y784D03*
X297Y684D03*
X597Y684D03*
X297Y584D03*
X597Y584D03*
X297Y484D03*
X597Y484D03*
X297Y384D03*
X597Y384D03*
X297Y284D03*
X597Y284D03*
X297Y184D03*
X597Y184D03*
G54D11*
X147Y484D03*
X147Y584D03*
G54D12*
X947Y2834D03*
X947Y3134D03*
G54D13*
X197Y3134D03*
X297Y884D03*
G54D14*
X147Y484D03*
G54D15*
X947Y2834D03*
G04 End of Mask1*
M02*