; NON-PLATED HOLES START AT T1
; THROUGH (PLATED) HOLES START AT T100
M48
INCH
T100C0.035000
T101C0.031497
%
T100
X004039Y006553
X010039Y006553
X010039Y011553
X002039Y003053
X004039Y020553
X004039Y023553
X004039Y007553
X010039Y021553
X010039Y012553
X010039Y013553
X004039Y022553
X010039Y008553
X004039Y011553
X010039Y015553
X004039Y014553
X004039Y008553
X004039Y015553
X004039Y017553
X010039Y019553
X004039Y016553
X004039Y013553
X010039Y014553
X004039Y004553
X010039Y018553
X010039Y005553
X010039Y007553
X010039Y022553
X002039Y007053
X010039Y020553
X004039Y021553
X010039Y023553
X004039Y010553
X010039Y004553
X010039Y016553
X010039Y010553
X004039Y018553
X010039Y009553
X004039Y009553
X004039Y005553
X004039Y019553
X004039Y012553
X010039Y017553
T101
X008539Y001553
X009523Y001553
T00
M30
