G04 MADE WITH FRITZING*
G04 WWW.FRITZING.ORG*
G04 DOUBLE SIDED*
G04 HOLES PLATED*
G04 CONTOUR ON CENTER OF CONTOUR VECTOR*
%ASAXBY*%
%FSLAX23Y23*%
%MOIN*%
%OFA0B0*%
%SFA1.0B1.0*%
%ADD10C,0.075000*%
%ADD11C,0.092000*%
%ADD12C,0.078000*%
%ADD13C,0.065000*%
%ADD14R,0.075000X0.075000*%
%ADD15R,0.092000X0.092000*%
%ADD16R,0.078000X0.078000*%
%ADD17C,0.032000*%
%ADD18R,0.001000X0.001000*%
%LNCOPPER1*%
G90*
G70*
G54D10*
X123Y1158D03*
X192Y608D03*
X492Y608D03*
X192Y508D03*
X492Y508D03*
X192Y408D03*
X492Y408D03*
X192Y308D03*
X492Y308D03*
G54D11*
X192Y158D03*
X492Y158D03*
G54D12*
X342Y808D03*
X442Y808D03*
G54D13*
X1342Y358D03*
X1342Y958D03*
X1342Y358D03*
X1342Y958D03*
G54D14*
X192Y608D03*
G54D15*
X192Y158D03*
G54D16*
X342Y808D03*
G54D17*
X451Y774D02*
X484Y641D01*
D02*
X341Y408D02*
X342Y773D01*
D02*
X220Y327D02*
X341Y408D01*
D02*
X192Y274D02*
X192Y201D01*
G36*
X40Y1232D02*
X40Y1000D01*
X1384Y1000D01*
X1384Y916D01*
X1964Y916D01*
X1964Y1232D01*
X40Y1232D01*
G37*
D02*
G36*
X40Y1000D02*
X40Y916D01*
X1300Y916D01*
X1300Y1000D01*
X40Y1000D01*
G37*
D02*
G36*
X40Y916D02*
X40Y914D01*
X1964Y914D01*
X1964Y916D01*
X40Y916D01*
G37*
D02*
G36*
X40Y916D02*
X40Y914D01*
X1964Y914D01*
X1964Y916D01*
X40Y916D01*
G37*
D02*
G36*
X40Y914D02*
X40Y856D01*
X454Y856D01*
X454Y854D01*
X460Y854D01*
X460Y852D01*
X464Y852D01*
X464Y850D01*
X468Y850D01*
X468Y848D01*
X472Y848D01*
X472Y846D01*
X474Y846D01*
X474Y844D01*
X476Y844D01*
X476Y842D01*
X478Y842D01*
X478Y840D01*
X480Y840D01*
X480Y838D01*
X482Y838D01*
X482Y834D01*
X484Y834D01*
X484Y830D01*
X486Y830D01*
X486Y828D01*
X488Y828D01*
X488Y820D01*
X490Y820D01*
X490Y808D01*
X492Y808D01*
X492Y806D01*
X490Y806D01*
X490Y794D01*
X488Y794D01*
X488Y788D01*
X486Y788D01*
X486Y784D01*
X484Y784D01*
X484Y782D01*
X482Y782D01*
X482Y752D01*
X484Y752D01*
X484Y744D01*
X486Y744D01*
X486Y736D01*
X488Y736D01*
X488Y728D01*
X490Y728D01*
X490Y720D01*
X492Y720D01*
X492Y712D01*
X494Y712D01*
X494Y704D01*
X496Y704D01*
X496Y696D01*
X498Y696D01*
X498Y688D01*
X500Y688D01*
X500Y680D01*
X502Y680D01*
X502Y672D01*
X504Y672D01*
X504Y664D01*
X506Y664D01*
X506Y656D01*
X508Y656D01*
X508Y652D01*
X512Y652D01*
X512Y650D01*
X516Y650D01*
X516Y648D01*
X518Y648D01*
X518Y646D01*
X522Y646D01*
X522Y644D01*
X524Y644D01*
X524Y642D01*
X526Y642D01*
X526Y640D01*
X528Y640D01*
X528Y638D01*
X530Y638D01*
X530Y634D01*
X532Y634D01*
X532Y632D01*
X534Y632D01*
X534Y628D01*
X536Y628D01*
X536Y622D01*
X538Y622D01*
X538Y614D01*
X540Y614D01*
X540Y602D01*
X538Y602D01*
X538Y594D01*
X536Y594D01*
X536Y588D01*
X534Y588D01*
X534Y584D01*
X532Y584D01*
X532Y580D01*
X530Y580D01*
X530Y578D01*
X528Y578D01*
X528Y576D01*
X526Y576D01*
X526Y574D01*
X524Y574D01*
X524Y572D01*
X522Y572D01*
X522Y570D01*
X520Y570D01*
X520Y568D01*
X516Y568D01*
X516Y548D01*
X518Y548D01*
X518Y546D01*
X522Y546D01*
X522Y544D01*
X524Y544D01*
X524Y542D01*
X526Y542D01*
X526Y540D01*
X528Y540D01*
X528Y538D01*
X530Y538D01*
X530Y534D01*
X532Y534D01*
X532Y532D01*
X534Y532D01*
X534Y528D01*
X536Y528D01*
X536Y522D01*
X538Y522D01*
X538Y514D01*
X540Y514D01*
X540Y502D01*
X538Y502D01*
X538Y494D01*
X536Y494D01*
X536Y488D01*
X534Y488D01*
X534Y484D01*
X532Y484D01*
X532Y480D01*
X530Y480D01*
X530Y478D01*
X528Y478D01*
X528Y476D01*
X526Y476D01*
X526Y474D01*
X524Y474D01*
X524Y472D01*
X522Y472D01*
X522Y470D01*
X520Y470D01*
X520Y468D01*
X516Y468D01*
X516Y448D01*
X518Y448D01*
X518Y446D01*
X522Y446D01*
X522Y444D01*
X524Y444D01*
X524Y442D01*
X526Y442D01*
X526Y440D01*
X528Y440D01*
X528Y438D01*
X530Y438D01*
X530Y434D01*
X532Y434D01*
X532Y432D01*
X534Y432D01*
X534Y428D01*
X536Y428D01*
X536Y422D01*
X538Y422D01*
X538Y414D01*
X540Y414D01*
X540Y402D01*
X538Y402D01*
X538Y400D01*
X1384Y400D01*
X1384Y316D01*
X1964Y316D01*
X1964Y914D01*
X40Y914D01*
G37*
D02*
G36*
X40Y856D02*
X40Y758D01*
X294Y758D01*
X294Y856D01*
X40Y856D01*
G37*
D02*
G36*
X392Y856D02*
X392Y846D01*
X414Y846D01*
X414Y848D01*
X416Y848D01*
X416Y850D01*
X420Y850D01*
X420Y852D01*
X424Y852D01*
X424Y854D01*
X430Y854D01*
X430Y856D01*
X392Y856D01*
G37*
D02*
G36*
X392Y770D02*
X392Y760D01*
X390Y760D01*
X390Y758D01*
X428Y758D01*
X428Y760D01*
X426Y760D01*
X426Y762D01*
X422Y762D01*
X422Y764D01*
X418Y764D01*
X418Y766D01*
X416Y766D01*
X416Y768D01*
X412Y768D01*
X412Y770D01*
X392Y770D01*
G37*
D02*
G36*
X40Y758D02*
X40Y756D01*
X428Y756D01*
X428Y758D01*
X40Y758D01*
G37*
D02*
G36*
X40Y758D02*
X40Y756D01*
X428Y756D01*
X428Y758D01*
X40Y758D01*
G37*
D02*
G36*
X40Y756D02*
X40Y656D01*
X238Y656D01*
X238Y654D01*
X240Y654D01*
X240Y560D01*
X226Y560D01*
X226Y540D01*
X228Y540D01*
X228Y538D01*
X230Y538D01*
X230Y534D01*
X232Y534D01*
X232Y532D01*
X234Y532D01*
X234Y528D01*
X236Y528D01*
X236Y522D01*
X238Y522D01*
X238Y514D01*
X240Y514D01*
X240Y502D01*
X238Y502D01*
X238Y494D01*
X236Y494D01*
X236Y488D01*
X234Y488D01*
X234Y484D01*
X232Y484D01*
X232Y480D01*
X230Y480D01*
X230Y478D01*
X228Y478D01*
X228Y476D01*
X226Y476D01*
X226Y474D01*
X224Y474D01*
X224Y472D01*
X222Y472D01*
X222Y470D01*
X220Y470D01*
X220Y468D01*
X216Y468D01*
X216Y448D01*
X218Y448D01*
X218Y446D01*
X222Y446D01*
X222Y444D01*
X224Y444D01*
X224Y442D01*
X226Y442D01*
X226Y440D01*
X228Y440D01*
X228Y438D01*
X230Y438D01*
X230Y434D01*
X232Y434D01*
X232Y432D01*
X234Y432D01*
X234Y428D01*
X236Y428D01*
X236Y422D01*
X238Y422D01*
X238Y414D01*
X240Y414D01*
X240Y402D01*
X238Y402D01*
X238Y394D01*
X236Y394D01*
X236Y388D01*
X234Y388D01*
X234Y384D01*
X232Y384D01*
X232Y380D01*
X230Y380D01*
X230Y378D01*
X228Y378D01*
X228Y376D01*
X226Y376D01*
X226Y374D01*
X224Y374D01*
X224Y372D01*
X222Y372D01*
X222Y370D01*
X220Y370D01*
X220Y368D01*
X216Y368D01*
X216Y348D01*
X218Y348D01*
X218Y346D01*
X222Y346D01*
X222Y344D01*
X224Y344D01*
X224Y342D01*
X226Y342D01*
X226Y340D01*
X228Y340D01*
X228Y338D01*
X230Y338D01*
X230Y334D01*
X232Y334D01*
X232Y332D01*
X234Y332D01*
X234Y328D01*
X236Y328D01*
X236Y322D01*
X238Y322D01*
X238Y314D01*
X240Y314D01*
X240Y302D01*
X238Y302D01*
X238Y294D01*
X236Y294D01*
X236Y288D01*
X234Y288D01*
X234Y284D01*
X232Y284D01*
X232Y280D01*
X230Y280D01*
X230Y278D01*
X228Y278D01*
X228Y276D01*
X226Y276D01*
X226Y274D01*
X224Y274D01*
X224Y272D01*
X222Y272D01*
X222Y270D01*
X220Y270D01*
X220Y268D01*
X216Y268D01*
X216Y266D01*
X212Y266D01*
X212Y264D01*
X208Y264D01*
X208Y262D01*
X200Y262D01*
X200Y260D01*
X484Y260D01*
X484Y262D01*
X476Y262D01*
X476Y264D01*
X472Y264D01*
X472Y266D01*
X468Y266D01*
X468Y268D01*
X464Y268D01*
X464Y270D01*
X462Y270D01*
X462Y272D01*
X460Y272D01*
X460Y274D01*
X458Y274D01*
X458Y276D01*
X456Y276D01*
X456Y278D01*
X454Y278D01*
X454Y280D01*
X452Y280D01*
X452Y284D01*
X450Y284D01*
X450Y288D01*
X448Y288D01*
X448Y294D01*
X446Y294D01*
X446Y302D01*
X444Y302D01*
X444Y314D01*
X446Y314D01*
X446Y322D01*
X448Y322D01*
X448Y328D01*
X450Y328D01*
X450Y332D01*
X452Y332D01*
X452Y334D01*
X454Y334D01*
X454Y338D01*
X456Y338D01*
X456Y340D01*
X458Y340D01*
X458Y342D01*
X460Y342D01*
X460Y344D01*
X464Y344D01*
X464Y346D01*
X466Y346D01*
X466Y348D01*
X468Y348D01*
X468Y368D01*
X464Y368D01*
X464Y370D01*
X462Y370D01*
X462Y372D01*
X460Y372D01*
X460Y374D01*
X458Y374D01*
X458Y376D01*
X456Y376D01*
X456Y378D01*
X454Y378D01*
X454Y380D01*
X452Y380D01*
X452Y384D01*
X450Y384D01*
X450Y388D01*
X448Y388D01*
X448Y394D01*
X446Y394D01*
X446Y402D01*
X444Y402D01*
X444Y414D01*
X446Y414D01*
X446Y422D01*
X448Y422D01*
X448Y428D01*
X450Y428D01*
X450Y432D01*
X452Y432D01*
X452Y434D01*
X454Y434D01*
X454Y438D01*
X456Y438D01*
X456Y440D01*
X458Y440D01*
X458Y442D01*
X460Y442D01*
X460Y444D01*
X464Y444D01*
X464Y446D01*
X466Y446D01*
X466Y448D01*
X468Y448D01*
X468Y468D01*
X464Y468D01*
X464Y470D01*
X462Y470D01*
X462Y472D01*
X460Y472D01*
X460Y474D01*
X458Y474D01*
X458Y476D01*
X456Y476D01*
X456Y478D01*
X454Y478D01*
X454Y480D01*
X452Y480D01*
X452Y484D01*
X450Y484D01*
X450Y488D01*
X448Y488D01*
X448Y494D01*
X446Y494D01*
X446Y502D01*
X444Y502D01*
X444Y514D01*
X446Y514D01*
X446Y522D01*
X448Y522D01*
X448Y528D01*
X450Y528D01*
X450Y532D01*
X452Y532D01*
X452Y534D01*
X454Y534D01*
X454Y538D01*
X456Y538D01*
X456Y540D01*
X458Y540D01*
X458Y542D01*
X460Y542D01*
X460Y544D01*
X464Y544D01*
X464Y546D01*
X466Y546D01*
X466Y548D01*
X468Y548D01*
X468Y568D01*
X464Y568D01*
X464Y570D01*
X462Y570D01*
X462Y572D01*
X460Y572D01*
X460Y574D01*
X458Y574D01*
X458Y576D01*
X456Y576D01*
X456Y578D01*
X454Y578D01*
X454Y580D01*
X452Y580D01*
X452Y584D01*
X450Y584D01*
X450Y588D01*
X448Y588D01*
X448Y594D01*
X446Y594D01*
X446Y602D01*
X444Y602D01*
X444Y614D01*
X446Y614D01*
X446Y622D01*
X448Y622D01*
X448Y628D01*
X450Y628D01*
X450Y632D01*
X452Y632D01*
X452Y634D01*
X454Y634D01*
X454Y656D01*
X452Y656D01*
X452Y664D01*
X450Y664D01*
X450Y672D01*
X448Y672D01*
X448Y680D01*
X446Y680D01*
X446Y688D01*
X444Y688D01*
X444Y696D01*
X442Y696D01*
X442Y704D01*
X440Y704D01*
X440Y712D01*
X438Y712D01*
X438Y720D01*
X436Y720D01*
X436Y728D01*
X434Y728D01*
X434Y736D01*
X432Y736D01*
X432Y744D01*
X430Y744D01*
X430Y752D01*
X428Y752D01*
X428Y756D01*
X40Y756D01*
G37*
D02*
G36*
X40Y656D02*
X40Y260D01*
X184Y260D01*
X184Y262D01*
X176Y262D01*
X176Y264D01*
X172Y264D01*
X172Y266D01*
X168Y266D01*
X168Y268D01*
X164Y268D01*
X164Y270D01*
X162Y270D01*
X162Y272D01*
X160Y272D01*
X160Y274D01*
X158Y274D01*
X158Y276D01*
X156Y276D01*
X156Y278D01*
X154Y278D01*
X154Y280D01*
X152Y280D01*
X152Y284D01*
X150Y284D01*
X150Y288D01*
X148Y288D01*
X148Y294D01*
X146Y294D01*
X146Y302D01*
X144Y302D01*
X144Y314D01*
X146Y314D01*
X146Y322D01*
X148Y322D01*
X148Y328D01*
X150Y328D01*
X150Y332D01*
X152Y332D01*
X152Y334D01*
X154Y334D01*
X154Y338D01*
X156Y338D01*
X156Y340D01*
X158Y340D01*
X158Y342D01*
X160Y342D01*
X160Y344D01*
X162Y344D01*
X162Y346D01*
X166Y346D01*
X166Y348D01*
X168Y348D01*
X168Y368D01*
X164Y368D01*
X164Y370D01*
X162Y370D01*
X162Y372D01*
X160Y372D01*
X160Y374D01*
X158Y374D01*
X158Y376D01*
X156Y376D01*
X156Y378D01*
X154Y378D01*
X154Y380D01*
X152Y380D01*
X152Y384D01*
X150Y384D01*
X150Y388D01*
X148Y388D01*
X148Y394D01*
X146Y394D01*
X146Y402D01*
X144Y402D01*
X144Y414D01*
X146Y414D01*
X146Y422D01*
X148Y422D01*
X148Y428D01*
X150Y428D01*
X150Y432D01*
X152Y432D01*
X152Y434D01*
X154Y434D01*
X154Y438D01*
X156Y438D01*
X156Y440D01*
X158Y440D01*
X158Y442D01*
X160Y442D01*
X160Y444D01*
X162Y444D01*
X162Y446D01*
X166Y446D01*
X166Y448D01*
X168Y448D01*
X168Y468D01*
X164Y468D01*
X164Y470D01*
X162Y470D01*
X162Y472D01*
X160Y472D01*
X160Y474D01*
X158Y474D01*
X158Y476D01*
X156Y476D01*
X156Y478D01*
X154Y478D01*
X154Y480D01*
X152Y480D01*
X152Y484D01*
X150Y484D01*
X150Y488D01*
X148Y488D01*
X148Y494D01*
X146Y494D01*
X146Y502D01*
X144Y502D01*
X144Y514D01*
X146Y514D01*
X146Y522D01*
X148Y522D01*
X148Y528D01*
X150Y528D01*
X150Y532D01*
X152Y532D01*
X152Y534D01*
X154Y534D01*
X154Y538D01*
X156Y538D01*
X156Y540D01*
X158Y540D01*
X158Y560D01*
X144Y560D01*
X144Y654D01*
X146Y654D01*
X146Y656D01*
X40Y656D01*
G37*
D02*
G36*
X538Y400D02*
X538Y394D01*
X536Y394D01*
X536Y388D01*
X534Y388D01*
X534Y384D01*
X532Y384D01*
X532Y380D01*
X530Y380D01*
X530Y378D01*
X528Y378D01*
X528Y376D01*
X526Y376D01*
X526Y374D01*
X524Y374D01*
X524Y372D01*
X522Y372D01*
X522Y370D01*
X520Y370D01*
X520Y368D01*
X516Y368D01*
X516Y348D01*
X518Y348D01*
X518Y346D01*
X522Y346D01*
X522Y344D01*
X524Y344D01*
X524Y342D01*
X526Y342D01*
X526Y340D01*
X528Y340D01*
X528Y338D01*
X530Y338D01*
X530Y334D01*
X532Y334D01*
X532Y332D01*
X534Y332D01*
X534Y328D01*
X536Y328D01*
X536Y322D01*
X538Y322D01*
X538Y316D01*
X1300Y316D01*
X1300Y400D01*
X538Y400D01*
G37*
D02*
G36*
X538Y316D02*
X538Y314D01*
X1964Y314D01*
X1964Y316D01*
X538Y316D01*
G37*
D02*
G36*
X538Y316D02*
X538Y314D01*
X1964Y314D01*
X1964Y316D01*
X538Y316D01*
G37*
D02*
G36*
X540Y314D02*
X540Y302D01*
X538Y302D01*
X538Y294D01*
X536Y294D01*
X536Y288D01*
X534Y288D01*
X534Y284D01*
X532Y284D01*
X532Y280D01*
X530Y280D01*
X530Y278D01*
X528Y278D01*
X528Y276D01*
X526Y276D01*
X526Y274D01*
X524Y274D01*
X524Y272D01*
X522Y272D01*
X522Y270D01*
X520Y270D01*
X520Y268D01*
X516Y268D01*
X516Y266D01*
X512Y266D01*
X512Y264D01*
X508Y264D01*
X508Y262D01*
X500Y262D01*
X500Y260D01*
X1964Y260D01*
X1964Y314D01*
X540Y314D01*
G37*
D02*
G36*
X40Y260D02*
X40Y258D01*
X1964Y258D01*
X1964Y260D01*
X40Y260D01*
G37*
D02*
G36*
X40Y260D02*
X40Y258D01*
X1964Y258D01*
X1964Y260D01*
X40Y260D01*
G37*
D02*
G36*
X40Y260D02*
X40Y258D01*
X1964Y258D01*
X1964Y260D01*
X40Y260D01*
G37*
D02*
G36*
X40Y258D02*
X40Y214D01*
X500Y214D01*
X500Y212D01*
X510Y212D01*
X510Y210D01*
X514Y210D01*
X514Y208D01*
X518Y208D01*
X518Y206D01*
X522Y206D01*
X522Y204D01*
X524Y204D01*
X524Y202D01*
X528Y202D01*
X528Y200D01*
X530Y200D01*
X530Y198D01*
X532Y198D01*
X532Y196D01*
X534Y196D01*
X534Y194D01*
X536Y194D01*
X536Y190D01*
X538Y190D01*
X538Y188D01*
X540Y188D01*
X540Y184D01*
X542Y184D01*
X542Y180D01*
X544Y180D01*
X544Y176D01*
X546Y176D01*
X546Y168D01*
X548Y168D01*
X548Y148D01*
X546Y148D01*
X546Y140D01*
X544Y140D01*
X544Y134D01*
X542Y134D01*
X542Y130D01*
X540Y130D01*
X540Y128D01*
X538Y128D01*
X538Y124D01*
X536Y124D01*
X536Y122D01*
X534Y122D01*
X534Y120D01*
X532Y120D01*
X532Y118D01*
X530Y118D01*
X530Y116D01*
X528Y116D01*
X528Y114D01*
X526Y114D01*
X526Y112D01*
X522Y112D01*
X522Y110D01*
X520Y110D01*
X520Y108D01*
X516Y108D01*
X516Y106D01*
X510Y106D01*
X510Y104D01*
X504Y104D01*
X504Y102D01*
X1964Y102D01*
X1964Y258D01*
X40Y258D01*
G37*
D02*
G36*
X40Y214D02*
X40Y102D01*
X136Y102D01*
X136Y214D01*
X40Y214D01*
G37*
D02*
G36*
X248Y214D02*
X248Y102D01*
X480Y102D01*
X480Y104D01*
X474Y104D01*
X474Y106D01*
X468Y106D01*
X468Y108D01*
X464Y108D01*
X464Y110D01*
X462Y110D01*
X462Y112D01*
X458Y112D01*
X458Y114D01*
X456Y114D01*
X456Y116D01*
X454Y116D01*
X454Y118D01*
X452Y118D01*
X452Y120D01*
X450Y120D01*
X450Y122D01*
X448Y122D01*
X448Y124D01*
X446Y124D01*
X446Y128D01*
X444Y128D01*
X444Y130D01*
X442Y130D01*
X442Y134D01*
X440Y134D01*
X440Y140D01*
X438Y140D01*
X438Y148D01*
X436Y148D01*
X436Y168D01*
X438Y168D01*
X438Y176D01*
X440Y176D01*
X440Y180D01*
X442Y180D01*
X442Y184D01*
X444Y184D01*
X444Y188D01*
X446Y188D01*
X446Y190D01*
X448Y190D01*
X448Y194D01*
X450Y194D01*
X450Y196D01*
X452Y196D01*
X452Y198D01*
X454Y198D01*
X454Y200D01*
X456Y200D01*
X456Y202D01*
X460Y202D01*
X460Y204D01*
X462Y204D01*
X462Y206D01*
X466Y206D01*
X466Y208D01*
X470Y208D01*
X470Y210D01*
X474Y210D01*
X474Y212D01*
X484Y212D01*
X484Y214D01*
X248Y214D01*
G37*
D02*
G36*
X40Y102D02*
X40Y100D01*
X1964Y100D01*
X1964Y102D01*
X40Y102D01*
G37*
D02*
G36*
X40Y102D02*
X40Y100D01*
X1964Y100D01*
X1964Y102D01*
X40Y102D01*
G37*
D02*
G36*
X40Y102D02*
X40Y100D01*
X1964Y100D01*
X1964Y102D01*
X40Y102D01*
G37*
D02*
G36*
X40Y100D02*
X40Y40D01*
X1964Y40D01*
X1964Y100D01*
X40Y100D01*
G37*
D02*
G36*
X140Y332D02*
X174Y332D01*
X174Y289D01*
X140Y289D01*
X140Y332D01*
G37*
D02*
G36*
X166Y136D02*
X217Y136D01*
X217Y102D01*
X166Y102D01*
X166Y136D01*
G37*
D02*
G36*
X132Y186D02*
X166Y186D01*
X166Y135D01*
X132Y135D01*
X132Y186D01*
G37*
D02*
G36*
X216Y186D02*
X248Y186D01*
X248Y135D01*
X216Y135D01*
X216Y186D01*
G37*
D02*
G36*
X319Y860D02*
X364Y860D01*
X364Y828D01*
X319Y828D01*
X319Y860D01*
G37*
D02*
G36*
X290Y831D02*
X322Y831D01*
X322Y786D01*
X290Y786D01*
X290Y831D01*
G37*
D02*
G54D18*
X1309Y990D02*
X1373Y990D01*
X1309Y989D02*
X1373Y989D01*
X1309Y988D02*
X1373Y988D01*
X1309Y987D02*
X1373Y987D01*
X1309Y986D02*
X1373Y986D01*
X1309Y985D02*
X1373Y985D01*
X1309Y984D02*
X1373Y984D01*
X1309Y983D02*
X1373Y983D01*
X1309Y982D02*
X1373Y982D01*
X1309Y981D02*
X1373Y981D01*
X1309Y980D02*
X1335Y980D01*
X1348Y980D02*
X1373Y980D01*
X1309Y979D02*
X1332Y979D01*
X1351Y979D02*
X1373Y979D01*
X1309Y978D02*
X1330Y978D01*
X1353Y978D02*
X1373Y978D01*
X1309Y977D02*
X1328Y977D01*
X1354Y977D02*
X1373Y977D01*
X1309Y976D02*
X1327Y976D01*
X1356Y976D02*
X1373Y976D01*
X1309Y975D02*
X1326Y975D01*
X1357Y975D02*
X1373Y975D01*
X1309Y974D02*
X1325Y974D01*
X1358Y974D02*
X1373Y974D01*
X1309Y973D02*
X1324Y973D01*
X1359Y973D02*
X1373Y973D01*
X1309Y972D02*
X1323Y972D01*
X1360Y972D02*
X1373Y972D01*
X1309Y971D02*
X1322Y971D01*
X1361Y971D02*
X1373Y971D01*
X1309Y970D02*
X1322Y970D01*
X1361Y970D02*
X1373Y970D01*
X1309Y969D02*
X1321Y969D01*
X1362Y969D02*
X1373Y969D01*
X1309Y968D02*
X1321Y968D01*
X1362Y968D02*
X1373Y968D01*
X1309Y967D02*
X1320Y967D01*
X1363Y967D02*
X1373Y967D01*
X1309Y966D02*
X1320Y966D01*
X1363Y966D02*
X1373Y966D01*
X1309Y965D02*
X1320Y965D01*
X1363Y965D02*
X1373Y965D01*
X1309Y964D02*
X1319Y964D01*
X1364Y964D02*
X1373Y964D01*
X1309Y963D02*
X1319Y963D01*
X1364Y963D02*
X1373Y963D01*
X1309Y962D02*
X1319Y962D01*
X1364Y962D02*
X1373Y962D01*
X1309Y961D02*
X1319Y961D01*
X1364Y961D02*
X1373Y961D01*
X1309Y960D02*
X1319Y960D01*
X1364Y960D02*
X1373Y960D01*
X1309Y959D02*
X1318Y959D01*
X1364Y959D02*
X1373Y959D01*
X1309Y958D02*
X1318Y958D01*
X1364Y958D02*
X1373Y958D01*
X1309Y957D02*
X1319Y957D01*
X1364Y957D02*
X1373Y957D01*
X1309Y956D02*
X1319Y956D01*
X1364Y956D02*
X1373Y956D01*
X1309Y955D02*
X1319Y955D01*
X1364Y955D02*
X1373Y955D01*
X1309Y954D02*
X1319Y954D01*
X1364Y954D02*
X1373Y954D01*
X1309Y953D02*
X1319Y953D01*
X1364Y953D02*
X1373Y953D01*
X1309Y952D02*
X1319Y952D01*
X1363Y952D02*
X1373Y952D01*
X1309Y951D02*
X1320Y951D01*
X1363Y951D02*
X1373Y951D01*
X1309Y950D02*
X1320Y950D01*
X1363Y950D02*
X1373Y950D01*
X1309Y949D02*
X1321Y949D01*
X1362Y949D02*
X1373Y949D01*
X1309Y948D02*
X1321Y948D01*
X1362Y948D02*
X1373Y948D01*
X1309Y947D02*
X1322Y947D01*
X1361Y947D02*
X1373Y947D01*
X1309Y946D02*
X1322Y946D01*
X1361Y946D02*
X1373Y946D01*
X1309Y945D02*
X1323Y945D01*
X1360Y945D02*
X1373Y945D01*
X1309Y944D02*
X1324Y944D01*
X1359Y944D02*
X1373Y944D01*
X1309Y943D02*
X1325Y943D01*
X1358Y943D02*
X1373Y943D01*
X1309Y942D02*
X1326Y942D01*
X1357Y942D02*
X1373Y942D01*
X1309Y941D02*
X1327Y941D01*
X1356Y941D02*
X1373Y941D01*
X1309Y940D02*
X1328Y940D01*
X1355Y940D02*
X1373Y940D01*
X1309Y939D02*
X1330Y939D01*
X1353Y939D02*
X1373Y939D01*
X1309Y938D02*
X1332Y938D01*
X1351Y938D02*
X1373Y938D01*
X1309Y937D02*
X1334Y937D01*
X1349Y937D02*
X1373Y937D01*
X1309Y936D02*
X1339Y936D01*
X1344Y936D02*
X1373Y936D01*
X1309Y935D02*
X1373Y935D01*
X1309Y934D02*
X1373Y934D01*
X1309Y933D02*
X1373Y933D01*
X1309Y932D02*
X1373Y932D01*
X1309Y931D02*
X1373Y931D01*
X1309Y930D02*
X1373Y930D01*
X1309Y929D02*
X1373Y929D01*
X1309Y928D02*
X1373Y928D01*
X1309Y927D02*
X1373Y927D01*
X1310Y926D02*
X1373Y926D01*
X1310Y391D02*
X1373Y391D01*
X1309Y390D02*
X1373Y390D01*
X1309Y389D02*
X1373Y389D01*
X1309Y388D02*
X1373Y388D01*
X1309Y387D02*
X1373Y387D01*
X1309Y386D02*
X1373Y386D01*
X1309Y385D02*
X1373Y385D01*
X1309Y384D02*
X1373Y384D01*
X1309Y383D02*
X1373Y383D01*
X1309Y382D02*
X1373Y382D01*
X1309Y381D02*
X1340Y381D01*
X1343Y381D02*
X1373Y381D01*
X1309Y380D02*
X1334Y380D01*
X1348Y380D02*
X1373Y380D01*
X1309Y379D02*
X1332Y379D01*
X1351Y379D02*
X1373Y379D01*
X1309Y378D02*
X1330Y378D01*
X1353Y378D02*
X1373Y378D01*
X1309Y377D02*
X1328Y377D01*
X1355Y377D02*
X1373Y377D01*
X1309Y376D02*
X1327Y376D01*
X1356Y376D02*
X1373Y376D01*
X1309Y375D02*
X1326Y375D01*
X1357Y375D02*
X1373Y375D01*
X1309Y374D02*
X1325Y374D01*
X1358Y374D02*
X1373Y374D01*
X1309Y373D02*
X1324Y373D01*
X1359Y373D02*
X1373Y373D01*
X1309Y372D02*
X1323Y372D01*
X1360Y372D02*
X1373Y372D01*
X1309Y371D02*
X1322Y371D01*
X1361Y371D02*
X1373Y371D01*
X1309Y370D02*
X1322Y370D01*
X1361Y370D02*
X1373Y370D01*
X1309Y369D02*
X1321Y369D01*
X1362Y369D02*
X1373Y369D01*
X1309Y368D02*
X1321Y368D01*
X1362Y368D02*
X1373Y368D01*
X1309Y367D02*
X1320Y367D01*
X1363Y367D02*
X1373Y367D01*
X1309Y366D02*
X1320Y366D01*
X1363Y366D02*
X1373Y366D01*
X1309Y365D02*
X1320Y365D01*
X1363Y365D02*
X1373Y365D01*
X1309Y364D02*
X1319Y364D01*
X1364Y364D02*
X1373Y364D01*
X1309Y363D02*
X1319Y363D01*
X1364Y363D02*
X1373Y363D01*
X1309Y362D02*
X1319Y362D01*
X1364Y362D02*
X1373Y362D01*
X1309Y361D02*
X1319Y361D01*
X1364Y361D02*
X1373Y361D01*
X1309Y360D02*
X1319Y360D01*
X1364Y360D02*
X1373Y360D01*
X1309Y359D02*
X1318Y359D01*
X1364Y359D02*
X1373Y359D01*
X1309Y358D02*
X1318Y358D01*
X1364Y358D02*
X1373Y358D01*
X1309Y357D02*
X1319Y357D01*
X1364Y357D02*
X1373Y357D01*
X1309Y356D02*
X1319Y356D01*
X1364Y356D02*
X1373Y356D01*
X1309Y355D02*
X1319Y355D01*
X1364Y355D02*
X1373Y355D01*
X1309Y354D02*
X1319Y354D01*
X1364Y354D02*
X1373Y354D01*
X1309Y353D02*
X1319Y353D01*
X1364Y353D02*
X1373Y353D01*
X1309Y352D02*
X1320Y352D01*
X1363Y352D02*
X1373Y352D01*
X1309Y351D02*
X1320Y351D01*
X1363Y351D02*
X1373Y351D01*
X1309Y350D02*
X1320Y350D01*
X1363Y350D02*
X1373Y350D01*
X1309Y349D02*
X1321Y349D01*
X1362Y349D02*
X1373Y349D01*
X1309Y348D02*
X1321Y348D01*
X1362Y348D02*
X1373Y348D01*
X1309Y347D02*
X1322Y347D01*
X1361Y347D02*
X1373Y347D01*
X1309Y346D02*
X1322Y346D01*
X1361Y346D02*
X1373Y346D01*
X1309Y345D02*
X1323Y345D01*
X1360Y345D02*
X1373Y345D01*
X1309Y344D02*
X1324Y344D01*
X1359Y344D02*
X1373Y344D01*
X1309Y343D02*
X1325Y343D01*
X1358Y343D02*
X1373Y343D01*
X1309Y342D02*
X1326Y342D01*
X1357Y342D02*
X1373Y342D01*
X1309Y341D02*
X1327Y341D01*
X1356Y341D02*
X1373Y341D01*
X1309Y340D02*
X1328Y340D01*
X1355Y340D02*
X1373Y340D01*
X1309Y339D02*
X1330Y339D01*
X1353Y339D02*
X1373Y339D01*
X1309Y338D02*
X1332Y338D01*
X1351Y338D02*
X1373Y338D01*
X1309Y337D02*
X1335Y337D01*
X1348Y337D02*
X1373Y337D01*
X1309Y336D02*
X1373Y336D01*
X1309Y335D02*
X1373Y335D01*
X1309Y334D02*
X1373Y334D01*
X1309Y333D02*
X1373Y333D01*
X1309Y332D02*
X1373Y332D01*
X1309Y331D02*
X1373Y331D01*
X1309Y330D02*
X1373Y330D01*
X1309Y329D02*
X1373Y329D01*
X1309Y328D02*
X1373Y328D01*
X1309Y327D02*
X1373Y327D01*
D02*
G04 End of Copper1*
M02*