G04 MADE WITH FRITZING*
G04 WWW.FRITZING.ORG*
G04 DOUBLE SIDED*
G04 HOLES PLATED*
G04 CONTOUR ON CENTER OF CONTOUR VECTOR*
%ASAXBY*%
%FSLAX23Y23*%
%MOIN*%
%OFA0B0*%
%SFA1.0B1.0*%
%ADD10C,0.075000*%
%ADD11C,0.092000*%
%ADD12C,0.078000*%
%ADD13C,0.065000*%
%ADD14R,0.075000X0.075000*%
%ADD15R,0.092000X0.092000*%
%ADD16R,0.078000X0.078000*%
%ADD17C,0.032000*%
%ADD18R,0.001000X0.001000*%
%LNCOPPER0*%
G90*
G70*
G54D10*
X123Y1158D03*
X192Y608D03*
X492Y608D03*
X192Y508D03*
X492Y508D03*
X192Y408D03*
X492Y408D03*
X192Y308D03*
X492Y308D03*
G54D11*
X192Y158D03*
X492Y158D03*
G54D12*
X342Y808D03*
X442Y808D03*
G54D13*
X1342Y358D03*
X1342Y958D03*
G54D14*
X192Y608D03*
G54D15*
X192Y158D03*
G54D16*
X342Y808D03*
G54D17*
X693Y458D02*
X1042Y458D01*
D02*
X1042Y458D02*
X1305Y371D01*
D02*
X525Y416D02*
X693Y458D01*
D02*
X341Y557D02*
X341Y309D01*
D02*
X224Y597D02*
X341Y557D01*
D02*
X341Y309D02*
X462Y188D01*
D02*
X1193Y1009D02*
X1305Y971D01*
D02*
X242Y1009D02*
X1193Y1009D01*
D02*
X93Y857D02*
X242Y1009D01*
D02*
X92Y858D02*
X93Y857D01*
D02*
X92Y509D02*
X92Y858D01*
D02*
X168Y432D02*
X92Y509D01*
G36*
X40Y1232D02*
X40Y1034D01*
X1200Y1034D01*
X1200Y1032D01*
X1206Y1032D01*
X1206Y1030D01*
X1212Y1030D01*
X1212Y1028D01*
X1218Y1028D01*
X1218Y1026D01*
X1224Y1026D01*
X1224Y1024D01*
X1230Y1024D01*
X1230Y1022D01*
X1236Y1022D01*
X1236Y1020D01*
X1242Y1020D01*
X1242Y1018D01*
X1248Y1018D01*
X1248Y1016D01*
X1254Y1016D01*
X1254Y1014D01*
X1260Y1014D01*
X1260Y1012D01*
X1266Y1012D01*
X1266Y1010D01*
X1272Y1010D01*
X1272Y1008D01*
X1278Y1008D01*
X1278Y1006D01*
X1284Y1006D01*
X1284Y1004D01*
X1290Y1004D01*
X1290Y1002D01*
X1296Y1002D01*
X1296Y1000D01*
X1384Y1000D01*
X1384Y916D01*
X1964Y916D01*
X1964Y1232D01*
X40Y1232D01*
G37*
D02*
G36*
X40Y1034D02*
X40Y260D01*
X184Y260D01*
X184Y262D01*
X176Y262D01*
X176Y264D01*
X172Y264D01*
X172Y266D01*
X168Y266D01*
X168Y268D01*
X164Y268D01*
X164Y270D01*
X162Y270D01*
X162Y272D01*
X160Y272D01*
X160Y274D01*
X158Y274D01*
X158Y276D01*
X156Y276D01*
X156Y278D01*
X154Y278D01*
X154Y280D01*
X152Y280D01*
X152Y284D01*
X150Y284D01*
X150Y288D01*
X148Y288D01*
X148Y294D01*
X146Y294D01*
X146Y302D01*
X144Y302D01*
X144Y314D01*
X146Y314D01*
X146Y322D01*
X148Y322D01*
X148Y328D01*
X150Y328D01*
X150Y332D01*
X152Y332D01*
X152Y334D01*
X154Y334D01*
X154Y338D01*
X156Y338D01*
X156Y340D01*
X158Y340D01*
X158Y342D01*
X160Y342D01*
X160Y344D01*
X162Y344D01*
X162Y346D01*
X166Y346D01*
X166Y348D01*
X168Y348D01*
X168Y368D01*
X164Y368D01*
X164Y370D01*
X162Y370D01*
X162Y372D01*
X160Y372D01*
X160Y374D01*
X158Y374D01*
X158Y376D01*
X156Y376D01*
X156Y378D01*
X154Y378D01*
X154Y380D01*
X152Y380D01*
X152Y384D01*
X150Y384D01*
X150Y388D01*
X148Y388D01*
X148Y394D01*
X146Y394D01*
X146Y402D01*
X144Y402D01*
X144Y420D01*
X142Y420D01*
X142Y422D01*
X140Y422D01*
X140Y424D01*
X138Y424D01*
X138Y426D01*
X136Y426D01*
X136Y428D01*
X134Y428D01*
X134Y430D01*
X132Y430D01*
X132Y432D01*
X130Y432D01*
X130Y434D01*
X128Y434D01*
X128Y436D01*
X126Y436D01*
X126Y438D01*
X124Y438D01*
X124Y440D01*
X122Y440D01*
X122Y442D01*
X120Y442D01*
X120Y444D01*
X118Y444D01*
X118Y446D01*
X116Y446D01*
X116Y448D01*
X114Y448D01*
X114Y450D01*
X112Y450D01*
X112Y452D01*
X110Y452D01*
X110Y454D01*
X108Y454D01*
X108Y456D01*
X106Y456D01*
X106Y458D01*
X104Y458D01*
X104Y460D01*
X102Y460D01*
X102Y462D01*
X100Y462D01*
X100Y464D01*
X98Y464D01*
X98Y466D01*
X96Y466D01*
X96Y468D01*
X94Y468D01*
X94Y470D01*
X92Y470D01*
X92Y472D01*
X90Y472D01*
X90Y474D01*
X88Y474D01*
X88Y476D01*
X86Y476D01*
X86Y478D01*
X84Y478D01*
X84Y480D01*
X82Y480D01*
X82Y482D01*
X80Y482D01*
X80Y484D01*
X78Y484D01*
X78Y486D01*
X76Y486D01*
X76Y488D01*
X74Y488D01*
X74Y490D01*
X72Y490D01*
X72Y494D01*
X70Y494D01*
X70Y496D01*
X68Y496D01*
X68Y502D01*
X66Y502D01*
X66Y856D01*
X68Y856D01*
X68Y866D01*
X70Y866D01*
X70Y870D01*
X72Y870D01*
X72Y872D01*
X74Y872D01*
X74Y874D01*
X76Y874D01*
X76Y876D01*
X78Y876D01*
X78Y878D01*
X80Y878D01*
X80Y882D01*
X82Y882D01*
X82Y884D01*
X84Y884D01*
X84Y886D01*
X86Y886D01*
X86Y888D01*
X88Y888D01*
X88Y890D01*
X90Y890D01*
X90Y892D01*
X92Y892D01*
X92Y894D01*
X94Y894D01*
X94Y896D01*
X96Y896D01*
X96Y898D01*
X98Y898D01*
X98Y900D01*
X100Y900D01*
X100Y902D01*
X102Y902D01*
X102Y904D01*
X104Y904D01*
X104Y906D01*
X106Y906D01*
X106Y908D01*
X108Y908D01*
X108Y910D01*
X110Y910D01*
X110Y912D01*
X112Y912D01*
X112Y914D01*
X114Y914D01*
X114Y916D01*
X116Y916D01*
X116Y918D01*
X118Y918D01*
X118Y920D01*
X120Y920D01*
X120Y922D01*
X122Y922D01*
X122Y924D01*
X124Y924D01*
X124Y926D01*
X126Y926D01*
X126Y928D01*
X128Y928D01*
X128Y930D01*
X130Y930D01*
X130Y932D01*
X132Y932D01*
X132Y934D01*
X134Y934D01*
X134Y936D01*
X136Y936D01*
X136Y938D01*
X138Y938D01*
X138Y940D01*
X140Y940D01*
X140Y942D01*
X142Y942D01*
X142Y944D01*
X144Y944D01*
X144Y946D01*
X146Y946D01*
X146Y948D01*
X148Y948D01*
X148Y950D01*
X150Y950D01*
X150Y952D01*
X152Y952D01*
X152Y954D01*
X154Y954D01*
X154Y956D01*
X156Y956D01*
X156Y958D01*
X158Y958D01*
X158Y960D01*
X160Y960D01*
X160Y962D01*
X162Y962D01*
X162Y964D01*
X164Y964D01*
X164Y966D01*
X166Y966D01*
X166Y968D01*
X168Y968D01*
X168Y970D01*
X170Y970D01*
X170Y972D01*
X172Y972D01*
X172Y974D01*
X174Y974D01*
X174Y976D01*
X176Y976D01*
X176Y978D01*
X178Y978D01*
X178Y980D01*
X180Y980D01*
X180Y984D01*
X182Y984D01*
X182Y986D01*
X184Y986D01*
X184Y988D01*
X186Y988D01*
X186Y990D01*
X188Y990D01*
X188Y992D01*
X190Y992D01*
X190Y994D01*
X192Y994D01*
X192Y996D01*
X194Y996D01*
X194Y998D01*
X196Y998D01*
X196Y1000D01*
X198Y1000D01*
X198Y1002D01*
X200Y1002D01*
X200Y1004D01*
X202Y1004D01*
X202Y1006D01*
X204Y1006D01*
X204Y1008D01*
X206Y1008D01*
X206Y1010D01*
X208Y1010D01*
X208Y1012D01*
X210Y1012D01*
X210Y1014D01*
X212Y1014D01*
X212Y1016D01*
X214Y1016D01*
X214Y1018D01*
X216Y1018D01*
X216Y1020D01*
X218Y1020D01*
X218Y1022D01*
X220Y1022D01*
X220Y1024D01*
X222Y1024D01*
X222Y1026D01*
X224Y1026D01*
X224Y1028D01*
X226Y1028D01*
X226Y1030D01*
X230Y1030D01*
X230Y1032D01*
X234Y1032D01*
X234Y1034D01*
X40Y1034D01*
G37*
D02*
G36*
X252Y982D02*
X252Y980D01*
X250Y980D01*
X250Y978D01*
X248Y978D01*
X248Y976D01*
X246Y976D01*
X246Y974D01*
X244Y974D01*
X244Y972D01*
X242Y972D01*
X242Y970D01*
X240Y970D01*
X240Y968D01*
X238Y968D01*
X238Y966D01*
X236Y966D01*
X236Y964D01*
X234Y964D01*
X234Y962D01*
X232Y962D01*
X232Y960D01*
X230Y960D01*
X230Y958D01*
X228Y958D01*
X228Y956D01*
X226Y956D01*
X226Y954D01*
X224Y954D01*
X224Y952D01*
X222Y952D01*
X222Y950D01*
X220Y950D01*
X220Y948D01*
X218Y948D01*
X218Y946D01*
X216Y946D01*
X216Y944D01*
X214Y944D01*
X214Y942D01*
X212Y942D01*
X212Y940D01*
X210Y940D01*
X210Y938D01*
X208Y938D01*
X208Y936D01*
X206Y936D01*
X206Y934D01*
X204Y934D01*
X204Y932D01*
X202Y932D01*
X202Y930D01*
X200Y930D01*
X200Y928D01*
X198Y928D01*
X198Y926D01*
X196Y926D01*
X196Y924D01*
X194Y924D01*
X194Y920D01*
X192Y920D01*
X192Y918D01*
X190Y918D01*
X190Y916D01*
X1300Y916D01*
X1300Y946D01*
X1292Y946D01*
X1292Y948D01*
X1286Y948D01*
X1286Y950D01*
X1280Y950D01*
X1280Y952D01*
X1274Y952D01*
X1274Y954D01*
X1268Y954D01*
X1268Y956D01*
X1264Y956D01*
X1264Y958D01*
X1258Y958D01*
X1258Y960D01*
X1252Y960D01*
X1252Y962D01*
X1246Y962D01*
X1246Y964D01*
X1240Y964D01*
X1240Y966D01*
X1234Y966D01*
X1234Y968D01*
X1228Y968D01*
X1228Y970D01*
X1222Y970D01*
X1222Y972D01*
X1216Y972D01*
X1216Y974D01*
X1210Y974D01*
X1210Y976D01*
X1204Y976D01*
X1204Y978D01*
X1198Y978D01*
X1198Y980D01*
X1192Y980D01*
X1192Y982D01*
X252Y982D01*
G37*
D02*
G36*
X188Y916D02*
X188Y914D01*
X1964Y914D01*
X1964Y916D01*
X188Y916D01*
G37*
D02*
G36*
X188Y916D02*
X188Y914D01*
X1964Y914D01*
X1964Y916D01*
X188Y916D01*
G37*
D02*
G36*
X186Y914D02*
X186Y912D01*
X184Y912D01*
X184Y910D01*
X182Y910D01*
X182Y908D01*
X180Y908D01*
X180Y906D01*
X178Y906D01*
X178Y904D01*
X176Y904D01*
X176Y902D01*
X174Y902D01*
X174Y900D01*
X172Y900D01*
X172Y898D01*
X170Y898D01*
X170Y896D01*
X168Y896D01*
X168Y894D01*
X166Y894D01*
X166Y892D01*
X164Y892D01*
X164Y890D01*
X162Y890D01*
X162Y888D01*
X160Y888D01*
X160Y886D01*
X158Y886D01*
X158Y884D01*
X156Y884D01*
X156Y882D01*
X154Y882D01*
X154Y880D01*
X152Y880D01*
X152Y878D01*
X150Y878D01*
X150Y876D01*
X148Y876D01*
X148Y874D01*
X146Y874D01*
X146Y872D01*
X144Y872D01*
X144Y870D01*
X142Y870D01*
X142Y868D01*
X140Y868D01*
X140Y866D01*
X138Y866D01*
X138Y864D01*
X136Y864D01*
X136Y862D01*
X134Y862D01*
X134Y860D01*
X132Y860D01*
X132Y858D01*
X130Y858D01*
X130Y856D01*
X454Y856D01*
X454Y854D01*
X460Y854D01*
X460Y852D01*
X464Y852D01*
X464Y850D01*
X468Y850D01*
X468Y848D01*
X472Y848D01*
X472Y846D01*
X474Y846D01*
X474Y844D01*
X476Y844D01*
X476Y842D01*
X478Y842D01*
X478Y840D01*
X480Y840D01*
X480Y838D01*
X482Y838D01*
X482Y834D01*
X484Y834D01*
X484Y830D01*
X486Y830D01*
X486Y828D01*
X488Y828D01*
X488Y820D01*
X490Y820D01*
X490Y808D01*
X492Y808D01*
X492Y806D01*
X490Y806D01*
X490Y794D01*
X488Y794D01*
X488Y788D01*
X486Y788D01*
X486Y784D01*
X484Y784D01*
X484Y782D01*
X482Y782D01*
X482Y778D01*
X480Y778D01*
X480Y776D01*
X478Y776D01*
X478Y774D01*
X476Y774D01*
X476Y772D01*
X474Y772D01*
X474Y770D01*
X472Y770D01*
X472Y768D01*
X470Y768D01*
X470Y766D01*
X466Y766D01*
X466Y764D01*
X462Y764D01*
X462Y762D01*
X456Y762D01*
X456Y760D01*
X446Y760D01*
X446Y758D01*
X1964Y758D01*
X1964Y914D01*
X186Y914D01*
G37*
D02*
G36*
X128Y856D02*
X128Y854D01*
X126Y854D01*
X126Y852D01*
X124Y852D01*
X124Y850D01*
X122Y850D01*
X122Y848D01*
X120Y848D01*
X120Y846D01*
X118Y846D01*
X118Y758D01*
X294Y758D01*
X294Y856D01*
X128Y856D01*
G37*
D02*
G36*
X392Y856D02*
X392Y846D01*
X414Y846D01*
X414Y848D01*
X416Y848D01*
X416Y850D01*
X420Y850D01*
X420Y852D01*
X424Y852D01*
X424Y854D01*
X430Y854D01*
X430Y856D01*
X392Y856D01*
G37*
D02*
G36*
X392Y770D02*
X392Y760D01*
X390Y760D01*
X390Y758D01*
X438Y758D01*
X438Y760D01*
X428Y760D01*
X428Y762D01*
X422Y762D01*
X422Y764D01*
X418Y764D01*
X418Y766D01*
X416Y766D01*
X416Y768D01*
X412Y768D01*
X412Y770D01*
X392Y770D01*
G37*
D02*
G36*
X118Y758D02*
X118Y756D01*
X1964Y756D01*
X1964Y758D01*
X118Y758D01*
G37*
D02*
G36*
X118Y758D02*
X118Y756D01*
X1964Y756D01*
X1964Y758D01*
X118Y758D01*
G37*
D02*
G36*
X118Y758D02*
X118Y756D01*
X1964Y756D01*
X1964Y758D01*
X118Y758D01*
G37*
D02*
G36*
X118Y756D02*
X118Y656D01*
X496Y656D01*
X496Y654D01*
X506Y654D01*
X506Y652D01*
X512Y652D01*
X512Y650D01*
X516Y650D01*
X516Y648D01*
X518Y648D01*
X518Y646D01*
X522Y646D01*
X522Y644D01*
X524Y644D01*
X524Y642D01*
X526Y642D01*
X526Y640D01*
X528Y640D01*
X528Y638D01*
X530Y638D01*
X530Y634D01*
X532Y634D01*
X532Y632D01*
X534Y632D01*
X534Y628D01*
X536Y628D01*
X536Y622D01*
X538Y622D01*
X538Y614D01*
X540Y614D01*
X540Y602D01*
X538Y602D01*
X538Y594D01*
X536Y594D01*
X536Y588D01*
X534Y588D01*
X534Y584D01*
X532Y584D01*
X532Y580D01*
X530Y580D01*
X530Y578D01*
X528Y578D01*
X528Y576D01*
X526Y576D01*
X526Y574D01*
X524Y574D01*
X524Y572D01*
X522Y572D01*
X522Y570D01*
X520Y570D01*
X520Y568D01*
X516Y568D01*
X516Y548D01*
X518Y548D01*
X518Y546D01*
X522Y546D01*
X522Y544D01*
X524Y544D01*
X524Y542D01*
X526Y542D01*
X526Y540D01*
X528Y540D01*
X528Y538D01*
X530Y538D01*
X530Y534D01*
X532Y534D01*
X532Y532D01*
X534Y532D01*
X534Y528D01*
X536Y528D01*
X536Y522D01*
X538Y522D01*
X538Y514D01*
X540Y514D01*
X540Y502D01*
X538Y502D01*
X538Y494D01*
X536Y494D01*
X536Y488D01*
X534Y488D01*
X534Y484D01*
X1048Y484D01*
X1048Y482D01*
X1056Y482D01*
X1056Y480D01*
X1062Y480D01*
X1062Y478D01*
X1068Y478D01*
X1068Y476D01*
X1072Y476D01*
X1072Y474D01*
X1078Y474D01*
X1078Y472D01*
X1084Y472D01*
X1084Y470D01*
X1090Y470D01*
X1090Y468D01*
X1096Y468D01*
X1096Y466D01*
X1102Y466D01*
X1102Y464D01*
X1108Y464D01*
X1108Y462D01*
X1114Y462D01*
X1114Y460D01*
X1120Y460D01*
X1120Y458D01*
X1126Y458D01*
X1126Y456D01*
X1132Y456D01*
X1132Y454D01*
X1138Y454D01*
X1138Y452D01*
X1144Y452D01*
X1144Y450D01*
X1150Y450D01*
X1150Y448D01*
X1156Y448D01*
X1156Y446D01*
X1162Y446D01*
X1162Y444D01*
X1168Y444D01*
X1168Y442D01*
X1174Y442D01*
X1174Y440D01*
X1180Y440D01*
X1180Y438D01*
X1186Y438D01*
X1186Y436D01*
X1192Y436D01*
X1192Y434D01*
X1198Y434D01*
X1198Y432D01*
X1204Y432D01*
X1204Y430D01*
X1210Y430D01*
X1210Y428D01*
X1216Y428D01*
X1216Y426D01*
X1222Y426D01*
X1222Y424D01*
X1228Y424D01*
X1228Y422D01*
X1234Y422D01*
X1234Y420D01*
X1240Y420D01*
X1240Y418D01*
X1246Y418D01*
X1246Y416D01*
X1252Y416D01*
X1252Y414D01*
X1258Y414D01*
X1258Y412D01*
X1264Y412D01*
X1264Y410D01*
X1270Y410D01*
X1270Y408D01*
X1276Y408D01*
X1276Y406D01*
X1282Y406D01*
X1282Y404D01*
X1288Y404D01*
X1288Y402D01*
X1294Y402D01*
X1294Y400D01*
X1384Y400D01*
X1384Y316D01*
X1964Y316D01*
X1964Y756D01*
X118Y756D01*
G37*
D02*
G36*
X118Y656D02*
X118Y518D01*
X120Y518D01*
X120Y516D01*
X122Y516D01*
X122Y514D01*
X124Y514D01*
X124Y512D01*
X144Y512D01*
X144Y514D01*
X146Y514D01*
X146Y522D01*
X148Y522D01*
X148Y528D01*
X150Y528D01*
X150Y532D01*
X152Y532D01*
X152Y534D01*
X154Y534D01*
X154Y538D01*
X156Y538D01*
X156Y540D01*
X158Y540D01*
X158Y560D01*
X144Y560D01*
X144Y654D01*
X146Y654D01*
X146Y656D01*
X118Y656D01*
G37*
D02*
G36*
X238Y656D02*
X238Y654D01*
X240Y654D01*
X240Y618D01*
X246Y618D01*
X246Y616D01*
X252Y616D01*
X252Y614D01*
X258Y614D01*
X258Y612D01*
X262Y612D01*
X262Y610D01*
X268Y610D01*
X268Y608D01*
X274Y608D01*
X274Y606D01*
X280Y606D01*
X280Y604D01*
X286Y604D01*
X286Y602D01*
X292Y602D01*
X292Y600D01*
X298Y600D01*
X298Y598D01*
X304Y598D01*
X304Y596D01*
X310Y596D01*
X310Y594D01*
X316Y594D01*
X316Y592D01*
X322Y592D01*
X322Y590D01*
X328Y590D01*
X328Y588D01*
X334Y588D01*
X334Y586D01*
X338Y586D01*
X338Y584D01*
X344Y584D01*
X344Y582D01*
X350Y582D01*
X350Y580D01*
X354Y580D01*
X354Y578D01*
X358Y578D01*
X358Y576D01*
X360Y576D01*
X360Y574D01*
X362Y574D01*
X362Y570D01*
X364Y570D01*
X364Y566D01*
X366Y566D01*
X366Y320D01*
X368Y320D01*
X368Y318D01*
X370Y318D01*
X370Y316D01*
X372Y316D01*
X372Y314D01*
X374Y314D01*
X374Y312D01*
X376Y312D01*
X376Y310D01*
X378Y310D01*
X378Y308D01*
X380Y308D01*
X380Y306D01*
X382Y306D01*
X382Y304D01*
X384Y304D01*
X384Y302D01*
X386Y302D01*
X386Y300D01*
X388Y300D01*
X388Y298D01*
X390Y298D01*
X390Y296D01*
X392Y296D01*
X392Y294D01*
X394Y294D01*
X394Y292D01*
X396Y292D01*
X396Y290D01*
X398Y290D01*
X398Y288D01*
X400Y288D01*
X400Y286D01*
X402Y286D01*
X402Y284D01*
X404Y284D01*
X404Y282D01*
X406Y282D01*
X406Y280D01*
X408Y280D01*
X408Y278D01*
X410Y278D01*
X410Y276D01*
X412Y276D01*
X412Y274D01*
X414Y274D01*
X414Y272D01*
X416Y272D01*
X416Y270D01*
X418Y270D01*
X418Y268D01*
X420Y268D01*
X420Y266D01*
X422Y266D01*
X422Y264D01*
X424Y264D01*
X424Y262D01*
X426Y262D01*
X426Y260D01*
X484Y260D01*
X484Y262D01*
X476Y262D01*
X476Y264D01*
X472Y264D01*
X472Y266D01*
X468Y266D01*
X468Y268D01*
X464Y268D01*
X464Y270D01*
X462Y270D01*
X462Y272D01*
X460Y272D01*
X460Y274D01*
X458Y274D01*
X458Y276D01*
X456Y276D01*
X456Y278D01*
X454Y278D01*
X454Y280D01*
X452Y280D01*
X452Y284D01*
X450Y284D01*
X450Y288D01*
X448Y288D01*
X448Y294D01*
X446Y294D01*
X446Y302D01*
X444Y302D01*
X444Y314D01*
X446Y314D01*
X446Y322D01*
X448Y322D01*
X448Y328D01*
X450Y328D01*
X450Y332D01*
X452Y332D01*
X452Y334D01*
X454Y334D01*
X454Y338D01*
X456Y338D01*
X456Y340D01*
X458Y340D01*
X458Y342D01*
X460Y342D01*
X460Y344D01*
X464Y344D01*
X464Y346D01*
X466Y346D01*
X466Y348D01*
X468Y348D01*
X468Y368D01*
X464Y368D01*
X464Y370D01*
X462Y370D01*
X462Y372D01*
X460Y372D01*
X460Y374D01*
X458Y374D01*
X458Y376D01*
X456Y376D01*
X456Y378D01*
X454Y378D01*
X454Y380D01*
X452Y380D01*
X452Y384D01*
X450Y384D01*
X450Y388D01*
X448Y388D01*
X448Y394D01*
X446Y394D01*
X446Y402D01*
X444Y402D01*
X444Y414D01*
X446Y414D01*
X446Y422D01*
X448Y422D01*
X448Y428D01*
X450Y428D01*
X450Y432D01*
X452Y432D01*
X452Y434D01*
X454Y434D01*
X454Y438D01*
X456Y438D01*
X456Y440D01*
X458Y440D01*
X458Y442D01*
X460Y442D01*
X460Y444D01*
X464Y444D01*
X464Y446D01*
X466Y446D01*
X466Y448D01*
X468Y448D01*
X468Y468D01*
X464Y468D01*
X464Y470D01*
X462Y470D01*
X462Y472D01*
X460Y472D01*
X460Y474D01*
X458Y474D01*
X458Y476D01*
X456Y476D01*
X456Y478D01*
X454Y478D01*
X454Y480D01*
X452Y480D01*
X452Y484D01*
X450Y484D01*
X450Y488D01*
X448Y488D01*
X448Y494D01*
X446Y494D01*
X446Y502D01*
X444Y502D01*
X444Y514D01*
X446Y514D01*
X446Y522D01*
X448Y522D01*
X448Y528D01*
X450Y528D01*
X450Y532D01*
X452Y532D01*
X452Y534D01*
X454Y534D01*
X454Y538D01*
X456Y538D01*
X456Y540D01*
X458Y540D01*
X458Y542D01*
X460Y542D01*
X460Y544D01*
X464Y544D01*
X464Y546D01*
X466Y546D01*
X466Y548D01*
X468Y548D01*
X468Y568D01*
X464Y568D01*
X464Y570D01*
X462Y570D01*
X462Y572D01*
X460Y572D01*
X460Y574D01*
X458Y574D01*
X458Y576D01*
X456Y576D01*
X456Y578D01*
X454Y578D01*
X454Y580D01*
X452Y580D01*
X452Y584D01*
X450Y584D01*
X450Y588D01*
X448Y588D01*
X448Y594D01*
X446Y594D01*
X446Y602D01*
X444Y602D01*
X444Y614D01*
X446Y614D01*
X446Y622D01*
X448Y622D01*
X448Y628D01*
X450Y628D01*
X450Y632D01*
X452Y632D01*
X452Y634D01*
X454Y634D01*
X454Y638D01*
X456Y638D01*
X456Y640D01*
X458Y640D01*
X458Y642D01*
X460Y642D01*
X460Y644D01*
X464Y644D01*
X464Y646D01*
X466Y646D01*
X466Y648D01*
X470Y648D01*
X470Y650D01*
X472Y650D01*
X472Y652D01*
X478Y652D01*
X478Y654D01*
X488Y654D01*
X488Y656D01*
X238Y656D01*
G37*
D02*
G36*
X226Y560D02*
X226Y540D01*
X228Y540D01*
X228Y538D01*
X230Y538D01*
X230Y534D01*
X232Y534D01*
X232Y532D01*
X234Y532D01*
X234Y528D01*
X236Y528D01*
X236Y522D01*
X238Y522D01*
X238Y514D01*
X240Y514D01*
X240Y502D01*
X238Y502D01*
X238Y494D01*
X236Y494D01*
X236Y488D01*
X234Y488D01*
X234Y484D01*
X232Y484D01*
X232Y480D01*
X230Y480D01*
X230Y478D01*
X228Y478D01*
X228Y476D01*
X226Y476D01*
X226Y474D01*
X224Y474D01*
X224Y472D01*
X222Y472D01*
X222Y470D01*
X220Y470D01*
X220Y468D01*
X216Y468D01*
X216Y448D01*
X218Y448D01*
X218Y446D01*
X222Y446D01*
X222Y444D01*
X224Y444D01*
X224Y442D01*
X226Y442D01*
X226Y440D01*
X228Y440D01*
X228Y438D01*
X230Y438D01*
X230Y434D01*
X232Y434D01*
X232Y432D01*
X234Y432D01*
X234Y428D01*
X236Y428D01*
X236Y422D01*
X238Y422D01*
X238Y414D01*
X240Y414D01*
X240Y402D01*
X238Y402D01*
X238Y394D01*
X236Y394D01*
X236Y388D01*
X234Y388D01*
X234Y384D01*
X232Y384D01*
X232Y380D01*
X230Y380D01*
X230Y378D01*
X228Y378D01*
X228Y376D01*
X226Y376D01*
X226Y374D01*
X224Y374D01*
X224Y372D01*
X222Y372D01*
X222Y370D01*
X220Y370D01*
X220Y368D01*
X216Y368D01*
X216Y348D01*
X218Y348D01*
X218Y346D01*
X222Y346D01*
X222Y344D01*
X224Y344D01*
X224Y342D01*
X226Y342D01*
X226Y340D01*
X228Y340D01*
X228Y338D01*
X230Y338D01*
X230Y334D01*
X232Y334D01*
X232Y332D01*
X234Y332D01*
X234Y328D01*
X236Y328D01*
X236Y322D01*
X238Y322D01*
X238Y314D01*
X240Y314D01*
X240Y302D01*
X238Y302D01*
X238Y294D01*
X236Y294D01*
X236Y288D01*
X234Y288D01*
X234Y284D01*
X232Y284D01*
X232Y280D01*
X230Y280D01*
X230Y278D01*
X228Y278D01*
X228Y276D01*
X226Y276D01*
X226Y274D01*
X224Y274D01*
X224Y272D01*
X222Y272D01*
X222Y270D01*
X220Y270D01*
X220Y268D01*
X216Y268D01*
X216Y266D01*
X212Y266D01*
X212Y264D01*
X208Y264D01*
X208Y262D01*
X200Y262D01*
X200Y260D01*
X352Y260D01*
X352Y262D01*
X350Y262D01*
X350Y264D01*
X348Y264D01*
X348Y266D01*
X346Y266D01*
X346Y268D01*
X344Y268D01*
X344Y270D01*
X342Y270D01*
X342Y272D01*
X340Y272D01*
X340Y274D01*
X338Y274D01*
X338Y276D01*
X336Y276D01*
X336Y278D01*
X334Y278D01*
X334Y280D01*
X332Y280D01*
X332Y282D01*
X330Y282D01*
X330Y284D01*
X328Y284D01*
X328Y286D01*
X326Y286D01*
X326Y288D01*
X324Y288D01*
X324Y290D01*
X322Y290D01*
X322Y292D01*
X320Y292D01*
X320Y296D01*
X318Y296D01*
X318Y298D01*
X316Y298D01*
X316Y308D01*
X314Y308D01*
X314Y538D01*
X312Y538D01*
X312Y540D01*
X306Y540D01*
X306Y542D01*
X302Y542D01*
X302Y544D01*
X296Y544D01*
X296Y546D01*
X290Y546D01*
X290Y548D01*
X284Y548D01*
X284Y550D01*
X278Y550D01*
X278Y552D01*
X272Y552D01*
X272Y554D01*
X266Y554D01*
X266Y556D01*
X260Y556D01*
X260Y558D01*
X254Y558D01*
X254Y560D01*
X226Y560D01*
G37*
D02*
G36*
X532Y484D02*
X532Y480D01*
X530Y480D01*
X530Y478D01*
X528Y478D01*
X528Y476D01*
X526Y476D01*
X526Y474D01*
X524Y474D01*
X524Y472D01*
X522Y472D01*
X522Y470D01*
X520Y470D01*
X520Y468D01*
X516Y468D01*
X516Y448D01*
X518Y448D01*
X518Y446D01*
X542Y446D01*
X542Y448D01*
X550Y448D01*
X550Y450D01*
X558Y450D01*
X558Y452D01*
X566Y452D01*
X566Y454D01*
X574Y454D01*
X574Y456D01*
X582Y456D01*
X582Y458D01*
X590Y458D01*
X590Y460D01*
X598Y460D01*
X598Y462D01*
X606Y462D01*
X606Y464D01*
X614Y464D01*
X614Y466D01*
X622Y466D01*
X622Y468D01*
X630Y468D01*
X630Y470D01*
X638Y470D01*
X638Y472D01*
X646Y472D01*
X646Y474D01*
X654Y474D01*
X654Y476D01*
X662Y476D01*
X662Y478D01*
X670Y478D01*
X670Y480D01*
X678Y480D01*
X678Y482D01*
X686Y482D01*
X686Y484D01*
X532Y484D01*
G37*
D02*
G36*
X692Y432D02*
X692Y430D01*
X684Y430D01*
X684Y428D01*
X676Y428D01*
X676Y426D01*
X668Y426D01*
X668Y424D01*
X660Y424D01*
X660Y422D01*
X652Y422D01*
X652Y420D01*
X644Y420D01*
X644Y418D01*
X636Y418D01*
X636Y416D01*
X628Y416D01*
X628Y414D01*
X620Y414D01*
X620Y412D01*
X612Y412D01*
X612Y410D01*
X604Y410D01*
X604Y408D01*
X596Y408D01*
X596Y406D01*
X588Y406D01*
X588Y404D01*
X580Y404D01*
X580Y402D01*
X572Y402D01*
X572Y400D01*
X564Y400D01*
X564Y398D01*
X556Y398D01*
X556Y396D01*
X548Y396D01*
X548Y394D01*
X540Y394D01*
X540Y392D01*
X536Y392D01*
X536Y388D01*
X534Y388D01*
X534Y384D01*
X532Y384D01*
X532Y380D01*
X530Y380D01*
X530Y378D01*
X528Y378D01*
X528Y376D01*
X526Y376D01*
X526Y374D01*
X524Y374D01*
X524Y372D01*
X522Y372D01*
X522Y370D01*
X520Y370D01*
X520Y368D01*
X516Y368D01*
X516Y348D01*
X518Y348D01*
X518Y346D01*
X522Y346D01*
X522Y344D01*
X524Y344D01*
X524Y342D01*
X526Y342D01*
X526Y340D01*
X528Y340D01*
X528Y338D01*
X530Y338D01*
X530Y334D01*
X532Y334D01*
X532Y332D01*
X534Y332D01*
X534Y328D01*
X536Y328D01*
X536Y322D01*
X538Y322D01*
X538Y316D01*
X1300Y316D01*
X1300Y344D01*
X1298Y344D01*
X1298Y346D01*
X1292Y346D01*
X1292Y348D01*
X1286Y348D01*
X1286Y350D01*
X1280Y350D01*
X1280Y352D01*
X1274Y352D01*
X1274Y354D01*
X1268Y354D01*
X1268Y356D01*
X1262Y356D01*
X1262Y358D01*
X1256Y358D01*
X1256Y360D01*
X1250Y360D01*
X1250Y362D01*
X1244Y362D01*
X1244Y364D01*
X1238Y364D01*
X1238Y366D01*
X1232Y366D01*
X1232Y368D01*
X1226Y368D01*
X1226Y370D01*
X1220Y370D01*
X1220Y372D01*
X1214Y372D01*
X1214Y374D01*
X1208Y374D01*
X1208Y376D01*
X1202Y376D01*
X1202Y378D01*
X1196Y378D01*
X1196Y380D01*
X1190Y380D01*
X1190Y382D01*
X1184Y382D01*
X1184Y384D01*
X1178Y384D01*
X1178Y386D01*
X1172Y386D01*
X1172Y388D01*
X1166Y388D01*
X1166Y390D01*
X1160Y390D01*
X1160Y392D01*
X1154Y392D01*
X1154Y394D01*
X1148Y394D01*
X1148Y396D01*
X1142Y396D01*
X1142Y398D01*
X1136Y398D01*
X1136Y400D01*
X1130Y400D01*
X1130Y402D01*
X1124Y402D01*
X1124Y404D01*
X1118Y404D01*
X1118Y406D01*
X1112Y406D01*
X1112Y408D01*
X1106Y408D01*
X1106Y410D01*
X1100Y410D01*
X1100Y412D01*
X1094Y412D01*
X1094Y414D01*
X1088Y414D01*
X1088Y416D01*
X1082Y416D01*
X1082Y418D01*
X1076Y418D01*
X1076Y420D01*
X1070Y420D01*
X1070Y422D01*
X1064Y422D01*
X1064Y424D01*
X1058Y424D01*
X1058Y426D01*
X1052Y426D01*
X1052Y428D01*
X1046Y428D01*
X1046Y430D01*
X1040Y430D01*
X1040Y432D01*
X692Y432D01*
G37*
D02*
G36*
X538Y316D02*
X538Y314D01*
X1964Y314D01*
X1964Y316D01*
X538Y316D01*
G37*
D02*
G36*
X538Y316D02*
X538Y314D01*
X1964Y314D01*
X1964Y316D01*
X538Y316D01*
G37*
D02*
G36*
X540Y314D02*
X540Y302D01*
X538Y302D01*
X538Y294D01*
X536Y294D01*
X536Y288D01*
X534Y288D01*
X534Y284D01*
X532Y284D01*
X532Y280D01*
X530Y280D01*
X530Y278D01*
X528Y278D01*
X528Y276D01*
X526Y276D01*
X526Y274D01*
X524Y274D01*
X524Y272D01*
X522Y272D01*
X522Y270D01*
X520Y270D01*
X520Y268D01*
X516Y268D01*
X516Y266D01*
X512Y266D01*
X512Y264D01*
X508Y264D01*
X508Y262D01*
X500Y262D01*
X500Y260D01*
X1964Y260D01*
X1964Y314D01*
X540Y314D01*
G37*
D02*
G36*
X40Y260D02*
X40Y258D01*
X354Y258D01*
X354Y260D01*
X40Y260D01*
G37*
D02*
G36*
X40Y260D02*
X40Y258D01*
X354Y258D01*
X354Y260D01*
X40Y260D01*
G37*
D02*
G36*
X428Y260D02*
X428Y258D01*
X1964Y258D01*
X1964Y260D01*
X428Y260D01*
G37*
D02*
G36*
X428Y260D02*
X428Y258D01*
X1964Y258D01*
X1964Y260D01*
X428Y260D01*
G37*
D02*
G36*
X40Y258D02*
X40Y214D01*
X248Y214D01*
X248Y102D01*
X480Y102D01*
X480Y104D01*
X474Y104D01*
X474Y106D01*
X468Y106D01*
X468Y108D01*
X464Y108D01*
X464Y110D01*
X462Y110D01*
X462Y112D01*
X458Y112D01*
X458Y114D01*
X456Y114D01*
X456Y116D01*
X454Y116D01*
X454Y118D01*
X452Y118D01*
X452Y120D01*
X450Y120D01*
X450Y122D01*
X448Y122D01*
X448Y124D01*
X446Y124D01*
X446Y128D01*
X444Y128D01*
X444Y130D01*
X442Y130D01*
X442Y134D01*
X440Y134D01*
X440Y140D01*
X438Y140D01*
X438Y148D01*
X436Y148D01*
X436Y178D01*
X434Y178D01*
X434Y180D01*
X432Y180D01*
X432Y182D01*
X430Y182D01*
X430Y184D01*
X428Y184D01*
X428Y186D01*
X426Y186D01*
X426Y188D01*
X424Y188D01*
X424Y190D01*
X422Y190D01*
X422Y192D01*
X420Y192D01*
X420Y194D01*
X418Y194D01*
X418Y196D01*
X416Y196D01*
X416Y198D01*
X414Y198D01*
X414Y200D01*
X412Y200D01*
X412Y202D01*
X410Y202D01*
X410Y204D01*
X408Y204D01*
X408Y206D01*
X406Y206D01*
X406Y208D01*
X404Y208D01*
X404Y210D01*
X402Y210D01*
X402Y212D01*
X400Y212D01*
X400Y214D01*
X398Y214D01*
X398Y216D01*
X396Y216D01*
X396Y218D01*
X394Y218D01*
X394Y220D01*
X392Y220D01*
X392Y222D01*
X390Y222D01*
X390Y224D01*
X388Y224D01*
X388Y226D01*
X386Y226D01*
X386Y228D01*
X384Y228D01*
X384Y230D01*
X382Y230D01*
X382Y232D01*
X380Y232D01*
X380Y234D01*
X378Y234D01*
X378Y236D01*
X376Y236D01*
X376Y238D01*
X374Y238D01*
X374Y240D01*
X372Y240D01*
X372Y242D01*
X370Y242D01*
X370Y244D01*
X368Y244D01*
X368Y246D01*
X366Y246D01*
X366Y248D01*
X364Y248D01*
X364Y250D01*
X362Y250D01*
X362Y252D01*
X360Y252D01*
X360Y254D01*
X358Y254D01*
X358Y256D01*
X356Y256D01*
X356Y258D01*
X40Y258D01*
G37*
D02*
G36*
X430Y258D02*
X430Y256D01*
X432Y256D01*
X432Y254D01*
X434Y254D01*
X434Y252D01*
X436Y252D01*
X436Y250D01*
X438Y250D01*
X438Y248D01*
X440Y248D01*
X440Y246D01*
X442Y246D01*
X442Y244D01*
X444Y244D01*
X444Y242D01*
X446Y242D01*
X446Y240D01*
X448Y240D01*
X448Y238D01*
X450Y238D01*
X450Y236D01*
X452Y236D01*
X452Y234D01*
X454Y234D01*
X454Y232D01*
X456Y232D01*
X456Y230D01*
X458Y230D01*
X458Y228D01*
X460Y228D01*
X460Y226D01*
X462Y226D01*
X462Y224D01*
X464Y224D01*
X464Y222D01*
X466Y222D01*
X466Y220D01*
X468Y220D01*
X468Y218D01*
X470Y218D01*
X470Y216D01*
X472Y216D01*
X472Y214D01*
X500Y214D01*
X500Y212D01*
X510Y212D01*
X510Y210D01*
X514Y210D01*
X514Y208D01*
X518Y208D01*
X518Y206D01*
X522Y206D01*
X522Y204D01*
X524Y204D01*
X524Y202D01*
X528Y202D01*
X528Y200D01*
X530Y200D01*
X530Y198D01*
X532Y198D01*
X532Y196D01*
X534Y196D01*
X534Y194D01*
X536Y194D01*
X536Y190D01*
X538Y190D01*
X538Y188D01*
X540Y188D01*
X540Y184D01*
X542Y184D01*
X542Y180D01*
X544Y180D01*
X544Y176D01*
X546Y176D01*
X546Y168D01*
X548Y168D01*
X548Y148D01*
X546Y148D01*
X546Y140D01*
X544Y140D01*
X544Y134D01*
X542Y134D01*
X542Y130D01*
X540Y130D01*
X540Y128D01*
X538Y128D01*
X538Y124D01*
X536Y124D01*
X536Y122D01*
X534Y122D01*
X534Y120D01*
X532Y120D01*
X532Y118D01*
X530Y118D01*
X530Y116D01*
X528Y116D01*
X528Y114D01*
X526Y114D01*
X526Y112D01*
X522Y112D01*
X522Y110D01*
X520Y110D01*
X520Y108D01*
X516Y108D01*
X516Y106D01*
X510Y106D01*
X510Y104D01*
X504Y104D01*
X504Y102D01*
X1964Y102D01*
X1964Y258D01*
X430Y258D01*
G37*
D02*
G36*
X40Y214D02*
X40Y102D01*
X136Y102D01*
X136Y214D01*
X40Y214D01*
G37*
D02*
G36*
X40Y102D02*
X40Y100D01*
X1964Y100D01*
X1964Y102D01*
X40Y102D01*
G37*
D02*
G36*
X40Y102D02*
X40Y100D01*
X1964Y100D01*
X1964Y102D01*
X40Y102D01*
G37*
D02*
G36*
X40Y102D02*
X40Y100D01*
X1964Y100D01*
X1964Y102D01*
X40Y102D01*
G37*
D02*
G36*
X40Y100D02*
X40Y40D01*
X1964Y40D01*
X1964Y100D01*
X40Y100D01*
G37*
D02*
G36*
X140Y332D02*
X174Y332D01*
X174Y289D01*
X140Y289D01*
X140Y332D01*
G37*
D02*
G36*
X208Y332D02*
X240Y332D01*
X240Y289D01*
X208Y289D01*
X208Y332D01*
G37*
D02*
G36*
X166Y136D02*
X217Y136D01*
X217Y102D01*
X166Y102D01*
X166Y136D01*
G37*
D02*
G36*
X132Y186D02*
X166Y186D01*
X166Y135D01*
X132Y135D01*
X132Y186D01*
G37*
D02*
G36*
X216Y186D02*
X248Y186D01*
X248Y135D01*
X216Y135D01*
X216Y186D01*
G37*
D02*
G36*
X319Y860D02*
X364Y860D01*
X364Y828D01*
X319Y828D01*
X319Y860D01*
G37*
D02*
G36*
X319Y790D02*
X364Y790D01*
X364Y758D01*
X319Y758D01*
X319Y790D01*
G37*
D02*
G36*
X290Y831D02*
X322Y831D01*
X322Y786D01*
X290Y786D01*
X290Y831D01*
G37*
D02*
G54D18*
X1309Y990D02*
X1373Y990D01*
X1309Y989D02*
X1373Y989D01*
X1309Y988D02*
X1373Y988D01*
X1309Y987D02*
X1373Y987D01*
X1309Y986D02*
X1373Y986D01*
X1309Y985D02*
X1373Y985D01*
X1309Y984D02*
X1373Y984D01*
X1309Y983D02*
X1373Y983D01*
X1309Y982D02*
X1373Y982D01*
X1309Y981D02*
X1373Y981D01*
X1309Y980D02*
X1335Y980D01*
X1348Y980D02*
X1373Y980D01*
X1309Y979D02*
X1332Y979D01*
X1351Y979D02*
X1373Y979D01*
X1309Y978D02*
X1330Y978D01*
X1353Y978D02*
X1373Y978D01*
X1309Y977D02*
X1328Y977D01*
X1354Y977D02*
X1373Y977D01*
X1309Y976D02*
X1327Y976D01*
X1356Y976D02*
X1373Y976D01*
X1309Y975D02*
X1326Y975D01*
X1357Y975D02*
X1373Y975D01*
X1309Y974D02*
X1325Y974D01*
X1358Y974D02*
X1373Y974D01*
X1309Y973D02*
X1324Y973D01*
X1359Y973D02*
X1373Y973D01*
X1309Y972D02*
X1323Y972D01*
X1360Y972D02*
X1373Y972D01*
X1309Y971D02*
X1322Y971D01*
X1361Y971D02*
X1373Y971D01*
X1309Y970D02*
X1322Y970D01*
X1361Y970D02*
X1373Y970D01*
X1309Y969D02*
X1321Y969D01*
X1362Y969D02*
X1373Y969D01*
X1309Y968D02*
X1321Y968D01*
X1362Y968D02*
X1373Y968D01*
X1309Y967D02*
X1320Y967D01*
X1363Y967D02*
X1373Y967D01*
X1309Y966D02*
X1320Y966D01*
X1363Y966D02*
X1373Y966D01*
X1309Y965D02*
X1320Y965D01*
X1363Y965D02*
X1373Y965D01*
X1309Y964D02*
X1319Y964D01*
X1364Y964D02*
X1373Y964D01*
X1309Y963D02*
X1319Y963D01*
X1364Y963D02*
X1373Y963D01*
X1309Y962D02*
X1319Y962D01*
X1364Y962D02*
X1373Y962D01*
X1309Y961D02*
X1319Y961D01*
X1364Y961D02*
X1373Y961D01*
X1309Y960D02*
X1319Y960D01*
X1364Y960D02*
X1373Y960D01*
X1309Y959D02*
X1318Y959D01*
X1364Y959D02*
X1373Y959D01*
X1309Y958D02*
X1318Y958D01*
X1364Y958D02*
X1373Y958D01*
X1309Y957D02*
X1319Y957D01*
X1364Y957D02*
X1373Y957D01*
X1309Y956D02*
X1319Y956D01*
X1364Y956D02*
X1373Y956D01*
X1309Y955D02*
X1319Y955D01*
X1364Y955D02*
X1373Y955D01*
X1309Y954D02*
X1319Y954D01*
X1364Y954D02*
X1373Y954D01*
X1309Y953D02*
X1319Y953D01*
X1364Y953D02*
X1373Y953D01*
X1309Y952D02*
X1319Y952D01*
X1363Y952D02*
X1373Y952D01*
X1309Y951D02*
X1320Y951D01*
X1363Y951D02*
X1373Y951D01*
X1309Y950D02*
X1320Y950D01*
X1363Y950D02*
X1373Y950D01*
X1309Y949D02*
X1321Y949D01*
X1362Y949D02*
X1373Y949D01*
X1309Y948D02*
X1321Y948D01*
X1362Y948D02*
X1373Y948D01*
X1309Y947D02*
X1322Y947D01*
X1361Y947D02*
X1373Y947D01*
X1309Y946D02*
X1322Y946D01*
X1361Y946D02*
X1373Y946D01*
X1309Y945D02*
X1323Y945D01*
X1360Y945D02*
X1373Y945D01*
X1309Y944D02*
X1324Y944D01*
X1359Y944D02*
X1373Y944D01*
X1309Y943D02*
X1325Y943D01*
X1358Y943D02*
X1373Y943D01*
X1309Y942D02*
X1326Y942D01*
X1357Y942D02*
X1373Y942D01*
X1309Y941D02*
X1327Y941D01*
X1356Y941D02*
X1373Y941D01*
X1309Y940D02*
X1328Y940D01*
X1355Y940D02*
X1373Y940D01*
X1309Y939D02*
X1330Y939D01*
X1353Y939D02*
X1373Y939D01*
X1309Y938D02*
X1332Y938D01*
X1351Y938D02*
X1373Y938D01*
X1309Y937D02*
X1334Y937D01*
X1349Y937D02*
X1373Y937D01*
X1309Y936D02*
X1339Y936D01*
X1344Y936D02*
X1373Y936D01*
X1309Y935D02*
X1373Y935D01*
X1309Y934D02*
X1373Y934D01*
X1309Y933D02*
X1373Y933D01*
X1309Y932D02*
X1373Y932D01*
X1309Y931D02*
X1373Y931D01*
X1309Y930D02*
X1373Y930D01*
X1309Y929D02*
X1373Y929D01*
X1309Y928D02*
X1373Y928D01*
X1309Y927D02*
X1373Y927D01*
X1310Y926D02*
X1373Y926D01*
X1310Y391D02*
X1373Y391D01*
X1309Y390D02*
X1373Y390D01*
X1309Y389D02*
X1373Y389D01*
X1309Y388D02*
X1373Y388D01*
X1309Y387D02*
X1373Y387D01*
X1309Y386D02*
X1373Y386D01*
X1309Y385D02*
X1373Y385D01*
X1309Y384D02*
X1373Y384D01*
X1309Y383D02*
X1373Y383D01*
X1309Y382D02*
X1373Y382D01*
X1309Y381D02*
X1340Y381D01*
X1343Y381D02*
X1373Y381D01*
X1309Y380D02*
X1334Y380D01*
X1348Y380D02*
X1373Y380D01*
X1309Y379D02*
X1332Y379D01*
X1351Y379D02*
X1373Y379D01*
X1309Y378D02*
X1330Y378D01*
X1353Y378D02*
X1373Y378D01*
X1309Y377D02*
X1328Y377D01*
X1355Y377D02*
X1373Y377D01*
X1309Y376D02*
X1327Y376D01*
X1356Y376D02*
X1373Y376D01*
X1309Y375D02*
X1326Y375D01*
X1357Y375D02*
X1373Y375D01*
X1309Y374D02*
X1325Y374D01*
X1358Y374D02*
X1373Y374D01*
X1309Y373D02*
X1324Y373D01*
X1359Y373D02*
X1373Y373D01*
X1309Y372D02*
X1323Y372D01*
X1360Y372D02*
X1373Y372D01*
X1309Y371D02*
X1322Y371D01*
X1361Y371D02*
X1373Y371D01*
X1309Y370D02*
X1322Y370D01*
X1361Y370D02*
X1373Y370D01*
X1309Y369D02*
X1321Y369D01*
X1362Y369D02*
X1373Y369D01*
X1309Y368D02*
X1321Y368D01*
X1362Y368D02*
X1373Y368D01*
X1309Y367D02*
X1320Y367D01*
X1363Y367D02*
X1373Y367D01*
X1309Y366D02*
X1320Y366D01*
X1363Y366D02*
X1373Y366D01*
X1309Y365D02*
X1320Y365D01*
X1363Y365D02*
X1373Y365D01*
X1309Y364D02*
X1319Y364D01*
X1364Y364D02*
X1373Y364D01*
X1309Y363D02*
X1319Y363D01*
X1364Y363D02*
X1373Y363D01*
X1309Y362D02*
X1319Y362D01*
X1364Y362D02*
X1373Y362D01*
X1309Y361D02*
X1319Y361D01*
X1364Y361D02*
X1373Y361D01*
X1309Y360D02*
X1319Y360D01*
X1364Y360D02*
X1373Y360D01*
X1309Y359D02*
X1318Y359D01*
X1364Y359D02*
X1373Y359D01*
X1309Y358D02*
X1318Y358D01*
X1364Y358D02*
X1373Y358D01*
X1309Y357D02*
X1319Y357D01*
X1364Y357D02*
X1373Y357D01*
X1309Y356D02*
X1319Y356D01*
X1364Y356D02*
X1373Y356D01*
X1309Y355D02*
X1319Y355D01*
X1364Y355D02*
X1373Y355D01*
X1309Y354D02*
X1319Y354D01*
X1364Y354D02*
X1373Y354D01*
X1309Y353D02*
X1319Y353D01*
X1364Y353D02*
X1373Y353D01*
X1309Y352D02*
X1320Y352D01*
X1363Y352D02*
X1373Y352D01*
X1309Y351D02*
X1320Y351D01*
X1363Y351D02*
X1373Y351D01*
X1309Y350D02*
X1320Y350D01*
X1363Y350D02*
X1373Y350D01*
X1309Y349D02*
X1321Y349D01*
X1362Y349D02*
X1373Y349D01*
X1309Y348D02*
X1321Y348D01*
X1362Y348D02*
X1373Y348D01*
X1309Y347D02*
X1322Y347D01*
X1361Y347D02*
X1373Y347D01*
X1309Y346D02*
X1322Y346D01*
X1361Y346D02*
X1373Y346D01*
X1309Y345D02*
X1323Y345D01*
X1360Y345D02*
X1373Y345D01*
X1309Y344D02*
X1324Y344D01*
X1359Y344D02*
X1373Y344D01*
X1309Y343D02*
X1325Y343D01*
X1358Y343D02*
X1373Y343D01*
X1309Y342D02*
X1326Y342D01*
X1357Y342D02*
X1373Y342D01*
X1309Y341D02*
X1327Y341D01*
X1356Y341D02*
X1373Y341D01*
X1309Y340D02*
X1328Y340D01*
X1355Y340D02*
X1373Y340D01*
X1309Y339D02*
X1330Y339D01*
X1353Y339D02*
X1373Y339D01*
X1309Y338D02*
X1332Y338D01*
X1351Y338D02*
X1373Y338D01*
X1309Y337D02*
X1335Y337D01*
X1348Y337D02*
X1373Y337D01*
X1309Y336D02*
X1373Y336D01*
X1309Y335D02*
X1373Y335D01*
X1309Y334D02*
X1373Y334D01*
X1309Y333D02*
X1373Y333D01*
X1309Y332D02*
X1373Y332D01*
X1309Y331D02*
X1373Y331D01*
X1309Y330D02*
X1373Y330D01*
X1309Y329D02*
X1373Y329D01*
X1309Y328D02*
X1373Y328D01*
X1309Y327D02*
X1373Y327D01*
D02*
G04 End of Copper0*
M02*