G04 MADE WITH FRITZING*
G04 WWW.FRITZING.ORG*
G04 DOUBLE SIDED*
G04 HOLES PLATED*
G04 CONTOUR ON CENTER OF CONTOUR VECTOR*
%ASAXBY*%
%FSLAX23Y23*%
%MOIN*%
%OFA0B0*%
%SFA1.0B1.0*%
%ADD10C,0.015205*%
%ADD11R,2.004170X1.272460X1.988170X1.256460*%
%ADD12C,0.008000*%
%ADD13R,0.201225X0.018079*%
%ADD14R,0.001000X0.001000*%
%LNSILK0*%
G90*
G70*
G54D10*
X1442Y678D03*
G54D12*
X4Y1268D02*
X2000Y1268D01*
X2000Y4D01*
X4Y4D01*
X4Y1268D01*
D02*
G54D13*
X1434Y621D03*
G54D14*
X1020Y829D02*
X1039Y829D01*
X1020Y828D02*
X1039Y828D01*
X1020Y827D02*
X1039Y827D01*
X1020Y826D02*
X1040Y826D01*
X1019Y825D02*
X1040Y825D01*
X1019Y824D02*
X1040Y824D01*
X1019Y823D02*
X1040Y823D01*
X1019Y822D02*
X1040Y822D01*
X1019Y821D02*
X1041Y821D01*
X1018Y820D02*
X1041Y820D01*
X1018Y819D02*
X1041Y819D01*
X1018Y818D02*
X1041Y818D01*
X1018Y817D02*
X1041Y817D01*
X1018Y816D02*
X1041Y816D01*
X1018Y815D02*
X1042Y815D01*
X1017Y814D02*
X1042Y814D01*
X1017Y813D02*
X1042Y813D01*
X1334Y813D02*
X1534Y813D01*
X1017Y812D02*
X1042Y812D01*
X1334Y812D02*
X1534Y812D01*
X1017Y811D02*
X1042Y811D01*
X1334Y811D02*
X1534Y811D01*
X1017Y810D02*
X1043Y810D01*
X1334Y810D02*
X1534Y810D01*
X1016Y809D02*
X1043Y809D01*
X1334Y809D02*
X1534Y809D01*
X1016Y808D02*
X1043Y808D01*
X1334Y808D02*
X1534Y808D01*
X1016Y807D02*
X1043Y807D01*
X1334Y807D02*
X1534Y807D01*
X964Y806D02*
X966Y806D01*
X1016Y806D02*
X1043Y806D01*
X1093Y806D02*
X1095Y806D01*
X1334Y806D02*
X1534Y806D01*
X963Y805D02*
X968Y805D01*
X1016Y805D02*
X1044Y805D01*
X1092Y805D02*
X1096Y805D01*
X1334Y805D02*
X1534Y805D01*
X962Y804D02*
X969Y804D01*
X1016Y804D02*
X1044Y804D01*
X1090Y804D02*
X1097Y804D01*
X1334Y804D02*
X1534Y804D01*
X961Y803D02*
X971Y803D01*
X1015Y803D02*
X1044Y803D01*
X1089Y803D02*
X1098Y803D01*
X1334Y803D02*
X1534Y803D01*
X960Y802D02*
X972Y802D01*
X1015Y802D02*
X1044Y802D01*
X1087Y802D02*
X1099Y802D01*
X1334Y802D02*
X1534Y802D01*
X959Y801D02*
X973Y801D01*
X1014Y801D02*
X1046Y801D01*
X1086Y801D02*
X1100Y801D01*
X1334Y801D02*
X1534Y801D01*
X958Y800D02*
X975Y800D01*
X1010Y800D02*
X1049Y800D01*
X1084Y800D02*
X1101Y800D01*
X1334Y800D02*
X1534Y800D01*
X957Y799D02*
X976Y799D01*
X1006Y799D02*
X1053Y799D01*
X1083Y799D02*
X1102Y799D01*
X1334Y799D02*
X1534Y799D01*
X956Y798D02*
X978Y798D01*
X1004Y798D02*
X1056Y798D01*
X1081Y798D02*
X1103Y798D01*
X1334Y798D02*
X1534Y798D01*
X955Y797D02*
X979Y797D01*
X1001Y797D02*
X1058Y797D01*
X1080Y797D02*
X1104Y797D01*
X1334Y797D02*
X1534Y797D01*
X954Y796D02*
X981Y796D01*
X999Y796D02*
X1060Y796D01*
X1078Y796D02*
X1105Y796D01*
X1334Y796D02*
X1534Y796D01*
X953Y795D02*
X982Y795D01*
X997Y795D02*
X1062Y795D01*
X1077Y795D02*
X1106Y795D01*
X1334Y795D02*
X1534Y795D01*
X952Y794D02*
X984Y794D01*
X995Y794D02*
X1064Y794D01*
X1076Y794D02*
X1107Y794D01*
X1334Y794D02*
X1534Y794D01*
X952Y793D02*
X985Y793D01*
X993Y793D02*
X1066Y793D01*
X1074Y793D02*
X1107Y793D01*
X1334Y793D02*
X1534Y793D01*
X953Y792D02*
X987Y792D01*
X991Y792D02*
X1068Y792D01*
X1073Y792D02*
X1107Y792D01*
X1334Y792D02*
X1534Y792D01*
X953Y791D02*
X988Y791D01*
X990Y791D02*
X1106Y791D01*
X1334Y791D02*
X1534Y791D01*
X954Y790D02*
X1105Y790D01*
X1334Y790D02*
X1534Y790D01*
X955Y789D02*
X1105Y789D01*
X1334Y789D02*
X1534Y789D01*
X955Y788D02*
X1104Y788D01*
X1334Y788D02*
X1534Y788D01*
X956Y787D02*
X1103Y787D01*
X1334Y787D02*
X1402Y787D01*
X1429Y787D02*
X1534Y787D01*
X957Y786D02*
X1103Y786D01*
X1334Y786D02*
X1399Y786D01*
X1434Y786D02*
X1534Y786D01*
X957Y785D02*
X1102Y785D01*
X1334Y785D02*
X1398Y785D01*
X1436Y785D02*
X1534Y785D01*
X958Y784D02*
X1101Y784D01*
X1334Y784D02*
X1397Y784D01*
X1438Y784D02*
X1534Y784D01*
X959Y783D02*
X1101Y783D01*
X1334Y783D02*
X1396Y783D01*
X1439Y783D02*
X1534Y783D01*
X959Y782D02*
X1100Y782D01*
X1334Y782D02*
X1396Y782D01*
X1440Y782D02*
X1534Y782D01*
X960Y781D02*
X1099Y781D01*
X1334Y781D02*
X1395Y781D01*
X1442Y781D02*
X1534Y781D01*
X961Y780D02*
X1098Y780D01*
X1334Y780D02*
X1395Y780D01*
X1443Y780D02*
X1534Y780D01*
X961Y779D02*
X1098Y779D01*
X1334Y779D02*
X1395Y779D01*
X1444Y779D02*
X1534Y779D01*
X962Y778D02*
X1097Y778D01*
X1334Y778D02*
X1395Y778D01*
X1445Y778D02*
X1534Y778D01*
X963Y777D02*
X1096Y777D01*
X1334Y777D02*
X1395Y777D01*
X1445Y777D02*
X1534Y777D01*
X964Y776D02*
X1096Y776D01*
X1334Y776D02*
X1395Y776D01*
X1446Y776D02*
X1534Y776D01*
X964Y775D02*
X1095Y775D01*
X1334Y775D02*
X1396Y775D01*
X1447Y775D02*
X1534Y775D01*
X965Y774D02*
X1094Y774D01*
X1334Y774D02*
X1396Y774D01*
X1447Y774D02*
X1534Y774D01*
X966Y773D02*
X1094Y773D01*
X1334Y773D02*
X1396Y773D01*
X1448Y773D02*
X1534Y773D01*
X966Y772D02*
X1093Y772D01*
X1334Y772D02*
X1397Y772D01*
X1448Y772D02*
X1534Y772D01*
X967Y771D02*
X1092Y771D01*
X1334Y771D02*
X1398Y771D01*
X1449Y771D02*
X1534Y771D01*
X968Y770D02*
X1092Y770D01*
X1334Y770D02*
X1400Y770D01*
X1449Y770D02*
X1534Y770D01*
X967Y769D02*
X1092Y769D01*
X1334Y769D02*
X1405Y769D01*
X1449Y769D02*
X1534Y769D01*
X967Y768D02*
X1093Y768D01*
X1334Y768D02*
X1427Y768D01*
X1450Y768D02*
X1534Y768D01*
X966Y767D02*
X1093Y767D01*
X1334Y767D02*
X1428Y767D01*
X1450Y767D02*
X1534Y767D01*
X965Y766D02*
X1094Y766D01*
X1334Y766D02*
X1429Y766D01*
X1450Y766D02*
X1534Y766D01*
X965Y765D02*
X1094Y765D01*
X1334Y765D02*
X1430Y765D01*
X1450Y765D02*
X1534Y765D01*
X964Y764D02*
X1023Y764D01*
X1036Y764D02*
X1095Y764D01*
X1334Y764D02*
X1430Y764D01*
X1450Y764D02*
X1534Y764D01*
X964Y763D02*
X1019Y763D01*
X1041Y763D02*
X1096Y763D01*
X1334Y763D02*
X1431Y763D01*
X1450Y763D02*
X1534Y763D01*
X963Y762D02*
X1016Y762D01*
X1043Y762D02*
X1096Y762D01*
X1334Y762D02*
X1431Y762D01*
X1451Y762D02*
X1534Y762D01*
X963Y761D02*
X1014Y761D01*
X1046Y761D02*
X1097Y761D01*
X1334Y761D02*
X1431Y761D01*
X1451Y761D02*
X1534Y761D01*
X962Y760D02*
X1012Y760D01*
X1048Y760D02*
X1097Y760D01*
X1334Y760D02*
X1431Y760D01*
X1451Y760D02*
X1534Y760D01*
X962Y759D02*
X1010Y759D01*
X1049Y759D02*
X1097Y759D01*
X1334Y759D02*
X1431Y759D01*
X1451Y759D02*
X1534Y759D01*
X961Y758D02*
X1008Y758D01*
X1051Y758D02*
X1098Y758D01*
X1334Y758D02*
X1431Y758D01*
X1451Y758D02*
X1534Y758D01*
X961Y757D02*
X1007Y757D01*
X1052Y757D02*
X1098Y757D01*
X1334Y757D02*
X1431Y757D01*
X1451Y757D02*
X1534Y757D01*
X960Y756D02*
X1006Y756D01*
X1053Y756D02*
X1099Y756D01*
X1334Y756D02*
X1431Y756D01*
X1451Y756D02*
X1534Y756D01*
X960Y755D02*
X1005Y755D01*
X1055Y755D02*
X1099Y755D01*
X1334Y755D02*
X1431Y755D01*
X1451Y755D02*
X1534Y755D01*
X960Y754D02*
X1004Y754D01*
X1056Y754D02*
X1100Y754D01*
X1334Y754D02*
X1431Y754D01*
X1451Y754D02*
X1534Y754D01*
X959Y753D02*
X1003Y753D01*
X1057Y753D02*
X1100Y753D01*
X1334Y753D02*
X1431Y753D01*
X1451Y753D02*
X1534Y753D01*
X959Y752D02*
X1002Y752D01*
X1057Y752D02*
X1100Y752D01*
X1334Y752D02*
X1431Y752D01*
X1451Y752D02*
X1534Y752D01*
X959Y751D02*
X1001Y751D01*
X1058Y751D02*
X1101Y751D01*
X1334Y751D02*
X1431Y751D01*
X1451Y751D02*
X1534Y751D01*
X958Y750D02*
X1000Y750D01*
X1059Y750D02*
X1101Y750D01*
X1334Y750D02*
X1431Y750D01*
X1451Y750D02*
X1534Y750D01*
X958Y749D02*
X999Y749D01*
X1060Y749D02*
X1101Y749D01*
X1334Y749D02*
X1414Y749D01*
X1463Y749D02*
X1534Y749D01*
X958Y748D02*
X999Y748D01*
X1060Y748D02*
X1102Y748D01*
X1334Y748D02*
X1412Y748D01*
X1465Y748D02*
X1534Y748D01*
X957Y747D02*
X998Y747D01*
X1061Y747D02*
X1102Y747D01*
X1334Y747D02*
X1411Y747D01*
X1467Y747D02*
X1534Y747D01*
X957Y746D02*
X998Y746D01*
X1062Y746D02*
X1102Y746D01*
X1334Y746D02*
X1410Y746D01*
X1467Y746D02*
X1534Y746D01*
X957Y745D02*
X997Y745D01*
X1062Y745D02*
X1102Y745D01*
X1334Y745D02*
X1410Y745D01*
X1468Y745D02*
X1534Y745D01*
X957Y744D02*
X997Y744D01*
X1063Y744D02*
X1103Y744D01*
X1334Y744D02*
X1409Y744D01*
X1468Y744D02*
X1534Y744D01*
X953Y743D02*
X996Y743D01*
X1063Y743D02*
X1106Y743D01*
X1334Y743D02*
X1409Y743D01*
X1469Y743D02*
X1534Y743D01*
X948Y742D02*
X996Y742D01*
X1064Y742D02*
X1111Y742D01*
X1334Y742D02*
X1409Y742D01*
X1469Y742D02*
X1534Y742D01*
X942Y741D02*
X995Y741D01*
X1064Y741D02*
X1117Y741D01*
X1334Y741D02*
X1409Y741D01*
X1469Y741D02*
X1534Y741D01*
X937Y740D02*
X995Y740D01*
X1064Y740D02*
X1122Y740D01*
X1334Y740D02*
X1409Y740D01*
X1469Y740D02*
X1534Y740D01*
X932Y739D02*
X995Y739D01*
X1065Y739D02*
X1128Y739D01*
X1334Y739D02*
X1409Y739D01*
X1469Y739D02*
X1534Y739D01*
X929Y738D02*
X994Y738D01*
X1065Y738D02*
X1130Y738D01*
X1334Y738D02*
X1409Y738D01*
X1468Y738D02*
X1534Y738D01*
X929Y737D02*
X994Y737D01*
X1065Y737D02*
X1130Y737D01*
X1334Y737D02*
X1409Y737D01*
X1468Y737D02*
X1534Y737D01*
X929Y736D02*
X994Y736D01*
X1065Y736D02*
X1130Y736D01*
X1334Y736D02*
X1410Y736D01*
X1468Y736D02*
X1534Y736D01*
X929Y735D02*
X994Y735D01*
X1066Y735D02*
X1130Y735D01*
X1334Y735D02*
X1410Y735D01*
X1467Y735D02*
X1534Y735D01*
X929Y734D02*
X994Y734D01*
X1066Y734D02*
X1130Y734D01*
X1334Y734D02*
X1411Y734D01*
X1466Y734D02*
X1534Y734D01*
X929Y733D02*
X993Y733D01*
X1066Y733D02*
X1130Y733D01*
X1334Y733D02*
X1413Y733D01*
X1465Y733D02*
X1534Y733D01*
X929Y732D02*
X993Y732D01*
X1066Y732D02*
X1130Y732D01*
X1334Y732D02*
X1415Y732D01*
X1462Y732D02*
X1534Y732D01*
X929Y731D02*
X993Y731D01*
X1066Y731D02*
X1130Y731D01*
X1334Y731D02*
X1431Y731D01*
X1451Y731D02*
X1534Y731D01*
X929Y730D02*
X993Y730D01*
X1066Y730D02*
X1130Y730D01*
X1334Y730D02*
X1431Y730D01*
X1451Y730D02*
X1534Y730D01*
X929Y729D02*
X993Y729D01*
X1066Y729D02*
X1130Y729D01*
X1334Y729D02*
X1431Y729D01*
X1451Y729D02*
X1534Y729D01*
X929Y728D02*
X993Y728D01*
X1066Y728D02*
X1130Y728D01*
X1334Y728D02*
X1431Y728D01*
X1451Y728D02*
X1534Y728D01*
X929Y727D02*
X993Y727D01*
X1066Y727D02*
X1130Y727D01*
X1334Y727D02*
X1431Y727D01*
X1451Y727D02*
X1534Y727D01*
X929Y726D02*
X993Y726D01*
X1066Y726D02*
X1130Y726D01*
X1334Y726D02*
X1431Y726D01*
X1451Y726D02*
X1534Y726D01*
X929Y725D02*
X993Y725D01*
X1066Y725D02*
X1130Y725D01*
X1334Y725D02*
X1431Y725D01*
X1451Y725D02*
X1534Y725D01*
X929Y724D02*
X993Y724D01*
X1066Y724D02*
X1130Y724D01*
X1334Y724D02*
X1431Y724D01*
X1451Y724D02*
X1534Y724D01*
X929Y723D02*
X994Y723D01*
X1066Y723D02*
X1130Y723D01*
X1334Y723D02*
X1431Y723D01*
X1451Y723D02*
X1534Y723D01*
X929Y722D02*
X994Y722D01*
X1065Y722D02*
X1130Y722D01*
X1334Y722D02*
X1431Y722D01*
X1451Y722D02*
X1534Y722D01*
X929Y721D02*
X994Y721D01*
X1065Y721D02*
X1130Y721D01*
X1334Y721D02*
X1431Y721D01*
X1451Y721D02*
X1534Y721D01*
X929Y720D02*
X994Y720D01*
X1065Y720D02*
X1130Y720D01*
X1334Y720D02*
X1431Y720D01*
X1451Y720D02*
X1534Y720D01*
X929Y719D02*
X994Y719D01*
X1065Y719D02*
X1130Y719D01*
X1334Y719D02*
X1431Y719D01*
X1451Y719D02*
X1534Y719D01*
X934Y718D02*
X995Y718D01*
X1065Y718D02*
X1125Y718D01*
X1334Y718D02*
X1431Y718D01*
X1451Y718D02*
X1534Y718D01*
X939Y717D02*
X995Y717D01*
X1064Y717D02*
X1120Y717D01*
X1334Y717D02*
X1431Y717D01*
X1451Y717D02*
X1534Y717D01*
X945Y716D02*
X995Y716D01*
X1064Y716D02*
X1115Y716D01*
X1334Y716D02*
X1431Y716D01*
X1451Y716D02*
X1534Y716D01*
X950Y715D02*
X996Y715D01*
X1063Y715D02*
X1109Y715D01*
X1334Y715D02*
X1431Y715D01*
X1451Y715D02*
X1534Y715D01*
X955Y714D02*
X996Y714D01*
X1063Y714D02*
X1104Y714D01*
X1334Y714D02*
X1431Y714D01*
X1451Y714D02*
X1534Y714D01*
X956Y713D02*
X997Y713D01*
X1063Y713D02*
X1103Y713D01*
X1334Y713D02*
X1431Y713D01*
X1451Y713D02*
X1534Y713D01*
X956Y712D02*
X997Y712D01*
X1062Y712D02*
X1103Y712D01*
X1334Y712D02*
X1431Y712D01*
X1451Y712D02*
X1534Y712D01*
X957Y711D02*
X998Y711D01*
X1062Y711D02*
X1103Y711D01*
X1334Y711D02*
X1431Y711D01*
X1451Y711D02*
X1534Y711D01*
X957Y710D02*
X998Y710D01*
X1061Y710D02*
X1102Y710D01*
X1334Y710D02*
X1431Y710D01*
X1451Y710D02*
X1534Y710D01*
X957Y709D02*
X999Y709D01*
X1060Y709D02*
X1102Y709D01*
X1334Y709D02*
X1431Y709D01*
X1451Y709D02*
X1534Y709D01*
X957Y708D02*
X1000Y708D01*
X1060Y708D02*
X1102Y708D01*
X1334Y708D02*
X1431Y708D01*
X1451Y708D02*
X1534Y708D01*
X958Y707D02*
X1000Y707D01*
X1059Y707D02*
X1102Y707D01*
X1334Y707D02*
X1431Y707D01*
X1451Y707D02*
X1534Y707D01*
X958Y706D02*
X1001Y706D01*
X1058Y706D02*
X1101Y706D01*
X1334Y706D02*
X1431Y706D01*
X1451Y706D02*
X1534Y706D01*
X958Y705D02*
X1002Y705D01*
X1057Y705D02*
X1101Y705D01*
X1334Y705D02*
X1431Y705D01*
X1451Y705D02*
X1534Y705D01*
X959Y704D02*
X1003Y704D01*
X1056Y704D02*
X1101Y704D01*
X1334Y704D02*
X1431Y704D01*
X1451Y704D02*
X1534Y704D01*
X959Y703D02*
X1004Y703D01*
X1055Y703D02*
X1100Y703D01*
X1334Y703D02*
X1431Y703D01*
X1451Y703D02*
X1534Y703D01*
X959Y702D02*
X1005Y702D01*
X1054Y702D02*
X1100Y702D01*
X1334Y702D02*
X1431Y702D01*
X1451Y702D02*
X1534Y702D01*
X960Y701D02*
X1006Y701D01*
X1053Y701D02*
X1100Y701D01*
X1334Y701D02*
X1431Y701D01*
X1451Y701D02*
X1534Y701D01*
X960Y700D02*
X1007Y700D01*
X1052Y700D02*
X1099Y700D01*
X1334Y700D02*
X1431Y700D01*
X1451Y700D02*
X1534Y700D01*
X960Y699D02*
X1009Y699D01*
X1051Y699D02*
X1099Y699D01*
X1334Y699D02*
X1431Y699D01*
X1451Y699D02*
X1534Y699D01*
X961Y698D02*
X1010Y698D01*
X1049Y698D02*
X1098Y698D01*
X1334Y698D02*
X1431Y698D01*
X1451Y698D02*
X1534Y698D01*
X961Y697D02*
X1010Y697D01*
X1049Y697D02*
X1098Y697D01*
X1334Y697D02*
X1431Y697D01*
X1451Y697D02*
X1534Y697D01*
X962Y696D02*
X1010Y696D01*
X1050Y696D02*
X1097Y696D01*
X1334Y696D02*
X1429Y696D01*
X1453Y696D02*
X1534Y696D01*
X962Y695D02*
X1009Y695D01*
X1050Y695D02*
X1097Y695D01*
X1334Y695D02*
X1428Y695D01*
X1454Y695D02*
X1534Y695D01*
X963Y694D02*
X1009Y694D01*
X1050Y694D02*
X1097Y694D01*
X1334Y694D02*
X1426Y694D01*
X1456Y694D02*
X1534Y694D01*
X963Y693D02*
X1008Y693D01*
X1051Y693D02*
X1096Y693D01*
X1334Y693D02*
X1425Y693D01*
X1457Y693D02*
X1534Y693D01*
X964Y692D02*
X1008Y692D01*
X1051Y692D02*
X1096Y692D01*
X1334Y692D02*
X1424Y692D01*
X1458Y692D02*
X1534Y692D01*
X964Y691D02*
X1008Y691D01*
X1052Y691D02*
X1095Y691D01*
X1334Y691D02*
X1424Y691D01*
X1458Y691D02*
X1534Y691D01*
X965Y690D02*
X1007Y690D01*
X1052Y690D02*
X1094Y690D01*
X1334Y690D02*
X1423Y690D01*
X1459Y690D02*
X1534Y690D01*
X965Y689D02*
X1007Y689D01*
X1053Y689D02*
X1094Y689D01*
X1334Y689D02*
X1422Y689D01*
X1460Y689D02*
X1534Y689D01*
X966Y688D02*
X1006Y688D01*
X1053Y688D02*
X1093Y688D01*
X1334Y688D02*
X1422Y688D01*
X1460Y688D02*
X1534Y688D01*
X967Y687D02*
X1006Y687D01*
X1053Y687D02*
X1093Y687D01*
X1334Y687D02*
X1421Y687D01*
X1461Y687D02*
X1534Y687D01*
X967Y686D02*
X1005Y686D01*
X1054Y686D02*
X1093Y686D01*
X1334Y686D02*
X1421Y686D01*
X1461Y686D02*
X1534Y686D01*
X966Y685D02*
X1005Y685D01*
X1054Y685D02*
X1093Y685D01*
X1334Y685D02*
X1421Y685D01*
X1461Y685D02*
X1534Y685D01*
X965Y684D02*
X1005Y684D01*
X1055Y684D02*
X1094Y684D01*
X1334Y684D02*
X1420Y684D01*
X1462Y684D02*
X1534Y684D01*
X965Y683D02*
X1004Y683D01*
X1055Y683D02*
X1095Y683D01*
X1334Y683D02*
X1420Y683D01*
X1462Y683D02*
X1534Y683D01*
X964Y682D02*
X1004Y682D01*
X1055Y682D02*
X1095Y682D01*
X1334Y682D02*
X1420Y682D01*
X1462Y682D02*
X1534Y682D01*
X963Y681D02*
X1003Y681D01*
X1056Y681D02*
X1096Y681D01*
X1334Y681D02*
X1420Y681D01*
X1462Y681D02*
X1534Y681D01*
X963Y680D02*
X1003Y680D01*
X1056Y680D02*
X1097Y680D01*
X1334Y680D02*
X1420Y680D01*
X1462Y680D02*
X1534Y680D01*
X962Y679D02*
X1003Y679D01*
X1057Y679D02*
X1097Y679D01*
X1334Y679D02*
X1420Y679D01*
X1462Y679D02*
X1534Y679D01*
X961Y678D02*
X1002Y678D01*
X1057Y678D02*
X1098Y678D01*
X1334Y678D02*
X1420Y678D01*
X1462Y678D02*
X1534Y678D01*
X960Y677D02*
X1002Y677D01*
X1057Y677D02*
X1099Y677D01*
X1334Y677D02*
X1420Y677D01*
X1462Y677D02*
X1534Y677D01*
X960Y676D02*
X1001Y676D01*
X1058Y676D02*
X1099Y676D01*
X1334Y676D02*
X1420Y676D01*
X1462Y676D02*
X1534Y676D01*
X959Y675D02*
X1001Y675D01*
X1058Y675D02*
X1100Y675D01*
X1334Y675D02*
X1420Y675D01*
X1462Y675D02*
X1534Y675D01*
X958Y674D02*
X1000Y674D01*
X1059Y674D02*
X1101Y674D01*
X1334Y674D02*
X1420Y674D01*
X1462Y674D02*
X1534Y674D01*
X958Y673D02*
X1000Y673D01*
X1059Y673D02*
X1101Y673D01*
X1334Y673D02*
X1421Y673D01*
X1462Y673D02*
X1534Y673D01*
X957Y672D02*
X1000Y672D01*
X1060Y672D02*
X1102Y672D01*
X1334Y672D02*
X1421Y672D01*
X1461Y672D02*
X1534Y672D01*
X956Y671D02*
X999Y671D01*
X1060Y671D02*
X1103Y671D01*
X1334Y671D02*
X1421Y671D01*
X1461Y671D02*
X1534Y671D01*
X956Y670D02*
X999Y670D01*
X1060Y670D02*
X1104Y670D01*
X1334Y670D02*
X1422Y670D01*
X1460Y670D02*
X1534Y670D01*
X955Y669D02*
X998Y669D01*
X1061Y669D02*
X1104Y669D01*
X1334Y669D02*
X1422Y669D01*
X1460Y669D02*
X1534Y669D01*
X954Y668D02*
X998Y668D01*
X1061Y668D02*
X1105Y668D01*
X1334Y668D02*
X1423Y668D01*
X1459Y668D02*
X1534Y668D01*
X954Y667D02*
X998Y667D01*
X1062Y667D02*
X1106Y667D01*
X1334Y667D02*
X1423Y667D01*
X1459Y667D02*
X1534Y667D01*
X953Y666D02*
X997Y666D01*
X1062Y666D02*
X1106Y666D01*
X1334Y666D02*
X1424Y666D01*
X1458Y666D02*
X1534Y666D01*
X952Y665D02*
X986Y665D01*
X988Y665D02*
X997Y665D01*
X1062Y665D02*
X1071Y665D01*
X1073Y665D02*
X1107Y665D01*
X1334Y665D02*
X1425Y665D01*
X1457Y665D02*
X1534Y665D01*
X952Y664D02*
X985Y664D01*
X990Y664D02*
X996Y664D01*
X1063Y664D02*
X1070Y664D01*
X1075Y664D02*
X1107Y664D01*
X1334Y664D02*
X1426Y664D01*
X1456Y664D02*
X1534Y664D01*
X953Y663D02*
X983Y663D01*
X991Y663D02*
X996Y663D01*
X1063Y663D02*
X1068Y663D01*
X1076Y663D02*
X1106Y663D01*
X1334Y663D02*
X1427Y663D01*
X1455Y663D02*
X1534Y663D01*
X954Y662D02*
X982Y662D01*
X993Y662D02*
X996Y662D01*
X1064Y662D02*
X1066Y662D01*
X1078Y662D02*
X1105Y662D01*
X1334Y662D02*
X1428Y662D01*
X1454Y662D02*
X1534Y662D01*
X955Y661D02*
X980Y661D01*
X995Y661D02*
X995Y661D01*
X1064Y661D02*
X1064Y661D01*
X1079Y661D02*
X1104Y661D01*
X1334Y661D02*
X1430Y661D01*
X1452Y661D02*
X1534Y661D01*
X956Y660D02*
X979Y660D01*
X1081Y660D02*
X1103Y660D01*
X1334Y660D02*
X1431Y660D01*
X1451Y660D02*
X1534Y660D01*
X957Y659D02*
X977Y659D01*
X1082Y659D02*
X1102Y659D01*
X1334Y659D02*
X1434Y659D01*
X1448Y659D02*
X1534Y659D01*
X958Y658D02*
X976Y658D01*
X1083Y658D02*
X1101Y658D01*
X1334Y658D02*
X1438Y658D01*
X1444Y658D02*
X1534Y658D01*
X959Y657D02*
X974Y657D01*
X1085Y657D02*
X1100Y657D01*
X1334Y657D02*
X1534Y657D01*
X960Y656D02*
X973Y656D01*
X1086Y656D02*
X1099Y656D01*
X1334Y656D02*
X1534Y656D01*
X961Y655D02*
X971Y655D01*
X1088Y655D02*
X1098Y655D01*
X1334Y655D02*
X1534Y655D01*
X962Y654D02*
X970Y654D01*
X1089Y654D02*
X1097Y654D01*
X1334Y654D02*
X1534Y654D01*
X963Y653D02*
X968Y653D01*
X1091Y653D02*
X1096Y653D01*
X1334Y653D02*
X1534Y653D01*
X964Y652D02*
X967Y652D01*
X1092Y652D02*
X1095Y652D01*
X1334Y652D02*
X1534Y652D01*
X965Y651D02*
X966Y651D01*
X1094Y651D02*
X1094Y651D01*
X1334Y651D02*
X1534Y651D01*
X1334Y650D02*
X1534Y650D01*
X1334Y649D02*
X1534Y649D01*
X1334Y648D02*
X1534Y648D01*
X1334Y647D02*
X1534Y647D01*
X1334Y646D02*
X1534Y646D01*
X1334Y645D02*
X1534Y645D01*
X1334Y644D02*
X1534Y644D01*
X1334Y643D02*
X1534Y643D01*
X1334Y642D02*
X1534Y642D01*
X985Y635D02*
X985Y635D01*
X1057Y635D02*
X1058Y635D01*
X985Y634D02*
X987Y634D01*
X1057Y634D02*
X1059Y634D01*
X985Y633D02*
X987Y633D01*
X1057Y633D02*
X1059Y633D01*
X985Y632D02*
X987Y632D01*
X1057Y632D02*
X1059Y632D01*
X985Y631D02*
X987Y631D01*
X1057Y631D02*
X1059Y631D01*
X985Y630D02*
X987Y630D01*
X1057Y630D02*
X1059Y630D01*
X985Y629D02*
X987Y629D01*
X1057Y629D02*
X1059Y629D01*
X1086Y629D02*
X1087Y629D01*
X1107Y629D02*
X1109Y629D01*
X1128Y629D02*
X1130Y629D01*
X1150Y629D02*
X1151Y629D01*
X985Y628D02*
X987Y628D01*
X1057Y628D02*
X1059Y628D01*
X1083Y628D02*
X1090Y628D01*
X1104Y628D02*
X1111Y628D01*
X1125Y628D02*
X1133Y628D01*
X1147Y628D02*
X1154Y628D01*
X908Y627D02*
X914Y627D01*
X928Y627D02*
X934Y627D01*
X948Y627D02*
X954Y627D01*
X963Y627D02*
X964Y627D01*
X970Y627D02*
X971Y627D01*
X978Y627D02*
X979Y627D01*
X985Y627D02*
X987Y627D01*
X989Y627D02*
X995Y627D01*
X1009Y627D02*
X1015Y627D01*
X1029Y627D02*
X1035Y627D01*
X1049Y627D02*
X1055Y627D01*
X1057Y627D02*
X1059Y627D01*
X1082Y627D02*
X1092Y627D01*
X1103Y627D02*
X1113Y627D01*
X1124Y627D02*
X1134Y627D01*
X1145Y627D02*
X1155Y627D01*
X907Y626D02*
X916Y626D01*
X927Y626D02*
X936Y626D01*
X947Y626D02*
X956Y626D01*
X963Y626D02*
X965Y626D01*
X970Y626D02*
X973Y626D01*
X978Y626D02*
X980Y626D01*
X985Y626D02*
X996Y626D01*
X1007Y626D02*
X1016Y626D01*
X1028Y626D02*
X1036Y626D01*
X1048Y626D02*
X1059Y626D01*
X1081Y626D02*
X1093Y626D01*
X1102Y626D02*
X1114Y626D01*
X1123Y626D02*
X1135Y626D01*
X1144Y626D02*
X1156Y626D01*
X906Y625D02*
X917Y625D01*
X926Y625D02*
X937Y625D01*
X946Y625D02*
X957Y625D01*
X963Y625D02*
X965Y625D01*
X970Y625D02*
X973Y625D01*
X978Y625D02*
X980Y625D01*
X985Y625D02*
X997Y625D01*
X1006Y625D02*
X1017Y625D01*
X1027Y625D02*
X1037Y625D01*
X1047Y625D02*
X1059Y625D01*
X1080Y625D02*
X1093Y625D01*
X1101Y625D02*
X1114Y625D01*
X1122Y625D02*
X1136Y625D01*
X1144Y625D02*
X1157Y625D01*
X905Y624D02*
X909Y624D01*
X914Y624D02*
X917Y624D01*
X925Y624D02*
X929Y624D01*
X934Y624D02*
X937Y624D01*
X945Y624D02*
X949Y624D01*
X954Y624D02*
X957Y624D01*
X963Y624D02*
X965Y624D01*
X970Y624D02*
X973Y624D01*
X978Y624D02*
X980Y624D01*
X985Y624D02*
X989Y624D01*
X994Y624D02*
X998Y624D01*
X1006Y624D02*
X1009Y624D01*
X1014Y624D02*
X1018Y624D01*
X1026Y624D02*
X1029Y624D01*
X1034Y624D02*
X1038Y624D01*
X1046Y624D02*
X1050Y624D01*
X1055Y624D02*
X1059Y624D01*
X1080Y624D02*
X1084Y624D01*
X1089Y624D02*
X1094Y624D01*
X1101Y624D02*
X1106Y624D01*
X1110Y624D02*
X1115Y624D01*
X1122Y624D02*
X1127Y624D01*
X1131Y624D02*
X1136Y624D01*
X1143Y624D02*
X1148Y624D01*
X1153Y624D02*
X1157Y624D01*
X905Y623D02*
X907Y623D01*
X915Y623D02*
X918Y623D01*
X925Y623D02*
X928Y623D01*
X935Y623D02*
X938Y623D01*
X945Y623D02*
X948Y623D01*
X955Y623D02*
X958Y623D01*
X963Y623D02*
X965Y623D01*
X970Y623D02*
X973Y623D01*
X978Y623D02*
X980Y623D01*
X985Y623D02*
X988Y623D01*
X995Y623D02*
X998Y623D01*
X1005Y623D02*
X1008Y623D01*
X1016Y623D02*
X1018Y623D01*
X1025Y623D02*
X1028Y623D01*
X1036Y623D02*
X1038Y623D01*
X1046Y623D02*
X1048Y623D01*
X1056Y623D02*
X1059Y623D01*
X1079Y623D02*
X1083Y623D01*
X1090Y623D02*
X1094Y623D01*
X1100Y623D02*
X1104Y623D01*
X1111Y623D02*
X1115Y623D01*
X1122Y623D02*
X1126Y623D01*
X1132Y623D02*
X1136Y623D01*
X1143Y623D02*
X1147Y623D01*
X1154Y623D02*
X1158Y623D01*
X904Y622D02*
X907Y622D01*
X916Y622D02*
X918Y622D01*
X924Y622D02*
X927Y622D01*
X936Y622D02*
X938Y622D01*
X945Y622D02*
X947Y622D01*
X956Y622D02*
X958Y622D01*
X963Y622D02*
X965Y622D01*
X970Y622D02*
X973Y622D01*
X978Y622D02*
X980Y622D01*
X985Y622D02*
X987Y622D01*
X996Y622D02*
X999Y622D01*
X1005Y622D02*
X1007Y622D01*
X1016Y622D02*
X1019Y622D01*
X1025Y622D02*
X1028Y622D01*
X1036Y622D02*
X1039Y622D01*
X1045Y622D02*
X1048Y622D01*
X1057Y622D02*
X1059Y622D01*
X1079Y622D02*
X1083Y622D01*
X1091Y622D02*
X1094Y622D01*
X1100Y622D02*
X1104Y622D01*
X1112Y622D02*
X1116Y622D01*
X1121Y622D02*
X1125Y622D01*
X1133Y622D02*
X1137Y622D01*
X1142Y622D02*
X1146Y622D01*
X1154Y622D02*
X1158Y622D01*
X904Y621D02*
X906Y621D01*
X916Y621D02*
X918Y621D01*
X924Y621D02*
X927Y621D01*
X936Y621D02*
X938Y621D01*
X944Y621D02*
X947Y621D01*
X956Y621D02*
X958Y621D01*
X963Y621D02*
X965Y621D01*
X970Y621D02*
X973Y621D01*
X978Y621D02*
X980Y621D01*
X985Y621D02*
X987Y621D01*
X996Y621D02*
X999Y621D01*
X1005Y621D02*
X1007Y621D01*
X1017Y621D02*
X1019Y621D01*
X1025Y621D02*
X1027Y621D01*
X1037Y621D02*
X1039Y621D01*
X1045Y621D02*
X1047Y621D01*
X1057Y621D02*
X1059Y621D01*
X1079Y621D02*
X1082Y621D01*
X1091Y621D02*
X1094Y621D01*
X1100Y621D02*
X1105Y621D01*
X1112Y621D02*
X1116Y621D01*
X1121Y621D02*
X1125Y621D01*
X1133Y621D02*
X1137Y621D01*
X1142Y621D02*
X1146Y621D01*
X1154Y621D02*
X1158Y621D01*
X904Y620D02*
X907Y620D01*
X916Y620D02*
X918Y620D01*
X925Y620D02*
X926Y620D01*
X936Y620D02*
X938Y620D01*
X944Y620D02*
X947Y620D01*
X956Y620D02*
X959Y620D01*
X963Y620D02*
X965Y620D01*
X970Y620D02*
X973Y620D01*
X978Y620D02*
X980Y620D01*
X985Y620D02*
X987Y620D01*
X997Y620D02*
X999Y620D01*
X1005Y620D02*
X1007Y620D01*
X1017Y620D02*
X1019Y620D01*
X1025Y620D02*
X1027Y620D01*
X1037Y620D02*
X1039Y620D01*
X1045Y620D02*
X1047Y620D01*
X1057Y620D02*
X1059Y620D01*
X1079Y620D02*
X1082Y620D01*
X1091Y620D02*
X1094Y620D01*
X1100Y620D02*
X1107Y620D01*
X1112Y620D02*
X1116Y620D01*
X1121Y620D02*
X1125Y620D01*
X1133Y620D02*
X1137Y620D01*
X1142Y620D02*
X1146Y620D01*
X1154Y620D02*
X1158Y620D01*
X904Y619D02*
X909Y619D01*
X916Y619D02*
X918Y619D01*
X936Y619D02*
X938Y619D01*
X944Y619D02*
X949Y619D01*
X958Y619D02*
X958Y619D01*
X963Y619D02*
X965Y619D01*
X970Y619D02*
X973Y619D01*
X978Y619D02*
X980Y619D01*
X985Y619D02*
X987Y619D01*
X997Y619D02*
X999Y619D01*
X1007Y619D02*
X1007Y619D01*
X1017Y619D02*
X1019Y619D01*
X1025Y619D02*
X1030Y619D01*
X1039Y619D02*
X1039Y619D01*
X1045Y619D02*
X1047Y619D01*
X1057Y619D02*
X1059Y619D01*
X1079Y619D02*
X1082Y619D01*
X1091Y619D02*
X1094Y619D01*
X1100Y619D02*
X1109Y619D01*
X1112Y619D02*
X1116Y619D01*
X1121Y619D02*
X1125Y619D01*
X1133Y619D02*
X1137Y619D01*
X1142Y619D02*
X1146Y619D01*
X1154Y619D02*
X1158Y619D01*
X905Y618D02*
X912Y618D01*
X916Y618D02*
X918Y618D01*
X936Y618D02*
X938Y618D01*
X944Y618D02*
X952Y618D01*
X963Y618D02*
X965Y618D01*
X970Y618D02*
X973Y618D01*
X978Y618D02*
X980Y618D01*
X985Y618D02*
X987Y618D01*
X997Y618D02*
X999Y618D01*
X1017Y618D02*
X1019Y618D01*
X1025Y618D02*
X1032Y618D01*
X1045Y618D02*
X1047Y618D01*
X1057Y618D02*
X1059Y618D01*
X1079Y618D02*
X1082Y618D01*
X1091Y618D02*
X1094Y618D01*
X1101Y618D02*
X1116Y618D01*
X1121Y618D02*
X1125Y618D01*
X1133Y618D02*
X1137Y618D01*
X1142Y618D02*
X1146Y618D01*
X1154Y618D02*
X1158Y618D01*
X907Y617D02*
X914Y617D01*
X916Y617D02*
X918Y617D01*
X936Y617D02*
X938Y617D01*
X944Y617D02*
X954Y617D01*
X963Y617D02*
X965Y617D01*
X970Y617D02*
X973Y617D01*
X978Y617D02*
X980Y617D01*
X985Y617D02*
X987Y617D01*
X997Y617D02*
X999Y617D01*
X1017Y617D02*
X1019Y617D01*
X1025Y617D02*
X1034Y617D01*
X1045Y617D02*
X1047Y617D01*
X1057Y617D02*
X1059Y617D01*
X1079Y617D02*
X1082Y617D01*
X1091Y617D02*
X1094Y617D01*
X1103Y617D02*
X1116Y617D01*
X1121Y617D02*
X1125Y617D01*
X1133Y617D02*
X1137Y617D01*
X1142Y617D02*
X1146Y617D01*
X1154Y617D02*
X1158Y617D01*
X909Y616D02*
X918Y616D01*
X936Y616D02*
X938Y616D01*
X944Y616D02*
X947Y616D01*
X949Y616D02*
X956Y616D01*
X963Y616D02*
X965Y616D01*
X970Y616D02*
X973Y616D01*
X978Y616D02*
X980Y616D01*
X985Y616D02*
X987Y616D01*
X997Y616D02*
X999Y616D01*
X1017Y616D02*
X1019Y616D01*
X1025Y616D02*
X1027Y616D01*
X1029Y616D02*
X1036Y616D01*
X1045Y616D02*
X1047Y616D01*
X1057Y616D02*
X1059Y616D01*
X1079Y616D02*
X1082Y616D01*
X1091Y616D02*
X1094Y616D01*
X1106Y616D02*
X1116Y616D01*
X1121Y616D02*
X1125Y616D01*
X1133Y616D02*
X1137Y616D01*
X1142Y616D02*
X1146Y616D01*
X1154Y616D02*
X1158Y616D01*
X912Y615D02*
X918Y615D01*
X936Y615D02*
X938Y615D01*
X944Y615D02*
X947Y615D01*
X951Y615D02*
X957Y615D01*
X963Y615D02*
X965Y615D01*
X970Y615D02*
X973Y615D01*
X978Y615D02*
X980Y615D01*
X985Y615D02*
X987Y615D01*
X997Y615D02*
X999Y615D01*
X1017Y615D02*
X1019Y615D01*
X1025Y615D02*
X1027Y615D01*
X1032Y615D02*
X1038Y615D01*
X1045Y615D02*
X1047Y615D01*
X1057Y615D02*
X1059Y615D01*
X1079Y615D02*
X1082Y615D01*
X1091Y615D02*
X1094Y615D01*
X1100Y615D02*
X1102Y615D01*
X1108Y615D02*
X1116Y615D01*
X1121Y615D02*
X1125Y615D01*
X1133Y615D02*
X1137Y615D01*
X1142Y615D02*
X1146Y615D01*
X1154Y615D02*
X1158Y615D01*
X904Y614D02*
X904Y614D01*
X914Y614D02*
X918Y614D01*
X936Y614D02*
X938Y614D01*
X944Y614D02*
X947Y614D01*
X954Y614D02*
X958Y614D01*
X963Y614D02*
X965Y614D01*
X970Y614D02*
X973Y614D01*
X978Y614D02*
X980Y614D01*
X985Y614D02*
X987Y614D01*
X997Y614D02*
X999Y614D01*
X1017Y614D02*
X1019Y614D01*
X1025Y614D02*
X1027Y614D01*
X1034Y614D02*
X1038Y614D01*
X1045Y614D02*
X1047Y614D01*
X1057Y614D02*
X1059Y614D01*
X1079Y614D02*
X1082Y614D01*
X1091Y614D02*
X1094Y614D01*
X1100Y614D02*
X1104Y614D01*
X1110Y614D02*
X1116Y614D01*
X1121Y614D02*
X1125Y614D01*
X1133Y614D02*
X1137Y614D01*
X1142Y614D02*
X1146Y614D01*
X1154Y614D02*
X1158Y614D01*
X904Y613D02*
X906Y613D01*
X916Y613D02*
X918Y613D01*
X936Y613D02*
X938Y613D01*
X944Y613D02*
X947Y613D01*
X955Y613D02*
X958Y613D01*
X963Y613D02*
X965Y613D01*
X970Y613D02*
X973Y613D01*
X978Y613D02*
X980Y613D01*
X985Y613D02*
X987Y613D01*
X997Y613D02*
X999Y613D01*
X1017Y613D02*
X1019Y613D01*
X1025Y613D02*
X1027Y613D01*
X1036Y613D02*
X1039Y613D01*
X1045Y613D02*
X1047Y613D01*
X1057Y613D02*
X1059Y613D01*
X1079Y613D02*
X1082Y613D01*
X1091Y613D02*
X1094Y613D01*
X1100Y613D02*
X1104Y613D01*
X1112Y613D02*
X1116Y613D01*
X1121Y613D02*
X1125Y613D01*
X1133Y613D02*
X1137Y613D01*
X1142Y613D02*
X1146Y613D01*
X1154Y613D02*
X1158Y613D01*
X904Y612D02*
X906Y612D01*
X916Y612D02*
X918Y612D01*
X936Y612D02*
X938Y612D01*
X944Y612D02*
X947Y612D01*
X956Y612D02*
X959Y612D01*
X963Y612D02*
X965Y612D01*
X970Y612D02*
X973Y612D01*
X978Y612D02*
X980Y612D01*
X985Y612D02*
X987Y612D01*
X996Y612D02*
X999Y612D01*
X1017Y612D02*
X1019Y612D01*
X1025Y612D02*
X1027Y612D01*
X1037Y612D02*
X1039Y612D01*
X1045Y612D02*
X1047Y612D01*
X1057Y612D02*
X1059Y612D01*
X1079Y612D02*
X1082Y612D01*
X1091Y612D02*
X1094Y612D01*
X1100Y612D02*
X1104Y612D01*
X1112Y612D02*
X1115Y612D01*
X1121Y612D02*
X1125Y612D01*
X1133Y612D02*
X1137Y612D01*
X1143Y612D02*
X1146Y612D01*
X1154Y612D02*
X1158Y612D01*
X904Y611D02*
X907Y611D01*
X916Y611D02*
X918Y611D01*
X936Y611D02*
X938Y611D01*
X944Y611D02*
X947Y611D01*
X956Y611D02*
X959Y611D01*
X963Y611D02*
X965Y611D01*
X970Y611D02*
X973Y611D01*
X978Y611D02*
X980Y611D01*
X985Y611D02*
X987Y611D01*
X996Y611D02*
X999Y611D01*
X1017Y611D02*
X1019Y611D01*
X1025Y611D02*
X1027Y611D01*
X1037Y611D02*
X1039Y611D01*
X1045Y611D02*
X1047Y611D01*
X1057Y611D02*
X1059Y611D01*
X1079Y611D02*
X1082Y611D01*
X1091Y611D02*
X1094Y611D01*
X1101Y611D02*
X1105Y611D01*
X1111Y611D02*
X1115Y611D01*
X1122Y611D02*
X1126Y611D01*
X1132Y611D02*
X1137Y611D01*
X1143Y611D02*
X1147Y611D01*
X1153Y611D02*
X1158Y611D01*
X905Y610D02*
X907Y610D01*
X915Y610D02*
X918Y610D01*
X936Y610D02*
X938Y610D01*
X944Y610D02*
X947Y610D01*
X956Y610D02*
X958Y610D01*
X963Y610D02*
X965Y610D01*
X970Y610D02*
X973Y610D01*
X978Y610D02*
X980Y610D01*
X985Y610D02*
X988Y610D01*
X995Y610D02*
X998Y610D01*
X1017Y610D02*
X1019Y610D01*
X1025Y610D02*
X1027Y610D01*
X1036Y610D02*
X1039Y610D01*
X1045Y610D02*
X1047Y610D01*
X1057Y610D02*
X1059Y610D01*
X1079Y610D02*
X1082Y610D01*
X1091Y610D02*
X1094Y610D01*
X1101Y610D02*
X1106Y610D01*
X1109Y610D02*
X1115Y610D01*
X1122Y610D02*
X1127Y610D01*
X1131Y610D02*
X1137Y610D01*
X1143Y610D02*
X1148Y610D01*
X1152Y610D02*
X1157Y610D01*
X905Y609D02*
X909Y609D01*
X914Y609D02*
X917Y609D01*
X936Y609D02*
X938Y609D01*
X944Y609D02*
X947Y609D01*
X955Y609D02*
X958Y609D01*
X963Y609D02*
X966Y609D01*
X970Y609D02*
X974Y609D01*
X977Y609D02*
X980Y609D01*
X986Y609D02*
X989Y609D01*
X994Y609D02*
X998Y609D01*
X1017Y609D02*
X1019Y609D01*
X1025Y609D02*
X1027Y609D01*
X1035Y609D02*
X1039Y609D01*
X1045Y609D02*
X1047Y609D01*
X1057Y609D02*
X1059Y609D01*
X1079Y609D02*
X1082Y609D01*
X1091Y609D02*
X1094Y609D01*
X1102Y609D02*
X1114Y609D01*
X1123Y609D02*
X1137Y609D01*
X1144Y609D02*
X1157Y609D01*
X906Y608D02*
X917Y608D01*
X936Y608D02*
X938Y608D01*
X944Y608D02*
X947Y608D01*
X950Y608D02*
X957Y608D01*
X963Y608D02*
X980Y608D01*
X986Y608D02*
X997Y608D01*
X1017Y608D02*
X1019Y608D01*
X1025Y608D02*
X1027Y608D01*
X1030Y608D02*
X1038Y608D01*
X1045Y608D02*
X1047Y608D01*
X1057Y608D02*
X1059Y608D01*
X1079Y608D02*
X1082Y608D01*
X1091Y608D02*
X1094Y608D01*
X1102Y608D02*
X1114Y608D01*
X1123Y608D02*
X1137Y608D01*
X1144Y608D02*
X1156Y608D01*
X907Y607D02*
X916Y607D01*
X936Y607D02*
X938Y607D01*
X944Y607D02*
X947Y607D01*
X950Y607D02*
X957Y607D01*
X964Y607D02*
X979Y607D01*
X987Y607D02*
X996Y607D01*
X1017Y607D02*
X1019Y607D01*
X1025Y607D02*
X1027Y607D01*
X1030Y607D02*
X1037Y607D01*
X1045Y607D02*
X1047Y607D01*
X1057Y607D02*
X1059Y607D01*
X1079Y607D02*
X1082Y607D01*
X1091Y607D02*
X1094Y607D01*
X1103Y607D02*
X1112Y607D01*
X1124Y607D02*
X1137Y607D01*
X1146Y607D02*
X1155Y607D01*
X908Y606D02*
X914Y606D01*
X938Y606D02*
X938Y606D01*
X946Y606D02*
X947Y606D01*
X950Y606D02*
X955Y606D01*
X965Y606D02*
X970Y606D01*
X973Y606D02*
X978Y606D01*
X989Y606D02*
X995Y606D01*
X1018Y606D02*
X1019Y606D01*
X1026Y606D02*
X1027Y606D01*
X1030Y606D02*
X1036Y606D01*
X1046Y606D02*
X1047Y606D01*
X1058Y606D02*
X1059Y606D01*
X1081Y606D02*
X1082Y606D01*
X1093Y606D02*
X1094Y606D01*
X1105Y606D02*
X1111Y606D01*
X1126Y606D02*
X1137Y606D01*
X1147Y606D02*
X1153Y606D01*
X1133Y605D02*
X1137Y605D01*
X1133Y604D02*
X1137Y604D01*
X1133Y603D02*
X1137Y603D01*
X1133Y602D02*
X1137Y602D01*
X1133Y601D02*
X1137Y601D01*
X1133Y600D02*
X1137Y600D01*
X1133Y599D02*
X1137Y599D01*
X1135Y598D02*
X1137Y598D01*
X850Y270D02*
X870Y270D01*
X890Y270D02*
X904Y270D01*
X948Y270D02*
X972Y270D01*
X1123Y270D02*
X1123Y270D01*
X1356Y270D02*
X1374Y270D01*
X845Y269D02*
X870Y269D01*
X888Y269D02*
X908Y269D01*
X945Y269D02*
X973Y269D01*
X1121Y269D02*
X1125Y269D01*
X1352Y269D02*
X1377Y269D01*
X843Y268D02*
X870Y268D01*
X888Y268D02*
X909Y268D01*
X943Y268D02*
X973Y268D01*
X1120Y268D02*
X1126Y268D01*
X1351Y268D02*
X1379Y268D01*
X842Y267D02*
X870Y267D01*
X887Y267D02*
X911Y267D01*
X942Y267D02*
X973Y267D01*
X1120Y267D02*
X1126Y267D01*
X1320Y267D02*
X1320Y267D01*
X1350Y267D02*
X1380Y267D01*
X841Y266D02*
X870Y266D01*
X887Y266D02*
X912Y266D01*
X941Y266D02*
X973Y266D01*
X1120Y266D02*
X1126Y266D01*
X1318Y266D02*
X1322Y266D01*
X1349Y266D02*
X1380Y266D01*
X840Y265D02*
X870Y265D01*
X888Y265D02*
X912Y265D01*
X940Y265D02*
X973Y265D01*
X1120Y265D02*
X1126Y265D01*
X1318Y265D02*
X1323Y265D01*
X1348Y265D02*
X1381Y265D01*
X839Y264D02*
X870Y264D01*
X888Y264D02*
X913Y264D01*
X939Y264D02*
X973Y264D01*
X1120Y264D02*
X1126Y264D01*
X1317Y264D02*
X1323Y264D01*
X1348Y264D02*
X1381Y264D01*
X838Y263D02*
X870Y263D01*
X891Y263D02*
X913Y263D01*
X939Y263D02*
X973Y263D01*
X1120Y263D02*
X1126Y263D01*
X1317Y263D02*
X1323Y263D01*
X1348Y263D02*
X1381Y263D01*
X838Y262D02*
X846Y262D01*
X864Y262D02*
X870Y262D01*
X906Y262D02*
X914Y262D01*
X939Y262D02*
X946Y262D01*
X966Y262D02*
X973Y262D01*
X1120Y262D02*
X1126Y262D01*
X1317Y262D02*
X1323Y262D01*
X1347Y262D02*
X1354Y262D01*
X1375Y262D02*
X1381Y262D01*
X837Y261D02*
X845Y261D01*
X864Y261D02*
X870Y261D01*
X907Y261D02*
X914Y261D01*
X939Y261D02*
X945Y261D01*
X966Y261D02*
X973Y261D01*
X1120Y261D02*
X1126Y261D01*
X1317Y261D02*
X1323Y261D01*
X1347Y261D02*
X1353Y261D01*
X1375Y261D02*
X1381Y261D01*
X837Y260D02*
X844Y260D01*
X864Y260D02*
X870Y260D01*
X908Y260D02*
X915Y260D01*
X938Y260D02*
X945Y260D01*
X966Y260D02*
X973Y260D01*
X1120Y260D02*
X1126Y260D01*
X1317Y260D02*
X1323Y260D01*
X1347Y260D02*
X1353Y260D01*
X1374Y260D02*
X1381Y260D01*
X837Y259D02*
X843Y259D01*
X864Y259D02*
X870Y259D01*
X908Y259D02*
X915Y259D01*
X938Y259D02*
X945Y259D01*
X966Y259D02*
X973Y259D01*
X1120Y259D02*
X1126Y259D01*
X1317Y259D02*
X1323Y259D01*
X1348Y259D02*
X1353Y259D01*
X1373Y259D02*
X1381Y259D01*
X836Y258D02*
X843Y258D01*
X864Y258D02*
X870Y258D01*
X909Y258D02*
X916Y258D01*
X938Y258D02*
X945Y258D01*
X966Y258D02*
X973Y258D01*
X1120Y258D02*
X1126Y258D01*
X1317Y258D02*
X1323Y258D01*
X1348Y258D02*
X1352Y258D01*
X1372Y258D02*
X1380Y258D01*
X836Y257D02*
X842Y257D01*
X864Y257D02*
X870Y257D01*
X909Y257D02*
X916Y257D01*
X938Y257D02*
X945Y257D01*
X966Y257D02*
X973Y257D01*
X1120Y257D02*
X1126Y257D01*
X1317Y257D02*
X1323Y257D01*
X1372Y257D02*
X1380Y257D01*
X836Y256D02*
X842Y256D01*
X864Y256D02*
X870Y256D01*
X910Y256D02*
X917Y256D01*
X938Y256D02*
X945Y256D01*
X966Y256D02*
X973Y256D01*
X1120Y256D02*
X1126Y256D01*
X1317Y256D02*
X1323Y256D01*
X1371Y256D02*
X1379Y256D01*
X836Y255D02*
X842Y255D01*
X864Y255D02*
X870Y255D01*
X910Y255D02*
X917Y255D01*
X938Y255D02*
X945Y255D01*
X966Y255D02*
X973Y255D01*
X993Y255D02*
X993Y255D01*
X1021Y255D02*
X1021Y255D01*
X1052Y255D02*
X1063Y255D01*
X1102Y255D02*
X1107Y255D01*
X1120Y255D02*
X1126Y255D01*
X1146Y255D02*
X1161Y255D01*
X1204Y255D02*
X1210Y255D01*
X1225Y255D02*
X1225Y255D01*
X1255Y255D02*
X1269Y255D01*
X1303Y255D02*
X1327Y255D01*
X1370Y255D02*
X1378Y255D01*
X836Y254D02*
X842Y254D01*
X864Y254D02*
X870Y254D01*
X911Y254D02*
X918Y254D01*
X938Y254D02*
X945Y254D01*
X966Y254D02*
X973Y254D01*
X991Y254D02*
X995Y254D01*
X1019Y254D02*
X1023Y254D01*
X1049Y254D02*
X1066Y254D01*
X1099Y254D02*
X1111Y254D01*
X1120Y254D02*
X1126Y254D01*
X1144Y254D02*
X1165Y254D01*
X1201Y254D02*
X1213Y254D01*
X1223Y254D02*
X1227Y254D01*
X1252Y254D02*
X1271Y254D01*
X1301Y254D02*
X1329Y254D01*
X1369Y254D02*
X1377Y254D01*
X836Y253D02*
X842Y253D01*
X864Y253D02*
X870Y253D01*
X911Y253D02*
X918Y253D01*
X938Y253D02*
X945Y253D01*
X966Y253D02*
X973Y253D01*
X990Y253D02*
X995Y253D01*
X1018Y253D02*
X1023Y253D01*
X1048Y253D02*
X1068Y253D01*
X1097Y253D02*
X1113Y253D01*
X1120Y253D02*
X1126Y253D01*
X1143Y253D02*
X1167Y253D01*
X1199Y253D02*
X1215Y253D01*
X1222Y253D02*
X1228Y253D01*
X1250Y253D02*
X1272Y253D01*
X1300Y253D02*
X1330Y253D01*
X1368Y253D02*
X1377Y253D01*
X836Y252D02*
X842Y252D01*
X864Y252D02*
X870Y252D01*
X912Y252D02*
X919Y252D01*
X938Y252D02*
X945Y252D01*
X966Y252D02*
X973Y252D01*
X990Y252D02*
X996Y252D01*
X1018Y252D02*
X1024Y252D01*
X1046Y252D02*
X1069Y252D01*
X1096Y252D02*
X1114Y252D01*
X1120Y252D02*
X1126Y252D01*
X1143Y252D02*
X1168Y252D01*
X1198Y252D02*
X1216Y252D01*
X1222Y252D02*
X1228Y252D01*
X1249Y252D02*
X1272Y252D01*
X1300Y252D02*
X1330Y252D01*
X1368Y252D02*
X1376Y252D01*
X836Y251D02*
X843Y251D01*
X864Y251D02*
X870Y251D01*
X912Y251D02*
X919Y251D01*
X938Y251D02*
X945Y251D01*
X966Y251D02*
X973Y251D01*
X989Y251D02*
X996Y251D01*
X1018Y251D02*
X1024Y251D01*
X1045Y251D02*
X1070Y251D01*
X1095Y251D02*
X1116Y251D01*
X1120Y251D02*
X1126Y251D01*
X1143Y251D02*
X1169Y251D01*
X1197Y251D02*
X1218Y251D01*
X1222Y251D02*
X1228Y251D01*
X1248Y251D02*
X1272Y251D01*
X1300Y251D02*
X1330Y251D01*
X1367Y251D02*
X1375Y251D01*
X837Y250D02*
X843Y250D01*
X864Y250D02*
X870Y250D01*
X913Y250D02*
X920Y250D01*
X938Y250D02*
X945Y250D01*
X966Y250D02*
X973Y250D01*
X989Y250D02*
X996Y250D01*
X1018Y250D02*
X1024Y250D01*
X1044Y250D02*
X1071Y250D01*
X1094Y250D02*
X1117Y250D01*
X1120Y250D02*
X1126Y250D01*
X1143Y250D02*
X1170Y250D01*
X1196Y250D02*
X1220Y250D01*
X1222Y250D02*
X1228Y250D01*
X1247Y250D02*
X1272Y250D01*
X1300Y250D02*
X1330Y250D01*
X1366Y250D02*
X1374Y250D01*
X837Y249D02*
X844Y249D01*
X864Y249D02*
X870Y249D01*
X913Y249D02*
X920Y249D01*
X938Y249D02*
X945Y249D01*
X966Y249D02*
X973Y249D01*
X989Y249D02*
X996Y249D01*
X1018Y249D02*
X1024Y249D01*
X1043Y249D02*
X1072Y249D01*
X1094Y249D02*
X1126Y249D01*
X1144Y249D02*
X1172Y249D01*
X1196Y249D02*
X1228Y249D01*
X1247Y249D02*
X1271Y249D01*
X1301Y249D02*
X1329Y249D01*
X1365Y249D02*
X1373Y249D01*
X837Y248D02*
X845Y248D01*
X864Y248D02*
X870Y248D01*
X914Y248D02*
X920Y248D01*
X938Y248D02*
X945Y248D01*
X966Y248D02*
X973Y248D01*
X989Y248D02*
X996Y248D01*
X1018Y248D02*
X1024Y248D01*
X1042Y248D02*
X1073Y248D01*
X1093Y248D02*
X1126Y248D01*
X1146Y248D02*
X1173Y248D01*
X1195Y248D02*
X1228Y248D01*
X1247Y248D02*
X1269Y248D01*
X1303Y248D02*
X1327Y248D01*
X1365Y248D02*
X1373Y248D01*
X838Y247D02*
X846Y247D01*
X864Y247D02*
X870Y247D01*
X914Y247D02*
X921Y247D01*
X938Y247D02*
X945Y247D01*
X966Y247D02*
X973Y247D01*
X989Y247D02*
X996Y247D01*
X1018Y247D02*
X1024Y247D01*
X1042Y247D02*
X1050Y247D01*
X1065Y247D02*
X1074Y247D01*
X1093Y247D02*
X1100Y247D01*
X1110Y247D02*
X1126Y247D01*
X1164Y247D02*
X1174Y247D01*
X1195Y247D02*
X1202Y247D01*
X1212Y247D02*
X1228Y247D01*
X1246Y247D02*
X1253Y247D01*
X1317Y247D02*
X1323Y247D01*
X1364Y247D02*
X1372Y247D01*
X838Y246D02*
X870Y246D01*
X915Y246D02*
X921Y246D01*
X938Y246D02*
X945Y246D01*
X966Y246D02*
X973Y246D01*
X989Y246D02*
X996Y246D01*
X1017Y246D02*
X1024Y246D01*
X1041Y246D02*
X1049Y246D01*
X1066Y246D02*
X1074Y246D01*
X1093Y246D02*
X1099Y246D01*
X1111Y246D02*
X1126Y246D01*
X1165Y246D02*
X1175Y246D01*
X1195Y246D02*
X1201Y246D01*
X1213Y246D02*
X1228Y246D01*
X1246Y246D02*
X1252Y246D01*
X1317Y246D02*
X1323Y246D01*
X1363Y246D02*
X1371Y246D01*
X839Y245D02*
X870Y245D01*
X915Y245D02*
X921Y245D01*
X939Y245D02*
X945Y245D01*
X966Y245D02*
X973Y245D01*
X990Y245D02*
X996Y245D01*
X1017Y245D02*
X1024Y245D01*
X1041Y245D02*
X1048Y245D01*
X1067Y245D02*
X1074Y245D01*
X1093Y245D02*
X1099Y245D01*
X1113Y245D02*
X1126Y245D01*
X1166Y245D02*
X1175Y245D01*
X1195Y245D02*
X1201Y245D01*
X1215Y245D02*
X1228Y245D01*
X1246Y245D02*
X1252Y245D01*
X1317Y245D02*
X1323Y245D01*
X1362Y245D02*
X1370Y245D01*
X840Y244D02*
X870Y244D01*
X915Y244D02*
X921Y244D01*
X939Y244D02*
X946Y244D01*
X966Y244D02*
X973Y244D01*
X990Y244D02*
X997Y244D01*
X1017Y244D02*
X1023Y244D01*
X1041Y244D02*
X1047Y244D01*
X1068Y244D02*
X1075Y244D01*
X1093Y244D02*
X1099Y244D01*
X1114Y244D02*
X1126Y244D01*
X1167Y244D02*
X1176Y244D01*
X1195Y244D02*
X1201Y244D01*
X1217Y244D02*
X1228Y244D01*
X1246Y244D02*
X1252Y244D01*
X1317Y244D02*
X1323Y244D01*
X1361Y244D02*
X1370Y244D01*
X841Y243D02*
X870Y243D01*
X915Y243D02*
X921Y243D01*
X939Y243D02*
X973Y243D01*
X990Y243D02*
X997Y243D01*
X1016Y243D02*
X1023Y243D01*
X1041Y243D02*
X1047Y243D01*
X1069Y243D02*
X1075Y243D01*
X1093Y243D02*
X1099Y243D01*
X1116Y243D02*
X1126Y243D01*
X1168Y243D02*
X1176Y243D01*
X1195Y243D02*
X1201Y243D01*
X1218Y243D02*
X1228Y243D01*
X1246Y243D02*
X1252Y243D01*
X1317Y243D02*
X1323Y243D01*
X1361Y243D02*
X1369Y243D01*
X841Y242D02*
X870Y242D01*
X915Y242D02*
X921Y242D01*
X940Y242D02*
X973Y242D01*
X991Y242D02*
X998Y242D01*
X1016Y242D02*
X1023Y242D01*
X1041Y242D02*
X1047Y242D01*
X1069Y242D02*
X1075Y242D01*
X1093Y242D02*
X1099Y242D01*
X1117Y242D02*
X1126Y242D01*
X1170Y242D02*
X1177Y242D01*
X1195Y242D02*
X1201Y242D01*
X1220Y242D02*
X1228Y242D01*
X1246Y242D02*
X1252Y242D01*
X1317Y242D02*
X1323Y242D01*
X1360Y242D02*
X1368Y242D01*
X840Y241D02*
X870Y241D01*
X915Y241D02*
X921Y241D01*
X940Y241D02*
X973Y241D01*
X991Y241D02*
X998Y241D01*
X1015Y241D02*
X1022Y241D01*
X1041Y241D02*
X1047Y241D01*
X1069Y241D02*
X1075Y241D01*
X1092Y241D02*
X1099Y241D01*
X1119Y241D02*
X1126Y241D01*
X1170Y241D02*
X1177Y241D01*
X1195Y241D02*
X1201Y241D01*
X1221Y241D02*
X1228Y241D01*
X1246Y241D02*
X1252Y241D01*
X1317Y241D02*
X1323Y241D01*
X1359Y241D02*
X1367Y241D01*
X839Y240D02*
X870Y240D01*
X915Y240D02*
X921Y240D01*
X941Y240D02*
X973Y240D01*
X992Y240D02*
X998Y240D01*
X1015Y240D02*
X1022Y240D01*
X1041Y240D02*
X1047Y240D01*
X1069Y240D02*
X1075Y240D01*
X1092Y240D02*
X1099Y240D01*
X1120Y240D02*
X1126Y240D01*
X1171Y240D02*
X1177Y240D01*
X1195Y240D02*
X1201Y240D01*
X1222Y240D02*
X1228Y240D01*
X1246Y240D02*
X1252Y240D01*
X1255Y240D02*
X1270Y240D01*
X1317Y240D02*
X1323Y240D01*
X1358Y240D02*
X1367Y240D01*
X838Y239D02*
X870Y239D01*
X915Y239D02*
X921Y239D01*
X942Y239D02*
X973Y239D01*
X992Y239D02*
X999Y239D01*
X1014Y239D02*
X1021Y239D01*
X1041Y239D02*
X1047Y239D01*
X1069Y239D02*
X1075Y239D01*
X1092Y239D02*
X1099Y239D01*
X1120Y239D02*
X1126Y239D01*
X1171Y239D02*
X1177Y239D01*
X1195Y239D02*
X1201Y239D01*
X1222Y239D02*
X1228Y239D01*
X1246Y239D02*
X1273Y239D01*
X1317Y239D02*
X1323Y239D01*
X1358Y239D02*
X1366Y239D01*
X838Y238D02*
X846Y238D01*
X864Y238D02*
X870Y238D01*
X914Y238D02*
X921Y238D01*
X943Y238D02*
X973Y238D01*
X992Y238D02*
X999Y238D01*
X1014Y238D02*
X1021Y238D01*
X1041Y238D02*
X1047Y238D01*
X1069Y238D02*
X1075Y238D01*
X1092Y238D02*
X1099Y238D01*
X1120Y238D02*
X1126Y238D01*
X1171Y238D02*
X1177Y238D01*
X1195Y238D02*
X1201Y238D01*
X1222Y238D02*
X1228Y238D01*
X1246Y238D02*
X1275Y238D01*
X1317Y238D02*
X1323Y238D01*
X1357Y238D02*
X1365Y238D01*
X837Y237D02*
X845Y237D01*
X864Y237D02*
X870Y237D01*
X914Y237D02*
X920Y237D01*
X945Y237D02*
X973Y237D01*
X993Y237D02*
X1000Y237D01*
X1014Y237D02*
X1020Y237D01*
X1041Y237D02*
X1075Y237D01*
X1092Y237D02*
X1098Y237D01*
X1120Y237D02*
X1126Y237D01*
X1171Y237D02*
X1177Y237D01*
X1195Y237D02*
X1201Y237D01*
X1222Y237D02*
X1228Y237D01*
X1246Y237D02*
X1276Y237D01*
X1317Y237D02*
X1323Y237D01*
X1356Y237D02*
X1364Y237D01*
X837Y236D02*
X844Y236D01*
X864Y236D02*
X870Y236D01*
X913Y236D02*
X920Y236D01*
X949Y236D02*
X973Y236D01*
X993Y236D02*
X1000Y236D01*
X1013Y236D02*
X1020Y236D01*
X1041Y236D02*
X1075Y236D01*
X1092Y236D02*
X1098Y236D01*
X1120Y236D02*
X1126Y236D01*
X1171Y236D02*
X1177Y236D01*
X1195Y236D02*
X1201Y236D01*
X1222Y236D02*
X1228Y236D01*
X1246Y236D02*
X1277Y236D01*
X1317Y236D02*
X1323Y236D01*
X1355Y236D02*
X1363Y236D01*
X837Y235D02*
X843Y235D01*
X864Y235D02*
X870Y235D01*
X913Y235D02*
X920Y235D01*
X966Y235D02*
X973Y235D01*
X994Y235D02*
X1001Y235D01*
X1013Y235D02*
X1019Y235D01*
X1041Y235D02*
X1075Y235D01*
X1092Y235D02*
X1098Y235D01*
X1120Y235D02*
X1126Y235D01*
X1171Y235D02*
X1177Y235D01*
X1194Y235D02*
X1201Y235D01*
X1222Y235D02*
X1228Y235D01*
X1246Y235D02*
X1278Y235D01*
X1317Y235D02*
X1323Y235D01*
X1354Y235D02*
X1363Y235D01*
X836Y234D02*
X843Y234D01*
X864Y234D02*
X870Y234D01*
X912Y234D02*
X919Y234D01*
X966Y234D02*
X973Y234D01*
X994Y234D02*
X1001Y234D01*
X1012Y234D02*
X1019Y234D01*
X1041Y234D02*
X1075Y234D01*
X1092Y234D02*
X1098Y234D01*
X1120Y234D02*
X1126Y234D01*
X1171Y234D02*
X1177Y234D01*
X1194Y234D02*
X1201Y234D01*
X1222Y234D02*
X1228Y234D01*
X1246Y234D02*
X1278Y234D01*
X1317Y234D02*
X1323Y234D01*
X1354Y234D02*
X1362Y234D01*
X836Y233D02*
X842Y233D01*
X864Y233D02*
X870Y233D01*
X912Y233D02*
X919Y233D01*
X966Y233D02*
X973Y233D01*
X995Y233D02*
X1001Y233D01*
X1012Y233D02*
X1019Y233D01*
X1041Y233D02*
X1075Y233D01*
X1092Y233D02*
X1098Y233D01*
X1120Y233D02*
X1126Y233D01*
X1171Y233D02*
X1177Y233D01*
X1194Y233D02*
X1201Y233D01*
X1222Y233D02*
X1228Y233D01*
X1245Y233D02*
X1279Y233D01*
X1317Y233D02*
X1323Y233D01*
X1353Y233D02*
X1361Y233D01*
X836Y232D02*
X842Y232D01*
X864Y232D02*
X870Y232D01*
X911Y232D02*
X918Y232D01*
X966Y232D02*
X973Y232D01*
X995Y232D02*
X1002Y232D01*
X1011Y232D02*
X1018Y232D01*
X1041Y232D02*
X1075Y232D01*
X1092Y232D02*
X1098Y232D01*
X1120Y232D02*
X1126Y232D01*
X1171Y232D02*
X1177Y232D01*
X1194Y232D02*
X1201Y232D01*
X1222Y232D02*
X1228Y232D01*
X1245Y232D02*
X1253Y232D01*
X1272Y232D02*
X1279Y232D01*
X1317Y232D02*
X1323Y232D01*
X1352Y232D02*
X1360Y232D01*
X836Y231D02*
X842Y231D01*
X864Y231D02*
X870Y231D01*
X911Y231D02*
X918Y231D01*
X966Y231D02*
X973Y231D01*
X996Y231D02*
X1002Y231D01*
X1011Y231D02*
X1018Y231D01*
X1042Y231D02*
X1075Y231D01*
X1092Y231D02*
X1098Y231D01*
X1120Y231D02*
X1126Y231D01*
X1171Y231D02*
X1177Y231D01*
X1194Y231D02*
X1200Y231D01*
X1222Y231D02*
X1228Y231D01*
X1245Y231D02*
X1252Y231D01*
X1273Y231D02*
X1279Y231D01*
X1317Y231D02*
X1323Y231D01*
X1351Y231D02*
X1360Y231D01*
X836Y230D02*
X842Y230D01*
X864Y230D02*
X870Y230D01*
X910Y230D02*
X917Y230D01*
X966Y230D02*
X973Y230D01*
X996Y230D02*
X1003Y230D01*
X1011Y230D02*
X1017Y230D01*
X1044Y230D02*
X1075Y230D01*
X1092Y230D02*
X1098Y230D01*
X1120Y230D02*
X1126Y230D01*
X1171Y230D02*
X1177Y230D01*
X1194Y230D02*
X1200Y230D01*
X1222Y230D02*
X1228Y230D01*
X1245Y230D02*
X1252Y230D01*
X1273Y230D02*
X1279Y230D01*
X1317Y230D02*
X1323Y230D01*
X1351Y230D02*
X1359Y230D01*
X836Y229D02*
X842Y229D01*
X864Y229D02*
X870Y229D01*
X910Y229D02*
X917Y229D01*
X966Y229D02*
X973Y229D01*
X996Y229D02*
X1003Y229D01*
X1010Y229D02*
X1017Y229D01*
X1069Y229D02*
X1075Y229D01*
X1092Y229D02*
X1098Y229D01*
X1120Y229D02*
X1126Y229D01*
X1170Y229D02*
X1177Y229D01*
X1194Y229D02*
X1200Y229D01*
X1222Y229D02*
X1228Y229D01*
X1245Y229D02*
X1252Y229D01*
X1273Y229D02*
X1279Y229D01*
X1317Y229D02*
X1323Y229D01*
X1350Y229D02*
X1358Y229D01*
X836Y228D02*
X842Y228D01*
X864Y228D02*
X870Y228D01*
X909Y228D02*
X916Y228D01*
X966Y228D02*
X973Y228D01*
X997Y228D02*
X1004Y228D01*
X1010Y228D02*
X1016Y228D01*
X1069Y228D02*
X1075Y228D01*
X1092Y228D02*
X1098Y228D01*
X1120Y228D02*
X1126Y228D01*
X1169Y228D02*
X1177Y228D01*
X1194Y228D02*
X1200Y228D01*
X1222Y228D02*
X1228Y228D01*
X1245Y228D02*
X1252Y228D01*
X1273Y228D02*
X1279Y228D01*
X1299Y228D02*
X1299Y228D01*
X1317Y228D02*
X1323Y228D01*
X1349Y228D02*
X1357Y228D01*
X1378Y228D02*
X1378Y228D01*
X836Y227D02*
X843Y227D01*
X864Y227D02*
X870Y227D01*
X909Y227D02*
X916Y227D01*
X966Y227D02*
X973Y227D01*
X997Y227D02*
X1004Y227D01*
X1009Y227D02*
X1016Y227D01*
X1068Y227D02*
X1075Y227D01*
X1092Y227D02*
X1098Y227D01*
X1120Y227D02*
X1126Y227D01*
X1168Y227D02*
X1176Y227D01*
X1194Y227D02*
X1200Y227D01*
X1222Y227D02*
X1228Y227D01*
X1245Y227D02*
X1252Y227D01*
X1273Y227D02*
X1279Y227D01*
X1297Y227D02*
X1301Y227D01*
X1317Y227D02*
X1323Y227D01*
X1348Y227D02*
X1356Y227D01*
X1376Y227D02*
X1380Y227D01*
X837Y226D02*
X843Y226D01*
X864Y226D02*
X870Y226D01*
X908Y226D02*
X915Y226D01*
X966Y226D02*
X973Y226D01*
X998Y226D02*
X1005Y226D01*
X1009Y226D02*
X1016Y226D01*
X1068Y226D02*
X1075Y226D01*
X1092Y226D02*
X1098Y226D01*
X1120Y226D02*
X1126Y226D01*
X1167Y226D02*
X1176Y226D01*
X1194Y226D02*
X1200Y226D01*
X1222Y226D02*
X1228Y226D01*
X1245Y226D02*
X1253Y226D01*
X1273Y226D02*
X1279Y226D01*
X1296Y226D02*
X1302Y226D01*
X1317Y226D02*
X1323Y226D01*
X1348Y226D02*
X1356Y226D01*
X1376Y226D02*
X1381Y226D01*
X837Y225D02*
X844Y225D01*
X864Y225D02*
X870Y225D01*
X908Y225D02*
X915Y225D01*
X966Y225D02*
X973Y225D01*
X998Y225D02*
X1005Y225D01*
X1008Y225D02*
X1015Y225D01*
X1067Y225D02*
X1074Y225D01*
X1092Y225D02*
X1098Y225D01*
X1120Y225D02*
X1126Y225D01*
X1166Y225D02*
X1175Y225D01*
X1194Y225D02*
X1200Y225D01*
X1222Y225D02*
X1228Y225D01*
X1245Y225D02*
X1254Y225D01*
X1273Y225D02*
X1279Y225D01*
X1296Y225D02*
X1302Y225D01*
X1317Y225D02*
X1323Y225D01*
X1348Y225D02*
X1355Y225D01*
X1375Y225D02*
X1381Y225D01*
X837Y224D02*
X845Y224D01*
X864Y224D02*
X870Y224D01*
X907Y224D02*
X914Y224D01*
X966Y224D02*
X973Y224D01*
X999Y224D02*
X1005Y224D01*
X1008Y224D02*
X1015Y224D01*
X1066Y224D02*
X1074Y224D01*
X1092Y224D02*
X1098Y224D01*
X1120Y224D02*
X1126Y224D01*
X1165Y224D02*
X1175Y224D01*
X1194Y224D02*
X1200Y224D01*
X1222Y224D02*
X1228Y224D01*
X1245Y224D02*
X1256Y224D01*
X1273Y224D02*
X1279Y224D01*
X1296Y224D02*
X1303Y224D01*
X1317Y224D02*
X1323Y224D01*
X1347Y224D02*
X1354Y224D01*
X1375Y224D02*
X1381Y224D01*
X838Y223D02*
X846Y223D01*
X864Y223D02*
X870Y223D01*
X906Y223D02*
X914Y223D01*
X966Y223D02*
X973Y223D01*
X999Y223D02*
X1014Y223D01*
X1065Y223D02*
X1074Y223D01*
X1092Y223D02*
X1098Y223D01*
X1120Y223D02*
X1126Y223D01*
X1164Y223D02*
X1174Y223D01*
X1194Y223D02*
X1200Y223D01*
X1222Y223D02*
X1228Y223D01*
X1245Y223D02*
X1258Y223D01*
X1272Y223D02*
X1279Y223D01*
X1296Y223D02*
X1304Y223D01*
X1316Y223D02*
X1323Y223D01*
X1347Y223D02*
X1353Y223D01*
X1375Y223D02*
X1381Y223D01*
X838Y222D02*
X870Y222D01*
X890Y222D02*
X913Y222D01*
X966Y222D02*
X973Y222D01*
X999Y222D02*
X1014Y222D01*
X1044Y222D02*
X1073Y222D01*
X1092Y222D02*
X1098Y222D01*
X1120Y222D02*
X1126Y222D01*
X1146Y222D02*
X1172Y222D01*
X1194Y222D02*
X1200Y222D01*
X1222Y222D02*
X1228Y222D01*
X1245Y222D02*
X1279Y222D01*
X1297Y222D02*
X1323Y222D01*
X1347Y222D02*
X1381Y222D01*
X839Y221D02*
X870Y221D01*
X888Y221D02*
X913Y221D01*
X966Y221D02*
X973Y221D01*
X1000Y221D02*
X1013Y221D01*
X1042Y221D02*
X1072Y221D01*
X1092Y221D02*
X1098Y221D01*
X1120Y221D02*
X1126Y221D01*
X1144Y221D02*
X1171Y221D01*
X1194Y221D02*
X1200Y221D01*
X1222Y221D02*
X1228Y221D01*
X1245Y221D02*
X1278Y221D01*
X1297Y221D02*
X1322Y221D01*
X1348Y221D02*
X1381Y221D01*
X840Y220D02*
X870Y220D01*
X888Y220D02*
X912Y220D01*
X966Y220D02*
X973Y220D01*
X1000Y220D02*
X1013Y220D01*
X1041Y220D02*
X1071Y220D01*
X1092Y220D02*
X1098Y220D01*
X1120Y220D02*
X1126Y220D01*
X1143Y220D02*
X1170Y220D01*
X1194Y220D02*
X1200Y220D01*
X1222Y220D02*
X1228Y220D01*
X1245Y220D02*
X1278Y220D01*
X1298Y220D02*
X1322Y220D01*
X1348Y220D02*
X1380Y220D01*
X841Y219D02*
X870Y219D01*
X887Y219D02*
X911Y219D01*
X966Y219D02*
X973Y219D01*
X1001Y219D02*
X1012Y219D01*
X1041Y219D02*
X1070Y219D01*
X1092Y219D02*
X1098Y219D01*
X1120Y219D02*
X1126Y219D01*
X1143Y219D02*
X1169Y219D01*
X1194Y219D02*
X1200Y219D01*
X1222Y219D02*
X1228Y219D01*
X1245Y219D02*
X1277Y219D01*
X1298Y219D02*
X1321Y219D01*
X1348Y219D02*
X1380Y219D01*
X842Y218D02*
X870Y218D01*
X887Y218D02*
X910Y218D01*
X967Y218D02*
X972Y218D01*
X1001Y218D02*
X1012Y218D01*
X1041Y218D02*
X1069Y218D01*
X1092Y218D02*
X1098Y218D01*
X1120Y218D02*
X1126Y218D01*
X1143Y218D02*
X1168Y218D01*
X1194Y218D02*
X1200Y218D01*
X1222Y218D02*
X1228Y218D01*
X1245Y218D02*
X1251Y218D01*
X1253Y218D02*
X1276Y218D01*
X1299Y218D02*
X1320Y218D01*
X1349Y218D02*
X1379Y218D01*
X843Y217D02*
X870Y217D01*
X888Y217D02*
X909Y217D01*
X967Y217D02*
X972Y217D01*
X1002Y217D02*
X1012Y217D01*
X1041Y217D02*
X1068Y217D01*
X1092Y217D02*
X1097Y217D01*
X1120Y217D02*
X1125Y217D01*
X1143Y217D02*
X1167Y217D01*
X1194Y217D02*
X1200Y217D01*
X1222Y217D02*
X1228Y217D01*
X1245Y217D02*
X1251Y217D01*
X1255Y217D02*
X1275Y217D01*
X1301Y217D02*
X1319Y217D01*
X1350Y217D02*
X1378Y217D01*
X845Y216D02*
X870Y216D01*
X888Y216D02*
X907Y216D01*
X968Y216D02*
X971Y216D01*
X1002Y216D02*
X1011Y216D01*
X1042Y216D02*
X1066Y216D01*
X1093Y216D02*
X1097Y216D01*
X1121Y216D02*
X1125Y216D01*
X1144Y216D02*
X1165Y216D01*
X1195Y216D02*
X1199Y216D01*
X1223Y216D02*
X1227Y216D01*
X1246Y216D02*
X1250Y216D01*
X1256Y216D02*
X1273Y216D01*
X1302Y216D02*
X1317Y216D01*
X1351Y216D02*
X1376Y216D01*
X850Y215D02*
X870Y215D01*
X891Y215D02*
X903Y215D01*
X1005Y215D02*
X1009Y215D01*
X1044Y215D02*
X1062Y215D01*
X1146Y215D02*
X1161Y215D01*
X1259Y215D02*
X1269Y215D01*
X1306Y215D02*
X1313Y215D01*
X1355Y215D02*
X1372Y215D01*
X1002Y154D02*
X1032Y154D01*
X1055Y154D02*
X1084Y154D01*
X1107Y154D02*
X1134Y154D01*
X1159Y154D02*
X1188Y154D01*
X1001Y153D02*
X1033Y153D01*
X1053Y153D02*
X1085Y153D01*
X1105Y153D02*
X1135Y153D01*
X1157Y153D02*
X1189Y153D01*
X1000Y152D02*
X1033Y152D01*
X1052Y152D02*
X1085Y152D01*
X1104Y152D02*
X1136Y152D01*
X1156Y152D02*
X1190Y152D01*
X999Y151D02*
X1033Y151D01*
X1052Y151D02*
X1085Y151D01*
X1104Y151D02*
X1137Y151D01*
X1156Y151D02*
X1190Y151D01*
X999Y150D02*
X1033Y150D01*
X1051Y150D02*
X1085Y150D01*
X1103Y150D02*
X1137Y150D01*
X1155Y150D02*
X1189Y150D01*
X999Y149D02*
X1033Y149D01*
X1051Y149D02*
X1085Y149D01*
X1103Y149D02*
X1137Y149D01*
X1155Y149D02*
X1189Y149D01*
X999Y148D02*
X1031Y148D01*
X1051Y148D02*
X1083Y148D01*
X1103Y148D02*
X1138Y148D01*
X1155Y148D02*
X1187Y148D01*
X999Y147D02*
X1005Y147D01*
X1051Y147D02*
X1057Y147D01*
X1103Y147D02*
X1109Y147D01*
X1131Y147D02*
X1138Y147D01*
X1155Y147D02*
X1161Y147D01*
X999Y146D02*
X1005Y146D01*
X1051Y146D02*
X1057Y146D01*
X1103Y146D02*
X1109Y146D01*
X1131Y146D02*
X1138Y146D01*
X1155Y146D02*
X1161Y146D01*
X999Y145D02*
X1005Y145D01*
X1051Y145D02*
X1057Y145D01*
X1103Y145D02*
X1109Y145D01*
X1131Y145D02*
X1138Y145D01*
X1155Y145D02*
X1161Y145D01*
X999Y144D02*
X1005Y144D01*
X1051Y144D02*
X1057Y144D01*
X1103Y144D02*
X1109Y144D01*
X1131Y144D02*
X1138Y144D01*
X1155Y144D02*
X1161Y144D01*
X999Y143D02*
X1005Y143D01*
X1051Y143D02*
X1057Y143D01*
X1103Y143D02*
X1109Y143D01*
X1131Y143D02*
X1138Y143D01*
X1155Y143D02*
X1161Y143D01*
X999Y142D02*
X1005Y142D01*
X1051Y142D02*
X1057Y142D01*
X1103Y142D02*
X1109Y142D01*
X1131Y142D02*
X1138Y142D01*
X1155Y142D02*
X1161Y142D01*
X999Y141D02*
X1005Y141D01*
X1051Y141D02*
X1057Y141D01*
X1103Y141D02*
X1109Y141D01*
X1131Y141D02*
X1138Y141D01*
X1155Y141D02*
X1161Y141D01*
X999Y140D02*
X1005Y140D01*
X1051Y140D02*
X1057Y140D01*
X1103Y140D02*
X1109Y140D01*
X1131Y140D02*
X1138Y140D01*
X1155Y140D02*
X1161Y140D01*
X999Y139D02*
X1005Y139D01*
X1051Y139D02*
X1057Y139D01*
X1103Y139D02*
X1109Y139D01*
X1131Y139D02*
X1138Y139D01*
X1155Y139D02*
X1161Y139D01*
X999Y138D02*
X1005Y138D01*
X1051Y138D02*
X1057Y138D01*
X1103Y138D02*
X1109Y138D01*
X1131Y138D02*
X1138Y138D01*
X1155Y138D02*
X1161Y138D01*
X999Y137D02*
X1005Y137D01*
X1051Y137D02*
X1057Y137D01*
X1103Y137D02*
X1109Y137D01*
X1131Y137D02*
X1138Y137D01*
X1155Y137D02*
X1161Y137D01*
X999Y136D02*
X1005Y136D01*
X1051Y136D02*
X1057Y136D01*
X1103Y136D02*
X1109Y136D01*
X1131Y136D02*
X1138Y136D01*
X1155Y136D02*
X1161Y136D01*
X999Y135D02*
X1005Y135D01*
X1051Y135D02*
X1057Y135D01*
X1103Y135D02*
X1109Y135D01*
X1131Y135D02*
X1138Y135D01*
X1155Y135D02*
X1161Y135D01*
X999Y134D02*
X1005Y134D01*
X1051Y134D02*
X1057Y134D01*
X1103Y134D02*
X1109Y134D01*
X1131Y134D02*
X1138Y134D01*
X1155Y134D02*
X1161Y134D01*
X999Y133D02*
X1005Y133D01*
X1051Y133D02*
X1057Y133D01*
X1103Y133D02*
X1109Y133D01*
X1131Y133D02*
X1138Y133D01*
X1155Y133D02*
X1161Y133D01*
X999Y132D02*
X1005Y132D01*
X1051Y132D02*
X1057Y132D01*
X1103Y132D02*
X1109Y132D01*
X1131Y132D02*
X1138Y132D01*
X1155Y132D02*
X1161Y132D01*
X999Y131D02*
X1005Y131D01*
X1051Y131D02*
X1057Y131D01*
X1103Y131D02*
X1109Y131D01*
X1131Y131D02*
X1138Y131D01*
X1155Y131D02*
X1161Y131D01*
X999Y130D02*
X1029Y130D01*
X1051Y130D02*
X1081Y130D01*
X1103Y130D02*
X1109Y130D01*
X1131Y130D02*
X1138Y130D01*
X1155Y130D02*
X1185Y130D01*
X999Y129D02*
X1031Y129D01*
X1051Y129D02*
X1083Y129D01*
X1103Y129D02*
X1109Y129D01*
X1131Y129D02*
X1138Y129D01*
X1155Y129D02*
X1187Y129D01*
X999Y128D02*
X1032Y128D01*
X1051Y128D02*
X1084Y128D01*
X1103Y128D02*
X1109Y128D01*
X1131Y128D02*
X1138Y128D01*
X1155Y128D02*
X1188Y128D01*
X1000Y127D02*
X1032Y127D01*
X1052Y127D02*
X1084Y127D01*
X1103Y127D02*
X1109Y127D01*
X1131Y127D02*
X1138Y127D01*
X1156Y127D02*
X1189Y127D01*
X1000Y126D02*
X1033Y126D01*
X1052Y126D02*
X1085Y126D01*
X1103Y126D02*
X1109Y126D01*
X1131Y126D02*
X1138Y126D01*
X1157Y126D02*
X1189Y126D01*
X1001Y125D02*
X1033Y125D01*
X1053Y125D02*
X1085Y125D01*
X1103Y125D02*
X1109Y125D01*
X1131Y125D02*
X1138Y125D01*
X1158Y125D02*
X1189Y125D01*
X1003Y124D02*
X1033Y124D01*
X1055Y124D02*
X1085Y124D01*
X1103Y124D02*
X1109Y124D01*
X1131Y124D02*
X1138Y124D01*
X1159Y124D02*
X1190Y124D01*
X1027Y123D02*
X1033Y123D01*
X1079Y123D02*
X1086Y123D01*
X1103Y123D02*
X1109Y123D01*
X1131Y123D02*
X1138Y123D01*
X1183Y123D02*
X1190Y123D01*
X1027Y122D02*
X1034Y122D01*
X1079Y122D02*
X1086Y122D01*
X1103Y122D02*
X1109Y122D01*
X1131Y122D02*
X1138Y122D01*
X1183Y122D02*
X1190Y122D01*
X1027Y121D02*
X1034Y121D01*
X1079Y121D02*
X1086Y121D01*
X1103Y121D02*
X1109Y121D01*
X1131Y121D02*
X1138Y121D01*
X1183Y121D02*
X1190Y121D01*
X1027Y120D02*
X1034Y120D01*
X1079Y120D02*
X1086Y120D01*
X1103Y120D02*
X1109Y120D01*
X1131Y120D02*
X1138Y120D01*
X1183Y120D02*
X1190Y120D01*
X1027Y119D02*
X1034Y119D01*
X1079Y119D02*
X1086Y119D01*
X1103Y119D02*
X1109Y119D01*
X1131Y119D02*
X1138Y119D01*
X1183Y119D02*
X1190Y119D01*
X1027Y118D02*
X1034Y118D01*
X1079Y118D02*
X1086Y118D01*
X1103Y118D02*
X1109Y118D01*
X1131Y118D02*
X1138Y118D01*
X1183Y118D02*
X1190Y118D01*
X1027Y117D02*
X1034Y117D01*
X1079Y117D02*
X1086Y117D01*
X1103Y117D02*
X1109Y117D01*
X1131Y117D02*
X1138Y117D01*
X1183Y117D02*
X1190Y117D01*
X1027Y116D02*
X1034Y116D01*
X1079Y116D02*
X1086Y116D01*
X1103Y116D02*
X1109Y116D01*
X1131Y116D02*
X1138Y116D01*
X1183Y116D02*
X1190Y116D01*
X1027Y115D02*
X1034Y115D01*
X1079Y115D02*
X1086Y115D01*
X1103Y115D02*
X1109Y115D01*
X1131Y115D02*
X1138Y115D01*
X1183Y115D02*
X1190Y115D01*
X1027Y114D02*
X1034Y114D01*
X1079Y114D02*
X1086Y114D01*
X1103Y114D02*
X1109Y114D01*
X1131Y114D02*
X1138Y114D01*
X1183Y114D02*
X1190Y114D01*
X1027Y113D02*
X1034Y113D01*
X1079Y113D02*
X1086Y113D01*
X1103Y113D02*
X1109Y113D01*
X1131Y113D02*
X1138Y113D01*
X1183Y113D02*
X1190Y113D01*
X1027Y112D02*
X1034Y112D01*
X1079Y112D02*
X1086Y112D01*
X1103Y112D02*
X1109Y112D01*
X1131Y112D02*
X1138Y112D01*
X1183Y112D02*
X1190Y112D01*
X1027Y111D02*
X1034Y111D01*
X1079Y111D02*
X1086Y111D01*
X1103Y111D02*
X1109Y111D01*
X1131Y111D02*
X1138Y111D01*
X1183Y111D02*
X1190Y111D01*
X1027Y110D02*
X1034Y110D01*
X1079Y110D02*
X1086Y110D01*
X1103Y110D02*
X1109Y110D01*
X1131Y110D02*
X1138Y110D01*
X1183Y110D02*
X1190Y110D01*
X1027Y109D02*
X1034Y109D01*
X1079Y109D02*
X1086Y109D01*
X1103Y109D02*
X1109Y109D01*
X1131Y109D02*
X1138Y109D01*
X1183Y109D02*
X1190Y109D01*
X1027Y108D02*
X1034Y108D01*
X1079Y108D02*
X1086Y108D01*
X1103Y108D02*
X1109Y108D01*
X1131Y108D02*
X1138Y108D01*
X1183Y108D02*
X1190Y108D01*
X1027Y107D02*
X1034Y107D01*
X1079Y107D02*
X1086Y107D01*
X1103Y107D02*
X1109Y107D01*
X1131Y107D02*
X1138Y107D01*
X1183Y107D02*
X1190Y107D01*
X1002Y106D02*
X1034Y106D01*
X1054Y106D02*
X1086Y106D01*
X1103Y106D02*
X1138Y106D01*
X1158Y106D02*
X1190Y106D01*
X1000Y105D02*
X1034Y105D01*
X1052Y105D02*
X1086Y105D01*
X1103Y105D02*
X1138Y105D01*
X1156Y105D02*
X1190Y105D01*
X999Y104D02*
X1034Y104D01*
X1051Y104D02*
X1086Y104D01*
X1103Y104D02*
X1137Y104D01*
X1155Y104D02*
X1190Y104D01*
X999Y103D02*
X1034Y103D01*
X1051Y103D02*
X1086Y103D01*
X1103Y103D02*
X1137Y103D01*
X1155Y103D02*
X1190Y103D01*
X999Y102D02*
X1034Y102D01*
X1051Y102D02*
X1086Y102D01*
X1104Y102D02*
X1136Y102D01*
X1155Y102D02*
X1190Y102D01*
X999Y101D02*
X1034Y101D01*
X1051Y101D02*
X1086Y101D01*
X1105Y101D02*
X1135Y101D01*
X1155Y101D02*
X1190Y101D01*
X1000Y100D02*
X1034Y100D01*
X1052Y100D02*
X1086Y100D01*
X1106Y100D02*
X1134Y100D01*
X1156Y100D02*
X1190Y100D01*
X1001Y99D02*
X1033Y99D01*
X1053Y99D02*
X1085Y99D01*
X1108Y99D02*
X1132Y99D01*
X1157Y99D02*
X1189Y99D01*
D02*
G04 End of Silk0*
M02*