G04 MADE WITH FRITZING*
G04 WWW.FRITZING.ORG*
G04 DOUBLE SIDED*
G04 HOLES PLATED*
G04 CONTOUR ON CENTER OF CONTOUR VECTOR*
%ASAXBY*%
%FSLAX23Y23*%
%MOIN*%
%OFA0B0*%
%SFA1.0B1.0*%
%ADD10R,1.327660X1.751260X1.311660X1.735260*%
%ADD11C,0.008000*%
%ADD12R,0.001000X0.001000*%
%LNSILK0*%
G90*
G70*
G54D11*
X4Y1747D02*
X1324Y1747D01*
X1324Y4D01*
X4Y4D01*
X4Y1747D01*
D02*
G54D12*
X450Y1572D02*
X479Y1572D01*
X501Y1572D02*
X522Y1572D01*
X568Y1572D02*
X601Y1572D01*
X778Y1572D02*
X781Y1572D01*
X1055Y1572D02*
X1082Y1572D01*
X448Y1571D02*
X479Y1571D01*
X500Y1571D02*
X524Y1571D01*
X566Y1571D02*
X601Y1571D01*
X777Y1571D02*
X783Y1571D01*
X1053Y1571D02*
X1084Y1571D01*
X446Y1570D02*
X479Y1570D01*
X499Y1570D02*
X525Y1570D01*
X565Y1570D02*
X601Y1570D01*
X776Y1570D02*
X783Y1570D01*
X1052Y1570D02*
X1085Y1570D01*
X444Y1569D02*
X479Y1569D01*
X499Y1569D02*
X527Y1569D01*
X564Y1569D02*
X601Y1569D01*
X776Y1569D02*
X783Y1569D01*
X1015Y1569D02*
X1015Y1569D01*
X1050Y1569D02*
X1086Y1569D01*
X443Y1568D02*
X479Y1568D01*
X499Y1568D02*
X528Y1568D01*
X563Y1568D02*
X601Y1568D01*
X776Y1568D02*
X784Y1568D01*
X1013Y1568D02*
X1018Y1568D01*
X1050Y1568D02*
X1087Y1568D01*
X442Y1567D02*
X479Y1567D01*
X499Y1567D02*
X528Y1567D01*
X562Y1567D02*
X601Y1567D01*
X776Y1567D02*
X784Y1567D01*
X1012Y1567D02*
X1018Y1567D01*
X1049Y1567D02*
X1087Y1567D01*
X441Y1566D02*
X479Y1566D01*
X500Y1566D02*
X529Y1566D01*
X561Y1566D02*
X601Y1566D01*
X776Y1566D02*
X784Y1566D01*
X1012Y1566D02*
X1019Y1566D01*
X1048Y1566D02*
X1088Y1566D01*
X441Y1565D02*
X479Y1565D01*
X501Y1565D02*
X530Y1565D01*
X561Y1565D02*
X601Y1565D01*
X776Y1565D02*
X784Y1565D01*
X1012Y1565D02*
X1019Y1565D01*
X1048Y1565D02*
X1088Y1565D01*
X440Y1564D02*
X452Y1564D01*
X471Y1564D02*
X479Y1564D01*
X520Y1564D02*
X530Y1564D01*
X560Y1564D02*
X571Y1564D01*
X593Y1564D02*
X601Y1564D01*
X776Y1564D02*
X784Y1564D01*
X1011Y1564D02*
X1019Y1564D01*
X1048Y1564D02*
X1057Y1564D01*
X1080Y1564D02*
X1088Y1564D01*
X440Y1563D02*
X450Y1563D01*
X471Y1563D02*
X479Y1563D01*
X522Y1563D02*
X530Y1563D01*
X560Y1563D02*
X569Y1563D01*
X593Y1563D02*
X601Y1563D01*
X776Y1563D02*
X784Y1563D01*
X1011Y1563D02*
X1019Y1563D01*
X1047Y1563D02*
X1056Y1563D01*
X1081Y1563D02*
X1088Y1563D01*
X439Y1562D02*
X448Y1562D01*
X471Y1562D02*
X479Y1562D01*
X522Y1562D02*
X531Y1562D01*
X560Y1562D02*
X568Y1562D01*
X593Y1562D02*
X601Y1562D01*
X776Y1562D02*
X784Y1562D01*
X1011Y1562D02*
X1019Y1562D01*
X1047Y1562D02*
X1055Y1562D01*
X1080Y1562D02*
X1088Y1562D01*
X439Y1561D02*
X447Y1561D01*
X471Y1561D02*
X479Y1561D01*
X523Y1561D02*
X531Y1561D01*
X560Y1561D02*
X567Y1561D01*
X593Y1561D02*
X601Y1561D01*
X776Y1561D02*
X784Y1561D01*
X1011Y1561D02*
X1019Y1561D01*
X1047Y1561D02*
X1055Y1561D01*
X1079Y1561D02*
X1088Y1561D01*
X438Y1560D02*
X447Y1560D01*
X471Y1560D02*
X479Y1560D01*
X523Y1560D02*
X532Y1560D01*
X560Y1560D02*
X567Y1560D01*
X593Y1560D02*
X601Y1560D01*
X776Y1560D02*
X784Y1560D01*
X1011Y1560D02*
X1019Y1560D01*
X1048Y1560D02*
X1055Y1560D01*
X1079Y1560D02*
X1088Y1560D01*
X438Y1559D02*
X446Y1559D01*
X471Y1559D02*
X479Y1559D01*
X524Y1559D02*
X532Y1559D01*
X560Y1559D02*
X567Y1559D01*
X593Y1559D02*
X601Y1559D01*
X776Y1559D02*
X784Y1559D01*
X1011Y1559D02*
X1019Y1559D01*
X1048Y1559D02*
X1054Y1559D01*
X1078Y1559D02*
X1087Y1559D01*
X438Y1558D02*
X446Y1558D01*
X471Y1558D02*
X479Y1558D01*
X524Y1558D02*
X533Y1558D01*
X560Y1558D02*
X567Y1558D01*
X593Y1558D02*
X601Y1558D01*
X776Y1558D02*
X784Y1558D01*
X1011Y1558D02*
X1019Y1558D01*
X1049Y1558D02*
X1053Y1558D01*
X1077Y1558D02*
X1087Y1558D01*
X438Y1557D02*
X445Y1557D01*
X471Y1557D02*
X479Y1557D01*
X525Y1557D02*
X533Y1557D01*
X560Y1557D02*
X567Y1557D01*
X593Y1557D02*
X601Y1557D01*
X776Y1557D02*
X784Y1557D01*
X1011Y1557D02*
X1019Y1557D01*
X1076Y1557D02*
X1086Y1557D01*
X438Y1556D02*
X445Y1556D01*
X471Y1556D02*
X479Y1556D01*
X525Y1556D02*
X534Y1556D01*
X560Y1556D02*
X567Y1556D01*
X593Y1556D02*
X601Y1556D01*
X776Y1556D02*
X784Y1556D01*
X1011Y1556D02*
X1019Y1556D01*
X1076Y1556D02*
X1085Y1556D01*
X438Y1555D02*
X445Y1555D01*
X471Y1555D02*
X479Y1555D01*
X526Y1555D02*
X534Y1555D01*
X560Y1555D02*
X567Y1555D01*
X593Y1555D02*
X601Y1555D01*
X776Y1555D02*
X784Y1555D01*
X1011Y1555D02*
X1019Y1555D01*
X1075Y1555D02*
X1085Y1555D01*
X438Y1554D02*
X445Y1554D01*
X471Y1554D02*
X479Y1554D01*
X526Y1554D02*
X535Y1554D01*
X560Y1554D02*
X567Y1554D01*
X593Y1554D02*
X601Y1554D01*
X623Y1554D02*
X626Y1554D01*
X656Y1554D02*
X660Y1554D01*
X693Y1554D02*
X711Y1554D01*
X752Y1554D02*
X764Y1554D01*
X776Y1554D02*
X784Y1554D01*
X805Y1554D02*
X829Y1554D01*
X874Y1554D02*
X886Y1554D01*
X900Y1554D02*
X904Y1554D01*
X935Y1554D02*
X956Y1554D01*
X993Y1554D02*
X1025Y1554D01*
X1074Y1554D02*
X1084Y1554D01*
X438Y1553D02*
X445Y1553D01*
X471Y1553D02*
X479Y1553D01*
X527Y1553D02*
X535Y1553D01*
X560Y1553D02*
X567Y1553D01*
X593Y1553D02*
X601Y1553D01*
X622Y1553D02*
X627Y1553D01*
X655Y1553D02*
X661Y1553D01*
X691Y1553D02*
X713Y1553D01*
X750Y1553D02*
X766Y1553D01*
X776Y1553D02*
X784Y1553D01*
X804Y1553D02*
X831Y1553D01*
X872Y1553D02*
X888Y1553D01*
X899Y1553D02*
X905Y1553D01*
X933Y1553D02*
X957Y1553D01*
X992Y1553D02*
X1026Y1553D01*
X1073Y1553D02*
X1083Y1553D01*
X438Y1552D02*
X445Y1552D01*
X471Y1552D02*
X479Y1552D01*
X527Y1552D02*
X536Y1552D01*
X560Y1552D02*
X567Y1552D01*
X593Y1552D02*
X601Y1552D01*
X621Y1552D02*
X628Y1552D01*
X654Y1552D02*
X661Y1552D01*
X689Y1552D02*
X715Y1552D01*
X748Y1552D02*
X768Y1552D01*
X776Y1552D02*
X784Y1552D01*
X804Y1552D02*
X833Y1552D01*
X870Y1552D02*
X890Y1552D01*
X898Y1552D02*
X905Y1552D01*
X931Y1552D02*
X958Y1552D01*
X991Y1552D02*
X1027Y1552D01*
X1072Y1552D02*
X1082Y1552D01*
X438Y1551D02*
X445Y1551D01*
X471Y1551D02*
X479Y1551D01*
X528Y1551D02*
X536Y1551D01*
X560Y1551D02*
X567Y1551D01*
X593Y1551D02*
X601Y1551D01*
X621Y1551D02*
X628Y1551D01*
X654Y1551D02*
X662Y1551D01*
X688Y1551D02*
X716Y1551D01*
X747Y1551D02*
X770Y1551D01*
X776Y1551D02*
X784Y1551D01*
X804Y1551D02*
X834Y1551D01*
X869Y1551D02*
X892Y1551D01*
X898Y1551D02*
X905Y1551D01*
X930Y1551D02*
X958Y1551D01*
X991Y1551D02*
X1027Y1551D01*
X1072Y1551D02*
X1082Y1551D01*
X438Y1550D02*
X446Y1550D01*
X471Y1550D02*
X479Y1550D01*
X528Y1550D02*
X537Y1550D01*
X560Y1550D02*
X567Y1550D01*
X593Y1550D02*
X601Y1550D01*
X621Y1550D02*
X628Y1550D01*
X654Y1550D02*
X662Y1550D01*
X687Y1550D02*
X717Y1550D01*
X746Y1550D02*
X771Y1550D01*
X776Y1550D02*
X784Y1550D01*
X804Y1550D02*
X835Y1550D01*
X868Y1550D02*
X893Y1550D01*
X898Y1550D02*
X905Y1550D01*
X929Y1550D02*
X958Y1550D01*
X991Y1550D02*
X1027Y1550D01*
X1071Y1550D02*
X1081Y1550D01*
X438Y1549D02*
X446Y1549D01*
X471Y1549D02*
X479Y1549D01*
X529Y1549D02*
X537Y1549D01*
X560Y1549D02*
X567Y1549D01*
X593Y1549D02*
X601Y1549D01*
X621Y1549D02*
X628Y1549D01*
X654Y1549D02*
X662Y1549D01*
X686Y1549D02*
X718Y1549D01*
X746Y1549D02*
X773Y1549D01*
X776Y1549D02*
X784Y1549D01*
X804Y1549D02*
X836Y1549D01*
X868Y1549D02*
X895Y1549D01*
X898Y1549D02*
X905Y1549D01*
X929Y1549D02*
X958Y1549D01*
X991Y1549D02*
X1027Y1549D01*
X1070Y1549D02*
X1080Y1549D01*
X438Y1548D02*
X447Y1548D01*
X471Y1548D02*
X479Y1548D01*
X529Y1548D02*
X538Y1548D01*
X560Y1548D02*
X567Y1548D01*
X593Y1548D02*
X601Y1548D01*
X621Y1548D02*
X628Y1548D01*
X654Y1548D02*
X662Y1548D01*
X685Y1548D02*
X719Y1548D01*
X745Y1548D02*
X774Y1548D01*
X776Y1548D02*
X784Y1548D01*
X804Y1548D02*
X837Y1548D01*
X867Y1548D02*
X896Y1548D01*
X898Y1548D02*
X905Y1548D01*
X928Y1548D02*
X957Y1548D01*
X992Y1548D02*
X1026Y1548D01*
X1069Y1548D02*
X1079Y1548D01*
X439Y1547D02*
X447Y1547D01*
X471Y1547D02*
X479Y1547D01*
X530Y1547D02*
X538Y1547D01*
X560Y1547D02*
X567Y1547D01*
X593Y1547D02*
X601Y1547D01*
X621Y1547D02*
X628Y1547D01*
X654Y1547D02*
X662Y1547D01*
X684Y1547D02*
X720Y1547D01*
X745Y1547D02*
X784Y1547D01*
X806Y1547D02*
X838Y1547D01*
X867Y1547D02*
X905Y1547D01*
X927Y1547D02*
X956Y1547D01*
X993Y1547D02*
X1025Y1547D01*
X1069Y1547D02*
X1078Y1547D01*
X439Y1546D02*
X449Y1546D01*
X471Y1546D02*
X479Y1546D01*
X530Y1546D02*
X539Y1546D01*
X560Y1546D02*
X567Y1546D01*
X593Y1546D02*
X601Y1546D01*
X621Y1546D02*
X628Y1546D01*
X654Y1546D02*
X662Y1546D01*
X683Y1546D02*
X695Y1546D01*
X709Y1546D02*
X721Y1546D01*
X744Y1546D02*
X754Y1546D01*
X763Y1546D02*
X784Y1546D01*
X827Y1546D02*
X840Y1546D01*
X866Y1546D02*
X876Y1546D01*
X885Y1546D02*
X905Y1546D01*
X927Y1546D02*
X936Y1546D01*
X1011Y1546D02*
X1019Y1546D01*
X1068Y1546D02*
X1078Y1546D01*
X440Y1545D02*
X450Y1545D01*
X471Y1545D02*
X479Y1545D01*
X531Y1545D02*
X539Y1545D01*
X560Y1545D02*
X567Y1545D01*
X593Y1545D02*
X601Y1545D01*
X621Y1545D02*
X628Y1545D01*
X654Y1545D02*
X662Y1545D01*
X683Y1545D02*
X693Y1545D01*
X711Y1545D02*
X721Y1545D01*
X744Y1545D02*
X752Y1545D01*
X764Y1545D02*
X784Y1545D01*
X829Y1545D02*
X841Y1545D01*
X866Y1545D02*
X874Y1545D01*
X886Y1545D02*
X905Y1545D01*
X927Y1545D02*
X935Y1545D01*
X1011Y1545D02*
X1019Y1545D01*
X1067Y1545D02*
X1077Y1545D01*
X440Y1544D02*
X479Y1544D01*
X531Y1544D02*
X539Y1544D01*
X560Y1544D02*
X567Y1544D01*
X593Y1544D02*
X601Y1544D01*
X621Y1544D02*
X628Y1544D01*
X654Y1544D02*
X662Y1544D01*
X682Y1544D02*
X692Y1544D01*
X712Y1544D02*
X722Y1544D01*
X744Y1544D02*
X752Y1544D01*
X766Y1544D02*
X784Y1544D01*
X830Y1544D02*
X842Y1544D01*
X866Y1544D02*
X874Y1544D01*
X888Y1544D02*
X905Y1544D01*
X927Y1544D02*
X935Y1544D01*
X1011Y1544D02*
X1019Y1544D01*
X1066Y1544D02*
X1076Y1544D01*
X441Y1543D02*
X479Y1543D01*
X532Y1543D02*
X539Y1543D01*
X560Y1543D02*
X568Y1543D01*
X593Y1543D02*
X601Y1543D01*
X621Y1543D02*
X629Y1543D01*
X654Y1543D02*
X662Y1543D01*
X682Y1543D02*
X691Y1543D01*
X713Y1543D02*
X722Y1543D01*
X744Y1543D02*
X751Y1543D01*
X767Y1543D02*
X784Y1543D01*
X831Y1543D02*
X842Y1543D01*
X866Y1543D02*
X873Y1543D01*
X889Y1543D02*
X905Y1543D01*
X927Y1543D02*
X934Y1543D01*
X1011Y1543D02*
X1019Y1543D01*
X1065Y1543D02*
X1075Y1543D01*
X442Y1542D02*
X479Y1542D01*
X532Y1542D02*
X540Y1542D01*
X560Y1542D02*
X568Y1542D01*
X593Y1542D02*
X601Y1542D01*
X621Y1542D02*
X629Y1542D01*
X653Y1542D02*
X661Y1542D01*
X682Y1542D02*
X690Y1542D01*
X714Y1542D02*
X722Y1542D01*
X744Y1542D02*
X751Y1542D01*
X769Y1542D02*
X784Y1542D01*
X832Y1542D02*
X843Y1542D01*
X866Y1542D02*
X873Y1542D01*
X891Y1542D02*
X905Y1542D01*
X926Y1542D02*
X934Y1542D01*
X1011Y1542D02*
X1019Y1542D01*
X1065Y1542D02*
X1075Y1542D01*
X443Y1541D02*
X479Y1541D01*
X532Y1541D02*
X540Y1541D01*
X560Y1541D02*
X570Y1541D01*
X593Y1541D02*
X601Y1541D01*
X621Y1541D02*
X630Y1541D01*
X653Y1541D02*
X661Y1541D01*
X682Y1541D02*
X689Y1541D01*
X715Y1541D02*
X722Y1541D01*
X744Y1541D02*
X751Y1541D01*
X770Y1541D02*
X784Y1541D01*
X833Y1541D02*
X843Y1541D01*
X865Y1541D02*
X873Y1541D01*
X892Y1541D02*
X905Y1541D01*
X926Y1541D02*
X934Y1541D01*
X1011Y1541D02*
X1019Y1541D01*
X1064Y1541D02*
X1074Y1541D01*
X443Y1540D02*
X479Y1540D01*
X532Y1540D02*
X540Y1540D01*
X561Y1540D02*
X601Y1540D01*
X622Y1540D02*
X630Y1540D01*
X652Y1540D02*
X661Y1540D01*
X682Y1540D02*
X689Y1540D01*
X715Y1540D02*
X723Y1540D01*
X744Y1540D02*
X751Y1540D01*
X772Y1540D02*
X784Y1540D01*
X834Y1540D02*
X844Y1540D01*
X865Y1540D02*
X873Y1540D01*
X894Y1540D02*
X905Y1540D01*
X926Y1540D02*
X934Y1540D01*
X1011Y1540D02*
X1019Y1540D01*
X1063Y1540D02*
X1073Y1540D01*
X443Y1539D02*
X479Y1539D01*
X532Y1539D02*
X540Y1539D01*
X561Y1539D02*
X601Y1539D01*
X622Y1539D02*
X630Y1539D01*
X652Y1539D02*
X660Y1539D01*
X682Y1539D02*
X689Y1539D01*
X715Y1539D02*
X723Y1539D01*
X744Y1539D02*
X751Y1539D01*
X774Y1539D02*
X784Y1539D01*
X836Y1539D02*
X844Y1539D01*
X865Y1539D02*
X873Y1539D01*
X895Y1539D02*
X905Y1539D01*
X926Y1539D02*
X934Y1539D01*
X1011Y1539D02*
X1019Y1539D01*
X1062Y1539D02*
X1072Y1539D01*
X442Y1538D02*
X479Y1538D01*
X532Y1538D02*
X540Y1538D01*
X562Y1538D02*
X601Y1538D01*
X623Y1538D02*
X631Y1538D01*
X651Y1538D02*
X660Y1538D01*
X682Y1538D02*
X689Y1538D01*
X715Y1538D02*
X723Y1538D01*
X743Y1538D02*
X751Y1538D01*
X775Y1538D02*
X784Y1538D01*
X836Y1538D02*
X844Y1538D01*
X865Y1538D02*
X873Y1538D01*
X897Y1538D02*
X905Y1538D01*
X926Y1538D02*
X934Y1538D01*
X1011Y1538D02*
X1019Y1538D01*
X1062Y1538D02*
X1072Y1538D01*
X441Y1537D02*
X479Y1537D01*
X532Y1537D02*
X539Y1537D01*
X562Y1537D02*
X601Y1537D01*
X623Y1537D02*
X631Y1537D01*
X651Y1537D02*
X659Y1537D01*
X682Y1537D02*
X689Y1537D01*
X715Y1537D02*
X723Y1537D01*
X743Y1537D02*
X751Y1537D01*
X776Y1537D02*
X784Y1537D01*
X837Y1537D02*
X844Y1537D01*
X865Y1537D02*
X873Y1537D01*
X898Y1537D02*
X905Y1537D01*
X926Y1537D02*
X934Y1537D01*
X1011Y1537D02*
X1019Y1537D01*
X1061Y1537D02*
X1071Y1537D01*
X440Y1536D02*
X479Y1536D01*
X531Y1536D02*
X539Y1536D01*
X563Y1536D02*
X601Y1536D01*
X623Y1536D02*
X632Y1536D01*
X651Y1536D02*
X659Y1536D01*
X682Y1536D02*
X689Y1536D01*
X715Y1536D02*
X723Y1536D01*
X743Y1536D02*
X751Y1536D01*
X776Y1536D02*
X784Y1536D01*
X837Y1536D02*
X844Y1536D01*
X865Y1536D02*
X873Y1536D01*
X898Y1536D02*
X905Y1536D01*
X926Y1536D02*
X959Y1536D01*
X1011Y1536D02*
X1019Y1536D01*
X1060Y1536D02*
X1070Y1536D01*
X440Y1535D02*
X451Y1535D01*
X471Y1535D02*
X479Y1535D01*
X531Y1535D02*
X539Y1535D01*
X564Y1535D02*
X601Y1535D01*
X624Y1535D02*
X632Y1535D01*
X650Y1535D02*
X658Y1535D01*
X682Y1535D02*
X689Y1535D01*
X715Y1535D02*
X723Y1535D01*
X743Y1535D02*
X751Y1535D01*
X776Y1535D02*
X784Y1535D01*
X837Y1535D02*
X844Y1535D01*
X865Y1535D02*
X873Y1535D01*
X898Y1535D02*
X905Y1535D01*
X926Y1535D02*
X960Y1535D01*
X1011Y1535D02*
X1019Y1535D01*
X1059Y1535D02*
X1069Y1535D01*
X439Y1534D02*
X449Y1534D01*
X471Y1534D02*
X479Y1534D01*
X531Y1534D02*
X539Y1534D01*
X566Y1534D02*
X601Y1534D01*
X624Y1534D02*
X633Y1534D01*
X650Y1534D02*
X658Y1534D01*
X682Y1534D02*
X689Y1534D01*
X715Y1534D02*
X723Y1534D01*
X743Y1534D02*
X751Y1534D01*
X776Y1534D02*
X784Y1534D01*
X837Y1534D02*
X844Y1534D01*
X865Y1534D02*
X873Y1534D01*
X898Y1534D02*
X905Y1534D01*
X926Y1534D02*
X962Y1534D01*
X1011Y1534D02*
X1019Y1534D01*
X1058Y1534D02*
X1068Y1534D01*
X439Y1533D02*
X448Y1533D01*
X471Y1533D02*
X479Y1533D01*
X530Y1533D02*
X538Y1533D01*
X567Y1533D02*
X601Y1533D01*
X625Y1533D02*
X633Y1533D01*
X649Y1533D02*
X657Y1533D01*
X682Y1533D02*
X723Y1533D01*
X743Y1533D02*
X751Y1533D01*
X776Y1533D02*
X784Y1533D01*
X837Y1533D02*
X844Y1533D01*
X865Y1533D02*
X873Y1533D01*
X898Y1533D02*
X905Y1533D01*
X926Y1533D02*
X963Y1533D01*
X1011Y1533D02*
X1019Y1533D01*
X1058Y1533D02*
X1068Y1533D01*
X439Y1532D02*
X447Y1532D01*
X471Y1532D02*
X479Y1532D01*
X530Y1532D02*
X538Y1532D01*
X572Y1532D02*
X601Y1532D01*
X625Y1532D02*
X634Y1532D01*
X649Y1532D02*
X657Y1532D01*
X682Y1532D02*
X723Y1532D01*
X743Y1532D02*
X751Y1532D01*
X776Y1532D02*
X784Y1532D01*
X837Y1532D02*
X844Y1532D01*
X865Y1532D02*
X873Y1532D01*
X898Y1532D02*
X905Y1532D01*
X926Y1532D02*
X964Y1532D01*
X1011Y1532D02*
X1019Y1532D01*
X1057Y1532D02*
X1067Y1532D01*
X438Y1531D02*
X446Y1531D01*
X471Y1531D02*
X479Y1531D01*
X529Y1531D02*
X538Y1531D01*
X593Y1531D02*
X601Y1531D01*
X626Y1531D02*
X634Y1531D01*
X648Y1531D02*
X657Y1531D01*
X682Y1531D02*
X723Y1531D01*
X743Y1531D02*
X751Y1531D01*
X776Y1531D02*
X784Y1531D01*
X837Y1531D02*
X844Y1531D01*
X865Y1531D02*
X873Y1531D01*
X898Y1531D02*
X905Y1531D01*
X926Y1531D02*
X964Y1531D01*
X1011Y1531D02*
X1019Y1531D01*
X1056Y1531D02*
X1066Y1531D01*
X438Y1530D02*
X446Y1530D01*
X471Y1530D02*
X479Y1530D01*
X529Y1530D02*
X537Y1530D01*
X593Y1530D02*
X601Y1530D01*
X626Y1530D02*
X634Y1530D01*
X648Y1530D02*
X656Y1530D01*
X682Y1530D02*
X723Y1530D01*
X743Y1530D02*
X751Y1530D01*
X776Y1530D02*
X784Y1530D01*
X837Y1530D02*
X844Y1530D01*
X865Y1530D02*
X873Y1530D01*
X898Y1530D02*
X905Y1530D01*
X926Y1530D02*
X965Y1530D01*
X1011Y1530D02*
X1019Y1530D01*
X1055Y1530D02*
X1065Y1530D01*
X438Y1529D02*
X446Y1529D01*
X471Y1529D02*
X479Y1529D01*
X528Y1529D02*
X537Y1529D01*
X593Y1529D02*
X601Y1529D01*
X627Y1529D02*
X635Y1529D01*
X647Y1529D02*
X656Y1529D01*
X682Y1529D02*
X723Y1529D01*
X743Y1529D02*
X751Y1529D01*
X776Y1529D02*
X784Y1529D01*
X837Y1529D02*
X844Y1529D01*
X865Y1529D02*
X873Y1529D01*
X898Y1529D02*
X905Y1529D01*
X926Y1529D02*
X965Y1529D01*
X1011Y1529D02*
X1019Y1529D01*
X1055Y1529D02*
X1065Y1529D01*
X438Y1528D02*
X445Y1528D01*
X471Y1528D02*
X479Y1528D01*
X528Y1528D02*
X536Y1528D01*
X593Y1528D02*
X601Y1528D01*
X627Y1528D02*
X635Y1528D01*
X647Y1528D02*
X655Y1528D01*
X682Y1528D02*
X723Y1528D01*
X743Y1528D02*
X751Y1528D01*
X776Y1528D02*
X784Y1528D01*
X837Y1528D02*
X844Y1528D01*
X865Y1528D02*
X873Y1528D01*
X898Y1528D02*
X905Y1528D01*
X926Y1528D02*
X936Y1528D01*
X956Y1528D02*
X966Y1528D01*
X1011Y1528D02*
X1019Y1528D01*
X1054Y1528D02*
X1064Y1528D01*
X438Y1527D02*
X445Y1527D01*
X471Y1527D02*
X479Y1527D01*
X527Y1527D02*
X536Y1527D01*
X593Y1527D02*
X601Y1527D01*
X627Y1527D02*
X636Y1527D01*
X647Y1527D02*
X655Y1527D01*
X682Y1527D02*
X723Y1527D01*
X743Y1527D02*
X751Y1527D01*
X776Y1527D02*
X784Y1527D01*
X837Y1527D02*
X844Y1527D01*
X865Y1527D02*
X873Y1527D01*
X898Y1527D02*
X905Y1527D01*
X926Y1527D02*
X935Y1527D01*
X958Y1527D02*
X966Y1527D01*
X1011Y1527D02*
X1019Y1527D01*
X1053Y1527D02*
X1063Y1527D01*
X438Y1526D02*
X445Y1526D01*
X471Y1526D02*
X479Y1526D01*
X527Y1526D02*
X535Y1526D01*
X593Y1526D02*
X601Y1526D01*
X628Y1526D02*
X636Y1526D01*
X646Y1526D02*
X654Y1526D01*
X683Y1526D02*
X723Y1526D01*
X743Y1526D02*
X751Y1526D01*
X776Y1526D02*
X784Y1526D01*
X837Y1526D02*
X844Y1526D01*
X865Y1526D02*
X872Y1526D01*
X898Y1526D02*
X905Y1526D01*
X926Y1526D02*
X934Y1526D01*
X958Y1526D02*
X966Y1526D01*
X1011Y1526D02*
X1019Y1526D01*
X1052Y1526D02*
X1062Y1526D01*
X438Y1525D02*
X445Y1525D01*
X471Y1525D02*
X479Y1525D01*
X526Y1525D02*
X535Y1525D01*
X593Y1525D02*
X601Y1525D01*
X628Y1525D02*
X637Y1525D01*
X646Y1525D02*
X654Y1525D01*
X685Y1525D02*
X723Y1525D01*
X743Y1525D02*
X751Y1525D01*
X776Y1525D02*
X784Y1525D01*
X837Y1525D02*
X844Y1525D01*
X865Y1525D02*
X872Y1525D01*
X898Y1525D02*
X905Y1525D01*
X926Y1525D02*
X934Y1525D01*
X959Y1525D02*
X966Y1525D01*
X1011Y1525D02*
X1019Y1525D01*
X1052Y1525D02*
X1061Y1525D01*
X438Y1524D02*
X445Y1524D01*
X471Y1524D02*
X479Y1524D01*
X526Y1524D02*
X534Y1524D01*
X593Y1524D02*
X601Y1524D01*
X629Y1524D02*
X637Y1524D01*
X645Y1524D02*
X654Y1524D01*
X715Y1524D02*
X723Y1524D01*
X743Y1524D02*
X750Y1524D01*
X776Y1524D02*
X784Y1524D01*
X837Y1524D02*
X844Y1524D01*
X865Y1524D02*
X872Y1524D01*
X898Y1524D02*
X905Y1524D01*
X926Y1524D02*
X933Y1524D01*
X959Y1524D02*
X966Y1524D01*
X1011Y1524D02*
X1019Y1524D01*
X1051Y1524D02*
X1061Y1524D01*
X438Y1523D02*
X445Y1523D01*
X471Y1523D02*
X479Y1523D01*
X525Y1523D02*
X534Y1523D01*
X593Y1523D02*
X601Y1523D01*
X629Y1523D02*
X637Y1523D01*
X645Y1523D02*
X653Y1523D01*
X715Y1523D02*
X723Y1523D01*
X743Y1523D02*
X750Y1523D01*
X776Y1523D02*
X784Y1523D01*
X836Y1523D02*
X844Y1523D01*
X865Y1523D02*
X872Y1523D01*
X898Y1523D02*
X905Y1523D01*
X926Y1523D02*
X933Y1523D01*
X959Y1523D02*
X966Y1523D01*
X1011Y1523D02*
X1019Y1523D01*
X1050Y1523D02*
X1060Y1523D01*
X438Y1522D02*
X446Y1522D01*
X471Y1522D02*
X479Y1522D01*
X525Y1522D02*
X533Y1522D01*
X593Y1522D02*
X601Y1522D01*
X630Y1522D02*
X638Y1522D01*
X644Y1522D02*
X653Y1522D01*
X715Y1522D02*
X723Y1522D01*
X743Y1522D02*
X750Y1522D01*
X776Y1522D02*
X784Y1522D01*
X835Y1522D02*
X844Y1522D01*
X865Y1522D02*
X872Y1522D01*
X898Y1522D02*
X905Y1522D01*
X926Y1522D02*
X933Y1522D01*
X959Y1522D02*
X966Y1522D01*
X989Y1522D02*
X992Y1522D01*
X1011Y1522D02*
X1019Y1522D01*
X1049Y1522D02*
X1059Y1522D01*
X1083Y1522D02*
X1086Y1522D01*
X438Y1521D02*
X446Y1521D01*
X471Y1521D02*
X479Y1521D01*
X524Y1521D02*
X533Y1521D01*
X593Y1521D02*
X601Y1521D01*
X630Y1521D02*
X638Y1521D01*
X644Y1521D02*
X652Y1521D01*
X715Y1521D02*
X722Y1521D01*
X743Y1521D02*
X750Y1521D01*
X776Y1521D02*
X784Y1521D01*
X834Y1521D02*
X844Y1521D01*
X865Y1521D02*
X872Y1521D01*
X898Y1521D02*
X905Y1521D01*
X926Y1521D02*
X933Y1521D01*
X959Y1521D02*
X966Y1521D01*
X987Y1521D02*
X993Y1521D01*
X1011Y1521D02*
X1019Y1521D01*
X1049Y1521D02*
X1058Y1521D01*
X1082Y1521D02*
X1087Y1521D01*
X438Y1520D02*
X446Y1520D01*
X471Y1520D02*
X479Y1520D01*
X524Y1520D02*
X532Y1520D01*
X593Y1520D02*
X601Y1520D01*
X630Y1520D02*
X639Y1520D01*
X644Y1520D02*
X652Y1520D01*
X714Y1520D02*
X722Y1520D01*
X743Y1520D02*
X750Y1520D01*
X776Y1520D02*
X784Y1520D01*
X833Y1520D02*
X843Y1520D01*
X865Y1520D02*
X872Y1520D01*
X898Y1520D02*
X905Y1520D01*
X926Y1520D02*
X935Y1520D01*
X959Y1520D02*
X966Y1520D01*
X987Y1520D02*
X993Y1520D01*
X1011Y1520D02*
X1019Y1520D01*
X1048Y1520D02*
X1058Y1520D01*
X1081Y1520D02*
X1088Y1520D01*
X439Y1519D02*
X447Y1519D01*
X471Y1519D02*
X479Y1519D01*
X523Y1519D02*
X532Y1519D01*
X593Y1519D02*
X601Y1519D01*
X631Y1519D02*
X639Y1519D01*
X643Y1519D02*
X651Y1519D01*
X714Y1519D02*
X722Y1519D01*
X743Y1519D02*
X750Y1519D01*
X776Y1519D02*
X784Y1519D01*
X831Y1519D02*
X843Y1519D01*
X865Y1519D02*
X872Y1519D01*
X898Y1519D02*
X905Y1519D01*
X926Y1519D02*
X936Y1519D01*
X959Y1519D02*
X966Y1519D01*
X986Y1519D02*
X994Y1519D01*
X1011Y1519D02*
X1019Y1519D01*
X1048Y1519D02*
X1057Y1519D01*
X1081Y1519D02*
X1088Y1519D01*
X439Y1518D02*
X448Y1518D01*
X471Y1518D02*
X479Y1518D01*
X523Y1518D02*
X531Y1518D01*
X593Y1518D02*
X601Y1518D01*
X631Y1518D02*
X640Y1518D01*
X643Y1518D02*
X651Y1518D01*
X713Y1518D02*
X722Y1518D01*
X743Y1518D02*
X750Y1518D01*
X776Y1518D02*
X784Y1518D01*
X830Y1518D02*
X842Y1518D01*
X865Y1518D02*
X872Y1518D01*
X898Y1518D02*
X905Y1518D01*
X926Y1518D02*
X938Y1518D01*
X959Y1518D02*
X966Y1518D01*
X986Y1518D02*
X994Y1518D01*
X1011Y1518D02*
X1019Y1518D01*
X1048Y1518D02*
X1056Y1518D01*
X1081Y1518D02*
X1088Y1518D01*
X439Y1517D02*
X449Y1517D01*
X471Y1517D02*
X479Y1517D01*
X522Y1517D02*
X531Y1517D01*
X593Y1517D02*
X601Y1517D01*
X632Y1517D02*
X640Y1517D01*
X642Y1517D02*
X650Y1517D01*
X711Y1517D02*
X722Y1517D01*
X743Y1517D02*
X750Y1517D01*
X776Y1517D02*
X784Y1517D01*
X829Y1517D02*
X841Y1517D01*
X865Y1517D02*
X872Y1517D01*
X898Y1517D02*
X905Y1517D01*
X926Y1517D02*
X940Y1517D01*
X958Y1517D02*
X966Y1517D01*
X987Y1517D02*
X995Y1517D01*
X1011Y1517D02*
X1019Y1517D01*
X1047Y1517D02*
X1055Y1517D01*
X1080Y1517D02*
X1088Y1517D01*
X440Y1516D02*
X451Y1516D01*
X471Y1516D02*
X479Y1516D01*
X521Y1516D02*
X530Y1516D01*
X593Y1516D02*
X601Y1516D01*
X632Y1516D02*
X650Y1516D01*
X710Y1516D02*
X721Y1516D01*
X743Y1516D02*
X750Y1516D01*
X776Y1516D02*
X784Y1516D01*
X828Y1516D02*
X840Y1516D01*
X865Y1516D02*
X872Y1516D01*
X898Y1516D02*
X905Y1516D01*
X926Y1516D02*
X941Y1516D01*
X957Y1516D02*
X966Y1516D01*
X987Y1516D02*
X996Y1516D01*
X1009Y1516D02*
X1018Y1516D01*
X1047Y1516D02*
X1055Y1516D01*
X1080Y1516D02*
X1088Y1516D01*
X440Y1515D02*
X479Y1515D01*
X501Y1515D02*
X530Y1515D01*
X593Y1515D02*
X601Y1515D01*
X633Y1515D02*
X650Y1515D01*
X684Y1515D02*
X720Y1515D01*
X743Y1515D02*
X750Y1515D01*
X776Y1515D02*
X784Y1515D01*
X806Y1515D02*
X839Y1515D01*
X865Y1515D02*
X872Y1515D01*
X898Y1515D02*
X905Y1515D01*
X926Y1515D02*
X966Y1515D01*
X987Y1515D02*
X1018Y1515D01*
X1048Y1515D02*
X1088Y1515D01*
X441Y1514D02*
X479Y1514D01*
X500Y1514D02*
X529Y1514D01*
X593Y1514D02*
X601Y1514D01*
X633Y1514D02*
X649Y1514D01*
X683Y1514D02*
X720Y1514D01*
X743Y1514D02*
X750Y1514D01*
X776Y1514D02*
X784Y1514D01*
X805Y1514D02*
X838Y1514D01*
X865Y1514D02*
X872Y1514D01*
X898Y1514D02*
X905Y1514D01*
X925Y1514D02*
X965Y1514D01*
X988Y1514D02*
X1018Y1514D01*
X1048Y1514D02*
X1087Y1514D01*
X442Y1513D02*
X479Y1513D01*
X499Y1513D02*
X528Y1513D01*
X593Y1513D02*
X601Y1513D01*
X634Y1513D02*
X649Y1513D01*
X682Y1513D02*
X719Y1513D01*
X743Y1513D02*
X750Y1513D01*
X776Y1513D02*
X784Y1513D01*
X804Y1513D02*
X836Y1513D01*
X865Y1513D02*
X872Y1513D01*
X898Y1513D02*
X905Y1513D01*
X925Y1513D02*
X965Y1513D01*
X988Y1513D02*
X1017Y1513D01*
X1048Y1513D02*
X1087Y1513D01*
X443Y1512D02*
X479Y1512D01*
X499Y1512D02*
X528Y1512D01*
X593Y1512D02*
X601Y1512D01*
X634Y1512D02*
X648Y1512D01*
X682Y1512D02*
X718Y1512D01*
X743Y1512D02*
X750Y1512D01*
X776Y1512D02*
X784Y1512D01*
X804Y1512D02*
X835Y1512D01*
X865Y1512D02*
X872Y1512D01*
X898Y1512D02*
X905Y1512D01*
X925Y1512D02*
X964Y1512D01*
X989Y1512D02*
X1016Y1512D01*
X1049Y1512D02*
X1086Y1512D01*
X444Y1511D02*
X479Y1511D01*
X499Y1511D02*
X527Y1511D01*
X593Y1511D02*
X601Y1511D01*
X634Y1511D02*
X648Y1511D01*
X682Y1511D02*
X716Y1511D01*
X743Y1511D02*
X750Y1511D01*
X776Y1511D02*
X783Y1511D01*
X804Y1511D02*
X834Y1511D01*
X865Y1511D02*
X872Y1511D01*
X898Y1511D02*
X905Y1511D01*
X925Y1511D02*
X963Y1511D01*
X990Y1511D02*
X1016Y1511D01*
X1049Y1511D02*
X1086Y1511D01*
X445Y1510D02*
X479Y1510D01*
X499Y1510D02*
X526Y1510D01*
X593Y1510D02*
X600Y1510D01*
X635Y1510D02*
X647Y1510D01*
X682Y1510D02*
X715Y1510D01*
X743Y1510D02*
X750Y1510D01*
X776Y1510D02*
X783Y1510D01*
X804Y1510D02*
X833Y1510D01*
X865Y1510D02*
X872Y1510D01*
X898Y1510D02*
X905Y1510D01*
X926Y1510D02*
X933Y1510D01*
X936Y1510D02*
X962Y1510D01*
X991Y1510D02*
X1015Y1510D01*
X1050Y1510D02*
X1085Y1510D01*
X447Y1509D02*
X479Y1509D01*
X499Y1509D02*
X525Y1509D01*
X594Y1509D02*
X600Y1509D01*
X635Y1509D02*
X647Y1509D01*
X682Y1509D02*
X714Y1509D01*
X743Y1509D02*
X749Y1509D01*
X777Y1509D02*
X783Y1509D01*
X804Y1509D02*
X832Y1509D01*
X865Y1509D02*
X871Y1509D01*
X899Y1509D02*
X905Y1509D01*
X926Y1509D02*
X932Y1509D01*
X938Y1509D02*
X961Y1509D01*
X992Y1509D02*
X1013Y1509D01*
X1051Y1509D02*
X1083Y1509D01*
X449Y1508D02*
X479Y1508D01*
X500Y1508D02*
X523Y1508D01*
X595Y1508D02*
X599Y1508D01*
X636Y1508D02*
X646Y1508D01*
X683Y1508D02*
X712Y1508D01*
X744Y1508D02*
X749Y1508D01*
X778Y1508D02*
X782Y1508D01*
X805Y1508D02*
X830Y1508D01*
X866Y1508D02*
X870Y1508D01*
X899Y1508D02*
X904Y1508D01*
X927Y1508D02*
X931Y1508D01*
X939Y1508D02*
X959Y1508D01*
X994Y1508D02*
X1012Y1508D01*
X1052Y1508D02*
X1082Y1508D01*
X454Y1507D02*
X478Y1507D01*
X502Y1507D02*
X519Y1507D01*
X597Y1507D02*
X597Y1507D01*
X638Y1507D02*
X644Y1507D01*
X685Y1507D02*
X709Y1507D01*
X746Y1507D02*
X746Y1507D01*
X780Y1507D02*
X780Y1507D01*
X807Y1507D02*
X826Y1507D01*
X868Y1507D02*
X868Y1507D01*
X902Y1507D02*
X902Y1507D01*
X929Y1507D02*
X929Y1507D01*
X941Y1507D02*
X955Y1507D01*
X998Y1507D02*
X1008Y1507D01*
X1056Y1507D02*
X1078Y1507D01*
X714Y1434D02*
X741Y1434D01*
X714Y1433D02*
X741Y1433D01*
X714Y1432D02*
X741Y1432D01*
X713Y1431D02*
X741Y1431D01*
X713Y1430D02*
X741Y1430D01*
X713Y1429D02*
X741Y1429D01*
X713Y1428D02*
X742Y1428D01*
X713Y1427D02*
X742Y1427D01*
X712Y1426D02*
X742Y1426D01*
X712Y1425D02*
X742Y1425D01*
X712Y1424D02*
X742Y1424D01*
X712Y1423D02*
X743Y1423D01*
X712Y1422D02*
X743Y1422D01*
X712Y1421D02*
X743Y1421D01*
X711Y1420D02*
X743Y1420D01*
X711Y1419D02*
X743Y1419D01*
X711Y1418D02*
X744Y1418D01*
X711Y1417D02*
X744Y1417D01*
X711Y1416D02*
X744Y1416D01*
X710Y1415D02*
X744Y1415D01*
X710Y1414D02*
X744Y1414D01*
X710Y1413D02*
X744Y1413D01*
X710Y1412D02*
X745Y1412D01*
X710Y1411D02*
X745Y1411D01*
X709Y1410D02*
X745Y1410D01*
X709Y1409D02*
X745Y1409D01*
X709Y1408D02*
X745Y1408D01*
X709Y1407D02*
X746Y1407D01*
X709Y1406D02*
X746Y1406D01*
X709Y1405D02*
X746Y1405D01*
X708Y1404D02*
X746Y1404D01*
X708Y1403D02*
X746Y1403D01*
X817Y1403D02*
X817Y1403D01*
X636Y1402D02*
X639Y1402D01*
X708Y1402D02*
X746Y1402D01*
X816Y1402D02*
X818Y1402D01*
X635Y1401D02*
X640Y1401D01*
X708Y1401D02*
X747Y1401D01*
X814Y1401D02*
X819Y1401D01*
X634Y1400D02*
X642Y1400D01*
X708Y1400D02*
X747Y1400D01*
X813Y1400D02*
X820Y1400D01*
X633Y1399D02*
X643Y1399D01*
X707Y1399D02*
X747Y1399D01*
X811Y1399D02*
X821Y1399D01*
X632Y1398D02*
X645Y1398D01*
X707Y1398D02*
X747Y1398D01*
X810Y1398D02*
X822Y1398D01*
X631Y1397D02*
X646Y1397D01*
X707Y1397D02*
X747Y1397D01*
X808Y1397D02*
X823Y1397D01*
X630Y1396D02*
X648Y1396D01*
X707Y1396D02*
X748Y1396D01*
X807Y1396D02*
X824Y1396D01*
X629Y1395D02*
X649Y1395D01*
X705Y1395D02*
X749Y1395D01*
X805Y1395D02*
X825Y1395D01*
X628Y1394D02*
X651Y1394D01*
X701Y1394D02*
X753Y1394D01*
X804Y1394D02*
X826Y1394D01*
X627Y1393D02*
X652Y1393D01*
X698Y1393D02*
X757Y1393D01*
X802Y1393D02*
X827Y1393D01*
X626Y1392D02*
X653Y1392D01*
X695Y1392D02*
X760Y1392D01*
X801Y1392D02*
X828Y1392D01*
X625Y1391D02*
X655Y1391D01*
X692Y1391D02*
X763Y1391D01*
X800Y1391D02*
X829Y1391D01*
X624Y1390D02*
X656Y1390D01*
X689Y1390D02*
X765Y1390D01*
X798Y1390D02*
X830Y1390D01*
X623Y1389D02*
X658Y1389D01*
X687Y1389D02*
X768Y1389D01*
X797Y1389D02*
X831Y1389D01*
X622Y1388D02*
X659Y1388D01*
X685Y1388D02*
X770Y1388D01*
X795Y1388D02*
X832Y1388D01*
X621Y1387D02*
X661Y1387D01*
X682Y1387D02*
X772Y1387D01*
X794Y1387D02*
X833Y1387D01*
X620Y1386D02*
X662Y1386D01*
X680Y1386D02*
X774Y1386D01*
X792Y1386D02*
X834Y1386D01*
X619Y1385D02*
X664Y1385D01*
X678Y1385D02*
X776Y1385D01*
X791Y1385D02*
X835Y1385D01*
X619Y1384D02*
X665Y1384D01*
X677Y1384D02*
X778Y1384D01*
X789Y1384D02*
X836Y1384D01*
X619Y1383D02*
X667Y1383D01*
X675Y1383D02*
X780Y1383D01*
X788Y1383D02*
X835Y1383D01*
X620Y1382D02*
X668Y1382D01*
X673Y1382D02*
X781Y1382D01*
X786Y1382D02*
X834Y1382D01*
X621Y1381D02*
X783Y1381D01*
X785Y1381D02*
X834Y1381D01*
X621Y1380D02*
X833Y1380D01*
X622Y1379D02*
X832Y1379D01*
X623Y1378D02*
X832Y1378D01*
X624Y1377D02*
X831Y1377D01*
X624Y1376D02*
X830Y1376D01*
X625Y1375D02*
X830Y1375D01*
X626Y1374D02*
X829Y1374D01*
X626Y1373D02*
X828Y1373D01*
X627Y1372D02*
X828Y1372D01*
X628Y1371D02*
X827Y1371D01*
X628Y1370D02*
X826Y1370D01*
X629Y1369D02*
X825Y1369D01*
X630Y1368D02*
X825Y1368D01*
X630Y1367D02*
X824Y1367D01*
X631Y1366D02*
X823Y1366D01*
X632Y1365D02*
X823Y1365D01*
X632Y1364D02*
X822Y1364D01*
X633Y1363D02*
X821Y1363D01*
X634Y1362D02*
X821Y1362D01*
X635Y1361D02*
X820Y1361D01*
X635Y1360D02*
X819Y1360D01*
X636Y1359D02*
X819Y1359D01*
X637Y1358D02*
X818Y1358D01*
X637Y1357D02*
X817Y1357D01*
X638Y1356D02*
X817Y1356D01*
X639Y1355D02*
X816Y1355D01*
X639Y1354D02*
X815Y1354D01*
X640Y1353D02*
X814Y1353D01*
X641Y1352D02*
X814Y1352D01*
X641Y1351D02*
X814Y1351D01*
X640Y1350D02*
X814Y1350D01*
X640Y1349D02*
X815Y1349D01*
X639Y1348D02*
X816Y1348D01*
X638Y1347D02*
X816Y1347D01*
X638Y1346D02*
X817Y1346D01*
X637Y1345D02*
X817Y1345D01*
X636Y1344D02*
X723Y1344D01*
X731Y1344D02*
X818Y1344D01*
X636Y1343D02*
X716Y1343D01*
X738Y1343D02*
X819Y1343D01*
X635Y1342D02*
X712Y1342D01*
X742Y1342D02*
X819Y1342D01*
X635Y1341D02*
X709Y1341D01*
X745Y1341D02*
X820Y1341D01*
X634Y1340D02*
X707Y1340D01*
X748Y1340D02*
X820Y1340D01*
X634Y1339D02*
X705Y1339D01*
X750Y1339D02*
X821Y1339D01*
X633Y1338D02*
X703Y1338D01*
X752Y1338D02*
X821Y1338D01*
X633Y1337D02*
X701Y1337D01*
X753Y1337D02*
X822Y1337D01*
X632Y1336D02*
X699Y1336D01*
X755Y1336D02*
X822Y1336D01*
X632Y1335D02*
X698Y1335D01*
X757Y1335D02*
X823Y1335D01*
X631Y1334D02*
X697Y1334D01*
X758Y1334D02*
X823Y1334D01*
X631Y1333D02*
X695Y1333D01*
X759Y1333D02*
X823Y1333D01*
X631Y1332D02*
X694Y1332D01*
X760Y1332D02*
X824Y1332D01*
X630Y1331D02*
X693Y1331D01*
X762Y1331D02*
X824Y1331D01*
X630Y1330D02*
X692Y1330D01*
X763Y1330D02*
X825Y1330D01*
X630Y1329D02*
X691Y1329D01*
X764Y1329D02*
X825Y1329D01*
X629Y1328D02*
X690Y1328D01*
X765Y1328D02*
X825Y1328D01*
X629Y1327D02*
X689Y1327D01*
X765Y1327D02*
X826Y1327D01*
X628Y1326D02*
X688Y1326D01*
X766Y1326D02*
X826Y1326D01*
X628Y1325D02*
X687Y1325D01*
X767Y1325D02*
X826Y1325D01*
X628Y1324D02*
X687Y1324D01*
X768Y1324D02*
X827Y1324D01*
X627Y1323D02*
X686Y1323D01*
X769Y1323D02*
X827Y1323D01*
X627Y1322D02*
X685Y1322D01*
X769Y1322D02*
X827Y1322D01*
X627Y1321D02*
X685Y1321D01*
X770Y1321D02*
X828Y1321D01*
X627Y1320D02*
X684Y1320D01*
X771Y1320D02*
X828Y1320D01*
X626Y1319D02*
X683Y1319D01*
X771Y1319D02*
X828Y1319D01*
X626Y1318D02*
X683Y1318D01*
X772Y1318D02*
X828Y1318D01*
X626Y1317D02*
X682Y1317D01*
X772Y1317D02*
X829Y1317D01*
X626Y1316D02*
X682Y1316D01*
X773Y1316D02*
X829Y1316D01*
X625Y1315D02*
X681Y1315D01*
X773Y1315D02*
X829Y1315D01*
X620Y1314D02*
X681Y1314D01*
X774Y1314D02*
X835Y1314D01*
X615Y1313D02*
X680Y1313D01*
X774Y1313D02*
X840Y1313D01*
X609Y1312D02*
X680Y1312D01*
X774Y1312D02*
X845Y1312D01*
X604Y1311D02*
X680Y1311D01*
X775Y1311D02*
X851Y1311D01*
X598Y1310D02*
X679Y1310D01*
X775Y1310D02*
X856Y1310D01*
X593Y1309D02*
X679Y1309D01*
X776Y1309D02*
X861Y1309D01*
X588Y1308D02*
X679Y1308D01*
X776Y1308D02*
X867Y1308D01*
X587Y1307D02*
X678Y1307D01*
X776Y1307D02*
X867Y1307D01*
X587Y1306D02*
X678Y1306D01*
X776Y1306D02*
X867Y1306D01*
X587Y1305D02*
X678Y1305D01*
X777Y1305D02*
X867Y1305D01*
X587Y1304D02*
X678Y1304D01*
X777Y1304D02*
X867Y1304D01*
X587Y1303D02*
X677Y1303D01*
X777Y1303D02*
X867Y1303D01*
X587Y1302D02*
X677Y1302D01*
X777Y1302D02*
X867Y1302D01*
X587Y1301D02*
X677Y1301D01*
X777Y1301D02*
X867Y1301D01*
X587Y1300D02*
X677Y1300D01*
X777Y1300D02*
X867Y1300D01*
X587Y1299D02*
X677Y1299D01*
X778Y1299D02*
X867Y1299D01*
X587Y1298D02*
X677Y1298D01*
X778Y1298D02*
X867Y1298D01*
X587Y1297D02*
X677Y1297D01*
X778Y1297D02*
X867Y1297D01*
X587Y1296D02*
X677Y1296D01*
X778Y1296D02*
X867Y1296D01*
X587Y1295D02*
X677Y1295D01*
X778Y1295D02*
X867Y1295D01*
X587Y1294D02*
X677Y1294D01*
X778Y1294D02*
X867Y1294D01*
X587Y1293D02*
X677Y1293D01*
X778Y1293D02*
X867Y1293D01*
X587Y1292D02*
X677Y1292D01*
X778Y1292D02*
X867Y1292D01*
X587Y1291D02*
X677Y1291D01*
X778Y1291D02*
X867Y1291D01*
X587Y1290D02*
X677Y1290D01*
X778Y1290D02*
X867Y1290D01*
X587Y1289D02*
X677Y1289D01*
X778Y1289D02*
X867Y1289D01*
X587Y1288D02*
X677Y1288D01*
X777Y1288D02*
X867Y1288D01*
X587Y1287D02*
X677Y1287D01*
X777Y1287D02*
X867Y1287D01*
X587Y1286D02*
X677Y1286D01*
X777Y1286D02*
X867Y1286D01*
X587Y1285D02*
X678Y1285D01*
X777Y1285D02*
X867Y1285D01*
X587Y1284D02*
X678Y1284D01*
X777Y1284D02*
X867Y1284D01*
X587Y1283D02*
X678Y1283D01*
X777Y1283D02*
X867Y1283D01*
X587Y1282D02*
X678Y1282D01*
X776Y1282D02*
X867Y1282D01*
X587Y1281D02*
X678Y1281D01*
X776Y1281D02*
X867Y1281D01*
X591Y1280D02*
X679Y1280D01*
X776Y1280D02*
X864Y1280D01*
X596Y1279D02*
X679Y1279D01*
X775Y1279D02*
X859Y1279D01*
X601Y1278D02*
X679Y1278D01*
X775Y1278D02*
X853Y1278D01*
X607Y1277D02*
X680Y1277D01*
X775Y1277D02*
X848Y1277D01*
X612Y1276D02*
X680Y1276D01*
X774Y1276D02*
X842Y1276D01*
X617Y1275D02*
X680Y1275D01*
X774Y1275D02*
X837Y1275D01*
X623Y1274D02*
X681Y1274D01*
X774Y1274D02*
X832Y1274D01*
X625Y1273D02*
X681Y1273D01*
X773Y1273D02*
X830Y1273D01*
X625Y1272D02*
X682Y1272D01*
X773Y1272D02*
X829Y1272D01*
X625Y1271D02*
X682Y1271D01*
X772Y1271D02*
X829Y1271D01*
X625Y1270D02*
X683Y1270D01*
X772Y1270D02*
X829Y1270D01*
X626Y1269D02*
X683Y1269D01*
X771Y1269D02*
X829Y1269D01*
X626Y1268D02*
X684Y1268D01*
X770Y1268D02*
X829Y1268D01*
X626Y1267D02*
X685Y1267D01*
X770Y1267D02*
X828Y1267D01*
X626Y1266D02*
X685Y1266D01*
X769Y1266D02*
X828Y1266D01*
X627Y1265D02*
X686Y1265D01*
X769Y1265D02*
X828Y1265D01*
X627Y1264D02*
X687Y1264D01*
X768Y1264D02*
X828Y1264D01*
X627Y1263D02*
X687Y1263D01*
X767Y1263D02*
X827Y1263D01*
X628Y1262D02*
X688Y1262D01*
X766Y1262D02*
X827Y1262D01*
X628Y1261D02*
X689Y1261D01*
X765Y1261D02*
X827Y1261D01*
X628Y1260D02*
X690Y1260D01*
X764Y1260D02*
X826Y1260D01*
X628Y1259D02*
X691Y1259D01*
X764Y1259D02*
X826Y1259D01*
X629Y1258D02*
X692Y1258D01*
X762Y1258D02*
X826Y1258D01*
X629Y1257D02*
X693Y1257D01*
X761Y1257D02*
X825Y1257D01*
X630Y1256D02*
X694Y1256D01*
X760Y1256D02*
X825Y1256D01*
X630Y1255D02*
X695Y1255D01*
X759Y1255D02*
X825Y1255D01*
X630Y1254D02*
X697Y1254D01*
X758Y1254D02*
X824Y1254D01*
X631Y1253D02*
X698Y1253D01*
X756Y1253D02*
X824Y1253D01*
X631Y1252D02*
X700Y1252D01*
X755Y1252D02*
X823Y1252D01*
X632Y1251D02*
X700Y1251D01*
X754Y1251D02*
X823Y1251D01*
X632Y1250D02*
X700Y1250D01*
X754Y1250D02*
X822Y1250D01*
X632Y1249D02*
X700Y1249D01*
X755Y1249D02*
X822Y1249D01*
X633Y1248D02*
X699Y1248D01*
X755Y1248D02*
X822Y1248D01*
X633Y1247D02*
X699Y1247D01*
X756Y1247D02*
X821Y1247D01*
X634Y1246D02*
X698Y1246D01*
X756Y1246D02*
X821Y1246D01*
X634Y1245D02*
X698Y1245D01*
X756Y1245D02*
X820Y1245D01*
X635Y1244D02*
X698Y1244D01*
X757Y1244D02*
X820Y1244D01*
X635Y1243D02*
X697Y1243D01*
X757Y1243D02*
X819Y1243D01*
X636Y1242D02*
X697Y1242D01*
X758Y1242D02*
X818Y1242D01*
X637Y1241D02*
X696Y1241D01*
X758Y1241D02*
X818Y1241D01*
X637Y1240D02*
X696Y1240D01*
X758Y1240D02*
X817Y1240D01*
X638Y1239D02*
X696Y1239D01*
X759Y1239D02*
X817Y1239D01*
X638Y1238D02*
X695Y1238D01*
X759Y1238D02*
X816Y1238D01*
X639Y1237D02*
X695Y1237D01*
X760Y1237D02*
X815Y1237D01*
X640Y1236D02*
X694Y1236D01*
X760Y1236D02*
X815Y1236D01*
X640Y1235D02*
X694Y1235D01*
X761Y1235D02*
X815Y1235D01*
X639Y1234D02*
X694Y1234D01*
X761Y1234D02*
X816Y1234D01*
X638Y1233D02*
X693Y1233D01*
X761Y1233D02*
X816Y1233D01*
X638Y1232D02*
X693Y1232D01*
X762Y1232D02*
X817Y1232D01*
X637Y1231D02*
X692Y1231D01*
X762Y1231D02*
X818Y1231D01*
X636Y1230D02*
X692Y1230D01*
X763Y1230D02*
X818Y1230D01*
X636Y1229D02*
X691Y1229D01*
X763Y1229D02*
X819Y1229D01*
X635Y1228D02*
X691Y1228D01*
X763Y1228D02*
X820Y1228D01*
X634Y1227D02*
X691Y1227D01*
X764Y1227D02*
X820Y1227D01*
X633Y1226D02*
X690Y1226D01*
X764Y1226D02*
X821Y1226D01*
X633Y1225D02*
X690Y1225D01*
X765Y1225D02*
X822Y1225D01*
X632Y1224D02*
X689Y1224D01*
X765Y1224D02*
X822Y1224D01*
X631Y1223D02*
X689Y1223D01*
X766Y1223D02*
X823Y1223D01*
X631Y1222D02*
X689Y1222D01*
X766Y1222D02*
X824Y1222D01*
X630Y1221D02*
X688Y1221D01*
X766Y1221D02*
X824Y1221D01*
X629Y1220D02*
X688Y1220D01*
X767Y1220D02*
X825Y1220D01*
X629Y1219D02*
X687Y1219D01*
X767Y1219D02*
X826Y1219D01*
X628Y1218D02*
X687Y1218D01*
X768Y1218D02*
X827Y1218D01*
X627Y1217D02*
X686Y1217D01*
X768Y1217D02*
X827Y1217D01*
X627Y1216D02*
X686Y1216D01*
X768Y1216D02*
X828Y1216D01*
X626Y1215D02*
X686Y1215D01*
X769Y1215D02*
X829Y1215D01*
X625Y1214D02*
X685Y1214D01*
X769Y1214D02*
X829Y1214D01*
X625Y1213D02*
X685Y1213D01*
X770Y1213D02*
X830Y1213D01*
X624Y1212D02*
X684Y1212D01*
X770Y1212D02*
X831Y1212D01*
X623Y1211D02*
X684Y1211D01*
X770Y1211D02*
X831Y1211D01*
X622Y1210D02*
X684Y1210D01*
X771Y1210D02*
X832Y1210D01*
X622Y1209D02*
X683Y1209D01*
X771Y1209D02*
X833Y1209D01*
X621Y1208D02*
X683Y1208D01*
X772Y1208D02*
X833Y1208D01*
X620Y1207D02*
X682Y1207D01*
X772Y1207D02*
X834Y1207D01*
X620Y1206D02*
X682Y1206D01*
X773Y1206D02*
X835Y1206D01*
X619Y1205D02*
X666Y1205D01*
X670Y1205D02*
X681Y1205D01*
X773Y1205D02*
X784Y1205D01*
X789Y1205D02*
X835Y1205D01*
X619Y1204D02*
X664Y1204D01*
X672Y1204D02*
X681Y1204D01*
X773Y1204D02*
X783Y1204D01*
X790Y1204D02*
X835Y1204D01*
X620Y1203D02*
X663Y1203D01*
X673Y1203D02*
X681Y1203D01*
X774Y1203D02*
X781Y1203D01*
X792Y1203D02*
X834Y1203D01*
X621Y1202D02*
X661Y1202D01*
X675Y1202D02*
X680Y1202D01*
X774Y1202D02*
X779Y1202D01*
X793Y1202D02*
X833Y1202D01*
X622Y1201D02*
X660Y1201D01*
X677Y1201D02*
X680Y1201D01*
X775Y1201D02*
X778Y1201D01*
X794Y1201D02*
X832Y1201D01*
X623Y1200D02*
X659Y1200D01*
X679Y1200D02*
X679Y1200D01*
X775Y1200D02*
X776Y1200D01*
X796Y1200D02*
X831Y1200D01*
X624Y1199D02*
X657Y1199D01*
X797Y1199D02*
X830Y1199D01*
X625Y1198D02*
X656Y1198D01*
X799Y1198D02*
X829Y1198D01*
X626Y1197D02*
X654Y1197D01*
X800Y1197D02*
X828Y1197D01*
X627Y1196D02*
X653Y1196D01*
X802Y1196D02*
X827Y1196D01*
X628Y1195D02*
X651Y1195D01*
X803Y1195D02*
X826Y1195D01*
X629Y1194D02*
X650Y1194D01*
X805Y1194D02*
X825Y1194D01*
X630Y1193D02*
X648Y1193D01*
X806Y1193D02*
X824Y1193D01*
X631Y1192D02*
X647Y1192D01*
X808Y1192D02*
X823Y1192D01*
X632Y1191D02*
X645Y1191D01*
X809Y1191D02*
X822Y1191D01*
X633Y1190D02*
X644Y1190D01*
X810Y1190D02*
X821Y1190D01*
X634Y1189D02*
X643Y1189D01*
X812Y1189D02*
X820Y1189D01*
X635Y1188D02*
X641Y1188D01*
X813Y1188D02*
X819Y1188D01*
X636Y1187D02*
X640Y1187D01*
X815Y1187D02*
X818Y1187D01*
X637Y1186D02*
X638Y1186D01*
X816Y1186D02*
X817Y1186D01*
X664Y1164D02*
X666Y1164D01*
X765Y1164D02*
X766Y1164D01*
X664Y1163D02*
X668Y1163D01*
X765Y1163D02*
X768Y1163D01*
X664Y1162D02*
X668Y1162D01*
X765Y1162D02*
X769Y1162D01*
X664Y1161D02*
X668Y1161D01*
X765Y1161D02*
X769Y1161D01*
X664Y1160D02*
X668Y1160D01*
X765Y1160D02*
X769Y1160D01*
X664Y1159D02*
X668Y1159D01*
X765Y1159D02*
X769Y1159D01*
X664Y1158D02*
X668Y1158D01*
X765Y1158D02*
X769Y1158D01*
X664Y1157D02*
X668Y1157D01*
X765Y1157D02*
X769Y1157D01*
X664Y1156D02*
X668Y1156D01*
X765Y1156D02*
X769Y1156D01*
X664Y1155D02*
X668Y1155D01*
X765Y1155D02*
X769Y1155D01*
X803Y1155D02*
X810Y1155D01*
X833Y1155D02*
X840Y1155D01*
X862Y1155D02*
X869Y1155D01*
X891Y1155D02*
X898Y1155D01*
X664Y1154D02*
X668Y1154D01*
X765Y1154D02*
X769Y1154D01*
X801Y1154D02*
X812Y1154D01*
X831Y1154D02*
X842Y1154D01*
X860Y1154D02*
X871Y1154D01*
X889Y1154D02*
X900Y1154D01*
X559Y1153D02*
X567Y1153D01*
X587Y1153D02*
X594Y1153D01*
X615Y1153D02*
X622Y1153D01*
X634Y1153D02*
X635Y1153D01*
X645Y1153D02*
X646Y1153D01*
X656Y1153D02*
X657Y1153D01*
X664Y1153D02*
X668Y1153D01*
X671Y1153D02*
X678Y1153D01*
X699Y1153D02*
X706Y1153D01*
X727Y1153D02*
X734Y1153D01*
X755Y1153D02*
X762Y1153D01*
X765Y1153D02*
X769Y1153D01*
X800Y1153D02*
X813Y1153D01*
X829Y1153D02*
X843Y1153D01*
X859Y1153D02*
X872Y1153D01*
X888Y1153D02*
X902Y1153D01*
X557Y1152D02*
X568Y1152D01*
X585Y1152D02*
X596Y1152D01*
X613Y1152D02*
X624Y1152D01*
X634Y1152D02*
X637Y1152D01*
X645Y1152D02*
X648Y1152D01*
X656Y1152D02*
X659Y1152D01*
X664Y1152D02*
X680Y1152D01*
X697Y1152D02*
X708Y1152D01*
X725Y1152D02*
X736Y1152D01*
X753Y1152D02*
X769Y1152D01*
X799Y1152D02*
X815Y1152D01*
X828Y1152D02*
X844Y1152D01*
X857Y1152D02*
X873Y1152D01*
X887Y1152D02*
X903Y1152D01*
X556Y1151D02*
X569Y1151D01*
X584Y1151D02*
X597Y1151D01*
X612Y1151D02*
X625Y1151D01*
X634Y1151D02*
X638Y1151D01*
X645Y1151D02*
X648Y1151D01*
X656Y1151D02*
X659Y1151D01*
X664Y1151D02*
X681Y1151D01*
X696Y1151D02*
X709Y1151D01*
X724Y1151D02*
X737Y1151D01*
X752Y1151D02*
X769Y1151D01*
X798Y1151D02*
X815Y1151D01*
X827Y1151D02*
X845Y1151D01*
X857Y1151D02*
X874Y1151D01*
X886Y1151D02*
X904Y1151D01*
X555Y1150D02*
X570Y1150D01*
X583Y1150D02*
X598Y1150D01*
X611Y1150D02*
X626Y1150D01*
X634Y1150D02*
X638Y1150D01*
X645Y1150D02*
X648Y1150D01*
X656Y1150D02*
X659Y1150D01*
X664Y1150D02*
X682Y1150D01*
X695Y1150D02*
X710Y1150D01*
X723Y1150D02*
X738Y1150D01*
X751Y1150D02*
X769Y1150D01*
X797Y1150D02*
X816Y1150D01*
X827Y1150D02*
X845Y1150D01*
X856Y1150D02*
X875Y1150D01*
X885Y1150D02*
X904Y1150D01*
X554Y1149D02*
X560Y1149D01*
X565Y1149D02*
X571Y1149D01*
X582Y1149D02*
X588Y1149D01*
X593Y1149D02*
X599Y1149D01*
X610Y1149D02*
X616Y1149D01*
X621Y1149D02*
X627Y1149D01*
X634Y1149D02*
X638Y1149D01*
X645Y1149D02*
X648Y1149D01*
X656Y1149D02*
X659Y1149D01*
X664Y1149D02*
X672Y1149D01*
X677Y1149D02*
X683Y1149D01*
X694Y1149D02*
X700Y1149D01*
X705Y1149D02*
X711Y1149D01*
X722Y1149D02*
X728Y1149D01*
X733Y1149D02*
X739Y1149D01*
X750Y1149D02*
X756Y1149D01*
X761Y1149D02*
X769Y1149D01*
X797Y1149D02*
X804Y1149D01*
X809Y1149D02*
X817Y1149D01*
X826Y1149D02*
X834Y1149D01*
X838Y1149D02*
X846Y1149D01*
X855Y1149D02*
X863Y1149D01*
X868Y1149D02*
X875Y1149D01*
X885Y1149D02*
X893Y1149D01*
X897Y1149D02*
X905Y1149D01*
X554Y1148D02*
X558Y1148D01*
X567Y1148D02*
X572Y1148D01*
X582Y1148D02*
X586Y1148D01*
X595Y1148D02*
X600Y1148D01*
X610Y1148D02*
X614Y1148D01*
X623Y1148D02*
X627Y1148D01*
X634Y1148D02*
X638Y1148D01*
X645Y1148D02*
X648Y1148D01*
X656Y1148D02*
X659Y1148D01*
X664Y1148D02*
X670Y1148D01*
X679Y1148D02*
X684Y1148D01*
X694Y1148D02*
X698Y1148D01*
X707Y1148D02*
X712Y1148D01*
X721Y1148D02*
X726Y1148D01*
X735Y1148D02*
X739Y1148D01*
X750Y1148D02*
X754Y1148D01*
X763Y1148D02*
X769Y1148D01*
X796Y1148D02*
X803Y1148D01*
X810Y1148D02*
X817Y1148D01*
X826Y1148D02*
X832Y1148D01*
X840Y1148D02*
X846Y1148D01*
X855Y1148D02*
X862Y1148D01*
X869Y1148D02*
X876Y1148D01*
X885Y1148D02*
X891Y1148D01*
X899Y1148D02*
X905Y1148D01*
X553Y1147D02*
X557Y1147D01*
X568Y1147D02*
X572Y1147D01*
X581Y1147D02*
X585Y1147D01*
X596Y1147D02*
X600Y1147D01*
X609Y1147D02*
X613Y1147D01*
X624Y1147D02*
X628Y1147D01*
X634Y1147D02*
X638Y1147D01*
X645Y1147D02*
X648Y1147D01*
X656Y1147D02*
X659Y1147D01*
X664Y1147D02*
X669Y1147D01*
X680Y1147D02*
X684Y1147D01*
X693Y1147D02*
X697Y1147D01*
X708Y1147D02*
X712Y1147D01*
X721Y1147D02*
X725Y1147D01*
X736Y1147D02*
X740Y1147D01*
X749Y1147D02*
X753Y1147D01*
X764Y1147D02*
X769Y1147D01*
X796Y1147D02*
X802Y1147D01*
X811Y1147D02*
X817Y1147D01*
X825Y1147D02*
X831Y1147D01*
X841Y1147D02*
X847Y1147D01*
X855Y1147D02*
X861Y1147D01*
X870Y1147D02*
X876Y1147D01*
X884Y1147D02*
X890Y1147D01*
X900Y1147D02*
X906Y1147D01*
X553Y1146D02*
X557Y1146D01*
X569Y1146D02*
X572Y1146D01*
X581Y1146D02*
X585Y1146D01*
X597Y1146D02*
X600Y1146D01*
X609Y1146D02*
X613Y1146D01*
X624Y1146D02*
X628Y1146D01*
X634Y1146D02*
X638Y1146D01*
X645Y1146D02*
X648Y1146D01*
X656Y1146D02*
X659Y1146D01*
X664Y1146D02*
X669Y1146D01*
X680Y1146D02*
X684Y1146D01*
X693Y1146D02*
X697Y1146D01*
X708Y1146D02*
X712Y1146D01*
X721Y1146D02*
X725Y1146D01*
X736Y1146D02*
X740Y1146D01*
X749Y1146D02*
X753Y1146D01*
X764Y1146D02*
X769Y1146D01*
X796Y1146D02*
X801Y1146D01*
X812Y1146D02*
X817Y1146D01*
X825Y1146D02*
X831Y1146D01*
X841Y1146D02*
X847Y1146D01*
X855Y1146D02*
X860Y1146D01*
X871Y1146D02*
X876Y1146D01*
X884Y1146D02*
X890Y1146D01*
X900Y1146D02*
X906Y1146D01*
X553Y1145D02*
X556Y1145D01*
X569Y1145D02*
X573Y1145D01*
X581Y1145D02*
X584Y1145D01*
X597Y1145D02*
X601Y1145D01*
X609Y1145D02*
X612Y1145D01*
X625Y1145D02*
X628Y1145D01*
X634Y1145D02*
X638Y1145D01*
X645Y1145D02*
X648Y1145D01*
X656Y1145D02*
X659Y1145D01*
X664Y1145D02*
X668Y1145D01*
X681Y1145D02*
X684Y1145D01*
X693Y1145D02*
X696Y1145D01*
X709Y1145D02*
X712Y1145D01*
X721Y1145D02*
X724Y1145D01*
X737Y1145D02*
X740Y1145D01*
X749Y1145D02*
X752Y1145D01*
X765Y1145D02*
X769Y1145D01*
X796Y1145D02*
X801Y1145D01*
X812Y1145D02*
X818Y1145D01*
X825Y1145D02*
X831Y1145D01*
X842Y1145D02*
X847Y1145D01*
X854Y1145D02*
X860Y1145D01*
X871Y1145D02*
X876Y1145D01*
X884Y1145D02*
X889Y1145D01*
X900Y1145D02*
X906Y1145D01*
X553Y1144D02*
X556Y1144D01*
X569Y1144D02*
X573Y1144D01*
X581Y1144D02*
X584Y1144D01*
X597Y1144D02*
X601Y1144D01*
X609Y1144D02*
X612Y1144D01*
X625Y1144D02*
X629Y1144D01*
X634Y1144D02*
X638Y1144D01*
X645Y1144D02*
X648Y1144D01*
X656Y1144D02*
X659Y1144D01*
X664Y1144D02*
X668Y1144D01*
X681Y1144D02*
X685Y1144D01*
X693Y1144D02*
X696Y1144D01*
X709Y1144D02*
X713Y1144D01*
X720Y1144D02*
X724Y1144D01*
X737Y1144D02*
X741Y1144D01*
X748Y1144D02*
X752Y1144D01*
X765Y1144D02*
X769Y1144D01*
X796Y1144D02*
X801Y1144D01*
X812Y1144D02*
X818Y1144D01*
X825Y1144D02*
X833Y1144D01*
X842Y1144D02*
X847Y1144D01*
X854Y1144D02*
X860Y1144D01*
X871Y1144D02*
X876Y1144D01*
X884Y1144D02*
X889Y1144D01*
X901Y1144D02*
X906Y1144D01*
X553Y1143D02*
X557Y1143D01*
X569Y1143D02*
X573Y1143D01*
X581Y1143D02*
X584Y1143D01*
X597Y1143D02*
X601Y1143D01*
X608Y1143D02*
X612Y1143D01*
X625Y1143D02*
X629Y1143D01*
X634Y1143D02*
X638Y1143D01*
X645Y1143D02*
X648Y1143D01*
X656Y1143D02*
X659Y1143D01*
X664Y1143D02*
X668Y1143D01*
X681Y1143D02*
X685Y1143D01*
X693Y1143D02*
X696Y1143D01*
X709Y1143D02*
X713Y1143D01*
X720Y1143D02*
X724Y1143D01*
X737Y1143D02*
X741Y1143D01*
X748Y1143D02*
X752Y1143D01*
X765Y1143D02*
X769Y1143D01*
X796Y1143D02*
X801Y1143D01*
X812Y1143D02*
X818Y1143D01*
X825Y1143D02*
X835Y1143D01*
X842Y1143D02*
X847Y1143D01*
X854Y1143D02*
X860Y1143D01*
X871Y1143D02*
X876Y1143D01*
X884Y1143D02*
X889Y1143D01*
X901Y1143D02*
X906Y1143D01*
X553Y1142D02*
X560Y1142D01*
X569Y1142D02*
X573Y1142D01*
X583Y1142D02*
X584Y1142D01*
X597Y1142D02*
X601Y1142D01*
X608Y1142D02*
X615Y1142D01*
X627Y1142D02*
X629Y1142D01*
X634Y1142D02*
X638Y1142D01*
X645Y1142D02*
X648Y1142D01*
X656Y1142D02*
X659Y1142D01*
X664Y1142D02*
X668Y1142D01*
X681Y1142D02*
X685Y1142D01*
X695Y1142D02*
X696Y1142D01*
X709Y1142D02*
X713Y1142D01*
X720Y1142D02*
X727Y1142D01*
X739Y1142D02*
X741Y1142D01*
X748Y1142D02*
X752Y1142D01*
X765Y1142D02*
X769Y1142D01*
X796Y1142D02*
X801Y1142D01*
X812Y1142D02*
X818Y1142D01*
X825Y1142D02*
X837Y1142D01*
X842Y1142D02*
X847Y1142D01*
X854Y1142D02*
X860Y1142D01*
X871Y1142D02*
X876Y1142D01*
X884Y1142D02*
X889Y1142D01*
X901Y1142D02*
X906Y1142D01*
X553Y1141D02*
X562Y1141D01*
X569Y1141D02*
X573Y1141D01*
X597Y1141D02*
X601Y1141D01*
X608Y1141D02*
X617Y1141D01*
X634Y1141D02*
X638Y1141D01*
X645Y1141D02*
X648Y1141D01*
X656Y1141D02*
X659Y1141D01*
X664Y1141D02*
X668Y1141D01*
X681Y1141D02*
X685Y1141D01*
X709Y1141D02*
X713Y1141D01*
X720Y1141D02*
X729Y1141D01*
X748Y1141D02*
X752Y1141D01*
X765Y1141D02*
X769Y1141D01*
X796Y1141D02*
X801Y1141D01*
X812Y1141D02*
X818Y1141D01*
X825Y1141D02*
X840Y1141D01*
X842Y1141D02*
X847Y1141D01*
X854Y1141D02*
X860Y1141D01*
X871Y1141D02*
X876Y1141D01*
X884Y1141D02*
X889Y1141D01*
X901Y1141D02*
X906Y1141D01*
X554Y1140D02*
X564Y1140D01*
X569Y1140D02*
X573Y1140D01*
X597Y1140D02*
X601Y1140D01*
X608Y1140D02*
X619Y1140D01*
X634Y1140D02*
X638Y1140D01*
X645Y1140D02*
X648Y1140D01*
X656Y1140D02*
X659Y1140D01*
X664Y1140D02*
X668Y1140D01*
X681Y1140D02*
X685Y1140D01*
X709Y1140D02*
X713Y1140D01*
X720Y1140D02*
X731Y1140D01*
X748Y1140D02*
X752Y1140D01*
X765Y1140D02*
X769Y1140D01*
X796Y1140D02*
X801Y1140D01*
X812Y1140D02*
X818Y1140D01*
X827Y1140D02*
X847Y1140D01*
X854Y1140D02*
X860Y1140D01*
X871Y1140D02*
X876Y1140D01*
X884Y1140D02*
X889Y1140D01*
X901Y1140D02*
X906Y1140D01*
X556Y1139D02*
X566Y1139D01*
X569Y1139D02*
X573Y1139D01*
X597Y1139D02*
X601Y1139D01*
X608Y1139D02*
X622Y1139D01*
X634Y1139D02*
X638Y1139D01*
X645Y1139D02*
X648Y1139D01*
X656Y1139D02*
X659Y1139D01*
X664Y1139D02*
X668Y1139D01*
X681Y1139D02*
X685Y1139D01*
X709Y1139D02*
X713Y1139D01*
X720Y1139D02*
X734Y1139D01*
X748Y1139D02*
X752Y1139D01*
X765Y1139D02*
X769Y1139D01*
X796Y1139D02*
X801Y1139D01*
X812Y1139D02*
X818Y1139D01*
X829Y1139D02*
X847Y1139D01*
X854Y1139D02*
X860Y1139D01*
X871Y1139D02*
X876Y1139D01*
X884Y1139D02*
X889Y1139D01*
X901Y1139D02*
X906Y1139D01*
X559Y1138D02*
X573Y1138D01*
X597Y1138D02*
X601Y1138D01*
X608Y1138D02*
X624Y1138D01*
X634Y1138D02*
X638Y1138D01*
X645Y1138D02*
X648Y1138D01*
X656Y1138D02*
X659Y1138D01*
X664Y1138D02*
X668Y1138D01*
X681Y1138D02*
X685Y1138D01*
X709Y1138D02*
X713Y1138D01*
X720Y1138D02*
X736Y1138D01*
X748Y1138D02*
X752Y1138D01*
X765Y1138D02*
X769Y1138D01*
X796Y1138D02*
X801Y1138D01*
X812Y1138D02*
X818Y1138D01*
X832Y1138D02*
X847Y1138D01*
X854Y1138D02*
X860Y1138D01*
X871Y1138D02*
X876Y1138D01*
X884Y1138D02*
X889Y1138D01*
X901Y1138D02*
X906Y1138D01*
X561Y1137D02*
X573Y1137D01*
X597Y1137D02*
X601Y1137D01*
X608Y1137D02*
X612Y1137D01*
X616Y1137D02*
X626Y1137D01*
X634Y1137D02*
X638Y1137D01*
X645Y1137D02*
X648Y1137D01*
X656Y1137D02*
X659Y1137D01*
X664Y1137D02*
X668Y1137D01*
X681Y1137D02*
X685Y1137D01*
X709Y1137D02*
X713Y1137D01*
X720Y1137D02*
X724Y1137D01*
X728Y1137D02*
X738Y1137D01*
X748Y1137D02*
X752Y1137D01*
X765Y1137D02*
X769Y1137D01*
X796Y1137D02*
X801Y1137D01*
X812Y1137D02*
X818Y1137D01*
X825Y1137D02*
X826Y1137D01*
X834Y1137D02*
X847Y1137D01*
X854Y1137D02*
X860Y1137D01*
X871Y1137D02*
X876Y1137D01*
X884Y1137D02*
X889Y1137D01*
X901Y1137D02*
X906Y1137D01*
X563Y1136D02*
X573Y1136D01*
X597Y1136D02*
X601Y1136D01*
X608Y1136D02*
X612Y1136D01*
X618Y1136D02*
X627Y1136D01*
X634Y1136D02*
X638Y1136D01*
X645Y1136D02*
X648Y1136D01*
X656Y1136D02*
X659Y1136D01*
X664Y1136D02*
X668Y1136D01*
X681Y1136D02*
X685Y1136D01*
X709Y1136D02*
X713Y1136D01*
X720Y1136D02*
X724Y1136D01*
X730Y1136D02*
X739Y1136D01*
X748Y1136D02*
X752Y1136D01*
X765Y1136D02*
X769Y1136D01*
X796Y1136D02*
X801Y1136D01*
X812Y1136D02*
X818Y1136D01*
X825Y1136D02*
X828Y1136D01*
X836Y1136D02*
X847Y1136D01*
X854Y1136D02*
X860Y1136D01*
X871Y1136D02*
X876Y1136D01*
X884Y1136D02*
X889Y1136D01*
X901Y1136D02*
X906Y1136D01*
X553Y1135D02*
X553Y1135D01*
X565Y1135D02*
X573Y1135D01*
X597Y1135D02*
X601Y1135D01*
X608Y1135D02*
X612Y1135D01*
X621Y1135D02*
X628Y1135D01*
X634Y1135D02*
X638Y1135D01*
X645Y1135D02*
X648Y1135D01*
X656Y1135D02*
X659Y1135D01*
X664Y1135D02*
X668Y1135D01*
X681Y1135D02*
X685Y1135D01*
X709Y1135D02*
X713Y1135D01*
X720Y1135D02*
X724Y1135D01*
X733Y1135D02*
X740Y1135D01*
X748Y1135D02*
X752Y1135D01*
X765Y1135D02*
X769Y1135D01*
X796Y1135D02*
X801Y1135D01*
X812Y1135D02*
X818Y1135D01*
X825Y1135D02*
X830Y1135D01*
X838Y1135D02*
X847Y1135D01*
X854Y1135D02*
X860Y1135D01*
X871Y1135D02*
X876Y1135D01*
X884Y1135D02*
X889Y1135D01*
X901Y1135D02*
X906Y1135D01*
X85Y1134D02*
X146Y1134D01*
X553Y1134D02*
X555Y1134D01*
X568Y1134D02*
X573Y1134D01*
X597Y1134D02*
X601Y1134D01*
X608Y1134D02*
X612Y1134D01*
X623Y1134D02*
X628Y1134D01*
X634Y1134D02*
X638Y1134D01*
X645Y1134D02*
X648Y1134D01*
X656Y1134D02*
X659Y1134D01*
X664Y1134D02*
X668Y1134D01*
X681Y1134D02*
X685Y1134D01*
X709Y1134D02*
X713Y1134D01*
X720Y1134D02*
X724Y1134D01*
X735Y1134D02*
X740Y1134D01*
X748Y1134D02*
X752Y1134D01*
X765Y1134D02*
X769Y1134D01*
X796Y1134D02*
X801Y1134D01*
X812Y1134D02*
X818Y1134D01*
X825Y1134D02*
X830Y1134D01*
X841Y1134D02*
X847Y1134D01*
X854Y1134D02*
X860Y1134D01*
X871Y1134D02*
X876Y1134D01*
X884Y1134D02*
X889Y1134D01*
X901Y1134D02*
X906Y1134D01*
X85Y1133D02*
X146Y1133D01*
X553Y1133D02*
X556Y1133D01*
X569Y1133D02*
X573Y1133D01*
X597Y1133D02*
X601Y1133D01*
X608Y1133D02*
X612Y1133D01*
X624Y1133D02*
X628Y1133D01*
X634Y1133D02*
X638Y1133D01*
X645Y1133D02*
X648Y1133D01*
X656Y1133D02*
X659Y1133D01*
X664Y1133D02*
X668Y1133D01*
X681Y1133D02*
X685Y1133D01*
X709Y1133D02*
X713Y1133D01*
X720Y1133D02*
X724Y1133D01*
X736Y1133D02*
X740Y1133D01*
X748Y1133D02*
X752Y1133D01*
X765Y1133D02*
X769Y1133D01*
X796Y1133D02*
X801Y1133D01*
X812Y1133D02*
X818Y1133D01*
X825Y1133D02*
X831Y1133D01*
X841Y1133D02*
X847Y1133D01*
X854Y1133D02*
X860Y1133D01*
X871Y1133D02*
X876Y1133D01*
X884Y1133D02*
X889Y1133D01*
X900Y1133D02*
X906Y1133D01*
X85Y1132D02*
X146Y1132D01*
X553Y1132D02*
X556Y1132D01*
X569Y1132D02*
X573Y1132D01*
X597Y1132D02*
X601Y1132D01*
X608Y1132D02*
X612Y1132D01*
X625Y1132D02*
X629Y1132D01*
X634Y1132D02*
X638Y1132D01*
X645Y1132D02*
X648Y1132D01*
X656Y1132D02*
X659Y1132D01*
X665Y1132D02*
X668Y1132D01*
X681Y1132D02*
X685Y1132D01*
X709Y1132D02*
X713Y1132D01*
X720Y1132D02*
X724Y1132D01*
X737Y1132D02*
X741Y1132D01*
X748Y1132D02*
X752Y1132D01*
X765Y1132D02*
X769Y1132D01*
X796Y1132D02*
X801Y1132D01*
X812Y1132D02*
X818Y1132D01*
X825Y1132D02*
X831Y1132D01*
X841Y1132D02*
X847Y1132D01*
X855Y1132D02*
X860Y1132D01*
X871Y1132D02*
X876Y1132D01*
X884Y1132D02*
X890Y1132D01*
X900Y1132D02*
X906Y1132D01*
X85Y1131D02*
X146Y1131D01*
X553Y1131D02*
X556Y1131D01*
X569Y1131D02*
X572Y1131D01*
X597Y1131D02*
X601Y1131D01*
X608Y1131D02*
X612Y1131D01*
X625Y1131D02*
X629Y1131D01*
X634Y1131D02*
X638Y1131D01*
X645Y1131D02*
X648Y1131D01*
X656Y1131D02*
X659Y1131D01*
X665Y1131D02*
X668Y1131D01*
X681Y1131D02*
X684Y1131D01*
X709Y1131D02*
X713Y1131D01*
X720Y1131D02*
X724Y1131D01*
X737Y1131D02*
X741Y1131D01*
X748Y1131D02*
X752Y1131D01*
X765Y1131D02*
X769Y1131D01*
X796Y1131D02*
X801Y1131D01*
X812Y1131D02*
X818Y1131D01*
X825Y1131D02*
X831Y1131D01*
X841Y1131D02*
X847Y1131D01*
X855Y1131D02*
X861Y1131D01*
X870Y1131D02*
X876Y1131D01*
X884Y1131D02*
X890Y1131D01*
X899Y1131D02*
X905Y1131D01*
X85Y1130D02*
X146Y1130D01*
X553Y1130D02*
X557Y1130D01*
X568Y1130D02*
X572Y1130D01*
X597Y1130D02*
X601Y1130D01*
X608Y1130D02*
X612Y1130D01*
X625Y1130D02*
X629Y1130D01*
X634Y1130D02*
X638Y1130D01*
X645Y1130D02*
X648Y1130D01*
X656Y1130D02*
X659Y1130D01*
X665Y1130D02*
X669Y1130D01*
X680Y1130D02*
X684Y1130D01*
X709Y1130D02*
X713Y1130D01*
X720Y1130D02*
X724Y1130D01*
X737Y1130D02*
X741Y1130D01*
X748Y1130D02*
X752Y1130D01*
X765Y1130D02*
X769Y1130D01*
X796Y1130D02*
X801Y1130D01*
X812Y1130D02*
X818Y1130D01*
X826Y1130D02*
X832Y1130D01*
X840Y1130D02*
X846Y1130D01*
X855Y1130D02*
X862Y1130D01*
X869Y1130D02*
X876Y1130D01*
X885Y1130D02*
X891Y1130D01*
X898Y1130D02*
X905Y1130D01*
X85Y1129D02*
X146Y1129D01*
X553Y1129D02*
X558Y1129D01*
X568Y1129D02*
X572Y1129D01*
X597Y1129D02*
X601Y1129D01*
X608Y1129D02*
X612Y1129D01*
X625Y1129D02*
X629Y1129D01*
X634Y1129D02*
X638Y1129D01*
X645Y1129D02*
X649Y1129D01*
X655Y1129D02*
X659Y1129D01*
X665Y1129D02*
X670Y1129D01*
X679Y1129D02*
X684Y1129D01*
X709Y1129D02*
X713Y1129D01*
X720Y1129D02*
X724Y1129D01*
X736Y1129D02*
X740Y1129D01*
X748Y1129D02*
X752Y1129D01*
X765Y1129D02*
X769Y1129D01*
X796Y1129D02*
X801Y1129D01*
X812Y1129D02*
X818Y1129D01*
X826Y1129D02*
X834Y1129D01*
X837Y1129D02*
X846Y1129D01*
X856Y1129D02*
X864Y1129D01*
X867Y1129D02*
X876Y1129D01*
X885Y1129D02*
X893Y1129D01*
X896Y1129D02*
X905Y1129D01*
X85Y1128D02*
X146Y1128D01*
X554Y1128D02*
X559Y1128D01*
X566Y1128D02*
X571Y1128D01*
X597Y1128D02*
X601Y1128D01*
X608Y1128D02*
X612Y1128D01*
X624Y1128D02*
X628Y1128D01*
X634Y1128D02*
X638Y1128D01*
X644Y1128D02*
X649Y1128D01*
X655Y1128D02*
X659Y1128D01*
X666Y1128D02*
X671Y1128D01*
X678Y1128D02*
X683Y1128D01*
X709Y1128D02*
X713Y1128D01*
X720Y1128D02*
X724Y1128D01*
X735Y1128D02*
X740Y1128D01*
X748Y1128D02*
X752Y1128D01*
X765Y1128D02*
X769Y1128D01*
X796Y1128D02*
X801Y1128D01*
X812Y1128D02*
X818Y1128D01*
X827Y1128D02*
X845Y1128D01*
X856Y1128D02*
X876Y1128D01*
X886Y1128D02*
X904Y1128D01*
X85Y1127D02*
X146Y1127D01*
X555Y1127D02*
X571Y1127D01*
X597Y1127D02*
X601Y1127D01*
X608Y1127D02*
X612Y1127D01*
X617Y1127D02*
X628Y1127D01*
X635Y1127D02*
X640Y1127D01*
X642Y1127D02*
X651Y1127D01*
X653Y1127D02*
X659Y1127D01*
X666Y1127D02*
X683Y1127D01*
X709Y1127D02*
X713Y1127D01*
X720Y1127D02*
X724Y1127D01*
X729Y1127D02*
X740Y1127D01*
X748Y1127D02*
X752Y1127D01*
X765Y1127D02*
X769Y1127D01*
X796Y1127D02*
X801Y1127D01*
X812Y1127D02*
X818Y1127D01*
X828Y1127D02*
X845Y1127D01*
X857Y1127D02*
X876Y1127D01*
X886Y1127D02*
X904Y1127D01*
X85Y1126D02*
X92Y1126D01*
X112Y1126D02*
X119Y1126D01*
X139Y1126D02*
X146Y1126D01*
X555Y1126D02*
X570Y1126D01*
X597Y1126D02*
X601Y1126D01*
X608Y1126D02*
X612Y1126D01*
X616Y1126D02*
X627Y1126D01*
X635Y1126D02*
X658Y1126D01*
X667Y1126D02*
X682Y1126D01*
X709Y1126D02*
X713Y1126D01*
X720Y1126D02*
X724Y1126D01*
X728Y1126D02*
X739Y1126D01*
X748Y1126D02*
X752Y1126D01*
X765Y1126D02*
X769Y1126D01*
X796Y1126D02*
X801Y1126D01*
X812Y1126D02*
X818Y1126D01*
X828Y1126D02*
X844Y1126D01*
X858Y1126D02*
X876Y1126D01*
X887Y1126D02*
X903Y1126D01*
X85Y1125D02*
X92Y1125D01*
X112Y1125D02*
X119Y1125D01*
X139Y1125D02*
X146Y1125D01*
X556Y1125D02*
X569Y1125D01*
X597Y1125D02*
X601Y1125D01*
X608Y1125D02*
X612Y1125D01*
X616Y1125D02*
X626Y1125D01*
X636Y1125D02*
X657Y1125D01*
X668Y1125D02*
X681Y1125D01*
X709Y1125D02*
X713Y1125D01*
X720Y1125D02*
X724Y1125D01*
X728Y1125D02*
X738Y1125D01*
X748Y1125D02*
X752Y1125D01*
X765Y1125D02*
X769Y1125D01*
X796Y1125D02*
X801Y1125D01*
X812Y1125D02*
X818Y1125D01*
X829Y1125D02*
X843Y1125D01*
X859Y1125D02*
X876Y1125D01*
X888Y1125D02*
X902Y1125D01*
X85Y1124D02*
X92Y1124D01*
X112Y1124D02*
X119Y1124D01*
X139Y1124D02*
X146Y1124D01*
X558Y1124D02*
X568Y1124D01*
X598Y1124D02*
X601Y1124D01*
X609Y1124D02*
X612Y1124D01*
X615Y1124D02*
X624Y1124D01*
X637Y1124D02*
X645Y1124D01*
X648Y1124D02*
X656Y1124D01*
X670Y1124D02*
X680Y1124D01*
X710Y1124D02*
X713Y1124D01*
X721Y1124D02*
X724Y1124D01*
X727Y1124D02*
X736Y1124D01*
X749Y1124D02*
X752Y1124D01*
X766Y1124D02*
X769Y1124D01*
X797Y1124D02*
X801Y1124D01*
X814Y1124D02*
X818Y1124D01*
X831Y1124D02*
X841Y1124D01*
X860Y1124D02*
X876Y1124D01*
X890Y1124D02*
X900Y1124D01*
X85Y1123D02*
X92Y1123D01*
X112Y1123D02*
X119Y1123D01*
X139Y1123D02*
X146Y1123D01*
X560Y1123D02*
X565Y1123D01*
X600Y1123D02*
X601Y1123D01*
X612Y1123D02*
X612Y1123D01*
X617Y1123D02*
X622Y1123D01*
X639Y1123D02*
X644Y1123D01*
X650Y1123D02*
X654Y1123D01*
X672Y1123D02*
X677Y1123D01*
X712Y1123D02*
X713Y1123D01*
X724Y1123D02*
X724Y1123D01*
X729Y1123D02*
X734Y1123D01*
X752Y1123D02*
X752Y1123D01*
X768Y1123D02*
X769Y1123D01*
X799Y1123D02*
X801Y1123D01*
X816Y1123D02*
X818Y1123D01*
X833Y1123D02*
X839Y1123D01*
X862Y1123D02*
X869Y1123D01*
X871Y1123D02*
X876Y1123D01*
X892Y1123D02*
X898Y1123D01*
X85Y1122D02*
X92Y1122D01*
X112Y1122D02*
X119Y1122D01*
X139Y1122D02*
X146Y1122D01*
X871Y1122D02*
X876Y1122D01*
X85Y1121D02*
X92Y1121D01*
X112Y1121D02*
X119Y1121D01*
X139Y1121D02*
X146Y1121D01*
X871Y1121D02*
X876Y1121D01*
X85Y1120D02*
X92Y1120D01*
X112Y1120D02*
X119Y1120D01*
X139Y1120D02*
X146Y1120D01*
X871Y1120D02*
X876Y1120D01*
X85Y1119D02*
X92Y1119D01*
X112Y1119D02*
X119Y1119D01*
X139Y1119D02*
X146Y1119D01*
X871Y1119D02*
X876Y1119D01*
X85Y1118D02*
X92Y1118D01*
X112Y1118D02*
X119Y1118D01*
X139Y1118D02*
X146Y1118D01*
X871Y1118D02*
X876Y1118D01*
X85Y1117D02*
X92Y1117D01*
X112Y1117D02*
X119Y1117D01*
X139Y1117D02*
X146Y1117D01*
X871Y1117D02*
X876Y1117D01*
X85Y1116D02*
X92Y1116D01*
X112Y1116D02*
X119Y1116D01*
X139Y1116D02*
X146Y1116D01*
X871Y1116D02*
X876Y1116D01*
X85Y1115D02*
X92Y1115D01*
X112Y1115D02*
X119Y1115D01*
X139Y1115D02*
X146Y1115D01*
X871Y1115D02*
X876Y1115D01*
X85Y1114D02*
X92Y1114D01*
X112Y1114D02*
X119Y1114D01*
X139Y1114D02*
X146Y1114D01*
X871Y1114D02*
X876Y1114D01*
X85Y1113D02*
X92Y1113D01*
X112Y1113D02*
X119Y1113D01*
X139Y1113D02*
X146Y1113D01*
X873Y1113D02*
X876Y1113D01*
X85Y1112D02*
X92Y1112D01*
X113Y1112D02*
X118Y1112D01*
X139Y1112D02*
X146Y1112D01*
X875Y1112D02*
X876Y1112D01*
X85Y1111D02*
X92Y1111D01*
X114Y1111D02*
X117Y1111D01*
X139Y1111D02*
X146Y1111D01*
X85Y1110D02*
X92Y1110D01*
X139Y1110D02*
X146Y1110D01*
X85Y1109D02*
X92Y1109D01*
X139Y1109D02*
X146Y1109D01*
X85Y1108D02*
X92Y1108D01*
X139Y1108D02*
X146Y1108D01*
X85Y1107D02*
X92Y1107D01*
X139Y1107D02*
X146Y1107D01*
X85Y1106D02*
X92Y1106D01*
X139Y1106D02*
X146Y1106D01*
X85Y1105D02*
X92Y1105D01*
X139Y1105D02*
X146Y1105D01*
X85Y1104D02*
X92Y1104D01*
X139Y1104D02*
X146Y1104D01*
X85Y1103D02*
X92Y1103D01*
X139Y1103D02*
X146Y1103D01*
X85Y1102D02*
X92Y1102D01*
X139Y1102D02*
X146Y1102D01*
X85Y1101D02*
X92Y1101D01*
X139Y1101D02*
X146Y1101D01*
X85Y1100D02*
X92Y1100D01*
X139Y1100D02*
X146Y1100D01*
X85Y1099D02*
X92Y1099D01*
X139Y1099D02*
X146Y1099D01*
X85Y1098D02*
X92Y1098D01*
X139Y1098D02*
X146Y1098D01*
X86Y1097D02*
X91Y1097D01*
X139Y1097D02*
X145Y1097D01*
X86Y1096D02*
X91Y1096D01*
X140Y1096D02*
X145Y1096D01*
X88Y1095D02*
X89Y1095D01*
X142Y1095D02*
X143Y1095D01*
X90Y1076D02*
X97Y1076D01*
X134Y1076D02*
X140Y1076D01*
X88Y1075D02*
X99Y1075D01*
X133Y1075D02*
X141Y1075D01*
X87Y1074D02*
X100Y1074D01*
X132Y1074D02*
X142Y1074D01*
X87Y1073D02*
X101Y1073D01*
X132Y1073D02*
X143Y1073D01*
X86Y1072D02*
X103Y1072D01*
X132Y1072D02*
X144Y1072D01*
X86Y1071D02*
X104Y1071D01*
X133Y1071D02*
X145Y1071D01*
X85Y1070D02*
X105Y1070D01*
X134Y1070D02*
X145Y1070D01*
X85Y1069D02*
X107Y1069D01*
X136Y1069D02*
X145Y1069D01*
X85Y1068D02*
X92Y1068D01*
X96Y1068D02*
X108Y1068D01*
X138Y1068D02*
X146Y1068D01*
X85Y1067D02*
X92Y1067D01*
X97Y1067D02*
X109Y1067D01*
X139Y1067D02*
X146Y1067D01*
X85Y1066D02*
X92Y1066D01*
X98Y1066D02*
X110Y1066D01*
X139Y1066D02*
X146Y1066D01*
X85Y1065D02*
X92Y1065D01*
X99Y1065D02*
X112Y1065D01*
X139Y1065D02*
X146Y1065D01*
X85Y1064D02*
X92Y1064D01*
X101Y1064D02*
X113Y1064D01*
X139Y1064D02*
X146Y1064D01*
X85Y1063D02*
X92Y1063D01*
X102Y1063D02*
X114Y1063D01*
X139Y1063D02*
X146Y1063D01*
X85Y1062D02*
X92Y1062D01*
X103Y1062D02*
X116Y1062D01*
X139Y1062D02*
X146Y1062D01*
X85Y1061D02*
X92Y1061D01*
X105Y1061D02*
X117Y1061D01*
X139Y1061D02*
X146Y1061D01*
X85Y1060D02*
X92Y1060D01*
X106Y1060D02*
X118Y1060D01*
X139Y1060D02*
X146Y1060D01*
X85Y1059D02*
X92Y1059D01*
X107Y1059D02*
X119Y1059D01*
X139Y1059D02*
X146Y1059D01*
X85Y1058D02*
X92Y1058D01*
X108Y1058D02*
X121Y1058D01*
X139Y1058D02*
X146Y1058D01*
X85Y1057D02*
X92Y1057D01*
X110Y1057D02*
X122Y1057D01*
X139Y1057D02*
X146Y1057D01*
X85Y1056D02*
X92Y1056D01*
X111Y1056D02*
X123Y1056D01*
X139Y1056D02*
X146Y1056D01*
X85Y1055D02*
X92Y1055D01*
X112Y1055D02*
X125Y1055D01*
X139Y1055D02*
X146Y1055D01*
X85Y1054D02*
X92Y1054D01*
X114Y1054D02*
X126Y1054D01*
X139Y1054D02*
X146Y1054D01*
X85Y1053D02*
X92Y1053D01*
X115Y1053D02*
X127Y1053D01*
X139Y1053D02*
X146Y1053D01*
X85Y1052D02*
X92Y1052D01*
X116Y1052D02*
X128Y1052D01*
X139Y1052D02*
X146Y1052D01*
X85Y1051D02*
X92Y1051D01*
X117Y1051D02*
X130Y1051D01*
X139Y1051D02*
X146Y1051D01*
X85Y1050D02*
X92Y1050D01*
X119Y1050D02*
X131Y1050D01*
X139Y1050D02*
X146Y1050D01*
X85Y1049D02*
X92Y1049D01*
X120Y1049D02*
X132Y1049D01*
X139Y1049D02*
X146Y1049D01*
X85Y1048D02*
X92Y1048D01*
X121Y1048D02*
X134Y1048D01*
X139Y1048D02*
X146Y1048D01*
X85Y1047D02*
X92Y1047D01*
X123Y1047D02*
X135Y1047D01*
X139Y1047D02*
X146Y1047D01*
X85Y1046D02*
X93Y1046D01*
X124Y1046D02*
X136Y1046D01*
X139Y1046D02*
X146Y1046D01*
X86Y1045D02*
X96Y1045D01*
X125Y1045D02*
X146Y1045D01*
X86Y1044D02*
X98Y1044D01*
X126Y1044D02*
X146Y1044D01*
X86Y1043D02*
X98Y1043D01*
X128Y1043D02*
X145Y1043D01*
X87Y1042D02*
X99Y1042D01*
X129Y1042D02*
X145Y1042D01*
X88Y1041D02*
X99Y1041D01*
X130Y1041D02*
X144Y1041D01*
X89Y1040D02*
X98Y1040D01*
X132Y1040D02*
X143Y1040D01*
X90Y1039D02*
X98Y1039D01*
X133Y1039D02*
X142Y1039D01*
X92Y1038D02*
X97Y1038D01*
X135Y1038D02*
X140Y1038D01*
X85Y1019D02*
X144Y1019D01*
X85Y1018D02*
X145Y1018D01*
X85Y1017D02*
X146Y1017D01*
X85Y1016D02*
X146Y1016D01*
X85Y1015D02*
X146Y1015D01*
X85Y1014D02*
X146Y1014D01*
X85Y1013D02*
X145Y1013D01*
X85Y1012D02*
X144Y1012D01*
X85Y1011D02*
X92Y1011D01*
X115Y1011D02*
X122Y1011D01*
X85Y1010D02*
X92Y1010D01*
X115Y1010D02*
X122Y1010D01*
X85Y1009D02*
X92Y1009D01*
X115Y1009D02*
X122Y1009D01*
X85Y1008D02*
X92Y1008D01*
X115Y1008D02*
X122Y1008D01*
X85Y1007D02*
X92Y1007D01*
X115Y1007D02*
X122Y1007D01*
X85Y1006D02*
X92Y1006D01*
X115Y1006D02*
X122Y1006D01*
X85Y1005D02*
X92Y1005D01*
X115Y1005D02*
X122Y1005D01*
X85Y1004D02*
X92Y1004D01*
X115Y1004D02*
X122Y1004D01*
X85Y1003D02*
X92Y1003D01*
X115Y1003D02*
X122Y1003D01*
X85Y1002D02*
X92Y1002D01*
X115Y1002D02*
X122Y1002D01*
X85Y1001D02*
X92Y1001D01*
X115Y1001D02*
X122Y1001D01*
X85Y1000D02*
X92Y1000D01*
X115Y1000D02*
X122Y1000D01*
X85Y999D02*
X92Y999D01*
X115Y999D02*
X122Y999D01*
X85Y998D02*
X92Y998D01*
X115Y998D02*
X122Y998D01*
X85Y997D02*
X92Y997D01*
X115Y997D02*
X122Y997D01*
X85Y996D02*
X92Y996D01*
X115Y996D02*
X122Y996D01*
X85Y995D02*
X92Y995D01*
X115Y995D02*
X122Y995D01*
X85Y994D02*
X92Y994D01*
X115Y994D02*
X122Y994D01*
X85Y993D02*
X92Y993D01*
X115Y993D02*
X122Y993D01*
X85Y992D02*
X92Y992D01*
X115Y992D02*
X122Y992D01*
X85Y991D02*
X92Y991D01*
X115Y991D02*
X122Y991D01*
X85Y990D02*
X93Y990D01*
X115Y990D02*
X122Y990D01*
X85Y989D02*
X94Y989D01*
X114Y989D02*
X122Y989D01*
X86Y988D02*
X122Y988D01*
X86Y987D02*
X121Y987D01*
X87Y986D02*
X121Y986D01*
X87Y985D02*
X120Y985D01*
X88Y984D02*
X119Y984D01*
X89Y983D02*
X118Y983D01*
X90Y982D02*
X117Y982D01*
X92Y981D02*
X115Y981D01*
X97Y980D02*
X110Y980D01*
X88Y962D02*
X89Y962D01*
X142Y962D02*
X143Y962D01*
X86Y961D02*
X91Y961D01*
X140Y961D02*
X145Y961D01*
X86Y960D02*
X91Y960D01*
X139Y960D02*
X145Y960D01*
X85Y959D02*
X92Y959D01*
X139Y959D02*
X146Y959D01*
X85Y958D02*
X92Y958D01*
X139Y958D02*
X146Y958D01*
X85Y957D02*
X92Y957D01*
X139Y957D02*
X146Y957D01*
X85Y956D02*
X92Y956D01*
X139Y956D02*
X146Y956D01*
X85Y955D02*
X92Y955D01*
X139Y955D02*
X146Y955D01*
X85Y954D02*
X92Y954D01*
X115Y954D02*
X116Y954D01*
X139Y954D02*
X146Y954D01*
X85Y953D02*
X92Y953D01*
X113Y953D02*
X118Y953D01*
X139Y953D02*
X146Y953D01*
X85Y952D02*
X92Y952D01*
X112Y952D02*
X118Y952D01*
X139Y952D02*
X146Y952D01*
X85Y951D02*
X92Y951D01*
X112Y951D02*
X119Y951D01*
X139Y951D02*
X146Y951D01*
X85Y950D02*
X92Y950D01*
X112Y950D02*
X119Y950D01*
X139Y950D02*
X146Y950D01*
X85Y949D02*
X92Y949D01*
X112Y949D02*
X119Y949D01*
X139Y949D02*
X146Y949D01*
X85Y948D02*
X92Y948D01*
X112Y948D02*
X119Y948D01*
X139Y948D02*
X146Y948D01*
X85Y947D02*
X92Y947D01*
X112Y947D02*
X119Y947D01*
X139Y947D02*
X146Y947D01*
X85Y946D02*
X92Y946D01*
X112Y946D02*
X119Y946D01*
X139Y946D02*
X146Y946D01*
X85Y945D02*
X92Y945D01*
X112Y945D02*
X119Y945D01*
X139Y945D02*
X146Y945D01*
X85Y944D02*
X92Y944D01*
X112Y944D02*
X119Y944D01*
X139Y944D02*
X146Y944D01*
X85Y943D02*
X92Y943D01*
X112Y943D02*
X119Y943D01*
X139Y943D02*
X146Y943D01*
X85Y942D02*
X92Y942D01*
X112Y942D02*
X119Y942D01*
X139Y942D02*
X146Y942D01*
X85Y941D02*
X92Y941D01*
X112Y941D02*
X119Y941D01*
X139Y941D02*
X146Y941D01*
X85Y940D02*
X92Y940D01*
X112Y940D02*
X119Y940D01*
X139Y940D02*
X146Y940D01*
X85Y939D02*
X92Y939D01*
X112Y939D02*
X119Y939D01*
X139Y939D02*
X146Y939D01*
X85Y938D02*
X92Y938D01*
X112Y938D02*
X119Y938D01*
X139Y938D02*
X146Y938D01*
X85Y937D02*
X92Y937D01*
X112Y937D02*
X119Y937D01*
X139Y937D02*
X146Y937D01*
X85Y936D02*
X92Y936D01*
X112Y936D02*
X119Y936D01*
X139Y936D02*
X146Y936D01*
X85Y935D02*
X92Y935D01*
X112Y935D02*
X119Y935D01*
X139Y935D02*
X146Y935D01*
X85Y934D02*
X92Y934D01*
X112Y934D02*
X119Y934D01*
X139Y934D02*
X146Y934D01*
X85Y933D02*
X92Y933D01*
X111Y933D02*
X119Y933D01*
X139Y933D02*
X146Y933D01*
X85Y932D02*
X92Y932D01*
X111Y932D02*
X120Y932D01*
X139Y932D02*
X146Y932D01*
X85Y931D02*
X92Y931D01*
X109Y931D02*
X121Y931D01*
X139Y931D02*
X146Y931D01*
X85Y930D02*
X146Y930D01*
X85Y929D02*
X146Y929D01*
X85Y928D02*
X145Y928D01*
X86Y927D02*
X145Y927D01*
X87Y926D02*
X144Y926D01*
X87Y925D02*
X114Y925D01*
X117Y925D02*
X143Y925D01*
X89Y924D02*
X112Y924D01*
X118Y924D02*
X142Y924D01*
X91Y923D02*
X110Y923D01*
X121Y923D02*
X140Y923D01*
X87Y904D02*
X90Y904D01*
X117Y904D02*
X146Y904D01*
X86Y903D02*
X91Y903D01*
X115Y903D02*
X146Y903D01*
X85Y902D02*
X92Y902D01*
X114Y902D02*
X146Y902D01*
X85Y901D02*
X92Y901D01*
X113Y901D02*
X146Y901D01*
X85Y900D02*
X92Y900D01*
X113Y900D02*
X146Y900D01*
X85Y899D02*
X92Y899D01*
X112Y899D02*
X146Y899D01*
X85Y898D02*
X92Y898D01*
X112Y898D02*
X146Y898D01*
X85Y897D02*
X92Y897D01*
X112Y897D02*
X146Y897D01*
X85Y896D02*
X92Y896D01*
X112Y896D02*
X119Y896D01*
X139Y896D02*
X146Y896D01*
X85Y895D02*
X92Y895D01*
X112Y895D02*
X119Y895D01*
X139Y895D02*
X146Y895D01*
X85Y894D02*
X92Y894D01*
X112Y894D02*
X119Y894D01*
X139Y894D02*
X146Y894D01*
X85Y893D02*
X92Y893D01*
X112Y893D02*
X119Y893D01*
X139Y893D02*
X146Y893D01*
X85Y892D02*
X92Y892D01*
X112Y892D02*
X119Y892D01*
X139Y892D02*
X146Y892D01*
X85Y891D02*
X92Y891D01*
X112Y891D02*
X119Y891D01*
X139Y891D02*
X146Y891D01*
X85Y890D02*
X92Y890D01*
X112Y890D02*
X119Y890D01*
X139Y890D02*
X146Y890D01*
X85Y889D02*
X92Y889D01*
X112Y889D02*
X119Y889D01*
X139Y889D02*
X146Y889D01*
X85Y888D02*
X92Y888D01*
X112Y888D02*
X119Y888D01*
X139Y888D02*
X146Y888D01*
X85Y887D02*
X92Y887D01*
X112Y887D02*
X119Y887D01*
X139Y887D02*
X146Y887D01*
X85Y886D02*
X92Y886D01*
X112Y886D02*
X119Y886D01*
X139Y886D02*
X146Y886D01*
X85Y885D02*
X92Y885D01*
X112Y885D02*
X119Y885D01*
X139Y885D02*
X146Y885D01*
X85Y884D02*
X92Y884D01*
X112Y884D02*
X119Y884D01*
X139Y884D02*
X146Y884D01*
X85Y883D02*
X92Y883D01*
X112Y883D02*
X119Y883D01*
X139Y883D02*
X146Y883D01*
X85Y882D02*
X92Y882D01*
X112Y882D02*
X119Y882D01*
X139Y882D02*
X146Y882D01*
X85Y881D02*
X92Y881D01*
X112Y881D02*
X119Y881D01*
X139Y881D02*
X146Y881D01*
X85Y880D02*
X92Y880D01*
X112Y880D02*
X119Y880D01*
X139Y880D02*
X146Y880D01*
X85Y879D02*
X92Y879D01*
X112Y879D02*
X119Y879D01*
X139Y879D02*
X146Y879D01*
X85Y878D02*
X92Y878D01*
X112Y878D02*
X119Y878D01*
X139Y878D02*
X146Y878D01*
X85Y877D02*
X92Y877D01*
X112Y877D02*
X119Y877D01*
X139Y877D02*
X146Y877D01*
X85Y876D02*
X92Y876D01*
X112Y876D02*
X119Y876D01*
X139Y876D02*
X146Y876D01*
X85Y875D02*
X92Y875D01*
X112Y875D02*
X119Y875D01*
X139Y875D02*
X146Y875D01*
X85Y874D02*
X92Y874D01*
X112Y874D02*
X119Y874D01*
X139Y874D02*
X146Y874D01*
X85Y873D02*
X119Y873D01*
X139Y873D02*
X146Y873D01*
X85Y872D02*
X119Y872D01*
X139Y872D02*
X146Y872D01*
X85Y871D02*
X119Y871D01*
X139Y871D02*
X146Y871D01*
X86Y870D02*
X118Y870D01*
X139Y870D02*
X146Y870D01*
X86Y869D02*
X118Y869D01*
X139Y869D02*
X146Y869D01*
X87Y868D02*
X117Y868D01*
X139Y868D02*
X146Y868D01*
X88Y867D02*
X116Y867D01*
X140Y867D02*
X145Y867D01*
X90Y866D02*
X114Y866D01*
X141Y866D02*
X144Y866D01*
X85Y789D02*
X144Y789D01*
X85Y788D02*
X145Y788D01*
X85Y787D02*
X146Y787D01*
X85Y786D02*
X146Y786D01*
X85Y785D02*
X146Y785D01*
X85Y784D02*
X145Y784D01*
X85Y783D02*
X145Y783D01*
X85Y782D02*
X142Y782D01*
X85Y781D02*
X96Y781D01*
X85Y780D02*
X98Y780D01*
X86Y779D02*
X99Y779D01*
X88Y778D02*
X101Y778D01*
X89Y777D02*
X102Y777D01*
X91Y776D02*
X104Y776D01*
X92Y775D02*
X105Y775D01*
X93Y774D02*
X109Y774D01*
X95Y773D02*
X111Y773D01*
X96Y772D02*
X112Y772D01*
X98Y771D02*
X112Y771D01*
X99Y770D02*
X112Y770D01*
X97Y769D02*
X112Y769D01*
X96Y768D02*
X112Y768D01*
X94Y767D02*
X111Y767D01*
X93Y766D02*
X106Y766D01*
X92Y765D02*
X104Y765D01*
X90Y764D02*
X103Y764D01*
X89Y763D02*
X102Y763D01*
X87Y762D02*
X100Y762D01*
X86Y761D02*
X99Y761D01*
X85Y760D02*
X97Y760D01*
X85Y759D02*
X96Y759D01*
X85Y758D02*
X143Y758D01*
X85Y757D02*
X145Y757D01*
X85Y756D02*
X146Y756D01*
X85Y755D02*
X146Y755D01*
X85Y754D02*
X146Y754D01*
X85Y753D02*
X146Y753D01*
X85Y752D02*
X145Y752D01*
X85Y751D02*
X144Y751D01*
X104Y728D02*
X107Y728D01*
X141Y728D02*
X144Y728D01*
X103Y727D02*
X108Y727D01*
X140Y727D02*
X145Y727D01*
X102Y726D02*
X109Y726D01*
X139Y726D02*
X146Y726D01*
X102Y725D02*
X109Y725D01*
X139Y725D02*
X146Y725D01*
X102Y724D02*
X109Y724D01*
X139Y724D02*
X146Y724D01*
X102Y723D02*
X109Y723D01*
X139Y723D02*
X146Y723D01*
X102Y722D02*
X109Y722D01*
X139Y722D02*
X146Y722D01*
X102Y721D02*
X109Y721D01*
X139Y721D02*
X146Y721D01*
X83Y720D02*
X90Y720D01*
X102Y720D02*
X109Y720D01*
X139Y720D02*
X146Y720D01*
X82Y719D02*
X91Y719D01*
X102Y719D02*
X109Y719D01*
X139Y719D02*
X146Y719D01*
X82Y718D02*
X92Y718D01*
X102Y718D02*
X109Y718D01*
X139Y718D02*
X146Y718D01*
X82Y717D02*
X92Y717D01*
X102Y717D02*
X109Y717D01*
X139Y717D02*
X146Y717D01*
X82Y716D02*
X92Y716D01*
X102Y716D02*
X146Y716D01*
X82Y715D02*
X92Y715D01*
X102Y715D02*
X146Y715D01*
X82Y714D02*
X92Y714D01*
X102Y714D02*
X146Y714D01*
X82Y713D02*
X92Y713D01*
X102Y713D02*
X146Y713D01*
X82Y712D02*
X92Y712D01*
X102Y712D02*
X146Y712D01*
X82Y711D02*
X92Y711D01*
X102Y711D02*
X146Y711D01*
X83Y710D02*
X91Y710D01*
X103Y710D02*
X146Y710D01*
X84Y709D02*
X89Y709D01*
X105Y709D02*
X146Y709D01*
X139Y708D02*
X146Y708D01*
X139Y707D02*
X146Y707D01*
X139Y706D02*
X146Y706D01*
X139Y705D02*
X146Y705D01*
X139Y704D02*
X146Y704D01*
X139Y703D02*
X146Y703D01*
X139Y702D02*
X146Y702D01*
X139Y701D02*
X146Y701D01*
X139Y700D02*
X146Y700D01*
X139Y699D02*
X145Y699D01*
X140Y698D02*
X145Y698D01*
X142Y697D02*
X142Y697D01*
X105Y675D02*
X142Y675D01*
X103Y674D02*
X145Y674D01*
X102Y673D02*
X145Y673D01*
X102Y672D02*
X146Y672D01*
X102Y671D02*
X146Y671D01*
X102Y670D02*
X146Y670D01*
X103Y669D02*
X145Y669D01*
X103Y668D02*
X144Y668D01*
X108Y667D02*
X117Y667D01*
X108Y666D02*
X116Y666D01*
X107Y665D02*
X116Y665D01*
X107Y664D02*
X115Y664D01*
X106Y663D02*
X115Y663D01*
X105Y662D02*
X114Y662D01*
X105Y661D02*
X113Y661D01*
X104Y660D02*
X113Y660D01*
X104Y659D02*
X112Y659D01*
X103Y658D02*
X111Y658D01*
X103Y657D02*
X111Y657D01*
X102Y656D02*
X110Y656D01*
X102Y655D02*
X109Y655D01*
X102Y654D02*
X109Y654D01*
X102Y653D02*
X109Y653D01*
X102Y652D02*
X109Y652D01*
X102Y651D02*
X109Y651D01*
X102Y650D02*
X109Y650D01*
X102Y649D02*
X109Y649D01*
X102Y648D02*
X109Y648D01*
X102Y647D02*
X109Y647D01*
X102Y646D02*
X110Y646D01*
X102Y645D02*
X111Y645D01*
X103Y644D02*
X130Y644D01*
X103Y643D02*
X144Y643D01*
X104Y642D02*
X145Y642D01*
X105Y641D02*
X146Y641D01*
X105Y640D02*
X146Y640D01*
X107Y639D02*
X146Y639D01*
X108Y638D02*
X146Y638D01*
X111Y637D02*
X145Y637D01*
X131Y636D02*
X143Y636D01*
X85Y617D02*
X146Y617D01*
X85Y616D02*
X146Y616D01*
X85Y615D02*
X146Y615D01*
X85Y614D02*
X146Y614D01*
X85Y613D02*
X146Y613D01*
X85Y612D02*
X146Y612D01*
X85Y611D02*
X146Y611D01*
X85Y610D02*
X146Y610D01*
X85Y609D02*
X92Y609D01*
X112Y609D02*
X119Y609D01*
X139Y609D02*
X146Y609D01*
X85Y608D02*
X92Y608D01*
X112Y608D02*
X119Y608D01*
X139Y608D02*
X146Y608D01*
X85Y607D02*
X92Y607D01*
X112Y607D02*
X119Y607D01*
X139Y607D02*
X146Y607D01*
X85Y606D02*
X92Y606D01*
X112Y606D02*
X119Y606D01*
X139Y606D02*
X146Y606D01*
X85Y605D02*
X92Y605D01*
X112Y605D02*
X119Y605D01*
X139Y605D02*
X146Y605D01*
X85Y604D02*
X92Y604D01*
X112Y604D02*
X119Y604D01*
X139Y604D02*
X146Y604D01*
X85Y603D02*
X92Y603D01*
X112Y603D02*
X119Y603D01*
X139Y603D02*
X146Y603D01*
X85Y602D02*
X92Y602D01*
X112Y602D02*
X119Y602D01*
X139Y602D02*
X146Y602D01*
X85Y601D02*
X92Y601D01*
X112Y601D02*
X119Y601D01*
X139Y601D02*
X146Y601D01*
X85Y600D02*
X92Y600D01*
X112Y600D02*
X119Y600D01*
X139Y600D02*
X146Y600D01*
X85Y599D02*
X92Y599D01*
X112Y599D02*
X119Y599D01*
X139Y599D02*
X146Y599D01*
X85Y598D02*
X92Y598D01*
X112Y598D02*
X119Y598D01*
X139Y598D02*
X146Y598D01*
X85Y597D02*
X92Y597D01*
X112Y597D02*
X119Y597D01*
X139Y597D02*
X146Y597D01*
X85Y596D02*
X92Y596D01*
X112Y596D02*
X119Y596D01*
X139Y596D02*
X146Y596D01*
X85Y595D02*
X92Y595D01*
X112Y595D02*
X119Y595D01*
X139Y595D02*
X146Y595D01*
X85Y594D02*
X92Y594D01*
X112Y594D02*
X119Y594D01*
X139Y594D02*
X146Y594D01*
X85Y593D02*
X92Y593D01*
X112Y593D02*
X119Y593D01*
X139Y593D02*
X146Y593D01*
X85Y592D02*
X92Y592D01*
X112Y592D02*
X119Y592D01*
X139Y592D02*
X146Y592D01*
X85Y591D02*
X93Y591D01*
X111Y591D02*
X120Y591D01*
X138Y591D02*
X146Y591D01*
X86Y590D02*
X93Y590D01*
X111Y590D02*
X120Y590D01*
X138Y590D02*
X145Y590D01*
X86Y589D02*
X94Y589D01*
X110Y589D02*
X121Y589D01*
X137Y589D02*
X145Y589D01*
X86Y588D02*
X95Y588D01*
X109Y588D02*
X122Y588D01*
X136Y588D02*
X145Y588D01*
X87Y587D02*
X97Y587D01*
X107Y587D02*
X123Y587D01*
X134Y587D02*
X144Y587D01*
X87Y586D02*
X144Y586D01*
X88Y585D02*
X143Y585D01*
X89Y584D02*
X142Y584D01*
X90Y583D02*
X114Y583D01*
X117Y583D02*
X141Y583D01*
X91Y582D02*
X113Y582D01*
X118Y582D02*
X140Y582D01*
X92Y581D02*
X112Y581D01*
X119Y581D02*
X139Y581D01*
X94Y580D02*
X110Y580D01*
X121Y580D02*
X137Y580D01*
X508Y580D02*
X537Y580D01*
X565Y580D02*
X594Y580D01*
X622Y580D02*
X648Y580D01*
X679Y580D02*
X709Y580D01*
X96Y579D02*
X108Y579D01*
X123Y579D02*
X135Y579D01*
X506Y579D02*
X539Y579D01*
X563Y579D02*
X596Y579D01*
X620Y579D02*
X651Y579D01*
X677Y579D02*
X710Y579D01*
X504Y578D02*
X540Y578D01*
X561Y578D02*
X597Y578D01*
X619Y578D02*
X652Y578D01*
X676Y578D02*
X711Y578D01*
X503Y577D02*
X540Y577D01*
X560Y577D02*
X597Y577D01*
X618Y577D02*
X653Y577D01*
X675Y577D02*
X711Y577D01*
X503Y576D02*
X540Y576D01*
X560Y576D02*
X597Y576D01*
X617Y576D02*
X653Y576D01*
X674Y576D02*
X712Y576D01*
X502Y575D02*
X540Y575D01*
X559Y575D02*
X597Y575D01*
X617Y575D02*
X654Y575D01*
X674Y575D02*
X711Y575D01*
X502Y574D02*
X539Y574D01*
X559Y574D02*
X596Y574D01*
X616Y574D02*
X654Y574D01*
X673Y574D02*
X711Y574D01*
X502Y573D02*
X538Y573D01*
X559Y573D02*
X595Y573D01*
X616Y573D02*
X654Y573D01*
X673Y573D02*
X710Y573D01*
X502Y572D02*
X509Y572D01*
X559Y572D02*
X566Y572D01*
X616Y572D02*
X623Y572D01*
X647Y572D02*
X654Y572D01*
X673Y572D02*
X680Y572D01*
X502Y571D02*
X509Y571D01*
X559Y571D02*
X566Y571D01*
X616Y571D02*
X623Y571D01*
X647Y571D02*
X654Y571D01*
X673Y571D02*
X680Y571D01*
X502Y570D02*
X509Y570D01*
X559Y570D02*
X566Y570D01*
X616Y570D02*
X623Y570D01*
X647Y570D02*
X654Y570D01*
X673Y570D02*
X680Y570D01*
X502Y569D02*
X509Y569D01*
X559Y569D02*
X566Y569D01*
X616Y569D02*
X623Y569D01*
X647Y569D02*
X654Y569D01*
X673Y569D02*
X680Y569D01*
X502Y568D02*
X509Y568D01*
X559Y568D02*
X566Y568D01*
X616Y568D02*
X623Y568D01*
X647Y568D02*
X654Y568D01*
X673Y568D02*
X680Y568D01*
X502Y567D02*
X509Y567D01*
X559Y567D02*
X566Y567D01*
X616Y567D02*
X623Y567D01*
X647Y567D02*
X654Y567D01*
X673Y567D02*
X680Y567D01*
X502Y566D02*
X509Y566D01*
X559Y566D02*
X566Y566D01*
X616Y566D02*
X623Y566D01*
X647Y566D02*
X654Y566D01*
X673Y566D02*
X680Y566D01*
X502Y565D02*
X509Y565D01*
X559Y565D02*
X566Y565D01*
X616Y565D02*
X623Y565D01*
X647Y565D02*
X654Y565D01*
X673Y565D02*
X680Y565D01*
X502Y564D02*
X509Y564D01*
X559Y564D02*
X566Y564D01*
X616Y564D02*
X623Y564D01*
X647Y564D02*
X654Y564D01*
X673Y564D02*
X680Y564D01*
X502Y563D02*
X509Y563D01*
X559Y563D02*
X566Y563D01*
X616Y563D02*
X623Y563D01*
X647Y563D02*
X654Y563D01*
X673Y563D02*
X680Y563D01*
X502Y562D02*
X509Y562D01*
X559Y562D02*
X566Y562D01*
X616Y562D02*
X623Y562D01*
X647Y562D02*
X654Y562D01*
X673Y562D02*
X680Y562D01*
X502Y561D02*
X509Y561D01*
X559Y561D02*
X566Y561D01*
X616Y561D02*
X623Y561D01*
X647Y561D02*
X654Y561D01*
X673Y561D02*
X680Y561D01*
X114Y560D02*
X134Y560D01*
X502Y560D02*
X509Y560D01*
X559Y560D02*
X566Y560D01*
X616Y560D02*
X623Y560D01*
X647Y560D02*
X654Y560D01*
X673Y560D02*
X680Y560D01*
X111Y559D02*
X137Y559D01*
X502Y559D02*
X509Y559D01*
X559Y559D02*
X566Y559D01*
X616Y559D02*
X623Y559D01*
X647Y559D02*
X654Y559D01*
X673Y559D02*
X680Y559D01*
X109Y558D02*
X139Y558D01*
X502Y558D02*
X509Y558D01*
X559Y558D02*
X566Y558D01*
X616Y558D02*
X623Y558D01*
X647Y558D02*
X654Y558D01*
X673Y558D02*
X680Y558D01*
X108Y557D02*
X140Y557D01*
X502Y557D02*
X509Y557D01*
X559Y557D02*
X566Y557D01*
X616Y557D02*
X623Y557D01*
X647Y557D02*
X654Y557D01*
X673Y557D02*
X680Y557D01*
X107Y556D02*
X141Y556D01*
X502Y556D02*
X509Y556D01*
X559Y556D02*
X566Y556D01*
X616Y556D02*
X623Y556D01*
X647Y556D02*
X654Y556D01*
X673Y556D02*
X680Y556D01*
X106Y555D02*
X142Y555D01*
X502Y555D02*
X509Y555D01*
X559Y555D02*
X566Y555D01*
X616Y555D02*
X623Y555D01*
X647Y555D02*
X654Y555D01*
X673Y555D02*
X680Y555D01*
X105Y554D02*
X142Y554D01*
X502Y554D02*
X509Y554D01*
X559Y554D02*
X566Y554D01*
X616Y554D02*
X623Y554D01*
X647Y554D02*
X654Y554D01*
X673Y554D02*
X680Y554D01*
X105Y553D02*
X143Y553D01*
X502Y553D02*
X534Y553D01*
X559Y553D02*
X591Y553D01*
X616Y553D02*
X623Y553D01*
X647Y553D02*
X654Y553D01*
X673Y553D02*
X706Y553D01*
X104Y552D02*
X114Y552D01*
X134Y552D02*
X144Y552D01*
X502Y552D02*
X536Y552D01*
X559Y552D02*
X594Y552D01*
X616Y552D02*
X623Y552D01*
X647Y552D02*
X654Y552D01*
X673Y552D02*
X708Y552D01*
X103Y551D02*
X112Y551D01*
X135Y551D02*
X144Y551D01*
X502Y551D02*
X538Y551D01*
X559Y551D02*
X595Y551D01*
X616Y551D02*
X623Y551D01*
X647Y551D02*
X654Y551D01*
X674Y551D02*
X709Y551D01*
X103Y550D02*
X111Y550D01*
X136Y550D02*
X145Y550D01*
X502Y550D02*
X538Y550D01*
X560Y550D02*
X596Y550D01*
X616Y550D02*
X623Y550D01*
X647Y550D02*
X654Y550D01*
X674Y550D02*
X710Y550D01*
X102Y549D02*
X111Y549D01*
X137Y549D02*
X145Y549D01*
X503Y549D02*
X539Y549D01*
X560Y549D02*
X596Y549D01*
X616Y549D02*
X623Y549D01*
X647Y549D02*
X654Y549D01*
X675Y549D02*
X711Y549D01*
X102Y548D02*
X110Y548D01*
X138Y548D02*
X146Y548D01*
X504Y548D02*
X540Y548D01*
X561Y548D02*
X597Y548D01*
X616Y548D02*
X623Y548D01*
X647Y548D02*
X654Y548D01*
X675Y548D02*
X711Y548D01*
X102Y547D02*
X109Y547D01*
X139Y547D02*
X146Y547D01*
X505Y547D02*
X540Y547D01*
X562Y547D02*
X597Y547D01*
X616Y547D02*
X623Y547D01*
X647Y547D02*
X654Y547D01*
X677Y547D02*
X711Y547D01*
X102Y546D02*
X109Y546D01*
X139Y546D02*
X146Y546D01*
X507Y546D02*
X540Y546D01*
X564Y546D02*
X597Y546D01*
X616Y546D02*
X623Y546D01*
X647Y546D02*
X654Y546D01*
X678Y546D02*
X712Y546D01*
X102Y545D02*
X109Y545D01*
X139Y545D02*
X146Y545D01*
X533Y545D02*
X540Y545D01*
X590Y545D02*
X597Y545D01*
X616Y545D02*
X623Y545D01*
X647Y545D02*
X654Y545D01*
X705Y545D02*
X712Y545D01*
X102Y544D02*
X109Y544D01*
X139Y544D02*
X146Y544D01*
X533Y544D02*
X540Y544D01*
X590Y544D02*
X597Y544D01*
X616Y544D02*
X623Y544D01*
X647Y544D02*
X654Y544D01*
X705Y544D02*
X712Y544D01*
X102Y543D02*
X109Y543D01*
X139Y543D02*
X146Y543D01*
X533Y543D02*
X540Y543D01*
X590Y543D02*
X597Y543D01*
X616Y543D02*
X623Y543D01*
X647Y543D02*
X654Y543D01*
X705Y543D02*
X712Y543D01*
X102Y542D02*
X109Y542D01*
X139Y542D02*
X146Y542D01*
X533Y542D02*
X540Y542D01*
X590Y542D02*
X597Y542D01*
X616Y542D02*
X623Y542D01*
X647Y542D02*
X654Y542D01*
X705Y542D02*
X712Y542D01*
X102Y541D02*
X109Y541D01*
X139Y541D02*
X146Y541D01*
X533Y541D02*
X540Y541D01*
X590Y541D02*
X597Y541D01*
X616Y541D02*
X623Y541D01*
X647Y541D02*
X654Y541D01*
X705Y541D02*
X712Y541D01*
X102Y540D02*
X109Y540D01*
X139Y540D02*
X146Y540D01*
X533Y540D02*
X540Y540D01*
X590Y540D02*
X597Y540D01*
X616Y540D02*
X623Y540D01*
X647Y540D02*
X654Y540D01*
X705Y540D02*
X712Y540D01*
X102Y539D02*
X109Y539D01*
X139Y539D02*
X146Y539D01*
X533Y539D02*
X540Y539D01*
X590Y539D02*
X597Y539D01*
X616Y539D02*
X623Y539D01*
X647Y539D02*
X654Y539D01*
X705Y539D02*
X712Y539D01*
X102Y538D02*
X109Y538D01*
X139Y538D02*
X146Y538D01*
X533Y538D02*
X540Y538D01*
X590Y538D02*
X597Y538D01*
X616Y538D02*
X623Y538D01*
X647Y538D02*
X654Y538D01*
X705Y538D02*
X712Y538D01*
X102Y537D02*
X109Y537D01*
X139Y537D02*
X146Y537D01*
X533Y537D02*
X540Y537D01*
X590Y537D02*
X597Y537D01*
X616Y537D02*
X623Y537D01*
X647Y537D02*
X654Y537D01*
X705Y537D02*
X712Y537D01*
X102Y536D02*
X109Y536D01*
X139Y536D02*
X146Y536D01*
X533Y536D02*
X540Y536D01*
X590Y536D02*
X597Y536D01*
X616Y536D02*
X623Y536D01*
X647Y536D02*
X654Y536D01*
X705Y536D02*
X712Y536D01*
X102Y535D02*
X109Y535D01*
X139Y535D02*
X146Y535D01*
X533Y535D02*
X540Y535D01*
X590Y535D02*
X597Y535D01*
X616Y535D02*
X623Y535D01*
X647Y535D02*
X654Y535D01*
X705Y535D02*
X712Y535D01*
X102Y534D02*
X109Y534D01*
X139Y534D02*
X146Y534D01*
X533Y534D02*
X540Y534D01*
X590Y534D02*
X597Y534D01*
X616Y534D02*
X623Y534D01*
X647Y534D02*
X654Y534D01*
X705Y534D02*
X712Y534D01*
X102Y533D02*
X110Y533D01*
X138Y533D02*
X146Y533D01*
X533Y533D02*
X540Y533D01*
X590Y533D02*
X597Y533D01*
X616Y533D02*
X623Y533D01*
X647Y533D02*
X654Y533D01*
X705Y533D02*
X712Y533D01*
X102Y532D02*
X110Y532D01*
X137Y532D02*
X145Y532D01*
X533Y532D02*
X540Y532D01*
X590Y532D02*
X597Y532D01*
X616Y532D02*
X623Y532D01*
X647Y532D02*
X654Y532D01*
X705Y532D02*
X712Y532D01*
X103Y531D02*
X111Y531D01*
X136Y531D02*
X145Y531D01*
X533Y531D02*
X540Y531D01*
X590Y531D02*
X597Y531D01*
X616Y531D02*
X623Y531D01*
X647Y531D02*
X654Y531D01*
X705Y531D02*
X712Y531D01*
X103Y530D02*
X112Y530D01*
X135Y530D02*
X145Y530D01*
X533Y530D02*
X540Y530D01*
X590Y530D02*
X597Y530D01*
X616Y530D02*
X623Y530D01*
X647Y530D02*
X654Y530D01*
X705Y530D02*
X712Y530D01*
X104Y529D02*
X114Y529D01*
X134Y529D02*
X144Y529D01*
X533Y529D02*
X540Y529D01*
X590Y529D02*
X597Y529D01*
X616Y529D02*
X623Y529D01*
X647Y529D02*
X654Y529D01*
X705Y529D02*
X712Y529D01*
X105Y528D02*
X143Y528D01*
X533Y528D02*
X540Y528D01*
X590Y528D02*
X597Y528D01*
X616Y528D02*
X623Y528D01*
X647Y528D02*
X654Y528D01*
X705Y528D02*
X712Y528D01*
X105Y527D02*
X142Y527D01*
X533Y527D02*
X540Y527D01*
X590Y527D02*
X597Y527D01*
X616Y527D02*
X623Y527D01*
X647Y527D02*
X654Y527D01*
X705Y527D02*
X712Y527D01*
X106Y526D02*
X141Y526D01*
X504Y526D02*
X540Y526D01*
X561Y526D02*
X597Y526D01*
X616Y526D02*
X654Y526D01*
X675Y526D02*
X712Y526D01*
X107Y525D02*
X141Y525D01*
X503Y525D02*
X540Y525D01*
X560Y525D02*
X597Y525D01*
X616Y525D02*
X654Y525D01*
X674Y525D02*
X712Y525D01*
X108Y524D02*
X139Y524D01*
X502Y524D02*
X540Y524D01*
X559Y524D02*
X597Y524D01*
X616Y524D02*
X654Y524D01*
X674Y524D02*
X712Y524D01*
X109Y523D02*
X138Y523D01*
X502Y523D02*
X540Y523D01*
X559Y523D02*
X597Y523D01*
X617Y523D02*
X654Y523D01*
X673Y523D02*
X712Y523D01*
X111Y522D02*
X137Y522D01*
X502Y522D02*
X540Y522D01*
X559Y522D02*
X597Y522D01*
X617Y522D02*
X653Y522D01*
X673Y522D02*
X712Y522D01*
X114Y521D02*
X134Y521D01*
X502Y521D02*
X540Y521D01*
X559Y521D02*
X597Y521D01*
X618Y521D02*
X652Y521D01*
X674Y521D02*
X712Y521D01*
X503Y520D02*
X540Y520D01*
X560Y520D02*
X597Y520D01*
X619Y520D02*
X651Y520D01*
X674Y520D02*
X712Y520D01*
X504Y519D02*
X540Y519D01*
X561Y519D02*
X597Y519D01*
X621Y519D02*
X649Y519D01*
X675Y519D02*
X712Y519D01*
X126Y502D02*
X138Y502D01*
X124Y501D02*
X140Y501D01*
X123Y500D02*
X142Y500D01*
X122Y499D02*
X143Y499D01*
X121Y498D02*
X144Y498D01*
X120Y497D02*
X144Y497D01*
X120Y496D02*
X145Y496D01*
X119Y495D02*
X145Y495D01*
X103Y494D02*
X107Y494D01*
X119Y494D02*
X127Y494D01*
X137Y494D02*
X145Y494D01*
X102Y493D02*
X108Y493D01*
X119Y493D02*
X126Y493D01*
X138Y493D02*
X146Y493D01*
X102Y492D02*
X109Y492D01*
X119Y492D02*
X126Y492D01*
X139Y492D02*
X146Y492D01*
X102Y491D02*
X109Y491D01*
X119Y491D02*
X126Y491D01*
X139Y491D02*
X146Y491D01*
X102Y490D02*
X109Y490D01*
X119Y490D02*
X126Y490D01*
X139Y490D02*
X146Y490D01*
X102Y489D02*
X109Y489D01*
X119Y489D02*
X126Y489D01*
X139Y489D02*
X146Y489D01*
X102Y488D02*
X109Y488D01*
X119Y488D02*
X126Y488D01*
X139Y488D02*
X146Y488D01*
X102Y487D02*
X109Y487D01*
X119Y487D02*
X126Y487D01*
X139Y487D02*
X146Y487D01*
X102Y486D02*
X109Y486D01*
X119Y486D02*
X126Y486D01*
X139Y486D02*
X146Y486D01*
X102Y485D02*
X109Y485D01*
X119Y485D02*
X126Y485D01*
X139Y485D02*
X146Y485D01*
X102Y484D02*
X109Y484D01*
X119Y484D02*
X126Y484D01*
X139Y484D02*
X146Y484D01*
X102Y483D02*
X109Y483D01*
X119Y483D02*
X126Y483D01*
X139Y483D02*
X146Y483D01*
X102Y482D02*
X109Y482D01*
X119Y482D02*
X126Y482D01*
X139Y482D02*
X146Y482D01*
X102Y481D02*
X109Y481D01*
X119Y481D02*
X126Y481D01*
X139Y481D02*
X146Y481D01*
X102Y480D02*
X109Y480D01*
X119Y480D02*
X126Y480D01*
X139Y480D02*
X146Y480D01*
X102Y479D02*
X109Y479D01*
X119Y479D02*
X126Y479D01*
X138Y479D02*
X146Y479D01*
X102Y478D02*
X109Y478D01*
X119Y478D02*
X126Y478D01*
X138Y478D02*
X146Y478D01*
X102Y477D02*
X109Y477D01*
X119Y477D02*
X126Y477D01*
X137Y477D02*
X145Y477D01*
X102Y476D02*
X109Y476D01*
X119Y476D02*
X126Y476D01*
X136Y476D02*
X145Y476D01*
X102Y475D02*
X109Y475D01*
X119Y475D02*
X126Y475D01*
X136Y475D02*
X144Y475D01*
X102Y474D02*
X110Y474D01*
X119Y474D02*
X126Y474D01*
X135Y474D02*
X143Y474D01*
X102Y473D02*
X111Y473D01*
X119Y473D02*
X127Y473D01*
X135Y473D02*
X143Y473D01*
X103Y472D02*
X129Y472D01*
X134Y472D02*
X142Y472D01*
X103Y471D02*
X143Y471D01*
X104Y470D02*
X145Y470D01*
X104Y469D02*
X146Y469D01*
X105Y468D02*
X146Y468D01*
X106Y467D02*
X146Y467D01*
X108Y466D02*
X146Y466D01*
X110Y465D02*
X145Y465D01*
X124Y464D02*
X144Y464D01*
X104Y445D02*
X144Y445D01*
X103Y444D02*
X145Y444D01*
X102Y443D02*
X146Y443D01*
X102Y442D02*
X146Y442D01*
X102Y441D02*
X146Y441D01*
X102Y440D02*
X146Y440D01*
X103Y439D02*
X145Y439D01*
X104Y438D02*
X144Y438D01*
X110Y437D02*
X120Y437D01*
X109Y436D02*
X119Y436D01*
X108Y435D02*
X118Y435D01*
X108Y434D02*
X117Y434D01*
X107Y433D02*
X116Y433D01*
X106Y432D02*
X116Y432D01*
X105Y431D02*
X115Y431D01*
X104Y430D02*
X114Y430D01*
X103Y429D02*
X113Y429D01*
X103Y428D02*
X112Y428D01*
X102Y427D02*
X111Y427D01*
X102Y426D02*
X110Y426D01*
X102Y425D02*
X109Y425D01*
X102Y424D02*
X109Y424D01*
X102Y423D02*
X109Y423D01*
X102Y422D02*
X109Y422D01*
X102Y421D02*
X109Y421D01*
X102Y420D02*
X109Y420D01*
X102Y419D02*
X109Y419D01*
X102Y418D02*
X109Y418D01*
X102Y417D02*
X109Y417D01*
X102Y416D02*
X109Y416D01*
X102Y415D02*
X110Y415D01*
X102Y414D02*
X112Y414D01*
X103Y413D02*
X117Y413D01*
X103Y412D02*
X118Y412D01*
X104Y411D02*
X119Y411D01*
X105Y410D02*
X119Y410D01*
X106Y409D02*
X119Y409D01*
X107Y408D02*
X118Y408D01*
X109Y407D02*
X118Y407D01*
X113Y406D02*
X115Y406D01*
X115Y388D02*
X132Y388D01*
X111Y387D02*
X137Y387D01*
X110Y386D02*
X138Y386D01*
X108Y385D02*
X139Y385D01*
X107Y384D02*
X141Y384D01*
X106Y383D02*
X141Y383D01*
X106Y382D02*
X142Y382D01*
X105Y381D02*
X143Y381D01*
X104Y380D02*
X115Y380D01*
X133Y380D02*
X144Y380D01*
X103Y379D02*
X113Y379D01*
X135Y379D02*
X144Y379D01*
X103Y378D02*
X112Y378D01*
X136Y378D02*
X145Y378D01*
X102Y377D02*
X111Y377D01*
X137Y377D02*
X145Y377D01*
X102Y376D02*
X110Y376D01*
X138Y376D02*
X146Y376D01*
X102Y375D02*
X109Y375D01*
X138Y375D02*
X146Y375D01*
X102Y374D02*
X109Y374D01*
X139Y374D02*
X146Y374D01*
X102Y373D02*
X109Y373D01*
X139Y373D02*
X146Y373D01*
X102Y372D02*
X109Y372D01*
X139Y372D02*
X146Y372D01*
X102Y371D02*
X109Y371D01*
X139Y371D02*
X146Y371D01*
X102Y370D02*
X109Y370D01*
X139Y370D02*
X146Y370D01*
X102Y369D02*
X109Y369D01*
X139Y369D02*
X146Y369D01*
X102Y368D02*
X109Y368D01*
X139Y368D02*
X146Y368D01*
X102Y367D02*
X109Y367D01*
X139Y367D02*
X146Y367D01*
X102Y366D02*
X109Y366D01*
X139Y366D02*
X146Y366D01*
X102Y365D02*
X110Y365D01*
X138Y365D02*
X146Y365D01*
X102Y364D02*
X110Y364D01*
X137Y364D02*
X145Y364D01*
X103Y363D02*
X111Y363D01*
X136Y363D02*
X145Y363D01*
X103Y362D02*
X112Y362D01*
X136Y362D02*
X145Y362D01*
X104Y361D02*
X113Y361D01*
X135Y361D02*
X144Y361D01*
X104Y360D02*
X114Y360D01*
X134Y360D02*
X144Y360D01*
X105Y359D02*
X115Y359D01*
X133Y359D02*
X143Y359D01*
X106Y358D02*
X116Y358D01*
X132Y358D02*
X142Y358D01*
X107Y357D02*
X117Y357D01*
X131Y357D02*
X141Y357D01*
X87Y356D02*
X144Y356D01*
X86Y355D02*
X145Y355D01*
X85Y354D02*
X146Y354D01*
X85Y353D02*
X146Y353D01*
X85Y352D02*
X146Y352D01*
X85Y351D02*
X146Y351D01*
X86Y350D02*
X145Y350D01*
X87Y349D02*
X144Y349D01*
D02*
G04 End of Silk0*
M02*