; NON-PLATED HOLES START AT T1
; THROUGH (PLATED) HOLES START AT T100
M48
INCH
T100C0.015748
T101C0.052000
T102C0.035000
%
T100
X008788Y001446
X010778Y002950
X011289Y008449
X009276Y003461
X011800Y011453
X009788Y000946
T101
X009288Y007446
X009288Y004446
X010788Y004446
X010788Y007446
T102
X008288Y003446
X007288Y003446
X007288Y007446
X002788Y006946
X008288Y007446
X005288Y003446
X004288Y003446
X005288Y007446
X002788Y005946
X004288Y007446
X006288Y003446
X006288Y007446
T00
M30
