G04 MADE WITH FRITZING*
G04 WWW.FRITZING.ORG*
G04 DOUBLE SIDED*
G04 HOLES PLATED*
G04 CONTOUR ON CENTER OF CONTOUR VECTOR*
%ASAXBY*%
%FSLAX23Y23*%
%MOIN*%
%OFA0B0*%
%SFA1.0B1.0*%
%ADD10C,0.075000*%
%ADD11C,0.039370*%
%ADD12C,0.092000*%
%ADD13R,0.092000X0.092000*%
%ADD14R,0.075000X0.075000*%
%ADD15C,0.032000*%
%ADD16C,0.024000*%
%ADD17R,0.001000X0.001000*%
%LNCOPPER1*%
G90*
G70*
G54D10*
X122Y1633D03*
X118Y225D03*
X1218Y114D03*
X1030Y159D03*
G54D11*
X879Y145D03*
X979Y95D03*
X1078Y295D03*
X928Y346D03*
X1129Y845D03*
X1180Y1145D03*
G54D10*
X629Y345D03*
X629Y745D03*
X429Y345D03*
X429Y745D03*
X729Y745D03*
X729Y345D03*
X829Y345D03*
X829Y745D03*
X529Y345D03*
X529Y745D03*
G54D12*
X1079Y445D03*
X1079Y745D03*
G54D10*
X279Y595D03*
X279Y695D03*
G54D12*
X929Y445D03*
X929Y745D03*
G54D13*
X1079Y445D03*
G54D14*
X279Y595D03*
G54D13*
X929Y445D03*
G54D15*
X854Y145D02*
X779Y145D01*
D02*
X779Y145D02*
X737Y311D01*
D02*
X1179Y195D02*
X1279Y445D01*
D02*
X1229Y1045D02*
X1088Y1072D01*
D02*
X1279Y445D02*
X1279Y945D01*
D02*
X629Y45D02*
X1029Y45D01*
D02*
X1029Y45D02*
X1179Y195D01*
D02*
X1279Y945D02*
X1229Y1045D01*
D02*
X540Y312D02*
X629Y45D01*
D02*
X1078Y320D02*
X1079Y395D01*
D02*
X1079Y395D02*
X1079Y402D01*
D02*
X579Y1295D02*
X468Y1252D01*
D02*
X579Y1445D02*
X571Y1385D01*
D02*
X571Y1385D02*
X579Y1295D01*
D02*
X468Y1466D02*
X579Y1445D01*
D02*
X1049Y1003D02*
X1078Y995D01*
D02*
X928Y371D02*
X928Y402D01*
D02*
X954Y95D02*
X679Y95D01*
D02*
X679Y95D02*
X636Y311D01*
D02*
X279Y1245D02*
X128Y1043D01*
D02*
X679Y445D02*
X714Y375D01*
D02*
X279Y445D02*
X679Y445D01*
D02*
X128Y1043D02*
X129Y445D01*
D02*
X129Y445D02*
X279Y445D01*
D02*
X329Y1245D02*
X279Y1245D01*
D02*
X390Y1240D02*
X329Y1245D01*
D02*
X463Y745D02*
X495Y745D01*
D02*
X563Y745D02*
X595Y745D01*
D02*
X663Y745D02*
X695Y745D01*
D02*
X378Y794D02*
X422Y904D01*
D02*
X404Y768D02*
X378Y794D01*
D02*
X1036Y745D02*
X971Y745D01*
D02*
X886Y745D02*
X863Y745D01*
D02*
X1180Y995D02*
X1228Y944D01*
D02*
X1078Y995D02*
X1180Y995D01*
D02*
X1228Y445D02*
X1129Y245D01*
D02*
X1228Y896D02*
X1228Y944D01*
D02*
X1129Y245D02*
X929Y245D01*
D02*
X1228Y896D02*
X1228Y445D01*
D02*
X1228Y445D02*
X1228Y445D01*
D02*
X829Y245D02*
X829Y310D01*
D02*
X1180Y794D02*
X1179Y495D01*
D02*
X1179Y495D02*
X1117Y464D01*
D02*
X1146Y828D02*
X1180Y794D01*
D02*
X929Y245D02*
X829Y245D01*
D02*
X729Y596D02*
X810Y716D01*
D02*
X313Y595D02*
X729Y596D01*
D02*
X80Y394D02*
X129Y345D01*
D02*
X229Y1295D02*
X79Y1095D01*
D02*
X129Y345D02*
X395Y345D01*
D02*
X390Y1312D02*
X229Y1295D01*
D02*
X79Y1095D02*
X80Y394D01*
D02*
X378Y695D02*
X404Y721D01*
D02*
X313Y695D02*
X378Y695D01*
D02*
X1078Y845D02*
X1056Y904D01*
D02*
X1078Y787D02*
X1078Y845D01*
D02*
X1088Y1155D02*
X1156Y1148D01*
G54D16*
D02*
X429Y1377D02*
X429Y1334D01*
G36*
X484Y1433D02*
X484Y1293D01*
X506Y1293D01*
X506Y1295D01*
X510Y1295D01*
X510Y1297D01*
X516Y1297D01*
X516Y1299D01*
X520Y1299D01*
X520Y1301D01*
X526Y1301D01*
X526Y1303D01*
X532Y1303D01*
X532Y1305D01*
X536Y1305D01*
X536Y1307D01*
X542Y1307D01*
X542Y1309D01*
X546Y1309D01*
X546Y1311D01*
X552Y1311D01*
X552Y1423D01*
X548Y1423D01*
X548Y1425D01*
X536Y1425D01*
X536Y1427D01*
X526Y1427D01*
X526Y1429D01*
X516Y1429D01*
X516Y1431D01*
X506Y1431D01*
X506Y1433D01*
X484Y1433D01*
G37*
D02*
G36*
X232Y1257D02*
X232Y1253D01*
X230Y1253D01*
X230Y1251D01*
X228Y1251D01*
X228Y1249D01*
X226Y1249D01*
X226Y1245D01*
X224Y1245D01*
X224Y1243D01*
X222Y1243D01*
X222Y1241D01*
X220Y1241D01*
X220Y1237D01*
X218Y1237D01*
X218Y1235D01*
X216Y1235D01*
X216Y1233D01*
X214Y1233D01*
X214Y1229D01*
X212Y1229D01*
X212Y1227D01*
X210Y1227D01*
X210Y1225D01*
X208Y1225D01*
X208Y1221D01*
X206Y1221D01*
X206Y1219D01*
X204Y1219D01*
X204Y1217D01*
X202Y1217D01*
X202Y1213D01*
X200Y1213D01*
X200Y1211D01*
X198Y1211D01*
X198Y1209D01*
X196Y1209D01*
X196Y1205D01*
X194Y1205D01*
X194Y1203D01*
X192Y1203D01*
X192Y1201D01*
X190Y1201D01*
X190Y1197D01*
X188Y1197D01*
X188Y1195D01*
X186Y1195D01*
X186Y1193D01*
X184Y1193D01*
X184Y1189D01*
X182Y1189D01*
X182Y1187D01*
X180Y1187D01*
X180Y1185D01*
X178Y1185D01*
X178Y1181D01*
X176Y1181D01*
X176Y1179D01*
X174Y1179D01*
X174Y1177D01*
X172Y1177D01*
X172Y1173D01*
X170Y1173D01*
X170Y1171D01*
X168Y1171D01*
X168Y1169D01*
X166Y1169D01*
X166Y1165D01*
X164Y1165D01*
X164Y1163D01*
X162Y1163D01*
X162Y1161D01*
X160Y1161D01*
X160Y1157D01*
X158Y1157D01*
X158Y1155D01*
X156Y1155D01*
X156Y1153D01*
X154Y1153D01*
X154Y1149D01*
X152Y1149D01*
X152Y1147D01*
X150Y1147D01*
X150Y1145D01*
X148Y1145D01*
X148Y1141D01*
X146Y1141D01*
X146Y1139D01*
X144Y1139D01*
X144Y1137D01*
X142Y1137D01*
X142Y1133D01*
X140Y1133D01*
X140Y1131D01*
X138Y1131D01*
X138Y1129D01*
X136Y1129D01*
X136Y1125D01*
X134Y1125D01*
X134Y1123D01*
X132Y1123D01*
X132Y1121D01*
X130Y1121D01*
X130Y1117D01*
X128Y1117D01*
X128Y1115D01*
X126Y1115D01*
X126Y1113D01*
X124Y1113D01*
X124Y1109D01*
X122Y1109D01*
X122Y1107D01*
X120Y1107D01*
X120Y1105D01*
X118Y1105D01*
X118Y1101D01*
X116Y1101D01*
X116Y1099D01*
X114Y1099D01*
X114Y1097D01*
X112Y1097D01*
X112Y1093D01*
X110Y1093D01*
X110Y1091D01*
X108Y1091D01*
X108Y1089D01*
X106Y1089D01*
X106Y1085D01*
X104Y1085D01*
X104Y1079D01*
X124Y1079D01*
X124Y1081D01*
X126Y1081D01*
X126Y1085D01*
X128Y1085D01*
X128Y1087D01*
X130Y1087D01*
X130Y1089D01*
X132Y1089D01*
X132Y1093D01*
X134Y1093D01*
X134Y1095D01*
X136Y1095D01*
X136Y1097D01*
X138Y1097D01*
X138Y1101D01*
X140Y1101D01*
X140Y1103D01*
X142Y1103D01*
X142Y1105D01*
X144Y1105D01*
X144Y1109D01*
X146Y1109D01*
X146Y1111D01*
X148Y1111D01*
X148Y1115D01*
X150Y1115D01*
X150Y1117D01*
X152Y1117D01*
X152Y1119D01*
X154Y1119D01*
X154Y1123D01*
X156Y1123D01*
X156Y1125D01*
X158Y1125D01*
X158Y1127D01*
X160Y1127D01*
X160Y1131D01*
X162Y1131D01*
X162Y1133D01*
X164Y1133D01*
X164Y1135D01*
X166Y1135D01*
X166Y1139D01*
X168Y1139D01*
X168Y1141D01*
X170Y1141D01*
X170Y1143D01*
X172Y1143D01*
X172Y1147D01*
X174Y1147D01*
X174Y1149D01*
X176Y1149D01*
X176Y1151D01*
X178Y1151D01*
X178Y1155D01*
X180Y1155D01*
X180Y1157D01*
X182Y1157D01*
X182Y1159D01*
X184Y1159D01*
X184Y1163D01*
X186Y1163D01*
X186Y1165D01*
X188Y1165D01*
X188Y1167D01*
X190Y1167D01*
X190Y1171D01*
X192Y1171D01*
X192Y1173D01*
X194Y1173D01*
X194Y1175D01*
X196Y1175D01*
X196Y1179D01*
X198Y1179D01*
X198Y1181D01*
X200Y1181D01*
X200Y1183D01*
X202Y1183D01*
X202Y1187D01*
X204Y1187D01*
X204Y1189D01*
X206Y1189D01*
X206Y1191D01*
X208Y1191D01*
X208Y1195D01*
X210Y1195D01*
X210Y1197D01*
X212Y1197D01*
X212Y1199D01*
X214Y1199D01*
X214Y1203D01*
X216Y1203D01*
X216Y1205D01*
X218Y1205D01*
X218Y1207D01*
X220Y1207D01*
X220Y1211D01*
X222Y1211D01*
X222Y1213D01*
X224Y1213D01*
X224Y1215D01*
X226Y1215D01*
X226Y1219D01*
X228Y1219D01*
X228Y1221D01*
X230Y1221D01*
X230Y1223D01*
X232Y1223D01*
X232Y1227D01*
X234Y1227D01*
X234Y1229D01*
X236Y1229D01*
X236Y1231D01*
X238Y1231D01*
X238Y1235D01*
X240Y1235D01*
X240Y1237D01*
X242Y1237D01*
X242Y1239D01*
X244Y1239D01*
X244Y1243D01*
X246Y1243D01*
X246Y1245D01*
X248Y1245D01*
X248Y1247D01*
X250Y1247D01*
X250Y1251D01*
X252Y1251D01*
X252Y1257D01*
X232Y1257D01*
G37*
D02*
G36*
X40Y1711D02*
X40Y1507D01*
X1104Y1507D01*
X1104Y1179D01*
X1112Y1179D01*
X1112Y1177D01*
X1132Y1177D01*
X1132Y1175D01*
X1186Y1175D01*
X1186Y1173D01*
X1192Y1173D01*
X1192Y1171D01*
X1196Y1171D01*
X1196Y1169D01*
X1198Y1169D01*
X1198Y1167D01*
X1200Y1167D01*
X1200Y1165D01*
X1202Y1165D01*
X1202Y1163D01*
X1204Y1163D01*
X1204Y1161D01*
X1206Y1161D01*
X1206Y1157D01*
X1208Y1157D01*
X1208Y1151D01*
X1210Y1151D01*
X1210Y1139D01*
X1208Y1139D01*
X1208Y1133D01*
X1206Y1133D01*
X1206Y1129D01*
X1204Y1129D01*
X1204Y1127D01*
X1202Y1127D01*
X1202Y1125D01*
X1200Y1125D01*
X1200Y1123D01*
X1198Y1123D01*
X1198Y1121D01*
X1196Y1121D01*
X1196Y1119D01*
X1192Y1119D01*
X1192Y1117D01*
X1184Y1117D01*
X1184Y1115D01*
X1286Y1115D01*
X1286Y1711D01*
X40Y1711D01*
G37*
D02*
G36*
X40Y1507D02*
X40Y1111D01*
X60Y1111D01*
X60Y1113D01*
X62Y1113D01*
X62Y1117D01*
X64Y1117D01*
X64Y1119D01*
X66Y1119D01*
X66Y1121D01*
X68Y1121D01*
X68Y1125D01*
X70Y1125D01*
X70Y1127D01*
X72Y1127D01*
X72Y1129D01*
X74Y1129D01*
X74Y1133D01*
X76Y1133D01*
X76Y1135D01*
X78Y1135D01*
X78Y1137D01*
X80Y1137D01*
X80Y1141D01*
X82Y1141D01*
X82Y1143D01*
X84Y1143D01*
X84Y1145D01*
X86Y1145D01*
X86Y1149D01*
X88Y1149D01*
X88Y1151D01*
X90Y1151D01*
X90Y1153D01*
X92Y1153D01*
X92Y1157D01*
X94Y1157D01*
X94Y1159D01*
X96Y1159D01*
X96Y1161D01*
X98Y1161D01*
X98Y1165D01*
X100Y1165D01*
X100Y1167D01*
X102Y1167D01*
X102Y1169D01*
X104Y1169D01*
X104Y1173D01*
X106Y1173D01*
X106Y1175D01*
X108Y1175D01*
X108Y1177D01*
X110Y1177D01*
X110Y1181D01*
X112Y1181D01*
X112Y1183D01*
X114Y1183D01*
X114Y1185D01*
X116Y1185D01*
X116Y1189D01*
X118Y1189D01*
X118Y1191D01*
X120Y1191D01*
X120Y1193D01*
X122Y1193D01*
X122Y1197D01*
X124Y1197D01*
X124Y1199D01*
X126Y1199D01*
X126Y1201D01*
X128Y1201D01*
X128Y1205D01*
X130Y1205D01*
X130Y1207D01*
X132Y1207D01*
X132Y1209D01*
X134Y1209D01*
X134Y1213D01*
X136Y1213D01*
X136Y1215D01*
X138Y1215D01*
X138Y1217D01*
X140Y1217D01*
X140Y1221D01*
X142Y1221D01*
X142Y1223D01*
X144Y1223D01*
X144Y1225D01*
X146Y1225D01*
X146Y1229D01*
X148Y1229D01*
X148Y1231D01*
X150Y1231D01*
X150Y1233D01*
X152Y1233D01*
X152Y1237D01*
X154Y1237D01*
X154Y1239D01*
X156Y1239D01*
X156Y1241D01*
X158Y1241D01*
X158Y1245D01*
X160Y1245D01*
X160Y1247D01*
X162Y1247D01*
X162Y1249D01*
X164Y1249D01*
X164Y1253D01*
X166Y1253D01*
X166Y1255D01*
X168Y1255D01*
X168Y1257D01*
X170Y1257D01*
X170Y1261D01*
X172Y1261D01*
X172Y1263D01*
X174Y1263D01*
X174Y1265D01*
X176Y1265D01*
X176Y1269D01*
X178Y1269D01*
X178Y1271D01*
X180Y1271D01*
X180Y1273D01*
X182Y1273D01*
X182Y1277D01*
X184Y1277D01*
X184Y1279D01*
X186Y1279D01*
X186Y1281D01*
X188Y1281D01*
X188Y1285D01*
X190Y1285D01*
X190Y1287D01*
X192Y1287D01*
X192Y1289D01*
X194Y1289D01*
X194Y1293D01*
X196Y1293D01*
X196Y1295D01*
X198Y1295D01*
X198Y1297D01*
X200Y1297D01*
X200Y1301D01*
X202Y1301D01*
X202Y1303D01*
X204Y1303D01*
X204Y1305D01*
X206Y1305D01*
X206Y1309D01*
X208Y1309D01*
X208Y1311D01*
X210Y1311D01*
X210Y1313D01*
X212Y1313D01*
X212Y1315D01*
X214Y1315D01*
X214Y1317D01*
X218Y1317D01*
X218Y1319D01*
X224Y1319D01*
X224Y1321D01*
X242Y1321D01*
X242Y1323D01*
X262Y1323D01*
X262Y1325D01*
X280Y1325D01*
X280Y1327D01*
X300Y1327D01*
X300Y1329D01*
X318Y1329D01*
X318Y1331D01*
X336Y1331D01*
X336Y1333D01*
X356Y1333D01*
X356Y1335D01*
X374Y1335D01*
X374Y1507D01*
X40Y1507D01*
G37*
D02*
G36*
X484Y1507D02*
X484Y1489D01*
X490Y1489D01*
X490Y1487D01*
X500Y1487D01*
X500Y1485D01*
X510Y1485D01*
X510Y1483D01*
X520Y1483D01*
X520Y1481D01*
X532Y1481D01*
X532Y1479D01*
X542Y1479D01*
X542Y1477D01*
X552Y1477D01*
X552Y1475D01*
X562Y1475D01*
X562Y1473D01*
X572Y1473D01*
X572Y1471D01*
X584Y1471D01*
X584Y1469D01*
X590Y1469D01*
X590Y1467D01*
X594Y1467D01*
X594Y1465D01*
X596Y1465D01*
X596Y1463D01*
X598Y1463D01*
X598Y1461D01*
X600Y1461D01*
X600Y1457D01*
X602Y1457D01*
X602Y1453D01*
X604Y1453D01*
X604Y1285D01*
X602Y1285D01*
X602Y1281D01*
X600Y1281D01*
X600Y1279D01*
X598Y1279D01*
X598Y1275D01*
X594Y1275D01*
X594Y1273D01*
X592Y1273D01*
X592Y1271D01*
X588Y1271D01*
X588Y1269D01*
X582Y1269D01*
X582Y1267D01*
X578Y1267D01*
X578Y1265D01*
X572Y1265D01*
X572Y1263D01*
X568Y1263D01*
X568Y1261D01*
X562Y1261D01*
X562Y1259D01*
X556Y1259D01*
X556Y1257D01*
X552Y1257D01*
X552Y1255D01*
X546Y1255D01*
X546Y1253D01*
X540Y1253D01*
X540Y1251D01*
X536Y1251D01*
X536Y1249D01*
X530Y1249D01*
X530Y1247D01*
X526Y1247D01*
X526Y1245D01*
X520Y1245D01*
X520Y1243D01*
X514Y1243D01*
X514Y1241D01*
X510Y1241D01*
X510Y1239D01*
X504Y1239D01*
X504Y1237D01*
X500Y1237D01*
X500Y1235D01*
X494Y1235D01*
X494Y1233D01*
X488Y1233D01*
X488Y1231D01*
X484Y1231D01*
X484Y889D01*
X994Y889D01*
X994Y1507D01*
X484Y1507D01*
G37*
D02*
G36*
X292Y1219D02*
X292Y1217D01*
X290Y1217D01*
X290Y1215D01*
X288Y1215D01*
X288Y1211D01*
X286Y1211D01*
X286Y1209D01*
X284Y1209D01*
X284Y1207D01*
X282Y1207D01*
X282Y1203D01*
X280Y1203D01*
X280Y1201D01*
X278Y1201D01*
X278Y1199D01*
X276Y1199D01*
X276Y1195D01*
X274Y1195D01*
X274Y1193D01*
X272Y1193D01*
X272Y1191D01*
X270Y1191D01*
X270Y1187D01*
X268Y1187D01*
X268Y1185D01*
X266Y1185D01*
X266Y1183D01*
X264Y1183D01*
X264Y1179D01*
X262Y1179D01*
X262Y1177D01*
X260Y1177D01*
X260Y1175D01*
X258Y1175D01*
X258Y1171D01*
X256Y1171D01*
X256Y1169D01*
X254Y1169D01*
X254Y1167D01*
X252Y1167D01*
X252Y1163D01*
X250Y1163D01*
X250Y1161D01*
X248Y1161D01*
X248Y1159D01*
X246Y1159D01*
X246Y1155D01*
X244Y1155D01*
X244Y1153D01*
X242Y1153D01*
X242Y1151D01*
X240Y1151D01*
X240Y1147D01*
X238Y1147D01*
X238Y1145D01*
X236Y1145D01*
X236Y1143D01*
X234Y1143D01*
X234Y1139D01*
X232Y1139D01*
X232Y1137D01*
X230Y1137D01*
X230Y1135D01*
X228Y1135D01*
X228Y1131D01*
X226Y1131D01*
X226Y1129D01*
X224Y1129D01*
X224Y1127D01*
X222Y1127D01*
X222Y1123D01*
X220Y1123D01*
X220Y1121D01*
X218Y1121D01*
X218Y1119D01*
X216Y1119D01*
X216Y1115D01*
X214Y1115D01*
X214Y1113D01*
X212Y1113D01*
X212Y1111D01*
X210Y1111D01*
X210Y1107D01*
X208Y1107D01*
X208Y1105D01*
X206Y1105D01*
X206Y1103D01*
X204Y1103D01*
X204Y1099D01*
X202Y1099D01*
X202Y1097D01*
X200Y1097D01*
X200Y1095D01*
X198Y1095D01*
X198Y1091D01*
X196Y1091D01*
X196Y1089D01*
X194Y1089D01*
X194Y1087D01*
X192Y1087D01*
X192Y1083D01*
X190Y1083D01*
X190Y1081D01*
X188Y1081D01*
X188Y1079D01*
X186Y1079D01*
X186Y1075D01*
X184Y1075D01*
X184Y1073D01*
X182Y1073D01*
X182Y1069D01*
X180Y1069D01*
X180Y1067D01*
X178Y1067D01*
X178Y1065D01*
X176Y1065D01*
X176Y1061D01*
X174Y1061D01*
X174Y1059D01*
X172Y1059D01*
X172Y1057D01*
X170Y1057D01*
X170Y1053D01*
X168Y1053D01*
X168Y1051D01*
X166Y1051D01*
X166Y1049D01*
X164Y1049D01*
X164Y1045D01*
X162Y1045D01*
X162Y1043D01*
X160Y1043D01*
X160Y1041D01*
X158Y1041D01*
X158Y1037D01*
X156Y1037D01*
X156Y1035D01*
X154Y1035D01*
X154Y741D01*
X292Y741D01*
X292Y739D01*
X298Y739D01*
X298Y737D01*
X302Y737D01*
X302Y735D01*
X304Y735D01*
X304Y733D01*
X308Y733D01*
X308Y731D01*
X310Y731D01*
X310Y729D01*
X312Y729D01*
X312Y727D01*
X314Y727D01*
X314Y725D01*
X316Y725D01*
X316Y723D01*
X318Y723D01*
X318Y721D01*
X368Y721D01*
X368Y723D01*
X370Y723D01*
X370Y725D01*
X372Y725D01*
X372Y727D01*
X374Y727D01*
X374Y729D01*
X376Y729D01*
X376Y731D01*
X378Y731D01*
X378Y733D01*
X382Y733D01*
X382Y755D01*
X380Y755D01*
X380Y757D01*
X378Y757D01*
X378Y759D01*
X376Y759D01*
X376Y761D01*
X374Y761D01*
X374Y763D01*
X370Y763D01*
X370Y765D01*
X368Y765D01*
X368Y767D01*
X366Y767D01*
X366Y769D01*
X364Y769D01*
X364Y771D01*
X362Y771D01*
X362Y773D01*
X360Y773D01*
X360Y775D01*
X358Y775D01*
X358Y779D01*
X356Y779D01*
X356Y781D01*
X354Y781D01*
X354Y785D01*
X352Y785D01*
X352Y801D01*
X354Y801D01*
X354Y807D01*
X356Y807D01*
X356Y811D01*
X358Y811D01*
X358Y817D01*
X360Y817D01*
X360Y821D01*
X362Y821D01*
X362Y827D01*
X364Y827D01*
X364Y831D01*
X366Y831D01*
X366Y837D01*
X368Y837D01*
X368Y841D01*
X370Y841D01*
X370Y847D01*
X372Y847D01*
X372Y851D01*
X374Y851D01*
X374Y857D01*
X376Y857D01*
X376Y861D01*
X378Y861D01*
X378Y867D01*
X380Y867D01*
X380Y889D01*
X374Y889D01*
X374Y1215D01*
X360Y1215D01*
X360Y1217D01*
X332Y1217D01*
X332Y1219D01*
X292Y1219D01*
G37*
D02*
G36*
X1152Y1175D02*
X1152Y1173D01*
X1174Y1173D01*
X1174Y1175D01*
X1152Y1175D01*
G37*
D02*
G36*
X1104Y1125D02*
X1104Y1115D01*
X1176Y1115D01*
X1176Y1117D01*
X1168Y1117D01*
X1168Y1119D01*
X1164Y1119D01*
X1164Y1121D01*
X1150Y1121D01*
X1150Y1123D01*
X1130Y1123D01*
X1130Y1125D01*
X1104Y1125D01*
G37*
D02*
G36*
X1104Y1115D02*
X1104Y1113D01*
X1286Y1113D01*
X1286Y1115D01*
X1104Y1115D01*
G37*
D02*
G36*
X1104Y1115D02*
X1104Y1113D01*
X1286Y1113D01*
X1286Y1115D01*
X1104Y1115D01*
G37*
D02*
G36*
X1104Y1113D02*
X1104Y1095D01*
X1110Y1095D01*
X1110Y1093D01*
X1120Y1093D01*
X1120Y1091D01*
X1130Y1091D01*
X1130Y1089D01*
X1140Y1089D01*
X1140Y1087D01*
X1152Y1087D01*
X1152Y1085D01*
X1162Y1085D01*
X1162Y1083D01*
X1172Y1083D01*
X1172Y1081D01*
X1182Y1081D01*
X1182Y1079D01*
X1192Y1079D01*
X1192Y1077D01*
X1202Y1077D01*
X1202Y1075D01*
X1212Y1075D01*
X1212Y1073D01*
X1222Y1073D01*
X1222Y1071D01*
X1234Y1071D01*
X1234Y1069D01*
X1240Y1069D01*
X1240Y1067D01*
X1244Y1067D01*
X1244Y1065D01*
X1246Y1065D01*
X1246Y1063D01*
X1248Y1063D01*
X1248Y1061D01*
X1250Y1061D01*
X1250Y1057D01*
X1252Y1057D01*
X1252Y1055D01*
X1254Y1055D01*
X1254Y1051D01*
X1256Y1051D01*
X1256Y1047D01*
X1258Y1047D01*
X1258Y1043D01*
X1260Y1043D01*
X1260Y1039D01*
X1262Y1039D01*
X1262Y1035D01*
X1264Y1035D01*
X1264Y1031D01*
X1266Y1031D01*
X1266Y1027D01*
X1286Y1027D01*
X1286Y1113D01*
X1104Y1113D01*
G37*
D02*
G36*
X1104Y969D02*
X1104Y889D01*
X1202Y889D01*
X1202Y935D01*
X1200Y935D01*
X1200Y937D01*
X1198Y937D01*
X1198Y939D01*
X1196Y939D01*
X1196Y941D01*
X1194Y941D01*
X1194Y943D01*
X1192Y943D01*
X1192Y945D01*
X1190Y945D01*
X1190Y947D01*
X1188Y947D01*
X1188Y949D01*
X1186Y949D01*
X1186Y951D01*
X1184Y951D01*
X1184Y953D01*
X1182Y953D01*
X1182Y955D01*
X1180Y955D01*
X1180Y957D01*
X1178Y957D01*
X1178Y961D01*
X1176Y961D01*
X1176Y963D01*
X1174Y963D01*
X1174Y965D01*
X1172Y965D01*
X1172Y967D01*
X1170Y967D01*
X1170Y969D01*
X1104Y969D01*
G37*
D02*
G36*
X444Y889D02*
X444Y887D01*
X1202Y887D01*
X1202Y889D01*
X444Y889D01*
G37*
D02*
G36*
X444Y889D02*
X444Y887D01*
X1202Y887D01*
X1202Y889D01*
X444Y889D01*
G37*
D02*
G36*
X442Y887D02*
X442Y883D01*
X440Y883D01*
X440Y877D01*
X438Y877D01*
X438Y875D01*
X1132Y875D01*
X1132Y873D01*
X1140Y873D01*
X1140Y871D01*
X1144Y871D01*
X1144Y869D01*
X1146Y869D01*
X1146Y867D01*
X1150Y867D01*
X1150Y865D01*
X1152Y865D01*
X1152Y861D01*
X1154Y861D01*
X1154Y859D01*
X1156Y859D01*
X1156Y853D01*
X1158Y853D01*
X1158Y849D01*
X1162Y849D01*
X1162Y847D01*
X1164Y847D01*
X1164Y845D01*
X1166Y845D01*
X1166Y843D01*
X1168Y843D01*
X1168Y841D01*
X1170Y841D01*
X1170Y839D01*
X1172Y839D01*
X1172Y837D01*
X1174Y837D01*
X1174Y835D01*
X1176Y835D01*
X1176Y833D01*
X1178Y833D01*
X1178Y831D01*
X1180Y831D01*
X1180Y829D01*
X1182Y829D01*
X1182Y827D01*
X1202Y827D01*
X1202Y887D01*
X442Y887D01*
G37*
D02*
G36*
X438Y875D02*
X438Y873D01*
X436Y873D01*
X436Y867D01*
X434Y867D01*
X434Y861D01*
X432Y861D01*
X432Y857D01*
X430Y857D01*
X430Y851D01*
X428Y851D01*
X428Y847D01*
X426Y847D01*
X426Y841D01*
X424Y841D01*
X424Y837D01*
X422Y837D01*
X422Y831D01*
X420Y831D01*
X420Y827D01*
X418Y827D01*
X418Y821D01*
X416Y821D01*
X416Y817D01*
X414Y817D01*
X414Y801D01*
X1084Y801D01*
X1084Y799D01*
X1094Y799D01*
X1094Y797D01*
X1100Y797D01*
X1100Y795D01*
X1104Y795D01*
X1104Y793D01*
X1108Y793D01*
X1108Y791D01*
X1110Y791D01*
X1110Y789D01*
X1114Y789D01*
X1114Y787D01*
X1116Y787D01*
X1116Y785D01*
X1118Y785D01*
X1118Y783D01*
X1120Y783D01*
X1120Y781D01*
X1122Y781D01*
X1122Y779D01*
X1124Y779D01*
X1124Y775D01*
X1126Y775D01*
X1126Y773D01*
X1128Y773D01*
X1128Y769D01*
X1130Y769D01*
X1130Y765D01*
X1132Y765D01*
X1132Y757D01*
X1134Y757D01*
X1134Y731D01*
X1132Y731D01*
X1132Y725D01*
X1130Y725D01*
X1130Y719D01*
X1128Y719D01*
X1128Y717D01*
X1126Y717D01*
X1126Y713D01*
X1124Y713D01*
X1124Y711D01*
X1122Y711D01*
X1122Y707D01*
X1120Y707D01*
X1120Y705D01*
X1118Y705D01*
X1118Y703D01*
X1114Y703D01*
X1114Y701D01*
X1112Y701D01*
X1112Y699D01*
X1110Y699D01*
X1110Y697D01*
X1106Y697D01*
X1106Y695D01*
X1104Y695D01*
X1104Y693D01*
X1098Y693D01*
X1098Y691D01*
X1092Y691D01*
X1092Y689D01*
X1154Y689D01*
X1154Y783D01*
X1152Y783D01*
X1152Y785D01*
X1150Y785D01*
X1150Y787D01*
X1148Y787D01*
X1148Y789D01*
X1146Y789D01*
X1146Y791D01*
X1144Y791D01*
X1144Y793D01*
X1142Y793D01*
X1142Y795D01*
X1140Y795D01*
X1140Y797D01*
X1138Y797D01*
X1138Y799D01*
X1136Y799D01*
X1136Y801D01*
X1134Y801D01*
X1134Y803D01*
X1132Y803D01*
X1132Y805D01*
X1130Y805D01*
X1130Y807D01*
X1128Y807D01*
X1128Y811D01*
X1126Y811D01*
X1126Y813D01*
X1124Y813D01*
X1124Y815D01*
X1122Y815D01*
X1122Y817D01*
X1116Y817D01*
X1116Y819D01*
X1112Y819D01*
X1112Y821D01*
X1110Y821D01*
X1110Y823D01*
X1108Y823D01*
X1108Y825D01*
X1106Y825D01*
X1106Y827D01*
X1104Y827D01*
X1104Y831D01*
X1102Y831D01*
X1102Y835D01*
X1100Y835D01*
X1100Y855D01*
X1102Y855D01*
X1102Y859D01*
X1104Y859D01*
X1104Y861D01*
X1106Y861D01*
X1106Y865D01*
X1108Y865D01*
X1108Y867D01*
X1110Y867D01*
X1110Y869D01*
X1114Y869D01*
X1114Y871D01*
X1118Y871D01*
X1118Y873D01*
X1126Y873D01*
X1126Y875D01*
X438Y875D01*
G37*
D02*
G36*
X414Y801D02*
X414Y793D01*
X416Y793D01*
X416Y791D01*
X842Y791D01*
X842Y789D01*
X848Y789D01*
X848Y787D01*
X852Y787D01*
X852Y785D01*
X854Y785D01*
X854Y783D01*
X858Y783D01*
X858Y781D01*
X860Y781D01*
X860Y779D01*
X862Y779D01*
X862Y777D01*
X884Y777D01*
X884Y779D01*
X886Y779D01*
X886Y781D01*
X888Y781D01*
X888Y783D01*
X890Y783D01*
X890Y785D01*
X892Y785D01*
X892Y787D01*
X894Y787D01*
X894Y789D01*
X896Y789D01*
X896Y791D01*
X900Y791D01*
X900Y793D01*
X902Y793D01*
X902Y795D01*
X908Y795D01*
X908Y797D01*
X912Y797D01*
X912Y799D01*
X924Y799D01*
X924Y801D01*
X414Y801D01*
G37*
D02*
G36*
X934Y801D02*
X934Y799D01*
X944Y799D01*
X944Y797D01*
X950Y797D01*
X950Y795D01*
X954Y795D01*
X954Y793D01*
X958Y793D01*
X958Y791D01*
X960Y791D01*
X960Y789D01*
X964Y789D01*
X964Y787D01*
X966Y787D01*
X966Y785D01*
X968Y785D01*
X968Y783D01*
X970Y783D01*
X970Y781D01*
X972Y781D01*
X972Y779D01*
X974Y779D01*
X974Y775D01*
X976Y775D01*
X976Y773D01*
X978Y773D01*
X978Y769D01*
X980Y769D01*
X980Y765D01*
X982Y765D01*
X982Y757D01*
X984Y757D01*
X984Y731D01*
X982Y731D01*
X982Y725D01*
X980Y725D01*
X980Y719D01*
X978Y719D01*
X978Y717D01*
X976Y717D01*
X976Y713D01*
X974Y713D01*
X974Y711D01*
X972Y711D01*
X972Y707D01*
X970Y707D01*
X970Y705D01*
X968Y705D01*
X968Y703D01*
X964Y703D01*
X964Y701D01*
X962Y701D01*
X962Y699D01*
X960Y699D01*
X960Y697D01*
X956Y697D01*
X956Y695D01*
X954Y695D01*
X954Y693D01*
X948Y693D01*
X948Y691D01*
X942Y691D01*
X942Y689D01*
X1066Y689D01*
X1066Y691D01*
X1060Y691D01*
X1060Y693D01*
X1054Y693D01*
X1054Y695D01*
X1050Y695D01*
X1050Y697D01*
X1048Y697D01*
X1048Y699D01*
X1046Y699D01*
X1046Y701D01*
X1042Y701D01*
X1042Y703D01*
X1040Y703D01*
X1040Y705D01*
X1038Y705D01*
X1038Y707D01*
X1036Y707D01*
X1036Y709D01*
X1034Y709D01*
X1034Y713D01*
X1032Y713D01*
X1032Y715D01*
X1030Y715D01*
X1030Y719D01*
X1028Y719D01*
X1028Y723D01*
X1026Y723D01*
X1026Y729D01*
X1024Y729D01*
X1024Y741D01*
X1022Y741D01*
X1022Y747D01*
X1024Y747D01*
X1024Y759D01*
X1026Y759D01*
X1026Y765D01*
X1028Y765D01*
X1028Y769D01*
X1030Y769D01*
X1030Y773D01*
X1032Y773D01*
X1032Y777D01*
X1034Y777D01*
X1034Y779D01*
X1036Y779D01*
X1036Y781D01*
X1038Y781D01*
X1038Y783D01*
X1040Y783D01*
X1040Y785D01*
X1042Y785D01*
X1042Y787D01*
X1044Y787D01*
X1044Y789D01*
X1046Y789D01*
X1046Y791D01*
X1050Y791D01*
X1050Y793D01*
X1052Y793D01*
X1052Y795D01*
X1058Y795D01*
X1058Y797D01*
X1062Y797D01*
X1062Y799D01*
X1074Y799D01*
X1074Y801D01*
X934Y801D01*
G37*
D02*
G36*
X442Y791D02*
X442Y789D01*
X448Y789D01*
X448Y787D01*
X452Y787D01*
X452Y785D01*
X454Y785D01*
X454Y783D01*
X458Y783D01*
X458Y781D01*
X460Y781D01*
X460Y779D01*
X462Y779D01*
X462Y777D01*
X464Y777D01*
X464Y775D01*
X466Y775D01*
X466Y773D01*
X468Y773D01*
X468Y771D01*
X490Y771D01*
X490Y773D01*
X492Y773D01*
X492Y775D01*
X494Y775D01*
X494Y777D01*
X496Y777D01*
X496Y779D01*
X498Y779D01*
X498Y781D01*
X500Y781D01*
X500Y783D01*
X502Y783D01*
X502Y785D01*
X506Y785D01*
X506Y787D01*
X510Y787D01*
X510Y789D01*
X516Y789D01*
X516Y791D01*
X442Y791D01*
G37*
D02*
G36*
X542Y791D02*
X542Y789D01*
X548Y789D01*
X548Y787D01*
X552Y787D01*
X552Y785D01*
X554Y785D01*
X554Y783D01*
X558Y783D01*
X558Y781D01*
X560Y781D01*
X560Y779D01*
X562Y779D01*
X562Y777D01*
X564Y777D01*
X564Y775D01*
X566Y775D01*
X566Y773D01*
X568Y773D01*
X568Y771D01*
X590Y771D01*
X590Y773D01*
X592Y773D01*
X592Y775D01*
X594Y775D01*
X594Y777D01*
X596Y777D01*
X596Y779D01*
X598Y779D01*
X598Y781D01*
X600Y781D01*
X600Y783D01*
X602Y783D01*
X602Y785D01*
X606Y785D01*
X606Y787D01*
X610Y787D01*
X610Y789D01*
X616Y789D01*
X616Y791D01*
X542Y791D01*
G37*
D02*
G36*
X642Y791D02*
X642Y789D01*
X648Y789D01*
X648Y787D01*
X652Y787D01*
X652Y785D01*
X654Y785D01*
X654Y783D01*
X658Y783D01*
X658Y781D01*
X660Y781D01*
X660Y779D01*
X662Y779D01*
X662Y777D01*
X664Y777D01*
X664Y775D01*
X666Y775D01*
X666Y773D01*
X668Y773D01*
X668Y771D01*
X690Y771D01*
X690Y773D01*
X692Y773D01*
X692Y775D01*
X694Y775D01*
X694Y777D01*
X696Y777D01*
X696Y779D01*
X698Y779D01*
X698Y781D01*
X700Y781D01*
X700Y783D01*
X702Y783D01*
X702Y785D01*
X706Y785D01*
X706Y787D01*
X710Y787D01*
X710Y789D01*
X716Y789D01*
X716Y791D01*
X642Y791D01*
G37*
D02*
G36*
X742Y791D02*
X742Y789D01*
X748Y789D01*
X748Y787D01*
X752Y787D01*
X752Y785D01*
X754Y785D01*
X754Y783D01*
X758Y783D01*
X758Y781D01*
X760Y781D01*
X760Y779D01*
X762Y779D01*
X762Y777D01*
X764Y777D01*
X764Y775D01*
X766Y775D01*
X766Y773D01*
X768Y773D01*
X768Y769D01*
X790Y769D01*
X790Y773D01*
X792Y773D01*
X792Y775D01*
X794Y775D01*
X794Y777D01*
X796Y777D01*
X796Y779D01*
X798Y779D01*
X798Y781D01*
X800Y781D01*
X800Y783D01*
X802Y783D01*
X802Y785D01*
X806Y785D01*
X806Y787D01*
X810Y787D01*
X810Y789D01*
X816Y789D01*
X816Y791D01*
X742Y791D01*
G37*
D02*
G36*
X154Y741D02*
X154Y547D01*
X232Y547D01*
X232Y641D01*
X246Y641D01*
X246Y661D01*
X244Y661D01*
X244Y663D01*
X242Y663D01*
X242Y667D01*
X240Y667D01*
X240Y669D01*
X238Y669D01*
X238Y673D01*
X236Y673D01*
X236Y677D01*
X234Y677D01*
X234Y683D01*
X232Y683D01*
X232Y705D01*
X234Y705D01*
X234Y713D01*
X236Y713D01*
X236Y717D01*
X238Y717D01*
X238Y719D01*
X240Y719D01*
X240Y723D01*
X242Y723D01*
X242Y725D01*
X244Y725D01*
X244Y727D01*
X246Y727D01*
X246Y729D01*
X248Y729D01*
X248Y731D01*
X250Y731D01*
X250Y733D01*
X252Y733D01*
X252Y735D01*
X256Y735D01*
X256Y737D01*
X260Y737D01*
X260Y739D01*
X266Y739D01*
X266Y741D01*
X154Y741D01*
G37*
D02*
G36*
X468Y719D02*
X468Y717D01*
X466Y717D01*
X466Y713D01*
X464Y713D01*
X464Y711D01*
X462Y711D01*
X462Y709D01*
X458Y709D01*
X458Y707D01*
X456Y707D01*
X456Y705D01*
X454Y705D01*
X454Y703D01*
X450Y703D01*
X450Y701D01*
X446Y701D01*
X446Y699D01*
X438Y699D01*
X438Y697D01*
X520Y697D01*
X520Y699D01*
X512Y699D01*
X512Y701D01*
X508Y701D01*
X508Y703D01*
X504Y703D01*
X504Y705D01*
X502Y705D01*
X502Y707D01*
X498Y707D01*
X498Y709D01*
X496Y709D01*
X496Y711D01*
X494Y711D01*
X494Y713D01*
X492Y713D01*
X492Y717D01*
X490Y717D01*
X490Y719D01*
X468Y719D01*
G37*
D02*
G36*
X568Y719D02*
X568Y717D01*
X566Y717D01*
X566Y713D01*
X564Y713D01*
X564Y711D01*
X562Y711D01*
X562Y709D01*
X558Y709D01*
X558Y707D01*
X556Y707D01*
X556Y705D01*
X554Y705D01*
X554Y703D01*
X550Y703D01*
X550Y701D01*
X546Y701D01*
X546Y699D01*
X538Y699D01*
X538Y697D01*
X620Y697D01*
X620Y699D01*
X612Y699D01*
X612Y701D01*
X608Y701D01*
X608Y703D01*
X604Y703D01*
X604Y705D01*
X602Y705D01*
X602Y707D01*
X598Y707D01*
X598Y709D01*
X596Y709D01*
X596Y711D01*
X594Y711D01*
X594Y713D01*
X592Y713D01*
X592Y717D01*
X590Y717D01*
X590Y719D01*
X568Y719D01*
G37*
D02*
G36*
X668Y719D02*
X668Y717D01*
X666Y717D01*
X666Y713D01*
X664Y713D01*
X664Y711D01*
X662Y711D01*
X662Y709D01*
X658Y709D01*
X658Y707D01*
X656Y707D01*
X656Y705D01*
X654Y705D01*
X654Y703D01*
X650Y703D01*
X650Y701D01*
X646Y701D01*
X646Y699D01*
X638Y699D01*
X638Y697D01*
X720Y697D01*
X720Y699D01*
X712Y699D01*
X712Y701D01*
X708Y701D01*
X708Y703D01*
X704Y703D01*
X704Y705D01*
X702Y705D01*
X702Y707D01*
X698Y707D01*
X698Y709D01*
X696Y709D01*
X696Y711D01*
X694Y711D01*
X694Y713D01*
X692Y713D01*
X692Y717D01*
X690Y717D01*
X690Y719D01*
X668Y719D01*
G37*
D02*
G36*
X768Y719D02*
X768Y717D01*
X766Y717D01*
X766Y713D01*
X764Y713D01*
X764Y711D01*
X762Y711D01*
X762Y709D01*
X758Y709D01*
X758Y707D01*
X756Y707D01*
X756Y705D01*
X754Y705D01*
X754Y703D01*
X750Y703D01*
X750Y701D01*
X746Y701D01*
X746Y699D01*
X738Y699D01*
X738Y697D01*
X820Y697D01*
X820Y699D01*
X812Y699D01*
X812Y701D01*
X808Y701D01*
X808Y703D01*
X804Y703D01*
X804Y705D01*
X802Y705D01*
X802Y707D01*
X798Y707D01*
X798Y709D01*
X796Y709D01*
X796Y711D01*
X794Y711D01*
X794Y713D01*
X792Y713D01*
X792Y717D01*
X790Y717D01*
X790Y719D01*
X768Y719D01*
G37*
D02*
G36*
X864Y713D02*
X864Y711D01*
X862Y711D01*
X862Y709D01*
X858Y709D01*
X858Y707D01*
X856Y707D01*
X856Y705D01*
X854Y705D01*
X854Y703D01*
X850Y703D01*
X850Y701D01*
X846Y701D01*
X846Y699D01*
X838Y699D01*
X838Y697D01*
X898Y697D01*
X898Y699D01*
X896Y699D01*
X896Y701D01*
X892Y701D01*
X892Y703D01*
X890Y703D01*
X890Y705D01*
X888Y705D01*
X888Y707D01*
X886Y707D01*
X886Y709D01*
X884Y709D01*
X884Y713D01*
X864Y713D01*
G37*
D02*
G36*
X416Y697D02*
X416Y695D01*
X900Y695D01*
X900Y697D01*
X416Y697D01*
G37*
D02*
G36*
X416Y697D02*
X416Y695D01*
X900Y695D01*
X900Y697D01*
X416Y697D01*
G37*
D02*
G36*
X416Y697D02*
X416Y695D01*
X900Y695D01*
X900Y697D01*
X416Y697D01*
G37*
D02*
G36*
X416Y697D02*
X416Y695D01*
X900Y695D01*
X900Y697D01*
X416Y697D01*
G37*
D02*
G36*
X416Y697D02*
X416Y695D01*
X900Y695D01*
X900Y697D01*
X416Y697D01*
G37*
D02*
G36*
X414Y695D02*
X414Y693D01*
X412Y693D01*
X412Y691D01*
X410Y691D01*
X410Y689D01*
X916Y689D01*
X916Y691D01*
X910Y691D01*
X910Y693D01*
X904Y693D01*
X904Y695D01*
X414Y695D01*
G37*
D02*
G36*
X408Y689D02*
X408Y687D01*
X1154Y687D01*
X1154Y689D01*
X408Y689D01*
G37*
D02*
G36*
X408Y689D02*
X408Y687D01*
X1154Y687D01*
X1154Y689D01*
X408Y689D01*
G37*
D02*
G36*
X408Y689D02*
X408Y687D01*
X1154Y687D01*
X1154Y689D01*
X408Y689D01*
G37*
D02*
G36*
X406Y687D02*
X406Y685D01*
X404Y685D01*
X404Y683D01*
X402Y683D01*
X402Y681D01*
X400Y681D01*
X400Y679D01*
X398Y679D01*
X398Y677D01*
X396Y677D01*
X396Y675D01*
X394Y675D01*
X394Y673D01*
X390Y673D01*
X390Y671D01*
X386Y671D01*
X386Y669D01*
X318Y669D01*
X318Y667D01*
X316Y667D01*
X316Y663D01*
X314Y663D01*
X314Y661D01*
X312Y661D01*
X312Y641D01*
X326Y641D01*
X326Y547D01*
X1154Y547D01*
X1154Y687D01*
X406Y687D01*
G37*
D02*
G36*
X154Y547D02*
X154Y545D01*
X1154Y545D01*
X1154Y547D01*
X154Y547D01*
G37*
D02*
G36*
X154Y547D02*
X154Y545D01*
X1154Y545D01*
X1154Y547D01*
X154Y547D01*
G37*
D02*
G36*
X154Y545D02*
X154Y501D01*
X984Y501D01*
X984Y389D01*
X954Y389D01*
X954Y357D01*
X956Y357D01*
X956Y349D01*
X958Y349D01*
X958Y343D01*
X956Y343D01*
X956Y335D01*
X954Y335D01*
X954Y331D01*
X952Y331D01*
X952Y327D01*
X950Y327D01*
X950Y325D01*
X948Y325D01*
X948Y323D01*
X946Y323D01*
X946Y321D01*
X942Y321D01*
X942Y319D01*
X938Y319D01*
X938Y317D01*
X1052Y317D01*
X1052Y389D01*
X1022Y389D01*
X1022Y499D01*
X1024Y499D01*
X1024Y501D01*
X1136Y501D01*
X1136Y503D01*
X1140Y503D01*
X1140Y505D01*
X1144Y505D01*
X1144Y507D01*
X1148Y507D01*
X1148Y509D01*
X1152Y509D01*
X1152Y545D01*
X154Y545D01*
G37*
D02*
G36*
X154Y501D02*
X154Y471D01*
X682Y471D01*
X682Y469D01*
X690Y469D01*
X690Y467D01*
X694Y467D01*
X694Y465D01*
X696Y465D01*
X696Y463D01*
X698Y463D01*
X698Y461D01*
X700Y461D01*
X700Y457D01*
X702Y457D01*
X702Y455D01*
X704Y455D01*
X704Y451D01*
X706Y451D01*
X706Y447D01*
X708Y447D01*
X708Y443D01*
X710Y443D01*
X710Y439D01*
X712Y439D01*
X712Y435D01*
X714Y435D01*
X714Y431D01*
X716Y431D01*
X716Y427D01*
X718Y427D01*
X718Y423D01*
X720Y423D01*
X720Y419D01*
X722Y419D01*
X722Y415D01*
X724Y415D01*
X724Y411D01*
X726Y411D01*
X726Y407D01*
X728Y407D01*
X728Y403D01*
X730Y403D01*
X730Y399D01*
X732Y399D01*
X732Y395D01*
X734Y395D01*
X734Y391D01*
X842Y391D01*
X842Y389D01*
X848Y389D01*
X848Y387D01*
X852Y387D01*
X852Y385D01*
X854Y385D01*
X854Y383D01*
X858Y383D01*
X858Y381D01*
X860Y381D01*
X860Y379D01*
X862Y379D01*
X862Y377D01*
X864Y377D01*
X864Y375D01*
X866Y375D01*
X866Y373D01*
X868Y373D01*
X868Y369D01*
X870Y369D01*
X870Y365D01*
X872Y365D01*
X872Y361D01*
X874Y361D01*
X874Y355D01*
X876Y355D01*
X876Y333D01*
X874Y333D01*
X874Y327D01*
X872Y327D01*
X872Y323D01*
X870Y323D01*
X870Y319D01*
X868Y319D01*
X868Y317D01*
X918Y317D01*
X918Y319D01*
X914Y319D01*
X914Y321D01*
X910Y321D01*
X910Y323D01*
X908Y323D01*
X908Y325D01*
X906Y325D01*
X906Y327D01*
X904Y327D01*
X904Y329D01*
X902Y329D01*
X902Y333D01*
X900Y333D01*
X900Y339D01*
X898Y339D01*
X898Y353D01*
X900Y353D01*
X900Y359D01*
X902Y359D01*
X902Y389D01*
X872Y389D01*
X872Y499D01*
X874Y499D01*
X874Y501D01*
X154Y501D01*
G37*
D02*
G36*
X742Y391D02*
X742Y389D01*
X748Y389D01*
X748Y387D01*
X752Y387D01*
X752Y385D01*
X754Y385D01*
X754Y383D01*
X758Y383D01*
X758Y381D01*
X760Y381D01*
X760Y379D01*
X762Y379D01*
X762Y377D01*
X764Y377D01*
X764Y375D01*
X766Y375D01*
X766Y373D01*
X768Y373D01*
X768Y369D01*
X790Y369D01*
X790Y373D01*
X792Y373D01*
X792Y375D01*
X794Y375D01*
X794Y377D01*
X796Y377D01*
X796Y379D01*
X798Y379D01*
X798Y381D01*
X800Y381D01*
X800Y383D01*
X802Y383D01*
X802Y385D01*
X806Y385D01*
X806Y387D01*
X810Y387D01*
X810Y389D01*
X816Y389D01*
X816Y391D01*
X742Y391D01*
G37*
D02*
G36*
X866Y317D02*
X866Y315D01*
X1052Y315D01*
X1052Y317D01*
X866Y317D01*
G37*
D02*
G36*
X866Y317D02*
X866Y315D01*
X1052Y315D01*
X1052Y317D01*
X866Y317D01*
G37*
D02*
G36*
X866Y315D02*
X866Y313D01*
X864Y313D01*
X864Y311D01*
X862Y311D01*
X862Y309D01*
X858Y309D01*
X858Y307D01*
X856Y307D01*
X856Y305D01*
X854Y305D01*
X854Y271D01*
X1048Y271D01*
X1048Y301D01*
X1050Y301D01*
X1050Y307D01*
X1052Y307D01*
X1052Y315D01*
X866Y315D01*
G37*
D02*
G36*
X1180Y467D02*
X1180Y465D01*
X1176Y465D01*
X1176Y463D01*
X1172Y463D01*
X1172Y461D01*
X1168Y461D01*
X1168Y459D01*
X1164Y459D01*
X1164Y457D01*
X1160Y457D01*
X1160Y455D01*
X1156Y455D01*
X1156Y453D01*
X1152Y453D01*
X1152Y451D01*
X1148Y451D01*
X1148Y449D01*
X1144Y449D01*
X1144Y447D01*
X1140Y447D01*
X1140Y445D01*
X1136Y445D01*
X1136Y443D01*
X1134Y443D01*
X1134Y389D01*
X1104Y389D01*
X1104Y307D01*
X1106Y307D01*
X1106Y299D01*
X1128Y299D01*
X1128Y303D01*
X1130Y303D01*
X1130Y307D01*
X1132Y307D01*
X1132Y311D01*
X1134Y311D01*
X1134Y315D01*
X1136Y315D01*
X1136Y319D01*
X1138Y319D01*
X1138Y323D01*
X1140Y323D01*
X1140Y327D01*
X1142Y327D01*
X1142Y331D01*
X1144Y331D01*
X1144Y335D01*
X1146Y335D01*
X1146Y339D01*
X1148Y339D01*
X1148Y343D01*
X1150Y343D01*
X1150Y347D01*
X1152Y347D01*
X1152Y351D01*
X1154Y351D01*
X1154Y355D01*
X1156Y355D01*
X1156Y359D01*
X1158Y359D01*
X1158Y365D01*
X1160Y365D01*
X1160Y369D01*
X1162Y369D01*
X1162Y373D01*
X1164Y373D01*
X1164Y377D01*
X1166Y377D01*
X1166Y381D01*
X1168Y381D01*
X1168Y385D01*
X1170Y385D01*
X1170Y389D01*
X1172Y389D01*
X1172Y393D01*
X1174Y393D01*
X1174Y397D01*
X1176Y397D01*
X1176Y401D01*
X1178Y401D01*
X1178Y405D01*
X1180Y405D01*
X1180Y409D01*
X1182Y409D01*
X1182Y413D01*
X1184Y413D01*
X1184Y417D01*
X1186Y417D01*
X1186Y421D01*
X1188Y421D01*
X1188Y425D01*
X1190Y425D01*
X1190Y429D01*
X1192Y429D01*
X1192Y433D01*
X1194Y433D01*
X1194Y437D01*
X1196Y437D01*
X1196Y441D01*
X1198Y441D01*
X1198Y445D01*
X1200Y445D01*
X1200Y449D01*
X1202Y449D01*
X1202Y467D01*
X1180Y467D01*
G37*
D02*
G36*
X106Y419D02*
X106Y403D01*
X108Y403D01*
X108Y401D01*
X110Y401D01*
X110Y399D01*
X112Y399D01*
X112Y397D01*
X114Y397D01*
X114Y395D01*
X116Y395D01*
X116Y393D01*
X118Y393D01*
X118Y391D01*
X642Y391D01*
X642Y389D01*
X648Y389D01*
X648Y387D01*
X652Y387D01*
X652Y385D01*
X654Y385D01*
X654Y383D01*
X658Y383D01*
X658Y381D01*
X660Y381D01*
X660Y379D01*
X662Y379D01*
X662Y377D01*
X664Y377D01*
X664Y375D01*
X684Y375D01*
X684Y377D01*
X682Y377D01*
X682Y381D01*
X680Y381D01*
X680Y385D01*
X678Y385D01*
X678Y389D01*
X676Y389D01*
X676Y393D01*
X674Y393D01*
X674Y397D01*
X672Y397D01*
X672Y401D01*
X670Y401D01*
X670Y405D01*
X668Y405D01*
X668Y409D01*
X666Y409D01*
X666Y413D01*
X664Y413D01*
X664Y417D01*
X662Y417D01*
X662Y419D01*
X106Y419D01*
G37*
D02*
G36*
X120Y391D02*
X120Y389D01*
X122Y389D01*
X122Y387D01*
X124Y387D01*
X124Y385D01*
X126Y385D01*
X126Y383D01*
X128Y383D01*
X128Y381D01*
X130Y381D01*
X130Y379D01*
X132Y379D01*
X132Y377D01*
X134Y377D01*
X134Y375D01*
X136Y375D01*
X136Y373D01*
X138Y373D01*
X138Y371D01*
X390Y371D01*
X390Y373D01*
X392Y373D01*
X392Y375D01*
X394Y375D01*
X394Y377D01*
X396Y377D01*
X396Y379D01*
X398Y379D01*
X398Y381D01*
X400Y381D01*
X400Y383D01*
X402Y383D01*
X402Y385D01*
X406Y385D01*
X406Y387D01*
X410Y387D01*
X410Y389D01*
X416Y389D01*
X416Y391D01*
X120Y391D01*
G37*
D02*
G36*
X442Y391D02*
X442Y389D01*
X448Y389D01*
X448Y387D01*
X452Y387D01*
X452Y385D01*
X454Y385D01*
X454Y383D01*
X458Y383D01*
X458Y381D01*
X460Y381D01*
X460Y379D01*
X462Y379D01*
X462Y377D01*
X464Y377D01*
X464Y375D01*
X466Y375D01*
X466Y373D01*
X468Y373D01*
X468Y369D01*
X490Y369D01*
X490Y373D01*
X492Y373D01*
X492Y375D01*
X494Y375D01*
X494Y377D01*
X496Y377D01*
X496Y379D01*
X498Y379D01*
X498Y381D01*
X500Y381D01*
X500Y383D01*
X502Y383D01*
X502Y385D01*
X506Y385D01*
X506Y387D01*
X510Y387D01*
X510Y389D01*
X516Y389D01*
X516Y391D01*
X442Y391D01*
G37*
D02*
G36*
X542Y391D02*
X542Y389D01*
X548Y389D01*
X548Y387D01*
X552Y387D01*
X552Y385D01*
X554Y385D01*
X554Y383D01*
X558Y383D01*
X558Y381D01*
X560Y381D01*
X560Y379D01*
X562Y379D01*
X562Y377D01*
X564Y377D01*
X564Y375D01*
X566Y375D01*
X566Y373D01*
X568Y373D01*
X568Y369D01*
X590Y369D01*
X590Y373D01*
X592Y373D01*
X592Y375D01*
X594Y375D01*
X594Y377D01*
X596Y377D01*
X596Y379D01*
X598Y379D01*
X598Y381D01*
X600Y381D01*
X600Y383D01*
X602Y383D01*
X602Y385D01*
X606Y385D01*
X606Y387D01*
X610Y387D01*
X610Y389D01*
X616Y389D01*
X616Y391D01*
X542Y391D01*
G37*
D02*
G36*
X40Y379D02*
X40Y297D01*
X420Y297D01*
X420Y299D01*
X412Y299D01*
X412Y301D01*
X408Y301D01*
X408Y303D01*
X404Y303D01*
X404Y305D01*
X402Y305D01*
X402Y307D01*
X398Y307D01*
X398Y309D01*
X396Y309D01*
X396Y311D01*
X394Y311D01*
X394Y313D01*
X392Y313D01*
X392Y317D01*
X390Y317D01*
X390Y319D01*
X120Y319D01*
X120Y321D01*
X116Y321D01*
X116Y323D01*
X112Y323D01*
X112Y325D01*
X110Y325D01*
X110Y327D01*
X108Y327D01*
X108Y329D01*
X106Y329D01*
X106Y331D01*
X104Y331D01*
X104Y333D01*
X102Y333D01*
X102Y335D01*
X100Y335D01*
X100Y337D01*
X98Y337D01*
X98Y339D01*
X96Y339D01*
X96Y341D01*
X94Y341D01*
X94Y343D01*
X92Y343D01*
X92Y345D01*
X90Y345D01*
X90Y347D01*
X88Y347D01*
X88Y349D01*
X86Y349D01*
X86Y351D01*
X84Y351D01*
X84Y353D01*
X82Y353D01*
X82Y357D01*
X80Y357D01*
X80Y359D01*
X78Y359D01*
X78Y361D01*
X76Y361D01*
X76Y363D01*
X74Y363D01*
X74Y365D01*
X72Y365D01*
X72Y367D01*
X70Y367D01*
X70Y369D01*
X68Y369D01*
X68Y371D01*
X66Y371D01*
X66Y373D01*
X64Y373D01*
X64Y375D01*
X62Y375D01*
X62Y377D01*
X60Y377D01*
X60Y379D01*
X40Y379D01*
G37*
D02*
G36*
X468Y319D02*
X468Y317D01*
X466Y317D01*
X466Y313D01*
X464Y313D01*
X464Y311D01*
X462Y311D01*
X462Y309D01*
X458Y309D01*
X458Y307D01*
X456Y307D01*
X456Y305D01*
X454Y305D01*
X454Y303D01*
X450Y303D01*
X450Y301D01*
X446Y301D01*
X446Y299D01*
X438Y299D01*
X438Y297D01*
X516Y297D01*
X516Y299D01*
X512Y299D01*
X512Y301D01*
X508Y301D01*
X508Y303D01*
X504Y303D01*
X504Y305D01*
X502Y305D01*
X502Y307D01*
X498Y307D01*
X498Y309D01*
X496Y309D01*
X496Y311D01*
X494Y311D01*
X494Y313D01*
X492Y313D01*
X492Y317D01*
X490Y317D01*
X490Y319D01*
X468Y319D01*
G37*
D02*
G36*
X40Y297D02*
X40Y295D01*
X518Y295D01*
X518Y297D01*
X40Y297D01*
G37*
D02*
G36*
X40Y297D02*
X40Y295D01*
X518Y295D01*
X518Y297D01*
X40Y297D01*
G37*
D02*
G36*
X40Y295D02*
X40Y41D01*
X596Y41D01*
X596Y63D01*
X594Y63D01*
X594Y69D01*
X592Y69D01*
X592Y75D01*
X590Y75D01*
X590Y81D01*
X588Y81D01*
X588Y87D01*
X586Y87D01*
X586Y93D01*
X584Y93D01*
X584Y99D01*
X582Y99D01*
X582Y105D01*
X580Y105D01*
X580Y111D01*
X578Y111D01*
X578Y117D01*
X576Y117D01*
X576Y123D01*
X574Y123D01*
X574Y129D01*
X572Y129D01*
X572Y135D01*
X570Y135D01*
X570Y141D01*
X568Y141D01*
X568Y147D01*
X566Y147D01*
X566Y153D01*
X564Y153D01*
X564Y159D01*
X562Y159D01*
X562Y165D01*
X560Y165D01*
X560Y171D01*
X558Y171D01*
X558Y177D01*
X556Y177D01*
X556Y183D01*
X554Y183D01*
X554Y189D01*
X552Y189D01*
X552Y195D01*
X550Y195D01*
X550Y201D01*
X548Y201D01*
X548Y207D01*
X546Y207D01*
X546Y213D01*
X544Y213D01*
X544Y219D01*
X542Y219D01*
X542Y225D01*
X540Y225D01*
X540Y231D01*
X538Y231D01*
X538Y237D01*
X536Y237D01*
X536Y243D01*
X534Y243D01*
X534Y249D01*
X532Y249D01*
X532Y255D01*
X530Y255D01*
X530Y261D01*
X528Y261D01*
X528Y267D01*
X526Y267D01*
X526Y273D01*
X524Y273D01*
X524Y279D01*
X522Y279D01*
X522Y285D01*
X520Y285D01*
X520Y291D01*
X518Y291D01*
X518Y295D01*
X40Y295D01*
G37*
D02*
G36*
X1266Y345D02*
X1266Y339D01*
X1264Y339D01*
X1264Y335D01*
X1262Y335D01*
X1262Y329D01*
X1260Y329D01*
X1260Y325D01*
X1258Y325D01*
X1258Y319D01*
X1256Y319D01*
X1256Y315D01*
X1254Y315D01*
X1254Y309D01*
X1252Y309D01*
X1252Y305D01*
X1250Y305D01*
X1250Y299D01*
X1248Y299D01*
X1248Y295D01*
X1246Y295D01*
X1246Y289D01*
X1244Y289D01*
X1244Y285D01*
X1242Y285D01*
X1242Y279D01*
X1240Y279D01*
X1240Y275D01*
X1238Y275D01*
X1238Y269D01*
X1236Y269D01*
X1236Y265D01*
X1234Y265D01*
X1234Y259D01*
X1232Y259D01*
X1232Y255D01*
X1230Y255D01*
X1230Y249D01*
X1228Y249D01*
X1228Y245D01*
X1226Y245D01*
X1226Y239D01*
X1224Y239D01*
X1224Y235D01*
X1222Y235D01*
X1222Y229D01*
X1220Y229D01*
X1220Y225D01*
X1218Y225D01*
X1218Y219D01*
X1216Y219D01*
X1216Y215D01*
X1214Y215D01*
X1214Y209D01*
X1212Y209D01*
X1212Y205D01*
X1210Y205D01*
X1210Y199D01*
X1208Y199D01*
X1208Y195D01*
X1206Y195D01*
X1206Y189D01*
X1204Y189D01*
X1204Y185D01*
X1202Y185D01*
X1202Y181D01*
X1200Y181D01*
X1200Y179D01*
X1198Y179D01*
X1198Y175D01*
X1196Y175D01*
X1196Y173D01*
X1194Y173D01*
X1194Y171D01*
X1192Y171D01*
X1192Y169D01*
X1190Y169D01*
X1190Y167D01*
X1188Y167D01*
X1188Y165D01*
X1186Y165D01*
X1186Y163D01*
X1184Y163D01*
X1184Y161D01*
X1182Y161D01*
X1182Y159D01*
X1180Y159D01*
X1180Y157D01*
X1178Y157D01*
X1178Y155D01*
X1176Y155D01*
X1176Y153D01*
X1174Y153D01*
X1174Y151D01*
X1172Y151D01*
X1172Y149D01*
X1170Y149D01*
X1170Y147D01*
X1168Y147D01*
X1168Y145D01*
X1166Y145D01*
X1166Y143D01*
X1164Y143D01*
X1164Y141D01*
X1162Y141D01*
X1162Y139D01*
X1160Y139D01*
X1160Y137D01*
X1158Y137D01*
X1158Y135D01*
X1156Y135D01*
X1156Y133D01*
X1154Y133D01*
X1154Y131D01*
X1152Y131D01*
X1152Y129D01*
X1150Y129D01*
X1150Y127D01*
X1148Y127D01*
X1148Y125D01*
X1146Y125D01*
X1146Y123D01*
X1144Y123D01*
X1144Y121D01*
X1142Y121D01*
X1142Y119D01*
X1140Y119D01*
X1140Y117D01*
X1138Y117D01*
X1138Y115D01*
X1136Y115D01*
X1136Y113D01*
X1134Y113D01*
X1134Y111D01*
X1132Y111D01*
X1132Y109D01*
X1130Y109D01*
X1130Y107D01*
X1128Y107D01*
X1128Y105D01*
X1126Y105D01*
X1126Y103D01*
X1124Y103D01*
X1124Y101D01*
X1122Y101D01*
X1122Y99D01*
X1120Y99D01*
X1120Y97D01*
X1118Y97D01*
X1118Y95D01*
X1116Y95D01*
X1116Y93D01*
X1114Y93D01*
X1114Y91D01*
X1112Y91D01*
X1112Y89D01*
X1110Y89D01*
X1110Y87D01*
X1108Y87D01*
X1108Y85D01*
X1106Y85D01*
X1106Y83D01*
X1104Y83D01*
X1104Y81D01*
X1102Y81D01*
X1102Y79D01*
X1100Y79D01*
X1100Y77D01*
X1098Y77D01*
X1098Y75D01*
X1096Y75D01*
X1096Y73D01*
X1094Y73D01*
X1094Y71D01*
X1092Y71D01*
X1092Y69D01*
X1090Y69D01*
X1090Y67D01*
X1088Y67D01*
X1088Y65D01*
X1086Y65D01*
X1086Y63D01*
X1084Y63D01*
X1084Y61D01*
X1082Y61D01*
X1082Y41D01*
X1286Y41D01*
X1286Y345D01*
X1266Y345D01*
G37*
D02*
G36*
X570Y319D02*
X570Y301D01*
X572Y301D01*
X572Y295D01*
X574Y295D01*
X574Y289D01*
X576Y289D01*
X576Y283D01*
X578Y283D01*
X578Y277D01*
X580Y277D01*
X580Y271D01*
X582Y271D01*
X582Y265D01*
X584Y265D01*
X584Y259D01*
X586Y259D01*
X586Y253D01*
X588Y253D01*
X588Y247D01*
X590Y247D01*
X590Y241D01*
X592Y241D01*
X592Y235D01*
X594Y235D01*
X594Y229D01*
X596Y229D01*
X596Y223D01*
X598Y223D01*
X598Y217D01*
X600Y217D01*
X600Y211D01*
X602Y211D01*
X602Y205D01*
X604Y205D01*
X604Y199D01*
X606Y199D01*
X606Y193D01*
X608Y193D01*
X608Y187D01*
X610Y187D01*
X610Y181D01*
X612Y181D01*
X612Y175D01*
X614Y175D01*
X614Y169D01*
X616Y169D01*
X616Y163D01*
X618Y163D01*
X618Y157D01*
X620Y157D01*
X620Y151D01*
X622Y151D01*
X622Y145D01*
X642Y145D01*
X642Y151D01*
X640Y151D01*
X640Y161D01*
X638Y161D01*
X638Y171D01*
X636Y171D01*
X636Y181D01*
X634Y181D01*
X634Y191D01*
X632Y191D01*
X632Y201D01*
X630Y201D01*
X630Y211D01*
X628Y211D01*
X628Y221D01*
X626Y221D01*
X626Y231D01*
X624Y231D01*
X624Y241D01*
X622Y241D01*
X622Y251D01*
X620Y251D01*
X620Y261D01*
X618Y261D01*
X618Y271D01*
X616Y271D01*
X616Y281D01*
X614Y281D01*
X614Y291D01*
X612Y291D01*
X612Y301D01*
X608Y301D01*
X608Y303D01*
X604Y303D01*
X604Y305D01*
X602Y305D01*
X602Y307D01*
X598Y307D01*
X598Y309D01*
X596Y309D01*
X596Y311D01*
X594Y311D01*
X594Y313D01*
X592Y313D01*
X592Y317D01*
X590Y317D01*
X590Y319D01*
X570Y319D01*
G37*
D02*
G36*
X668Y319D02*
X668Y317D01*
X666Y317D01*
X666Y287D01*
X668Y287D01*
X668Y277D01*
X670Y277D01*
X670Y267D01*
X672Y267D01*
X672Y257D01*
X674Y257D01*
X674Y247D01*
X676Y247D01*
X676Y237D01*
X678Y237D01*
X678Y227D01*
X680Y227D01*
X680Y217D01*
X682Y217D01*
X682Y207D01*
X684Y207D01*
X684Y197D01*
X686Y197D01*
X686Y187D01*
X688Y187D01*
X688Y177D01*
X690Y177D01*
X690Y167D01*
X692Y167D01*
X692Y157D01*
X694Y157D01*
X694Y147D01*
X696Y147D01*
X696Y137D01*
X698Y137D01*
X698Y127D01*
X700Y127D01*
X700Y121D01*
X754Y121D01*
X754Y141D01*
X752Y141D01*
X752Y149D01*
X750Y149D01*
X750Y157D01*
X748Y157D01*
X748Y165D01*
X746Y165D01*
X746Y173D01*
X744Y173D01*
X744Y181D01*
X742Y181D01*
X742Y189D01*
X740Y189D01*
X740Y197D01*
X738Y197D01*
X738Y205D01*
X736Y205D01*
X736Y213D01*
X734Y213D01*
X734Y221D01*
X732Y221D01*
X732Y229D01*
X730Y229D01*
X730Y237D01*
X728Y237D01*
X728Y245D01*
X726Y245D01*
X726Y253D01*
X724Y253D01*
X724Y261D01*
X722Y261D01*
X722Y269D01*
X720Y269D01*
X720Y277D01*
X718Y277D01*
X718Y285D01*
X716Y285D01*
X716Y293D01*
X714Y293D01*
X714Y299D01*
X712Y299D01*
X712Y301D01*
X708Y301D01*
X708Y303D01*
X704Y303D01*
X704Y305D01*
X702Y305D01*
X702Y307D01*
X698Y307D01*
X698Y309D01*
X696Y309D01*
X696Y311D01*
X694Y311D01*
X694Y313D01*
X692Y313D01*
X692Y317D01*
X690Y317D01*
X690Y319D01*
X668Y319D01*
G37*
D02*
G36*
X768Y319D02*
X768Y291D01*
X770Y291D01*
X770Y283D01*
X772Y283D01*
X772Y275D01*
X774Y275D01*
X774Y267D01*
X776Y267D01*
X776Y259D01*
X778Y259D01*
X778Y251D01*
X780Y251D01*
X780Y243D01*
X782Y243D01*
X782Y235D01*
X784Y235D01*
X784Y227D01*
X786Y227D01*
X786Y219D01*
X820Y219D01*
X820Y221D01*
X816Y221D01*
X816Y223D01*
X812Y223D01*
X812Y225D01*
X810Y225D01*
X810Y227D01*
X808Y227D01*
X808Y231D01*
X806Y231D01*
X806Y235D01*
X804Y235D01*
X804Y243D01*
X802Y243D01*
X802Y307D01*
X798Y307D01*
X798Y309D01*
X796Y309D01*
X796Y311D01*
X794Y311D01*
X794Y313D01*
X792Y313D01*
X792Y317D01*
X790Y317D01*
X790Y319D01*
X768Y319D01*
G37*
D02*
G36*
X1142Y223D02*
X1142Y221D01*
X1138Y221D01*
X1138Y219D01*
X1162Y219D01*
X1162Y223D01*
X1142Y223D01*
G37*
D02*
G36*
X788Y219D02*
X788Y217D01*
X1160Y217D01*
X1160Y219D01*
X788Y219D01*
G37*
D02*
G36*
X788Y219D02*
X788Y217D01*
X1160Y217D01*
X1160Y219D01*
X788Y219D01*
G37*
D02*
G36*
X788Y217D02*
X788Y211D01*
X790Y211D01*
X790Y203D01*
X792Y203D01*
X792Y195D01*
X794Y195D01*
X794Y187D01*
X796Y187D01*
X796Y179D01*
X798Y179D01*
X798Y175D01*
X880Y175D01*
X880Y173D01*
X890Y173D01*
X890Y171D01*
X894Y171D01*
X894Y169D01*
X896Y169D01*
X896Y167D01*
X900Y167D01*
X900Y163D01*
X902Y163D01*
X902Y161D01*
X904Y161D01*
X904Y159D01*
X906Y159D01*
X906Y153D01*
X908Y153D01*
X908Y125D01*
X980Y125D01*
X980Y123D01*
X990Y123D01*
X990Y121D01*
X994Y121D01*
X994Y119D01*
X996Y119D01*
X996Y117D01*
X1000Y117D01*
X1000Y113D01*
X1002Y113D01*
X1002Y111D01*
X1004Y111D01*
X1004Y109D01*
X1006Y109D01*
X1006Y103D01*
X1008Y103D01*
X1008Y79D01*
X1028Y79D01*
X1028Y81D01*
X1030Y81D01*
X1030Y83D01*
X1032Y83D01*
X1032Y85D01*
X1034Y85D01*
X1034Y87D01*
X1036Y87D01*
X1036Y89D01*
X1038Y89D01*
X1038Y91D01*
X1040Y91D01*
X1040Y93D01*
X1042Y93D01*
X1042Y95D01*
X1044Y95D01*
X1044Y97D01*
X1046Y97D01*
X1046Y99D01*
X1048Y99D01*
X1048Y101D01*
X1050Y101D01*
X1050Y103D01*
X1052Y103D01*
X1052Y105D01*
X1054Y105D01*
X1054Y107D01*
X1056Y107D01*
X1056Y109D01*
X1058Y109D01*
X1058Y111D01*
X1060Y111D01*
X1060Y113D01*
X1062Y113D01*
X1062Y115D01*
X1064Y115D01*
X1064Y117D01*
X1066Y117D01*
X1066Y119D01*
X1068Y119D01*
X1068Y121D01*
X1070Y121D01*
X1070Y123D01*
X1072Y123D01*
X1072Y125D01*
X1074Y125D01*
X1074Y127D01*
X1076Y127D01*
X1076Y129D01*
X1078Y129D01*
X1078Y131D01*
X1080Y131D01*
X1080Y133D01*
X1082Y133D01*
X1082Y135D01*
X1084Y135D01*
X1084Y137D01*
X1086Y137D01*
X1086Y139D01*
X1088Y139D01*
X1088Y141D01*
X1090Y141D01*
X1090Y143D01*
X1092Y143D01*
X1092Y145D01*
X1094Y145D01*
X1094Y147D01*
X1096Y147D01*
X1096Y149D01*
X1098Y149D01*
X1098Y151D01*
X1100Y151D01*
X1100Y153D01*
X1102Y153D01*
X1102Y155D01*
X1104Y155D01*
X1104Y157D01*
X1106Y157D01*
X1106Y159D01*
X1108Y159D01*
X1108Y161D01*
X1110Y161D01*
X1110Y163D01*
X1112Y163D01*
X1112Y165D01*
X1114Y165D01*
X1114Y167D01*
X1116Y167D01*
X1116Y169D01*
X1118Y169D01*
X1118Y171D01*
X1120Y171D01*
X1120Y173D01*
X1122Y173D01*
X1122Y175D01*
X1124Y175D01*
X1124Y177D01*
X1126Y177D01*
X1126Y179D01*
X1128Y179D01*
X1128Y181D01*
X1130Y181D01*
X1130Y183D01*
X1132Y183D01*
X1132Y185D01*
X1134Y185D01*
X1134Y187D01*
X1136Y187D01*
X1136Y189D01*
X1138Y189D01*
X1138Y191D01*
X1140Y191D01*
X1140Y193D01*
X1142Y193D01*
X1142Y195D01*
X1144Y195D01*
X1144Y197D01*
X1146Y197D01*
X1146Y199D01*
X1148Y199D01*
X1148Y201D01*
X1150Y201D01*
X1150Y203D01*
X1152Y203D01*
X1152Y205D01*
X1154Y205D01*
X1154Y207D01*
X1156Y207D01*
X1156Y209D01*
X1158Y209D01*
X1158Y215D01*
X1160Y215D01*
X1160Y217D01*
X788Y217D01*
G37*
D02*
G36*
X798Y175D02*
X798Y171D01*
X868Y171D01*
X868Y173D01*
X878Y173D01*
X878Y175D01*
X798Y175D01*
G37*
D02*
G36*
X908Y125D02*
X908Y121D01*
X968Y121D01*
X968Y123D01*
X978Y123D01*
X978Y125D01*
X908Y125D01*
G37*
D02*
G36*
X990Y938D02*
X1044Y938D01*
X1044Y909D01*
X990Y909D01*
X990Y938D01*
G37*
D02*
G36*
X1046Y938D02*
X1104Y938D01*
X1104Y909D01*
X1046Y909D01*
X1046Y938D01*
G37*
D02*
G36*
X1050Y723D02*
X1101Y723D01*
X1101Y689D01*
X1050Y689D01*
X1050Y723D01*
G37*
D02*
G36*
X900Y805D02*
X951Y805D01*
X951Y773D01*
X900Y773D01*
X900Y805D01*
G37*
D02*
G36*
X900Y723D02*
X951Y723D01*
X951Y689D01*
X900Y689D01*
X900Y723D01*
G37*
D02*
G36*
X804Y795D02*
X847Y795D01*
X847Y765D01*
X804Y765D01*
X804Y795D01*
G37*
D02*
G36*
X256Y581D02*
X299Y581D01*
X299Y547D01*
X256Y547D01*
X256Y581D01*
G37*
D02*
G36*
X228Y619D02*
X260Y619D01*
X260Y576D01*
X228Y576D01*
X228Y619D01*
G37*
D02*
G54D17*
X384Y1497D02*
X472Y1497D01*
X1004Y1497D02*
X1092Y1497D01*
X384Y1496D02*
X472Y1496D01*
X1004Y1496D02*
X1092Y1496D01*
X384Y1495D02*
X472Y1495D01*
X1004Y1495D02*
X1092Y1495D01*
X384Y1494D02*
X472Y1494D01*
X1004Y1494D02*
X1092Y1494D01*
X384Y1493D02*
X472Y1493D01*
X1004Y1493D02*
X1092Y1493D01*
X384Y1492D02*
X472Y1492D01*
X1004Y1492D02*
X1092Y1492D01*
X384Y1491D02*
X472Y1491D01*
X1004Y1491D02*
X1092Y1491D01*
X384Y1490D02*
X472Y1490D01*
X1004Y1490D02*
X1092Y1490D01*
X384Y1489D02*
X472Y1489D01*
X1004Y1489D02*
X1092Y1489D01*
X384Y1488D02*
X472Y1488D01*
X1004Y1488D02*
X1092Y1488D01*
X384Y1487D02*
X472Y1487D01*
X1004Y1487D02*
X1092Y1487D01*
X384Y1486D02*
X472Y1486D01*
X1004Y1486D02*
X1092Y1486D01*
X384Y1485D02*
X447Y1485D01*
X457Y1485D02*
X472Y1485D01*
X1004Y1485D02*
X1019Y1485D01*
X1029Y1485D02*
X1092Y1485D01*
X384Y1484D02*
X445Y1484D01*
X459Y1484D02*
X472Y1484D01*
X1004Y1484D02*
X1017Y1484D01*
X1031Y1484D02*
X1092Y1484D01*
X384Y1483D02*
X444Y1483D01*
X460Y1483D02*
X472Y1483D01*
X1004Y1483D02*
X1016Y1483D01*
X1032Y1483D02*
X1092Y1483D01*
X384Y1482D02*
X443Y1482D01*
X461Y1482D02*
X472Y1482D01*
X1004Y1482D02*
X1015Y1482D01*
X1033Y1482D02*
X1092Y1482D01*
X384Y1481D02*
X442Y1481D01*
X462Y1481D02*
X472Y1481D01*
X1004Y1481D02*
X1014Y1481D01*
X1034Y1481D02*
X1092Y1481D01*
X384Y1480D02*
X441Y1480D01*
X463Y1480D02*
X472Y1480D01*
X1004Y1480D02*
X1013Y1480D01*
X1035Y1480D02*
X1092Y1480D01*
X384Y1479D02*
X441Y1479D01*
X463Y1479D02*
X472Y1479D01*
X1004Y1479D02*
X1013Y1479D01*
X1035Y1479D02*
X1092Y1479D01*
X384Y1478D02*
X440Y1478D01*
X464Y1478D02*
X472Y1478D01*
X1004Y1478D02*
X1012Y1478D01*
X1036Y1478D02*
X1092Y1478D01*
X384Y1477D02*
X440Y1477D01*
X464Y1477D02*
X472Y1477D01*
X1004Y1477D02*
X1012Y1477D01*
X1036Y1477D02*
X1092Y1477D01*
X384Y1476D02*
X440Y1476D01*
X464Y1476D02*
X472Y1476D01*
X1004Y1476D02*
X1012Y1476D01*
X1036Y1476D02*
X1092Y1476D01*
X384Y1475D02*
X440Y1475D01*
X465Y1475D02*
X472Y1475D01*
X1004Y1475D02*
X1011Y1475D01*
X1036Y1475D02*
X1092Y1475D01*
X384Y1474D02*
X439Y1474D01*
X465Y1474D02*
X472Y1474D01*
X1004Y1474D02*
X1011Y1474D01*
X1037Y1474D02*
X1092Y1474D01*
X384Y1473D02*
X439Y1473D01*
X465Y1473D02*
X472Y1473D01*
X1004Y1473D02*
X1011Y1473D01*
X1036Y1473D02*
X1092Y1473D01*
X384Y1472D02*
X440Y1472D01*
X465Y1472D02*
X472Y1472D01*
X1004Y1472D02*
X1011Y1472D01*
X1036Y1472D02*
X1092Y1472D01*
X384Y1471D02*
X440Y1471D01*
X464Y1471D02*
X472Y1471D01*
X1004Y1471D02*
X1012Y1471D01*
X1036Y1471D02*
X1092Y1471D01*
X384Y1470D02*
X440Y1470D01*
X464Y1470D02*
X472Y1470D01*
X1004Y1470D02*
X1012Y1470D01*
X1036Y1470D02*
X1092Y1470D01*
X384Y1469D02*
X440Y1469D01*
X464Y1469D02*
X472Y1469D01*
X1004Y1469D02*
X1012Y1469D01*
X1036Y1469D02*
X1092Y1469D01*
X384Y1468D02*
X441Y1468D01*
X463Y1468D02*
X472Y1468D01*
X1004Y1468D02*
X1013Y1468D01*
X1035Y1468D02*
X1092Y1468D01*
X384Y1467D02*
X442Y1467D01*
X463Y1467D02*
X472Y1467D01*
X1004Y1467D02*
X1013Y1467D01*
X1034Y1467D02*
X1092Y1467D01*
X384Y1466D02*
X442Y1466D01*
X462Y1466D02*
X472Y1466D01*
X1004Y1466D02*
X1014Y1466D01*
X1034Y1466D02*
X1092Y1466D01*
X384Y1465D02*
X443Y1465D01*
X461Y1465D02*
X472Y1465D01*
X1004Y1465D02*
X1015Y1465D01*
X1033Y1465D02*
X1092Y1465D01*
X384Y1464D02*
X444Y1464D01*
X460Y1464D02*
X472Y1464D01*
X1004Y1464D02*
X1016Y1464D01*
X1032Y1464D02*
X1092Y1464D01*
X384Y1463D02*
X446Y1463D01*
X458Y1463D02*
X472Y1463D01*
X1004Y1463D02*
X1018Y1463D01*
X1030Y1463D02*
X1092Y1463D01*
X384Y1462D02*
X449Y1462D01*
X455Y1462D02*
X472Y1462D01*
X1004Y1462D02*
X1021Y1462D01*
X1027Y1462D02*
X1092Y1462D01*
X384Y1461D02*
X472Y1461D01*
X1004Y1461D02*
X1092Y1461D01*
X384Y1460D02*
X472Y1460D01*
X1004Y1460D02*
X1092Y1460D01*
X384Y1459D02*
X472Y1459D01*
X1004Y1459D02*
X1092Y1459D01*
X384Y1458D02*
X472Y1458D01*
X1004Y1458D02*
X1092Y1458D01*
X384Y1457D02*
X472Y1457D01*
X1004Y1457D02*
X1092Y1457D01*
X384Y1456D02*
X472Y1456D01*
X1004Y1456D02*
X1092Y1456D01*
X384Y1455D02*
X472Y1455D01*
X1004Y1455D02*
X1092Y1455D01*
X384Y1454D02*
X472Y1454D01*
X1004Y1454D02*
X1092Y1454D01*
X384Y1453D02*
X472Y1453D01*
X1004Y1453D02*
X1092Y1453D01*
X384Y1452D02*
X472Y1452D01*
X1004Y1452D02*
X1092Y1452D01*
X384Y1451D02*
X472Y1451D01*
X1004Y1451D02*
X1092Y1451D01*
X384Y1418D02*
X472Y1418D01*
X1004Y1418D02*
X1092Y1418D01*
X384Y1417D02*
X472Y1417D01*
X1004Y1417D02*
X1092Y1417D01*
X384Y1416D02*
X472Y1416D01*
X1004Y1416D02*
X1092Y1416D01*
X384Y1415D02*
X472Y1415D01*
X1004Y1415D02*
X1092Y1415D01*
X384Y1414D02*
X472Y1414D01*
X1004Y1414D02*
X1092Y1414D01*
X384Y1413D02*
X472Y1413D01*
X1004Y1413D02*
X1092Y1413D01*
X384Y1412D02*
X472Y1412D01*
X1004Y1412D02*
X1092Y1412D01*
X384Y1411D02*
X472Y1411D01*
X1004Y1411D02*
X1092Y1411D01*
X384Y1410D02*
X472Y1410D01*
X1004Y1410D02*
X1092Y1410D01*
X384Y1409D02*
X472Y1409D01*
X1004Y1409D02*
X1092Y1409D01*
X384Y1408D02*
X472Y1408D01*
X1004Y1408D02*
X1092Y1408D01*
X384Y1407D02*
X451Y1407D01*
X453Y1407D02*
X472Y1407D01*
X1004Y1407D02*
X1022Y1407D01*
X1026Y1407D02*
X1092Y1407D01*
X384Y1406D02*
X447Y1406D01*
X458Y1406D02*
X472Y1406D01*
X1004Y1406D02*
X1018Y1406D01*
X1030Y1406D02*
X1092Y1406D01*
X384Y1405D02*
X445Y1405D01*
X459Y1405D02*
X472Y1405D01*
X1004Y1405D02*
X1017Y1405D01*
X1031Y1405D02*
X1092Y1405D01*
X384Y1404D02*
X444Y1404D01*
X461Y1404D02*
X472Y1404D01*
X1004Y1404D02*
X1015Y1404D01*
X1033Y1404D02*
X1092Y1404D01*
X384Y1403D02*
X443Y1403D01*
X462Y1403D02*
X472Y1403D01*
X1004Y1403D02*
X1014Y1403D01*
X1034Y1403D02*
X1092Y1403D01*
X384Y1402D02*
X442Y1402D01*
X462Y1402D02*
X472Y1402D01*
X1004Y1402D02*
X1014Y1402D01*
X1034Y1402D02*
X1092Y1402D01*
X384Y1401D02*
X441Y1401D01*
X463Y1401D02*
X472Y1401D01*
X1004Y1401D02*
X1013Y1401D01*
X1035Y1401D02*
X1092Y1401D01*
X384Y1400D02*
X441Y1400D01*
X464Y1400D02*
X472Y1400D01*
X1004Y1400D02*
X1012Y1400D01*
X1035Y1400D02*
X1092Y1400D01*
X384Y1399D02*
X440Y1399D01*
X464Y1399D02*
X472Y1399D01*
X1004Y1399D02*
X1012Y1399D01*
X1036Y1399D02*
X1092Y1399D01*
X384Y1398D02*
X440Y1398D01*
X464Y1398D02*
X472Y1398D01*
X1004Y1398D02*
X1012Y1398D01*
X1036Y1398D02*
X1092Y1398D01*
X384Y1397D02*
X440Y1397D01*
X464Y1397D02*
X472Y1397D01*
X1004Y1397D02*
X1012Y1397D01*
X1036Y1397D02*
X1092Y1397D01*
X384Y1396D02*
X440Y1396D01*
X465Y1396D02*
X472Y1396D01*
X1004Y1396D02*
X1011Y1396D01*
X1036Y1396D02*
X1092Y1396D01*
X384Y1395D02*
X439Y1395D01*
X465Y1395D02*
X472Y1395D01*
X1004Y1395D02*
X1011Y1395D01*
X1037Y1395D02*
X1092Y1395D01*
X384Y1394D02*
X440Y1394D01*
X465Y1394D02*
X472Y1394D01*
X1004Y1394D02*
X1011Y1394D01*
X1036Y1394D02*
X1092Y1394D01*
X384Y1393D02*
X440Y1393D01*
X464Y1393D02*
X472Y1393D01*
X1004Y1393D02*
X1012Y1393D01*
X1036Y1393D02*
X1092Y1393D01*
X384Y1392D02*
X440Y1392D01*
X464Y1392D02*
X472Y1392D01*
X1004Y1392D02*
X1012Y1392D01*
X1036Y1392D02*
X1092Y1392D01*
X384Y1391D02*
X440Y1391D01*
X464Y1391D02*
X472Y1391D01*
X1004Y1391D02*
X1012Y1391D01*
X1036Y1391D02*
X1092Y1391D01*
X384Y1390D02*
X440Y1390D01*
X464Y1390D02*
X472Y1390D01*
X1004Y1390D02*
X1012Y1390D01*
X1035Y1390D02*
X1092Y1390D01*
X384Y1389D02*
X441Y1389D01*
X463Y1389D02*
X472Y1389D01*
X1004Y1389D02*
X1013Y1389D01*
X1035Y1389D02*
X1092Y1389D01*
X384Y1388D02*
X442Y1388D01*
X462Y1388D02*
X472Y1388D01*
X1004Y1388D02*
X1014Y1388D01*
X1034Y1388D02*
X1092Y1388D01*
X384Y1387D02*
X442Y1387D01*
X462Y1387D02*
X472Y1387D01*
X1004Y1387D02*
X1014Y1387D01*
X1033Y1387D02*
X1092Y1387D01*
X384Y1386D02*
X443Y1386D01*
X461Y1386D02*
X472Y1386D01*
X1004Y1386D02*
X1015Y1386D01*
X1033Y1386D02*
X1092Y1386D01*
X384Y1385D02*
X445Y1385D01*
X459Y1385D02*
X472Y1385D01*
X1004Y1385D02*
X1017Y1385D01*
X1031Y1385D02*
X1092Y1385D01*
X384Y1384D02*
X446Y1384D01*
X458Y1384D02*
X472Y1384D01*
X1004Y1384D02*
X1018Y1384D01*
X1030Y1384D02*
X1092Y1384D01*
X384Y1383D02*
X449Y1383D01*
X455Y1383D02*
X472Y1383D01*
X1004Y1383D02*
X1022Y1383D01*
X1026Y1383D02*
X1092Y1383D01*
X384Y1382D02*
X472Y1382D01*
X1004Y1382D02*
X1092Y1382D01*
X384Y1381D02*
X472Y1381D01*
X1004Y1381D02*
X1092Y1381D01*
X384Y1380D02*
X472Y1380D01*
X1004Y1380D02*
X1092Y1380D01*
X384Y1379D02*
X472Y1379D01*
X1004Y1379D02*
X1092Y1379D01*
X384Y1378D02*
X472Y1378D01*
X1004Y1378D02*
X1092Y1378D01*
X384Y1377D02*
X472Y1377D01*
X1004Y1377D02*
X1092Y1377D01*
X384Y1376D02*
X472Y1376D01*
X1004Y1376D02*
X1092Y1376D01*
X384Y1375D02*
X472Y1375D01*
X1004Y1375D02*
X1092Y1375D01*
X384Y1374D02*
X472Y1374D01*
X1004Y1374D02*
X1092Y1374D01*
X384Y1373D02*
X472Y1373D01*
X1004Y1373D02*
X1092Y1373D01*
X384Y1372D02*
X472Y1372D01*
X1004Y1372D02*
X1092Y1372D01*
X384Y1339D02*
X472Y1339D01*
X1004Y1339D02*
X1092Y1339D01*
X384Y1338D02*
X472Y1338D01*
X1004Y1338D02*
X1092Y1338D01*
X384Y1337D02*
X472Y1337D01*
X1004Y1337D02*
X1092Y1337D01*
X384Y1336D02*
X472Y1336D01*
X1004Y1336D02*
X1092Y1336D01*
X384Y1335D02*
X472Y1335D01*
X1004Y1335D02*
X1092Y1335D01*
X384Y1334D02*
X472Y1334D01*
X1004Y1334D02*
X1092Y1334D01*
X384Y1333D02*
X472Y1333D01*
X1004Y1333D02*
X1092Y1333D01*
X384Y1332D02*
X472Y1332D01*
X1004Y1332D02*
X1092Y1332D01*
X384Y1331D02*
X472Y1331D01*
X1004Y1331D02*
X1092Y1331D01*
X384Y1330D02*
X472Y1330D01*
X1004Y1330D02*
X1092Y1330D01*
X384Y1329D02*
X472Y1329D01*
X1004Y1329D02*
X1092Y1329D01*
X384Y1328D02*
X449Y1328D01*
X455Y1328D02*
X472Y1328D01*
X1004Y1328D02*
X1020Y1328D01*
X1027Y1328D02*
X1092Y1328D01*
X384Y1327D02*
X446Y1327D01*
X458Y1327D02*
X472Y1327D01*
X1004Y1327D02*
X1018Y1327D01*
X1030Y1327D02*
X1092Y1327D01*
X384Y1326D02*
X445Y1326D01*
X460Y1326D02*
X472Y1326D01*
X1004Y1326D02*
X1016Y1326D01*
X1032Y1326D02*
X1092Y1326D01*
X384Y1325D02*
X443Y1325D01*
X461Y1325D02*
X472Y1325D01*
X1004Y1325D02*
X1015Y1325D01*
X1033Y1325D02*
X1092Y1325D01*
X384Y1324D02*
X442Y1324D01*
X462Y1324D02*
X472Y1324D01*
X1004Y1324D02*
X1014Y1324D01*
X1034Y1324D02*
X1092Y1324D01*
X384Y1323D02*
X442Y1323D01*
X463Y1323D02*
X472Y1323D01*
X1004Y1323D02*
X1013Y1323D01*
X1034Y1323D02*
X1092Y1323D01*
X384Y1322D02*
X441Y1322D01*
X463Y1322D02*
X472Y1322D01*
X1004Y1322D02*
X1013Y1322D01*
X1035Y1322D02*
X1092Y1322D01*
X384Y1321D02*
X441Y1321D01*
X464Y1321D02*
X472Y1321D01*
X1004Y1321D02*
X1012Y1321D01*
X1036Y1321D02*
X1092Y1321D01*
X384Y1320D02*
X440Y1320D01*
X464Y1320D02*
X472Y1320D01*
X1004Y1320D02*
X1012Y1320D01*
X1036Y1320D02*
X1092Y1320D01*
X384Y1319D02*
X440Y1319D01*
X464Y1319D02*
X472Y1319D01*
X1004Y1319D02*
X1012Y1319D01*
X1036Y1319D02*
X1092Y1319D01*
X384Y1318D02*
X440Y1318D01*
X465Y1318D02*
X472Y1318D01*
X1004Y1318D02*
X1011Y1318D01*
X1036Y1318D02*
X1092Y1318D01*
X384Y1317D02*
X440Y1317D01*
X465Y1317D02*
X472Y1317D01*
X1004Y1317D02*
X1011Y1317D01*
X1036Y1317D02*
X1092Y1317D01*
X384Y1316D02*
X440Y1316D01*
X465Y1316D02*
X472Y1316D01*
X1004Y1316D02*
X1011Y1316D01*
X1037Y1316D02*
X1092Y1316D01*
X384Y1315D02*
X440Y1315D01*
X465Y1315D02*
X472Y1315D01*
X1004Y1315D02*
X1011Y1315D01*
X1036Y1315D02*
X1092Y1315D01*
X384Y1314D02*
X440Y1314D01*
X465Y1314D02*
X472Y1314D01*
X1004Y1314D02*
X1012Y1314D01*
X1036Y1314D02*
X1092Y1314D01*
X384Y1313D02*
X440Y1313D01*
X464Y1313D02*
X472Y1313D01*
X1004Y1313D02*
X1012Y1313D01*
X1036Y1313D02*
X1092Y1313D01*
X384Y1312D02*
X440Y1312D01*
X464Y1312D02*
X472Y1312D01*
X1004Y1312D02*
X1012Y1312D01*
X1036Y1312D02*
X1092Y1312D01*
X384Y1311D02*
X441Y1311D01*
X464Y1311D02*
X472Y1311D01*
X1004Y1311D02*
X1013Y1311D01*
X1035Y1311D02*
X1092Y1311D01*
X384Y1310D02*
X441Y1310D01*
X463Y1310D02*
X472Y1310D01*
X1004Y1310D02*
X1013Y1310D01*
X1035Y1310D02*
X1092Y1310D01*
X384Y1309D02*
X442Y1309D01*
X462Y1309D02*
X472Y1309D01*
X1004Y1309D02*
X1014Y1309D01*
X1034Y1309D02*
X1092Y1309D01*
X384Y1308D02*
X443Y1308D01*
X462Y1308D02*
X472Y1308D01*
X1004Y1308D02*
X1015Y1308D01*
X1033Y1308D02*
X1092Y1308D01*
X384Y1307D02*
X444Y1307D01*
X460Y1307D02*
X472Y1307D01*
X1004Y1307D02*
X1016Y1307D01*
X1032Y1307D02*
X1092Y1307D01*
X384Y1306D02*
X445Y1306D01*
X459Y1306D02*
X472Y1306D01*
X1004Y1306D02*
X1017Y1306D01*
X1031Y1306D02*
X1092Y1306D01*
X384Y1305D02*
X447Y1305D01*
X457Y1305D02*
X472Y1305D01*
X1004Y1305D02*
X1019Y1305D01*
X1029Y1305D02*
X1092Y1305D01*
X384Y1304D02*
X472Y1304D01*
X1004Y1304D02*
X1092Y1304D01*
X384Y1303D02*
X472Y1303D01*
X1004Y1303D02*
X1092Y1303D01*
X384Y1302D02*
X472Y1302D01*
X1004Y1302D02*
X1092Y1302D01*
X384Y1301D02*
X472Y1301D01*
X1004Y1301D02*
X1092Y1301D01*
X384Y1300D02*
X472Y1300D01*
X1004Y1300D02*
X1092Y1300D01*
X384Y1299D02*
X472Y1299D01*
X1004Y1299D02*
X1092Y1299D01*
X384Y1298D02*
X472Y1298D01*
X1004Y1298D02*
X1092Y1298D01*
X384Y1297D02*
X472Y1297D01*
X1004Y1297D02*
X1092Y1297D01*
X384Y1296D02*
X472Y1296D01*
X1004Y1296D02*
X1092Y1296D01*
X384Y1295D02*
X472Y1295D01*
X1004Y1295D02*
X1092Y1295D01*
X384Y1294D02*
X472Y1294D01*
X1004Y1294D02*
X1092Y1294D01*
X384Y1293D02*
X472Y1293D01*
X1004Y1293D02*
X1092Y1293D01*
X385Y1261D02*
X472Y1261D01*
X1004Y1261D02*
X1091Y1261D01*
X384Y1260D02*
X472Y1260D01*
X1004Y1260D02*
X1092Y1260D01*
X384Y1259D02*
X472Y1259D01*
X1004Y1259D02*
X1092Y1259D01*
X384Y1258D02*
X472Y1258D01*
X1004Y1258D02*
X1092Y1258D01*
X384Y1257D02*
X472Y1257D01*
X1004Y1257D02*
X1092Y1257D01*
X384Y1256D02*
X472Y1256D01*
X1004Y1256D02*
X1092Y1256D01*
X384Y1255D02*
X472Y1255D01*
X1004Y1255D02*
X1092Y1255D01*
X384Y1254D02*
X472Y1254D01*
X1004Y1254D02*
X1092Y1254D01*
X384Y1253D02*
X472Y1253D01*
X1004Y1253D02*
X1092Y1253D01*
X384Y1252D02*
X472Y1252D01*
X1004Y1252D02*
X1092Y1252D01*
X384Y1251D02*
X472Y1251D01*
X1004Y1251D02*
X1092Y1251D01*
X384Y1250D02*
X472Y1250D01*
X1004Y1250D02*
X1092Y1250D01*
X384Y1249D02*
X448Y1249D01*
X456Y1249D02*
X472Y1249D01*
X1004Y1249D02*
X1019Y1249D01*
X1029Y1249D02*
X1092Y1249D01*
X384Y1248D02*
X446Y1248D01*
X459Y1248D02*
X472Y1248D01*
X1004Y1248D02*
X1017Y1248D01*
X1031Y1248D02*
X1092Y1248D01*
X384Y1247D02*
X444Y1247D01*
X460Y1247D02*
X472Y1247D01*
X1004Y1247D02*
X1016Y1247D01*
X1032Y1247D02*
X1092Y1247D01*
X384Y1246D02*
X443Y1246D01*
X461Y1246D02*
X472Y1246D01*
X1004Y1246D02*
X1015Y1246D01*
X1033Y1246D02*
X1092Y1246D01*
X384Y1245D02*
X442Y1245D01*
X462Y1245D02*
X472Y1245D01*
X1004Y1245D02*
X1014Y1245D01*
X1034Y1245D02*
X1092Y1245D01*
X384Y1244D02*
X441Y1244D01*
X463Y1244D02*
X472Y1244D01*
X1004Y1244D02*
X1013Y1244D01*
X1035Y1244D02*
X1092Y1244D01*
X384Y1243D02*
X441Y1243D01*
X463Y1243D02*
X472Y1243D01*
X1004Y1243D02*
X1013Y1243D01*
X1035Y1243D02*
X1092Y1243D01*
X384Y1242D02*
X440Y1242D01*
X464Y1242D02*
X472Y1242D01*
X1004Y1242D02*
X1012Y1242D01*
X1036Y1242D02*
X1092Y1242D01*
X384Y1241D02*
X440Y1241D01*
X464Y1241D02*
X472Y1241D01*
X1004Y1241D02*
X1012Y1241D01*
X1036Y1241D02*
X1092Y1241D01*
X384Y1240D02*
X440Y1240D01*
X464Y1240D02*
X472Y1240D01*
X1004Y1240D02*
X1012Y1240D01*
X1036Y1240D02*
X1092Y1240D01*
X384Y1239D02*
X440Y1239D01*
X465Y1239D02*
X472Y1239D01*
X1004Y1239D02*
X1011Y1239D01*
X1036Y1239D02*
X1092Y1239D01*
X384Y1238D02*
X440Y1238D01*
X465Y1238D02*
X472Y1238D01*
X1004Y1238D02*
X1011Y1238D01*
X1037Y1238D02*
X1092Y1238D01*
X384Y1237D02*
X440Y1237D01*
X465Y1237D02*
X472Y1237D01*
X1004Y1237D02*
X1011Y1237D01*
X1037Y1237D02*
X1092Y1237D01*
X384Y1236D02*
X440Y1236D01*
X465Y1236D02*
X472Y1236D01*
X1004Y1236D02*
X1011Y1236D01*
X1036Y1236D02*
X1092Y1236D01*
X384Y1235D02*
X440Y1235D01*
X464Y1235D02*
X472Y1235D01*
X1004Y1235D02*
X1012Y1235D01*
X1036Y1235D02*
X1092Y1235D01*
X384Y1234D02*
X440Y1234D01*
X464Y1234D02*
X472Y1234D01*
X1004Y1234D02*
X1012Y1234D01*
X1036Y1234D02*
X1092Y1234D01*
X384Y1233D02*
X440Y1233D01*
X464Y1233D02*
X472Y1233D01*
X1004Y1233D02*
X1012Y1233D01*
X1036Y1233D02*
X1092Y1233D01*
X384Y1232D02*
X441Y1232D01*
X463Y1232D02*
X472Y1232D01*
X1004Y1232D02*
X1013Y1232D01*
X1035Y1232D02*
X1092Y1232D01*
X384Y1231D02*
X441Y1231D01*
X463Y1231D02*
X472Y1231D01*
X1004Y1231D02*
X1013Y1231D01*
X1035Y1231D02*
X1092Y1231D01*
X384Y1230D02*
X442Y1230D01*
X462Y1230D02*
X472Y1230D01*
X1004Y1230D02*
X1014Y1230D01*
X1034Y1230D02*
X1092Y1230D01*
X384Y1229D02*
X443Y1229D01*
X461Y1229D02*
X472Y1229D01*
X1004Y1229D02*
X1015Y1229D01*
X1033Y1229D02*
X1092Y1229D01*
X384Y1228D02*
X444Y1228D01*
X460Y1228D02*
X472Y1228D01*
X1004Y1228D02*
X1016Y1228D01*
X1032Y1228D02*
X1092Y1228D01*
X384Y1227D02*
X446Y1227D01*
X459Y1227D02*
X472Y1227D01*
X1004Y1227D02*
X1018Y1227D01*
X1030Y1227D02*
X1092Y1227D01*
X384Y1226D02*
X448Y1226D01*
X456Y1226D02*
X472Y1226D01*
X1004Y1226D02*
X1020Y1226D01*
X1028Y1226D02*
X1092Y1226D01*
X384Y1225D02*
X472Y1225D01*
X1004Y1225D02*
X1092Y1225D01*
X384Y1224D02*
X472Y1224D01*
X1004Y1224D02*
X1092Y1224D01*
X384Y1223D02*
X472Y1223D01*
X1004Y1223D02*
X1092Y1223D01*
X384Y1222D02*
X472Y1222D01*
X1004Y1222D02*
X1092Y1222D01*
X384Y1221D02*
X472Y1221D01*
X1004Y1221D02*
X1092Y1221D01*
X384Y1220D02*
X472Y1220D01*
X1004Y1220D02*
X1092Y1220D01*
X384Y1219D02*
X472Y1219D01*
X1004Y1219D02*
X1092Y1219D01*
X384Y1218D02*
X472Y1218D01*
X1004Y1218D02*
X1092Y1218D01*
X384Y1217D02*
X472Y1217D01*
X1004Y1217D02*
X1092Y1217D01*
X384Y1216D02*
X472Y1216D01*
X1004Y1216D02*
X1092Y1216D01*
X384Y1215D02*
X472Y1215D01*
X1004Y1215D02*
X1092Y1215D01*
X385Y1214D02*
X472Y1214D01*
X1005Y1214D02*
X1091Y1214D01*
X385Y1182D02*
X472Y1182D01*
X1004Y1182D02*
X1092Y1182D01*
X384Y1181D02*
X472Y1181D01*
X1004Y1181D02*
X1092Y1181D01*
X384Y1180D02*
X472Y1180D01*
X1004Y1180D02*
X1092Y1180D01*
X384Y1179D02*
X472Y1179D01*
X1004Y1179D02*
X1092Y1179D01*
X384Y1178D02*
X472Y1178D01*
X1004Y1178D02*
X1092Y1178D01*
X384Y1177D02*
X472Y1177D01*
X1004Y1177D02*
X1092Y1177D01*
X384Y1176D02*
X472Y1176D01*
X1004Y1176D02*
X1092Y1176D01*
X384Y1175D02*
X472Y1175D01*
X1004Y1175D02*
X1092Y1175D01*
X384Y1174D02*
X472Y1174D01*
X1004Y1174D02*
X1092Y1174D01*
X384Y1173D02*
X472Y1173D01*
X1004Y1173D02*
X1092Y1173D01*
X384Y1172D02*
X472Y1172D01*
X1004Y1172D02*
X1092Y1172D01*
X384Y1171D02*
X472Y1171D01*
X1004Y1171D02*
X1092Y1171D01*
X384Y1170D02*
X447Y1170D01*
X457Y1170D02*
X472Y1170D01*
X1004Y1170D02*
X1019Y1170D01*
X1029Y1170D02*
X1092Y1170D01*
X384Y1169D02*
X445Y1169D01*
X459Y1169D02*
X472Y1169D01*
X1004Y1169D02*
X1017Y1169D01*
X1031Y1169D02*
X1092Y1169D01*
X384Y1168D02*
X444Y1168D01*
X460Y1168D02*
X472Y1168D01*
X1004Y1168D02*
X1016Y1168D01*
X1032Y1168D02*
X1092Y1168D01*
X384Y1167D02*
X443Y1167D01*
X461Y1167D02*
X472Y1167D01*
X1004Y1167D02*
X1015Y1167D01*
X1033Y1167D02*
X1092Y1167D01*
X384Y1166D02*
X442Y1166D01*
X462Y1166D02*
X472Y1166D01*
X1004Y1166D02*
X1014Y1166D01*
X1034Y1166D02*
X1092Y1166D01*
X384Y1165D02*
X441Y1165D01*
X463Y1165D02*
X472Y1165D01*
X1004Y1165D02*
X1013Y1165D01*
X1035Y1165D02*
X1092Y1165D01*
X384Y1164D02*
X441Y1164D01*
X464Y1164D02*
X472Y1164D01*
X1004Y1164D02*
X1013Y1164D01*
X1035Y1164D02*
X1092Y1164D01*
X384Y1163D02*
X440Y1163D01*
X464Y1163D02*
X472Y1163D01*
X1004Y1163D02*
X1012Y1163D01*
X1036Y1163D02*
X1092Y1163D01*
X384Y1162D02*
X440Y1162D01*
X464Y1162D02*
X472Y1162D01*
X1004Y1162D02*
X1012Y1162D01*
X1036Y1162D02*
X1092Y1162D01*
X384Y1161D02*
X440Y1161D01*
X465Y1161D02*
X472Y1161D01*
X1004Y1161D02*
X1012Y1161D01*
X1036Y1161D02*
X1092Y1161D01*
X384Y1160D02*
X440Y1160D01*
X465Y1160D02*
X472Y1160D01*
X1004Y1160D02*
X1011Y1160D01*
X1036Y1160D02*
X1092Y1160D01*
X384Y1159D02*
X439Y1159D01*
X465Y1159D02*
X472Y1159D01*
X1004Y1159D02*
X1011Y1159D01*
X1037Y1159D02*
X1092Y1159D01*
X384Y1158D02*
X440Y1158D01*
X465Y1158D02*
X472Y1158D01*
X1004Y1158D02*
X1011Y1158D01*
X1036Y1158D02*
X1092Y1158D01*
X384Y1157D02*
X440Y1157D01*
X465Y1157D02*
X472Y1157D01*
X1004Y1157D02*
X1011Y1157D01*
X1036Y1157D02*
X1092Y1157D01*
X384Y1156D02*
X440Y1156D01*
X464Y1156D02*
X472Y1156D01*
X1004Y1156D02*
X1012Y1156D01*
X1036Y1156D02*
X1092Y1156D01*
X384Y1155D02*
X440Y1155D01*
X464Y1155D02*
X472Y1155D01*
X1004Y1155D02*
X1012Y1155D01*
X1036Y1155D02*
X1092Y1155D01*
X384Y1154D02*
X440Y1154D01*
X464Y1154D02*
X472Y1154D01*
X1004Y1154D02*
X1012Y1154D01*
X1036Y1154D02*
X1092Y1154D01*
X384Y1153D02*
X441Y1153D01*
X463Y1153D02*
X472Y1153D01*
X1004Y1153D02*
X1013Y1153D01*
X1035Y1153D02*
X1092Y1153D01*
X384Y1152D02*
X442Y1152D01*
X463Y1152D02*
X472Y1152D01*
X1004Y1152D02*
X1013Y1152D01*
X1034Y1152D02*
X1092Y1152D01*
X384Y1151D02*
X442Y1151D01*
X462Y1151D02*
X472Y1151D01*
X1004Y1151D02*
X1014Y1151D01*
X1034Y1151D02*
X1092Y1151D01*
X384Y1150D02*
X443Y1150D01*
X461Y1150D02*
X472Y1150D01*
X1004Y1150D02*
X1015Y1150D01*
X1033Y1150D02*
X1092Y1150D01*
X384Y1149D02*
X444Y1149D01*
X460Y1149D02*
X472Y1149D01*
X1004Y1149D02*
X1016Y1149D01*
X1032Y1149D02*
X1092Y1149D01*
X384Y1148D02*
X446Y1148D01*
X458Y1148D02*
X472Y1148D01*
X1004Y1148D02*
X1018Y1148D01*
X1030Y1148D02*
X1092Y1148D01*
X384Y1147D02*
X449Y1147D01*
X456Y1147D02*
X472Y1147D01*
X1004Y1147D02*
X1021Y1147D01*
X1027Y1147D02*
X1092Y1147D01*
X384Y1146D02*
X472Y1146D01*
X1004Y1146D02*
X1092Y1146D01*
X384Y1145D02*
X472Y1145D01*
X1004Y1145D02*
X1092Y1145D01*
X384Y1144D02*
X472Y1144D01*
X1004Y1144D02*
X1092Y1144D01*
X384Y1143D02*
X472Y1143D01*
X1004Y1143D02*
X1092Y1143D01*
X384Y1142D02*
X472Y1142D01*
X1004Y1142D02*
X1092Y1142D01*
X384Y1141D02*
X472Y1141D01*
X1004Y1141D02*
X1092Y1141D01*
X384Y1140D02*
X472Y1140D01*
X1004Y1140D02*
X1092Y1140D01*
X384Y1139D02*
X472Y1139D01*
X1004Y1139D02*
X1092Y1139D01*
X384Y1138D02*
X472Y1138D01*
X1004Y1138D02*
X1092Y1138D01*
X384Y1137D02*
X472Y1137D01*
X1004Y1137D02*
X1092Y1137D01*
X384Y1136D02*
X472Y1136D01*
X1004Y1136D02*
X1092Y1136D01*
X384Y1103D02*
X472Y1103D01*
X1004Y1103D02*
X1092Y1103D01*
X384Y1102D02*
X472Y1102D01*
X1004Y1102D02*
X1092Y1102D01*
X384Y1101D02*
X472Y1101D01*
X1004Y1101D02*
X1092Y1101D01*
X384Y1100D02*
X472Y1100D01*
X1004Y1100D02*
X1092Y1100D01*
X384Y1099D02*
X472Y1099D01*
X1004Y1099D02*
X1092Y1099D01*
X384Y1098D02*
X472Y1098D01*
X1004Y1098D02*
X1092Y1098D01*
X384Y1097D02*
X472Y1097D01*
X1004Y1097D02*
X1092Y1097D01*
X384Y1096D02*
X472Y1096D01*
X1004Y1096D02*
X1092Y1096D01*
X384Y1095D02*
X472Y1095D01*
X1004Y1095D02*
X1092Y1095D01*
X384Y1094D02*
X472Y1094D01*
X1004Y1094D02*
X1092Y1094D01*
X384Y1093D02*
X472Y1093D01*
X1004Y1093D02*
X1092Y1093D01*
X384Y1092D02*
X449Y1092D01*
X455Y1092D02*
X472Y1092D01*
X1004Y1092D02*
X1021Y1092D01*
X1027Y1092D02*
X1092Y1092D01*
X384Y1091D02*
X446Y1091D01*
X458Y1091D02*
X472Y1091D01*
X1004Y1091D02*
X1018Y1091D01*
X1030Y1091D02*
X1092Y1091D01*
X384Y1090D02*
X445Y1090D01*
X460Y1090D02*
X472Y1090D01*
X1004Y1090D02*
X1016Y1090D01*
X1031Y1090D02*
X1092Y1090D01*
X384Y1089D02*
X443Y1089D01*
X461Y1089D02*
X472Y1089D01*
X1004Y1089D02*
X1015Y1089D01*
X1033Y1089D02*
X1092Y1089D01*
X384Y1088D02*
X442Y1088D01*
X462Y1088D02*
X472Y1088D01*
X1004Y1088D02*
X1014Y1088D01*
X1034Y1088D02*
X1092Y1088D01*
X384Y1087D02*
X442Y1087D01*
X463Y1087D02*
X472Y1087D01*
X1004Y1087D02*
X1014Y1087D01*
X1034Y1087D02*
X1092Y1087D01*
X384Y1086D02*
X441Y1086D01*
X463Y1086D02*
X472Y1086D01*
X1004Y1086D02*
X1013Y1086D01*
X1035Y1086D02*
X1092Y1086D01*
X384Y1085D02*
X440Y1085D01*
X464Y1085D02*
X472Y1085D01*
X1004Y1085D02*
X1012Y1085D01*
X1036Y1085D02*
X1092Y1085D01*
X384Y1084D02*
X440Y1084D01*
X464Y1084D02*
X472Y1084D01*
X1004Y1084D02*
X1012Y1084D01*
X1036Y1084D02*
X1092Y1084D01*
X384Y1083D02*
X440Y1083D01*
X464Y1083D02*
X472Y1083D01*
X1004Y1083D02*
X1012Y1083D01*
X1036Y1083D02*
X1092Y1083D01*
X384Y1082D02*
X440Y1082D01*
X465Y1082D02*
X472Y1082D01*
X1004Y1082D02*
X1012Y1082D01*
X1036Y1082D02*
X1092Y1082D01*
X384Y1081D02*
X440Y1081D01*
X465Y1081D02*
X472Y1081D01*
X1004Y1081D02*
X1011Y1081D01*
X1036Y1081D02*
X1092Y1081D01*
X384Y1080D02*
X439Y1080D01*
X465Y1080D02*
X472Y1080D01*
X1004Y1080D02*
X1011Y1080D01*
X1037Y1080D02*
X1092Y1080D01*
X384Y1079D02*
X440Y1079D01*
X465Y1079D02*
X472Y1079D01*
X1004Y1079D02*
X1011Y1079D01*
X1036Y1079D02*
X1092Y1079D01*
X384Y1078D02*
X440Y1078D01*
X464Y1078D02*
X472Y1078D01*
X1004Y1078D02*
X1012Y1078D01*
X1036Y1078D02*
X1092Y1078D01*
X384Y1077D02*
X440Y1077D01*
X464Y1077D02*
X472Y1077D01*
X1004Y1077D02*
X1012Y1077D01*
X1036Y1077D02*
X1092Y1077D01*
X384Y1076D02*
X440Y1076D01*
X464Y1076D02*
X472Y1076D01*
X1004Y1076D02*
X1012Y1076D01*
X1036Y1076D02*
X1092Y1076D01*
X384Y1075D02*
X441Y1075D01*
X464Y1075D02*
X472Y1075D01*
X1004Y1075D02*
X1012Y1075D01*
X1035Y1075D02*
X1092Y1075D01*
X384Y1074D02*
X441Y1074D01*
X463Y1074D02*
X472Y1074D01*
X1004Y1074D02*
X1013Y1074D01*
X1035Y1074D02*
X1092Y1074D01*
X384Y1073D02*
X442Y1073D01*
X462Y1073D02*
X472Y1073D01*
X1004Y1073D02*
X1014Y1073D01*
X1034Y1073D02*
X1092Y1073D01*
X384Y1072D02*
X443Y1072D01*
X462Y1072D02*
X472Y1072D01*
X1004Y1072D02*
X1014Y1072D01*
X1033Y1072D02*
X1092Y1072D01*
X384Y1071D02*
X444Y1071D01*
X461Y1071D02*
X472Y1071D01*
X1004Y1071D02*
X1015Y1071D01*
X1032Y1071D02*
X1092Y1071D01*
X384Y1070D02*
X445Y1070D01*
X459Y1070D02*
X472Y1070D01*
X1004Y1070D02*
X1017Y1070D01*
X1031Y1070D02*
X1092Y1070D01*
X384Y1069D02*
X447Y1069D01*
X457Y1069D02*
X472Y1069D01*
X1004Y1069D02*
X1019Y1069D01*
X1029Y1069D02*
X1092Y1069D01*
X384Y1068D02*
X451Y1068D01*
X453Y1068D02*
X472Y1068D01*
X1004Y1068D02*
X1023Y1068D01*
X1025Y1068D02*
X1092Y1068D01*
X384Y1067D02*
X472Y1067D01*
X1004Y1067D02*
X1092Y1067D01*
X384Y1066D02*
X472Y1066D01*
X1004Y1066D02*
X1092Y1066D01*
X384Y1065D02*
X472Y1065D01*
X1004Y1065D02*
X1092Y1065D01*
X384Y1064D02*
X472Y1064D01*
X1004Y1064D02*
X1092Y1064D01*
X384Y1063D02*
X472Y1063D01*
X1004Y1063D02*
X1092Y1063D01*
X384Y1062D02*
X472Y1062D01*
X1004Y1062D02*
X1092Y1062D01*
X384Y1061D02*
X472Y1061D01*
X1004Y1061D02*
X1092Y1061D01*
X384Y1060D02*
X472Y1060D01*
X1004Y1060D02*
X1092Y1060D01*
X384Y1059D02*
X472Y1059D01*
X1004Y1059D02*
X1092Y1059D01*
X384Y1058D02*
X472Y1058D01*
X1004Y1058D02*
X1092Y1058D01*
X384Y1057D02*
X472Y1057D01*
X1004Y1057D02*
X1092Y1057D01*
X385Y1027D02*
X472Y1027D01*
X1004Y1027D02*
X1091Y1027D01*
X384Y1026D02*
X472Y1026D01*
X1004Y1026D02*
X1092Y1026D01*
X384Y1025D02*
X472Y1025D01*
X1004Y1025D02*
X1092Y1025D01*
X384Y1024D02*
X472Y1024D01*
X1004Y1024D02*
X1092Y1024D01*
X384Y1023D02*
X472Y1023D01*
X1004Y1023D02*
X1092Y1023D01*
X384Y1022D02*
X472Y1022D01*
X1004Y1022D02*
X1092Y1022D01*
X384Y1021D02*
X472Y1021D01*
X1004Y1021D02*
X1092Y1021D01*
X384Y1020D02*
X472Y1020D01*
X1004Y1020D02*
X1092Y1020D01*
X384Y1019D02*
X472Y1019D01*
X1004Y1019D02*
X1092Y1019D01*
X384Y1018D02*
X472Y1018D01*
X1004Y1018D02*
X1092Y1018D01*
X384Y1017D02*
X472Y1017D01*
X1004Y1017D02*
X1092Y1017D01*
X384Y1016D02*
X472Y1016D01*
X1004Y1016D02*
X1092Y1016D01*
X384Y1015D02*
X447Y1015D01*
X457Y1015D02*
X472Y1015D01*
X1004Y1015D02*
X1019Y1015D01*
X1029Y1015D02*
X1092Y1015D01*
X384Y1014D02*
X445Y1014D01*
X459Y1014D02*
X472Y1014D01*
X1004Y1014D02*
X1017Y1014D01*
X1031Y1014D02*
X1092Y1014D01*
X384Y1013D02*
X444Y1013D01*
X460Y1013D02*
X472Y1013D01*
X1004Y1013D02*
X1016Y1013D01*
X1032Y1013D02*
X1092Y1013D01*
X384Y1012D02*
X443Y1012D01*
X461Y1012D02*
X472Y1012D01*
X1004Y1012D02*
X1015Y1012D01*
X1033Y1012D02*
X1092Y1012D01*
X384Y1011D02*
X442Y1011D01*
X462Y1011D02*
X472Y1011D01*
X1004Y1011D02*
X1014Y1011D01*
X1034Y1011D02*
X1092Y1011D01*
X384Y1010D02*
X441Y1010D01*
X463Y1010D02*
X472Y1010D01*
X1004Y1010D02*
X1013Y1010D01*
X1035Y1010D02*
X1092Y1010D01*
X384Y1009D02*
X441Y1009D01*
X463Y1009D02*
X472Y1009D01*
X1004Y1009D02*
X1013Y1009D01*
X1035Y1009D02*
X1092Y1009D01*
X384Y1008D02*
X440Y1008D01*
X464Y1008D02*
X472Y1008D01*
X1004Y1008D02*
X1012Y1008D01*
X1036Y1008D02*
X1092Y1008D01*
X384Y1007D02*
X440Y1007D01*
X464Y1007D02*
X472Y1007D01*
X1004Y1007D02*
X1012Y1007D01*
X1036Y1007D02*
X1092Y1007D01*
X384Y1006D02*
X440Y1006D01*
X464Y1006D02*
X472Y1006D01*
X1004Y1006D02*
X1012Y1006D01*
X1036Y1006D02*
X1092Y1006D01*
X384Y1005D02*
X440Y1005D01*
X465Y1005D02*
X472Y1005D01*
X1004Y1005D02*
X1011Y1005D01*
X1036Y1005D02*
X1092Y1005D01*
X384Y1004D02*
X439Y1004D01*
X465Y1004D02*
X472Y1004D01*
X1004Y1004D02*
X1011Y1004D01*
X1037Y1004D02*
X1092Y1004D01*
X384Y1003D02*
X439Y1003D01*
X465Y1003D02*
X472Y1003D01*
X1004Y1003D02*
X1011Y1003D01*
X1037Y1003D02*
X1092Y1003D01*
X384Y1002D02*
X440Y1002D01*
X465Y1002D02*
X472Y1002D01*
X1004Y1002D02*
X1011Y1002D01*
X1036Y1002D02*
X1092Y1002D01*
X384Y1001D02*
X440Y1001D01*
X464Y1001D02*
X472Y1001D01*
X1004Y1001D02*
X1012Y1001D01*
X1036Y1001D02*
X1092Y1001D01*
X384Y1000D02*
X440Y1000D01*
X464Y1000D02*
X472Y1000D01*
X1004Y1000D02*
X1012Y1000D01*
X1036Y1000D02*
X1092Y1000D01*
X384Y999D02*
X440Y999D01*
X464Y999D02*
X472Y999D01*
X1004Y999D02*
X1012Y999D01*
X1036Y999D02*
X1092Y999D01*
X384Y998D02*
X441Y998D01*
X463Y998D02*
X472Y998D01*
X1004Y998D02*
X1013Y998D01*
X1035Y998D02*
X1092Y998D01*
X384Y997D02*
X441Y997D01*
X463Y997D02*
X472Y997D01*
X1004Y997D02*
X1013Y997D01*
X1035Y997D02*
X1092Y997D01*
X384Y996D02*
X442Y996D01*
X462Y996D02*
X472Y996D01*
X1004Y996D02*
X1014Y996D01*
X1034Y996D02*
X1092Y996D01*
X384Y995D02*
X443Y995D01*
X461Y995D02*
X472Y995D01*
X1004Y995D02*
X1015Y995D01*
X1033Y995D02*
X1092Y995D01*
X384Y994D02*
X444Y994D01*
X460Y994D02*
X472Y994D01*
X1004Y994D02*
X1016Y994D01*
X1032Y994D02*
X1092Y994D01*
X384Y993D02*
X446Y993D01*
X458Y993D02*
X472Y993D01*
X1004Y993D02*
X1018Y993D01*
X1030Y993D02*
X1092Y993D01*
X384Y992D02*
X448Y992D01*
X456Y992D02*
X472Y992D01*
X1004Y992D02*
X1020Y992D01*
X1028Y992D02*
X1092Y992D01*
X384Y991D02*
X472Y991D01*
X1004Y991D02*
X1092Y991D01*
X384Y990D02*
X472Y990D01*
X1004Y990D02*
X1092Y990D01*
X384Y989D02*
X472Y989D01*
X1004Y989D02*
X1092Y989D01*
X384Y988D02*
X472Y988D01*
X1004Y988D02*
X1092Y988D01*
X384Y987D02*
X472Y987D01*
X1004Y987D02*
X1092Y987D01*
X384Y986D02*
X472Y986D01*
X1004Y986D02*
X1092Y986D01*
X384Y985D02*
X472Y985D01*
X1004Y985D02*
X1092Y985D01*
X384Y984D02*
X472Y984D01*
X1004Y984D02*
X1092Y984D01*
X384Y983D02*
X472Y983D01*
X1004Y983D02*
X1092Y983D01*
X384Y982D02*
X472Y982D01*
X1004Y982D02*
X1092Y982D01*
X384Y981D02*
X472Y981D01*
X1004Y981D02*
X1092Y981D01*
X385Y980D02*
X471Y980D01*
X1005Y980D02*
X1091Y980D01*
X385Y946D02*
X472Y946D01*
X1004Y946D02*
X1091Y946D01*
X384Y945D02*
X472Y945D01*
X1004Y945D02*
X1092Y945D01*
X384Y944D02*
X472Y944D01*
X1004Y944D02*
X1092Y944D01*
X384Y943D02*
X472Y943D01*
X1004Y943D02*
X1092Y943D01*
X384Y942D02*
X472Y942D01*
X1004Y942D02*
X1092Y942D01*
X384Y941D02*
X472Y941D01*
X1004Y941D02*
X1092Y941D01*
X384Y940D02*
X472Y940D01*
X1004Y940D02*
X1092Y940D01*
X384Y939D02*
X472Y939D01*
X1004Y939D02*
X1092Y939D01*
X384Y938D02*
X472Y938D01*
X1004Y938D02*
X1092Y938D01*
X384Y937D02*
X472Y937D01*
X1004Y937D02*
X1092Y937D01*
X384Y936D02*
X472Y936D01*
X1004Y936D02*
X1092Y936D01*
X384Y935D02*
X472Y935D01*
X1004Y935D02*
X1092Y935D01*
X384Y934D02*
X448Y934D01*
X456Y934D02*
X472Y934D01*
X1004Y934D02*
X1019Y934D01*
X1029Y934D02*
X1092Y934D01*
X384Y933D02*
X446Y933D01*
X459Y933D02*
X472Y933D01*
X1004Y933D02*
X1017Y933D01*
X1031Y933D02*
X1092Y933D01*
X384Y932D02*
X444Y932D01*
X460Y932D02*
X472Y932D01*
X1004Y932D02*
X1016Y932D01*
X1032Y932D02*
X1092Y932D01*
X384Y931D02*
X443Y931D01*
X461Y931D02*
X472Y931D01*
X1004Y931D02*
X1015Y931D01*
X1033Y931D02*
X1092Y931D01*
X384Y930D02*
X442Y930D01*
X462Y930D02*
X472Y930D01*
X1004Y930D02*
X1014Y930D01*
X1034Y930D02*
X1092Y930D01*
X384Y929D02*
X441Y929D01*
X463Y929D02*
X472Y929D01*
X1004Y929D02*
X1013Y929D01*
X1035Y929D02*
X1092Y929D01*
X384Y928D02*
X441Y928D01*
X463Y928D02*
X472Y928D01*
X1004Y928D02*
X1013Y928D01*
X1035Y928D02*
X1092Y928D01*
X384Y927D02*
X440Y927D01*
X464Y927D02*
X472Y927D01*
X1004Y927D02*
X1012Y927D01*
X1036Y927D02*
X1092Y927D01*
X384Y926D02*
X440Y926D01*
X464Y926D02*
X472Y926D01*
X1004Y926D02*
X1012Y926D01*
X1036Y926D02*
X1092Y926D01*
X384Y925D02*
X440Y925D01*
X464Y925D02*
X472Y925D01*
X1004Y925D02*
X1012Y925D01*
X1036Y925D02*
X1092Y925D01*
X384Y924D02*
X440Y924D01*
X465Y924D02*
X472Y924D01*
X1004Y924D02*
X1011Y924D01*
X1036Y924D02*
X1092Y924D01*
X384Y923D02*
X440Y923D01*
X465Y923D02*
X472Y923D01*
X1004Y923D02*
X1011Y923D01*
X1037Y923D02*
X1092Y923D01*
X384Y922D02*
X440Y922D01*
X465Y922D02*
X472Y922D01*
X1004Y922D02*
X1011Y922D01*
X1037Y922D02*
X1092Y922D01*
X384Y921D02*
X440Y921D01*
X465Y921D02*
X472Y921D01*
X1004Y921D02*
X1011Y921D01*
X1036Y921D02*
X1092Y921D01*
X384Y920D02*
X440Y920D01*
X464Y920D02*
X472Y920D01*
X1004Y920D02*
X1012Y920D01*
X1036Y920D02*
X1092Y920D01*
X384Y919D02*
X440Y919D01*
X464Y919D02*
X472Y919D01*
X1004Y919D02*
X1012Y919D01*
X1036Y919D02*
X1092Y919D01*
X384Y918D02*
X440Y918D01*
X464Y918D02*
X472Y918D01*
X1004Y918D02*
X1012Y918D01*
X1036Y918D02*
X1092Y918D01*
X384Y917D02*
X441Y917D01*
X463Y917D02*
X472Y917D01*
X1004Y917D02*
X1013Y917D01*
X1035Y917D02*
X1092Y917D01*
X384Y916D02*
X441Y916D01*
X463Y916D02*
X472Y916D01*
X1004Y916D02*
X1013Y916D01*
X1035Y916D02*
X1092Y916D01*
X384Y915D02*
X442Y915D01*
X462Y915D02*
X472Y915D01*
X1004Y915D02*
X1014Y915D01*
X1034Y915D02*
X1092Y915D01*
X384Y914D02*
X443Y914D01*
X461Y914D02*
X472Y914D01*
X1004Y914D02*
X1015Y914D01*
X1033Y914D02*
X1092Y914D01*
X384Y913D02*
X444Y913D01*
X460Y913D02*
X472Y913D01*
X1004Y913D02*
X1016Y913D01*
X1032Y913D02*
X1092Y913D01*
X384Y912D02*
X446Y912D01*
X459Y912D02*
X472Y912D01*
X1004Y912D02*
X1018Y912D01*
X1030Y912D02*
X1092Y912D01*
X384Y911D02*
X448Y911D01*
X456Y911D02*
X472Y911D01*
X1004Y911D02*
X1020Y911D01*
X1028Y911D02*
X1092Y911D01*
X384Y910D02*
X472Y910D01*
X1004Y910D02*
X1092Y910D01*
X384Y909D02*
X472Y909D01*
X1004Y909D02*
X1092Y909D01*
X384Y908D02*
X472Y908D01*
X1004Y908D02*
X1092Y908D01*
X384Y907D02*
X472Y907D01*
X1004Y907D02*
X1092Y907D01*
X384Y906D02*
X472Y906D01*
X1004Y906D02*
X1092Y906D01*
X384Y905D02*
X472Y905D01*
X1004Y905D02*
X1092Y905D01*
X384Y904D02*
X472Y904D01*
X1004Y904D02*
X1092Y904D01*
X384Y903D02*
X472Y903D01*
X1004Y903D02*
X1092Y903D01*
X384Y902D02*
X472Y902D01*
X1004Y902D02*
X1092Y902D01*
X384Y901D02*
X472Y901D01*
X1004Y901D02*
X1092Y901D01*
X384Y900D02*
X472Y900D01*
X1004Y900D02*
X1092Y900D01*
X385Y899D02*
X472Y899D01*
D02*
G04 End of Copper1*
M02*