G04 MADE WITH FRITZING*
G04 WWW.FRITZING.ORG*
G04 DOUBLE SIDED*
G04 HOLES PLATED*
G04 CONTOUR ON CENTER OF CONTOUR VECTOR*
%ASAXBY*%
%FSLAX23Y23*%
%MOIN*%
%OFA0B0*%
%SFA1.0B1.0*%
%ADD10C,0.075000*%
%ADD11C,0.039370*%
%ADD12C,0.092000*%
%ADD13R,0.092000X0.092000*%
%ADD14R,0.075000X0.075000*%
%ADD15C,0.032000*%
%LNCOPPER0*%
G90*
G70*
G54D10*
X122Y1631D03*
G54D11*
X879Y145D03*
X979Y95D03*
X1078Y295D03*
X928Y346D03*
X1129Y845D03*
X1180Y1145D03*
G54D10*
X629Y345D03*
X629Y745D03*
X429Y345D03*
X429Y745D03*
X729Y745D03*
X729Y345D03*
X829Y345D03*
X829Y745D03*
X529Y345D03*
X529Y745D03*
G54D12*
X1079Y445D03*
X1079Y745D03*
G54D10*
X279Y595D03*
X279Y695D03*
G54D12*
X929Y445D03*
X929Y745D03*
G54D13*
X1079Y445D03*
G54D14*
X279Y595D03*
G54D13*
X929Y445D03*
G54D15*
X922Y322D02*
X885Y168D01*
D02*
X1067Y273D02*
X990Y117D01*
D02*
X1036Y745D02*
X971Y745D01*
D02*
X1180Y995D02*
X1180Y896D01*
D02*
X1180Y896D02*
X1146Y862D01*
D02*
X1180Y1121D02*
X1180Y995D01*
G36*
X40Y1711D02*
X40Y1175D01*
X1186Y1175D01*
X1186Y1173D01*
X1192Y1173D01*
X1192Y1171D01*
X1196Y1171D01*
X1196Y1169D01*
X1198Y1169D01*
X1198Y1167D01*
X1200Y1167D01*
X1200Y1165D01*
X1202Y1165D01*
X1202Y1163D01*
X1204Y1163D01*
X1204Y1161D01*
X1206Y1161D01*
X1206Y1157D01*
X1208Y1157D01*
X1208Y1151D01*
X1210Y1151D01*
X1210Y1139D01*
X1208Y1139D01*
X1208Y1133D01*
X1206Y1133D01*
X1206Y889D01*
X1204Y889D01*
X1204Y883D01*
X1202Y883D01*
X1202Y881D01*
X1200Y881D01*
X1200Y879D01*
X1198Y879D01*
X1198Y875D01*
X1196Y875D01*
X1196Y873D01*
X1194Y873D01*
X1194Y871D01*
X1192Y871D01*
X1192Y869D01*
X1190Y869D01*
X1190Y867D01*
X1188Y867D01*
X1188Y865D01*
X1186Y865D01*
X1186Y863D01*
X1184Y863D01*
X1184Y861D01*
X1182Y861D01*
X1182Y859D01*
X1180Y859D01*
X1180Y857D01*
X1178Y857D01*
X1178Y855D01*
X1176Y855D01*
X1176Y853D01*
X1174Y853D01*
X1174Y851D01*
X1172Y851D01*
X1172Y849D01*
X1170Y849D01*
X1170Y847D01*
X1168Y847D01*
X1168Y845D01*
X1166Y845D01*
X1166Y843D01*
X1162Y843D01*
X1162Y841D01*
X1160Y841D01*
X1160Y839D01*
X1158Y839D01*
X1158Y835D01*
X1156Y835D01*
X1156Y831D01*
X1154Y831D01*
X1154Y827D01*
X1152Y827D01*
X1152Y825D01*
X1150Y825D01*
X1150Y823D01*
X1148Y823D01*
X1148Y821D01*
X1146Y821D01*
X1146Y819D01*
X1142Y819D01*
X1142Y817D01*
X1136Y817D01*
X1136Y815D01*
X1286Y815D01*
X1286Y1711D01*
X40Y1711D01*
G37*
D02*
G36*
X40Y1175D02*
X40Y815D01*
X1122Y815D01*
X1122Y817D01*
X1116Y817D01*
X1116Y819D01*
X1112Y819D01*
X1112Y821D01*
X1110Y821D01*
X1110Y823D01*
X1108Y823D01*
X1108Y825D01*
X1106Y825D01*
X1106Y827D01*
X1104Y827D01*
X1104Y831D01*
X1102Y831D01*
X1102Y835D01*
X1100Y835D01*
X1100Y855D01*
X1102Y855D01*
X1102Y859D01*
X1104Y859D01*
X1104Y861D01*
X1106Y861D01*
X1106Y865D01*
X1108Y865D01*
X1108Y867D01*
X1110Y867D01*
X1110Y869D01*
X1114Y869D01*
X1114Y871D01*
X1118Y871D01*
X1118Y873D01*
X1124Y873D01*
X1124Y877D01*
X1126Y877D01*
X1126Y879D01*
X1128Y879D01*
X1128Y881D01*
X1130Y881D01*
X1130Y883D01*
X1132Y883D01*
X1132Y885D01*
X1134Y885D01*
X1134Y887D01*
X1136Y887D01*
X1136Y889D01*
X1138Y889D01*
X1138Y891D01*
X1140Y891D01*
X1140Y893D01*
X1142Y893D01*
X1142Y895D01*
X1144Y895D01*
X1144Y897D01*
X1146Y897D01*
X1146Y899D01*
X1148Y899D01*
X1148Y901D01*
X1150Y901D01*
X1150Y903D01*
X1152Y903D01*
X1152Y905D01*
X1154Y905D01*
X1154Y1133D01*
X1152Y1133D01*
X1152Y1139D01*
X1150Y1139D01*
X1150Y1151D01*
X1152Y1151D01*
X1152Y1157D01*
X1154Y1157D01*
X1154Y1161D01*
X1156Y1161D01*
X1156Y1163D01*
X1158Y1163D01*
X1158Y1165D01*
X1160Y1165D01*
X1160Y1167D01*
X1162Y1167D01*
X1162Y1169D01*
X1164Y1169D01*
X1164Y1171D01*
X1168Y1171D01*
X1168Y1173D01*
X1174Y1173D01*
X1174Y1175D01*
X40Y1175D01*
G37*
D02*
G36*
X40Y815D02*
X40Y813D01*
X1286Y813D01*
X1286Y815D01*
X40Y815D01*
G37*
D02*
G36*
X40Y815D02*
X40Y813D01*
X1286Y813D01*
X1286Y815D01*
X40Y815D01*
G37*
D02*
G36*
X40Y813D02*
X40Y801D01*
X1084Y801D01*
X1084Y799D01*
X1094Y799D01*
X1094Y797D01*
X1100Y797D01*
X1100Y795D01*
X1104Y795D01*
X1104Y793D01*
X1108Y793D01*
X1108Y791D01*
X1110Y791D01*
X1110Y789D01*
X1114Y789D01*
X1114Y787D01*
X1116Y787D01*
X1116Y785D01*
X1118Y785D01*
X1118Y783D01*
X1120Y783D01*
X1120Y781D01*
X1122Y781D01*
X1122Y779D01*
X1124Y779D01*
X1124Y775D01*
X1126Y775D01*
X1126Y773D01*
X1128Y773D01*
X1128Y769D01*
X1130Y769D01*
X1130Y765D01*
X1132Y765D01*
X1132Y757D01*
X1134Y757D01*
X1134Y731D01*
X1132Y731D01*
X1132Y725D01*
X1130Y725D01*
X1130Y719D01*
X1128Y719D01*
X1128Y717D01*
X1126Y717D01*
X1126Y713D01*
X1124Y713D01*
X1124Y711D01*
X1122Y711D01*
X1122Y707D01*
X1120Y707D01*
X1120Y705D01*
X1118Y705D01*
X1118Y703D01*
X1114Y703D01*
X1114Y701D01*
X1112Y701D01*
X1112Y699D01*
X1110Y699D01*
X1110Y697D01*
X1106Y697D01*
X1106Y695D01*
X1104Y695D01*
X1104Y693D01*
X1098Y693D01*
X1098Y691D01*
X1092Y691D01*
X1092Y689D01*
X1286Y689D01*
X1286Y813D01*
X40Y813D01*
G37*
D02*
G36*
X40Y801D02*
X40Y791D01*
X842Y791D01*
X842Y789D01*
X848Y789D01*
X848Y787D01*
X852Y787D01*
X852Y785D01*
X854Y785D01*
X854Y783D01*
X858Y783D01*
X858Y781D01*
X860Y781D01*
X860Y779D01*
X862Y779D01*
X862Y777D01*
X884Y777D01*
X884Y779D01*
X886Y779D01*
X886Y781D01*
X888Y781D01*
X888Y783D01*
X890Y783D01*
X890Y785D01*
X892Y785D01*
X892Y787D01*
X894Y787D01*
X894Y789D01*
X896Y789D01*
X896Y791D01*
X900Y791D01*
X900Y793D01*
X902Y793D01*
X902Y795D01*
X908Y795D01*
X908Y797D01*
X912Y797D01*
X912Y799D01*
X924Y799D01*
X924Y801D01*
X40Y801D01*
G37*
D02*
G36*
X934Y801D02*
X934Y799D01*
X944Y799D01*
X944Y797D01*
X950Y797D01*
X950Y795D01*
X954Y795D01*
X954Y793D01*
X958Y793D01*
X958Y791D01*
X960Y791D01*
X960Y789D01*
X964Y789D01*
X964Y787D01*
X966Y787D01*
X966Y785D01*
X968Y785D01*
X968Y783D01*
X970Y783D01*
X970Y781D01*
X972Y781D01*
X972Y779D01*
X974Y779D01*
X974Y775D01*
X976Y775D01*
X976Y773D01*
X978Y773D01*
X978Y769D01*
X980Y769D01*
X980Y765D01*
X982Y765D01*
X982Y757D01*
X984Y757D01*
X984Y731D01*
X982Y731D01*
X982Y725D01*
X980Y725D01*
X980Y719D01*
X978Y719D01*
X978Y717D01*
X976Y717D01*
X976Y713D01*
X974Y713D01*
X974Y711D01*
X972Y711D01*
X972Y707D01*
X970Y707D01*
X970Y705D01*
X968Y705D01*
X968Y703D01*
X964Y703D01*
X964Y701D01*
X962Y701D01*
X962Y699D01*
X960Y699D01*
X960Y697D01*
X956Y697D01*
X956Y695D01*
X954Y695D01*
X954Y693D01*
X948Y693D01*
X948Y691D01*
X942Y691D01*
X942Y689D01*
X1066Y689D01*
X1066Y691D01*
X1060Y691D01*
X1060Y693D01*
X1054Y693D01*
X1054Y695D01*
X1050Y695D01*
X1050Y697D01*
X1048Y697D01*
X1048Y699D01*
X1046Y699D01*
X1046Y701D01*
X1042Y701D01*
X1042Y703D01*
X1040Y703D01*
X1040Y705D01*
X1038Y705D01*
X1038Y707D01*
X1036Y707D01*
X1036Y709D01*
X1034Y709D01*
X1034Y713D01*
X1032Y713D01*
X1032Y715D01*
X1030Y715D01*
X1030Y719D01*
X1028Y719D01*
X1028Y723D01*
X1026Y723D01*
X1026Y729D01*
X1024Y729D01*
X1024Y741D01*
X1022Y741D01*
X1022Y747D01*
X1024Y747D01*
X1024Y759D01*
X1026Y759D01*
X1026Y765D01*
X1028Y765D01*
X1028Y769D01*
X1030Y769D01*
X1030Y773D01*
X1032Y773D01*
X1032Y777D01*
X1034Y777D01*
X1034Y779D01*
X1036Y779D01*
X1036Y781D01*
X1038Y781D01*
X1038Y783D01*
X1040Y783D01*
X1040Y785D01*
X1042Y785D01*
X1042Y787D01*
X1044Y787D01*
X1044Y789D01*
X1046Y789D01*
X1046Y791D01*
X1050Y791D01*
X1050Y793D01*
X1052Y793D01*
X1052Y795D01*
X1058Y795D01*
X1058Y797D01*
X1062Y797D01*
X1062Y799D01*
X1074Y799D01*
X1074Y801D01*
X934Y801D01*
G37*
D02*
G36*
X40Y791D02*
X40Y741D01*
X292Y741D01*
X292Y739D01*
X298Y739D01*
X298Y737D01*
X302Y737D01*
X302Y735D01*
X304Y735D01*
X304Y733D01*
X308Y733D01*
X308Y731D01*
X310Y731D01*
X310Y729D01*
X312Y729D01*
X312Y727D01*
X314Y727D01*
X314Y725D01*
X316Y725D01*
X316Y723D01*
X318Y723D01*
X318Y719D01*
X320Y719D01*
X320Y715D01*
X322Y715D01*
X322Y711D01*
X324Y711D01*
X324Y705D01*
X326Y705D01*
X326Y697D01*
X420Y697D01*
X420Y699D01*
X412Y699D01*
X412Y701D01*
X408Y701D01*
X408Y703D01*
X404Y703D01*
X404Y705D01*
X402Y705D01*
X402Y707D01*
X398Y707D01*
X398Y709D01*
X396Y709D01*
X396Y711D01*
X394Y711D01*
X394Y713D01*
X392Y713D01*
X392Y717D01*
X390Y717D01*
X390Y719D01*
X388Y719D01*
X388Y723D01*
X386Y723D01*
X386Y727D01*
X384Y727D01*
X384Y733D01*
X382Y733D01*
X382Y755D01*
X384Y755D01*
X384Y763D01*
X386Y763D01*
X386Y767D01*
X388Y767D01*
X388Y769D01*
X390Y769D01*
X390Y773D01*
X392Y773D01*
X392Y775D01*
X394Y775D01*
X394Y777D01*
X396Y777D01*
X396Y779D01*
X398Y779D01*
X398Y781D01*
X400Y781D01*
X400Y783D01*
X402Y783D01*
X402Y785D01*
X406Y785D01*
X406Y787D01*
X410Y787D01*
X410Y789D01*
X416Y789D01*
X416Y791D01*
X40Y791D01*
G37*
D02*
G36*
X442Y791D02*
X442Y789D01*
X448Y789D01*
X448Y787D01*
X452Y787D01*
X452Y785D01*
X454Y785D01*
X454Y783D01*
X458Y783D01*
X458Y781D01*
X460Y781D01*
X460Y779D01*
X462Y779D01*
X462Y777D01*
X464Y777D01*
X464Y775D01*
X466Y775D01*
X466Y773D01*
X468Y773D01*
X468Y769D01*
X490Y769D01*
X490Y773D01*
X492Y773D01*
X492Y775D01*
X494Y775D01*
X494Y777D01*
X496Y777D01*
X496Y779D01*
X498Y779D01*
X498Y781D01*
X500Y781D01*
X500Y783D01*
X502Y783D01*
X502Y785D01*
X506Y785D01*
X506Y787D01*
X510Y787D01*
X510Y789D01*
X516Y789D01*
X516Y791D01*
X442Y791D01*
G37*
D02*
G36*
X542Y791D02*
X542Y789D01*
X548Y789D01*
X548Y787D01*
X552Y787D01*
X552Y785D01*
X554Y785D01*
X554Y783D01*
X558Y783D01*
X558Y781D01*
X560Y781D01*
X560Y779D01*
X562Y779D01*
X562Y777D01*
X564Y777D01*
X564Y775D01*
X566Y775D01*
X566Y773D01*
X568Y773D01*
X568Y769D01*
X590Y769D01*
X590Y773D01*
X592Y773D01*
X592Y775D01*
X594Y775D01*
X594Y777D01*
X596Y777D01*
X596Y779D01*
X598Y779D01*
X598Y781D01*
X600Y781D01*
X600Y783D01*
X602Y783D01*
X602Y785D01*
X606Y785D01*
X606Y787D01*
X610Y787D01*
X610Y789D01*
X616Y789D01*
X616Y791D01*
X542Y791D01*
G37*
D02*
G36*
X642Y791D02*
X642Y789D01*
X648Y789D01*
X648Y787D01*
X652Y787D01*
X652Y785D01*
X654Y785D01*
X654Y783D01*
X658Y783D01*
X658Y781D01*
X660Y781D01*
X660Y779D01*
X662Y779D01*
X662Y777D01*
X664Y777D01*
X664Y775D01*
X666Y775D01*
X666Y773D01*
X668Y773D01*
X668Y769D01*
X690Y769D01*
X690Y773D01*
X692Y773D01*
X692Y775D01*
X694Y775D01*
X694Y777D01*
X696Y777D01*
X696Y779D01*
X698Y779D01*
X698Y781D01*
X700Y781D01*
X700Y783D01*
X702Y783D01*
X702Y785D01*
X706Y785D01*
X706Y787D01*
X710Y787D01*
X710Y789D01*
X716Y789D01*
X716Y791D01*
X642Y791D01*
G37*
D02*
G36*
X742Y791D02*
X742Y789D01*
X748Y789D01*
X748Y787D01*
X752Y787D01*
X752Y785D01*
X754Y785D01*
X754Y783D01*
X758Y783D01*
X758Y781D01*
X760Y781D01*
X760Y779D01*
X762Y779D01*
X762Y777D01*
X764Y777D01*
X764Y775D01*
X766Y775D01*
X766Y773D01*
X768Y773D01*
X768Y769D01*
X790Y769D01*
X790Y773D01*
X792Y773D01*
X792Y775D01*
X794Y775D01*
X794Y777D01*
X796Y777D01*
X796Y779D01*
X798Y779D01*
X798Y781D01*
X800Y781D01*
X800Y783D01*
X802Y783D01*
X802Y785D01*
X806Y785D01*
X806Y787D01*
X810Y787D01*
X810Y789D01*
X816Y789D01*
X816Y791D01*
X742Y791D01*
G37*
D02*
G36*
X40Y741D02*
X40Y547D01*
X232Y547D01*
X232Y641D01*
X246Y641D01*
X246Y661D01*
X244Y661D01*
X244Y663D01*
X242Y663D01*
X242Y667D01*
X240Y667D01*
X240Y669D01*
X238Y669D01*
X238Y673D01*
X236Y673D01*
X236Y677D01*
X234Y677D01*
X234Y683D01*
X232Y683D01*
X232Y705D01*
X234Y705D01*
X234Y713D01*
X236Y713D01*
X236Y717D01*
X238Y717D01*
X238Y719D01*
X240Y719D01*
X240Y723D01*
X242Y723D01*
X242Y725D01*
X244Y725D01*
X244Y727D01*
X246Y727D01*
X246Y729D01*
X248Y729D01*
X248Y731D01*
X250Y731D01*
X250Y733D01*
X252Y733D01*
X252Y735D01*
X256Y735D01*
X256Y737D01*
X260Y737D01*
X260Y739D01*
X266Y739D01*
X266Y741D01*
X40Y741D01*
G37*
D02*
G36*
X468Y719D02*
X468Y717D01*
X466Y717D01*
X466Y713D01*
X464Y713D01*
X464Y711D01*
X462Y711D01*
X462Y709D01*
X458Y709D01*
X458Y707D01*
X456Y707D01*
X456Y705D01*
X454Y705D01*
X454Y703D01*
X450Y703D01*
X450Y701D01*
X446Y701D01*
X446Y699D01*
X438Y699D01*
X438Y697D01*
X520Y697D01*
X520Y699D01*
X512Y699D01*
X512Y701D01*
X508Y701D01*
X508Y703D01*
X504Y703D01*
X504Y705D01*
X502Y705D01*
X502Y707D01*
X498Y707D01*
X498Y709D01*
X496Y709D01*
X496Y711D01*
X494Y711D01*
X494Y713D01*
X492Y713D01*
X492Y717D01*
X490Y717D01*
X490Y719D01*
X468Y719D01*
G37*
D02*
G36*
X568Y719D02*
X568Y717D01*
X566Y717D01*
X566Y713D01*
X564Y713D01*
X564Y711D01*
X562Y711D01*
X562Y709D01*
X558Y709D01*
X558Y707D01*
X556Y707D01*
X556Y705D01*
X554Y705D01*
X554Y703D01*
X550Y703D01*
X550Y701D01*
X546Y701D01*
X546Y699D01*
X538Y699D01*
X538Y697D01*
X620Y697D01*
X620Y699D01*
X612Y699D01*
X612Y701D01*
X608Y701D01*
X608Y703D01*
X604Y703D01*
X604Y705D01*
X602Y705D01*
X602Y707D01*
X598Y707D01*
X598Y709D01*
X596Y709D01*
X596Y711D01*
X594Y711D01*
X594Y713D01*
X592Y713D01*
X592Y717D01*
X590Y717D01*
X590Y719D01*
X568Y719D01*
G37*
D02*
G36*
X668Y719D02*
X668Y717D01*
X666Y717D01*
X666Y713D01*
X664Y713D01*
X664Y711D01*
X662Y711D01*
X662Y709D01*
X658Y709D01*
X658Y707D01*
X656Y707D01*
X656Y705D01*
X654Y705D01*
X654Y703D01*
X650Y703D01*
X650Y701D01*
X646Y701D01*
X646Y699D01*
X638Y699D01*
X638Y697D01*
X720Y697D01*
X720Y699D01*
X712Y699D01*
X712Y701D01*
X708Y701D01*
X708Y703D01*
X704Y703D01*
X704Y705D01*
X702Y705D01*
X702Y707D01*
X698Y707D01*
X698Y709D01*
X696Y709D01*
X696Y711D01*
X694Y711D01*
X694Y713D01*
X692Y713D01*
X692Y717D01*
X690Y717D01*
X690Y719D01*
X668Y719D01*
G37*
D02*
G36*
X768Y719D02*
X768Y717D01*
X766Y717D01*
X766Y713D01*
X764Y713D01*
X764Y711D01*
X762Y711D01*
X762Y709D01*
X758Y709D01*
X758Y707D01*
X756Y707D01*
X756Y705D01*
X754Y705D01*
X754Y703D01*
X750Y703D01*
X750Y701D01*
X746Y701D01*
X746Y699D01*
X738Y699D01*
X738Y697D01*
X820Y697D01*
X820Y699D01*
X812Y699D01*
X812Y701D01*
X808Y701D01*
X808Y703D01*
X804Y703D01*
X804Y705D01*
X802Y705D01*
X802Y707D01*
X798Y707D01*
X798Y709D01*
X796Y709D01*
X796Y711D01*
X794Y711D01*
X794Y713D01*
X792Y713D01*
X792Y717D01*
X790Y717D01*
X790Y719D01*
X768Y719D01*
G37*
D02*
G36*
X864Y713D02*
X864Y711D01*
X862Y711D01*
X862Y709D01*
X858Y709D01*
X858Y707D01*
X856Y707D01*
X856Y705D01*
X854Y705D01*
X854Y703D01*
X850Y703D01*
X850Y701D01*
X846Y701D01*
X846Y699D01*
X838Y699D01*
X838Y697D01*
X898Y697D01*
X898Y699D01*
X896Y699D01*
X896Y701D01*
X892Y701D01*
X892Y703D01*
X890Y703D01*
X890Y705D01*
X888Y705D01*
X888Y707D01*
X886Y707D01*
X886Y709D01*
X884Y709D01*
X884Y713D01*
X864Y713D01*
G37*
D02*
G36*
X326Y697D02*
X326Y695D01*
X900Y695D01*
X900Y697D01*
X326Y697D01*
G37*
D02*
G36*
X326Y697D02*
X326Y695D01*
X900Y695D01*
X900Y697D01*
X326Y697D01*
G37*
D02*
G36*
X326Y697D02*
X326Y695D01*
X900Y695D01*
X900Y697D01*
X326Y697D01*
G37*
D02*
G36*
X326Y697D02*
X326Y695D01*
X900Y695D01*
X900Y697D01*
X326Y697D01*
G37*
D02*
G36*
X326Y697D02*
X326Y695D01*
X900Y695D01*
X900Y697D01*
X326Y697D01*
G37*
D02*
G36*
X326Y697D02*
X326Y695D01*
X900Y695D01*
X900Y697D01*
X326Y697D01*
G37*
D02*
G36*
X326Y695D02*
X326Y689D01*
X916Y689D01*
X916Y691D01*
X910Y691D01*
X910Y693D01*
X904Y693D01*
X904Y695D01*
X326Y695D01*
G37*
D02*
G36*
X326Y689D02*
X326Y687D01*
X1286Y687D01*
X1286Y689D01*
X326Y689D01*
G37*
D02*
G36*
X326Y689D02*
X326Y687D01*
X1286Y687D01*
X1286Y689D01*
X326Y689D01*
G37*
D02*
G36*
X326Y689D02*
X326Y687D01*
X1286Y687D01*
X1286Y689D01*
X326Y689D01*
G37*
D02*
G36*
X326Y687D02*
X326Y683D01*
X324Y683D01*
X324Y677D01*
X322Y677D01*
X322Y673D01*
X320Y673D01*
X320Y669D01*
X318Y669D01*
X318Y667D01*
X316Y667D01*
X316Y663D01*
X314Y663D01*
X314Y661D01*
X312Y661D01*
X312Y641D01*
X326Y641D01*
X326Y547D01*
X1286Y547D01*
X1286Y687D01*
X326Y687D01*
G37*
D02*
G36*
X40Y547D02*
X40Y545D01*
X1286Y545D01*
X1286Y547D01*
X40Y547D01*
G37*
D02*
G36*
X40Y547D02*
X40Y545D01*
X1286Y545D01*
X1286Y547D01*
X40Y547D01*
G37*
D02*
G36*
X40Y545D02*
X40Y501D01*
X1134Y501D01*
X1134Y389D01*
X1286Y389D01*
X1286Y545D01*
X40Y545D01*
G37*
D02*
G36*
X40Y501D02*
X40Y391D01*
X842Y391D01*
X842Y389D01*
X848Y389D01*
X848Y387D01*
X852Y387D01*
X852Y385D01*
X854Y385D01*
X854Y383D01*
X858Y383D01*
X858Y381D01*
X860Y381D01*
X860Y379D01*
X862Y379D01*
X862Y377D01*
X864Y377D01*
X864Y375D01*
X866Y375D01*
X866Y373D01*
X868Y373D01*
X868Y369D01*
X870Y369D01*
X870Y365D01*
X872Y365D01*
X872Y361D01*
X874Y361D01*
X874Y355D01*
X876Y355D01*
X876Y333D01*
X874Y333D01*
X874Y327D01*
X872Y327D01*
X872Y323D01*
X870Y323D01*
X870Y319D01*
X868Y319D01*
X868Y317D01*
X866Y317D01*
X866Y313D01*
X864Y313D01*
X864Y311D01*
X862Y311D01*
X862Y309D01*
X858Y309D01*
X858Y307D01*
X856Y307D01*
X856Y305D01*
X854Y305D01*
X854Y303D01*
X850Y303D01*
X850Y301D01*
X846Y301D01*
X846Y299D01*
X838Y299D01*
X838Y297D01*
X890Y297D01*
X890Y305D01*
X892Y305D01*
X892Y313D01*
X894Y313D01*
X894Y321D01*
X896Y321D01*
X896Y329D01*
X898Y329D01*
X898Y353D01*
X900Y353D01*
X900Y359D01*
X902Y359D01*
X902Y363D01*
X904Y363D01*
X904Y365D01*
X906Y365D01*
X906Y367D01*
X908Y367D01*
X908Y369D01*
X910Y369D01*
X910Y389D01*
X872Y389D01*
X872Y499D01*
X874Y499D01*
X874Y501D01*
X40Y501D01*
G37*
D02*
G36*
X984Y501D02*
X984Y389D01*
X1022Y389D01*
X1022Y499D01*
X1024Y499D01*
X1024Y501D01*
X984Y501D01*
G37*
D02*
G36*
X40Y391D02*
X40Y297D01*
X420Y297D01*
X420Y299D01*
X412Y299D01*
X412Y301D01*
X408Y301D01*
X408Y303D01*
X404Y303D01*
X404Y305D01*
X402Y305D01*
X402Y307D01*
X398Y307D01*
X398Y309D01*
X396Y309D01*
X396Y311D01*
X394Y311D01*
X394Y313D01*
X392Y313D01*
X392Y317D01*
X390Y317D01*
X390Y319D01*
X388Y319D01*
X388Y323D01*
X386Y323D01*
X386Y327D01*
X384Y327D01*
X384Y333D01*
X382Y333D01*
X382Y355D01*
X384Y355D01*
X384Y363D01*
X386Y363D01*
X386Y367D01*
X388Y367D01*
X388Y369D01*
X390Y369D01*
X390Y373D01*
X392Y373D01*
X392Y375D01*
X394Y375D01*
X394Y377D01*
X396Y377D01*
X396Y379D01*
X398Y379D01*
X398Y381D01*
X400Y381D01*
X400Y383D01*
X402Y383D01*
X402Y385D01*
X406Y385D01*
X406Y387D01*
X410Y387D01*
X410Y389D01*
X416Y389D01*
X416Y391D01*
X40Y391D01*
G37*
D02*
G36*
X442Y391D02*
X442Y389D01*
X448Y389D01*
X448Y387D01*
X452Y387D01*
X452Y385D01*
X454Y385D01*
X454Y383D01*
X458Y383D01*
X458Y381D01*
X460Y381D01*
X460Y379D01*
X462Y379D01*
X462Y377D01*
X464Y377D01*
X464Y375D01*
X466Y375D01*
X466Y373D01*
X468Y373D01*
X468Y369D01*
X490Y369D01*
X490Y373D01*
X492Y373D01*
X492Y375D01*
X494Y375D01*
X494Y377D01*
X496Y377D01*
X496Y379D01*
X498Y379D01*
X498Y381D01*
X500Y381D01*
X500Y383D01*
X502Y383D01*
X502Y385D01*
X506Y385D01*
X506Y387D01*
X510Y387D01*
X510Y389D01*
X516Y389D01*
X516Y391D01*
X442Y391D01*
G37*
D02*
G36*
X542Y391D02*
X542Y389D01*
X548Y389D01*
X548Y387D01*
X552Y387D01*
X552Y385D01*
X554Y385D01*
X554Y383D01*
X558Y383D01*
X558Y381D01*
X560Y381D01*
X560Y379D01*
X562Y379D01*
X562Y377D01*
X564Y377D01*
X564Y375D01*
X566Y375D01*
X566Y373D01*
X568Y373D01*
X568Y369D01*
X590Y369D01*
X590Y373D01*
X592Y373D01*
X592Y375D01*
X594Y375D01*
X594Y377D01*
X596Y377D01*
X596Y379D01*
X598Y379D01*
X598Y381D01*
X600Y381D01*
X600Y383D01*
X602Y383D01*
X602Y385D01*
X606Y385D01*
X606Y387D01*
X610Y387D01*
X610Y389D01*
X616Y389D01*
X616Y391D01*
X542Y391D01*
G37*
D02*
G36*
X642Y391D02*
X642Y389D01*
X648Y389D01*
X648Y387D01*
X652Y387D01*
X652Y385D01*
X654Y385D01*
X654Y383D01*
X658Y383D01*
X658Y381D01*
X660Y381D01*
X660Y379D01*
X662Y379D01*
X662Y377D01*
X664Y377D01*
X664Y375D01*
X666Y375D01*
X666Y373D01*
X668Y373D01*
X668Y369D01*
X690Y369D01*
X690Y373D01*
X692Y373D01*
X692Y375D01*
X694Y375D01*
X694Y377D01*
X696Y377D01*
X696Y379D01*
X698Y379D01*
X698Y381D01*
X700Y381D01*
X700Y383D01*
X702Y383D01*
X702Y385D01*
X706Y385D01*
X706Y387D01*
X710Y387D01*
X710Y389D01*
X716Y389D01*
X716Y391D01*
X642Y391D01*
G37*
D02*
G36*
X742Y391D02*
X742Y389D01*
X748Y389D01*
X748Y387D01*
X752Y387D01*
X752Y385D01*
X754Y385D01*
X754Y383D01*
X758Y383D01*
X758Y381D01*
X760Y381D01*
X760Y379D01*
X762Y379D01*
X762Y377D01*
X764Y377D01*
X764Y375D01*
X766Y375D01*
X766Y373D01*
X768Y373D01*
X768Y369D01*
X790Y369D01*
X790Y373D01*
X792Y373D01*
X792Y375D01*
X794Y375D01*
X794Y377D01*
X796Y377D01*
X796Y379D01*
X798Y379D01*
X798Y381D01*
X800Y381D01*
X800Y383D01*
X802Y383D01*
X802Y385D01*
X806Y385D01*
X806Y387D01*
X810Y387D01*
X810Y389D01*
X816Y389D01*
X816Y391D01*
X742Y391D01*
G37*
D02*
G36*
X944Y389D02*
X944Y387D01*
X1286Y387D01*
X1286Y389D01*
X944Y389D01*
G37*
D02*
G36*
X944Y389D02*
X944Y387D01*
X1286Y387D01*
X1286Y389D01*
X944Y389D01*
G37*
D02*
G36*
X944Y387D02*
X944Y369D01*
X948Y369D01*
X948Y367D01*
X950Y367D01*
X950Y363D01*
X952Y363D01*
X952Y361D01*
X954Y361D01*
X954Y357D01*
X956Y357D01*
X956Y349D01*
X958Y349D01*
X958Y343D01*
X956Y343D01*
X956Y335D01*
X954Y335D01*
X954Y331D01*
X952Y331D01*
X952Y327D01*
X950Y327D01*
X950Y325D01*
X1082Y325D01*
X1082Y323D01*
X1090Y323D01*
X1090Y321D01*
X1094Y321D01*
X1094Y319D01*
X1096Y319D01*
X1096Y317D01*
X1098Y317D01*
X1098Y315D01*
X1100Y315D01*
X1100Y313D01*
X1102Y313D01*
X1102Y311D01*
X1104Y311D01*
X1104Y307D01*
X1106Y307D01*
X1106Y299D01*
X1108Y299D01*
X1108Y291D01*
X1106Y291D01*
X1106Y283D01*
X1104Y283D01*
X1104Y279D01*
X1102Y279D01*
X1102Y277D01*
X1100Y277D01*
X1100Y275D01*
X1098Y275D01*
X1098Y273D01*
X1096Y273D01*
X1096Y271D01*
X1094Y271D01*
X1094Y269D01*
X1092Y269D01*
X1092Y263D01*
X1090Y263D01*
X1090Y259D01*
X1088Y259D01*
X1088Y255D01*
X1086Y255D01*
X1086Y251D01*
X1084Y251D01*
X1084Y247D01*
X1082Y247D01*
X1082Y243D01*
X1080Y243D01*
X1080Y239D01*
X1078Y239D01*
X1078Y235D01*
X1076Y235D01*
X1076Y231D01*
X1074Y231D01*
X1074Y227D01*
X1072Y227D01*
X1072Y223D01*
X1070Y223D01*
X1070Y219D01*
X1068Y219D01*
X1068Y215D01*
X1066Y215D01*
X1066Y211D01*
X1064Y211D01*
X1064Y207D01*
X1062Y207D01*
X1062Y201D01*
X1060Y201D01*
X1060Y197D01*
X1058Y197D01*
X1058Y193D01*
X1056Y193D01*
X1056Y189D01*
X1054Y189D01*
X1054Y185D01*
X1052Y185D01*
X1052Y181D01*
X1050Y181D01*
X1050Y177D01*
X1048Y177D01*
X1048Y173D01*
X1046Y173D01*
X1046Y169D01*
X1044Y169D01*
X1044Y165D01*
X1042Y165D01*
X1042Y161D01*
X1040Y161D01*
X1040Y157D01*
X1038Y157D01*
X1038Y153D01*
X1036Y153D01*
X1036Y149D01*
X1034Y149D01*
X1034Y145D01*
X1032Y145D01*
X1032Y141D01*
X1030Y141D01*
X1030Y137D01*
X1028Y137D01*
X1028Y133D01*
X1026Y133D01*
X1026Y129D01*
X1024Y129D01*
X1024Y125D01*
X1022Y125D01*
X1022Y121D01*
X1020Y121D01*
X1020Y117D01*
X1018Y117D01*
X1018Y113D01*
X1016Y113D01*
X1016Y109D01*
X1014Y109D01*
X1014Y105D01*
X1012Y105D01*
X1012Y101D01*
X1010Y101D01*
X1010Y99D01*
X1008Y99D01*
X1008Y85D01*
X1006Y85D01*
X1006Y81D01*
X1004Y81D01*
X1004Y77D01*
X1002Y77D01*
X1002Y75D01*
X1000Y75D01*
X1000Y73D01*
X998Y73D01*
X998Y71D01*
X996Y71D01*
X996Y69D01*
X992Y69D01*
X992Y67D01*
X986Y67D01*
X986Y65D01*
X1286Y65D01*
X1286Y387D01*
X944Y387D01*
G37*
D02*
G36*
X948Y325D02*
X948Y315D01*
X946Y315D01*
X946Y307D01*
X944Y307D01*
X944Y299D01*
X942Y299D01*
X942Y291D01*
X940Y291D01*
X940Y283D01*
X938Y283D01*
X938Y275D01*
X936Y275D01*
X936Y265D01*
X934Y265D01*
X934Y257D01*
X932Y257D01*
X932Y249D01*
X930Y249D01*
X930Y241D01*
X928Y241D01*
X928Y233D01*
X926Y233D01*
X926Y225D01*
X924Y225D01*
X924Y217D01*
X922Y217D01*
X922Y209D01*
X920Y209D01*
X920Y199D01*
X918Y199D01*
X918Y191D01*
X916Y191D01*
X916Y183D01*
X914Y183D01*
X914Y175D01*
X912Y175D01*
X912Y167D01*
X910Y167D01*
X910Y159D01*
X908Y159D01*
X908Y135D01*
X906Y135D01*
X906Y131D01*
X904Y131D01*
X904Y127D01*
X902Y127D01*
X902Y125D01*
X900Y125D01*
X900Y123D01*
X898Y123D01*
X898Y121D01*
X896Y121D01*
X896Y119D01*
X892Y119D01*
X892Y117D01*
X886Y117D01*
X886Y115D01*
X958Y115D01*
X958Y117D01*
X962Y117D01*
X962Y119D01*
X964Y119D01*
X964Y125D01*
X966Y125D01*
X966Y129D01*
X968Y129D01*
X968Y133D01*
X970Y133D01*
X970Y137D01*
X972Y137D01*
X972Y141D01*
X974Y141D01*
X974Y145D01*
X976Y145D01*
X976Y149D01*
X978Y149D01*
X978Y153D01*
X980Y153D01*
X980Y157D01*
X982Y157D01*
X982Y161D01*
X984Y161D01*
X984Y165D01*
X986Y165D01*
X986Y169D01*
X988Y169D01*
X988Y173D01*
X990Y173D01*
X990Y177D01*
X992Y177D01*
X992Y181D01*
X994Y181D01*
X994Y185D01*
X996Y185D01*
X996Y189D01*
X998Y189D01*
X998Y193D01*
X1000Y193D01*
X1000Y197D01*
X1002Y197D01*
X1002Y203D01*
X1004Y203D01*
X1004Y207D01*
X1006Y207D01*
X1006Y211D01*
X1008Y211D01*
X1008Y215D01*
X1010Y215D01*
X1010Y219D01*
X1012Y219D01*
X1012Y223D01*
X1014Y223D01*
X1014Y227D01*
X1016Y227D01*
X1016Y231D01*
X1018Y231D01*
X1018Y235D01*
X1020Y235D01*
X1020Y239D01*
X1022Y239D01*
X1022Y243D01*
X1024Y243D01*
X1024Y247D01*
X1026Y247D01*
X1026Y251D01*
X1028Y251D01*
X1028Y255D01*
X1030Y255D01*
X1030Y259D01*
X1032Y259D01*
X1032Y263D01*
X1034Y263D01*
X1034Y267D01*
X1036Y267D01*
X1036Y271D01*
X1038Y271D01*
X1038Y275D01*
X1040Y275D01*
X1040Y279D01*
X1042Y279D01*
X1042Y283D01*
X1044Y283D01*
X1044Y287D01*
X1046Y287D01*
X1046Y289D01*
X1048Y289D01*
X1048Y301D01*
X1050Y301D01*
X1050Y307D01*
X1052Y307D01*
X1052Y311D01*
X1054Y311D01*
X1054Y313D01*
X1056Y313D01*
X1056Y315D01*
X1058Y315D01*
X1058Y317D01*
X1060Y317D01*
X1060Y319D01*
X1062Y319D01*
X1062Y321D01*
X1066Y321D01*
X1066Y323D01*
X1074Y323D01*
X1074Y325D01*
X948Y325D01*
G37*
D02*
G36*
X468Y319D02*
X468Y317D01*
X466Y317D01*
X466Y313D01*
X464Y313D01*
X464Y311D01*
X462Y311D01*
X462Y309D01*
X458Y309D01*
X458Y307D01*
X456Y307D01*
X456Y305D01*
X454Y305D01*
X454Y303D01*
X450Y303D01*
X450Y301D01*
X446Y301D01*
X446Y299D01*
X438Y299D01*
X438Y297D01*
X520Y297D01*
X520Y299D01*
X512Y299D01*
X512Y301D01*
X508Y301D01*
X508Y303D01*
X504Y303D01*
X504Y305D01*
X502Y305D01*
X502Y307D01*
X498Y307D01*
X498Y309D01*
X496Y309D01*
X496Y311D01*
X494Y311D01*
X494Y313D01*
X492Y313D01*
X492Y317D01*
X490Y317D01*
X490Y319D01*
X468Y319D01*
G37*
D02*
G36*
X568Y319D02*
X568Y317D01*
X566Y317D01*
X566Y313D01*
X564Y313D01*
X564Y311D01*
X562Y311D01*
X562Y309D01*
X558Y309D01*
X558Y307D01*
X556Y307D01*
X556Y305D01*
X554Y305D01*
X554Y303D01*
X550Y303D01*
X550Y301D01*
X546Y301D01*
X546Y299D01*
X538Y299D01*
X538Y297D01*
X620Y297D01*
X620Y299D01*
X612Y299D01*
X612Y301D01*
X608Y301D01*
X608Y303D01*
X604Y303D01*
X604Y305D01*
X602Y305D01*
X602Y307D01*
X598Y307D01*
X598Y309D01*
X596Y309D01*
X596Y311D01*
X594Y311D01*
X594Y313D01*
X592Y313D01*
X592Y317D01*
X590Y317D01*
X590Y319D01*
X568Y319D01*
G37*
D02*
G36*
X668Y319D02*
X668Y317D01*
X666Y317D01*
X666Y313D01*
X664Y313D01*
X664Y311D01*
X662Y311D01*
X662Y309D01*
X658Y309D01*
X658Y307D01*
X656Y307D01*
X656Y305D01*
X654Y305D01*
X654Y303D01*
X650Y303D01*
X650Y301D01*
X646Y301D01*
X646Y299D01*
X638Y299D01*
X638Y297D01*
X720Y297D01*
X720Y299D01*
X712Y299D01*
X712Y301D01*
X708Y301D01*
X708Y303D01*
X704Y303D01*
X704Y305D01*
X702Y305D01*
X702Y307D01*
X698Y307D01*
X698Y309D01*
X696Y309D01*
X696Y311D01*
X694Y311D01*
X694Y313D01*
X692Y313D01*
X692Y317D01*
X690Y317D01*
X690Y319D01*
X668Y319D01*
G37*
D02*
G36*
X768Y319D02*
X768Y317D01*
X766Y317D01*
X766Y313D01*
X764Y313D01*
X764Y311D01*
X762Y311D01*
X762Y309D01*
X758Y309D01*
X758Y307D01*
X756Y307D01*
X756Y305D01*
X754Y305D01*
X754Y303D01*
X750Y303D01*
X750Y301D01*
X746Y301D01*
X746Y299D01*
X738Y299D01*
X738Y297D01*
X820Y297D01*
X820Y299D01*
X812Y299D01*
X812Y301D01*
X808Y301D01*
X808Y303D01*
X804Y303D01*
X804Y305D01*
X802Y305D01*
X802Y307D01*
X798Y307D01*
X798Y309D01*
X796Y309D01*
X796Y311D01*
X794Y311D01*
X794Y313D01*
X792Y313D01*
X792Y317D01*
X790Y317D01*
X790Y319D01*
X768Y319D01*
G37*
D02*
G36*
X40Y297D02*
X40Y295D01*
X888Y295D01*
X888Y297D01*
X40Y297D01*
G37*
D02*
G36*
X40Y297D02*
X40Y295D01*
X888Y295D01*
X888Y297D01*
X40Y297D01*
G37*
D02*
G36*
X40Y297D02*
X40Y295D01*
X888Y295D01*
X888Y297D01*
X40Y297D01*
G37*
D02*
G36*
X40Y297D02*
X40Y295D01*
X888Y295D01*
X888Y297D01*
X40Y297D01*
G37*
D02*
G36*
X40Y297D02*
X40Y295D01*
X888Y295D01*
X888Y297D01*
X40Y297D01*
G37*
D02*
G36*
X40Y297D02*
X40Y295D01*
X888Y295D01*
X888Y297D01*
X40Y297D01*
G37*
D02*
G36*
X40Y295D02*
X40Y115D01*
X870Y115D01*
X870Y117D01*
X866Y117D01*
X866Y119D01*
X862Y119D01*
X862Y121D01*
X860Y121D01*
X860Y123D01*
X858Y123D01*
X858Y125D01*
X856Y125D01*
X856Y127D01*
X854Y127D01*
X854Y131D01*
X852Y131D01*
X852Y135D01*
X850Y135D01*
X850Y155D01*
X852Y155D01*
X852Y159D01*
X854Y159D01*
X854Y161D01*
X856Y161D01*
X856Y165D01*
X858Y165D01*
X858Y173D01*
X860Y173D01*
X860Y181D01*
X862Y181D01*
X862Y189D01*
X864Y189D01*
X864Y197D01*
X866Y197D01*
X866Y207D01*
X868Y207D01*
X868Y215D01*
X870Y215D01*
X870Y223D01*
X872Y223D01*
X872Y231D01*
X874Y231D01*
X874Y239D01*
X876Y239D01*
X876Y247D01*
X878Y247D01*
X878Y255D01*
X880Y255D01*
X880Y263D01*
X882Y263D01*
X882Y273D01*
X884Y273D01*
X884Y281D01*
X886Y281D01*
X886Y289D01*
X888Y289D01*
X888Y295D01*
X40Y295D01*
G37*
D02*
G36*
X40Y115D02*
X40Y113D01*
X956Y113D01*
X956Y115D01*
X40Y115D01*
G37*
D02*
G36*
X40Y115D02*
X40Y113D01*
X956Y113D01*
X956Y115D01*
X40Y115D01*
G37*
D02*
G36*
X40Y113D02*
X40Y65D01*
X970Y65D01*
X970Y67D01*
X966Y67D01*
X966Y69D01*
X962Y69D01*
X962Y71D01*
X960Y71D01*
X960Y73D01*
X958Y73D01*
X958Y75D01*
X956Y75D01*
X956Y77D01*
X954Y77D01*
X954Y81D01*
X952Y81D01*
X952Y85D01*
X950Y85D01*
X950Y105D01*
X952Y105D01*
X952Y109D01*
X954Y109D01*
X954Y111D01*
X956Y111D01*
X956Y113D01*
X40Y113D01*
G37*
D02*
G36*
X40Y65D02*
X40Y63D01*
X1286Y63D01*
X1286Y65D01*
X40Y65D01*
G37*
D02*
G36*
X40Y65D02*
X40Y63D01*
X1286Y63D01*
X1286Y65D01*
X40Y65D01*
G37*
D02*
G36*
X40Y63D02*
X40Y41D01*
X1286Y41D01*
X1286Y63D01*
X40Y63D01*
G37*
D02*
G36*
X1050Y723D02*
X1101Y723D01*
X1101Y689D01*
X1050Y689D01*
X1050Y723D01*
G37*
D02*
G36*
X1100Y773D02*
X1134Y773D01*
X1134Y722D01*
X1100Y722D01*
X1100Y773D01*
G37*
D02*
G36*
X804Y795D02*
X847Y795D01*
X847Y765D01*
X804Y765D01*
X804Y795D01*
G37*
D02*
G36*
X804Y731D02*
X847Y731D01*
X847Y697D01*
X804Y697D01*
X804Y731D01*
G37*
D02*
G36*
X900Y805D02*
X951Y805D01*
X951Y773D01*
X900Y773D01*
X900Y805D01*
G37*
D02*
G36*
X900Y723D02*
X951Y723D01*
X951Y689D01*
X900Y689D01*
X900Y723D01*
G37*
D02*
G36*
X256Y581D02*
X299Y581D01*
X299Y547D01*
X256Y547D01*
X256Y581D01*
G37*
D02*
G36*
X228Y619D02*
X260Y619D01*
X260Y576D01*
X228Y576D01*
X228Y619D01*
G37*
D02*
G36*
X294Y619D02*
X326Y619D01*
X326Y576D01*
X294Y576D01*
X294Y619D01*
G37*
D02*
G04 End of Copper0*
M02*