G04 MADE WITH FRITZING*
G04 WWW.FRITZING.ORG*
G04 DOUBLE SIDED*
G04 HOLES PLATED*
G04 CONTOUR ON CENTER OF CONTOUR VECTOR*
%ASAXBY*%
%FSLAX23Y23*%
%MOIN*%
%OFA0B0*%
%SFA1.0B1.0*%
%ADD10C,0.075000*%
%ADD11C,0.062992*%
%ADD12C,0.082000*%
%ADD13C,0.078000*%
%ADD14R,0.075000X0.075000*%
%ADD15R,0.062992X0.062992*%
%ADD16R,0.082000X0.082000*%
%ADD17R,0.078000X0.078000*%
%ADD18C,0.024000*%
%LNCOPPER0*%
G90*
G70*
G54D10*
X122Y1820D03*
X682Y771D03*
X982Y771D03*
X682Y671D03*
X982Y671D03*
X682Y571D03*
X982Y571D03*
X682Y471D03*
X982Y471D03*
X1582Y1621D03*
X1182Y1621D03*
X1182Y1471D03*
X1582Y1471D03*
X1332Y821D03*
X1432Y821D03*
X732Y271D03*
X832Y271D03*
X832Y921D03*
X832Y1321D03*
G54D11*
X782Y1620D03*
X782Y1521D03*
G54D10*
X1282Y1021D03*
X1282Y1277D03*
X1460Y1021D03*
X1460Y1277D03*
G54D12*
X282Y1321D03*
X382Y1321D03*
X482Y1321D03*
G54D10*
X232Y1071D03*
X132Y1071D03*
X432Y1071D03*
X532Y1071D03*
G54D13*
X382Y1621D03*
X282Y1621D03*
G54D14*
X682Y771D03*
X1332Y821D03*
X732Y271D03*
G54D15*
X782Y1620D03*
G54D16*
X282Y1321D03*
G54D14*
X232Y1071D03*
X432Y1071D03*
G54D17*
X382Y1621D03*
G54D18*
X1133Y1320D02*
X1282Y1371D01*
D02*
X1282Y1371D02*
X1483Y1371D01*
D02*
X1133Y773D02*
X1133Y1171D01*
D02*
X1483Y1371D02*
X1562Y1451D01*
D02*
X1133Y1171D02*
X1133Y1320D01*
D02*
X1006Y687D02*
X1133Y773D01*
D02*
X581Y923D02*
X804Y921D01*
D02*
X534Y722D02*
X581Y923D01*
D02*
X662Y592D02*
X534Y722D01*
D02*
X684Y1072D02*
X561Y1071D01*
D02*
X833Y1072D02*
X684Y1072D01*
D02*
X932Y1021D02*
X833Y1072D01*
D02*
X932Y871D02*
X932Y1021D01*
D02*
X969Y797D02*
X932Y871D01*
D02*
X955Y580D02*
X710Y662D01*
G36*
X40Y1892D02*
X40Y1670D01*
X1586Y1670D01*
X1586Y1668D01*
X1596Y1668D01*
X1596Y1666D01*
X1602Y1666D01*
X1602Y1664D01*
X1606Y1664D01*
X1606Y1662D01*
X1608Y1662D01*
X1608Y1660D01*
X1612Y1660D01*
X1612Y1658D01*
X1614Y1658D01*
X1614Y1656D01*
X1616Y1656D01*
X1616Y1654D01*
X1618Y1654D01*
X1618Y1652D01*
X1620Y1652D01*
X1620Y1650D01*
X1622Y1650D01*
X1622Y1646D01*
X1624Y1646D01*
X1624Y1642D01*
X1626Y1642D01*
X1626Y1638D01*
X1628Y1638D01*
X1628Y1630D01*
X1630Y1630D01*
X1630Y1612D01*
X1628Y1612D01*
X1628Y1606D01*
X1626Y1606D01*
X1626Y1602D01*
X1624Y1602D01*
X1624Y1598D01*
X1622Y1598D01*
X1622Y1594D01*
X1620Y1594D01*
X1620Y1592D01*
X1618Y1592D01*
X1618Y1590D01*
X1616Y1590D01*
X1616Y1588D01*
X1614Y1588D01*
X1614Y1586D01*
X1612Y1586D01*
X1612Y1584D01*
X1610Y1584D01*
X1610Y1582D01*
X1606Y1582D01*
X1606Y1580D01*
X1602Y1580D01*
X1602Y1578D01*
X1598Y1578D01*
X1598Y1576D01*
X1590Y1576D01*
X1590Y1574D01*
X1698Y1574D01*
X1698Y1892D01*
X40Y1892D01*
G37*
D02*
G36*
X40Y1670D02*
X40Y1572D01*
X278Y1572D01*
X278Y1574D01*
X268Y1574D01*
X268Y1576D01*
X262Y1576D01*
X262Y1578D01*
X260Y1578D01*
X260Y1580D01*
X256Y1580D01*
X256Y1582D01*
X252Y1582D01*
X252Y1584D01*
X250Y1584D01*
X250Y1586D01*
X248Y1586D01*
X248Y1588D01*
X246Y1588D01*
X246Y1590D01*
X244Y1590D01*
X244Y1594D01*
X242Y1594D01*
X242Y1596D01*
X240Y1596D01*
X240Y1600D01*
X238Y1600D01*
X238Y1604D01*
X236Y1604D01*
X236Y1610D01*
X234Y1610D01*
X234Y1634D01*
X236Y1634D01*
X236Y1640D01*
X238Y1640D01*
X238Y1644D01*
X240Y1644D01*
X240Y1648D01*
X242Y1648D01*
X242Y1650D01*
X244Y1650D01*
X244Y1652D01*
X246Y1652D01*
X246Y1656D01*
X248Y1656D01*
X248Y1658D01*
X250Y1658D01*
X250Y1660D01*
X254Y1660D01*
X254Y1662D01*
X256Y1662D01*
X256Y1664D01*
X260Y1664D01*
X260Y1666D01*
X264Y1666D01*
X264Y1668D01*
X270Y1668D01*
X270Y1670D01*
X40Y1670D01*
G37*
D02*
G36*
X294Y1670D02*
X294Y1668D01*
X302Y1668D01*
X302Y1666D01*
X304Y1666D01*
X304Y1664D01*
X308Y1664D01*
X308Y1662D01*
X312Y1662D01*
X312Y1660D01*
X314Y1660D01*
X314Y1658D01*
X334Y1658D01*
X334Y1670D01*
X294Y1670D01*
G37*
D02*
G36*
X432Y1670D02*
X432Y1662D01*
X824Y1662D01*
X824Y1578D01*
X800Y1578D01*
X800Y1574D01*
X1176Y1574D01*
X1176Y1576D01*
X1168Y1576D01*
X1168Y1578D01*
X1162Y1578D01*
X1162Y1580D01*
X1158Y1580D01*
X1158Y1582D01*
X1156Y1582D01*
X1156Y1584D01*
X1152Y1584D01*
X1152Y1586D01*
X1150Y1586D01*
X1150Y1588D01*
X1148Y1588D01*
X1148Y1590D01*
X1146Y1590D01*
X1146Y1592D01*
X1144Y1592D01*
X1144Y1596D01*
X1142Y1596D01*
X1142Y1600D01*
X1140Y1600D01*
X1140Y1602D01*
X1138Y1602D01*
X1138Y1608D01*
X1136Y1608D01*
X1136Y1620D01*
X1134Y1620D01*
X1134Y1622D01*
X1136Y1622D01*
X1136Y1634D01*
X1138Y1634D01*
X1138Y1640D01*
X1140Y1640D01*
X1140Y1644D01*
X1142Y1644D01*
X1142Y1648D01*
X1144Y1648D01*
X1144Y1650D01*
X1146Y1650D01*
X1146Y1654D01*
X1148Y1654D01*
X1148Y1656D01*
X1150Y1656D01*
X1150Y1658D01*
X1154Y1658D01*
X1154Y1660D01*
X1156Y1660D01*
X1156Y1662D01*
X1160Y1662D01*
X1160Y1664D01*
X1162Y1664D01*
X1162Y1666D01*
X1168Y1666D01*
X1168Y1668D01*
X1178Y1668D01*
X1178Y1670D01*
X432Y1670D01*
G37*
D02*
G36*
X1186Y1670D02*
X1186Y1668D01*
X1196Y1668D01*
X1196Y1666D01*
X1202Y1666D01*
X1202Y1664D01*
X1206Y1664D01*
X1206Y1662D01*
X1208Y1662D01*
X1208Y1660D01*
X1212Y1660D01*
X1212Y1658D01*
X1214Y1658D01*
X1214Y1656D01*
X1216Y1656D01*
X1216Y1654D01*
X1218Y1654D01*
X1218Y1652D01*
X1220Y1652D01*
X1220Y1650D01*
X1222Y1650D01*
X1222Y1646D01*
X1224Y1646D01*
X1224Y1642D01*
X1226Y1642D01*
X1226Y1638D01*
X1228Y1638D01*
X1228Y1630D01*
X1230Y1630D01*
X1230Y1612D01*
X1228Y1612D01*
X1228Y1606D01*
X1226Y1606D01*
X1226Y1602D01*
X1224Y1602D01*
X1224Y1598D01*
X1222Y1598D01*
X1222Y1594D01*
X1220Y1594D01*
X1220Y1592D01*
X1218Y1592D01*
X1218Y1590D01*
X1216Y1590D01*
X1216Y1588D01*
X1214Y1588D01*
X1214Y1586D01*
X1212Y1586D01*
X1212Y1584D01*
X1210Y1584D01*
X1210Y1582D01*
X1206Y1582D01*
X1206Y1580D01*
X1202Y1580D01*
X1202Y1578D01*
X1198Y1578D01*
X1198Y1576D01*
X1190Y1576D01*
X1190Y1574D01*
X1576Y1574D01*
X1576Y1576D01*
X1568Y1576D01*
X1568Y1578D01*
X1562Y1578D01*
X1562Y1580D01*
X1558Y1580D01*
X1558Y1582D01*
X1556Y1582D01*
X1556Y1584D01*
X1552Y1584D01*
X1552Y1586D01*
X1550Y1586D01*
X1550Y1588D01*
X1548Y1588D01*
X1548Y1590D01*
X1546Y1590D01*
X1546Y1592D01*
X1544Y1592D01*
X1544Y1596D01*
X1542Y1596D01*
X1542Y1600D01*
X1540Y1600D01*
X1540Y1602D01*
X1538Y1602D01*
X1538Y1608D01*
X1536Y1608D01*
X1536Y1634D01*
X1538Y1634D01*
X1538Y1640D01*
X1540Y1640D01*
X1540Y1644D01*
X1542Y1644D01*
X1542Y1648D01*
X1544Y1648D01*
X1544Y1650D01*
X1546Y1650D01*
X1546Y1654D01*
X1548Y1654D01*
X1548Y1656D01*
X1550Y1656D01*
X1550Y1658D01*
X1554Y1658D01*
X1554Y1660D01*
X1556Y1660D01*
X1556Y1662D01*
X1560Y1662D01*
X1560Y1664D01*
X1562Y1664D01*
X1562Y1666D01*
X1568Y1666D01*
X1568Y1668D01*
X1578Y1668D01*
X1578Y1670D01*
X1186Y1670D01*
G37*
D02*
G36*
X432Y1662D02*
X432Y1574D01*
X430Y1574D01*
X430Y1572D01*
X764Y1572D01*
X764Y1578D01*
X742Y1578D01*
X742Y1580D01*
X740Y1580D01*
X740Y1660D01*
X742Y1660D01*
X742Y1662D01*
X432Y1662D01*
G37*
D02*
G36*
X314Y1586D02*
X314Y1584D01*
X312Y1584D01*
X312Y1582D01*
X310Y1582D01*
X310Y1580D01*
X306Y1580D01*
X306Y1578D01*
X302Y1578D01*
X302Y1576D01*
X296Y1576D01*
X296Y1574D01*
X286Y1574D01*
X286Y1572D01*
X334Y1572D01*
X334Y1586D01*
X314Y1586D01*
G37*
D02*
G36*
X800Y1574D02*
X800Y1572D01*
X1698Y1572D01*
X1698Y1574D01*
X800Y1574D01*
G37*
D02*
G36*
X800Y1574D02*
X800Y1572D01*
X1698Y1572D01*
X1698Y1574D01*
X800Y1574D01*
G37*
D02*
G36*
X800Y1574D02*
X800Y1572D01*
X1698Y1572D01*
X1698Y1574D01*
X800Y1574D01*
G37*
D02*
G36*
X40Y1572D02*
X40Y1570D01*
X764Y1570D01*
X764Y1572D01*
X40Y1572D01*
G37*
D02*
G36*
X40Y1572D02*
X40Y1570D01*
X764Y1570D01*
X764Y1572D01*
X40Y1572D01*
G37*
D02*
G36*
X40Y1572D02*
X40Y1570D01*
X764Y1570D01*
X764Y1572D01*
X40Y1572D01*
G37*
D02*
G36*
X800Y1572D02*
X800Y1558D01*
X804Y1558D01*
X804Y1556D01*
X806Y1556D01*
X806Y1554D01*
X810Y1554D01*
X810Y1552D01*
X812Y1552D01*
X812Y1550D01*
X814Y1550D01*
X814Y1548D01*
X816Y1548D01*
X816Y1544D01*
X818Y1544D01*
X818Y1540D01*
X820Y1540D01*
X820Y1536D01*
X822Y1536D01*
X822Y1530D01*
X824Y1530D01*
X824Y1520D01*
X1586Y1520D01*
X1586Y1518D01*
X1596Y1518D01*
X1596Y1516D01*
X1602Y1516D01*
X1602Y1514D01*
X1606Y1514D01*
X1606Y1512D01*
X1608Y1512D01*
X1608Y1510D01*
X1612Y1510D01*
X1612Y1508D01*
X1614Y1508D01*
X1614Y1506D01*
X1616Y1506D01*
X1616Y1504D01*
X1618Y1504D01*
X1618Y1502D01*
X1620Y1502D01*
X1620Y1500D01*
X1622Y1500D01*
X1622Y1496D01*
X1624Y1496D01*
X1624Y1492D01*
X1626Y1492D01*
X1626Y1488D01*
X1628Y1488D01*
X1628Y1480D01*
X1630Y1480D01*
X1630Y1462D01*
X1628Y1462D01*
X1628Y1456D01*
X1626Y1456D01*
X1626Y1452D01*
X1624Y1452D01*
X1624Y1448D01*
X1622Y1448D01*
X1622Y1444D01*
X1620Y1444D01*
X1620Y1442D01*
X1618Y1442D01*
X1618Y1440D01*
X1616Y1440D01*
X1616Y1438D01*
X1614Y1438D01*
X1614Y1436D01*
X1612Y1436D01*
X1612Y1434D01*
X1610Y1434D01*
X1610Y1432D01*
X1606Y1432D01*
X1606Y1430D01*
X1602Y1430D01*
X1602Y1428D01*
X1598Y1428D01*
X1598Y1426D01*
X1590Y1426D01*
X1590Y1424D01*
X1564Y1424D01*
X1564Y1422D01*
X1562Y1422D01*
X1562Y1420D01*
X1560Y1420D01*
X1560Y1416D01*
X1558Y1416D01*
X1558Y1414D01*
X1556Y1414D01*
X1556Y1412D01*
X1554Y1412D01*
X1554Y1410D01*
X1552Y1410D01*
X1552Y1408D01*
X1550Y1408D01*
X1550Y1406D01*
X1548Y1406D01*
X1548Y1404D01*
X1546Y1404D01*
X1546Y1402D01*
X1544Y1402D01*
X1544Y1400D01*
X1542Y1400D01*
X1542Y1398D01*
X1540Y1398D01*
X1540Y1396D01*
X1538Y1396D01*
X1538Y1394D01*
X1536Y1394D01*
X1536Y1392D01*
X1534Y1392D01*
X1534Y1390D01*
X1532Y1390D01*
X1532Y1388D01*
X1530Y1388D01*
X1530Y1386D01*
X1528Y1386D01*
X1528Y1384D01*
X1526Y1384D01*
X1526Y1382D01*
X1524Y1382D01*
X1524Y1380D01*
X1522Y1380D01*
X1522Y1378D01*
X1520Y1378D01*
X1520Y1376D01*
X1518Y1376D01*
X1518Y1374D01*
X1516Y1374D01*
X1516Y1372D01*
X1514Y1372D01*
X1514Y1370D01*
X1512Y1370D01*
X1512Y1368D01*
X1510Y1368D01*
X1510Y1366D01*
X1508Y1366D01*
X1508Y1364D01*
X1506Y1364D01*
X1506Y1362D01*
X1504Y1362D01*
X1504Y1360D01*
X1502Y1360D01*
X1502Y1358D01*
X1500Y1358D01*
X1500Y1356D01*
X1498Y1356D01*
X1498Y1354D01*
X1494Y1354D01*
X1494Y1352D01*
X1490Y1352D01*
X1490Y1350D01*
X1284Y1350D01*
X1284Y1348D01*
X1278Y1348D01*
X1278Y1346D01*
X1272Y1346D01*
X1272Y1344D01*
X1266Y1344D01*
X1266Y1342D01*
X1260Y1342D01*
X1260Y1340D01*
X1254Y1340D01*
X1254Y1338D01*
X1248Y1338D01*
X1248Y1336D01*
X1242Y1336D01*
X1242Y1334D01*
X1236Y1334D01*
X1236Y1332D01*
X1230Y1332D01*
X1230Y1330D01*
X1224Y1330D01*
X1224Y1328D01*
X1218Y1328D01*
X1218Y1326D01*
X1462Y1326D01*
X1462Y1324D01*
X1472Y1324D01*
X1472Y1322D01*
X1478Y1322D01*
X1478Y1320D01*
X1482Y1320D01*
X1482Y1318D01*
X1486Y1318D01*
X1486Y1316D01*
X1488Y1316D01*
X1488Y1314D01*
X1492Y1314D01*
X1492Y1312D01*
X1494Y1312D01*
X1494Y1310D01*
X1496Y1310D01*
X1496Y1306D01*
X1498Y1306D01*
X1498Y1304D01*
X1500Y1304D01*
X1500Y1300D01*
X1502Y1300D01*
X1502Y1296D01*
X1504Y1296D01*
X1504Y1290D01*
X1506Y1290D01*
X1506Y1280D01*
X1508Y1280D01*
X1508Y1276D01*
X1506Y1276D01*
X1506Y1264D01*
X1504Y1264D01*
X1504Y1258D01*
X1502Y1258D01*
X1502Y1254D01*
X1500Y1254D01*
X1500Y1252D01*
X1498Y1252D01*
X1498Y1248D01*
X1496Y1248D01*
X1496Y1246D01*
X1494Y1246D01*
X1494Y1244D01*
X1492Y1244D01*
X1492Y1242D01*
X1490Y1242D01*
X1490Y1240D01*
X1486Y1240D01*
X1486Y1238D01*
X1484Y1238D01*
X1484Y1236D01*
X1480Y1236D01*
X1480Y1234D01*
X1476Y1234D01*
X1476Y1232D01*
X1468Y1232D01*
X1468Y1230D01*
X1698Y1230D01*
X1698Y1572D01*
X800Y1572D01*
G37*
D02*
G36*
X40Y1570D02*
X40Y1480D01*
X776Y1480D01*
X776Y1482D01*
X768Y1482D01*
X768Y1484D01*
X764Y1484D01*
X764Y1486D01*
X760Y1486D01*
X760Y1488D01*
X758Y1488D01*
X758Y1490D01*
X754Y1490D01*
X754Y1492D01*
X752Y1492D01*
X752Y1496D01*
X750Y1496D01*
X750Y1498D01*
X748Y1498D01*
X748Y1500D01*
X746Y1500D01*
X746Y1504D01*
X744Y1504D01*
X744Y1510D01*
X742Y1510D01*
X742Y1534D01*
X744Y1534D01*
X744Y1540D01*
X746Y1540D01*
X746Y1542D01*
X748Y1542D01*
X748Y1546D01*
X750Y1546D01*
X750Y1548D01*
X752Y1548D01*
X752Y1550D01*
X754Y1550D01*
X754Y1552D01*
X756Y1552D01*
X756Y1554D01*
X758Y1554D01*
X758Y1556D01*
X760Y1556D01*
X760Y1558D01*
X764Y1558D01*
X764Y1570D01*
X40Y1570D01*
G37*
D02*
G36*
X824Y1520D02*
X824Y1514D01*
X822Y1514D01*
X822Y1506D01*
X820Y1506D01*
X820Y1502D01*
X818Y1502D01*
X818Y1500D01*
X816Y1500D01*
X816Y1496D01*
X814Y1496D01*
X814Y1494D01*
X812Y1494D01*
X812Y1492D01*
X810Y1492D01*
X810Y1490D01*
X808Y1490D01*
X808Y1488D01*
X804Y1488D01*
X804Y1486D01*
X802Y1486D01*
X802Y1484D01*
X796Y1484D01*
X796Y1482D01*
X788Y1482D01*
X788Y1480D01*
X1136Y1480D01*
X1136Y1484D01*
X1138Y1484D01*
X1138Y1490D01*
X1140Y1490D01*
X1140Y1494D01*
X1142Y1494D01*
X1142Y1498D01*
X1144Y1498D01*
X1144Y1500D01*
X1146Y1500D01*
X1146Y1504D01*
X1148Y1504D01*
X1148Y1506D01*
X1150Y1506D01*
X1150Y1508D01*
X1154Y1508D01*
X1154Y1510D01*
X1156Y1510D01*
X1156Y1512D01*
X1160Y1512D01*
X1160Y1514D01*
X1162Y1514D01*
X1162Y1516D01*
X1168Y1516D01*
X1168Y1518D01*
X1178Y1518D01*
X1178Y1520D01*
X824Y1520D01*
G37*
D02*
G36*
X1186Y1520D02*
X1186Y1518D01*
X1196Y1518D01*
X1196Y1516D01*
X1202Y1516D01*
X1202Y1514D01*
X1206Y1514D01*
X1206Y1512D01*
X1208Y1512D01*
X1208Y1510D01*
X1212Y1510D01*
X1212Y1508D01*
X1214Y1508D01*
X1214Y1506D01*
X1216Y1506D01*
X1216Y1504D01*
X1218Y1504D01*
X1218Y1502D01*
X1220Y1502D01*
X1220Y1500D01*
X1222Y1500D01*
X1222Y1496D01*
X1224Y1496D01*
X1224Y1492D01*
X1226Y1492D01*
X1226Y1488D01*
X1228Y1488D01*
X1228Y1480D01*
X1230Y1480D01*
X1230Y1462D01*
X1228Y1462D01*
X1228Y1456D01*
X1226Y1456D01*
X1226Y1452D01*
X1224Y1452D01*
X1224Y1448D01*
X1222Y1448D01*
X1222Y1444D01*
X1220Y1444D01*
X1220Y1442D01*
X1218Y1442D01*
X1218Y1440D01*
X1216Y1440D01*
X1216Y1438D01*
X1214Y1438D01*
X1214Y1436D01*
X1212Y1436D01*
X1212Y1434D01*
X1210Y1434D01*
X1210Y1432D01*
X1206Y1432D01*
X1206Y1430D01*
X1202Y1430D01*
X1202Y1428D01*
X1198Y1428D01*
X1198Y1426D01*
X1190Y1426D01*
X1190Y1424D01*
X1504Y1424D01*
X1504Y1426D01*
X1506Y1426D01*
X1506Y1428D01*
X1508Y1428D01*
X1508Y1430D01*
X1510Y1430D01*
X1510Y1432D01*
X1512Y1432D01*
X1512Y1434D01*
X1514Y1434D01*
X1514Y1436D01*
X1516Y1436D01*
X1516Y1438D01*
X1518Y1438D01*
X1518Y1440D01*
X1520Y1440D01*
X1520Y1442D01*
X1522Y1442D01*
X1522Y1444D01*
X1524Y1444D01*
X1524Y1446D01*
X1526Y1446D01*
X1526Y1448D01*
X1528Y1448D01*
X1528Y1450D01*
X1530Y1450D01*
X1530Y1452D01*
X1532Y1452D01*
X1532Y1454D01*
X1534Y1454D01*
X1534Y1456D01*
X1536Y1456D01*
X1536Y1484D01*
X1538Y1484D01*
X1538Y1490D01*
X1540Y1490D01*
X1540Y1494D01*
X1542Y1494D01*
X1542Y1498D01*
X1544Y1498D01*
X1544Y1500D01*
X1546Y1500D01*
X1546Y1504D01*
X1548Y1504D01*
X1548Y1506D01*
X1550Y1506D01*
X1550Y1508D01*
X1554Y1508D01*
X1554Y1510D01*
X1556Y1510D01*
X1556Y1512D01*
X1560Y1512D01*
X1560Y1514D01*
X1562Y1514D01*
X1562Y1516D01*
X1568Y1516D01*
X1568Y1518D01*
X1578Y1518D01*
X1578Y1520D01*
X1186Y1520D01*
G37*
D02*
G36*
X40Y1480D02*
X40Y1478D01*
X1136Y1478D01*
X1136Y1480D01*
X40Y1480D01*
G37*
D02*
G36*
X40Y1480D02*
X40Y1478D01*
X1136Y1478D01*
X1136Y1480D01*
X40Y1480D01*
G37*
D02*
G36*
X40Y1478D02*
X40Y1424D01*
X1176Y1424D01*
X1176Y1426D01*
X1168Y1426D01*
X1168Y1428D01*
X1162Y1428D01*
X1162Y1430D01*
X1158Y1430D01*
X1158Y1432D01*
X1156Y1432D01*
X1156Y1434D01*
X1152Y1434D01*
X1152Y1436D01*
X1150Y1436D01*
X1150Y1438D01*
X1148Y1438D01*
X1148Y1440D01*
X1146Y1440D01*
X1146Y1442D01*
X1144Y1442D01*
X1144Y1446D01*
X1142Y1446D01*
X1142Y1450D01*
X1140Y1450D01*
X1140Y1452D01*
X1138Y1452D01*
X1138Y1458D01*
X1136Y1458D01*
X1136Y1470D01*
X1134Y1470D01*
X1134Y1472D01*
X1136Y1472D01*
X1136Y1478D01*
X40Y1478D01*
G37*
D02*
G36*
X40Y1424D02*
X40Y1422D01*
X1502Y1422D01*
X1502Y1424D01*
X40Y1424D01*
G37*
D02*
G36*
X40Y1424D02*
X40Y1422D01*
X1502Y1422D01*
X1502Y1424D01*
X40Y1424D01*
G37*
D02*
G36*
X40Y1422D02*
X40Y1372D01*
X496Y1372D01*
X496Y1370D01*
X836Y1370D01*
X836Y1368D01*
X846Y1368D01*
X846Y1366D01*
X852Y1366D01*
X852Y1364D01*
X856Y1364D01*
X856Y1362D01*
X858Y1362D01*
X858Y1360D01*
X862Y1360D01*
X862Y1358D01*
X864Y1358D01*
X864Y1356D01*
X866Y1356D01*
X866Y1354D01*
X868Y1354D01*
X868Y1352D01*
X870Y1352D01*
X870Y1350D01*
X872Y1350D01*
X872Y1346D01*
X874Y1346D01*
X874Y1342D01*
X876Y1342D01*
X876Y1338D01*
X878Y1338D01*
X878Y1330D01*
X880Y1330D01*
X880Y1312D01*
X878Y1312D01*
X878Y1306D01*
X876Y1306D01*
X876Y1302D01*
X874Y1302D01*
X874Y1298D01*
X872Y1298D01*
X872Y1294D01*
X870Y1294D01*
X870Y1292D01*
X868Y1292D01*
X868Y1290D01*
X866Y1290D01*
X866Y1288D01*
X864Y1288D01*
X864Y1286D01*
X862Y1286D01*
X862Y1284D01*
X860Y1284D01*
X860Y1282D01*
X856Y1282D01*
X856Y1280D01*
X852Y1280D01*
X852Y1278D01*
X848Y1278D01*
X848Y1276D01*
X840Y1276D01*
X840Y1274D01*
X1110Y1274D01*
X1110Y1324D01*
X1112Y1324D01*
X1112Y1330D01*
X1114Y1330D01*
X1114Y1334D01*
X1116Y1334D01*
X1116Y1336D01*
X1118Y1336D01*
X1118Y1338D01*
X1120Y1338D01*
X1120Y1340D01*
X1124Y1340D01*
X1124Y1342D01*
X1130Y1342D01*
X1130Y1344D01*
X1136Y1344D01*
X1136Y1346D01*
X1142Y1346D01*
X1142Y1348D01*
X1148Y1348D01*
X1148Y1350D01*
X1154Y1350D01*
X1154Y1352D01*
X1160Y1352D01*
X1160Y1354D01*
X1164Y1354D01*
X1164Y1356D01*
X1170Y1356D01*
X1170Y1358D01*
X1176Y1358D01*
X1176Y1360D01*
X1182Y1360D01*
X1182Y1362D01*
X1188Y1362D01*
X1188Y1364D01*
X1194Y1364D01*
X1194Y1366D01*
X1200Y1366D01*
X1200Y1368D01*
X1206Y1368D01*
X1206Y1370D01*
X1212Y1370D01*
X1212Y1372D01*
X1218Y1372D01*
X1218Y1374D01*
X1224Y1374D01*
X1224Y1376D01*
X1230Y1376D01*
X1230Y1378D01*
X1234Y1378D01*
X1234Y1380D01*
X1240Y1380D01*
X1240Y1382D01*
X1246Y1382D01*
X1246Y1384D01*
X1252Y1384D01*
X1252Y1386D01*
X1258Y1386D01*
X1258Y1388D01*
X1264Y1388D01*
X1264Y1390D01*
X1270Y1390D01*
X1270Y1392D01*
X1276Y1392D01*
X1276Y1394D01*
X1476Y1394D01*
X1476Y1396D01*
X1478Y1396D01*
X1478Y1398D01*
X1480Y1398D01*
X1480Y1400D01*
X1482Y1400D01*
X1482Y1402D01*
X1484Y1402D01*
X1484Y1406D01*
X1486Y1406D01*
X1486Y1408D01*
X1488Y1408D01*
X1488Y1410D01*
X1490Y1410D01*
X1490Y1412D01*
X1492Y1412D01*
X1492Y1414D01*
X1494Y1414D01*
X1494Y1416D01*
X1496Y1416D01*
X1496Y1418D01*
X1498Y1418D01*
X1498Y1420D01*
X1500Y1420D01*
X1500Y1422D01*
X40Y1422D01*
G37*
D02*
G36*
X40Y1372D02*
X40Y1270D01*
X232Y1270D01*
X232Y1372D01*
X40Y1372D01*
G37*
D02*
G36*
X334Y1372D02*
X334Y1364D01*
X356Y1364D01*
X356Y1366D01*
X360Y1366D01*
X360Y1368D01*
X364Y1368D01*
X364Y1370D01*
X370Y1370D01*
X370Y1372D01*
X334Y1372D01*
G37*
D02*
G36*
X396Y1372D02*
X396Y1370D01*
X402Y1370D01*
X402Y1368D01*
X406Y1368D01*
X406Y1366D01*
X410Y1366D01*
X410Y1364D01*
X412Y1364D01*
X412Y1362D01*
X414Y1362D01*
X414Y1360D01*
X418Y1360D01*
X418Y1358D01*
X420Y1358D01*
X420Y1354D01*
X422Y1354D01*
X422Y1352D01*
X442Y1352D01*
X442Y1354D01*
X444Y1354D01*
X444Y1356D01*
X446Y1356D01*
X446Y1358D01*
X448Y1358D01*
X448Y1360D01*
X450Y1360D01*
X450Y1362D01*
X452Y1362D01*
X452Y1364D01*
X456Y1364D01*
X456Y1366D01*
X460Y1366D01*
X460Y1368D01*
X464Y1368D01*
X464Y1370D01*
X470Y1370D01*
X470Y1372D01*
X396Y1372D01*
G37*
D02*
G36*
X502Y1370D02*
X502Y1368D01*
X506Y1368D01*
X506Y1366D01*
X510Y1366D01*
X510Y1364D01*
X512Y1364D01*
X512Y1362D01*
X514Y1362D01*
X514Y1360D01*
X518Y1360D01*
X518Y1358D01*
X520Y1358D01*
X520Y1354D01*
X522Y1354D01*
X522Y1352D01*
X524Y1352D01*
X524Y1350D01*
X526Y1350D01*
X526Y1346D01*
X528Y1346D01*
X528Y1342D01*
X530Y1342D01*
X530Y1338D01*
X532Y1338D01*
X532Y1328D01*
X534Y1328D01*
X534Y1316D01*
X532Y1316D01*
X532Y1306D01*
X530Y1306D01*
X530Y1302D01*
X528Y1302D01*
X528Y1298D01*
X526Y1298D01*
X526Y1294D01*
X524Y1294D01*
X524Y1292D01*
X522Y1292D01*
X522Y1288D01*
X520Y1288D01*
X520Y1286D01*
X518Y1286D01*
X518Y1284D01*
X516Y1284D01*
X516Y1282D01*
X512Y1282D01*
X512Y1280D01*
X510Y1280D01*
X510Y1278D01*
X506Y1278D01*
X506Y1276D01*
X502Y1276D01*
X502Y1274D01*
X826Y1274D01*
X826Y1276D01*
X818Y1276D01*
X818Y1278D01*
X812Y1278D01*
X812Y1280D01*
X808Y1280D01*
X808Y1282D01*
X806Y1282D01*
X806Y1284D01*
X802Y1284D01*
X802Y1286D01*
X800Y1286D01*
X800Y1288D01*
X798Y1288D01*
X798Y1290D01*
X796Y1290D01*
X796Y1292D01*
X794Y1292D01*
X794Y1296D01*
X792Y1296D01*
X792Y1300D01*
X790Y1300D01*
X790Y1302D01*
X788Y1302D01*
X788Y1308D01*
X786Y1308D01*
X786Y1320D01*
X784Y1320D01*
X784Y1322D01*
X786Y1322D01*
X786Y1334D01*
X788Y1334D01*
X788Y1340D01*
X790Y1340D01*
X790Y1344D01*
X792Y1344D01*
X792Y1348D01*
X794Y1348D01*
X794Y1350D01*
X796Y1350D01*
X796Y1354D01*
X798Y1354D01*
X798Y1356D01*
X800Y1356D01*
X800Y1358D01*
X804Y1358D01*
X804Y1360D01*
X806Y1360D01*
X806Y1362D01*
X810Y1362D01*
X810Y1364D01*
X812Y1364D01*
X812Y1366D01*
X818Y1366D01*
X818Y1368D01*
X828Y1368D01*
X828Y1370D01*
X502Y1370D01*
G37*
D02*
G36*
X1214Y1326D02*
X1214Y1324D01*
X1208Y1324D01*
X1208Y1322D01*
X1202Y1322D01*
X1202Y1320D01*
X1196Y1320D01*
X1196Y1318D01*
X1190Y1318D01*
X1190Y1316D01*
X1184Y1316D01*
X1184Y1314D01*
X1178Y1314D01*
X1178Y1312D01*
X1172Y1312D01*
X1172Y1310D01*
X1166Y1310D01*
X1166Y1308D01*
X1160Y1308D01*
X1160Y1306D01*
X1154Y1306D01*
X1154Y1230D01*
X1274Y1230D01*
X1274Y1232D01*
X1268Y1232D01*
X1268Y1234D01*
X1262Y1234D01*
X1262Y1236D01*
X1258Y1236D01*
X1258Y1238D01*
X1256Y1238D01*
X1256Y1240D01*
X1252Y1240D01*
X1252Y1242D01*
X1250Y1242D01*
X1250Y1244D01*
X1248Y1244D01*
X1248Y1246D01*
X1246Y1246D01*
X1246Y1248D01*
X1244Y1248D01*
X1244Y1252D01*
X1242Y1252D01*
X1242Y1256D01*
X1240Y1256D01*
X1240Y1258D01*
X1238Y1258D01*
X1238Y1264D01*
X1236Y1264D01*
X1236Y1276D01*
X1234Y1276D01*
X1234Y1278D01*
X1236Y1278D01*
X1236Y1290D01*
X1238Y1290D01*
X1238Y1296D01*
X1240Y1296D01*
X1240Y1300D01*
X1242Y1300D01*
X1242Y1304D01*
X1244Y1304D01*
X1244Y1306D01*
X1246Y1306D01*
X1246Y1308D01*
X1248Y1308D01*
X1248Y1312D01*
X1250Y1312D01*
X1250Y1314D01*
X1254Y1314D01*
X1254Y1316D01*
X1256Y1316D01*
X1256Y1318D01*
X1260Y1318D01*
X1260Y1320D01*
X1264Y1320D01*
X1264Y1322D01*
X1270Y1322D01*
X1270Y1324D01*
X1280Y1324D01*
X1280Y1326D01*
X1214Y1326D01*
G37*
D02*
G36*
X1286Y1326D02*
X1286Y1324D01*
X1296Y1324D01*
X1296Y1322D01*
X1302Y1322D01*
X1302Y1320D01*
X1306Y1320D01*
X1306Y1318D01*
X1308Y1318D01*
X1308Y1316D01*
X1312Y1316D01*
X1312Y1314D01*
X1314Y1314D01*
X1314Y1312D01*
X1316Y1312D01*
X1316Y1310D01*
X1318Y1310D01*
X1318Y1308D01*
X1320Y1308D01*
X1320Y1306D01*
X1322Y1306D01*
X1322Y1302D01*
X1324Y1302D01*
X1324Y1298D01*
X1326Y1298D01*
X1326Y1294D01*
X1328Y1294D01*
X1328Y1286D01*
X1330Y1286D01*
X1330Y1268D01*
X1328Y1268D01*
X1328Y1262D01*
X1326Y1262D01*
X1326Y1256D01*
X1324Y1256D01*
X1324Y1254D01*
X1322Y1254D01*
X1322Y1250D01*
X1320Y1250D01*
X1320Y1248D01*
X1318Y1248D01*
X1318Y1246D01*
X1316Y1246D01*
X1316Y1244D01*
X1314Y1244D01*
X1314Y1242D01*
X1312Y1242D01*
X1312Y1240D01*
X1310Y1240D01*
X1310Y1238D01*
X1306Y1238D01*
X1306Y1236D01*
X1302Y1236D01*
X1302Y1234D01*
X1298Y1234D01*
X1298Y1232D01*
X1290Y1232D01*
X1290Y1230D01*
X1452Y1230D01*
X1452Y1232D01*
X1444Y1232D01*
X1444Y1234D01*
X1440Y1234D01*
X1440Y1236D01*
X1436Y1236D01*
X1436Y1238D01*
X1432Y1238D01*
X1432Y1240D01*
X1430Y1240D01*
X1430Y1242D01*
X1428Y1242D01*
X1428Y1244D01*
X1426Y1244D01*
X1426Y1246D01*
X1424Y1246D01*
X1424Y1248D01*
X1422Y1248D01*
X1422Y1250D01*
X1420Y1250D01*
X1420Y1254D01*
X1418Y1254D01*
X1418Y1258D01*
X1416Y1258D01*
X1416Y1262D01*
X1414Y1262D01*
X1414Y1270D01*
X1412Y1270D01*
X1412Y1286D01*
X1414Y1286D01*
X1414Y1294D01*
X1416Y1294D01*
X1416Y1298D01*
X1418Y1298D01*
X1418Y1302D01*
X1420Y1302D01*
X1420Y1306D01*
X1422Y1306D01*
X1422Y1308D01*
X1424Y1308D01*
X1424Y1310D01*
X1426Y1310D01*
X1426Y1312D01*
X1428Y1312D01*
X1428Y1314D01*
X1430Y1314D01*
X1430Y1316D01*
X1434Y1316D01*
X1434Y1318D01*
X1436Y1318D01*
X1436Y1320D01*
X1440Y1320D01*
X1440Y1322D01*
X1446Y1322D01*
X1446Y1324D01*
X1456Y1324D01*
X1456Y1326D01*
X1286Y1326D01*
G37*
D02*
G36*
X422Y1292D02*
X422Y1288D01*
X420Y1288D01*
X420Y1286D01*
X418Y1286D01*
X418Y1284D01*
X416Y1284D01*
X416Y1282D01*
X412Y1282D01*
X412Y1280D01*
X410Y1280D01*
X410Y1278D01*
X406Y1278D01*
X406Y1276D01*
X402Y1276D01*
X402Y1274D01*
X398Y1274D01*
X398Y1272D01*
X386Y1272D01*
X386Y1270D01*
X478Y1270D01*
X478Y1272D01*
X468Y1272D01*
X468Y1274D01*
X462Y1274D01*
X462Y1276D01*
X458Y1276D01*
X458Y1278D01*
X454Y1278D01*
X454Y1280D01*
X452Y1280D01*
X452Y1282D01*
X450Y1282D01*
X450Y1284D01*
X448Y1284D01*
X448Y1286D01*
X446Y1286D01*
X446Y1288D01*
X444Y1288D01*
X444Y1290D01*
X442Y1290D01*
X442Y1292D01*
X422Y1292D01*
G37*
D02*
G36*
X334Y1280D02*
X334Y1272D01*
X332Y1272D01*
X332Y1270D01*
X378Y1270D01*
X378Y1272D01*
X368Y1272D01*
X368Y1274D01*
X362Y1274D01*
X362Y1276D01*
X358Y1276D01*
X358Y1278D01*
X354Y1278D01*
X354Y1280D01*
X334Y1280D01*
G37*
D02*
G36*
X498Y1274D02*
X498Y1272D01*
X1110Y1272D01*
X1110Y1274D01*
X498Y1274D01*
G37*
D02*
G36*
X498Y1274D02*
X498Y1272D01*
X1110Y1272D01*
X1110Y1274D01*
X498Y1274D01*
G37*
D02*
G36*
X486Y1272D02*
X486Y1270D01*
X1110Y1270D01*
X1110Y1272D01*
X486Y1272D01*
G37*
D02*
G36*
X40Y1270D02*
X40Y1268D01*
X1110Y1268D01*
X1110Y1270D01*
X40Y1270D01*
G37*
D02*
G36*
X40Y1270D02*
X40Y1268D01*
X1110Y1268D01*
X1110Y1270D01*
X40Y1270D01*
G37*
D02*
G36*
X40Y1270D02*
X40Y1268D01*
X1110Y1268D01*
X1110Y1270D01*
X40Y1270D01*
G37*
D02*
G36*
X40Y1270D02*
X40Y1268D01*
X1110Y1268D01*
X1110Y1270D01*
X40Y1270D01*
G37*
D02*
G36*
X40Y1268D02*
X40Y1120D01*
X536Y1120D01*
X536Y1118D01*
X546Y1118D01*
X546Y1116D01*
X552Y1116D01*
X552Y1114D01*
X556Y1114D01*
X556Y1112D01*
X558Y1112D01*
X558Y1110D01*
X562Y1110D01*
X562Y1108D01*
X564Y1108D01*
X564Y1106D01*
X566Y1106D01*
X566Y1104D01*
X568Y1104D01*
X568Y1102D01*
X570Y1102D01*
X570Y1100D01*
X572Y1100D01*
X572Y1096D01*
X574Y1096D01*
X574Y1094D01*
X842Y1094D01*
X842Y1092D01*
X846Y1092D01*
X846Y1090D01*
X850Y1090D01*
X850Y1088D01*
X854Y1088D01*
X854Y1086D01*
X858Y1086D01*
X858Y1084D01*
X862Y1084D01*
X862Y1082D01*
X866Y1082D01*
X866Y1080D01*
X868Y1080D01*
X868Y1078D01*
X872Y1078D01*
X872Y1076D01*
X876Y1076D01*
X876Y1074D01*
X880Y1074D01*
X880Y1072D01*
X884Y1072D01*
X884Y1070D01*
X888Y1070D01*
X888Y1068D01*
X892Y1068D01*
X892Y1066D01*
X896Y1066D01*
X896Y1064D01*
X900Y1064D01*
X900Y1062D01*
X904Y1062D01*
X904Y1060D01*
X908Y1060D01*
X908Y1058D01*
X912Y1058D01*
X912Y1056D01*
X914Y1056D01*
X914Y1054D01*
X918Y1054D01*
X918Y1052D01*
X922Y1052D01*
X922Y1050D01*
X926Y1050D01*
X926Y1048D01*
X930Y1048D01*
X930Y1046D01*
X934Y1046D01*
X934Y1044D01*
X938Y1044D01*
X938Y1042D01*
X942Y1042D01*
X942Y1040D01*
X944Y1040D01*
X944Y1038D01*
X948Y1038D01*
X948Y1034D01*
X950Y1034D01*
X950Y1032D01*
X952Y1032D01*
X952Y1026D01*
X954Y1026D01*
X954Y874D01*
X956Y874D01*
X956Y870D01*
X958Y870D01*
X958Y866D01*
X960Y866D01*
X960Y862D01*
X962Y862D01*
X962Y858D01*
X964Y858D01*
X964Y854D01*
X966Y854D01*
X966Y850D01*
X968Y850D01*
X968Y846D01*
X970Y846D01*
X970Y842D01*
X972Y842D01*
X972Y840D01*
X974Y840D01*
X974Y836D01*
X976Y836D01*
X976Y832D01*
X978Y832D01*
X978Y828D01*
X980Y828D01*
X980Y824D01*
X982Y824D01*
X982Y820D01*
X986Y820D01*
X986Y818D01*
X996Y818D01*
X996Y816D01*
X1002Y816D01*
X1002Y814D01*
X1006Y814D01*
X1006Y812D01*
X1008Y812D01*
X1008Y810D01*
X1012Y810D01*
X1012Y808D01*
X1014Y808D01*
X1014Y806D01*
X1016Y806D01*
X1016Y804D01*
X1018Y804D01*
X1018Y802D01*
X1020Y802D01*
X1020Y800D01*
X1022Y800D01*
X1022Y796D01*
X1024Y796D01*
X1024Y792D01*
X1026Y792D01*
X1026Y788D01*
X1028Y788D01*
X1028Y780D01*
X1030Y780D01*
X1030Y762D01*
X1028Y762D01*
X1028Y756D01*
X1026Y756D01*
X1026Y752D01*
X1024Y752D01*
X1024Y748D01*
X1022Y748D01*
X1022Y744D01*
X1020Y744D01*
X1020Y736D01*
X1040Y736D01*
X1040Y738D01*
X1042Y738D01*
X1042Y740D01*
X1046Y740D01*
X1046Y742D01*
X1048Y742D01*
X1048Y744D01*
X1052Y744D01*
X1052Y746D01*
X1054Y746D01*
X1054Y748D01*
X1058Y748D01*
X1058Y750D01*
X1060Y750D01*
X1060Y752D01*
X1064Y752D01*
X1064Y754D01*
X1066Y754D01*
X1066Y756D01*
X1070Y756D01*
X1070Y758D01*
X1072Y758D01*
X1072Y760D01*
X1074Y760D01*
X1074Y762D01*
X1078Y762D01*
X1078Y764D01*
X1080Y764D01*
X1080Y766D01*
X1084Y766D01*
X1084Y768D01*
X1086Y768D01*
X1086Y770D01*
X1090Y770D01*
X1090Y772D01*
X1092Y772D01*
X1092Y774D01*
X1096Y774D01*
X1096Y776D01*
X1098Y776D01*
X1098Y778D01*
X1102Y778D01*
X1102Y780D01*
X1104Y780D01*
X1104Y782D01*
X1108Y782D01*
X1108Y784D01*
X1110Y784D01*
X1110Y1268D01*
X40Y1268D01*
G37*
D02*
G36*
X1154Y1230D02*
X1154Y1228D01*
X1698Y1228D01*
X1698Y1230D01*
X1154Y1230D01*
G37*
D02*
G36*
X1154Y1230D02*
X1154Y1228D01*
X1698Y1228D01*
X1698Y1230D01*
X1154Y1230D01*
G37*
D02*
G36*
X1154Y1230D02*
X1154Y1228D01*
X1698Y1228D01*
X1698Y1230D01*
X1154Y1230D01*
G37*
D02*
G36*
X1154Y1228D02*
X1154Y1070D01*
X1464Y1070D01*
X1464Y1068D01*
X1474Y1068D01*
X1474Y1066D01*
X1480Y1066D01*
X1480Y1064D01*
X1482Y1064D01*
X1482Y1062D01*
X1486Y1062D01*
X1486Y1060D01*
X1488Y1060D01*
X1488Y1058D01*
X1492Y1058D01*
X1492Y1056D01*
X1494Y1056D01*
X1494Y1054D01*
X1496Y1054D01*
X1496Y1050D01*
X1498Y1050D01*
X1498Y1048D01*
X1500Y1048D01*
X1500Y1044D01*
X1502Y1044D01*
X1502Y1040D01*
X1504Y1040D01*
X1504Y1034D01*
X1506Y1034D01*
X1506Y1024D01*
X1508Y1024D01*
X1508Y1020D01*
X1506Y1020D01*
X1506Y1008D01*
X1504Y1008D01*
X1504Y1002D01*
X1502Y1002D01*
X1502Y1000D01*
X1500Y1000D01*
X1500Y996D01*
X1498Y996D01*
X1498Y992D01*
X1496Y992D01*
X1496Y990D01*
X1494Y990D01*
X1494Y988D01*
X1492Y988D01*
X1492Y986D01*
X1490Y986D01*
X1490Y984D01*
X1486Y984D01*
X1486Y982D01*
X1484Y982D01*
X1484Y980D01*
X1480Y980D01*
X1480Y978D01*
X1474Y978D01*
X1474Y976D01*
X1468Y976D01*
X1468Y974D01*
X1698Y974D01*
X1698Y1228D01*
X1154Y1228D01*
G37*
D02*
G36*
X40Y1120D02*
X40Y1024D01*
X126Y1024D01*
X126Y1026D01*
X118Y1026D01*
X118Y1028D01*
X112Y1028D01*
X112Y1030D01*
X108Y1030D01*
X108Y1032D01*
X106Y1032D01*
X106Y1034D01*
X102Y1034D01*
X102Y1036D01*
X100Y1036D01*
X100Y1038D01*
X98Y1038D01*
X98Y1040D01*
X96Y1040D01*
X96Y1042D01*
X94Y1042D01*
X94Y1046D01*
X92Y1046D01*
X92Y1050D01*
X90Y1050D01*
X90Y1052D01*
X88Y1052D01*
X88Y1058D01*
X86Y1058D01*
X86Y1070D01*
X84Y1070D01*
X84Y1072D01*
X86Y1072D01*
X86Y1084D01*
X88Y1084D01*
X88Y1090D01*
X90Y1090D01*
X90Y1094D01*
X92Y1094D01*
X92Y1098D01*
X94Y1098D01*
X94Y1100D01*
X96Y1100D01*
X96Y1104D01*
X98Y1104D01*
X98Y1106D01*
X100Y1106D01*
X100Y1108D01*
X104Y1108D01*
X104Y1110D01*
X106Y1110D01*
X106Y1112D01*
X110Y1112D01*
X110Y1114D01*
X112Y1114D01*
X112Y1116D01*
X118Y1116D01*
X118Y1118D01*
X128Y1118D01*
X128Y1120D01*
X40Y1120D01*
G37*
D02*
G36*
X136Y1120D02*
X136Y1118D01*
X146Y1118D01*
X146Y1116D01*
X152Y1116D01*
X152Y1114D01*
X156Y1114D01*
X156Y1112D01*
X158Y1112D01*
X158Y1110D01*
X162Y1110D01*
X162Y1108D01*
X164Y1108D01*
X164Y1106D01*
X184Y1106D01*
X184Y1118D01*
X186Y1118D01*
X186Y1120D01*
X136Y1120D01*
G37*
D02*
G36*
X280Y1120D02*
X280Y1024D01*
X386Y1024D01*
X386Y1026D01*
X384Y1026D01*
X384Y1118D01*
X386Y1118D01*
X386Y1120D01*
X280Y1120D01*
G37*
D02*
G36*
X480Y1120D02*
X480Y1106D01*
X500Y1106D01*
X500Y1108D01*
X504Y1108D01*
X504Y1110D01*
X506Y1110D01*
X506Y1112D01*
X510Y1112D01*
X510Y1114D01*
X512Y1114D01*
X512Y1116D01*
X518Y1116D01*
X518Y1118D01*
X528Y1118D01*
X528Y1120D01*
X480Y1120D01*
G37*
D02*
G36*
X1154Y1070D02*
X1154Y974D01*
X1276Y974D01*
X1276Y976D01*
X1268Y976D01*
X1268Y978D01*
X1262Y978D01*
X1262Y980D01*
X1258Y980D01*
X1258Y982D01*
X1256Y982D01*
X1256Y984D01*
X1252Y984D01*
X1252Y986D01*
X1250Y986D01*
X1250Y988D01*
X1248Y988D01*
X1248Y990D01*
X1246Y990D01*
X1246Y992D01*
X1244Y992D01*
X1244Y996D01*
X1242Y996D01*
X1242Y1000D01*
X1240Y1000D01*
X1240Y1002D01*
X1238Y1002D01*
X1238Y1008D01*
X1236Y1008D01*
X1236Y1020D01*
X1234Y1020D01*
X1234Y1022D01*
X1236Y1022D01*
X1236Y1034D01*
X1238Y1034D01*
X1238Y1040D01*
X1240Y1040D01*
X1240Y1044D01*
X1242Y1044D01*
X1242Y1048D01*
X1244Y1048D01*
X1244Y1050D01*
X1246Y1050D01*
X1246Y1054D01*
X1248Y1054D01*
X1248Y1056D01*
X1250Y1056D01*
X1250Y1058D01*
X1254Y1058D01*
X1254Y1060D01*
X1256Y1060D01*
X1256Y1062D01*
X1260Y1062D01*
X1260Y1064D01*
X1262Y1064D01*
X1262Y1066D01*
X1268Y1066D01*
X1268Y1068D01*
X1278Y1068D01*
X1278Y1070D01*
X1154Y1070D01*
G37*
D02*
G36*
X1286Y1070D02*
X1286Y1068D01*
X1296Y1068D01*
X1296Y1066D01*
X1302Y1066D01*
X1302Y1064D01*
X1306Y1064D01*
X1306Y1062D01*
X1308Y1062D01*
X1308Y1060D01*
X1312Y1060D01*
X1312Y1058D01*
X1314Y1058D01*
X1314Y1056D01*
X1316Y1056D01*
X1316Y1054D01*
X1318Y1054D01*
X1318Y1052D01*
X1320Y1052D01*
X1320Y1050D01*
X1322Y1050D01*
X1322Y1046D01*
X1324Y1046D01*
X1324Y1042D01*
X1326Y1042D01*
X1326Y1038D01*
X1328Y1038D01*
X1328Y1030D01*
X1330Y1030D01*
X1330Y1012D01*
X1328Y1012D01*
X1328Y1006D01*
X1326Y1006D01*
X1326Y1002D01*
X1324Y1002D01*
X1324Y998D01*
X1322Y998D01*
X1322Y994D01*
X1320Y994D01*
X1320Y992D01*
X1318Y992D01*
X1318Y990D01*
X1316Y990D01*
X1316Y988D01*
X1314Y988D01*
X1314Y986D01*
X1312Y986D01*
X1312Y984D01*
X1310Y984D01*
X1310Y982D01*
X1306Y982D01*
X1306Y980D01*
X1302Y980D01*
X1302Y978D01*
X1298Y978D01*
X1298Y976D01*
X1290Y976D01*
X1290Y974D01*
X1452Y974D01*
X1452Y976D01*
X1444Y976D01*
X1444Y978D01*
X1440Y978D01*
X1440Y980D01*
X1436Y980D01*
X1436Y982D01*
X1432Y982D01*
X1432Y984D01*
X1430Y984D01*
X1430Y986D01*
X1428Y986D01*
X1428Y988D01*
X1426Y988D01*
X1426Y990D01*
X1424Y990D01*
X1424Y992D01*
X1422Y992D01*
X1422Y994D01*
X1420Y994D01*
X1420Y998D01*
X1418Y998D01*
X1418Y1002D01*
X1416Y1002D01*
X1416Y1006D01*
X1414Y1006D01*
X1414Y1014D01*
X1412Y1014D01*
X1412Y1030D01*
X1414Y1030D01*
X1414Y1038D01*
X1416Y1038D01*
X1416Y1042D01*
X1418Y1042D01*
X1418Y1046D01*
X1420Y1046D01*
X1420Y1050D01*
X1422Y1050D01*
X1422Y1052D01*
X1424Y1052D01*
X1424Y1054D01*
X1426Y1054D01*
X1426Y1056D01*
X1428Y1056D01*
X1428Y1058D01*
X1430Y1058D01*
X1430Y1060D01*
X1434Y1060D01*
X1434Y1062D01*
X1436Y1062D01*
X1436Y1064D01*
X1440Y1064D01*
X1440Y1066D01*
X1446Y1066D01*
X1446Y1068D01*
X1456Y1068D01*
X1456Y1070D01*
X1286Y1070D01*
G37*
D02*
G36*
X574Y1050D02*
X574Y1048D01*
X572Y1048D01*
X572Y1044D01*
X570Y1044D01*
X570Y1042D01*
X568Y1042D01*
X568Y1040D01*
X566Y1040D01*
X566Y1038D01*
X564Y1038D01*
X564Y1036D01*
X562Y1036D01*
X562Y1034D01*
X560Y1034D01*
X560Y1032D01*
X556Y1032D01*
X556Y1030D01*
X552Y1030D01*
X552Y1028D01*
X548Y1028D01*
X548Y1026D01*
X540Y1026D01*
X540Y1024D01*
X878Y1024D01*
X878Y1026D01*
X874Y1026D01*
X874Y1028D01*
X870Y1028D01*
X870Y1030D01*
X866Y1030D01*
X866Y1032D01*
X862Y1032D01*
X862Y1034D01*
X858Y1034D01*
X858Y1036D01*
X854Y1036D01*
X854Y1038D01*
X850Y1038D01*
X850Y1040D01*
X846Y1040D01*
X846Y1042D01*
X842Y1042D01*
X842Y1044D01*
X838Y1044D01*
X838Y1046D01*
X836Y1046D01*
X836Y1048D01*
X832Y1048D01*
X832Y1050D01*
X574Y1050D01*
G37*
D02*
G36*
X164Y1038D02*
X164Y1036D01*
X162Y1036D01*
X162Y1034D01*
X160Y1034D01*
X160Y1032D01*
X156Y1032D01*
X156Y1030D01*
X152Y1030D01*
X152Y1028D01*
X148Y1028D01*
X148Y1026D01*
X140Y1026D01*
X140Y1024D01*
X186Y1024D01*
X186Y1026D01*
X184Y1026D01*
X184Y1038D01*
X164Y1038D01*
G37*
D02*
G36*
X480Y1038D02*
X480Y1024D01*
X526Y1024D01*
X526Y1026D01*
X518Y1026D01*
X518Y1028D01*
X512Y1028D01*
X512Y1030D01*
X508Y1030D01*
X508Y1032D01*
X506Y1032D01*
X506Y1034D01*
X502Y1034D01*
X502Y1036D01*
X500Y1036D01*
X500Y1038D01*
X480Y1038D01*
G37*
D02*
G36*
X40Y1024D02*
X40Y1022D01*
X882Y1022D01*
X882Y1024D01*
X40Y1024D01*
G37*
D02*
G36*
X40Y1024D02*
X40Y1022D01*
X882Y1022D01*
X882Y1024D01*
X40Y1024D01*
G37*
D02*
G36*
X40Y1024D02*
X40Y1022D01*
X882Y1022D01*
X882Y1024D01*
X40Y1024D01*
G37*
D02*
G36*
X40Y1024D02*
X40Y1022D01*
X882Y1022D01*
X882Y1024D01*
X40Y1024D01*
G37*
D02*
G36*
X40Y1024D02*
X40Y1022D01*
X882Y1022D01*
X882Y1024D01*
X40Y1024D01*
G37*
D02*
G36*
X40Y1022D02*
X40Y970D01*
X836Y970D01*
X836Y968D01*
X846Y968D01*
X846Y966D01*
X852Y966D01*
X852Y964D01*
X856Y964D01*
X856Y962D01*
X858Y962D01*
X858Y960D01*
X862Y960D01*
X862Y958D01*
X864Y958D01*
X864Y956D01*
X866Y956D01*
X866Y954D01*
X868Y954D01*
X868Y952D01*
X870Y952D01*
X870Y950D01*
X872Y950D01*
X872Y946D01*
X874Y946D01*
X874Y942D01*
X876Y942D01*
X876Y938D01*
X878Y938D01*
X878Y930D01*
X880Y930D01*
X880Y912D01*
X878Y912D01*
X878Y906D01*
X876Y906D01*
X876Y902D01*
X874Y902D01*
X874Y898D01*
X872Y898D01*
X872Y894D01*
X870Y894D01*
X870Y892D01*
X868Y892D01*
X868Y890D01*
X866Y890D01*
X866Y888D01*
X864Y888D01*
X864Y886D01*
X862Y886D01*
X862Y884D01*
X860Y884D01*
X860Y882D01*
X856Y882D01*
X856Y880D01*
X852Y880D01*
X852Y878D01*
X848Y878D01*
X848Y876D01*
X840Y876D01*
X840Y874D01*
X910Y874D01*
X910Y1008D01*
X908Y1008D01*
X908Y1010D01*
X904Y1010D01*
X904Y1012D01*
X900Y1012D01*
X900Y1014D01*
X896Y1014D01*
X896Y1016D01*
X892Y1016D01*
X892Y1018D01*
X888Y1018D01*
X888Y1020D01*
X884Y1020D01*
X884Y1022D01*
X40Y1022D01*
G37*
D02*
G36*
X1154Y974D02*
X1154Y972D01*
X1698Y972D01*
X1698Y974D01*
X1154Y974D01*
G37*
D02*
G36*
X1154Y974D02*
X1154Y972D01*
X1698Y972D01*
X1698Y974D01*
X1154Y974D01*
G37*
D02*
G36*
X1154Y974D02*
X1154Y972D01*
X1698Y972D01*
X1698Y974D01*
X1154Y974D01*
G37*
D02*
G36*
X1154Y972D02*
X1154Y870D01*
X1436Y870D01*
X1436Y868D01*
X1446Y868D01*
X1446Y866D01*
X1452Y866D01*
X1452Y864D01*
X1456Y864D01*
X1456Y862D01*
X1458Y862D01*
X1458Y860D01*
X1462Y860D01*
X1462Y858D01*
X1464Y858D01*
X1464Y856D01*
X1466Y856D01*
X1466Y854D01*
X1468Y854D01*
X1468Y852D01*
X1470Y852D01*
X1470Y850D01*
X1472Y850D01*
X1472Y846D01*
X1474Y846D01*
X1474Y842D01*
X1476Y842D01*
X1476Y838D01*
X1478Y838D01*
X1478Y830D01*
X1480Y830D01*
X1480Y812D01*
X1478Y812D01*
X1478Y806D01*
X1476Y806D01*
X1476Y802D01*
X1474Y802D01*
X1474Y798D01*
X1472Y798D01*
X1472Y794D01*
X1470Y794D01*
X1470Y792D01*
X1468Y792D01*
X1468Y790D01*
X1466Y790D01*
X1466Y788D01*
X1464Y788D01*
X1464Y786D01*
X1462Y786D01*
X1462Y784D01*
X1460Y784D01*
X1460Y782D01*
X1456Y782D01*
X1456Y780D01*
X1452Y780D01*
X1452Y778D01*
X1448Y778D01*
X1448Y776D01*
X1440Y776D01*
X1440Y774D01*
X1698Y774D01*
X1698Y972D01*
X1154Y972D01*
G37*
D02*
G36*
X40Y970D02*
X40Y946D01*
X602Y946D01*
X602Y944D01*
X792Y944D01*
X792Y948D01*
X794Y948D01*
X794Y950D01*
X796Y950D01*
X796Y954D01*
X798Y954D01*
X798Y956D01*
X800Y956D01*
X800Y958D01*
X804Y958D01*
X804Y960D01*
X806Y960D01*
X806Y962D01*
X810Y962D01*
X810Y964D01*
X812Y964D01*
X812Y966D01*
X818Y966D01*
X818Y968D01*
X828Y968D01*
X828Y970D01*
X40Y970D01*
G37*
D02*
G36*
X40Y946D02*
X40Y424D01*
X676Y424D01*
X676Y426D01*
X668Y426D01*
X668Y428D01*
X662Y428D01*
X662Y430D01*
X658Y430D01*
X658Y432D01*
X656Y432D01*
X656Y434D01*
X652Y434D01*
X652Y436D01*
X650Y436D01*
X650Y438D01*
X648Y438D01*
X648Y440D01*
X646Y440D01*
X646Y442D01*
X644Y442D01*
X644Y446D01*
X642Y446D01*
X642Y450D01*
X640Y450D01*
X640Y452D01*
X638Y452D01*
X638Y458D01*
X636Y458D01*
X636Y470D01*
X634Y470D01*
X634Y472D01*
X636Y472D01*
X636Y484D01*
X638Y484D01*
X638Y490D01*
X640Y490D01*
X640Y494D01*
X642Y494D01*
X642Y498D01*
X644Y498D01*
X644Y500D01*
X646Y500D01*
X646Y504D01*
X648Y504D01*
X648Y506D01*
X650Y506D01*
X650Y508D01*
X654Y508D01*
X654Y510D01*
X656Y510D01*
X656Y512D01*
X658Y512D01*
X658Y532D01*
X656Y532D01*
X656Y534D01*
X652Y534D01*
X652Y536D01*
X650Y536D01*
X650Y538D01*
X648Y538D01*
X648Y540D01*
X646Y540D01*
X646Y542D01*
X644Y542D01*
X644Y546D01*
X642Y546D01*
X642Y550D01*
X640Y550D01*
X640Y552D01*
X638Y552D01*
X638Y558D01*
X636Y558D01*
X636Y570D01*
X634Y570D01*
X634Y590D01*
X632Y590D01*
X632Y592D01*
X630Y592D01*
X630Y594D01*
X628Y594D01*
X628Y596D01*
X626Y596D01*
X626Y598D01*
X624Y598D01*
X624Y600D01*
X622Y600D01*
X622Y602D01*
X620Y602D01*
X620Y604D01*
X618Y604D01*
X618Y606D01*
X616Y606D01*
X616Y608D01*
X614Y608D01*
X614Y610D01*
X612Y610D01*
X612Y612D01*
X610Y612D01*
X610Y614D01*
X608Y614D01*
X608Y616D01*
X606Y616D01*
X606Y618D01*
X604Y618D01*
X604Y620D01*
X602Y620D01*
X602Y622D01*
X600Y622D01*
X600Y626D01*
X598Y626D01*
X598Y628D01*
X596Y628D01*
X596Y630D01*
X594Y630D01*
X594Y632D01*
X592Y632D01*
X592Y634D01*
X590Y634D01*
X590Y636D01*
X588Y636D01*
X588Y638D01*
X586Y638D01*
X586Y640D01*
X584Y640D01*
X584Y642D01*
X582Y642D01*
X582Y644D01*
X580Y644D01*
X580Y646D01*
X578Y646D01*
X578Y648D01*
X576Y648D01*
X576Y650D01*
X574Y650D01*
X574Y652D01*
X572Y652D01*
X572Y654D01*
X570Y654D01*
X570Y656D01*
X568Y656D01*
X568Y658D01*
X566Y658D01*
X566Y660D01*
X564Y660D01*
X564Y662D01*
X562Y662D01*
X562Y664D01*
X560Y664D01*
X560Y666D01*
X558Y666D01*
X558Y668D01*
X556Y668D01*
X556Y670D01*
X554Y670D01*
X554Y672D01*
X552Y672D01*
X552Y674D01*
X550Y674D01*
X550Y676D01*
X548Y676D01*
X548Y678D01*
X546Y678D01*
X546Y680D01*
X544Y680D01*
X544Y682D01*
X542Y682D01*
X542Y684D01*
X540Y684D01*
X540Y686D01*
X538Y686D01*
X538Y688D01*
X536Y688D01*
X536Y690D01*
X534Y690D01*
X534Y692D01*
X532Y692D01*
X532Y694D01*
X530Y694D01*
X530Y696D01*
X528Y696D01*
X528Y698D01*
X526Y698D01*
X526Y700D01*
X524Y700D01*
X524Y702D01*
X522Y702D01*
X522Y704D01*
X520Y704D01*
X520Y706D01*
X518Y706D01*
X518Y708D01*
X516Y708D01*
X516Y712D01*
X514Y712D01*
X514Y716D01*
X512Y716D01*
X512Y728D01*
X514Y728D01*
X514Y738D01*
X516Y738D01*
X516Y746D01*
X518Y746D01*
X518Y754D01*
X520Y754D01*
X520Y762D01*
X522Y762D01*
X522Y772D01*
X524Y772D01*
X524Y780D01*
X526Y780D01*
X526Y788D01*
X528Y788D01*
X528Y796D01*
X530Y796D01*
X530Y806D01*
X532Y806D01*
X532Y814D01*
X534Y814D01*
X534Y822D01*
X536Y822D01*
X536Y832D01*
X538Y832D01*
X538Y840D01*
X540Y840D01*
X540Y848D01*
X542Y848D01*
X542Y856D01*
X544Y856D01*
X544Y866D01*
X546Y866D01*
X546Y874D01*
X548Y874D01*
X548Y882D01*
X550Y882D01*
X550Y890D01*
X552Y890D01*
X552Y900D01*
X554Y900D01*
X554Y908D01*
X556Y908D01*
X556Y916D01*
X558Y916D01*
X558Y926D01*
X560Y926D01*
X560Y932D01*
X562Y932D01*
X562Y936D01*
X564Y936D01*
X564Y938D01*
X566Y938D01*
X566Y940D01*
X568Y940D01*
X568Y942D01*
X572Y942D01*
X572Y944D01*
X580Y944D01*
X580Y946D01*
X40Y946D01*
G37*
D02*
G36*
X598Y900D02*
X598Y894D01*
X596Y894D01*
X596Y886D01*
X594Y886D01*
X594Y878D01*
X592Y878D01*
X592Y874D01*
X826Y874D01*
X826Y876D01*
X818Y876D01*
X818Y878D01*
X812Y878D01*
X812Y880D01*
X808Y880D01*
X808Y882D01*
X806Y882D01*
X806Y884D01*
X802Y884D01*
X802Y886D01*
X800Y886D01*
X800Y888D01*
X798Y888D01*
X798Y890D01*
X796Y890D01*
X796Y892D01*
X794Y892D01*
X794Y896D01*
X792Y896D01*
X792Y900D01*
X598Y900D01*
G37*
D02*
G36*
X592Y874D02*
X592Y872D01*
X910Y872D01*
X910Y874D01*
X592Y874D01*
G37*
D02*
G36*
X592Y874D02*
X592Y872D01*
X910Y872D01*
X910Y874D01*
X592Y874D01*
G37*
D02*
G36*
X592Y872D02*
X592Y868D01*
X590Y868D01*
X590Y860D01*
X588Y860D01*
X588Y852D01*
X586Y852D01*
X586Y844D01*
X584Y844D01*
X584Y834D01*
X582Y834D01*
X582Y826D01*
X580Y826D01*
X580Y820D01*
X730Y820D01*
X730Y724D01*
X716Y724D01*
X716Y704D01*
X718Y704D01*
X718Y702D01*
X720Y702D01*
X720Y700D01*
X722Y700D01*
X722Y696D01*
X724Y696D01*
X724Y692D01*
X726Y692D01*
X726Y688D01*
X728Y688D01*
X728Y680D01*
X730Y680D01*
X730Y678D01*
X736Y678D01*
X736Y676D01*
X742Y676D01*
X742Y674D01*
X748Y674D01*
X748Y672D01*
X754Y672D01*
X754Y670D01*
X760Y670D01*
X760Y668D01*
X766Y668D01*
X766Y666D01*
X772Y666D01*
X772Y664D01*
X778Y664D01*
X778Y662D01*
X784Y662D01*
X784Y660D01*
X790Y660D01*
X790Y658D01*
X796Y658D01*
X796Y656D01*
X802Y656D01*
X802Y654D01*
X808Y654D01*
X808Y652D01*
X814Y652D01*
X814Y650D01*
X820Y650D01*
X820Y648D01*
X826Y648D01*
X826Y646D01*
X832Y646D01*
X832Y644D01*
X838Y644D01*
X838Y642D01*
X844Y642D01*
X844Y640D01*
X850Y640D01*
X850Y638D01*
X856Y638D01*
X856Y636D01*
X862Y636D01*
X862Y634D01*
X868Y634D01*
X868Y632D01*
X874Y632D01*
X874Y630D01*
X880Y630D01*
X880Y628D01*
X886Y628D01*
X886Y626D01*
X892Y626D01*
X892Y624D01*
X898Y624D01*
X898Y622D01*
X904Y622D01*
X904Y620D01*
X910Y620D01*
X910Y618D01*
X916Y618D01*
X916Y616D01*
X922Y616D01*
X922Y614D01*
X928Y614D01*
X928Y612D01*
X934Y612D01*
X934Y610D01*
X956Y610D01*
X956Y612D01*
X958Y612D01*
X958Y632D01*
X956Y632D01*
X956Y634D01*
X952Y634D01*
X952Y636D01*
X950Y636D01*
X950Y638D01*
X948Y638D01*
X948Y640D01*
X946Y640D01*
X946Y642D01*
X944Y642D01*
X944Y646D01*
X942Y646D01*
X942Y650D01*
X940Y650D01*
X940Y652D01*
X938Y652D01*
X938Y658D01*
X936Y658D01*
X936Y670D01*
X934Y670D01*
X934Y672D01*
X936Y672D01*
X936Y684D01*
X938Y684D01*
X938Y690D01*
X940Y690D01*
X940Y694D01*
X942Y694D01*
X942Y698D01*
X944Y698D01*
X944Y700D01*
X946Y700D01*
X946Y704D01*
X948Y704D01*
X948Y706D01*
X950Y706D01*
X950Y708D01*
X954Y708D01*
X954Y710D01*
X956Y710D01*
X956Y712D01*
X958Y712D01*
X958Y732D01*
X956Y732D01*
X956Y734D01*
X952Y734D01*
X952Y736D01*
X950Y736D01*
X950Y738D01*
X948Y738D01*
X948Y740D01*
X946Y740D01*
X946Y742D01*
X944Y742D01*
X944Y746D01*
X942Y746D01*
X942Y750D01*
X940Y750D01*
X940Y752D01*
X938Y752D01*
X938Y758D01*
X936Y758D01*
X936Y770D01*
X934Y770D01*
X934Y772D01*
X936Y772D01*
X936Y784D01*
X938Y784D01*
X938Y812D01*
X936Y812D01*
X936Y816D01*
X934Y816D01*
X934Y820D01*
X932Y820D01*
X932Y824D01*
X930Y824D01*
X930Y828D01*
X928Y828D01*
X928Y832D01*
X926Y832D01*
X926Y836D01*
X924Y836D01*
X924Y840D01*
X922Y840D01*
X922Y844D01*
X920Y844D01*
X920Y848D01*
X918Y848D01*
X918Y852D01*
X916Y852D01*
X916Y856D01*
X914Y856D01*
X914Y860D01*
X912Y860D01*
X912Y864D01*
X910Y864D01*
X910Y872D01*
X592Y872D01*
G37*
D02*
G36*
X1154Y870D02*
X1154Y774D01*
X1286Y774D01*
X1286Y776D01*
X1284Y776D01*
X1284Y868D01*
X1286Y868D01*
X1286Y870D01*
X1154Y870D01*
G37*
D02*
G36*
X1380Y870D02*
X1380Y856D01*
X1400Y856D01*
X1400Y858D01*
X1404Y858D01*
X1404Y860D01*
X1406Y860D01*
X1406Y862D01*
X1410Y862D01*
X1410Y864D01*
X1412Y864D01*
X1412Y866D01*
X1418Y866D01*
X1418Y868D01*
X1428Y868D01*
X1428Y870D01*
X1380Y870D01*
G37*
D02*
G36*
X580Y820D02*
X580Y818D01*
X578Y818D01*
X578Y808D01*
X576Y808D01*
X576Y800D01*
X574Y800D01*
X574Y792D01*
X572Y792D01*
X572Y784D01*
X570Y784D01*
X570Y774D01*
X568Y774D01*
X568Y766D01*
X566Y766D01*
X566Y758D01*
X564Y758D01*
X564Y750D01*
X562Y750D01*
X562Y724D01*
X564Y724D01*
X564Y722D01*
X566Y722D01*
X566Y720D01*
X568Y720D01*
X568Y718D01*
X570Y718D01*
X570Y716D01*
X572Y716D01*
X572Y714D01*
X574Y714D01*
X574Y712D01*
X576Y712D01*
X576Y710D01*
X578Y710D01*
X578Y708D01*
X580Y708D01*
X580Y706D01*
X582Y706D01*
X582Y704D01*
X584Y704D01*
X584Y702D01*
X586Y702D01*
X586Y700D01*
X588Y700D01*
X588Y698D01*
X590Y698D01*
X590Y696D01*
X592Y696D01*
X592Y694D01*
X594Y694D01*
X594Y692D01*
X596Y692D01*
X596Y690D01*
X598Y690D01*
X598Y688D01*
X600Y688D01*
X600Y686D01*
X602Y686D01*
X602Y684D01*
X604Y684D01*
X604Y682D01*
X606Y682D01*
X606Y680D01*
X608Y680D01*
X608Y678D01*
X610Y678D01*
X610Y676D01*
X612Y676D01*
X612Y674D01*
X614Y674D01*
X614Y672D01*
X636Y672D01*
X636Y684D01*
X638Y684D01*
X638Y690D01*
X640Y690D01*
X640Y694D01*
X642Y694D01*
X642Y698D01*
X644Y698D01*
X644Y700D01*
X646Y700D01*
X646Y704D01*
X648Y704D01*
X648Y724D01*
X636Y724D01*
X636Y726D01*
X634Y726D01*
X634Y818D01*
X636Y818D01*
X636Y820D01*
X580Y820D01*
G37*
D02*
G36*
X1380Y788D02*
X1380Y774D01*
X1426Y774D01*
X1426Y776D01*
X1418Y776D01*
X1418Y778D01*
X1412Y778D01*
X1412Y780D01*
X1408Y780D01*
X1408Y782D01*
X1406Y782D01*
X1406Y784D01*
X1402Y784D01*
X1402Y786D01*
X1400Y786D01*
X1400Y788D01*
X1380Y788D01*
G37*
D02*
G36*
X1154Y774D02*
X1154Y772D01*
X1698Y772D01*
X1698Y774D01*
X1154Y774D01*
G37*
D02*
G36*
X1154Y774D02*
X1154Y772D01*
X1698Y772D01*
X1698Y774D01*
X1154Y774D01*
G37*
D02*
G36*
X1154Y774D02*
X1154Y772D01*
X1698Y772D01*
X1698Y774D01*
X1154Y774D01*
G37*
D02*
G36*
X1154Y772D02*
X1154Y766D01*
X1152Y766D01*
X1152Y762D01*
X1150Y762D01*
X1150Y758D01*
X1148Y758D01*
X1148Y756D01*
X1144Y756D01*
X1144Y754D01*
X1142Y754D01*
X1142Y752D01*
X1138Y752D01*
X1138Y750D01*
X1136Y750D01*
X1136Y748D01*
X1132Y748D01*
X1132Y746D01*
X1130Y746D01*
X1130Y744D01*
X1126Y744D01*
X1126Y742D01*
X1124Y742D01*
X1124Y740D01*
X1120Y740D01*
X1120Y738D01*
X1118Y738D01*
X1118Y736D01*
X1116Y736D01*
X1116Y734D01*
X1112Y734D01*
X1112Y732D01*
X1110Y732D01*
X1110Y730D01*
X1106Y730D01*
X1106Y728D01*
X1104Y728D01*
X1104Y726D01*
X1100Y726D01*
X1100Y724D01*
X1098Y724D01*
X1098Y722D01*
X1094Y722D01*
X1094Y720D01*
X1092Y720D01*
X1092Y718D01*
X1088Y718D01*
X1088Y716D01*
X1086Y716D01*
X1086Y714D01*
X1082Y714D01*
X1082Y712D01*
X1080Y712D01*
X1080Y710D01*
X1076Y710D01*
X1076Y708D01*
X1074Y708D01*
X1074Y706D01*
X1070Y706D01*
X1070Y704D01*
X1068Y704D01*
X1068Y702D01*
X1064Y702D01*
X1064Y700D01*
X1062Y700D01*
X1062Y698D01*
X1058Y698D01*
X1058Y696D01*
X1056Y696D01*
X1056Y694D01*
X1054Y694D01*
X1054Y692D01*
X1050Y692D01*
X1050Y690D01*
X1048Y690D01*
X1048Y688D01*
X1044Y688D01*
X1044Y686D01*
X1042Y686D01*
X1042Y684D01*
X1038Y684D01*
X1038Y682D01*
X1036Y682D01*
X1036Y680D01*
X1032Y680D01*
X1032Y678D01*
X1030Y678D01*
X1030Y662D01*
X1028Y662D01*
X1028Y656D01*
X1026Y656D01*
X1026Y652D01*
X1024Y652D01*
X1024Y648D01*
X1022Y648D01*
X1022Y644D01*
X1020Y644D01*
X1020Y642D01*
X1018Y642D01*
X1018Y640D01*
X1016Y640D01*
X1016Y638D01*
X1014Y638D01*
X1014Y636D01*
X1012Y636D01*
X1012Y634D01*
X1010Y634D01*
X1010Y632D01*
X1006Y632D01*
X1006Y612D01*
X1008Y612D01*
X1008Y610D01*
X1012Y610D01*
X1012Y608D01*
X1014Y608D01*
X1014Y606D01*
X1016Y606D01*
X1016Y604D01*
X1018Y604D01*
X1018Y602D01*
X1020Y602D01*
X1020Y600D01*
X1022Y600D01*
X1022Y596D01*
X1024Y596D01*
X1024Y592D01*
X1026Y592D01*
X1026Y588D01*
X1028Y588D01*
X1028Y580D01*
X1030Y580D01*
X1030Y562D01*
X1028Y562D01*
X1028Y556D01*
X1026Y556D01*
X1026Y552D01*
X1024Y552D01*
X1024Y548D01*
X1022Y548D01*
X1022Y544D01*
X1020Y544D01*
X1020Y542D01*
X1018Y542D01*
X1018Y540D01*
X1016Y540D01*
X1016Y538D01*
X1014Y538D01*
X1014Y536D01*
X1012Y536D01*
X1012Y534D01*
X1010Y534D01*
X1010Y532D01*
X1006Y532D01*
X1006Y512D01*
X1008Y512D01*
X1008Y510D01*
X1012Y510D01*
X1012Y508D01*
X1014Y508D01*
X1014Y506D01*
X1016Y506D01*
X1016Y504D01*
X1018Y504D01*
X1018Y502D01*
X1020Y502D01*
X1020Y500D01*
X1022Y500D01*
X1022Y496D01*
X1024Y496D01*
X1024Y492D01*
X1026Y492D01*
X1026Y488D01*
X1028Y488D01*
X1028Y480D01*
X1030Y480D01*
X1030Y462D01*
X1028Y462D01*
X1028Y456D01*
X1026Y456D01*
X1026Y452D01*
X1024Y452D01*
X1024Y448D01*
X1022Y448D01*
X1022Y444D01*
X1020Y444D01*
X1020Y442D01*
X1018Y442D01*
X1018Y440D01*
X1016Y440D01*
X1016Y438D01*
X1014Y438D01*
X1014Y436D01*
X1012Y436D01*
X1012Y434D01*
X1010Y434D01*
X1010Y432D01*
X1006Y432D01*
X1006Y430D01*
X1002Y430D01*
X1002Y428D01*
X998Y428D01*
X998Y426D01*
X990Y426D01*
X990Y424D01*
X1698Y424D01*
X1698Y772D01*
X1154Y772D01*
G37*
D02*
G36*
X710Y634D02*
X710Y632D01*
X706Y632D01*
X706Y612D01*
X708Y612D01*
X708Y610D01*
X712Y610D01*
X712Y608D01*
X714Y608D01*
X714Y606D01*
X716Y606D01*
X716Y604D01*
X718Y604D01*
X718Y602D01*
X720Y602D01*
X720Y600D01*
X722Y600D01*
X722Y596D01*
X724Y596D01*
X724Y592D01*
X726Y592D01*
X726Y588D01*
X728Y588D01*
X728Y580D01*
X730Y580D01*
X730Y562D01*
X728Y562D01*
X728Y556D01*
X726Y556D01*
X726Y552D01*
X724Y552D01*
X724Y548D01*
X722Y548D01*
X722Y544D01*
X720Y544D01*
X720Y542D01*
X718Y542D01*
X718Y540D01*
X716Y540D01*
X716Y538D01*
X714Y538D01*
X714Y536D01*
X712Y536D01*
X712Y534D01*
X710Y534D01*
X710Y532D01*
X706Y532D01*
X706Y512D01*
X708Y512D01*
X708Y510D01*
X712Y510D01*
X712Y508D01*
X714Y508D01*
X714Y506D01*
X716Y506D01*
X716Y504D01*
X718Y504D01*
X718Y502D01*
X720Y502D01*
X720Y500D01*
X722Y500D01*
X722Y496D01*
X724Y496D01*
X724Y492D01*
X726Y492D01*
X726Y488D01*
X728Y488D01*
X728Y480D01*
X730Y480D01*
X730Y462D01*
X728Y462D01*
X728Y456D01*
X726Y456D01*
X726Y452D01*
X724Y452D01*
X724Y448D01*
X722Y448D01*
X722Y444D01*
X720Y444D01*
X720Y442D01*
X718Y442D01*
X718Y440D01*
X716Y440D01*
X716Y438D01*
X714Y438D01*
X714Y436D01*
X712Y436D01*
X712Y434D01*
X710Y434D01*
X710Y432D01*
X706Y432D01*
X706Y430D01*
X702Y430D01*
X702Y428D01*
X698Y428D01*
X698Y426D01*
X690Y426D01*
X690Y424D01*
X976Y424D01*
X976Y426D01*
X968Y426D01*
X968Y428D01*
X962Y428D01*
X962Y430D01*
X958Y430D01*
X958Y432D01*
X956Y432D01*
X956Y434D01*
X952Y434D01*
X952Y436D01*
X950Y436D01*
X950Y438D01*
X948Y438D01*
X948Y440D01*
X946Y440D01*
X946Y442D01*
X944Y442D01*
X944Y446D01*
X942Y446D01*
X942Y450D01*
X940Y450D01*
X940Y452D01*
X938Y452D01*
X938Y458D01*
X936Y458D01*
X936Y470D01*
X934Y470D01*
X934Y472D01*
X936Y472D01*
X936Y484D01*
X938Y484D01*
X938Y490D01*
X940Y490D01*
X940Y494D01*
X942Y494D01*
X942Y498D01*
X944Y498D01*
X944Y500D01*
X946Y500D01*
X946Y504D01*
X948Y504D01*
X948Y506D01*
X950Y506D01*
X950Y508D01*
X954Y508D01*
X954Y510D01*
X956Y510D01*
X956Y512D01*
X958Y512D01*
X958Y532D01*
X956Y532D01*
X956Y534D01*
X952Y534D01*
X952Y536D01*
X950Y536D01*
X950Y538D01*
X948Y538D01*
X948Y540D01*
X946Y540D01*
X946Y542D01*
X944Y542D01*
X944Y546D01*
X942Y546D01*
X942Y550D01*
X940Y550D01*
X940Y552D01*
X938Y552D01*
X938Y558D01*
X936Y558D01*
X936Y564D01*
X934Y564D01*
X934Y566D01*
X928Y566D01*
X928Y568D01*
X922Y568D01*
X922Y570D01*
X916Y570D01*
X916Y572D01*
X910Y572D01*
X910Y574D01*
X904Y574D01*
X904Y576D01*
X898Y576D01*
X898Y578D01*
X892Y578D01*
X892Y580D01*
X886Y580D01*
X886Y582D01*
X880Y582D01*
X880Y584D01*
X874Y584D01*
X874Y586D01*
X868Y586D01*
X868Y588D01*
X862Y588D01*
X862Y590D01*
X856Y590D01*
X856Y592D01*
X850Y592D01*
X850Y594D01*
X844Y594D01*
X844Y596D01*
X838Y596D01*
X838Y598D01*
X832Y598D01*
X832Y600D01*
X826Y600D01*
X826Y602D01*
X820Y602D01*
X820Y604D01*
X814Y604D01*
X814Y606D01*
X808Y606D01*
X808Y608D01*
X802Y608D01*
X802Y610D01*
X796Y610D01*
X796Y612D01*
X790Y612D01*
X790Y614D01*
X784Y614D01*
X784Y616D01*
X778Y616D01*
X778Y618D01*
X772Y618D01*
X772Y620D01*
X766Y620D01*
X766Y622D01*
X760Y622D01*
X760Y624D01*
X754Y624D01*
X754Y626D01*
X748Y626D01*
X748Y628D01*
X742Y628D01*
X742Y630D01*
X736Y630D01*
X736Y632D01*
X730Y632D01*
X730Y634D01*
X710Y634D01*
G37*
D02*
G36*
X40Y424D02*
X40Y422D01*
X1698Y422D01*
X1698Y424D01*
X40Y424D01*
G37*
D02*
G36*
X40Y424D02*
X40Y422D01*
X1698Y422D01*
X1698Y424D01*
X40Y424D01*
G37*
D02*
G36*
X40Y424D02*
X40Y422D01*
X1698Y422D01*
X1698Y424D01*
X40Y424D01*
G37*
D02*
G36*
X40Y422D02*
X40Y320D01*
X836Y320D01*
X836Y318D01*
X846Y318D01*
X846Y316D01*
X852Y316D01*
X852Y314D01*
X856Y314D01*
X856Y312D01*
X858Y312D01*
X858Y310D01*
X862Y310D01*
X862Y308D01*
X864Y308D01*
X864Y306D01*
X866Y306D01*
X866Y304D01*
X868Y304D01*
X868Y302D01*
X870Y302D01*
X870Y300D01*
X872Y300D01*
X872Y296D01*
X874Y296D01*
X874Y292D01*
X876Y292D01*
X876Y288D01*
X878Y288D01*
X878Y280D01*
X880Y280D01*
X880Y262D01*
X878Y262D01*
X878Y256D01*
X876Y256D01*
X876Y252D01*
X874Y252D01*
X874Y248D01*
X872Y248D01*
X872Y244D01*
X870Y244D01*
X870Y242D01*
X868Y242D01*
X868Y240D01*
X866Y240D01*
X866Y238D01*
X864Y238D01*
X864Y236D01*
X862Y236D01*
X862Y234D01*
X860Y234D01*
X860Y232D01*
X856Y232D01*
X856Y230D01*
X852Y230D01*
X852Y228D01*
X848Y228D01*
X848Y226D01*
X840Y226D01*
X840Y224D01*
X1698Y224D01*
X1698Y422D01*
X40Y422D01*
G37*
D02*
G36*
X40Y320D02*
X40Y224D01*
X686Y224D01*
X686Y226D01*
X684Y226D01*
X684Y318D01*
X686Y318D01*
X686Y320D01*
X40Y320D01*
G37*
D02*
G36*
X780Y320D02*
X780Y306D01*
X800Y306D01*
X800Y308D01*
X804Y308D01*
X804Y310D01*
X806Y310D01*
X806Y312D01*
X810Y312D01*
X810Y314D01*
X812Y314D01*
X812Y316D01*
X818Y316D01*
X818Y318D01*
X828Y318D01*
X828Y320D01*
X780Y320D01*
G37*
D02*
G36*
X780Y238D02*
X780Y224D01*
X826Y224D01*
X826Y226D01*
X818Y226D01*
X818Y228D01*
X812Y228D01*
X812Y230D01*
X808Y230D01*
X808Y232D01*
X806Y232D01*
X806Y234D01*
X802Y234D01*
X802Y236D01*
X800Y236D01*
X800Y238D01*
X780Y238D01*
G37*
D02*
G36*
X40Y224D02*
X40Y222D01*
X1698Y222D01*
X1698Y224D01*
X40Y224D01*
G37*
D02*
G36*
X40Y224D02*
X40Y222D01*
X1698Y222D01*
X1698Y224D01*
X40Y224D01*
G37*
D02*
G36*
X40Y224D02*
X40Y222D01*
X1698Y222D01*
X1698Y224D01*
X40Y224D01*
G37*
D02*
G36*
X40Y222D02*
X40Y42D01*
X1698Y42D01*
X1698Y222D01*
X40Y222D01*
G37*
D02*
G36*
X358Y1376D02*
X405Y1376D01*
X405Y1346D01*
X358Y1346D01*
X358Y1376D01*
G37*
D02*
G36*
X358Y1304D02*
X405Y1304D01*
X405Y1270D01*
X358Y1270D01*
X358Y1304D01*
G37*
D02*
G36*
X410Y1124D02*
X453Y1124D01*
X453Y1092D01*
X410Y1092D01*
X410Y1124D01*
G37*
D02*
G36*
X410Y1058D02*
X453Y1058D01*
X453Y1024D01*
X410Y1024D01*
X410Y1058D01*
G37*
D02*
G36*
X380Y1096D02*
X414Y1096D01*
X414Y1053D01*
X380Y1053D01*
X380Y1096D01*
G37*
D02*
G36*
X210Y1124D02*
X253Y1124D01*
X253Y1092D01*
X210Y1092D01*
X210Y1124D01*
G37*
D02*
G36*
X210Y1058D02*
X253Y1058D01*
X253Y1024D01*
X210Y1024D01*
X210Y1058D01*
G37*
D02*
G36*
X248Y1096D02*
X280Y1096D01*
X280Y1053D01*
X248Y1053D01*
X248Y1096D01*
G37*
D02*
G36*
X359Y1674D02*
X404Y1674D01*
X404Y1644D01*
X359Y1644D01*
X359Y1674D01*
G37*
D02*
G36*
X359Y1606D02*
X404Y1606D01*
X404Y1572D01*
X359Y1572D01*
X359Y1606D01*
G37*
D02*
G36*
X400Y1647D02*
X432Y1647D01*
X432Y1602D01*
X400Y1602D01*
X400Y1647D01*
G37*
D02*
G36*
X710Y324D02*
X753Y324D01*
X753Y292D01*
X710Y292D01*
X710Y324D01*
G37*
D02*
G36*
X710Y258D02*
X753Y258D01*
X753Y224D01*
X710Y224D01*
X710Y258D01*
G37*
D02*
G36*
X680Y296D02*
X714Y296D01*
X714Y253D01*
X680Y253D01*
X680Y296D01*
G37*
D02*
G36*
X660Y824D02*
X703Y824D01*
X703Y792D01*
X660Y792D01*
X660Y824D01*
G37*
D02*
G36*
X698Y796D02*
X730Y796D01*
X730Y753D01*
X698Y753D01*
X698Y796D01*
G37*
D02*
G36*
X1308Y874D02*
X1351Y874D01*
X1351Y842D01*
X1308Y842D01*
X1308Y874D01*
G37*
D02*
G36*
X1308Y808D02*
X1351Y808D01*
X1351Y774D01*
X1308Y774D01*
X1308Y808D01*
G37*
D02*
G36*
X1280Y846D02*
X1312Y846D01*
X1312Y803D01*
X1280Y803D01*
X1280Y846D01*
G37*
D02*
G04 End of Copper0*
M02*