; NON-PLATED HOLES START AT T1
; THROUGH (PLATED) HOLES START AT T100
M48
INCH
T100C0.035000
T101C0.031497
T102C0.042000
T103C0.015748
T104C0.038000
%
T100
X006134Y002780
X008634Y012780
X005634Y011280
X003575Y002780
X001134Y004280
X007647Y004288
X010647Y005288
X007647Y002288
X006134Y013780
X010647Y003288
X007647Y003288
X007647Y005288
X010647Y002288
X001634Y011280
X003634Y007280
X001134Y003280
X003634Y011280
X010647Y004288
X003575Y004551
X006134Y004551
X008134Y007780
X007134Y007780
X005634Y007280
X006134Y012780
X001634Y007280
X008634Y013780
T101
X008634Y011264
X008634Y010280
T102
X003634Y014780
X003634Y013780
X003634Y012780
T103
X004646Y003768
X003145Y006770
X001636Y005778
X002119Y006261
X003145Y003768
X010149Y006270
X004646Y005269
X006647Y005769
T104
X001134Y012780
X001134Y013780
T00
M30
