; NON-PLATED HOLES START AT T1
; THROUGH (PLATED) HOLES START AT T100
M48
INCH
T100C0.042000
T101C0.031497
T102C0.035000
T103C0.038000
%
T100
X002824Y013212
X003824Y013212
X004824Y013212
T101
X007824Y015212
X007824Y016197
T102
X009824Y005712
X014324Y008212
X006824Y004712
X012824Y012771
X014596Y012771
X015824Y014712
X012824Y010212
X009824Y006712
X006824Y007712
X008324Y009212
X006824Y005712
X007324Y002712
X008324Y002712
X006824Y006712
X001324Y010712
X015824Y016212
X011824Y014712
X004324Y010712
X011824Y016212
X014596Y010212
X009824Y007712
X009824Y004712
X013324Y008212
X008324Y013212
X005324Y010712
X002324Y010712
T103
X003824Y016212
X002824Y016212
T00
M30
