G04 MADE WITH FRITZING*
G04 WWW.FRITZING.ORG*
G04 DOUBLE SIDED*
G04 HOLES PLATED*
G04 CONTOUR ON CENTER OF CONTOUR VECTOR*
%ASAXBY*%
%FSLAX23Y23*%
%MOIN*%
%OFA0B0*%
%SFA1.0B1.0*%
%ADD10C,0.085000*%
%ADD11C,0.072992*%
%ADD12C,0.092000*%
%ADD13C,0.088000*%
%ADD14R,0.085000X0.085000*%
%ADD15R,0.072992X0.072992*%
%ADD16R,0.092000X0.092000*%
%ADD17R,0.088000X0.088000*%
%LNMASK0*%
G90*
G70*
G54D10*
X682Y771D03*
X982Y771D03*
X682Y671D03*
X982Y671D03*
X682Y571D03*
X982Y571D03*
X682Y471D03*
X982Y471D03*
X1582Y1621D03*
X1182Y1621D03*
X1182Y1471D03*
X1582Y1471D03*
X1332Y821D03*
X1432Y821D03*
X732Y271D03*
X832Y271D03*
X832Y921D03*
X832Y1321D03*
G54D11*
X782Y1620D03*
X782Y1521D03*
G54D10*
X1282Y1021D03*
X1282Y1277D03*
X1460Y1021D03*
X1460Y1277D03*
G54D12*
X282Y1321D03*
X382Y1321D03*
X482Y1321D03*
G54D10*
X232Y1071D03*
X132Y1071D03*
X432Y1071D03*
X532Y1071D03*
G54D13*
X382Y1621D03*
X282Y1621D03*
G54D14*
X682Y771D03*
X1332Y821D03*
X732Y271D03*
G54D15*
X782Y1620D03*
G54D16*
X282Y1321D03*
G54D14*
X232Y1071D03*
X432Y1071D03*
G54D17*
X382Y1621D03*
G04 End of Mask0*
M02*