G04 MADE WITH FRITZING*
G04 WWW.FRITZING.ORG*
G04 DOUBLE SIDED*
G04 HOLES PLATED*
G04 CONTOUR ON CENTER OF CONTOUR VECTOR*
%ASAXBY*%
%FSLAX23Y23*%
%MOIN*%
%OFA0B0*%
%SFA1.0B1.0*%
%ADD10C,0.049370*%
%ADD11C,0.085000*%
%ADD12C,0.072992*%
%ADD13C,0.092000*%
%ADD14C,0.088000*%
%ADD15R,0.085000X0.085000*%
%ADD16R,0.072992X0.072992*%
%ADD17R,0.092000X0.092000*%
%ADD18R,0.088000X0.088000*%
%LNMASK1*%
G90*
G70*
G54D10*
X212Y626D03*
X1015Y627D03*
X164Y578D03*
X665Y577D03*
X315Y677D03*
X315Y377D03*
G54D11*
X765Y529D03*
X1065Y529D03*
X765Y429D03*
X1065Y429D03*
X765Y329D03*
X1065Y329D03*
X765Y229D03*
X1065Y229D03*
X163Y728D03*
X163Y1128D03*
X363Y728D03*
X363Y1128D03*
X813Y778D03*
X713Y778D03*
X113Y428D03*
X113Y328D03*
X563Y728D03*
X563Y1128D03*
G54D12*
X863Y1028D03*
X863Y1126D03*
G54D11*
X613Y278D03*
X358Y278D03*
X613Y455D03*
X358Y455D03*
G54D13*
X363Y1278D03*
X363Y1378D03*
X363Y1478D03*
G54D11*
X613Y1378D03*
X613Y1278D03*
X863Y1378D03*
X863Y1278D03*
G54D14*
X113Y1378D03*
X113Y1278D03*
G54D10*
X465Y527D03*
X465Y377D03*
G54D15*
X765Y529D03*
X813Y778D03*
X113Y428D03*
G54D16*
X863Y1028D03*
G54D17*
X363Y1278D03*
G54D15*
X613Y1378D03*
X863Y1378D03*
G54D18*
X113Y1378D03*
G04 End of Mask1*
M02*