G04 MADE WITH FRITZING*
G04 WWW.FRITZING.ORG*
G04 DOUBLE SIDED*
G04 HOLES PLATED*
G04 CONTOUR ON CENTER OF CONTOUR VECTOR*
%ASAXBY*%
%FSLAX23Y23*%
%MOIN*%
%OFA0B0*%
%SFA1.0B1.0*%
%ADD10R,1.148650X1.625350X1.132650X1.609350*%
%ADD11C,0.008000*%
%ADD12R,0.001000X0.001000*%
%LNSILK0*%
G90*
G70*
G54D11*
X4Y1621D02*
X1145Y1621D01*
X1145Y4D01*
X4Y4D01*
X4Y1621D01*
D02*
G54D12*
X68Y1569D02*
X91Y1569D01*
X109Y1569D02*
X133Y1569D01*
X151Y1569D02*
X172Y1569D01*
X192Y1569D02*
X215Y1569D01*
X67Y1568D02*
X92Y1568D01*
X108Y1568D02*
X133Y1568D01*
X149Y1568D02*
X173Y1568D01*
X191Y1568D02*
X216Y1568D01*
X66Y1567D02*
X92Y1567D01*
X107Y1567D02*
X134Y1567D01*
X149Y1567D02*
X174Y1567D01*
X190Y1567D02*
X216Y1567D01*
X65Y1566D02*
X92Y1566D01*
X107Y1566D02*
X133Y1566D01*
X148Y1566D02*
X175Y1566D01*
X189Y1566D02*
X216Y1566D01*
X65Y1565D02*
X92Y1565D01*
X106Y1565D02*
X133Y1565D01*
X148Y1565D02*
X175Y1565D01*
X189Y1565D02*
X216Y1565D01*
X65Y1564D02*
X89Y1564D01*
X106Y1564D02*
X130Y1564D01*
X148Y1564D02*
X175Y1564D01*
X189Y1564D02*
X213Y1564D01*
X65Y1563D02*
X70Y1563D01*
X106Y1563D02*
X111Y1563D01*
X148Y1563D02*
X152Y1563D01*
X170Y1563D02*
X175Y1563D01*
X189Y1563D02*
X194Y1563D01*
X65Y1562D02*
X70Y1562D01*
X106Y1562D02*
X111Y1562D01*
X148Y1562D02*
X152Y1562D01*
X170Y1562D02*
X175Y1562D01*
X189Y1562D02*
X194Y1562D01*
X65Y1561D02*
X70Y1561D01*
X106Y1561D02*
X111Y1561D01*
X148Y1561D02*
X152Y1561D01*
X170Y1561D02*
X175Y1561D01*
X189Y1561D02*
X194Y1561D01*
X65Y1560D02*
X70Y1560D01*
X106Y1560D02*
X111Y1560D01*
X148Y1560D02*
X152Y1560D01*
X170Y1560D02*
X175Y1560D01*
X189Y1560D02*
X194Y1560D01*
X65Y1559D02*
X70Y1559D01*
X106Y1559D02*
X111Y1559D01*
X148Y1559D02*
X152Y1559D01*
X170Y1559D02*
X175Y1559D01*
X189Y1559D02*
X194Y1559D01*
X65Y1558D02*
X70Y1558D01*
X106Y1558D02*
X111Y1558D01*
X148Y1558D02*
X152Y1558D01*
X170Y1558D02*
X175Y1558D01*
X189Y1558D02*
X194Y1558D01*
X65Y1557D02*
X70Y1557D01*
X106Y1557D02*
X111Y1557D01*
X148Y1557D02*
X152Y1557D01*
X170Y1557D02*
X175Y1557D01*
X189Y1557D02*
X194Y1557D01*
X65Y1556D02*
X70Y1556D01*
X106Y1556D02*
X111Y1556D01*
X148Y1556D02*
X152Y1556D01*
X170Y1556D02*
X175Y1556D01*
X189Y1556D02*
X194Y1556D01*
X65Y1555D02*
X70Y1555D01*
X106Y1555D02*
X111Y1555D01*
X148Y1555D02*
X152Y1555D01*
X170Y1555D02*
X175Y1555D01*
X189Y1555D02*
X194Y1555D01*
X65Y1554D02*
X70Y1554D01*
X106Y1554D02*
X111Y1554D01*
X148Y1554D02*
X152Y1554D01*
X170Y1554D02*
X175Y1554D01*
X189Y1554D02*
X194Y1554D01*
X65Y1553D02*
X70Y1553D01*
X106Y1553D02*
X111Y1553D01*
X148Y1553D02*
X152Y1553D01*
X170Y1553D02*
X175Y1553D01*
X189Y1553D02*
X194Y1553D01*
X65Y1552D02*
X70Y1552D01*
X106Y1552D02*
X111Y1552D01*
X148Y1552D02*
X152Y1552D01*
X170Y1552D02*
X175Y1552D01*
X189Y1552D02*
X194Y1552D01*
X65Y1551D02*
X70Y1551D01*
X106Y1551D02*
X111Y1551D01*
X148Y1551D02*
X152Y1551D01*
X170Y1551D02*
X175Y1551D01*
X189Y1551D02*
X194Y1551D01*
X65Y1550D02*
X88Y1550D01*
X106Y1550D02*
X130Y1550D01*
X148Y1550D02*
X152Y1550D01*
X170Y1550D02*
X175Y1550D01*
X189Y1550D02*
X212Y1550D01*
X65Y1549D02*
X90Y1549D01*
X106Y1549D02*
X131Y1549D01*
X148Y1549D02*
X152Y1549D01*
X170Y1549D02*
X175Y1549D01*
X189Y1549D02*
X214Y1549D01*
X65Y1548D02*
X91Y1548D01*
X107Y1548D02*
X132Y1548D01*
X148Y1548D02*
X152Y1548D01*
X170Y1548D02*
X175Y1548D01*
X189Y1548D02*
X215Y1548D01*
X66Y1547D02*
X92Y1547D01*
X107Y1547D02*
X133Y1547D01*
X148Y1547D02*
X152Y1547D01*
X170Y1547D02*
X175Y1547D01*
X190Y1547D02*
X216Y1547D01*
X67Y1546D02*
X92Y1546D01*
X108Y1546D02*
X133Y1546D01*
X148Y1546D02*
X152Y1546D01*
X170Y1546D02*
X175Y1546D01*
X191Y1546D02*
X216Y1546D01*
X69Y1545D02*
X92Y1545D01*
X110Y1545D02*
X134Y1545D01*
X148Y1545D02*
X152Y1545D01*
X170Y1545D02*
X175Y1545D01*
X193Y1545D02*
X216Y1545D01*
X88Y1544D02*
X92Y1544D01*
X129Y1544D02*
X134Y1544D01*
X148Y1544D02*
X152Y1544D01*
X170Y1544D02*
X175Y1544D01*
X212Y1544D02*
X216Y1544D01*
X88Y1543D02*
X92Y1543D01*
X129Y1543D02*
X134Y1543D01*
X148Y1543D02*
X152Y1543D01*
X170Y1543D02*
X175Y1543D01*
X212Y1543D02*
X216Y1543D01*
X88Y1542D02*
X92Y1542D01*
X129Y1542D02*
X134Y1542D01*
X148Y1542D02*
X152Y1542D01*
X170Y1542D02*
X175Y1542D01*
X212Y1542D02*
X216Y1542D01*
X88Y1541D02*
X92Y1541D01*
X129Y1541D02*
X134Y1541D01*
X148Y1541D02*
X152Y1541D01*
X170Y1541D02*
X175Y1541D01*
X212Y1541D02*
X216Y1541D01*
X88Y1540D02*
X92Y1540D01*
X129Y1540D02*
X134Y1540D01*
X148Y1540D02*
X152Y1540D01*
X170Y1540D02*
X175Y1540D01*
X212Y1540D02*
X216Y1540D01*
X88Y1539D02*
X92Y1539D01*
X129Y1539D02*
X134Y1539D01*
X148Y1539D02*
X152Y1539D01*
X170Y1539D02*
X175Y1539D01*
X212Y1539D02*
X216Y1539D01*
X88Y1538D02*
X92Y1538D01*
X129Y1538D02*
X134Y1538D01*
X148Y1538D02*
X152Y1538D01*
X170Y1538D02*
X175Y1538D01*
X212Y1538D02*
X216Y1538D01*
X88Y1537D02*
X92Y1537D01*
X129Y1537D02*
X134Y1537D01*
X148Y1537D02*
X152Y1537D01*
X170Y1537D02*
X175Y1537D01*
X212Y1537D02*
X216Y1537D01*
X88Y1536D02*
X92Y1536D01*
X129Y1536D02*
X134Y1536D01*
X148Y1536D02*
X152Y1536D01*
X170Y1536D02*
X175Y1536D01*
X212Y1536D02*
X216Y1536D01*
X88Y1535D02*
X92Y1535D01*
X129Y1535D02*
X134Y1535D01*
X148Y1535D02*
X152Y1535D01*
X170Y1535D02*
X175Y1535D01*
X212Y1535D02*
X216Y1535D01*
X88Y1534D02*
X92Y1534D01*
X129Y1534D02*
X134Y1534D01*
X148Y1534D02*
X152Y1534D01*
X170Y1534D02*
X175Y1534D01*
X212Y1534D02*
X216Y1534D01*
X88Y1533D02*
X92Y1533D01*
X129Y1533D02*
X134Y1533D01*
X148Y1533D02*
X152Y1533D01*
X170Y1533D02*
X175Y1533D01*
X212Y1533D02*
X216Y1533D01*
X88Y1532D02*
X92Y1532D01*
X129Y1532D02*
X134Y1532D01*
X148Y1532D02*
X152Y1532D01*
X170Y1532D02*
X175Y1532D01*
X212Y1532D02*
X216Y1532D01*
X87Y1531D02*
X92Y1531D01*
X129Y1531D02*
X134Y1531D01*
X148Y1531D02*
X153Y1531D01*
X170Y1531D02*
X175Y1531D01*
X211Y1531D02*
X216Y1531D01*
X66Y1530D02*
X92Y1530D01*
X107Y1530D02*
X134Y1530D01*
X148Y1530D02*
X175Y1530D01*
X190Y1530D02*
X216Y1530D01*
X65Y1529D02*
X92Y1529D01*
X106Y1529D02*
X134Y1529D01*
X148Y1529D02*
X175Y1529D01*
X189Y1529D02*
X216Y1529D01*
X65Y1528D02*
X92Y1528D01*
X106Y1528D02*
X134Y1528D01*
X148Y1528D02*
X174Y1528D01*
X189Y1528D02*
X216Y1528D01*
X65Y1527D02*
X92Y1527D01*
X106Y1527D02*
X134Y1527D01*
X149Y1527D02*
X173Y1527D01*
X189Y1527D02*
X216Y1527D01*
X66Y1526D02*
X92Y1526D01*
X107Y1526D02*
X134Y1526D01*
X151Y1526D02*
X172Y1526D01*
X190Y1526D02*
X216Y1526D01*
X1002Y143D02*
X1097Y143D01*
X1000Y142D02*
X1099Y142D01*
X998Y141D02*
X1100Y141D01*
X997Y140D02*
X1101Y140D01*
X997Y139D02*
X1102Y139D01*
X996Y138D02*
X1103Y138D01*
X996Y137D02*
X1103Y137D01*
X995Y136D02*
X1104Y136D01*
X995Y135D02*
X1104Y135D01*
X995Y134D02*
X1104Y134D01*
X995Y133D02*
X1104Y133D01*
X995Y132D02*
X1104Y132D01*
X995Y131D02*
X1104Y131D01*
X995Y130D02*
X1104Y130D01*
X995Y129D02*
X1104Y129D01*
X995Y128D02*
X1104Y128D01*
X995Y127D02*
X1104Y127D01*
X995Y126D02*
X1104Y126D01*
X995Y125D02*
X1104Y125D01*
X995Y124D02*
X1104Y124D01*
X995Y123D02*
X1104Y123D01*
X995Y122D02*
X1104Y122D01*
X995Y121D02*
X1104Y121D01*
X305Y120D02*
X326Y120D01*
X342Y120D02*
X358Y120D01*
X390Y120D02*
X414Y120D01*
X541Y120D02*
X544Y120D01*
X741Y120D02*
X761Y120D01*
X995Y120D02*
X1023Y120D01*
X1065Y120D02*
X1104Y120D01*
X303Y119D02*
X326Y119D01*
X341Y119D02*
X359Y119D01*
X388Y119D02*
X414Y119D01*
X541Y119D02*
X545Y119D01*
X739Y119D02*
X763Y119D01*
X995Y119D02*
X1023Y119D01*
X1066Y119D02*
X1104Y119D01*
X301Y118D02*
X326Y118D01*
X341Y118D02*
X361Y118D01*
X387Y118D02*
X414Y118D01*
X540Y118D02*
X545Y118D01*
X712Y118D02*
X713Y118D01*
X738Y118D02*
X764Y118D01*
X995Y118D02*
X1023Y118D01*
X1067Y118D02*
X1104Y118D01*
X300Y117D02*
X326Y117D01*
X341Y117D02*
X361Y117D01*
X386Y117D02*
X414Y117D01*
X540Y117D02*
X545Y117D01*
X711Y117D02*
X714Y117D01*
X737Y117D02*
X764Y117D01*
X995Y117D02*
X1023Y117D01*
X1068Y117D02*
X1104Y117D01*
X299Y116D02*
X326Y116D01*
X341Y116D02*
X362Y116D01*
X386Y116D02*
X414Y116D01*
X540Y116D02*
X545Y116D01*
X710Y116D02*
X715Y116D01*
X737Y116D02*
X765Y116D01*
X995Y116D02*
X1023Y116D01*
X1069Y116D02*
X1104Y116D01*
X299Y115D02*
X326Y115D01*
X342Y115D02*
X363Y115D01*
X385Y115D02*
X414Y115D01*
X540Y115D02*
X545Y115D01*
X710Y115D02*
X715Y115D01*
X736Y115D02*
X765Y115D01*
X995Y115D02*
X1023Y115D01*
X1070Y115D02*
X1104Y115D01*
X298Y114D02*
X305Y114D01*
X321Y114D02*
X326Y114D01*
X357Y114D02*
X363Y114D01*
X385Y114D02*
X391Y114D01*
X409Y114D02*
X414Y114D01*
X540Y114D02*
X545Y114D01*
X710Y114D02*
X715Y114D01*
X736Y114D02*
X742Y114D01*
X760Y114D02*
X765Y114D01*
X995Y114D02*
X1023Y114D01*
X1071Y114D02*
X1104Y114D01*
X298Y113D02*
X304Y113D01*
X321Y113D02*
X326Y113D01*
X358Y113D02*
X364Y113D01*
X385Y113D02*
X390Y113D01*
X409Y113D02*
X414Y113D01*
X540Y113D02*
X545Y113D01*
X710Y113D02*
X715Y113D01*
X736Y113D02*
X741Y113D01*
X759Y113D02*
X765Y113D01*
X995Y113D02*
X1023Y113D01*
X1072Y113D02*
X1104Y113D01*
X297Y112D02*
X303Y112D01*
X321Y112D02*
X326Y112D01*
X358Y112D02*
X364Y112D01*
X385Y112D02*
X390Y112D01*
X409Y112D02*
X414Y112D01*
X540Y112D02*
X545Y112D01*
X710Y112D02*
X715Y112D01*
X736Y112D02*
X741Y112D01*
X759Y112D02*
X765Y112D01*
X995Y112D02*
X1023Y112D01*
X1073Y112D02*
X1104Y112D01*
X297Y111D02*
X302Y111D01*
X321Y111D02*
X326Y111D01*
X359Y111D02*
X365Y111D01*
X384Y111D02*
X390Y111D01*
X409Y111D02*
X414Y111D01*
X540Y111D02*
X545Y111D01*
X710Y111D02*
X715Y111D01*
X736Y111D02*
X740Y111D01*
X758Y111D02*
X764Y111D01*
X995Y111D02*
X1023Y111D01*
X1074Y111D02*
X1104Y111D01*
X297Y110D02*
X302Y110D01*
X321Y110D02*
X326Y110D01*
X359Y110D02*
X365Y110D01*
X384Y110D02*
X390Y110D01*
X409Y110D02*
X414Y110D01*
X540Y110D02*
X545Y110D01*
X710Y110D02*
X715Y110D01*
X737Y110D02*
X739Y110D01*
X757Y110D02*
X764Y110D01*
X995Y110D02*
X1023Y110D01*
X1075Y110D02*
X1104Y110D01*
X297Y109D02*
X302Y109D01*
X321Y109D02*
X326Y109D01*
X360Y109D02*
X366Y109D01*
X384Y109D02*
X390Y109D01*
X409Y109D02*
X414Y109D01*
X540Y109D02*
X545Y109D01*
X710Y109D02*
X715Y109D01*
X756Y109D02*
X763Y109D01*
X995Y109D02*
X1023Y109D01*
X1076Y109D02*
X1104Y109D01*
X297Y108D02*
X302Y108D01*
X321Y108D02*
X326Y108D01*
X360Y108D02*
X366Y108D01*
X384Y108D02*
X390Y108D01*
X409Y108D02*
X414Y108D01*
X540Y108D02*
X545Y108D01*
X710Y108D02*
X715Y108D01*
X756Y108D02*
X762Y108D01*
X995Y108D02*
X1023Y108D01*
X1076Y108D02*
X1104Y108D01*
X297Y107D02*
X302Y107D01*
X321Y107D02*
X326Y107D01*
X361Y107D02*
X367Y107D01*
X384Y107D02*
X390Y107D01*
X409Y107D02*
X414Y107D01*
X429Y107D02*
X433Y107D01*
X454Y107D02*
X457Y107D01*
X480Y107D02*
X494Y107D01*
X522Y107D02*
X532Y107D01*
X540Y107D02*
X545Y107D01*
X561Y107D02*
X579Y107D01*
X610Y107D02*
X620Y107D01*
X629Y107D02*
X632Y107D01*
X654Y107D02*
X670Y107D01*
X696Y107D02*
X720Y107D01*
X755Y107D02*
X762Y107D01*
X995Y107D02*
X1023Y107D01*
X1076Y107D02*
X1104Y107D01*
X297Y106D02*
X302Y106D01*
X321Y106D02*
X326Y106D01*
X361Y106D02*
X367Y106D01*
X384Y106D02*
X390Y106D01*
X409Y106D02*
X414Y106D01*
X429Y106D02*
X433Y106D01*
X453Y106D02*
X457Y106D01*
X478Y106D02*
X496Y106D01*
X521Y106D02*
X534Y106D01*
X540Y106D02*
X545Y106D01*
X560Y106D02*
X581Y106D01*
X608Y106D02*
X622Y106D01*
X628Y106D02*
X633Y106D01*
X652Y106D02*
X671Y106D01*
X695Y106D02*
X721Y106D01*
X754Y106D02*
X761Y106D01*
X995Y106D02*
X1023Y106D01*
X1076Y106D02*
X1104Y106D01*
X297Y105D02*
X302Y105D01*
X321Y105D02*
X326Y105D01*
X362Y105D02*
X368Y105D01*
X384Y105D02*
X390Y105D01*
X409Y105D02*
X414Y105D01*
X428Y105D02*
X433Y105D01*
X453Y105D02*
X458Y105D01*
X477Y105D02*
X497Y105D01*
X520Y105D02*
X536Y105D01*
X540Y105D02*
X545Y105D01*
X560Y105D02*
X582Y105D01*
X607Y105D02*
X624Y105D01*
X628Y105D02*
X633Y105D01*
X651Y105D02*
X671Y105D01*
X695Y105D02*
X721Y105D01*
X753Y105D02*
X760Y105D01*
X995Y105D02*
X1023Y105D01*
X1076Y105D02*
X1104Y105D01*
X297Y104D02*
X302Y104D01*
X321Y104D02*
X326Y104D01*
X362Y104D02*
X368Y104D01*
X384Y104D02*
X390Y104D01*
X409Y104D02*
X414Y104D01*
X428Y104D02*
X434Y104D01*
X453Y104D02*
X458Y104D01*
X476Y104D02*
X498Y104D01*
X519Y104D02*
X537Y104D01*
X540Y104D02*
X545Y104D01*
X560Y104D02*
X583Y104D01*
X607Y104D02*
X625Y104D01*
X628Y104D02*
X633Y104D01*
X650Y104D02*
X671Y104D01*
X695Y104D02*
X721Y104D01*
X752Y104D02*
X759Y104D01*
X995Y104D02*
X1023Y104D01*
X1076Y104D02*
X1104Y104D01*
X297Y103D02*
X303Y103D01*
X321Y103D02*
X326Y103D01*
X363Y103D02*
X368Y103D01*
X384Y103D02*
X390Y103D01*
X409Y103D02*
X414Y103D01*
X428Y103D02*
X434Y103D01*
X453Y103D02*
X458Y103D01*
X475Y103D02*
X499Y103D01*
X518Y103D02*
X545Y103D01*
X561Y103D02*
X584Y103D01*
X606Y103D02*
X633Y103D01*
X650Y103D02*
X671Y103D01*
X696Y103D02*
X720Y103D01*
X752Y103D02*
X759Y103D01*
X995Y103D02*
X1023Y103D01*
X1076Y103D02*
X1104Y103D01*
X297Y102D02*
X304Y102D01*
X321Y102D02*
X326Y102D01*
X363Y102D02*
X369Y102D01*
X384Y102D02*
X390Y102D01*
X409Y102D02*
X414Y102D01*
X428Y102D02*
X434Y102D01*
X453Y102D02*
X458Y102D01*
X474Y102D02*
X500Y102D01*
X518Y102D02*
X545Y102D01*
X562Y102D02*
X585Y102D01*
X605Y102D02*
X633Y102D01*
X649Y102D02*
X669Y102D01*
X697Y102D02*
X719Y102D01*
X751Y102D02*
X758Y102D01*
X995Y102D02*
X1034Y102D01*
X1076Y102D02*
X1104Y102D01*
X298Y101D02*
X305Y101D01*
X321Y101D02*
X326Y101D01*
X364Y101D02*
X369Y101D01*
X384Y101D02*
X390Y101D01*
X409Y101D02*
X414Y101D01*
X428Y101D02*
X434Y101D01*
X453Y101D02*
X458Y101D01*
X473Y101D02*
X481Y101D01*
X493Y101D02*
X500Y101D01*
X517Y101D02*
X523Y101D01*
X532Y101D02*
X545Y101D01*
X578Y101D02*
X586Y101D01*
X605Y101D02*
X611Y101D01*
X619Y101D02*
X633Y101D01*
X649Y101D02*
X655Y101D01*
X710Y101D02*
X715Y101D01*
X750Y101D02*
X757Y101D01*
X995Y101D02*
X1034Y101D01*
X1076Y101D02*
X1104Y101D01*
X299Y100D02*
X326Y100D01*
X364Y100D02*
X369Y100D01*
X385Y100D02*
X390Y100D01*
X409Y100D02*
X414Y100D01*
X428Y100D02*
X434Y100D01*
X452Y100D02*
X458Y100D01*
X473Y100D02*
X479Y100D01*
X494Y100D02*
X501Y100D01*
X517Y100D02*
X523Y100D01*
X533Y100D02*
X545Y100D01*
X579Y100D02*
X587Y100D01*
X605Y100D02*
X610Y100D01*
X621Y100D02*
X633Y100D01*
X649Y100D02*
X654Y100D01*
X710Y100D02*
X715Y100D01*
X749Y100D02*
X756Y100D01*
X995Y100D02*
X1034Y100D01*
X1076Y100D02*
X1104Y100D01*
X299Y99D02*
X326Y99D01*
X364Y99D02*
X370Y99D01*
X385Y99D02*
X390Y99D01*
X409Y99D02*
X414Y99D01*
X429Y99D02*
X434Y99D01*
X452Y99D02*
X458Y99D01*
X473Y99D02*
X478Y99D01*
X496Y99D02*
X501Y99D01*
X517Y99D02*
X522Y99D01*
X535Y99D02*
X545Y99D01*
X580Y99D02*
X588Y99D01*
X605Y99D02*
X610Y99D01*
X623Y99D02*
X633Y99D01*
X649Y99D02*
X654Y99D01*
X710Y99D02*
X715Y99D01*
X749Y99D02*
X755Y99D01*
X995Y99D02*
X1034Y99D01*
X1076Y99D02*
X1104Y99D01*
X300Y98D02*
X326Y98D01*
X365Y98D02*
X370Y98D01*
X385Y98D02*
X391Y98D01*
X409Y98D02*
X414Y98D01*
X429Y98D02*
X435Y98D01*
X452Y98D02*
X457Y98D01*
X472Y98D02*
X478Y98D01*
X496Y98D02*
X501Y98D01*
X517Y98D02*
X522Y98D01*
X536Y98D02*
X545Y98D01*
X582Y98D02*
X589Y98D01*
X605Y98D02*
X610Y98D01*
X624Y98D02*
X633Y98D01*
X649Y98D02*
X654Y98D01*
X710Y98D02*
X715Y98D01*
X748Y98D02*
X755Y98D01*
X995Y98D02*
X1023Y98D01*
X1076Y98D02*
X1104Y98D01*
X301Y97D02*
X326Y97D01*
X365Y97D02*
X370Y97D01*
X385Y97D02*
X414Y97D01*
X429Y97D02*
X435Y97D01*
X451Y97D02*
X457Y97D01*
X472Y97D02*
X478Y97D01*
X496Y97D02*
X502Y97D01*
X517Y97D02*
X522Y97D01*
X538Y97D02*
X545Y97D01*
X583Y97D02*
X589Y97D01*
X605Y97D02*
X610Y97D01*
X626Y97D02*
X633Y97D01*
X649Y97D02*
X654Y97D01*
X710Y97D02*
X715Y97D01*
X747Y97D02*
X754Y97D01*
X995Y97D02*
X1023Y97D01*
X1076Y97D02*
X1104Y97D01*
X300Y96D02*
X326Y96D01*
X365Y96D02*
X370Y96D01*
X386Y96D02*
X414Y96D01*
X430Y96D02*
X435Y96D01*
X451Y96D02*
X456Y96D01*
X472Y96D02*
X477Y96D01*
X496Y96D02*
X502Y96D01*
X517Y96D02*
X522Y96D01*
X539Y96D02*
X545Y96D01*
X584Y96D02*
X589Y96D01*
X605Y96D02*
X610Y96D01*
X627Y96D02*
X633Y96D01*
X649Y96D02*
X654Y96D01*
X710Y96D02*
X715Y96D01*
X746Y96D02*
X753Y96D01*
X995Y96D02*
X1023Y96D01*
X1076Y96D02*
X1104Y96D01*
X299Y95D02*
X326Y95D01*
X364Y95D02*
X370Y95D01*
X387Y95D02*
X414Y95D01*
X430Y95D02*
X436Y95D01*
X450Y95D02*
X456Y95D01*
X472Y95D02*
X477Y95D01*
X496Y95D02*
X502Y95D01*
X517Y95D02*
X522Y95D01*
X540Y95D02*
X545Y95D01*
X584Y95D02*
X589Y95D01*
X605Y95D02*
X610Y95D01*
X628Y95D02*
X633Y95D01*
X649Y95D02*
X654Y95D01*
X657Y95D02*
X668Y95D01*
X710Y95D02*
X715Y95D01*
X745Y95D02*
X752Y95D01*
X995Y95D02*
X1023Y95D01*
X1076Y95D02*
X1104Y95D01*
X298Y94D02*
X307Y94D01*
X320Y94D02*
X326Y94D01*
X364Y94D02*
X369Y94D01*
X387Y94D02*
X414Y94D01*
X431Y94D02*
X436Y94D01*
X450Y94D02*
X455Y94D01*
X472Y94D02*
X477Y94D01*
X496Y94D02*
X502Y94D01*
X517Y94D02*
X522Y94D01*
X540Y94D02*
X545Y94D01*
X584Y94D02*
X589Y94D01*
X605Y94D02*
X610Y94D01*
X628Y94D02*
X633Y94D01*
X649Y94D02*
X672Y94D01*
X710Y94D02*
X715Y94D01*
X745Y94D02*
X752Y94D01*
X995Y94D02*
X1023Y94D01*
X1076Y94D02*
X1104Y94D01*
X298Y93D02*
X305Y93D01*
X321Y93D02*
X326Y93D01*
X364Y93D02*
X369Y93D01*
X389Y93D02*
X414Y93D01*
X431Y93D02*
X437Y93D01*
X449Y93D02*
X455Y93D01*
X472Y93D02*
X477Y93D01*
X496Y93D02*
X502Y93D01*
X517Y93D02*
X522Y93D01*
X540Y93D02*
X545Y93D01*
X584Y93D02*
X589Y93D01*
X605Y93D02*
X610Y93D01*
X628Y93D02*
X633Y93D01*
X649Y93D02*
X674Y93D01*
X710Y93D02*
X715Y93D01*
X744Y93D02*
X751Y93D01*
X995Y93D02*
X1023Y93D01*
X1076Y93D02*
X1104Y93D01*
X297Y92D02*
X304Y92D01*
X321Y92D02*
X326Y92D01*
X363Y92D02*
X369Y92D01*
X391Y92D02*
X414Y92D01*
X432Y92D02*
X437Y92D01*
X449Y92D02*
X455Y92D01*
X472Y92D02*
X502Y92D01*
X517Y92D02*
X522Y92D01*
X540Y92D02*
X545Y92D01*
X584Y92D02*
X589Y92D01*
X605Y92D02*
X610Y92D01*
X628Y92D02*
X633Y92D01*
X648Y92D02*
X675Y92D01*
X710Y92D02*
X715Y92D01*
X743Y92D02*
X750Y92D01*
X995Y92D02*
X1023Y92D01*
X1076Y92D02*
X1104Y92D01*
X297Y91D02*
X303Y91D01*
X321Y91D02*
X326Y91D01*
X363Y91D02*
X368Y91D01*
X409Y91D02*
X414Y91D01*
X432Y91D02*
X438Y91D01*
X448Y91D02*
X454Y91D01*
X472Y91D02*
X502Y91D01*
X517Y91D02*
X522Y91D01*
X540Y91D02*
X545Y91D01*
X584Y91D02*
X589Y91D01*
X605Y91D02*
X610Y91D01*
X628Y91D02*
X633Y91D01*
X648Y91D02*
X676Y91D01*
X710Y91D02*
X715Y91D01*
X742Y91D02*
X749Y91D01*
X995Y91D02*
X1023Y91D01*
X1076Y91D02*
X1104Y91D01*
X297Y90D02*
X302Y90D01*
X321Y90D02*
X326Y90D01*
X362Y90D02*
X368Y90D01*
X409Y90D02*
X414Y90D01*
X432Y90D02*
X438Y90D01*
X448Y90D02*
X454Y90D01*
X472Y90D02*
X502Y90D01*
X517Y90D02*
X522Y90D01*
X540Y90D02*
X545Y90D01*
X584Y90D02*
X589Y90D01*
X605Y90D02*
X610Y90D01*
X628Y90D02*
X633Y90D01*
X648Y90D02*
X676Y90D01*
X710Y90D02*
X715Y90D01*
X742Y90D02*
X748Y90D01*
X995Y90D02*
X1023Y90D01*
X1076Y90D02*
X1104Y90D01*
X297Y89D02*
X302Y89D01*
X321Y89D02*
X326Y89D01*
X362Y89D02*
X367Y89D01*
X409Y89D02*
X414Y89D01*
X433Y89D02*
X438Y89D01*
X448Y89D02*
X453Y89D01*
X472Y89D02*
X502Y89D01*
X517Y89D02*
X522Y89D01*
X540Y89D02*
X545Y89D01*
X584Y89D02*
X589Y89D01*
X605Y89D02*
X610Y89D01*
X628Y89D02*
X633Y89D01*
X648Y89D02*
X677Y89D01*
X710Y89D02*
X715Y89D01*
X741Y89D02*
X748Y89D01*
X995Y89D02*
X1023Y89D01*
X1076Y89D02*
X1104Y89D01*
X297Y88D02*
X302Y88D01*
X321Y88D02*
X326Y88D01*
X361Y88D02*
X367Y88D01*
X409Y88D02*
X414Y88D01*
X433Y88D02*
X439Y88D01*
X447Y88D02*
X453Y88D01*
X473Y88D02*
X502Y88D01*
X517Y88D02*
X522Y88D01*
X540Y88D02*
X545Y88D01*
X584Y88D02*
X589Y88D01*
X604Y88D02*
X610Y88D01*
X628Y88D02*
X633Y88D01*
X648Y88D02*
X654Y88D01*
X671Y88D02*
X677Y88D01*
X710Y88D02*
X715Y88D01*
X740Y88D02*
X747Y88D01*
X995Y88D02*
X1023Y88D01*
X1076Y88D02*
X1104Y88D01*
X297Y87D02*
X302Y87D01*
X321Y87D02*
X326Y87D01*
X361Y87D02*
X366Y87D01*
X409Y87D02*
X414Y87D01*
X434Y87D02*
X439Y87D01*
X447Y87D02*
X452Y87D01*
X474Y87D02*
X502Y87D01*
X517Y87D02*
X522Y87D01*
X540Y87D02*
X545Y87D01*
X584Y87D02*
X589Y87D01*
X604Y87D02*
X610Y87D01*
X628Y87D02*
X633Y87D01*
X648Y87D02*
X654Y87D01*
X672Y87D02*
X677Y87D01*
X710Y87D02*
X715Y87D01*
X739Y87D02*
X746Y87D01*
X995Y87D02*
X1023Y87D01*
X1076Y87D02*
X1104Y87D01*
X297Y86D02*
X302Y86D01*
X321Y86D02*
X326Y86D01*
X360Y86D02*
X366Y86D01*
X409Y86D02*
X414Y86D01*
X434Y86D02*
X440Y86D01*
X446Y86D02*
X452Y86D01*
X496Y86D02*
X502Y86D01*
X517Y86D02*
X522Y86D01*
X540Y86D02*
X545Y86D01*
X584Y86D02*
X589Y86D01*
X604Y86D02*
X610Y86D01*
X628Y86D02*
X633Y86D01*
X648Y86D02*
X653Y86D01*
X672Y86D02*
X677Y86D01*
X710Y86D02*
X715Y86D01*
X738Y86D02*
X745Y86D01*
X995Y86D02*
X1023Y86D01*
X1076Y86D02*
X1104Y86D01*
X297Y85D02*
X302Y85D01*
X321Y85D02*
X326Y85D01*
X360Y85D02*
X365Y85D01*
X409Y85D02*
X414Y85D01*
X435Y85D02*
X440Y85D01*
X446Y85D02*
X452Y85D01*
X496Y85D02*
X502Y85D01*
X517Y85D02*
X522Y85D01*
X540Y85D02*
X545Y85D01*
X583Y85D02*
X589Y85D01*
X604Y85D02*
X609Y85D01*
X628Y85D02*
X633Y85D01*
X648Y85D02*
X653Y85D01*
X672Y85D02*
X677Y85D01*
X710Y85D02*
X715Y85D01*
X738Y85D02*
X745Y85D01*
X995Y85D02*
X1023Y85D01*
X1076Y85D02*
X1104Y85D01*
X297Y84D02*
X302Y84D01*
X321Y84D02*
X326Y84D01*
X359Y84D02*
X365Y84D01*
X409Y84D02*
X414Y84D01*
X435Y84D02*
X441Y84D01*
X445Y84D02*
X451Y84D01*
X496Y84D02*
X502Y84D01*
X517Y84D02*
X522Y84D01*
X540Y84D02*
X545Y84D01*
X582Y84D02*
X589Y84D01*
X604Y84D02*
X609Y84D01*
X628Y84D02*
X633Y84D01*
X648Y84D02*
X653Y84D01*
X672Y84D02*
X677Y84D01*
X693Y84D02*
X696Y84D01*
X710Y84D02*
X715Y84D01*
X737Y84D02*
X744Y84D01*
X761Y84D02*
X764Y84D01*
X995Y84D02*
X1023Y84D01*
X1076Y84D02*
X1104Y84D01*
X297Y83D02*
X303Y83D01*
X321Y83D02*
X326Y83D01*
X359Y83D02*
X364Y83D01*
X409Y83D02*
X414Y83D01*
X435Y83D02*
X441Y83D01*
X445Y83D02*
X451Y83D01*
X496Y83D02*
X501Y83D01*
X516Y83D02*
X522Y83D01*
X540Y83D02*
X545Y83D01*
X581Y83D02*
X588Y83D01*
X604Y83D02*
X609Y83D01*
X628Y83D02*
X633Y83D01*
X648Y83D02*
X654Y83D01*
X672Y83D02*
X677Y83D01*
X692Y83D02*
X696Y83D01*
X710Y83D02*
X715Y83D01*
X736Y83D02*
X743Y83D01*
X760Y83D02*
X765Y83D01*
X995Y83D02*
X1023Y83D01*
X1076Y83D02*
X1104Y83D01*
X297Y82D02*
X303Y82D01*
X321Y82D02*
X326Y82D01*
X358Y82D02*
X364Y82D01*
X409Y82D02*
X414Y82D01*
X436Y82D02*
X442Y82D01*
X445Y82D02*
X450Y82D01*
X495Y82D02*
X501Y82D01*
X516Y82D02*
X522Y82D01*
X540Y82D02*
X545Y82D01*
X580Y82D02*
X588Y82D01*
X604Y82D02*
X609Y82D01*
X628Y82D02*
X633Y82D01*
X648Y82D02*
X656Y82D01*
X672Y82D02*
X677Y82D01*
X692Y82D02*
X697Y82D01*
X710Y82D02*
X715Y82D01*
X736Y82D02*
X742Y82D01*
X760Y82D02*
X765Y82D01*
X995Y82D02*
X1023Y82D01*
X1076Y82D02*
X1104Y82D01*
X298Y81D02*
X304Y81D01*
X321Y81D02*
X326Y81D01*
X357Y81D02*
X363Y81D01*
X409Y81D02*
X414Y81D01*
X436Y81D02*
X442Y81D01*
X444Y81D02*
X450Y81D01*
X494Y81D02*
X501Y81D01*
X516Y81D02*
X522Y81D01*
X540Y81D02*
X545Y81D01*
X579Y81D02*
X587Y81D01*
X604Y81D02*
X609Y81D01*
X628Y81D02*
X633Y81D01*
X648Y81D02*
X657Y81D01*
X672Y81D02*
X677Y81D01*
X692Y81D02*
X698Y81D01*
X710Y81D02*
X715Y81D01*
X736Y81D02*
X741Y81D01*
X760Y81D02*
X765Y81D01*
X995Y81D02*
X1023Y81D01*
X1076Y81D02*
X1104Y81D01*
X298Y80D02*
X306Y80D01*
X321Y80D02*
X326Y80D01*
X357Y80D02*
X363Y80D01*
X409Y80D02*
X414Y80D01*
X437Y80D02*
X449Y80D01*
X493Y80D02*
X500Y80D01*
X516Y80D02*
X521Y80D01*
X540Y80D02*
X545Y80D01*
X578Y80D02*
X586Y80D01*
X604Y80D02*
X609Y80D01*
X628Y80D02*
X633Y80D01*
X648Y80D02*
X659Y80D01*
X671Y80D02*
X677Y80D01*
X692Y80D02*
X698Y80D01*
X709Y80D02*
X715Y80D01*
X736Y80D02*
X741Y80D01*
X759Y80D02*
X765Y80D01*
X995Y80D02*
X1047Y80D01*
X1076Y80D02*
X1104Y80D01*
X299Y79D02*
X326Y79D01*
X342Y79D02*
X362Y79D01*
X409Y79D02*
X414Y79D01*
X437Y79D02*
X449Y79D01*
X474Y79D02*
X500Y79D01*
X516Y79D02*
X521Y79D01*
X540Y79D02*
X545Y79D01*
X562Y79D02*
X585Y79D01*
X604Y79D02*
X609Y79D01*
X628Y79D02*
X633Y79D01*
X648Y79D02*
X677Y79D01*
X693Y79D02*
X714Y79D01*
X736Y79D02*
X765Y79D01*
X995Y79D02*
X1047Y79D01*
X1076Y79D02*
X1104Y79D01*
X299Y78D02*
X326Y78D01*
X341Y78D02*
X362Y78D01*
X409Y78D02*
X414Y78D01*
X438Y78D02*
X448Y78D01*
X473Y78D02*
X499Y78D01*
X516Y78D02*
X521Y78D01*
X540Y78D02*
X545Y78D01*
X561Y78D02*
X584Y78D01*
X604Y78D02*
X609Y78D01*
X628Y78D02*
X633Y78D01*
X648Y78D02*
X676Y78D01*
X693Y78D02*
X714Y78D01*
X736Y78D02*
X764Y78D01*
X995Y78D02*
X1047Y78D01*
X1076Y78D02*
X1104Y78D01*
X300Y77D02*
X326Y77D01*
X341Y77D02*
X361Y77D01*
X409Y77D02*
X414Y77D01*
X438Y77D02*
X448Y77D01*
X472Y77D02*
X498Y77D01*
X516Y77D02*
X521Y77D01*
X540Y77D02*
X545Y77D01*
X560Y77D02*
X583Y77D01*
X604Y77D02*
X609Y77D01*
X628Y77D02*
X633Y77D01*
X648Y77D02*
X675Y77D01*
X694Y77D02*
X713Y77D01*
X737Y77D02*
X764Y77D01*
X995Y77D02*
X1047Y77D01*
X1076Y77D02*
X1104Y77D01*
X302Y76D02*
X326Y76D01*
X341Y76D02*
X360Y76D01*
X409Y76D02*
X414Y76D01*
X438Y76D02*
X448Y76D01*
X472Y76D02*
X497Y76D01*
X516Y76D02*
X521Y76D01*
X540Y76D02*
X545Y76D01*
X560Y76D02*
X581Y76D01*
X604Y76D02*
X609Y76D01*
X628Y76D02*
X633Y76D01*
X648Y76D02*
X653Y76D01*
X655Y76D02*
X674Y76D01*
X695Y76D02*
X712Y76D01*
X737Y76D02*
X763Y76D01*
X995Y76D02*
X1047Y76D01*
X1076Y76D02*
X1104Y76D01*
X303Y75D02*
X326Y75D01*
X341Y75D02*
X359Y75D01*
X409Y75D02*
X413Y75D01*
X439Y75D02*
X447Y75D01*
X473Y75D02*
X495Y75D01*
X517Y75D02*
X521Y75D01*
X541Y75D02*
X545Y75D01*
X561Y75D02*
X580Y75D01*
X605Y75D02*
X609Y75D01*
X629Y75D02*
X633Y75D01*
X648Y75D02*
X653Y75D01*
X657Y75D02*
X673Y75D01*
X696Y75D02*
X711Y75D01*
X738Y75D02*
X762Y75D01*
X995Y75D02*
X1047Y75D01*
X1076Y75D02*
X1104Y75D01*
X305Y74D02*
X326Y74D01*
X342Y74D02*
X357Y74D01*
X410Y74D02*
X412Y74D01*
X440Y74D02*
X446Y74D01*
X474Y74D02*
X494Y74D01*
X518Y74D02*
X520Y74D01*
X542Y74D02*
X544Y74D01*
X561Y74D02*
X578Y74D01*
X605Y74D02*
X608Y74D01*
X630Y74D02*
X632Y74D01*
X649Y74D02*
X652Y74D01*
X658Y74D02*
X671Y74D01*
X698Y74D02*
X709Y74D01*
X740Y74D02*
X760Y74D01*
X995Y74D02*
X1047Y74D01*
X1076Y74D02*
X1104Y74D01*
X995Y73D02*
X1047Y73D01*
X1076Y73D02*
X1104Y73D01*
X995Y72D02*
X1047Y72D01*
X1076Y72D02*
X1104Y72D01*
X996Y71D02*
X1047Y71D01*
X1076Y71D02*
X1104Y71D01*
X997Y70D02*
X1047Y70D01*
X1076Y70D02*
X1104Y70D01*
X998Y69D02*
X1047Y69D01*
X1076Y69D02*
X1104Y69D01*
X999Y68D02*
X1047Y68D01*
X1076Y68D02*
X1104Y68D01*
X1000Y67D02*
X1047Y67D01*
X1076Y67D02*
X1104Y67D01*
X1001Y66D02*
X1047Y66D01*
X1076Y66D02*
X1104Y66D01*
X1002Y65D02*
X1047Y65D01*
X1076Y65D02*
X1104Y65D01*
X1003Y64D02*
X1047Y64D01*
X1076Y64D02*
X1104Y64D01*
X1004Y63D02*
X1047Y63D01*
X1076Y63D02*
X1104Y63D01*
X1005Y62D02*
X1047Y62D01*
X1076Y62D02*
X1104Y62D01*
X1006Y61D02*
X1047Y61D01*
X1076Y61D02*
X1104Y61D01*
X1007Y60D02*
X1047Y60D01*
X1076Y60D02*
X1104Y60D01*
X1008Y59D02*
X1047Y59D01*
X1076Y59D02*
X1104Y59D01*
X1009Y58D02*
X1104Y58D01*
X1010Y57D02*
X1104Y57D01*
X1011Y56D02*
X1104Y56D01*
X1012Y55D02*
X1104Y55D01*
X1013Y54D02*
X1104Y54D01*
X1014Y53D02*
X1104Y53D01*
X1015Y52D02*
X1104Y52D01*
X1016Y51D02*
X1104Y51D01*
X1017Y50D02*
X1104Y50D01*
X1018Y49D02*
X1104Y49D01*
X1019Y48D02*
X1104Y48D01*
X1020Y47D02*
X1104Y47D01*
X1021Y46D02*
X1104Y46D01*
X1022Y45D02*
X1104Y45D01*
X1023Y44D02*
X1104Y44D01*
X1024Y43D02*
X1104Y43D01*
X1025Y42D02*
X1104Y42D01*
X1026Y41D02*
X1104Y41D01*
X1027Y40D02*
X1103Y40D01*
X1028Y39D02*
X1103Y39D01*
X1029Y38D02*
X1102Y38D01*
X1030Y37D02*
X1102Y37D01*
X1031Y36D02*
X1101Y36D01*
X1032Y35D02*
X1099Y35D01*
X1033Y34D02*
X1097Y34D01*
D02*
G04 End of Silk0*
M02*