; NON-PLATED HOLES START AT T1
; THROUGH (PLATED) HOLES START AT T100
M48
INCH
T100C0.035000
%
T100
X001841Y002695
X001841Y003695
X007341Y005695
X001841Y009695
X001841Y001695
X004841Y007695
X004841Y006695
X004841Y009695
X001841Y006695
X001841Y008695
X008841Y009695
X007341Y009695
X004841Y001695
X001841Y004695
X008841Y005695
X004841Y004695
X004841Y003695
X004841Y002695
X001841Y007695
X004841Y008695
T00
M30
