G04 MADE WITH FRITZING*
G04 WWW.FRITZING.ORG*
G04 DOUBLE SIDED*
G04 HOLES PLATED*
G04 CONTOUR ON CENTER OF CONTOUR VECTOR*
%ASAXBY*%
%FSLAX23Y23*%
%MOIN*%
%OFA0B0*%
%SFA1.0B1.0*%
%ADD10C,0.010000*%
%ADD11R,0.001000X0.001000*%
%LNSILK1*%
G90*
G70*
G54D10*
X134Y520D02*
X134Y120D01*
D02*
X134Y120D02*
X534Y120D01*
D02*
X534Y120D02*
X534Y520D01*
D02*
X134Y520D02*
X284Y520D01*
D02*
X384Y520D02*
X534Y520D01*
D02*
X134Y1020D02*
X134Y620D01*
D02*
X134Y620D02*
X534Y620D01*
D02*
X534Y620D02*
X534Y1020D01*
D02*
X134Y1020D02*
X284Y1020D01*
D02*
X384Y1020D02*
X534Y1020D01*
D02*
X767Y860D02*
X767Y660D01*
D02*
X767Y660D02*
X701Y660D01*
D02*
X701Y660D02*
X701Y860D01*
D02*
X701Y860D02*
X767Y860D01*
D02*
X917Y860D02*
X917Y660D01*
D02*
X917Y660D02*
X851Y660D01*
D02*
X851Y660D02*
X851Y860D01*
D02*
X851Y860D02*
X917Y860D01*
G54D11*
X0Y1192D02*
X972Y1192D01*
X0Y1191D02*
X972Y1191D01*
X0Y1190D02*
X972Y1190D01*
X0Y1189D02*
X972Y1189D01*
X0Y1188D02*
X972Y1188D01*
X0Y1187D02*
X972Y1187D01*
X0Y1186D02*
X972Y1186D01*
X0Y1185D02*
X972Y1185D01*
X0Y1184D02*
X7Y1184D01*
X965Y1184D02*
X972Y1184D01*
X0Y1183D02*
X7Y1183D01*
X965Y1183D02*
X972Y1183D01*
X0Y1182D02*
X7Y1182D01*
X965Y1182D02*
X972Y1182D01*
X0Y1181D02*
X7Y1181D01*
X965Y1181D02*
X972Y1181D01*
X0Y1180D02*
X7Y1180D01*
X965Y1180D02*
X972Y1180D01*
X0Y1179D02*
X7Y1179D01*
X965Y1179D02*
X972Y1179D01*
X0Y1178D02*
X7Y1178D01*
X965Y1178D02*
X972Y1178D01*
X0Y1177D02*
X7Y1177D01*
X965Y1177D02*
X972Y1177D01*
X0Y1176D02*
X7Y1176D01*
X965Y1176D02*
X972Y1176D01*
X0Y1175D02*
X7Y1175D01*
X965Y1175D02*
X972Y1175D01*
X0Y1174D02*
X7Y1174D01*
X965Y1174D02*
X972Y1174D01*
X0Y1173D02*
X7Y1173D01*
X965Y1173D02*
X972Y1173D01*
X0Y1172D02*
X7Y1172D01*
X965Y1172D02*
X972Y1172D01*
X0Y1171D02*
X7Y1171D01*
X965Y1171D02*
X972Y1171D01*
X0Y1170D02*
X7Y1170D01*
X965Y1170D02*
X972Y1170D01*
X0Y1169D02*
X7Y1169D01*
X965Y1169D02*
X972Y1169D01*
X0Y1168D02*
X7Y1168D01*
X965Y1168D02*
X972Y1168D01*
X0Y1167D02*
X7Y1167D01*
X965Y1167D02*
X972Y1167D01*
X0Y1166D02*
X7Y1166D01*
X965Y1166D02*
X972Y1166D01*
X0Y1165D02*
X7Y1165D01*
X965Y1165D02*
X972Y1165D01*
X0Y1164D02*
X7Y1164D01*
X965Y1164D02*
X972Y1164D01*
X0Y1163D02*
X7Y1163D01*
X965Y1163D02*
X972Y1163D01*
X0Y1162D02*
X7Y1162D01*
X965Y1162D02*
X972Y1162D01*
X0Y1161D02*
X7Y1161D01*
X965Y1161D02*
X972Y1161D01*
X0Y1160D02*
X7Y1160D01*
X965Y1160D02*
X972Y1160D01*
X0Y1159D02*
X7Y1159D01*
X965Y1159D02*
X972Y1159D01*
X0Y1158D02*
X7Y1158D01*
X965Y1158D02*
X972Y1158D01*
X0Y1157D02*
X7Y1157D01*
X965Y1157D02*
X972Y1157D01*
X0Y1156D02*
X7Y1156D01*
X965Y1156D02*
X972Y1156D01*
X0Y1155D02*
X7Y1155D01*
X965Y1155D02*
X972Y1155D01*
X0Y1154D02*
X7Y1154D01*
X965Y1154D02*
X972Y1154D01*
X0Y1153D02*
X7Y1153D01*
X965Y1153D02*
X972Y1153D01*
X0Y1152D02*
X7Y1152D01*
X965Y1152D02*
X972Y1152D01*
X0Y1151D02*
X7Y1151D01*
X965Y1151D02*
X972Y1151D01*
X0Y1150D02*
X7Y1150D01*
X965Y1150D02*
X972Y1150D01*
X0Y1149D02*
X7Y1149D01*
X965Y1149D02*
X972Y1149D01*
X0Y1148D02*
X7Y1148D01*
X965Y1148D02*
X972Y1148D01*
X0Y1147D02*
X7Y1147D01*
X965Y1147D02*
X972Y1147D01*
X0Y1146D02*
X7Y1146D01*
X965Y1146D02*
X972Y1146D01*
X0Y1145D02*
X7Y1145D01*
X965Y1145D02*
X972Y1145D01*
X0Y1144D02*
X7Y1144D01*
X965Y1144D02*
X972Y1144D01*
X0Y1143D02*
X7Y1143D01*
X965Y1143D02*
X972Y1143D01*
X0Y1142D02*
X7Y1142D01*
X965Y1142D02*
X972Y1142D01*
X0Y1141D02*
X7Y1141D01*
X965Y1141D02*
X972Y1141D01*
X0Y1140D02*
X7Y1140D01*
X965Y1140D02*
X972Y1140D01*
X0Y1139D02*
X7Y1139D01*
X965Y1139D02*
X972Y1139D01*
X0Y1138D02*
X7Y1138D01*
X965Y1138D02*
X972Y1138D01*
X0Y1137D02*
X7Y1137D01*
X965Y1137D02*
X972Y1137D01*
X0Y1136D02*
X7Y1136D01*
X965Y1136D02*
X972Y1136D01*
X0Y1135D02*
X7Y1135D01*
X965Y1135D02*
X972Y1135D01*
X0Y1134D02*
X7Y1134D01*
X965Y1134D02*
X972Y1134D01*
X0Y1133D02*
X7Y1133D01*
X965Y1133D02*
X972Y1133D01*
X0Y1132D02*
X7Y1132D01*
X860Y1132D02*
X886Y1132D01*
X912Y1132D02*
X930Y1132D01*
X965Y1132D02*
X972Y1132D01*
X0Y1131D02*
X7Y1131D01*
X400Y1131D02*
X402Y1131D01*
X427Y1131D02*
X430Y1131D01*
X450Y1131D02*
X477Y1131D01*
X860Y1131D02*
X888Y1131D01*
X911Y1131D02*
X930Y1131D01*
X965Y1131D02*
X972Y1131D01*
X0Y1130D02*
X7Y1130D01*
X399Y1130D02*
X403Y1130D01*
X426Y1130D02*
X431Y1130D01*
X449Y1130D02*
X479Y1130D01*
X860Y1130D02*
X889Y1130D01*
X910Y1130D02*
X930Y1130D01*
X965Y1130D02*
X972Y1130D01*
X0Y1129D02*
X7Y1129D01*
X398Y1129D02*
X404Y1129D01*
X426Y1129D02*
X431Y1129D01*
X448Y1129D02*
X480Y1129D01*
X860Y1129D02*
X890Y1129D01*
X910Y1129D02*
X930Y1129D01*
X965Y1129D02*
X972Y1129D01*
X0Y1128D02*
X7Y1128D01*
X398Y1128D02*
X404Y1128D01*
X425Y1128D02*
X431Y1128D01*
X448Y1128D02*
X481Y1128D01*
X710Y1128D02*
X735Y1128D01*
X762Y1128D02*
X788Y1128D01*
X860Y1128D02*
X891Y1128D01*
X910Y1128D02*
X930Y1128D01*
X965Y1128D02*
X972Y1128D01*
X0Y1127D02*
X7Y1127D01*
X398Y1127D02*
X404Y1127D01*
X425Y1127D02*
X431Y1127D01*
X448Y1127D02*
X481Y1127D01*
X710Y1127D02*
X738Y1127D01*
X761Y1127D02*
X790Y1127D01*
X860Y1127D02*
X892Y1127D01*
X911Y1127D02*
X930Y1127D01*
X965Y1127D02*
X972Y1127D01*
X0Y1126D02*
X7Y1126D01*
X398Y1126D02*
X404Y1126D01*
X425Y1126D02*
X431Y1126D01*
X449Y1126D02*
X481Y1126D01*
X710Y1126D02*
X739Y1126D01*
X760Y1126D02*
X791Y1126D01*
X860Y1126D02*
X892Y1126D01*
X912Y1126D02*
X930Y1126D01*
X965Y1126D02*
X972Y1126D01*
X0Y1125D02*
X7Y1125D01*
X398Y1125D02*
X404Y1125D01*
X425Y1125D02*
X431Y1125D01*
X450Y1125D02*
X482Y1125D01*
X710Y1125D02*
X740Y1125D01*
X760Y1125D02*
X792Y1125D01*
X860Y1125D02*
X866Y1125D01*
X885Y1125D02*
X893Y1125D01*
X924Y1125D02*
X930Y1125D01*
X965Y1125D02*
X972Y1125D01*
X0Y1124D02*
X7Y1124D01*
X398Y1124D02*
X404Y1124D01*
X425Y1124D02*
X431Y1124D01*
X476Y1124D02*
X482Y1124D01*
X710Y1124D02*
X741Y1124D01*
X760Y1124D02*
X793Y1124D01*
X860Y1124D02*
X866Y1124D01*
X886Y1124D02*
X893Y1124D01*
X924Y1124D02*
X930Y1124D01*
X965Y1124D02*
X972Y1124D01*
X0Y1123D02*
X7Y1123D01*
X398Y1123D02*
X404Y1123D01*
X425Y1123D02*
X431Y1123D01*
X476Y1123D02*
X482Y1123D01*
X710Y1123D02*
X742Y1123D01*
X760Y1123D02*
X793Y1123D01*
X860Y1123D02*
X866Y1123D01*
X887Y1123D02*
X893Y1123D01*
X924Y1123D02*
X930Y1123D01*
X965Y1123D02*
X972Y1123D01*
X0Y1122D02*
X7Y1122D01*
X398Y1122D02*
X404Y1122D01*
X425Y1122D02*
X431Y1122D01*
X476Y1122D02*
X482Y1122D01*
X710Y1122D02*
X742Y1122D01*
X761Y1122D02*
X793Y1122D01*
X860Y1122D02*
X866Y1122D01*
X887Y1122D02*
X893Y1122D01*
X924Y1122D02*
X930Y1122D01*
X965Y1122D02*
X972Y1122D01*
X0Y1121D02*
X7Y1121D01*
X398Y1121D02*
X404Y1121D01*
X425Y1121D02*
X431Y1121D01*
X476Y1121D02*
X482Y1121D01*
X710Y1121D02*
X716Y1121D01*
X735Y1121D02*
X743Y1121D01*
X787Y1121D02*
X794Y1121D01*
X860Y1121D02*
X866Y1121D01*
X887Y1121D02*
X893Y1121D01*
X924Y1121D02*
X930Y1121D01*
X965Y1121D02*
X972Y1121D01*
X0Y1120D02*
X7Y1120D01*
X398Y1120D02*
X404Y1120D01*
X425Y1120D02*
X431Y1120D01*
X476Y1120D02*
X482Y1120D01*
X710Y1120D02*
X716Y1120D01*
X736Y1120D02*
X743Y1120D01*
X787Y1120D02*
X794Y1120D01*
X860Y1120D02*
X866Y1120D01*
X887Y1120D02*
X893Y1120D01*
X924Y1120D02*
X930Y1120D01*
X965Y1120D02*
X972Y1120D01*
X0Y1119D02*
X7Y1119D01*
X398Y1119D02*
X404Y1119D01*
X425Y1119D02*
X431Y1119D01*
X476Y1119D02*
X482Y1119D01*
X710Y1119D02*
X716Y1119D01*
X737Y1119D02*
X743Y1119D01*
X787Y1119D02*
X794Y1119D01*
X860Y1119D02*
X866Y1119D01*
X887Y1119D02*
X893Y1119D01*
X924Y1119D02*
X930Y1119D01*
X965Y1119D02*
X972Y1119D01*
X0Y1118D02*
X7Y1118D01*
X398Y1118D02*
X404Y1118D01*
X425Y1118D02*
X431Y1118D01*
X476Y1118D02*
X482Y1118D01*
X710Y1118D02*
X716Y1118D01*
X737Y1118D02*
X743Y1118D01*
X787Y1118D02*
X794Y1118D01*
X860Y1118D02*
X866Y1118D01*
X887Y1118D02*
X893Y1118D01*
X924Y1118D02*
X930Y1118D01*
X965Y1118D02*
X972Y1118D01*
X0Y1117D02*
X7Y1117D01*
X398Y1117D02*
X404Y1117D01*
X425Y1117D02*
X431Y1117D01*
X476Y1117D02*
X482Y1117D01*
X710Y1117D02*
X716Y1117D01*
X737Y1117D02*
X743Y1117D01*
X787Y1117D02*
X794Y1117D01*
X860Y1117D02*
X866Y1117D01*
X887Y1117D02*
X893Y1117D01*
X924Y1117D02*
X930Y1117D01*
X965Y1117D02*
X972Y1117D01*
X0Y1116D02*
X7Y1116D01*
X398Y1116D02*
X404Y1116D01*
X425Y1116D02*
X431Y1116D01*
X476Y1116D02*
X482Y1116D01*
X710Y1116D02*
X716Y1116D01*
X737Y1116D02*
X743Y1116D01*
X787Y1116D02*
X794Y1116D01*
X860Y1116D02*
X866Y1116D01*
X886Y1116D02*
X893Y1116D01*
X924Y1116D02*
X930Y1116D01*
X965Y1116D02*
X972Y1116D01*
X0Y1115D02*
X7Y1115D01*
X398Y1115D02*
X404Y1115D01*
X425Y1115D02*
X431Y1115D01*
X476Y1115D02*
X482Y1115D01*
X710Y1115D02*
X716Y1115D01*
X737Y1115D02*
X743Y1115D01*
X787Y1115D02*
X794Y1115D01*
X860Y1115D02*
X866Y1115D01*
X885Y1115D02*
X893Y1115D01*
X924Y1115D02*
X930Y1115D01*
X965Y1115D02*
X972Y1115D01*
X0Y1114D02*
X7Y1114D01*
X398Y1114D02*
X404Y1114D01*
X425Y1114D02*
X431Y1114D01*
X476Y1114D02*
X482Y1114D01*
X710Y1114D02*
X716Y1114D01*
X737Y1114D02*
X743Y1114D01*
X787Y1114D02*
X794Y1114D01*
X860Y1114D02*
X892Y1114D01*
X924Y1114D02*
X930Y1114D01*
X965Y1114D02*
X972Y1114D01*
X0Y1113D02*
X7Y1113D01*
X398Y1113D02*
X404Y1113D01*
X425Y1113D02*
X431Y1113D01*
X476Y1113D02*
X482Y1113D01*
X710Y1113D02*
X716Y1113D01*
X737Y1113D02*
X743Y1113D01*
X787Y1113D02*
X794Y1113D01*
X860Y1113D02*
X892Y1113D01*
X924Y1113D02*
X930Y1113D01*
X965Y1113D02*
X972Y1113D01*
X0Y1112D02*
X7Y1112D01*
X398Y1112D02*
X404Y1112D01*
X425Y1112D02*
X431Y1112D01*
X476Y1112D02*
X482Y1112D01*
X710Y1112D02*
X716Y1112D01*
X737Y1112D02*
X743Y1112D01*
X787Y1112D02*
X794Y1112D01*
X860Y1112D02*
X891Y1112D01*
X924Y1112D02*
X930Y1112D01*
X965Y1112D02*
X972Y1112D01*
X0Y1111D02*
X7Y1111D01*
X398Y1111D02*
X404Y1111D01*
X425Y1111D02*
X431Y1111D01*
X476Y1111D02*
X482Y1111D01*
X710Y1111D02*
X716Y1111D01*
X735Y1111D02*
X743Y1111D01*
X787Y1111D02*
X794Y1111D01*
X860Y1111D02*
X890Y1111D01*
X924Y1111D02*
X930Y1111D01*
X965Y1111D02*
X972Y1111D01*
X0Y1110D02*
X7Y1110D01*
X398Y1110D02*
X404Y1110D01*
X425Y1110D02*
X431Y1110D01*
X476Y1110D02*
X482Y1110D01*
X710Y1110D02*
X742Y1110D01*
X787Y1110D02*
X794Y1110D01*
X860Y1110D02*
X889Y1110D01*
X924Y1110D02*
X930Y1110D01*
X965Y1110D02*
X972Y1110D01*
X0Y1109D02*
X7Y1109D01*
X398Y1109D02*
X404Y1109D01*
X425Y1109D02*
X431Y1109D01*
X476Y1109D02*
X482Y1109D01*
X710Y1109D02*
X742Y1109D01*
X787Y1109D02*
X794Y1109D01*
X860Y1109D02*
X887Y1109D01*
X924Y1109D02*
X930Y1109D01*
X965Y1109D02*
X972Y1109D01*
X0Y1108D02*
X7Y1108D01*
X398Y1108D02*
X404Y1108D01*
X425Y1108D02*
X431Y1108D01*
X475Y1108D02*
X482Y1108D01*
X710Y1108D02*
X741Y1108D01*
X787Y1108D02*
X794Y1108D01*
X860Y1108D02*
X885Y1108D01*
X924Y1108D02*
X930Y1108D01*
X965Y1108D02*
X972Y1108D01*
X0Y1107D02*
X7Y1107D01*
X398Y1107D02*
X404Y1107D01*
X425Y1107D02*
X431Y1107D01*
X452Y1107D02*
X482Y1107D01*
X710Y1107D02*
X740Y1107D01*
X787Y1107D02*
X794Y1107D01*
X860Y1107D02*
X866Y1107D01*
X872Y1107D02*
X879Y1107D01*
X924Y1107D02*
X930Y1107D01*
X965Y1107D02*
X972Y1107D01*
X0Y1106D02*
X7Y1106D01*
X398Y1106D02*
X404Y1106D01*
X425Y1106D02*
X431Y1106D01*
X450Y1106D02*
X481Y1106D01*
X710Y1106D02*
X739Y1106D01*
X787Y1106D02*
X794Y1106D01*
X860Y1106D02*
X866Y1106D01*
X873Y1106D02*
X880Y1106D01*
X924Y1106D02*
X930Y1106D01*
X965Y1106D02*
X972Y1106D01*
X0Y1105D02*
X7Y1105D01*
X398Y1105D02*
X404Y1105D01*
X425Y1105D02*
X431Y1105D01*
X449Y1105D02*
X481Y1105D01*
X710Y1105D02*
X738Y1105D01*
X787Y1105D02*
X794Y1105D01*
X860Y1105D02*
X866Y1105D01*
X873Y1105D02*
X880Y1105D01*
X924Y1105D02*
X930Y1105D01*
X965Y1105D02*
X972Y1105D01*
X0Y1104D02*
X7Y1104D01*
X398Y1104D02*
X404Y1104D01*
X425Y1104D02*
X431Y1104D01*
X449Y1104D02*
X480Y1104D01*
X710Y1104D02*
X736Y1104D01*
X764Y1104D02*
X793Y1104D01*
X860Y1104D02*
X866Y1104D01*
X874Y1104D02*
X881Y1104D01*
X924Y1104D02*
X930Y1104D01*
X965Y1104D02*
X972Y1104D01*
X0Y1103D02*
X7Y1103D01*
X398Y1103D02*
X404Y1103D01*
X425Y1103D02*
X431Y1103D01*
X448Y1103D02*
X479Y1103D01*
X710Y1103D02*
X716Y1103D01*
X722Y1103D02*
X729Y1103D01*
X763Y1103D02*
X793Y1103D01*
X860Y1103D02*
X866Y1103D01*
X874Y1103D02*
X881Y1103D01*
X924Y1103D02*
X930Y1103D01*
X965Y1103D02*
X972Y1103D01*
X0Y1102D02*
X7Y1102D01*
X398Y1102D02*
X404Y1102D01*
X425Y1102D02*
X431Y1102D01*
X448Y1102D02*
X478Y1102D01*
X710Y1102D02*
X716Y1102D01*
X722Y1102D02*
X730Y1102D01*
X762Y1102D02*
X793Y1102D01*
X860Y1102D02*
X866Y1102D01*
X875Y1102D02*
X882Y1102D01*
X924Y1102D02*
X930Y1102D01*
X939Y1102D02*
X942Y1102D01*
X965Y1102D02*
X972Y1102D01*
X0Y1101D02*
X7Y1101D01*
X398Y1101D02*
X404Y1101D01*
X425Y1101D02*
X431Y1101D01*
X448Y1101D02*
X475Y1101D01*
X710Y1101D02*
X716Y1101D01*
X723Y1101D02*
X730Y1101D01*
X761Y1101D02*
X792Y1101D01*
X860Y1101D02*
X866Y1101D01*
X875Y1101D02*
X883Y1101D01*
X924Y1101D02*
X930Y1101D01*
X938Y1101D02*
X943Y1101D01*
X965Y1101D02*
X972Y1101D01*
X0Y1100D02*
X7Y1100D01*
X398Y1100D02*
X404Y1100D01*
X425Y1100D02*
X431Y1100D01*
X448Y1100D02*
X454Y1100D01*
X710Y1100D02*
X716Y1100D01*
X724Y1100D02*
X731Y1100D01*
X760Y1100D02*
X792Y1100D01*
X860Y1100D02*
X866Y1100D01*
X876Y1100D02*
X883Y1100D01*
X924Y1100D02*
X930Y1100D01*
X938Y1100D02*
X943Y1100D01*
X965Y1100D02*
X972Y1100D01*
X0Y1099D02*
X7Y1099D01*
X398Y1099D02*
X404Y1099D01*
X425Y1099D02*
X431Y1099D01*
X448Y1099D02*
X454Y1099D01*
X710Y1099D02*
X716Y1099D01*
X724Y1099D02*
X731Y1099D01*
X760Y1099D02*
X791Y1099D01*
X860Y1099D02*
X866Y1099D01*
X877Y1099D02*
X884Y1099D01*
X924Y1099D02*
X930Y1099D01*
X937Y1099D02*
X943Y1099D01*
X965Y1099D02*
X972Y1099D01*
X0Y1098D02*
X7Y1098D01*
X398Y1098D02*
X404Y1098D01*
X425Y1098D02*
X431Y1098D01*
X448Y1098D02*
X454Y1098D01*
X710Y1098D02*
X716Y1098D01*
X725Y1098D02*
X732Y1098D01*
X760Y1098D02*
X789Y1098D01*
X860Y1098D02*
X866Y1098D01*
X877Y1098D02*
X884Y1098D01*
X924Y1098D02*
X930Y1098D01*
X937Y1098D02*
X943Y1098D01*
X965Y1098D02*
X972Y1098D01*
X0Y1097D02*
X7Y1097D01*
X398Y1097D02*
X404Y1097D01*
X425Y1097D02*
X431Y1097D01*
X448Y1097D02*
X454Y1097D01*
X710Y1097D02*
X716Y1097D01*
X725Y1097D02*
X733Y1097D01*
X760Y1097D02*
X766Y1097D01*
X860Y1097D02*
X866Y1097D01*
X878Y1097D02*
X885Y1097D01*
X924Y1097D02*
X930Y1097D01*
X937Y1097D02*
X943Y1097D01*
X965Y1097D02*
X972Y1097D01*
X0Y1096D02*
X7Y1096D01*
X398Y1096D02*
X404Y1096D01*
X425Y1096D02*
X431Y1096D01*
X448Y1096D02*
X454Y1096D01*
X710Y1096D02*
X716Y1096D01*
X726Y1096D02*
X733Y1096D01*
X760Y1096D02*
X766Y1096D01*
X860Y1096D02*
X866Y1096D01*
X878Y1096D02*
X886Y1096D01*
X924Y1096D02*
X930Y1096D01*
X937Y1096D02*
X943Y1096D01*
X965Y1096D02*
X972Y1096D01*
X0Y1095D02*
X7Y1095D01*
X398Y1095D02*
X404Y1095D01*
X425Y1095D02*
X431Y1095D01*
X448Y1095D02*
X454Y1095D01*
X710Y1095D02*
X716Y1095D01*
X727Y1095D02*
X734Y1095D01*
X760Y1095D02*
X766Y1095D01*
X860Y1095D02*
X866Y1095D01*
X879Y1095D02*
X886Y1095D01*
X924Y1095D02*
X930Y1095D01*
X937Y1095D02*
X943Y1095D01*
X965Y1095D02*
X972Y1095D01*
X0Y1094D02*
X7Y1094D01*
X398Y1094D02*
X404Y1094D01*
X425Y1094D02*
X431Y1094D01*
X448Y1094D02*
X454Y1094D01*
X710Y1094D02*
X716Y1094D01*
X727Y1094D02*
X734Y1094D01*
X760Y1094D02*
X766Y1094D01*
X860Y1094D02*
X866Y1094D01*
X880Y1094D02*
X887Y1094D01*
X924Y1094D02*
X930Y1094D01*
X937Y1094D02*
X943Y1094D01*
X965Y1094D02*
X972Y1094D01*
X0Y1093D02*
X7Y1093D01*
X398Y1093D02*
X404Y1093D01*
X425Y1093D02*
X431Y1093D01*
X448Y1093D02*
X454Y1093D01*
X710Y1093D02*
X716Y1093D01*
X728Y1093D02*
X735Y1093D01*
X760Y1093D02*
X766Y1093D01*
X860Y1093D02*
X866Y1093D01*
X880Y1093D02*
X887Y1093D01*
X924Y1093D02*
X930Y1093D01*
X937Y1093D02*
X943Y1093D01*
X965Y1093D02*
X972Y1093D01*
X0Y1092D02*
X7Y1092D01*
X398Y1092D02*
X404Y1092D01*
X425Y1092D02*
X431Y1092D01*
X448Y1092D02*
X454Y1092D01*
X710Y1092D02*
X716Y1092D01*
X728Y1092D02*
X735Y1092D01*
X760Y1092D02*
X766Y1092D01*
X860Y1092D02*
X866Y1092D01*
X881Y1092D02*
X888Y1092D01*
X924Y1092D02*
X930Y1092D01*
X937Y1092D02*
X943Y1092D01*
X965Y1092D02*
X972Y1092D01*
X0Y1091D02*
X7Y1091D01*
X398Y1091D02*
X404Y1091D01*
X425Y1091D02*
X431Y1091D01*
X448Y1091D02*
X454Y1091D01*
X710Y1091D02*
X716Y1091D01*
X729Y1091D02*
X736Y1091D01*
X760Y1091D02*
X766Y1091D01*
X860Y1091D02*
X866Y1091D01*
X881Y1091D02*
X888Y1091D01*
X924Y1091D02*
X930Y1091D01*
X937Y1091D02*
X943Y1091D01*
X965Y1091D02*
X972Y1091D01*
X0Y1090D02*
X7Y1090D01*
X398Y1090D02*
X404Y1090D01*
X425Y1090D02*
X431Y1090D01*
X448Y1090D02*
X454Y1090D01*
X710Y1090D02*
X716Y1090D01*
X729Y1090D02*
X737Y1090D01*
X760Y1090D02*
X766Y1090D01*
X860Y1090D02*
X866Y1090D01*
X882Y1090D02*
X889Y1090D01*
X924Y1090D02*
X930Y1090D01*
X937Y1090D02*
X943Y1090D01*
X965Y1090D02*
X972Y1090D01*
X0Y1089D02*
X7Y1089D01*
X398Y1089D02*
X404Y1089D01*
X425Y1089D02*
X431Y1089D01*
X448Y1089D02*
X454Y1089D01*
X710Y1089D02*
X716Y1089D01*
X730Y1089D02*
X737Y1089D01*
X760Y1089D02*
X766Y1089D01*
X860Y1089D02*
X866Y1089D01*
X882Y1089D02*
X890Y1089D01*
X924Y1089D02*
X930Y1089D01*
X937Y1089D02*
X943Y1089D01*
X965Y1089D02*
X972Y1089D01*
X0Y1088D02*
X7Y1088D01*
X398Y1088D02*
X404Y1088D01*
X425Y1088D02*
X431Y1088D01*
X448Y1088D02*
X454Y1088D01*
X710Y1088D02*
X716Y1088D01*
X731Y1088D02*
X738Y1088D01*
X760Y1088D02*
X766Y1088D01*
X860Y1088D02*
X866Y1088D01*
X883Y1088D02*
X890Y1088D01*
X924Y1088D02*
X930Y1088D01*
X937Y1088D02*
X943Y1088D01*
X965Y1088D02*
X972Y1088D01*
X0Y1087D02*
X7Y1087D01*
X398Y1087D02*
X404Y1087D01*
X425Y1087D02*
X431Y1087D01*
X448Y1087D02*
X454Y1087D01*
X710Y1087D02*
X716Y1087D01*
X731Y1087D02*
X738Y1087D01*
X760Y1087D02*
X766Y1087D01*
X860Y1087D02*
X866Y1087D01*
X884Y1087D02*
X891Y1087D01*
X924Y1087D02*
X930Y1087D01*
X937Y1087D02*
X943Y1087D01*
X965Y1087D02*
X972Y1087D01*
X0Y1086D02*
X7Y1086D01*
X398Y1086D02*
X404Y1086D01*
X425Y1086D02*
X431Y1086D01*
X448Y1086D02*
X454Y1086D01*
X710Y1086D02*
X716Y1086D01*
X732Y1086D02*
X739Y1086D01*
X760Y1086D02*
X766Y1086D01*
X860Y1086D02*
X866Y1086D01*
X884Y1086D02*
X891Y1086D01*
X924Y1086D02*
X930Y1086D01*
X937Y1086D02*
X943Y1086D01*
X965Y1086D02*
X972Y1086D01*
X0Y1085D02*
X7Y1085D01*
X398Y1085D02*
X405Y1085D01*
X424Y1085D02*
X431Y1085D01*
X448Y1085D02*
X454Y1085D01*
X710Y1085D02*
X716Y1085D01*
X732Y1085D02*
X740Y1085D01*
X760Y1085D02*
X766Y1085D01*
X860Y1085D02*
X866Y1085D01*
X885Y1085D02*
X892Y1085D01*
X912Y1085D02*
X943Y1085D01*
X965Y1085D02*
X972Y1085D01*
X0Y1084D02*
X7Y1084D01*
X399Y1084D02*
X431Y1084D01*
X448Y1084D02*
X479Y1084D01*
X710Y1084D02*
X716Y1084D01*
X733Y1084D02*
X740Y1084D01*
X760Y1084D02*
X766Y1084D01*
X860Y1084D02*
X866Y1084D01*
X885Y1084D02*
X893Y1084D01*
X911Y1084D02*
X943Y1084D01*
X965Y1084D02*
X972Y1084D01*
X0Y1083D02*
X7Y1083D01*
X399Y1083D02*
X430Y1083D01*
X448Y1083D02*
X481Y1083D01*
X710Y1083D02*
X716Y1083D01*
X734Y1083D02*
X741Y1083D01*
X760Y1083D02*
X766Y1083D01*
X860Y1083D02*
X866Y1083D01*
X886Y1083D02*
X893Y1083D01*
X910Y1083D02*
X943Y1083D01*
X965Y1083D02*
X972Y1083D01*
X0Y1082D02*
X7Y1082D01*
X400Y1082D02*
X430Y1082D01*
X448Y1082D02*
X481Y1082D01*
X710Y1082D02*
X716Y1082D01*
X734Y1082D02*
X741Y1082D01*
X760Y1082D02*
X766Y1082D01*
X860Y1082D02*
X866Y1082D01*
X887Y1082D02*
X893Y1082D01*
X910Y1082D02*
X943Y1082D01*
X965Y1082D02*
X972Y1082D01*
X0Y1081D02*
X7Y1081D01*
X400Y1081D02*
X429Y1081D01*
X448Y1081D02*
X482Y1081D01*
X710Y1081D02*
X716Y1081D01*
X735Y1081D02*
X742Y1081D01*
X760Y1081D02*
X790Y1081D01*
X860Y1081D02*
X866Y1081D01*
X887Y1081D02*
X893Y1081D01*
X910Y1081D02*
X943Y1081D01*
X965Y1081D02*
X972Y1081D01*
X0Y1080D02*
X7Y1080D01*
X401Y1080D02*
X428Y1080D01*
X448Y1080D02*
X481Y1080D01*
X710Y1080D02*
X716Y1080D01*
X735Y1080D02*
X742Y1080D01*
X760Y1080D02*
X792Y1080D01*
X860Y1080D02*
X865Y1080D01*
X888Y1080D02*
X893Y1080D01*
X910Y1080D02*
X943Y1080D01*
X965Y1080D02*
X972Y1080D01*
X0Y1079D02*
X7Y1079D01*
X403Y1079D02*
X427Y1079D01*
X448Y1079D02*
X481Y1079D01*
X710Y1079D02*
X716Y1079D01*
X736Y1079D02*
X743Y1079D01*
X760Y1079D02*
X793Y1079D01*
X861Y1079D02*
X864Y1079D01*
X889Y1079D02*
X892Y1079D01*
X911Y1079D02*
X942Y1079D01*
X965Y1079D02*
X972Y1079D01*
X0Y1078D02*
X7Y1078D01*
X405Y1078D02*
X425Y1078D01*
X448Y1078D02*
X480Y1078D01*
X710Y1078D02*
X716Y1078D01*
X736Y1078D02*
X743Y1078D01*
X760Y1078D02*
X793Y1078D01*
X965Y1078D02*
X972Y1078D01*
X0Y1077D02*
X7Y1077D01*
X710Y1077D02*
X716Y1077D01*
X737Y1077D02*
X743Y1077D01*
X760Y1077D02*
X793Y1077D01*
X965Y1077D02*
X972Y1077D01*
X0Y1076D02*
X7Y1076D01*
X710Y1076D02*
X715Y1076D01*
X738Y1076D02*
X743Y1076D01*
X760Y1076D02*
X793Y1076D01*
X965Y1076D02*
X972Y1076D01*
X0Y1075D02*
X7Y1075D01*
X711Y1075D02*
X715Y1075D01*
X739Y1075D02*
X742Y1075D01*
X760Y1075D02*
X792Y1075D01*
X965Y1075D02*
X972Y1075D01*
X0Y1074D02*
X7Y1074D01*
X965Y1074D02*
X972Y1074D01*
X0Y1073D02*
X7Y1073D01*
X965Y1073D02*
X972Y1073D01*
X0Y1072D02*
X7Y1072D01*
X965Y1072D02*
X972Y1072D01*
X0Y1071D02*
X7Y1071D01*
X965Y1071D02*
X972Y1071D01*
X0Y1070D02*
X7Y1070D01*
X965Y1070D02*
X972Y1070D01*
X0Y1069D02*
X7Y1069D01*
X965Y1069D02*
X972Y1069D01*
X0Y1068D02*
X7Y1068D01*
X965Y1068D02*
X972Y1068D01*
X0Y1067D02*
X7Y1067D01*
X965Y1067D02*
X972Y1067D01*
X0Y1066D02*
X7Y1066D01*
X965Y1066D02*
X972Y1066D01*
X0Y1065D02*
X7Y1065D01*
X965Y1065D02*
X972Y1065D01*
X0Y1064D02*
X7Y1064D01*
X965Y1064D02*
X972Y1064D01*
X0Y1063D02*
X7Y1063D01*
X965Y1063D02*
X972Y1063D01*
X0Y1062D02*
X7Y1062D01*
X965Y1062D02*
X972Y1062D01*
X0Y1061D02*
X7Y1061D01*
X965Y1061D02*
X972Y1061D01*
X0Y1060D02*
X7Y1060D01*
X965Y1060D02*
X972Y1060D01*
X0Y1059D02*
X7Y1059D01*
X965Y1059D02*
X972Y1059D01*
X0Y1058D02*
X7Y1058D01*
X965Y1058D02*
X972Y1058D01*
X0Y1057D02*
X7Y1057D01*
X965Y1057D02*
X972Y1057D01*
X0Y1056D02*
X7Y1056D01*
X965Y1056D02*
X972Y1056D01*
X0Y1055D02*
X7Y1055D01*
X965Y1055D02*
X972Y1055D01*
X0Y1054D02*
X7Y1054D01*
X965Y1054D02*
X972Y1054D01*
X0Y1053D02*
X7Y1053D01*
X965Y1053D02*
X972Y1053D01*
X0Y1052D02*
X7Y1052D01*
X965Y1052D02*
X972Y1052D01*
X0Y1051D02*
X7Y1051D01*
X965Y1051D02*
X972Y1051D01*
X0Y1050D02*
X7Y1050D01*
X965Y1050D02*
X972Y1050D01*
X0Y1049D02*
X7Y1049D01*
X965Y1049D02*
X972Y1049D01*
X0Y1048D02*
X7Y1048D01*
X965Y1048D02*
X972Y1048D01*
X0Y1047D02*
X7Y1047D01*
X965Y1047D02*
X972Y1047D01*
X0Y1046D02*
X7Y1046D01*
X965Y1046D02*
X972Y1046D01*
X0Y1045D02*
X7Y1045D01*
X965Y1045D02*
X972Y1045D01*
X0Y1044D02*
X7Y1044D01*
X965Y1044D02*
X972Y1044D01*
X0Y1043D02*
X7Y1043D01*
X965Y1043D02*
X972Y1043D01*
X0Y1042D02*
X7Y1042D01*
X965Y1042D02*
X972Y1042D01*
X0Y1041D02*
X7Y1041D01*
X965Y1041D02*
X972Y1041D01*
X0Y1040D02*
X7Y1040D01*
X965Y1040D02*
X972Y1040D01*
X0Y1039D02*
X7Y1039D01*
X965Y1039D02*
X972Y1039D01*
X0Y1038D02*
X7Y1038D01*
X965Y1038D02*
X972Y1038D01*
X0Y1037D02*
X7Y1037D01*
X965Y1037D02*
X972Y1037D01*
X0Y1036D02*
X7Y1036D01*
X965Y1036D02*
X972Y1036D01*
X0Y1035D02*
X7Y1035D01*
X965Y1035D02*
X972Y1035D01*
X0Y1034D02*
X7Y1034D01*
X965Y1034D02*
X972Y1034D01*
X0Y1033D02*
X7Y1033D01*
X965Y1033D02*
X972Y1033D01*
X0Y1032D02*
X7Y1032D01*
X965Y1032D02*
X972Y1032D01*
X0Y1031D02*
X7Y1031D01*
X965Y1031D02*
X972Y1031D01*
X0Y1030D02*
X7Y1030D01*
X965Y1030D02*
X972Y1030D01*
X0Y1029D02*
X7Y1029D01*
X965Y1029D02*
X972Y1029D01*
X0Y1028D02*
X7Y1028D01*
X965Y1028D02*
X972Y1028D01*
X0Y1027D02*
X7Y1027D01*
X965Y1027D02*
X972Y1027D01*
X0Y1026D02*
X7Y1026D01*
X965Y1026D02*
X972Y1026D01*
X0Y1025D02*
X7Y1025D01*
X965Y1025D02*
X972Y1025D01*
X0Y1024D02*
X7Y1024D01*
X965Y1024D02*
X972Y1024D01*
X0Y1023D02*
X7Y1023D01*
X965Y1023D02*
X972Y1023D01*
X0Y1022D02*
X7Y1022D01*
X965Y1022D02*
X972Y1022D01*
X0Y1021D02*
X7Y1021D01*
X965Y1021D02*
X972Y1021D01*
X0Y1020D02*
X7Y1020D01*
X965Y1020D02*
X972Y1020D01*
X0Y1019D02*
X7Y1019D01*
X965Y1019D02*
X972Y1019D01*
X0Y1018D02*
X7Y1018D01*
X965Y1018D02*
X972Y1018D01*
X0Y1017D02*
X7Y1017D01*
X965Y1017D02*
X972Y1017D01*
X0Y1016D02*
X7Y1016D01*
X965Y1016D02*
X972Y1016D01*
X0Y1015D02*
X7Y1015D01*
X965Y1015D02*
X972Y1015D01*
X0Y1014D02*
X7Y1014D01*
X965Y1014D02*
X972Y1014D01*
X0Y1013D02*
X7Y1013D01*
X965Y1013D02*
X972Y1013D01*
X0Y1012D02*
X7Y1012D01*
X965Y1012D02*
X972Y1012D01*
X0Y1011D02*
X7Y1011D01*
X965Y1011D02*
X972Y1011D01*
X0Y1010D02*
X7Y1010D01*
X965Y1010D02*
X972Y1010D01*
X0Y1009D02*
X7Y1009D01*
X965Y1009D02*
X972Y1009D01*
X0Y1008D02*
X7Y1008D01*
X965Y1008D02*
X972Y1008D01*
X0Y1007D02*
X7Y1007D01*
X965Y1007D02*
X972Y1007D01*
X0Y1006D02*
X7Y1006D01*
X965Y1006D02*
X972Y1006D01*
X0Y1005D02*
X7Y1005D01*
X965Y1005D02*
X972Y1005D01*
X0Y1004D02*
X7Y1004D01*
X965Y1004D02*
X972Y1004D01*
X0Y1003D02*
X7Y1003D01*
X965Y1003D02*
X972Y1003D01*
X0Y1002D02*
X7Y1002D01*
X965Y1002D02*
X972Y1002D01*
X0Y1001D02*
X7Y1001D01*
X965Y1001D02*
X972Y1001D01*
X0Y1000D02*
X7Y1000D01*
X965Y1000D02*
X972Y1000D01*
X0Y999D02*
X7Y999D01*
X965Y999D02*
X972Y999D01*
X0Y998D02*
X7Y998D01*
X965Y998D02*
X972Y998D01*
X0Y997D02*
X7Y997D01*
X965Y997D02*
X972Y997D01*
X0Y996D02*
X7Y996D01*
X965Y996D02*
X972Y996D01*
X0Y995D02*
X7Y995D01*
X965Y995D02*
X972Y995D01*
X0Y994D02*
X7Y994D01*
X965Y994D02*
X972Y994D01*
X0Y993D02*
X7Y993D01*
X965Y993D02*
X972Y993D01*
X0Y992D02*
X7Y992D01*
X965Y992D02*
X972Y992D01*
X0Y991D02*
X7Y991D01*
X965Y991D02*
X972Y991D01*
X0Y990D02*
X7Y990D01*
X965Y990D02*
X972Y990D01*
X0Y989D02*
X7Y989D01*
X965Y989D02*
X972Y989D01*
X0Y988D02*
X7Y988D01*
X965Y988D02*
X972Y988D01*
X0Y987D02*
X7Y987D01*
X965Y987D02*
X972Y987D01*
X0Y986D02*
X7Y986D01*
X965Y986D02*
X972Y986D01*
X0Y985D02*
X7Y985D01*
X965Y985D02*
X972Y985D01*
X0Y984D02*
X7Y984D01*
X965Y984D02*
X972Y984D01*
X0Y983D02*
X7Y983D01*
X965Y983D02*
X972Y983D01*
X0Y982D02*
X7Y982D01*
X965Y982D02*
X972Y982D01*
X0Y981D02*
X7Y981D01*
X965Y981D02*
X972Y981D01*
X0Y980D02*
X7Y980D01*
X965Y980D02*
X972Y980D01*
X0Y979D02*
X7Y979D01*
X965Y979D02*
X972Y979D01*
X0Y978D02*
X7Y978D01*
X965Y978D02*
X972Y978D01*
X0Y977D02*
X7Y977D01*
X965Y977D02*
X972Y977D01*
X0Y976D02*
X7Y976D01*
X965Y976D02*
X972Y976D01*
X0Y975D02*
X7Y975D01*
X965Y975D02*
X972Y975D01*
X0Y974D02*
X7Y974D01*
X965Y974D02*
X972Y974D01*
X0Y973D02*
X7Y973D01*
X965Y973D02*
X972Y973D01*
X0Y972D02*
X7Y972D01*
X965Y972D02*
X972Y972D01*
X0Y971D02*
X7Y971D01*
X965Y971D02*
X972Y971D01*
X0Y970D02*
X7Y970D01*
X965Y970D02*
X972Y970D01*
X0Y969D02*
X7Y969D01*
X965Y969D02*
X972Y969D01*
X0Y968D02*
X7Y968D01*
X965Y968D02*
X972Y968D01*
X0Y967D02*
X7Y967D01*
X965Y967D02*
X972Y967D01*
X0Y966D02*
X7Y966D01*
X965Y966D02*
X972Y966D01*
X0Y965D02*
X7Y965D01*
X965Y965D02*
X972Y965D01*
X0Y964D02*
X7Y964D01*
X965Y964D02*
X972Y964D01*
X0Y963D02*
X7Y963D01*
X965Y963D02*
X972Y963D01*
X0Y962D02*
X7Y962D01*
X965Y962D02*
X972Y962D01*
X0Y961D02*
X7Y961D01*
X965Y961D02*
X972Y961D01*
X0Y960D02*
X7Y960D01*
X965Y960D02*
X972Y960D01*
X0Y959D02*
X7Y959D01*
X965Y959D02*
X972Y959D01*
X0Y958D02*
X7Y958D01*
X965Y958D02*
X972Y958D01*
X0Y957D02*
X7Y957D01*
X965Y957D02*
X972Y957D01*
X0Y956D02*
X7Y956D01*
X965Y956D02*
X972Y956D01*
X0Y955D02*
X7Y955D01*
X965Y955D02*
X972Y955D01*
X0Y954D02*
X7Y954D01*
X965Y954D02*
X972Y954D01*
X0Y953D02*
X7Y953D01*
X965Y953D02*
X972Y953D01*
X0Y952D02*
X7Y952D01*
X965Y952D02*
X972Y952D01*
X0Y951D02*
X7Y951D01*
X965Y951D02*
X972Y951D01*
X0Y950D02*
X7Y950D01*
X965Y950D02*
X972Y950D01*
X0Y949D02*
X7Y949D01*
X965Y949D02*
X972Y949D01*
X0Y948D02*
X7Y948D01*
X965Y948D02*
X972Y948D01*
X0Y947D02*
X7Y947D01*
X965Y947D02*
X972Y947D01*
X0Y946D02*
X7Y946D01*
X965Y946D02*
X972Y946D01*
X0Y945D02*
X7Y945D01*
X965Y945D02*
X972Y945D01*
X0Y944D02*
X7Y944D01*
X965Y944D02*
X972Y944D01*
X0Y943D02*
X7Y943D01*
X965Y943D02*
X972Y943D01*
X0Y942D02*
X7Y942D01*
X965Y942D02*
X972Y942D01*
X0Y941D02*
X7Y941D01*
X965Y941D02*
X972Y941D01*
X0Y940D02*
X7Y940D01*
X965Y940D02*
X972Y940D01*
X0Y939D02*
X7Y939D01*
X965Y939D02*
X972Y939D01*
X0Y938D02*
X7Y938D01*
X965Y938D02*
X972Y938D01*
X0Y937D02*
X7Y937D01*
X965Y937D02*
X972Y937D01*
X0Y936D02*
X7Y936D01*
X965Y936D02*
X972Y936D01*
X0Y935D02*
X7Y935D01*
X965Y935D02*
X972Y935D01*
X0Y934D02*
X7Y934D01*
X965Y934D02*
X972Y934D01*
X0Y933D02*
X7Y933D01*
X965Y933D02*
X972Y933D01*
X0Y932D02*
X7Y932D01*
X965Y932D02*
X972Y932D01*
X0Y931D02*
X7Y931D01*
X965Y931D02*
X972Y931D01*
X0Y930D02*
X7Y930D01*
X965Y930D02*
X972Y930D01*
X0Y929D02*
X7Y929D01*
X965Y929D02*
X972Y929D01*
X0Y928D02*
X7Y928D01*
X729Y928D02*
X731Y928D01*
X736Y928D02*
X738Y928D01*
X879Y928D02*
X881Y928D01*
X886Y928D02*
X888Y928D01*
X965Y928D02*
X972Y928D01*
X0Y927D02*
X7Y927D01*
X729Y927D02*
X738Y927D01*
X879Y927D02*
X888Y927D01*
X965Y927D02*
X972Y927D01*
X0Y926D02*
X7Y926D01*
X729Y926D02*
X738Y926D01*
X879Y926D02*
X888Y926D01*
X965Y926D02*
X972Y926D01*
X0Y925D02*
X7Y925D01*
X729Y925D02*
X738Y925D01*
X879Y925D02*
X888Y925D01*
X965Y925D02*
X972Y925D01*
X0Y924D02*
X7Y924D01*
X729Y924D02*
X738Y924D01*
X879Y924D02*
X888Y924D01*
X965Y924D02*
X972Y924D01*
X0Y923D02*
X7Y923D01*
X729Y923D02*
X738Y923D01*
X879Y923D02*
X888Y923D01*
X965Y923D02*
X972Y923D01*
X0Y922D02*
X7Y922D01*
X729Y922D02*
X738Y922D01*
X879Y922D02*
X888Y922D01*
X965Y922D02*
X972Y922D01*
X0Y921D02*
X7Y921D01*
X729Y921D02*
X738Y921D01*
X879Y921D02*
X888Y921D01*
X965Y921D02*
X972Y921D01*
X0Y920D02*
X7Y920D01*
X729Y920D02*
X738Y920D01*
X879Y920D02*
X888Y920D01*
X965Y920D02*
X972Y920D01*
X0Y919D02*
X7Y919D01*
X729Y919D02*
X738Y919D01*
X879Y919D02*
X888Y919D01*
X965Y919D02*
X972Y919D01*
X0Y918D02*
X7Y918D01*
X729Y918D02*
X738Y918D01*
X879Y918D02*
X888Y918D01*
X965Y918D02*
X972Y918D01*
X0Y917D02*
X7Y917D01*
X729Y917D02*
X738Y917D01*
X879Y917D02*
X888Y917D01*
X965Y917D02*
X972Y917D01*
X0Y916D02*
X7Y916D01*
X729Y916D02*
X738Y916D01*
X879Y916D02*
X888Y916D01*
X965Y916D02*
X972Y916D01*
X0Y915D02*
X7Y915D01*
X729Y915D02*
X738Y915D01*
X879Y915D02*
X888Y915D01*
X965Y915D02*
X972Y915D01*
X0Y914D02*
X7Y914D01*
X729Y914D02*
X738Y914D01*
X879Y914D02*
X888Y914D01*
X965Y914D02*
X972Y914D01*
X0Y913D02*
X7Y913D01*
X729Y913D02*
X738Y913D01*
X879Y913D02*
X888Y913D01*
X965Y913D02*
X972Y913D01*
X0Y912D02*
X7Y912D01*
X729Y912D02*
X738Y912D01*
X879Y912D02*
X888Y912D01*
X965Y912D02*
X972Y912D01*
X0Y911D02*
X7Y911D01*
X729Y911D02*
X738Y911D01*
X879Y911D02*
X888Y911D01*
X965Y911D02*
X972Y911D01*
X0Y910D02*
X7Y910D01*
X729Y910D02*
X738Y910D01*
X879Y910D02*
X888Y910D01*
X965Y910D02*
X972Y910D01*
X0Y909D02*
X7Y909D01*
X729Y909D02*
X738Y909D01*
X879Y909D02*
X888Y909D01*
X965Y909D02*
X972Y909D01*
X0Y908D02*
X7Y908D01*
X729Y908D02*
X738Y908D01*
X879Y908D02*
X888Y908D01*
X965Y908D02*
X972Y908D01*
X0Y907D02*
X7Y907D01*
X729Y907D02*
X738Y907D01*
X879Y907D02*
X888Y907D01*
X965Y907D02*
X972Y907D01*
X0Y906D02*
X7Y906D01*
X729Y906D02*
X738Y906D01*
X879Y906D02*
X888Y906D01*
X965Y906D02*
X972Y906D01*
X0Y905D02*
X7Y905D01*
X729Y905D02*
X738Y905D01*
X879Y905D02*
X888Y905D01*
X965Y905D02*
X972Y905D01*
X0Y904D02*
X7Y904D01*
X729Y904D02*
X738Y904D01*
X879Y904D02*
X888Y904D01*
X965Y904D02*
X972Y904D01*
X0Y903D02*
X7Y903D01*
X729Y903D02*
X738Y903D01*
X879Y903D02*
X888Y903D01*
X965Y903D02*
X972Y903D01*
X0Y902D02*
X7Y902D01*
X729Y902D02*
X738Y902D01*
X879Y902D02*
X888Y902D01*
X965Y902D02*
X972Y902D01*
X0Y901D02*
X7Y901D01*
X729Y901D02*
X738Y901D01*
X879Y901D02*
X888Y901D01*
X965Y901D02*
X972Y901D01*
X0Y900D02*
X7Y900D01*
X729Y900D02*
X738Y900D01*
X879Y900D02*
X888Y900D01*
X965Y900D02*
X972Y900D01*
X0Y899D02*
X7Y899D01*
X729Y899D02*
X738Y899D01*
X879Y899D02*
X888Y899D01*
X965Y899D02*
X972Y899D01*
X0Y898D02*
X7Y898D01*
X729Y898D02*
X738Y898D01*
X879Y898D02*
X888Y898D01*
X965Y898D02*
X972Y898D01*
X0Y897D02*
X7Y897D01*
X729Y897D02*
X738Y897D01*
X879Y897D02*
X888Y897D01*
X965Y897D02*
X972Y897D01*
X0Y896D02*
X7Y896D01*
X729Y896D02*
X738Y896D01*
X879Y896D02*
X888Y896D01*
X965Y896D02*
X972Y896D01*
X0Y895D02*
X7Y895D01*
X729Y895D02*
X738Y895D01*
X879Y895D02*
X888Y895D01*
X965Y895D02*
X972Y895D01*
X0Y894D02*
X7Y894D01*
X729Y894D02*
X738Y894D01*
X879Y894D02*
X888Y894D01*
X965Y894D02*
X972Y894D01*
X0Y893D02*
X7Y893D01*
X729Y893D02*
X738Y893D01*
X879Y893D02*
X888Y893D01*
X965Y893D02*
X972Y893D01*
X0Y892D02*
X7Y892D01*
X729Y892D02*
X738Y892D01*
X879Y892D02*
X888Y892D01*
X965Y892D02*
X972Y892D01*
X0Y891D02*
X7Y891D01*
X729Y891D02*
X738Y891D01*
X879Y891D02*
X888Y891D01*
X965Y891D02*
X972Y891D01*
X0Y890D02*
X7Y890D01*
X729Y890D02*
X738Y890D01*
X879Y890D02*
X888Y890D01*
X965Y890D02*
X972Y890D01*
X0Y889D02*
X7Y889D01*
X729Y889D02*
X738Y889D01*
X879Y889D02*
X888Y889D01*
X965Y889D02*
X972Y889D01*
X0Y888D02*
X7Y888D01*
X729Y888D02*
X738Y888D01*
X879Y888D02*
X888Y888D01*
X965Y888D02*
X972Y888D01*
X0Y887D02*
X7Y887D01*
X729Y887D02*
X738Y887D01*
X879Y887D02*
X888Y887D01*
X965Y887D02*
X972Y887D01*
X0Y886D02*
X7Y886D01*
X729Y886D02*
X738Y886D01*
X879Y886D02*
X888Y886D01*
X965Y886D02*
X972Y886D01*
X0Y885D02*
X7Y885D01*
X729Y885D02*
X738Y885D01*
X879Y885D02*
X888Y885D01*
X965Y885D02*
X972Y885D01*
X0Y884D02*
X7Y884D01*
X729Y884D02*
X738Y884D01*
X879Y884D02*
X888Y884D01*
X965Y884D02*
X972Y884D01*
X0Y883D02*
X7Y883D01*
X729Y883D02*
X738Y883D01*
X879Y883D02*
X888Y883D01*
X965Y883D02*
X972Y883D01*
X0Y882D02*
X7Y882D01*
X729Y882D02*
X738Y882D01*
X879Y882D02*
X888Y882D01*
X965Y882D02*
X972Y882D01*
X0Y881D02*
X7Y881D01*
X729Y881D02*
X738Y881D01*
X879Y881D02*
X888Y881D01*
X965Y881D02*
X972Y881D01*
X0Y880D02*
X7Y880D01*
X729Y880D02*
X738Y880D01*
X879Y880D02*
X888Y880D01*
X965Y880D02*
X972Y880D01*
X0Y879D02*
X7Y879D01*
X729Y879D02*
X738Y879D01*
X879Y879D02*
X888Y879D01*
X965Y879D02*
X972Y879D01*
X0Y878D02*
X7Y878D01*
X729Y878D02*
X738Y878D01*
X879Y878D02*
X888Y878D01*
X965Y878D02*
X972Y878D01*
X0Y877D02*
X7Y877D01*
X729Y877D02*
X738Y877D01*
X879Y877D02*
X888Y877D01*
X965Y877D02*
X972Y877D01*
X0Y876D02*
X7Y876D01*
X729Y876D02*
X738Y876D01*
X879Y876D02*
X888Y876D01*
X965Y876D02*
X972Y876D01*
X0Y875D02*
X7Y875D01*
X729Y875D02*
X738Y875D01*
X879Y875D02*
X888Y875D01*
X965Y875D02*
X972Y875D01*
X0Y874D02*
X7Y874D01*
X729Y874D02*
X738Y874D01*
X879Y874D02*
X888Y874D01*
X965Y874D02*
X972Y874D01*
X0Y873D02*
X7Y873D01*
X729Y873D02*
X738Y873D01*
X879Y873D02*
X888Y873D01*
X965Y873D02*
X972Y873D01*
X0Y872D02*
X7Y872D01*
X729Y872D02*
X738Y872D01*
X879Y872D02*
X888Y872D01*
X965Y872D02*
X972Y872D01*
X0Y871D02*
X7Y871D01*
X729Y871D02*
X738Y871D01*
X879Y871D02*
X888Y871D01*
X965Y871D02*
X972Y871D01*
X0Y870D02*
X7Y870D01*
X729Y870D02*
X738Y870D01*
X879Y870D02*
X888Y870D01*
X965Y870D02*
X972Y870D01*
X0Y869D02*
X7Y869D01*
X729Y869D02*
X738Y869D01*
X879Y869D02*
X888Y869D01*
X965Y869D02*
X972Y869D01*
X0Y868D02*
X7Y868D01*
X729Y868D02*
X738Y868D01*
X879Y868D02*
X888Y868D01*
X965Y868D02*
X972Y868D01*
X0Y867D02*
X7Y867D01*
X729Y867D02*
X738Y867D01*
X879Y867D02*
X888Y867D01*
X965Y867D02*
X972Y867D01*
X0Y866D02*
X7Y866D01*
X729Y866D02*
X738Y866D01*
X879Y866D02*
X888Y866D01*
X965Y866D02*
X972Y866D01*
X0Y865D02*
X7Y865D01*
X729Y865D02*
X738Y865D01*
X879Y865D02*
X888Y865D01*
X965Y865D02*
X972Y865D01*
X0Y864D02*
X7Y864D01*
X729Y864D02*
X738Y864D01*
X879Y864D02*
X888Y864D01*
X965Y864D02*
X972Y864D01*
X0Y863D02*
X7Y863D01*
X729Y863D02*
X738Y863D01*
X879Y863D02*
X888Y863D01*
X965Y863D02*
X972Y863D01*
X0Y862D02*
X7Y862D01*
X729Y862D02*
X738Y862D01*
X879Y862D02*
X888Y862D01*
X965Y862D02*
X972Y862D01*
X0Y861D02*
X7Y861D01*
X729Y861D02*
X737Y861D01*
X879Y861D02*
X887Y861D01*
X965Y861D02*
X972Y861D01*
X0Y860D02*
X7Y860D01*
X965Y860D02*
X972Y860D01*
X0Y859D02*
X7Y859D01*
X965Y859D02*
X972Y859D01*
X0Y858D02*
X7Y858D01*
X965Y858D02*
X972Y858D01*
X0Y857D02*
X7Y857D01*
X965Y857D02*
X972Y857D01*
X0Y856D02*
X7Y856D01*
X965Y856D02*
X972Y856D01*
X0Y855D02*
X7Y855D01*
X965Y855D02*
X972Y855D01*
X0Y854D02*
X7Y854D01*
X965Y854D02*
X972Y854D01*
X0Y853D02*
X7Y853D01*
X965Y853D02*
X972Y853D01*
X0Y852D02*
X7Y852D01*
X965Y852D02*
X972Y852D01*
X0Y851D02*
X7Y851D01*
X965Y851D02*
X972Y851D01*
X0Y850D02*
X7Y850D01*
X965Y850D02*
X972Y850D01*
X0Y849D02*
X7Y849D01*
X965Y849D02*
X972Y849D01*
X0Y848D02*
X7Y848D01*
X965Y848D02*
X972Y848D01*
X0Y847D02*
X7Y847D01*
X965Y847D02*
X972Y847D01*
X0Y846D02*
X7Y846D01*
X965Y846D02*
X972Y846D01*
X0Y845D02*
X7Y845D01*
X965Y845D02*
X972Y845D01*
X0Y844D02*
X7Y844D01*
X965Y844D02*
X972Y844D01*
X0Y843D02*
X7Y843D01*
X965Y843D02*
X972Y843D01*
X0Y842D02*
X7Y842D01*
X965Y842D02*
X972Y842D01*
X0Y841D02*
X7Y841D01*
X965Y841D02*
X972Y841D01*
X0Y840D02*
X7Y840D01*
X965Y840D02*
X972Y840D01*
X0Y839D02*
X7Y839D01*
X965Y839D02*
X972Y839D01*
X0Y838D02*
X7Y838D01*
X965Y838D02*
X972Y838D01*
X0Y837D02*
X7Y837D01*
X965Y837D02*
X972Y837D01*
X0Y836D02*
X7Y836D01*
X965Y836D02*
X972Y836D01*
X0Y835D02*
X7Y835D01*
X965Y835D02*
X972Y835D01*
X0Y834D02*
X7Y834D01*
X965Y834D02*
X972Y834D01*
X0Y833D02*
X7Y833D01*
X965Y833D02*
X972Y833D01*
X0Y832D02*
X7Y832D01*
X965Y832D02*
X972Y832D01*
X0Y831D02*
X7Y831D01*
X965Y831D02*
X972Y831D01*
X0Y830D02*
X7Y830D01*
X965Y830D02*
X972Y830D01*
X0Y829D02*
X7Y829D01*
X965Y829D02*
X972Y829D01*
X0Y828D02*
X7Y828D01*
X965Y828D02*
X972Y828D01*
X0Y827D02*
X7Y827D01*
X965Y827D02*
X972Y827D01*
X0Y826D02*
X7Y826D01*
X965Y826D02*
X972Y826D01*
X0Y825D02*
X7Y825D01*
X965Y825D02*
X972Y825D01*
X0Y824D02*
X7Y824D01*
X965Y824D02*
X972Y824D01*
X0Y823D02*
X7Y823D01*
X965Y823D02*
X972Y823D01*
X0Y822D02*
X7Y822D01*
X965Y822D02*
X972Y822D01*
X0Y821D02*
X7Y821D01*
X965Y821D02*
X972Y821D01*
X0Y820D02*
X7Y820D01*
X965Y820D02*
X972Y820D01*
X0Y819D02*
X7Y819D01*
X965Y819D02*
X972Y819D01*
X0Y818D02*
X7Y818D01*
X965Y818D02*
X972Y818D01*
X0Y817D02*
X7Y817D01*
X965Y817D02*
X972Y817D01*
X0Y816D02*
X7Y816D01*
X965Y816D02*
X972Y816D01*
X0Y815D02*
X7Y815D01*
X965Y815D02*
X972Y815D01*
X0Y814D02*
X7Y814D01*
X965Y814D02*
X972Y814D01*
X0Y813D02*
X7Y813D01*
X965Y813D02*
X972Y813D01*
X0Y812D02*
X7Y812D01*
X965Y812D02*
X972Y812D01*
X0Y811D02*
X7Y811D01*
X965Y811D02*
X972Y811D01*
X0Y810D02*
X7Y810D01*
X965Y810D02*
X972Y810D01*
X0Y809D02*
X7Y809D01*
X965Y809D02*
X972Y809D01*
X0Y808D02*
X7Y808D01*
X965Y808D02*
X972Y808D01*
X0Y807D02*
X7Y807D01*
X965Y807D02*
X972Y807D01*
X0Y806D02*
X7Y806D01*
X965Y806D02*
X972Y806D01*
X0Y805D02*
X7Y805D01*
X965Y805D02*
X972Y805D01*
X0Y804D02*
X7Y804D01*
X965Y804D02*
X972Y804D01*
X0Y803D02*
X7Y803D01*
X965Y803D02*
X972Y803D01*
X0Y802D02*
X7Y802D01*
X965Y802D02*
X972Y802D01*
X0Y801D02*
X7Y801D01*
X965Y801D02*
X972Y801D01*
X0Y800D02*
X7Y800D01*
X965Y800D02*
X972Y800D01*
X0Y799D02*
X7Y799D01*
X965Y799D02*
X972Y799D01*
X0Y798D02*
X7Y798D01*
X965Y798D02*
X972Y798D01*
X0Y797D02*
X7Y797D01*
X965Y797D02*
X972Y797D01*
X0Y796D02*
X7Y796D01*
X965Y796D02*
X972Y796D01*
X0Y795D02*
X7Y795D01*
X965Y795D02*
X972Y795D01*
X0Y794D02*
X7Y794D01*
X965Y794D02*
X972Y794D01*
X0Y793D02*
X7Y793D01*
X965Y793D02*
X972Y793D01*
X0Y792D02*
X7Y792D01*
X965Y792D02*
X972Y792D01*
X0Y791D02*
X7Y791D01*
X965Y791D02*
X972Y791D01*
X0Y790D02*
X7Y790D01*
X965Y790D02*
X972Y790D01*
X0Y789D02*
X7Y789D01*
X965Y789D02*
X972Y789D01*
X0Y788D02*
X7Y788D01*
X965Y788D02*
X972Y788D01*
X0Y787D02*
X7Y787D01*
X965Y787D02*
X972Y787D01*
X0Y786D02*
X7Y786D01*
X965Y786D02*
X972Y786D01*
X0Y785D02*
X7Y785D01*
X965Y785D02*
X972Y785D01*
X0Y784D02*
X7Y784D01*
X965Y784D02*
X972Y784D01*
X0Y783D02*
X7Y783D01*
X965Y783D02*
X972Y783D01*
X0Y782D02*
X7Y782D01*
X965Y782D02*
X972Y782D01*
X0Y781D02*
X7Y781D01*
X965Y781D02*
X972Y781D01*
X0Y780D02*
X7Y780D01*
X965Y780D02*
X972Y780D01*
X0Y779D02*
X7Y779D01*
X965Y779D02*
X972Y779D01*
X0Y778D02*
X7Y778D01*
X965Y778D02*
X972Y778D01*
X0Y777D02*
X7Y777D01*
X965Y777D02*
X972Y777D01*
X0Y776D02*
X7Y776D01*
X965Y776D02*
X972Y776D01*
X0Y775D02*
X7Y775D01*
X965Y775D02*
X972Y775D01*
X0Y774D02*
X7Y774D01*
X965Y774D02*
X972Y774D01*
X0Y773D02*
X7Y773D01*
X965Y773D02*
X972Y773D01*
X0Y772D02*
X7Y772D01*
X965Y772D02*
X972Y772D01*
X0Y771D02*
X7Y771D01*
X965Y771D02*
X972Y771D01*
X0Y770D02*
X7Y770D01*
X965Y770D02*
X972Y770D01*
X0Y769D02*
X7Y769D01*
X965Y769D02*
X972Y769D01*
X0Y768D02*
X7Y768D01*
X965Y768D02*
X972Y768D01*
X0Y767D02*
X7Y767D01*
X965Y767D02*
X972Y767D01*
X0Y766D02*
X7Y766D01*
X965Y766D02*
X972Y766D01*
X0Y765D02*
X7Y765D01*
X965Y765D02*
X972Y765D01*
X0Y764D02*
X7Y764D01*
X965Y764D02*
X972Y764D01*
X0Y763D02*
X7Y763D01*
X965Y763D02*
X972Y763D01*
X0Y762D02*
X7Y762D01*
X965Y762D02*
X972Y762D01*
X0Y761D02*
X7Y761D01*
X965Y761D02*
X972Y761D01*
X0Y760D02*
X7Y760D01*
X965Y760D02*
X972Y760D01*
X0Y759D02*
X7Y759D01*
X965Y759D02*
X972Y759D01*
X0Y758D02*
X7Y758D01*
X965Y758D02*
X972Y758D01*
X0Y757D02*
X7Y757D01*
X965Y757D02*
X972Y757D01*
X0Y756D02*
X7Y756D01*
X965Y756D02*
X972Y756D01*
X0Y755D02*
X7Y755D01*
X965Y755D02*
X972Y755D01*
X0Y754D02*
X7Y754D01*
X965Y754D02*
X972Y754D01*
X0Y753D02*
X7Y753D01*
X965Y753D02*
X972Y753D01*
X0Y752D02*
X7Y752D01*
X965Y752D02*
X972Y752D01*
X0Y751D02*
X7Y751D01*
X965Y751D02*
X972Y751D01*
X0Y750D02*
X7Y750D01*
X965Y750D02*
X972Y750D01*
X0Y749D02*
X7Y749D01*
X965Y749D02*
X972Y749D01*
X0Y748D02*
X7Y748D01*
X965Y748D02*
X972Y748D01*
X0Y747D02*
X7Y747D01*
X965Y747D02*
X972Y747D01*
X0Y746D02*
X7Y746D01*
X965Y746D02*
X972Y746D01*
X0Y745D02*
X7Y745D01*
X965Y745D02*
X972Y745D01*
X0Y744D02*
X7Y744D01*
X965Y744D02*
X972Y744D01*
X0Y743D02*
X7Y743D01*
X965Y743D02*
X972Y743D01*
X0Y742D02*
X7Y742D01*
X965Y742D02*
X972Y742D01*
X0Y741D02*
X7Y741D01*
X965Y741D02*
X972Y741D01*
X0Y740D02*
X7Y740D01*
X965Y740D02*
X972Y740D01*
X0Y739D02*
X7Y739D01*
X965Y739D02*
X972Y739D01*
X0Y738D02*
X7Y738D01*
X965Y738D02*
X972Y738D01*
X0Y737D02*
X7Y737D01*
X965Y737D02*
X972Y737D01*
X0Y736D02*
X7Y736D01*
X965Y736D02*
X972Y736D01*
X0Y735D02*
X7Y735D01*
X965Y735D02*
X972Y735D01*
X0Y734D02*
X7Y734D01*
X965Y734D02*
X972Y734D01*
X0Y733D02*
X7Y733D01*
X965Y733D02*
X972Y733D01*
X0Y732D02*
X7Y732D01*
X965Y732D02*
X972Y732D01*
X0Y731D02*
X7Y731D01*
X965Y731D02*
X972Y731D01*
X0Y730D02*
X7Y730D01*
X965Y730D02*
X972Y730D01*
X0Y729D02*
X7Y729D01*
X965Y729D02*
X972Y729D01*
X0Y728D02*
X7Y728D01*
X965Y728D02*
X972Y728D01*
X0Y727D02*
X7Y727D01*
X965Y727D02*
X972Y727D01*
X0Y726D02*
X7Y726D01*
X965Y726D02*
X972Y726D01*
X0Y725D02*
X7Y725D01*
X965Y725D02*
X972Y725D01*
X0Y724D02*
X7Y724D01*
X965Y724D02*
X972Y724D01*
X0Y723D02*
X7Y723D01*
X965Y723D02*
X972Y723D01*
X0Y722D02*
X7Y722D01*
X965Y722D02*
X972Y722D01*
X0Y721D02*
X7Y721D01*
X965Y721D02*
X972Y721D01*
X0Y720D02*
X7Y720D01*
X965Y720D02*
X972Y720D01*
X0Y719D02*
X7Y719D01*
X965Y719D02*
X972Y719D01*
X0Y718D02*
X7Y718D01*
X965Y718D02*
X972Y718D01*
X0Y717D02*
X7Y717D01*
X965Y717D02*
X972Y717D01*
X0Y716D02*
X7Y716D01*
X965Y716D02*
X972Y716D01*
X0Y715D02*
X7Y715D01*
X965Y715D02*
X972Y715D01*
X0Y714D02*
X7Y714D01*
X965Y714D02*
X972Y714D01*
X0Y713D02*
X7Y713D01*
X965Y713D02*
X972Y713D01*
X0Y712D02*
X7Y712D01*
X965Y712D02*
X972Y712D01*
X0Y711D02*
X7Y711D01*
X965Y711D02*
X972Y711D01*
X0Y710D02*
X7Y710D01*
X965Y710D02*
X972Y710D01*
X0Y709D02*
X7Y709D01*
X965Y709D02*
X972Y709D01*
X0Y708D02*
X7Y708D01*
X965Y708D02*
X972Y708D01*
X0Y707D02*
X7Y707D01*
X965Y707D02*
X972Y707D01*
X0Y706D02*
X7Y706D01*
X965Y706D02*
X972Y706D01*
X0Y705D02*
X7Y705D01*
X965Y705D02*
X972Y705D01*
X0Y704D02*
X7Y704D01*
X965Y704D02*
X972Y704D01*
X0Y703D02*
X7Y703D01*
X965Y703D02*
X972Y703D01*
X0Y702D02*
X7Y702D01*
X965Y702D02*
X972Y702D01*
X0Y701D02*
X7Y701D01*
X965Y701D02*
X972Y701D01*
X0Y700D02*
X7Y700D01*
X965Y700D02*
X972Y700D01*
X0Y699D02*
X7Y699D01*
X965Y699D02*
X972Y699D01*
X0Y698D02*
X7Y698D01*
X965Y698D02*
X972Y698D01*
X0Y697D02*
X7Y697D01*
X965Y697D02*
X972Y697D01*
X0Y696D02*
X7Y696D01*
X965Y696D02*
X972Y696D01*
X0Y695D02*
X7Y695D01*
X965Y695D02*
X972Y695D01*
X0Y694D02*
X7Y694D01*
X965Y694D02*
X972Y694D01*
X0Y693D02*
X7Y693D01*
X965Y693D02*
X972Y693D01*
X0Y692D02*
X7Y692D01*
X965Y692D02*
X972Y692D01*
X0Y691D02*
X7Y691D01*
X965Y691D02*
X972Y691D01*
X0Y690D02*
X7Y690D01*
X965Y690D02*
X972Y690D01*
X0Y689D02*
X7Y689D01*
X965Y689D02*
X972Y689D01*
X0Y688D02*
X7Y688D01*
X965Y688D02*
X972Y688D01*
X0Y687D02*
X7Y687D01*
X965Y687D02*
X972Y687D01*
X0Y686D02*
X7Y686D01*
X965Y686D02*
X972Y686D01*
X0Y685D02*
X7Y685D01*
X965Y685D02*
X972Y685D01*
X0Y684D02*
X7Y684D01*
X965Y684D02*
X972Y684D01*
X0Y683D02*
X7Y683D01*
X965Y683D02*
X972Y683D01*
X0Y682D02*
X7Y682D01*
X965Y682D02*
X972Y682D01*
X0Y681D02*
X7Y681D01*
X965Y681D02*
X972Y681D01*
X0Y680D02*
X7Y680D01*
X965Y680D02*
X972Y680D01*
X0Y679D02*
X7Y679D01*
X965Y679D02*
X972Y679D01*
X0Y678D02*
X7Y678D01*
X965Y678D02*
X972Y678D01*
X0Y677D02*
X7Y677D01*
X965Y677D02*
X972Y677D01*
X0Y676D02*
X7Y676D01*
X965Y676D02*
X972Y676D01*
X0Y675D02*
X7Y675D01*
X965Y675D02*
X972Y675D01*
X0Y674D02*
X7Y674D01*
X965Y674D02*
X972Y674D01*
X0Y673D02*
X7Y673D01*
X965Y673D02*
X972Y673D01*
X0Y672D02*
X7Y672D01*
X965Y672D02*
X972Y672D01*
X0Y671D02*
X7Y671D01*
X965Y671D02*
X972Y671D01*
X0Y670D02*
X7Y670D01*
X965Y670D02*
X972Y670D01*
X0Y669D02*
X7Y669D01*
X965Y669D02*
X972Y669D01*
X0Y668D02*
X7Y668D01*
X965Y668D02*
X972Y668D01*
X0Y667D02*
X7Y667D01*
X965Y667D02*
X972Y667D01*
X0Y666D02*
X7Y666D01*
X965Y666D02*
X972Y666D01*
X0Y665D02*
X7Y665D01*
X965Y665D02*
X972Y665D01*
X0Y664D02*
X7Y664D01*
X965Y664D02*
X972Y664D01*
X0Y663D02*
X7Y663D01*
X965Y663D02*
X972Y663D01*
X0Y662D02*
X7Y662D01*
X965Y662D02*
X972Y662D01*
X0Y661D02*
X7Y661D01*
X729Y661D02*
X737Y661D01*
X879Y661D02*
X887Y661D01*
X965Y661D02*
X972Y661D01*
X0Y660D02*
X7Y660D01*
X729Y660D02*
X738Y660D01*
X879Y660D02*
X888Y660D01*
X965Y660D02*
X972Y660D01*
X0Y659D02*
X7Y659D01*
X729Y659D02*
X738Y659D01*
X879Y659D02*
X888Y659D01*
X965Y659D02*
X972Y659D01*
X0Y658D02*
X7Y658D01*
X729Y658D02*
X738Y658D01*
X879Y658D02*
X888Y658D01*
X965Y658D02*
X972Y658D01*
X0Y657D02*
X7Y657D01*
X729Y657D02*
X738Y657D01*
X879Y657D02*
X888Y657D01*
X965Y657D02*
X972Y657D01*
X0Y656D02*
X7Y656D01*
X729Y656D02*
X738Y656D01*
X879Y656D02*
X888Y656D01*
X965Y656D02*
X972Y656D01*
X0Y655D02*
X7Y655D01*
X729Y655D02*
X738Y655D01*
X879Y655D02*
X888Y655D01*
X965Y655D02*
X972Y655D01*
X0Y654D02*
X7Y654D01*
X729Y654D02*
X738Y654D01*
X879Y654D02*
X888Y654D01*
X965Y654D02*
X972Y654D01*
X0Y653D02*
X7Y653D01*
X729Y653D02*
X738Y653D01*
X879Y653D02*
X888Y653D01*
X965Y653D02*
X972Y653D01*
X0Y652D02*
X7Y652D01*
X729Y652D02*
X738Y652D01*
X879Y652D02*
X888Y652D01*
X965Y652D02*
X972Y652D01*
X0Y651D02*
X7Y651D01*
X729Y651D02*
X738Y651D01*
X879Y651D02*
X888Y651D01*
X965Y651D02*
X972Y651D01*
X0Y650D02*
X7Y650D01*
X729Y650D02*
X738Y650D01*
X879Y650D02*
X888Y650D01*
X965Y650D02*
X972Y650D01*
X0Y649D02*
X7Y649D01*
X729Y649D02*
X738Y649D01*
X879Y649D02*
X888Y649D01*
X965Y649D02*
X972Y649D01*
X0Y648D02*
X7Y648D01*
X729Y648D02*
X738Y648D01*
X879Y648D02*
X888Y648D01*
X965Y648D02*
X972Y648D01*
X0Y647D02*
X7Y647D01*
X729Y647D02*
X738Y647D01*
X879Y647D02*
X888Y647D01*
X965Y647D02*
X972Y647D01*
X0Y646D02*
X7Y646D01*
X729Y646D02*
X738Y646D01*
X879Y646D02*
X888Y646D01*
X965Y646D02*
X972Y646D01*
X0Y645D02*
X7Y645D01*
X729Y645D02*
X738Y645D01*
X879Y645D02*
X888Y645D01*
X965Y645D02*
X972Y645D01*
X0Y644D02*
X7Y644D01*
X729Y644D02*
X738Y644D01*
X879Y644D02*
X888Y644D01*
X965Y644D02*
X972Y644D01*
X0Y643D02*
X7Y643D01*
X729Y643D02*
X738Y643D01*
X879Y643D02*
X888Y643D01*
X965Y643D02*
X972Y643D01*
X0Y642D02*
X7Y642D01*
X729Y642D02*
X738Y642D01*
X879Y642D02*
X888Y642D01*
X965Y642D02*
X972Y642D01*
X0Y641D02*
X7Y641D01*
X729Y641D02*
X738Y641D01*
X879Y641D02*
X888Y641D01*
X965Y641D02*
X972Y641D01*
X0Y640D02*
X7Y640D01*
X729Y640D02*
X738Y640D01*
X879Y640D02*
X888Y640D01*
X965Y640D02*
X972Y640D01*
X0Y639D02*
X7Y639D01*
X729Y639D02*
X738Y639D01*
X879Y639D02*
X888Y639D01*
X965Y639D02*
X972Y639D01*
X0Y638D02*
X7Y638D01*
X729Y638D02*
X738Y638D01*
X879Y638D02*
X888Y638D01*
X965Y638D02*
X972Y638D01*
X0Y637D02*
X7Y637D01*
X729Y637D02*
X738Y637D01*
X879Y637D02*
X888Y637D01*
X965Y637D02*
X972Y637D01*
X0Y636D02*
X7Y636D01*
X729Y636D02*
X738Y636D01*
X879Y636D02*
X888Y636D01*
X965Y636D02*
X972Y636D01*
X0Y635D02*
X7Y635D01*
X729Y635D02*
X738Y635D01*
X879Y635D02*
X888Y635D01*
X965Y635D02*
X972Y635D01*
X0Y634D02*
X7Y634D01*
X729Y634D02*
X738Y634D01*
X879Y634D02*
X888Y634D01*
X965Y634D02*
X972Y634D01*
X0Y633D02*
X7Y633D01*
X729Y633D02*
X738Y633D01*
X879Y633D02*
X888Y633D01*
X965Y633D02*
X972Y633D01*
X0Y632D02*
X7Y632D01*
X729Y632D02*
X738Y632D01*
X879Y632D02*
X888Y632D01*
X965Y632D02*
X972Y632D01*
X0Y631D02*
X7Y631D01*
X729Y631D02*
X738Y631D01*
X879Y631D02*
X888Y631D01*
X965Y631D02*
X972Y631D01*
X0Y630D02*
X7Y630D01*
X729Y630D02*
X738Y630D01*
X879Y630D02*
X888Y630D01*
X965Y630D02*
X972Y630D01*
X0Y629D02*
X7Y629D01*
X729Y629D02*
X738Y629D01*
X879Y629D02*
X888Y629D01*
X965Y629D02*
X972Y629D01*
X0Y628D02*
X7Y628D01*
X729Y628D02*
X738Y628D01*
X879Y628D02*
X888Y628D01*
X965Y628D02*
X972Y628D01*
X0Y627D02*
X7Y627D01*
X729Y627D02*
X738Y627D01*
X879Y627D02*
X888Y627D01*
X965Y627D02*
X972Y627D01*
X0Y626D02*
X7Y626D01*
X729Y626D02*
X738Y626D01*
X879Y626D02*
X888Y626D01*
X965Y626D02*
X972Y626D01*
X0Y625D02*
X7Y625D01*
X729Y625D02*
X738Y625D01*
X879Y625D02*
X888Y625D01*
X965Y625D02*
X972Y625D01*
X0Y624D02*
X7Y624D01*
X729Y624D02*
X738Y624D01*
X879Y624D02*
X888Y624D01*
X965Y624D02*
X972Y624D01*
X0Y623D02*
X7Y623D01*
X729Y623D02*
X738Y623D01*
X879Y623D02*
X888Y623D01*
X965Y623D02*
X972Y623D01*
X0Y622D02*
X7Y622D01*
X729Y622D02*
X738Y622D01*
X879Y622D02*
X888Y622D01*
X965Y622D02*
X972Y622D01*
X0Y621D02*
X7Y621D01*
X729Y621D02*
X738Y621D01*
X879Y621D02*
X888Y621D01*
X965Y621D02*
X972Y621D01*
X0Y620D02*
X7Y620D01*
X729Y620D02*
X738Y620D01*
X879Y620D02*
X888Y620D01*
X965Y620D02*
X972Y620D01*
X0Y619D02*
X7Y619D01*
X729Y619D02*
X738Y619D01*
X879Y619D02*
X888Y619D01*
X965Y619D02*
X972Y619D01*
X0Y618D02*
X7Y618D01*
X729Y618D02*
X738Y618D01*
X879Y618D02*
X888Y618D01*
X965Y618D02*
X972Y618D01*
X0Y617D02*
X7Y617D01*
X729Y617D02*
X738Y617D01*
X879Y617D02*
X888Y617D01*
X965Y617D02*
X972Y617D01*
X0Y616D02*
X7Y616D01*
X729Y616D02*
X738Y616D01*
X879Y616D02*
X888Y616D01*
X965Y616D02*
X972Y616D01*
X0Y615D02*
X7Y615D01*
X729Y615D02*
X738Y615D01*
X879Y615D02*
X888Y615D01*
X965Y615D02*
X972Y615D01*
X0Y614D02*
X7Y614D01*
X729Y614D02*
X738Y614D01*
X879Y614D02*
X888Y614D01*
X965Y614D02*
X972Y614D01*
X0Y613D02*
X7Y613D01*
X729Y613D02*
X731Y613D01*
X736Y613D02*
X738Y613D01*
X879Y613D02*
X880Y613D01*
X886Y613D02*
X888Y613D01*
X965Y613D02*
X972Y613D01*
X0Y612D02*
X7Y612D01*
X965Y612D02*
X972Y612D01*
X0Y611D02*
X7Y611D01*
X965Y611D02*
X972Y611D01*
X0Y610D02*
X7Y610D01*
X965Y610D02*
X972Y610D01*
X0Y609D02*
X7Y609D01*
X965Y609D02*
X972Y609D01*
X0Y608D02*
X7Y608D01*
X965Y608D02*
X972Y608D01*
X0Y607D02*
X7Y607D01*
X965Y607D02*
X972Y607D01*
X0Y606D02*
X7Y606D01*
X965Y606D02*
X972Y606D01*
X0Y605D02*
X7Y605D01*
X965Y605D02*
X972Y605D01*
X0Y604D02*
X7Y604D01*
X965Y604D02*
X972Y604D01*
X0Y603D02*
X7Y603D01*
X965Y603D02*
X972Y603D01*
X0Y602D02*
X7Y602D01*
X965Y602D02*
X972Y602D01*
X0Y601D02*
X7Y601D01*
X965Y601D02*
X972Y601D01*
X0Y600D02*
X7Y600D01*
X965Y600D02*
X972Y600D01*
X0Y599D02*
X7Y599D01*
X965Y599D02*
X972Y599D01*
X0Y598D02*
X7Y598D01*
X965Y598D02*
X972Y598D01*
X0Y597D02*
X7Y597D01*
X965Y597D02*
X972Y597D01*
X0Y596D02*
X7Y596D01*
X965Y596D02*
X972Y596D01*
X0Y595D02*
X7Y595D01*
X965Y595D02*
X972Y595D01*
X0Y594D02*
X7Y594D01*
X965Y594D02*
X972Y594D01*
X0Y593D02*
X7Y593D01*
X965Y593D02*
X972Y593D01*
X0Y592D02*
X7Y592D01*
X965Y592D02*
X972Y592D01*
X0Y591D02*
X7Y591D01*
X965Y591D02*
X972Y591D01*
X0Y590D02*
X7Y590D01*
X965Y590D02*
X972Y590D01*
X0Y589D02*
X7Y589D01*
X965Y589D02*
X972Y589D01*
X0Y588D02*
X7Y588D01*
X965Y588D02*
X972Y588D01*
X0Y587D02*
X7Y587D01*
X965Y587D02*
X972Y587D01*
X0Y586D02*
X7Y586D01*
X965Y586D02*
X972Y586D01*
X0Y585D02*
X7Y585D01*
X965Y585D02*
X972Y585D01*
X0Y584D02*
X7Y584D01*
X965Y584D02*
X972Y584D01*
X0Y583D02*
X7Y583D01*
X965Y583D02*
X972Y583D01*
X0Y582D02*
X7Y582D01*
X965Y582D02*
X972Y582D01*
X0Y581D02*
X7Y581D01*
X965Y581D02*
X972Y581D01*
X0Y580D02*
X7Y580D01*
X965Y580D02*
X972Y580D01*
X0Y579D02*
X7Y579D01*
X965Y579D02*
X972Y579D01*
X0Y578D02*
X7Y578D01*
X965Y578D02*
X972Y578D01*
X0Y577D02*
X7Y577D01*
X965Y577D02*
X972Y577D01*
X0Y576D02*
X7Y576D01*
X965Y576D02*
X972Y576D01*
X0Y575D02*
X7Y575D01*
X965Y575D02*
X972Y575D01*
X0Y574D02*
X7Y574D01*
X965Y574D02*
X972Y574D01*
X0Y573D02*
X7Y573D01*
X965Y573D02*
X972Y573D01*
X0Y572D02*
X7Y572D01*
X965Y572D02*
X972Y572D01*
X0Y571D02*
X7Y571D01*
X965Y571D02*
X972Y571D01*
X0Y570D02*
X7Y570D01*
X965Y570D02*
X972Y570D01*
X0Y569D02*
X7Y569D01*
X965Y569D02*
X972Y569D01*
X0Y568D02*
X7Y568D01*
X965Y568D02*
X972Y568D01*
X0Y567D02*
X7Y567D01*
X965Y567D02*
X972Y567D01*
X0Y566D02*
X7Y566D01*
X965Y566D02*
X972Y566D01*
X0Y565D02*
X7Y565D01*
X965Y565D02*
X972Y565D01*
X0Y564D02*
X7Y564D01*
X965Y564D02*
X972Y564D01*
X0Y563D02*
X7Y563D01*
X965Y563D02*
X972Y563D01*
X0Y562D02*
X7Y562D01*
X965Y562D02*
X972Y562D01*
X0Y561D02*
X7Y561D01*
X965Y561D02*
X972Y561D01*
X0Y560D02*
X7Y560D01*
X965Y560D02*
X972Y560D01*
X0Y559D02*
X7Y559D01*
X965Y559D02*
X972Y559D01*
X0Y558D02*
X7Y558D01*
X965Y558D02*
X972Y558D01*
X0Y557D02*
X7Y557D01*
X965Y557D02*
X972Y557D01*
X0Y556D02*
X7Y556D01*
X965Y556D02*
X972Y556D01*
X0Y555D02*
X7Y555D01*
X965Y555D02*
X972Y555D01*
X0Y554D02*
X7Y554D01*
X965Y554D02*
X972Y554D01*
X0Y553D02*
X7Y553D01*
X965Y553D02*
X972Y553D01*
X0Y552D02*
X7Y552D01*
X965Y552D02*
X972Y552D01*
X0Y551D02*
X7Y551D01*
X965Y551D02*
X972Y551D01*
X0Y550D02*
X7Y550D01*
X965Y550D02*
X972Y550D01*
X0Y549D02*
X7Y549D01*
X965Y549D02*
X972Y549D01*
X0Y548D02*
X7Y548D01*
X965Y548D02*
X972Y548D01*
X0Y547D02*
X7Y547D01*
X965Y547D02*
X972Y547D01*
X0Y546D02*
X7Y546D01*
X965Y546D02*
X972Y546D01*
X0Y545D02*
X7Y545D01*
X965Y545D02*
X972Y545D01*
X0Y544D02*
X7Y544D01*
X965Y544D02*
X972Y544D01*
X0Y543D02*
X7Y543D01*
X965Y543D02*
X972Y543D01*
X0Y542D02*
X7Y542D01*
X965Y542D02*
X972Y542D01*
X0Y541D02*
X7Y541D01*
X965Y541D02*
X972Y541D01*
X0Y540D02*
X7Y540D01*
X965Y540D02*
X972Y540D01*
X0Y539D02*
X7Y539D01*
X965Y539D02*
X972Y539D01*
X0Y538D02*
X7Y538D01*
X965Y538D02*
X972Y538D01*
X0Y537D02*
X7Y537D01*
X965Y537D02*
X972Y537D01*
X0Y536D02*
X7Y536D01*
X965Y536D02*
X972Y536D01*
X0Y535D02*
X7Y535D01*
X965Y535D02*
X972Y535D01*
X0Y534D02*
X7Y534D01*
X965Y534D02*
X972Y534D01*
X0Y533D02*
X7Y533D01*
X965Y533D02*
X972Y533D01*
X0Y532D02*
X7Y532D01*
X965Y532D02*
X972Y532D01*
X0Y531D02*
X7Y531D01*
X965Y531D02*
X972Y531D01*
X0Y530D02*
X7Y530D01*
X965Y530D02*
X972Y530D01*
X0Y529D02*
X7Y529D01*
X965Y529D02*
X972Y529D01*
X0Y528D02*
X7Y528D01*
X965Y528D02*
X972Y528D01*
X0Y527D02*
X7Y527D01*
X965Y527D02*
X972Y527D01*
X0Y526D02*
X7Y526D01*
X965Y526D02*
X972Y526D01*
X0Y525D02*
X7Y525D01*
X965Y525D02*
X972Y525D01*
X0Y524D02*
X7Y524D01*
X965Y524D02*
X972Y524D01*
X0Y523D02*
X7Y523D01*
X965Y523D02*
X972Y523D01*
X0Y522D02*
X7Y522D01*
X965Y522D02*
X972Y522D01*
X0Y521D02*
X7Y521D01*
X965Y521D02*
X972Y521D01*
X0Y520D02*
X7Y520D01*
X965Y520D02*
X972Y520D01*
X0Y519D02*
X7Y519D01*
X965Y519D02*
X972Y519D01*
X0Y518D02*
X7Y518D01*
X965Y518D02*
X972Y518D01*
X0Y517D02*
X7Y517D01*
X965Y517D02*
X972Y517D01*
X0Y516D02*
X7Y516D01*
X965Y516D02*
X972Y516D01*
X0Y515D02*
X7Y515D01*
X965Y515D02*
X972Y515D01*
X0Y514D02*
X7Y514D01*
X965Y514D02*
X972Y514D01*
X0Y513D02*
X7Y513D01*
X965Y513D02*
X972Y513D01*
X0Y512D02*
X7Y512D01*
X965Y512D02*
X972Y512D01*
X0Y511D02*
X7Y511D01*
X965Y511D02*
X972Y511D01*
X0Y510D02*
X7Y510D01*
X965Y510D02*
X972Y510D01*
X0Y509D02*
X7Y509D01*
X965Y509D02*
X972Y509D01*
X0Y508D02*
X7Y508D01*
X965Y508D02*
X972Y508D01*
X0Y507D02*
X7Y507D01*
X965Y507D02*
X972Y507D01*
X0Y506D02*
X7Y506D01*
X965Y506D02*
X972Y506D01*
X0Y505D02*
X7Y505D01*
X965Y505D02*
X972Y505D01*
X0Y504D02*
X7Y504D01*
X965Y504D02*
X972Y504D01*
X0Y503D02*
X7Y503D01*
X965Y503D02*
X972Y503D01*
X0Y502D02*
X7Y502D01*
X965Y502D02*
X972Y502D01*
X0Y501D02*
X7Y501D01*
X965Y501D02*
X972Y501D01*
X0Y500D02*
X7Y500D01*
X965Y500D02*
X972Y500D01*
X0Y499D02*
X7Y499D01*
X965Y499D02*
X972Y499D01*
X0Y498D02*
X7Y498D01*
X965Y498D02*
X972Y498D01*
X0Y497D02*
X7Y497D01*
X965Y497D02*
X972Y497D01*
X0Y496D02*
X7Y496D01*
X965Y496D02*
X972Y496D01*
X0Y495D02*
X7Y495D01*
X965Y495D02*
X972Y495D01*
X0Y494D02*
X7Y494D01*
X965Y494D02*
X972Y494D01*
X0Y493D02*
X7Y493D01*
X965Y493D02*
X972Y493D01*
X0Y492D02*
X7Y492D01*
X965Y492D02*
X972Y492D01*
X0Y491D02*
X7Y491D01*
X965Y491D02*
X972Y491D01*
X0Y490D02*
X7Y490D01*
X965Y490D02*
X972Y490D01*
X0Y489D02*
X7Y489D01*
X965Y489D02*
X972Y489D01*
X0Y488D02*
X7Y488D01*
X965Y488D02*
X972Y488D01*
X0Y487D02*
X7Y487D01*
X965Y487D02*
X972Y487D01*
X0Y486D02*
X7Y486D01*
X965Y486D02*
X972Y486D01*
X0Y485D02*
X7Y485D01*
X965Y485D02*
X972Y485D01*
X0Y484D02*
X7Y484D01*
X965Y484D02*
X972Y484D01*
X0Y483D02*
X7Y483D01*
X965Y483D02*
X972Y483D01*
X0Y482D02*
X7Y482D01*
X965Y482D02*
X972Y482D01*
X0Y481D02*
X7Y481D01*
X965Y481D02*
X972Y481D01*
X0Y480D02*
X7Y480D01*
X965Y480D02*
X972Y480D01*
X0Y479D02*
X7Y479D01*
X965Y479D02*
X972Y479D01*
X0Y478D02*
X7Y478D01*
X965Y478D02*
X972Y478D01*
X0Y477D02*
X7Y477D01*
X965Y477D02*
X972Y477D01*
X0Y476D02*
X7Y476D01*
X965Y476D02*
X972Y476D01*
X0Y475D02*
X7Y475D01*
X965Y475D02*
X972Y475D01*
X0Y474D02*
X7Y474D01*
X965Y474D02*
X972Y474D01*
X0Y473D02*
X7Y473D01*
X965Y473D02*
X972Y473D01*
X0Y472D02*
X7Y472D01*
X965Y472D02*
X972Y472D01*
X0Y471D02*
X7Y471D01*
X965Y471D02*
X972Y471D01*
X0Y470D02*
X7Y470D01*
X965Y470D02*
X972Y470D01*
X0Y469D02*
X7Y469D01*
X965Y469D02*
X972Y469D01*
X0Y468D02*
X7Y468D01*
X965Y468D02*
X972Y468D01*
X0Y467D02*
X7Y467D01*
X965Y467D02*
X972Y467D01*
X0Y466D02*
X7Y466D01*
X965Y466D02*
X972Y466D01*
X0Y465D02*
X7Y465D01*
X965Y465D02*
X972Y465D01*
X0Y464D02*
X7Y464D01*
X965Y464D02*
X972Y464D01*
X0Y463D02*
X7Y463D01*
X965Y463D02*
X972Y463D01*
X0Y462D02*
X7Y462D01*
X965Y462D02*
X972Y462D01*
X0Y461D02*
X7Y461D01*
X965Y461D02*
X972Y461D01*
X0Y460D02*
X7Y460D01*
X965Y460D02*
X972Y460D01*
X0Y459D02*
X7Y459D01*
X965Y459D02*
X972Y459D01*
X0Y458D02*
X7Y458D01*
X965Y458D02*
X972Y458D01*
X0Y457D02*
X7Y457D01*
X965Y457D02*
X972Y457D01*
X0Y456D02*
X7Y456D01*
X965Y456D02*
X972Y456D01*
X0Y455D02*
X7Y455D01*
X965Y455D02*
X972Y455D01*
X0Y454D02*
X7Y454D01*
X965Y454D02*
X972Y454D01*
X0Y453D02*
X7Y453D01*
X965Y453D02*
X972Y453D01*
X0Y452D02*
X7Y452D01*
X965Y452D02*
X972Y452D01*
X0Y451D02*
X7Y451D01*
X965Y451D02*
X972Y451D01*
X0Y450D02*
X7Y450D01*
X965Y450D02*
X972Y450D01*
X0Y449D02*
X7Y449D01*
X965Y449D02*
X972Y449D01*
X0Y448D02*
X7Y448D01*
X965Y448D02*
X972Y448D01*
X0Y447D02*
X7Y447D01*
X965Y447D02*
X972Y447D01*
X0Y446D02*
X7Y446D01*
X965Y446D02*
X972Y446D01*
X0Y445D02*
X7Y445D01*
X965Y445D02*
X972Y445D01*
X0Y444D02*
X7Y444D01*
X965Y444D02*
X972Y444D01*
X0Y443D02*
X7Y443D01*
X965Y443D02*
X972Y443D01*
X0Y442D02*
X7Y442D01*
X965Y442D02*
X972Y442D01*
X0Y441D02*
X7Y441D01*
X965Y441D02*
X972Y441D01*
X0Y440D02*
X7Y440D01*
X965Y440D02*
X972Y440D01*
X0Y439D02*
X7Y439D01*
X965Y439D02*
X972Y439D01*
X0Y438D02*
X7Y438D01*
X965Y438D02*
X972Y438D01*
X0Y437D02*
X7Y437D01*
X965Y437D02*
X972Y437D01*
X0Y436D02*
X7Y436D01*
X965Y436D02*
X972Y436D01*
X0Y435D02*
X7Y435D01*
X965Y435D02*
X972Y435D01*
X0Y434D02*
X7Y434D01*
X965Y434D02*
X972Y434D01*
X0Y433D02*
X7Y433D01*
X965Y433D02*
X972Y433D01*
X0Y432D02*
X7Y432D01*
X965Y432D02*
X972Y432D01*
X0Y431D02*
X7Y431D01*
X965Y431D02*
X972Y431D01*
X0Y430D02*
X7Y430D01*
X965Y430D02*
X972Y430D01*
X0Y429D02*
X7Y429D01*
X965Y429D02*
X972Y429D01*
X0Y428D02*
X7Y428D01*
X965Y428D02*
X972Y428D01*
X0Y427D02*
X7Y427D01*
X965Y427D02*
X972Y427D01*
X0Y426D02*
X7Y426D01*
X965Y426D02*
X972Y426D01*
X0Y425D02*
X7Y425D01*
X965Y425D02*
X972Y425D01*
X0Y424D02*
X7Y424D01*
X965Y424D02*
X972Y424D01*
X0Y423D02*
X7Y423D01*
X965Y423D02*
X972Y423D01*
X0Y422D02*
X7Y422D01*
X965Y422D02*
X972Y422D01*
X0Y421D02*
X7Y421D01*
X965Y421D02*
X972Y421D01*
X0Y420D02*
X7Y420D01*
X965Y420D02*
X972Y420D01*
X0Y419D02*
X7Y419D01*
X965Y419D02*
X972Y419D01*
X0Y418D02*
X7Y418D01*
X965Y418D02*
X972Y418D01*
X0Y417D02*
X7Y417D01*
X965Y417D02*
X972Y417D01*
X0Y416D02*
X7Y416D01*
X965Y416D02*
X972Y416D01*
X0Y415D02*
X7Y415D01*
X965Y415D02*
X972Y415D01*
X0Y414D02*
X7Y414D01*
X965Y414D02*
X972Y414D01*
X0Y413D02*
X7Y413D01*
X965Y413D02*
X972Y413D01*
X0Y412D02*
X7Y412D01*
X965Y412D02*
X972Y412D01*
X0Y411D02*
X7Y411D01*
X965Y411D02*
X972Y411D01*
X0Y410D02*
X7Y410D01*
X965Y410D02*
X972Y410D01*
X0Y409D02*
X7Y409D01*
X965Y409D02*
X972Y409D01*
X0Y408D02*
X7Y408D01*
X965Y408D02*
X972Y408D01*
X0Y407D02*
X7Y407D01*
X965Y407D02*
X972Y407D01*
X0Y406D02*
X7Y406D01*
X965Y406D02*
X972Y406D01*
X0Y405D02*
X7Y405D01*
X965Y405D02*
X972Y405D01*
X0Y404D02*
X7Y404D01*
X965Y404D02*
X972Y404D01*
X0Y403D02*
X7Y403D01*
X965Y403D02*
X972Y403D01*
X0Y402D02*
X7Y402D01*
X965Y402D02*
X972Y402D01*
X0Y401D02*
X7Y401D01*
X965Y401D02*
X972Y401D01*
X0Y400D02*
X7Y400D01*
X965Y400D02*
X972Y400D01*
X0Y399D02*
X7Y399D01*
X965Y399D02*
X972Y399D01*
X0Y398D02*
X7Y398D01*
X965Y398D02*
X972Y398D01*
X0Y397D02*
X7Y397D01*
X965Y397D02*
X972Y397D01*
X0Y396D02*
X7Y396D01*
X965Y396D02*
X972Y396D01*
X0Y395D02*
X7Y395D01*
X965Y395D02*
X972Y395D01*
X0Y394D02*
X7Y394D01*
X965Y394D02*
X972Y394D01*
X0Y393D02*
X7Y393D01*
X965Y393D02*
X972Y393D01*
X0Y392D02*
X7Y392D01*
X965Y392D02*
X972Y392D01*
X0Y391D02*
X7Y391D01*
X965Y391D02*
X972Y391D01*
X0Y390D02*
X7Y390D01*
X965Y390D02*
X972Y390D01*
X0Y389D02*
X7Y389D01*
X965Y389D02*
X972Y389D01*
X0Y388D02*
X7Y388D01*
X965Y388D02*
X972Y388D01*
X0Y387D02*
X7Y387D01*
X965Y387D02*
X972Y387D01*
X0Y386D02*
X7Y386D01*
X965Y386D02*
X972Y386D01*
X0Y385D02*
X7Y385D01*
X965Y385D02*
X972Y385D01*
X0Y384D02*
X7Y384D01*
X965Y384D02*
X972Y384D01*
X0Y383D02*
X7Y383D01*
X965Y383D02*
X972Y383D01*
X0Y382D02*
X7Y382D01*
X965Y382D02*
X972Y382D01*
X0Y381D02*
X7Y381D01*
X965Y381D02*
X972Y381D01*
X0Y380D02*
X7Y380D01*
X965Y380D02*
X972Y380D01*
X0Y379D02*
X7Y379D01*
X965Y379D02*
X972Y379D01*
X0Y378D02*
X7Y378D01*
X965Y378D02*
X972Y378D01*
X0Y377D02*
X7Y377D01*
X965Y377D02*
X972Y377D01*
X0Y376D02*
X7Y376D01*
X965Y376D02*
X972Y376D01*
X0Y375D02*
X7Y375D01*
X965Y375D02*
X972Y375D01*
X0Y374D02*
X7Y374D01*
X965Y374D02*
X972Y374D01*
X0Y373D02*
X7Y373D01*
X965Y373D02*
X972Y373D01*
X0Y372D02*
X7Y372D01*
X965Y372D02*
X972Y372D01*
X0Y371D02*
X7Y371D01*
X965Y371D02*
X972Y371D01*
X0Y370D02*
X7Y370D01*
X965Y370D02*
X972Y370D01*
X0Y369D02*
X7Y369D01*
X965Y369D02*
X972Y369D01*
X0Y368D02*
X7Y368D01*
X965Y368D02*
X972Y368D01*
X0Y367D02*
X7Y367D01*
X965Y367D02*
X972Y367D01*
X0Y366D02*
X7Y366D01*
X965Y366D02*
X972Y366D01*
X0Y365D02*
X7Y365D01*
X965Y365D02*
X972Y365D01*
X0Y364D02*
X7Y364D01*
X965Y364D02*
X972Y364D01*
X0Y363D02*
X7Y363D01*
X965Y363D02*
X972Y363D01*
X0Y362D02*
X7Y362D01*
X965Y362D02*
X972Y362D01*
X0Y361D02*
X7Y361D01*
X965Y361D02*
X972Y361D01*
X0Y360D02*
X7Y360D01*
X965Y360D02*
X972Y360D01*
X0Y359D02*
X7Y359D01*
X965Y359D02*
X972Y359D01*
X0Y358D02*
X7Y358D01*
X965Y358D02*
X972Y358D01*
X0Y357D02*
X7Y357D01*
X965Y357D02*
X972Y357D01*
X0Y356D02*
X7Y356D01*
X965Y356D02*
X972Y356D01*
X0Y355D02*
X7Y355D01*
X965Y355D02*
X972Y355D01*
X0Y354D02*
X7Y354D01*
X965Y354D02*
X972Y354D01*
X0Y353D02*
X7Y353D01*
X965Y353D02*
X972Y353D01*
X0Y352D02*
X7Y352D01*
X965Y352D02*
X972Y352D01*
X0Y351D02*
X7Y351D01*
X965Y351D02*
X972Y351D01*
X0Y350D02*
X7Y350D01*
X965Y350D02*
X972Y350D01*
X0Y349D02*
X7Y349D01*
X965Y349D02*
X972Y349D01*
X0Y348D02*
X7Y348D01*
X965Y348D02*
X972Y348D01*
X0Y347D02*
X7Y347D01*
X965Y347D02*
X972Y347D01*
X0Y346D02*
X7Y346D01*
X965Y346D02*
X972Y346D01*
X0Y345D02*
X7Y345D01*
X965Y345D02*
X972Y345D01*
X0Y344D02*
X7Y344D01*
X965Y344D02*
X972Y344D01*
X0Y343D02*
X7Y343D01*
X965Y343D02*
X972Y343D01*
X0Y342D02*
X7Y342D01*
X965Y342D02*
X972Y342D01*
X0Y341D02*
X7Y341D01*
X965Y341D02*
X972Y341D01*
X0Y340D02*
X7Y340D01*
X965Y340D02*
X972Y340D01*
X0Y339D02*
X7Y339D01*
X965Y339D02*
X972Y339D01*
X0Y338D02*
X7Y338D01*
X965Y338D02*
X972Y338D01*
X0Y337D02*
X7Y337D01*
X965Y337D02*
X972Y337D01*
X0Y336D02*
X7Y336D01*
X965Y336D02*
X972Y336D01*
X0Y335D02*
X7Y335D01*
X965Y335D02*
X972Y335D01*
X0Y334D02*
X7Y334D01*
X965Y334D02*
X972Y334D01*
X0Y333D02*
X7Y333D01*
X965Y333D02*
X972Y333D01*
X0Y332D02*
X7Y332D01*
X965Y332D02*
X972Y332D01*
X0Y331D02*
X7Y331D01*
X965Y331D02*
X972Y331D01*
X0Y330D02*
X7Y330D01*
X965Y330D02*
X972Y330D01*
X0Y329D02*
X7Y329D01*
X965Y329D02*
X972Y329D01*
X0Y328D02*
X7Y328D01*
X965Y328D02*
X972Y328D01*
X0Y327D02*
X7Y327D01*
X965Y327D02*
X972Y327D01*
X0Y326D02*
X7Y326D01*
X965Y326D02*
X972Y326D01*
X0Y325D02*
X7Y325D01*
X965Y325D02*
X972Y325D01*
X0Y324D02*
X7Y324D01*
X965Y324D02*
X972Y324D01*
X0Y323D02*
X7Y323D01*
X965Y323D02*
X972Y323D01*
X0Y322D02*
X7Y322D01*
X965Y322D02*
X972Y322D01*
X0Y321D02*
X7Y321D01*
X965Y321D02*
X972Y321D01*
X0Y320D02*
X7Y320D01*
X965Y320D02*
X972Y320D01*
X0Y319D02*
X7Y319D01*
X965Y319D02*
X972Y319D01*
X0Y318D02*
X7Y318D01*
X965Y318D02*
X972Y318D01*
X0Y317D02*
X7Y317D01*
X965Y317D02*
X972Y317D01*
X0Y316D02*
X7Y316D01*
X965Y316D02*
X972Y316D01*
X0Y315D02*
X7Y315D01*
X965Y315D02*
X972Y315D01*
X0Y314D02*
X7Y314D01*
X965Y314D02*
X972Y314D01*
X0Y313D02*
X7Y313D01*
X965Y313D02*
X972Y313D01*
X0Y312D02*
X7Y312D01*
X965Y312D02*
X972Y312D01*
X0Y311D02*
X7Y311D01*
X965Y311D02*
X972Y311D01*
X0Y310D02*
X7Y310D01*
X965Y310D02*
X972Y310D01*
X0Y309D02*
X7Y309D01*
X965Y309D02*
X972Y309D01*
X0Y308D02*
X7Y308D01*
X965Y308D02*
X972Y308D01*
X0Y307D02*
X7Y307D01*
X965Y307D02*
X972Y307D01*
X0Y306D02*
X7Y306D01*
X965Y306D02*
X972Y306D01*
X0Y305D02*
X7Y305D01*
X965Y305D02*
X972Y305D01*
X0Y304D02*
X7Y304D01*
X965Y304D02*
X972Y304D01*
X0Y303D02*
X7Y303D01*
X965Y303D02*
X972Y303D01*
X0Y302D02*
X7Y302D01*
X965Y302D02*
X972Y302D01*
X0Y301D02*
X7Y301D01*
X965Y301D02*
X972Y301D01*
X0Y300D02*
X7Y300D01*
X965Y300D02*
X972Y300D01*
X0Y299D02*
X7Y299D01*
X965Y299D02*
X972Y299D01*
X0Y298D02*
X7Y298D01*
X965Y298D02*
X972Y298D01*
X0Y297D02*
X7Y297D01*
X965Y297D02*
X972Y297D01*
X0Y296D02*
X7Y296D01*
X965Y296D02*
X972Y296D01*
X0Y295D02*
X7Y295D01*
X965Y295D02*
X972Y295D01*
X0Y294D02*
X7Y294D01*
X965Y294D02*
X972Y294D01*
X0Y293D02*
X7Y293D01*
X965Y293D02*
X972Y293D01*
X0Y292D02*
X7Y292D01*
X965Y292D02*
X972Y292D01*
X0Y291D02*
X7Y291D01*
X965Y291D02*
X972Y291D01*
X0Y290D02*
X7Y290D01*
X965Y290D02*
X972Y290D01*
X0Y289D02*
X7Y289D01*
X965Y289D02*
X972Y289D01*
X0Y288D02*
X7Y288D01*
X965Y288D02*
X972Y288D01*
X0Y287D02*
X7Y287D01*
X965Y287D02*
X972Y287D01*
X0Y286D02*
X7Y286D01*
X965Y286D02*
X972Y286D01*
X0Y285D02*
X7Y285D01*
X965Y285D02*
X972Y285D01*
X0Y284D02*
X7Y284D01*
X965Y284D02*
X972Y284D01*
X0Y283D02*
X7Y283D01*
X965Y283D02*
X972Y283D01*
X0Y282D02*
X7Y282D01*
X965Y282D02*
X972Y282D01*
X0Y281D02*
X7Y281D01*
X965Y281D02*
X972Y281D01*
X0Y280D02*
X7Y280D01*
X965Y280D02*
X972Y280D01*
X0Y279D02*
X7Y279D01*
X965Y279D02*
X972Y279D01*
X0Y278D02*
X7Y278D01*
X965Y278D02*
X972Y278D01*
X0Y277D02*
X7Y277D01*
X965Y277D02*
X972Y277D01*
X0Y276D02*
X7Y276D01*
X965Y276D02*
X972Y276D01*
X0Y275D02*
X7Y275D01*
X965Y275D02*
X972Y275D01*
X0Y274D02*
X7Y274D01*
X965Y274D02*
X972Y274D01*
X0Y273D02*
X7Y273D01*
X965Y273D02*
X972Y273D01*
X0Y272D02*
X7Y272D01*
X965Y272D02*
X972Y272D01*
X0Y271D02*
X7Y271D01*
X965Y271D02*
X972Y271D01*
X0Y270D02*
X7Y270D01*
X965Y270D02*
X972Y270D01*
X0Y269D02*
X7Y269D01*
X965Y269D02*
X972Y269D01*
X0Y268D02*
X7Y268D01*
X965Y268D02*
X972Y268D01*
X0Y267D02*
X7Y267D01*
X965Y267D02*
X972Y267D01*
X0Y266D02*
X7Y266D01*
X965Y266D02*
X972Y266D01*
X0Y265D02*
X7Y265D01*
X965Y265D02*
X972Y265D01*
X0Y264D02*
X7Y264D01*
X965Y264D02*
X972Y264D01*
X0Y263D02*
X7Y263D01*
X965Y263D02*
X972Y263D01*
X0Y262D02*
X7Y262D01*
X965Y262D02*
X972Y262D01*
X0Y261D02*
X7Y261D01*
X965Y261D02*
X972Y261D01*
X0Y260D02*
X7Y260D01*
X965Y260D02*
X972Y260D01*
X0Y259D02*
X7Y259D01*
X965Y259D02*
X972Y259D01*
X0Y258D02*
X7Y258D01*
X965Y258D02*
X972Y258D01*
X0Y257D02*
X7Y257D01*
X965Y257D02*
X972Y257D01*
X0Y256D02*
X7Y256D01*
X965Y256D02*
X972Y256D01*
X0Y255D02*
X7Y255D01*
X965Y255D02*
X972Y255D01*
X0Y254D02*
X7Y254D01*
X965Y254D02*
X972Y254D01*
X0Y253D02*
X7Y253D01*
X965Y253D02*
X972Y253D01*
X0Y252D02*
X7Y252D01*
X965Y252D02*
X972Y252D01*
X0Y251D02*
X7Y251D01*
X965Y251D02*
X972Y251D01*
X0Y250D02*
X7Y250D01*
X965Y250D02*
X972Y250D01*
X0Y249D02*
X7Y249D01*
X965Y249D02*
X972Y249D01*
X0Y248D02*
X7Y248D01*
X965Y248D02*
X972Y248D01*
X0Y247D02*
X7Y247D01*
X965Y247D02*
X972Y247D01*
X0Y246D02*
X7Y246D01*
X965Y246D02*
X972Y246D01*
X0Y245D02*
X7Y245D01*
X965Y245D02*
X972Y245D01*
X0Y244D02*
X7Y244D01*
X965Y244D02*
X972Y244D01*
X0Y243D02*
X7Y243D01*
X965Y243D02*
X972Y243D01*
X0Y242D02*
X7Y242D01*
X965Y242D02*
X972Y242D01*
X0Y241D02*
X7Y241D01*
X965Y241D02*
X972Y241D01*
X0Y240D02*
X7Y240D01*
X965Y240D02*
X972Y240D01*
X0Y239D02*
X7Y239D01*
X965Y239D02*
X972Y239D01*
X0Y238D02*
X7Y238D01*
X965Y238D02*
X972Y238D01*
X0Y237D02*
X7Y237D01*
X965Y237D02*
X972Y237D01*
X0Y236D02*
X7Y236D01*
X965Y236D02*
X972Y236D01*
X0Y235D02*
X7Y235D01*
X965Y235D02*
X972Y235D01*
X0Y234D02*
X7Y234D01*
X965Y234D02*
X972Y234D01*
X0Y233D02*
X7Y233D01*
X965Y233D02*
X972Y233D01*
X0Y232D02*
X7Y232D01*
X965Y232D02*
X972Y232D01*
X0Y231D02*
X7Y231D01*
X965Y231D02*
X972Y231D01*
X0Y230D02*
X7Y230D01*
X965Y230D02*
X972Y230D01*
X0Y229D02*
X7Y229D01*
X965Y229D02*
X972Y229D01*
X0Y228D02*
X7Y228D01*
X965Y228D02*
X972Y228D01*
X0Y227D02*
X7Y227D01*
X965Y227D02*
X972Y227D01*
X0Y226D02*
X7Y226D01*
X965Y226D02*
X972Y226D01*
X0Y225D02*
X7Y225D01*
X965Y225D02*
X972Y225D01*
X0Y224D02*
X7Y224D01*
X965Y224D02*
X972Y224D01*
X0Y223D02*
X7Y223D01*
X965Y223D02*
X972Y223D01*
X0Y222D02*
X7Y222D01*
X965Y222D02*
X972Y222D01*
X0Y221D02*
X7Y221D01*
X965Y221D02*
X972Y221D01*
X0Y220D02*
X7Y220D01*
X965Y220D02*
X972Y220D01*
X0Y219D02*
X7Y219D01*
X965Y219D02*
X972Y219D01*
X0Y218D02*
X7Y218D01*
X965Y218D02*
X972Y218D01*
X0Y217D02*
X7Y217D01*
X965Y217D02*
X972Y217D01*
X0Y216D02*
X7Y216D01*
X965Y216D02*
X972Y216D01*
X0Y215D02*
X7Y215D01*
X965Y215D02*
X972Y215D01*
X0Y214D02*
X7Y214D01*
X965Y214D02*
X972Y214D01*
X0Y213D02*
X7Y213D01*
X965Y213D02*
X972Y213D01*
X0Y212D02*
X7Y212D01*
X965Y212D02*
X972Y212D01*
X0Y211D02*
X7Y211D01*
X965Y211D02*
X972Y211D01*
X0Y210D02*
X7Y210D01*
X965Y210D02*
X972Y210D01*
X0Y209D02*
X7Y209D01*
X965Y209D02*
X972Y209D01*
X0Y208D02*
X7Y208D01*
X965Y208D02*
X972Y208D01*
X0Y207D02*
X7Y207D01*
X965Y207D02*
X972Y207D01*
X0Y206D02*
X7Y206D01*
X965Y206D02*
X972Y206D01*
X0Y205D02*
X7Y205D01*
X965Y205D02*
X972Y205D01*
X0Y204D02*
X7Y204D01*
X965Y204D02*
X972Y204D01*
X0Y203D02*
X7Y203D01*
X965Y203D02*
X972Y203D01*
X0Y202D02*
X7Y202D01*
X965Y202D02*
X972Y202D01*
X0Y201D02*
X7Y201D01*
X965Y201D02*
X972Y201D01*
X0Y200D02*
X7Y200D01*
X965Y200D02*
X972Y200D01*
X0Y199D02*
X7Y199D01*
X965Y199D02*
X972Y199D01*
X0Y198D02*
X7Y198D01*
X965Y198D02*
X972Y198D01*
X0Y197D02*
X7Y197D01*
X965Y197D02*
X972Y197D01*
X0Y196D02*
X7Y196D01*
X965Y196D02*
X972Y196D01*
X0Y195D02*
X7Y195D01*
X965Y195D02*
X972Y195D01*
X0Y194D02*
X7Y194D01*
X965Y194D02*
X972Y194D01*
X0Y193D02*
X7Y193D01*
X965Y193D02*
X972Y193D01*
X0Y192D02*
X7Y192D01*
X965Y192D02*
X972Y192D01*
X0Y191D02*
X7Y191D01*
X965Y191D02*
X972Y191D01*
X0Y190D02*
X7Y190D01*
X965Y190D02*
X972Y190D01*
X0Y189D02*
X7Y189D01*
X965Y189D02*
X972Y189D01*
X0Y188D02*
X7Y188D01*
X965Y188D02*
X972Y188D01*
X0Y187D02*
X7Y187D01*
X965Y187D02*
X972Y187D01*
X0Y186D02*
X7Y186D01*
X965Y186D02*
X972Y186D01*
X0Y185D02*
X7Y185D01*
X965Y185D02*
X972Y185D01*
X0Y184D02*
X7Y184D01*
X965Y184D02*
X972Y184D01*
X0Y183D02*
X7Y183D01*
X965Y183D02*
X972Y183D01*
X0Y182D02*
X7Y182D01*
X965Y182D02*
X972Y182D01*
X0Y181D02*
X7Y181D01*
X965Y181D02*
X972Y181D01*
X0Y180D02*
X7Y180D01*
X965Y180D02*
X972Y180D01*
X0Y179D02*
X7Y179D01*
X965Y179D02*
X972Y179D01*
X0Y178D02*
X7Y178D01*
X965Y178D02*
X972Y178D01*
X0Y177D02*
X7Y177D01*
X965Y177D02*
X972Y177D01*
X0Y176D02*
X7Y176D01*
X965Y176D02*
X972Y176D01*
X0Y175D02*
X7Y175D01*
X965Y175D02*
X972Y175D01*
X0Y174D02*
X7Y174D01*
X965Y174D02*
X972Y174D01*
X0Y173D02*
X7Y173D01*
X965Y173D02*
X972Y173D01*
X0Y172D02*
X7Y172D01*
X965Y172D02*
X972Y172D01*
X0Y171D02*
X7Y171D01*
X965Y171D02*
X972Y171D01*
X0Y170D02*
X7Y170D01*
X965Y170D02*
X972Y170D01*
X0Y169D02*
X7Y169D01*
X965Y169D02*
X972Y169D01*
X0Y168D02*
X7Y168D01*
X965Y168D02*
X972Y168D01*
X0Y167D02*
X7Y167D01*
X965Y167D02*
X972Y167D01*
X0Y166D02*
X7Y166D01*
X965Y166D02*
X972Y166D01*
X0Y165D02*
X7Y165D01*
X965Y165D02*
X972Y165D01*
X0Y164D02*
X7Y164D01*
X965Y164D02*
X972Y164D01*
X0Y163D02*
X7Y163D01*
X965Y163D02*
X972Y163D01*
X0Y162D02*
X7Y162D01*
X965Y162D02*
X972Y162D01*
X0Y161D02*
X7Y161D01*
X965Y161D02*
X972Y161D01*
X0Y160D02*
X7Y160D01*
X965Y160D02*
X972Y160D01*
X0Y159D02*
X7Y159D01*
X965Y159D02*
X972Y159D01*
X0Y158D02*
X7Y158D01*
X965Y158D02*
X972Y158D01*
X0Y157D02*
X7Y157D01*
X965Y157D02*
X972Y157D01*
X0Y156D02*
X7Y156D01*
X965Y156D02*
X972Y156D01*
X0Y155D02*
X7Y155D01*
X965Y155D02*
X972Y155D01*
X0Y154D02*
X7Y154D01*
X965Y154D02*
X972Y154D01*
X0Y153D02*
X7Y153D01*
X965Y153D02*
X972Y153D01*
X0Y152D02*
X7Y152D01*
X965Y152D02*
X972Y152D01*
X0Y151D02*
X7Y151D01*
X965Y151D02*
X972Y151D01*
X0Y150D02*
X7Y150D01*
X965Y150D02*
X972Y150D01*
X0Y149D02*
X7Y149D01*
X965Y149D02*
X972Y149D01*
X0Y148D02*
X7Y148D01*
X965Y148D02*
X972Y148D01*
X0Y147D02*
X7Y147D01*
X965Y147D02*
X972Y147D01*
X0Y146D02*
X7Y146D01*
X965Y146D02*
X972Y146D01*
X0Y145D02*
X7Y145D01*
X965Y145D02*
X972Y145D01*
X0Y144D02*
X7Y144D01*
X965Y144D02*
X972Y144D01*
X0Y143D02*
X7Y143D01*
X965Y143D02*
X972Y143D01*
X0Y142D02*
X7Y142D01*
X965Y142D02*
X972Y142D01*
X0Y141D02*
X7Y141D01*
X965Y141D02*
X972Y141D01*
X0Y140D02*
X7Y140D01*
X965Y140D02*
X972Y140D01*
X0Y139D02*
X7Y139D01*
X965Y139D02*
X972Y139D01*
X0Y138D02*
X7Y138D01*
X965Y138D02*
X972Y138D01*
X0Y137D02*
X7Y137D01*
X965Y137D02*
X972Y137D01*
X0Y136D02*
X7Y136D01*
X965Y136D02*
X972Y136D01*
X0Y135D02*
X7Y135D01*
X965Y135D02*
X972Y135D01*
X0Y134D02*
X7Y134D01*
X965Y134D02*
X972Y134D01*
X0Y133D02*
X7Y133D01*
X965Y133D02*
X972Y133D01*
X0Y132D02*
X7Y132D01*
X965Y132D02*
X972Y132D01*
X0Y131D02*
X7Y131D01*
X965Y131D02*
X972Y131D01*
X0Y130D02*
X7Y130D01*
X965Y130D02*
X972Y130D01*
X0Y129D02*
X7Y129D01*
X965Y129D02*
X972Y129D01*
X0Y128D02*
X7Y128D01*
X965Y128D02*
X972Y128D01*
X0Y127D02*
X7Y127D01*
X965Y127D02*
X972Y127D01*
X0Y126D02*
X7Y126D01*
X965Y126D02*
X972Y126D01*
X0Y125D02*
X7Y125D01*
X965Y125D02*
X972Y125D01*
X0Y124D02*
X7Y124D01*
X965Y124D02*
X972Y124D01*
X0Y123D02*
X7Y123D01*
X965Y123D02*
X972Y123D01*
X0Y122D02*
X7Y122D01*
X965Y122D02*
X972Y122D01*
X0Y121D02*
X7Y121D01*
X965Y121D02*
X972Y121D01*
X0Y120D02*
X7Y120D01*
X965Y120D02*
X972Y120D01*
X0Y119D02*
X7Y119D01*
X965Y119D02*
X972Y119D01*
X0Y118D02*
X7Y118D01*
X965Y118D02*
X972Y118D01*
X0Y117D02*
X7Y117D01*
X965Y117D02*
X972Y117D01*
X0Y116D02*
X7Y116D01*
X965Y116D02*
X972Y116D01*
X0Y115D02*
X7Y115D01*
X965Y115D02*
X972Y115D01*
X0Y114D02*
X7Y114D01*
X965Y114D02*
X972Y114D01*
X0Y113D02*
X7Y113D01*
X965Y113D02*
X972Y113D01*
X0Y112D02*
X7Y112D01*
X965Y112D02*
X972Y112D01*
X0Y111D02*
X7Y111D01*
X965Y111D02*
X972Y111D01*
X0Y110D02*
X7Y110D01*
X965Y110D02*
X972Y110D01*
X0Y109D02*
X7Y109D01*
X965Y109D02*
X972Y109D01*
X0Y108D02*
X7Y108D01*
X965Y108D02*
X972Y108D01*
X0Y107D02*
X7Y107D01*
X965Y107D02*
X972Y107D01*
X0Y106D02*
X7Y106D01*
X965Y106D02*
X972Y106D01*
X0Y105D02*
X7Y105D01*
X965Y105D02*
X972Y105D01*
X0Y104D02*
X7Y104D01*
X965Y104D02*
X972Y104D01*
X0Y103D02*
X7Y103D01*
X965Y103D02*
X972Y103D01*
X0Y102D02*
X7Y102D01*
X965Y102D02*
X972Y102D01*
X0Y101D02*
X7Y101D01*
X965Y101D02*
X972Y101D01*
X0Y100D02*
X7Y100D01*
X965Y100D02*
X972Y100D01*
X0Y99D02*
X7Y99D01*
X965Y99D02*
X972Y99D01*
X0Y98D02*
X7Y98D01*
X965Y98D02*
X972Y98D01*
X0Y97D02*
X7Y97D01*
X965Y97D02*
X972Y97D01*
X0Y96D02*
X7Y96D01*
X965Y96D02*
X972Y96D01*
X0Y95D02*
X7Y95D01*
X965Y95D02*
X972Y95D01*
X0Y94D02*
X7Y94D01*
X965Y94D02*
X972Y94D01*
X0Y93D02*
X7Y93D01*
X965Y93D02*
X972Y93D01*
X0Y92D02*
X7Y92D01*
X965Y92D02*
X972Y92D01*
X0Y91D02*
X7Y91D01*
X965Y91D02*
X972Y91D01*
X0Y90D02*
X7Y90D01*
X965Y90D02*
X972Y90D01*
X0Y89D02*
X7Y89D01*
X965Y89D02*
X972Y89D01*
X0Y88D02*
X7Y88D01*
X965Y88D02*
X972Y88D01*
X0Y87D02*
X7Y87D01*
X965Y87D02*
X972Y87D01*
X0Y86D02*
X7Y86D01*
X965Y86D02*
X972Y86D01*
X0Y85D02*
X7Y85D01*
X965Y85D02*
X972Y85D01*
X0Y84D02*
X7Y84D01*
X965Y84D02*
X972Y84D01*
X0Y83D02*
X7Y83D01*
X965Y83D02*
X972Y83D01*
X0Y82D02*
X7Y82D01*
X965Y82D02*
X972Y82D01*
X0Y81D02*
X7Y81D01*
X965Y81D02*
X972Y81D01*
X0Y80D02*
X7Y80D01*
X965Y80D02*
X972Y80D01*
X0Y79D02*
X7Y79D01*
X965Y79D02*
X972Y79D01*
X0Y78D02*
X7Y78D01*
X965Y78D02*
X972Y78D01*
X0Y77D02*
X7Y77D01*
X965Y77D02*
X972Y77D01*
X0Y76D02*
X7Y76D01*
X434Y76D02*
X436Y76D01*
X461Y76D02*
X464Y76D01*
X484Y76D02*
X502Y76D01*
X965Y76D02*
X972Y76D01*
X0Y75D02*
X7Y75D01*
X433Y75D02*
X437Y75D01*
X460Y75D02*
X465Y75D01*
X483Y75D02*
X502Y75D01*
X965Y75D02*
X972Y75D01*
X0Y74D02*
X7Y74D01*
X432Y74D02*
X438Y74D01*
X460Y74D02*
X465Y74D01*
X482Y74D02*
X502Y74D01*
X965Y74D02*
X972Y74D01*
X0Y73D02*
X7Y73D01*
X432Y73D02*
X438Y73D01*
X460Y73D02*
X466Y73D01*
X482Y73D02*
X502Y73D01*
X965Y73D02*
X972Y73D01*
X0Y72D02*
X7Y72D01*
X432Y72D02*
X438Y72D01*
X460Y72D02*
X466Y72D01*
X482Y72D02*
X502Y72D01*
X965Y72D02*
X972Y72D01*
X0Y71D02*
X7Y71D01*
X432Y71D02*
X438Y71D01*
X460Y71D02*
X466Y71D01*
X483Y71D02*
X502Y71D01*
X965Y71D02*
X972Y71D01*
X0Y70D02*
X7Y70D01*
X432Y70D02*
X438Y70D01*
X460Y70D02*
X466Y70D01*
X484Y70D02*
X502Y70D01*
X965Y70D02*
X972Y70D01*
X0Y69D02*
X7Y69D01*
X432Y69D02*
X438Y69D01*
X460Y69D02*
X466Y69D01*
X496Y69D02*
X502Y69D01*
X965Y69D02*
X972Y69D01*
X0Y68D02*
X7Y68D01*
X432Y68D02*
X438Y68D01*
X460Y68D02*
X466Y68D01*
X496Y68D02*
X502Y68D01*
X965Y68D02*
X972Y68D01*
X0Y67D02*
X7Y67D01*
X432Y67D02*
X438Y67D01*
X460Y67D02*
X466Y67D01*
X496Y67D02*
X502Y67D01*
X965Y67D02*
X972Y67D01*
X0Y66D02*
X7Y66D01*
X432Y66D02*
X438Y66D01*
X460Y66D02*
X466Y66D01*
X496Y66D02*
X502Y66D01*
X965Y66D02*
X972Y66D01*
X0Y65D02*
X7Y65D01*
X432Y65D02*
X438Y65D01*
X460Y65D02*
X466Y65D01*
X496Y65D02*
X502Y65D01*
X965Y65D02*
X972Y65D01*
X0Y64D02*
X7Y64D01*
X432Y64D02*
X438Y64D01*
X460Y64D02*
X466Y64D01*
X496Y64D02*
X502Y64D01*
X965Y64D02*
X972Y64D01*
X0Y63D02*
X7Y63D01*
X432Y63D02*
X438Y63D01*
X460Y63D02*
X466Y63D01*
X496Y63D02*
X502Y63D01*
X965Y63D02*
X972Y63D01*
X0Y62D02*
X7Y62D01*
X432Y62D02*
X438Y62D01*
X460Y62D02*
X466Y62D01*
X496Y62D02*
X502Y62D01*
X965Y62D02*
X972Y62D01*
X0Y61D02*
X7Y61D01*
X432Y61D02*
X438Y61D01*
X460Y61D02*
X466Y61D01*
X496Y61D02*
X502Y61D01*
X965Y61D02*
X972Y61D01*
X0Y60D02*
X7Y60D01*
X432Y60D02*
X438Y60D01*
X460Y60D02*
X466Y60D01*
X496Y60D02*
X502Y60D01*
X965Y60D02*
X972Y60D01*
X0Y59D02*
X7Y59D01*
X432Y59D02*
X438Y59D01*
X460Y59D02*
X466Y59D01*
X496Y59D02*
X502Y59D01*
X965Y59D02*
X972Y59D01*
X0Y58D02*
X7Y58D01*
X432Y58D02*
X438Y58D01*
X460Y58D02*
X466Y58D01*
X496Y58D02*
X502Y58D01*
X965Y58D02*
X972Y58D01*
X0Y57D02*
X7Y57D01*
X432Y57D02*
X438Y57D01*
X460Y57D02*
X466Y57D01*
X496Y57D02*
X502Y57D01*
X965Y57D02*
X972Y57D01*
X0Y56D02*
X7Y56D01*
X432Y56D02*
X438Y56D01*
X460Y56D02*
X466Y56D01*
X496Y56D02*
X502Y56D01*
X965Y56D02*
X972Y56D01*
X0Y55D02*
X7Y55D01*
X432Y55D02*
X438Y55D01*
X460Y55D02*
X466Y55D01*
X496Y55D02*
X502Y55D01*
X965Y55D02*
X972Y55D01*
X0Y54D02*
X7Y54D01*
X432Y54D02*
X438Y54D01*
X460Y54D02*
X466Y54D01*
X496Y54D02*
X502Y54D01*
X965Y54D02*
X972Y54D01*
X0Y53D02*
X7Y53D01*
X432Y53D02*
X438Y53D01*
X460Y53D02*
X466Y53D01*
X496Y53D02*
X502Y53D01*
X965Y53D02*
X972Y53D01*
X0Y52D02*
X7Y52D01*
X432Y52D02*
X438Y52D01*
X460Y52D02*
X466Y52D01*
X496Y52D02*
X502Y52D01*
X965Y52D02*
X972Y52D01*
X0Y51D02*
X7Y51D01*
X432Y51D02*
X438Y51D01*
X460Y51D02*
X466Y51D01*
X496Y51D02*
X502Y51D01*
X965Y51D02*
X972Y51D01*
X0Y50D02*
X7Y50D01*
X432Y50D02*
X438Y50D01*
X460Y50D02*
X466Y50D01*
X496Y50D02*
X502Y50D01*
X965Y50D02*
X972Y50D01*
X0Y49D02*
X7Y49D01*
X432Y49D02*
X438Y49D01*
X460Y49D02*
X466Y49D01*
X496Y49D02*
X502Y49D01*
X965Y49D02*
X972Y49D01*
X0Y48D02*
X7Y48D01*
X432Y48D02*
X438Y48D01*
X460Y48D02*
X466Y48D01*
X496Y48D02*
X502Y48D01*
X965Y48D02*
X972Y48D01*
X0Y47D02*
X7Y47D01*
X432Y47D02*
X438Y47D01*
X460Y47D02*
X466Y47D01*
X496Y47D02*
X502Y47D01*
X513Y47D02*
X513Y47D01*
X965Y47D02*
X972Y47D01*
X0Y46D02*
X7Y46D01*
X432Y46D02*
X438Y46D01*
X460Y46D02*
X466Y46D01*
X496Y46D02*
X502Y46D01*
X511Y46D02*
X515Y46D01*
X965Y46D02*
X972Y46D01*
X0Y45D02*
X7Y45D01*
X432Y45D02*
X438Y45D01*
X460Y45D02*
X466Y45D01*
X496Y45D02*
X502Y45D01*
X510Y45D02*
X515Y45D01*
X965Y45D02*
X972Y45D01*
X0Y44D02*
X7Y44D01*
X432Y44D02*
X438Y44D01*
X460Y44D02*
X466Y44D01*
X496Y44D02*
X502Y44D01*
X510Y44D02*
X516Y44D01*
X965Y44D02*
X972Y44D01*
X0Y43D02*
X7Y43D01*
X432Y43D02*
X438Y43D01*
X460Y43D02*
X466Y43D01*
X496Y43D02*
X502Y43D01*
X510Y43D02*
X516Y43D01*
X965Y43D02*
X972Y43D01*
X0Y42D02*
X7Y42D01*
X432Y42D02*
X438Y42D01*
X460Y42D02*
X466Y42D01*
X496Y42D02*
X502Y42D01*
X510Y42D02*
X516Y42D01*
X965Y42D02*
X972Y42D01*
X0Y41D02*
X7Y41D01*
X432Y41D02*
X438Y41D01*
X460Y41D02*
X466Y41D01*
X496Y41D02*
X502Y41D01*
X510Y41D02*
X516Y41D01*
X965Y41D02*
X972Y41D01*
X0Y40D02*
X7Y40D01*
X432Y40D02*
X438Y40D01*
X460Y40D02*
X466Y40D01*
X496Y40D02*
X502Y40D01*
X510Y40D02*
X516Y40D01*
X965Y40D02*
X972Y40D01*
X0Y39D02*
X7Y39D01*
X432Y39D02*
X438Y39D01*
X460Y39D02*
X466Y39D01*
X496Y39D02*
X502Y39D01*
X510Y39D02*
X516Y39D01*
X965Y39D02*
X972Y39D01*
X0Y38D02*
X7Y38D01*
X432Y38D02*
X438Y38D01*
X460Y38D02*
X466Y38D01*
X496Y38D02*
X502Y38D01*
X510Y38D02*
X516Y38D01*
X965Y38D02*
X972Y38D01*
X0Y37D02*
X7Y37D01*
X432Y37D02*
X438Y37D01*
X460Y37D02*
X466Y37D01*
X496Y37D02*
X502Y37D01*
X510Y37D02*
X516Y37D01*
X965Y37D02*
X972Y37D01*
X0Y36D02*
X7Y36D01*
X432Y36D02*
X438Y36D01*
X460Y36D02*
X466Y36D01*
X496Y36D02*
X502Y36D01*
X510Y36D02*
X516Y36D01*
X965Y36D02*
X972Y36D01*
X0Y35D02*
X7Y35D01*
X432Y35D02*
X438Y35D01*
X460Y35D02*
X466Y35D01*
X496Y35D02*
X502Y35D01*
X510Y35D02*
X516Y35D01*
X965Y35D02*
X972Y35D01*
X0Y34D02*
X7Y34D01*
X432Y34D02*
X438Y34D01*
X460Y34D02*
X466Y34D01*
X496Y34D02*
X502Y34D01*
X510Y34D02*
X516Y34D01*
X965Y34D02*
X972Y34D01*
X0Y33D02*
X7Y33D01*
X432Y33D02*
X438Y33D01*
X460Y33D02*
X466Y33D01*
X496Y33D02*
X502Y33D01*
X510Y33D02*
X516Y33D01*
X965Y33D02*
X972Y33D01*
X0Y32D02*
X7Y32D01*
X432Y32D02*
X438Y32D01*
X459Y32D02*
X466Y32D01*
X496Y32D02*
X502Y32D01*
X510Y32D02*
X516Y32D01*
X965Y32D02*
X972Y32D01*
X0Y31D02*
X7Y31D01*
X432Y31D02*
X439Y31D01*
X459Y31D02*
X465Y31D01*
X496Y31D02*
X502Y31D01*
X510Y31D02*
X516Y31D01*
X965Y31D02*
X972Y31D01*
X0Y30D02*
X7Y30D01*
X432Y30D02*
X440Y30D01*
X458Y30D02*
X465Y30D01*
X496Y30D02*
X502Y30D01*
X510Y30D02*
X516Y30D01*
X965Y30D02*
X972Y30D01*
X0Y29D02*
X7Y29D01*
X433Y29D02*
X465Y29D01*
X484Y29D02*
X516Y29D01*
X965Y29D02*
X972Y29D01*
X0Y28D02*
X7Y28D01*
X433Y28D02*
X464Y28D01*
X483Y28D02*
X516Y28D01*
X965Y28D02*
X972Y28D01*
X0Y27D02*
X7Y27D01*
X434Y27D02*
X464Y27D01*
X482Y27D02*
X516Y27D01*
X965Y27D02*
X972Y27D01*
X0Y26D02*
X7Y26D01*
X435Y26D02*
X463Y26D01*
X482Y26D02*
X516Y26D01*
X965Y26D02*
X972Y26D01*
X0Y25D02*
X7Y25D01*
X436Y25D02*
X462Y25D01*
X482Y25D02*
X516Y25D01*
X965Y25D02*
X972Y25D01*
X0Y24D02*
X7Y24D01*
X437Y24D02*
X461Y24D01*
X483Y24D02*
X515Y24D01*
X965Y24D02*
X972Y24D01*
X0Y23D02*
X7Y23D01*
X439Y23D02*
X459Y23D01*
X484Y23D02*
X514Y23D01*
X965Y23D02*
X972Y23D01*
X0Y22D02*
X7Y22D01*
X965Y22D02*
X972Y22D01*
X0Y21D02*
X7Y21D01*
X965Y21D02*
X972Y21D01*
X0Y20D02*
X7Y20D01*
X965Y20D02*
X972Y20D01*
X0Y19D02*
X7Y19D01*
X965Y19D02*
X972Y19D01*
X0Y18D02*
X7Y18D01*
X965Y18D02*
X972Y18D01*
X0Y17D02*
X7Y17D01*
X965Y17D02*
X972Y17D01*
X0Y16D02*
X7Y16D01*
X965Y16D02*
X972Y16D01*
X0Y15D02*
X7Y15D01*
X965Y15D02*
X972Y15D01*
X0Y14D02*
X7Y14D01*
X965Y14D02*
X972Y14D01*
X0Y13D02*
X7Y13D01*
X965Y13D02*
X972Y13D01*
X0Y12D02*
X7Y12D01*
X965Y12D02*
X972Y12D01*
X0Y11D02*
X7Y11D01*
X965Y11D02*
X972Y11D01*
X0Y10D02*
X7Y10D01*
X965Y10D02*
X972Y10D01*
X0Y9D02*
X972Y9D01*
X0Y8D02*
X972Y8D01*
X0Y7D02*
X972Y7D01*
X0Y6D02*
X972Y6D01*
X0Y5D02*
X972Y5D01*
X0Y4D02*
X972Y4D01*
X0Y3D02*
X972Y3D01*
X0Y2D02*
X972Y2D01*
D02*
G04 End of Silk1*
M02*