G04 MADE WITH FRITZING*
G04 WWW.FRITZING.ORG*
G04 DOUBLE SIDED*
G04 HOLES PLATED*
G04 CONTOUR ON CENTER OF CONTOUR VECTOR*
%ASAXBY*%
%FSLAX23Y23*%
%MOIN*%
%OFA0B0*%
%SFA1.0B1.0*%
%ADD10C,0.075000*%
%ADD11R,0.075000X0.075000*%
%ADD12C,0.032000*%
%LNCOPPER1*%
G90*
G70*
G54D10*
X184Y470D03*
X484Y470D03*
X184Y370D03*
X484Y370D03*
X184Y270D03*
X484Y270D03*
X184Y170D03*
X484Y170D03*
X184Y970D03*
X484Y970D03*
X184Y870D03*
X484Y870D03*
X184Y770D03*
X484Y770D03*
X184Y670D03*
X484Y670D03*
X734Y970D03*
X734Y570D03*
X884Y970D03*
X884Y570D03*
G54D11*
X184Y470D03*
X184Y970D03*
G54D12*
X85Y521D02*
X165Y641D01*
D02*
X85Y268D02*
X85Y521D01*
D02*
X160Y194D02*
X85Y268D01*
D02*
X286Y568D02*
X286Y871D01*
D02*
X286Y871D02*
X454Y954D01*
D02*
X454Y485D02*
X286Y568D01*
D02*
X632Y619D02*
X703Y585D01*
D02*
X632Y769D02*
X632Y619D01*
D02*
X512Y850D02*
X632Y769D01*
D02*
X734Y535D02*
X735Y418D01*
D02*
X632Y371D02*
X518Y370D01*
D02*
X735Y418D02*
X632Y371D01*
D02*
X768Y970D02*
X850Y970D01*
D02*
X518Y970D02*
X700Y970D01*
G04 End of Copper1*
M02*