; NON-PLATED HOLES START AT T1
; THROUGH (PLATED) HOLES START AT T100
M48
INCH
T1C0.035433
T100C0.015748
T101C0.035000
T102C0.040000
T103C0.031497
T104C0.038000
%
T1
X007836Y001668
X006655Y001668
T100
X001541Y011054
X001041Y005054
T101
X012041Y010054
X006041Y005554
X009041Y006554
X009041Y008554
X016041Y005054
X016041Y010054
X016041Y006554
X016041Y007554
X006041Y007554
X012041Y007554
X006041Y006554
X009041Y005554
X006041Y008554
X012041Y005054
X016041Y008554
X009041Y007554
X012041Y006554
X012041Y008554
T102
X002041Y007554
X002041Y008554
X003041Y008554
X003041Y007554
X002041Y006554
X003041Y006554
T103
X011541Y030054
X015041Y025070
X008041Y013070
X011541Y022054
X008041Y030054
X011541Y029070
X011541Y017070
X004041Y013070
X011541Y014054
X008041Y026054
X004041Y014054
X015041Y013070
X004041Y021070
X004041Y022054
X004041Y018054
X015041Y022054
X015041Y014054
X011541Y021070
X008041Y014054
X011541Y026054
X004041Y025070
X008041Y021070
X015041Y018054
X008041Y022054
X008041Y025070
X004041Y017070
X015041Y017070
X011541Y013070
X011541Y018054
X008041Y018054
X004041Y026054
X015041Y029070
X004541Y029070
X008041Y017070
X008041Y029070
X015041Y026054
X015041Y030054
X015041Y021070
X004541Y030054
X011541Y025070
T104
X011541Y001554
X010541Y001554
T00
M30
