G04 MADE WITH FRITZING*
G04 WWW.FRITZING.ORG*
G04 DOUBLE SIDED*
G04 HOLES PLATED*
G04 CONTOUR ON CENTER OF CONTOUR VECTOR*
%ASAXBY*%
%FSLAX23Y23*%
%MOIN*%
%OFA0B0*%
%SFA1.0B1.0*%
%ADD10C,0.075000*%
%ADD11C,0.078000*%
%ADD12C,0.074000*%
%ADD13C,0.039370*%
%ADD14C,0.062992*%
%ADD15R,0.075000X0.075000*%
%ADD16R,0.078000X0.078000*%
%ADD17R,0.062992X0.062992*%
%ADD18C,0.032000*%
%ADD19C,0.024000*%
%ADD20R,0.001000X0.001000*%
%LNCOPPER0*%
G90*
G70*
G54D10*
X770Y2389D03*
X217Y477D03*
X123Y3113D03*
X604Y855D03*
X904Y855D03*
X604Y755D03*
X904Y755D03*
X604Y655D03*
X904Y655D03*
X604Y555D03*
X904Y555D03*
G54D11*
X1154Y155D03*
X1054Y155D03*
G54D12*
X304Y655D03*
X204Y655D03*
X304Y755D03*
X204Y755D03*
X304Y855D03*
X204Y855D03*
G54D13*
X154Y1105D03*
X104Y505D03*
G54D14*
X1504Y1307D03*
X1504Y1405D03*
X1154Y1307D03*
X1154Y1405D03*
X804Y1307D03*
X804Y1405D03*
X404Y1307D03*
X404Y1405D03*
X1504Y1707D03*
X1504Y1805D03*
X1154Y1707D03*
X1154Y1805D03*
X804Y1707D03*
X804Y1805D03*
X404Y1707D03*
X404Y1805D03*
X1504Y2107D03*
X1504Y2205D03*
X1154Y2107D03*
X1154Y2205D03*
X804Y2107D03*
X804Y2205D03*
X404Y2107D03*
X404Y2205D03*
X1504Y2507D03*
X1504Y2605D03*
X1154Y2507D03*
X1154Y2605D03*
X804Y2507D03*
X804Y2605D03*
X404Y2507D03*
X404Y2605D03*
X1504Y2907D03*
X1504Y3005D03*
X1154Y2907D03*
X1154Y3005D03*
X804Y2907D03*
X804Y3005D03*
X454Y2907D03*
X454Y3005D03*
G54D10*
X1604Y1005D03*
X1204Y1005D03*
X1604Y855D03*
X1204Y855D03*
X1604Y755D03*
X1204Y755D03*
X1604Y655D03*
X1204Y655D03*
X1604Y505D03*
X1204Y505D03*
G54D15*
X604Y855D03*
G54D16*
X1154Y155D03*
G54D17*
X1504Y1307D03*
X1154Y1307D03*
X804Y1307D03*
X404Y1307D03*
X1504Y1707D03*
X1154Y1707D03*
X804Y1707D03*
X404Y1707D03*
X1504Y2107D03*
X1154Y2107D03*
X804Y2107D03*
X404Y2107D03*
X1504Y2507D03*
X1154Y2507D03*
X804Y2507D03*
X404Y2507D03*
X1504Y2907D03*
X1154Y2907D03*
X804Y2907D03*
X454Y2907D03*
G54D18*
X605Y2004D02*
X775Y2092D01*
D02*
X605Y1355D02*
X605Y2004D01*
D02*
X436Y1315D02*
X605Y1355D01*
D02*
X654Y2404D02*
X777Y2489D01*
D02*
X654Y2204D02*
X654Y2404D01*
D02*
X777Y2125D02*
X654Y2204D01*
D02*
X503Y2204D02*
X427Y2130D01*
D02*
X503Y2404D02*
X503Y2204D01*
D02*
X427Y2484D02*
X503Y2404D01*
D02*
X503Y1755D02*
X433Y1721D01*
D02*
X503Y2004D02*
X503Y1755D01*
D02*
X427Y2084D02*
X503Y2004D01*
D02*
X503Y2853D02*
X476Y2883D01*
D02*
X503Y2707D02*
X503Y2853D01*
D02*
X427Y2629D02*
X503Y2707D01*
D02*
X454Y1604D02*
X418Y1678D01*
D02*
X454Y1453D02*
X454Y1604D01*
D02*
X428Y1428D02*
X454Y1453D01*
D02*
X773Y2517D02*
X654Y2555D01*
D02*
X654Y2555D02*
X654Y2755D01*
D02*
X654Y2755D02*
X781Y2884D01*
G54D19*
D02*
X828Y2119D02*
X903Y2155D01*
D02*
X903Y2155D02*
X903Y2355D01*
D02*
X903Y2355D02*
X819Y2485D01*
D02*
X1178Y2519D02*
X1254Y2555D01*
D02*
X1254Y2555D02*
X1254Y2755D01*
D02*
X1254Y2755D02*
X1169Y2885D01*
G54D18*
D02*
X1005Y1907D02*
X1005Y2404D01*
D02*
X1005Y2404D02*
X1127Y2489D01*
D02*
X827Y1730D02*
X1005Y1907D01*
G54D19*
D02*
X1654Y2853D02*
X1523Y2986D01*
D02*
X1654Y2653D02*
X1654Y2853D01*
D02*
X1523Y2526D02*
X1654Y2653D01*
D02*
X1528Y2119D02*
X1605Y2155D01*
D02*
X1605Y2155D02*
X1605Y2404D01*
D02*
X1605Y2404D02*
X1523Y2488D01*
G54D18*
D02*
X1356Y2804D02*
X1477Y2889D01*
D02*
X1356Y2307D02*
X1356Y2804D01*
D02*
X1177Y2130D02*
X1356Y2307D01*
D02*
X1183Y1721D02*
X1254Y1755D01*
D02*
X1254Y1755D02*
X1254Y2004D01*
D02*
X1254Y2004D02*
X1177Y2084D01*
D02*
X903Y1355D02*
X903Y1604D01*
D02*
X903Y1604D02*
X827Y1684D01*
D02*
X833Y1321D02*
X903Y1355D01*
G54D19*
D02*
X1605Y2004D02*
X1523Y2088D01*
D02*
X1605Y1755D02*
X1605Y2004D01*
D02*
X1528Y1719D02*
X1605Y1755D01*
G54D18*
D02*
X1605Y1604D02*
X1605Y1355D01*
D02*
X1605Y1355D02*
X1533Y1321D01*
D02*
X1527Y1684D02*
X1605Y1604D01*
D02*
X1254Y1604D02*
X1177Y1684D01*
D02*
X1254Y1355D02*
X1254Y1604D01*
D02*
X1183Y1321D02*
X1254Y1355D01*
G54D19*
D02*
X405Y2555D02*
X405Y2534D01*
D02*
X405Y2604D02*
X405Y2555D01*
D02*
X423Y2586D02*
X405Y2604D01*
G54D18*
D02*
X352Y1058D02*
X313Y891D01*
D02*
X556Y1058D02*
X352Y1058D01*
D02*
X596Y889D02*
X556Y1058D01*
D02*
X654Y604D02*
X629Y579D01*
D02*
X756Y755D02*
X654Y604D01*
D02*
X654Y1107D02*
X756Y755D01*
D02*
X303Y1107D02*
X654Y1107D01*
D02*
X205Y1004D02*
X303Y1107D01*
D02*
X204Y892D02*
X205Y1004D01*
D02*
X805Y707D02*
X873Y740D01*
D02*
X703Y453D02*
X805Y707D01*
D02*
X405Y453D02*
X703Y453D01*
D02*
X405Y707D02*
X405Y453D01*
D02*
X337Y739D02*
X405Y707D01*
D02*
X805Y555D02*
X880Y631D01*
D02*
X805Y404D02*
X805Y555D01*
D02*
X356Y404D02*
X805Y404D01*
D02*
X312Y620D02*
X356Y404D01*
D02*
X903Y355D02*
X904Y521D01*
D02*
X303Y355D02*
X903Y355D01*
D02*
X54Y755D02*
X54Y453D01*
D02*
X156Y355D02*
X303Y355D01*
D02*
X54Y453D02*
X156Y355D01*
D02*
X167Y755D02*
X54Y755D01*
D02*
X205Y1155D02*
X703Y1155D01*
D02*
X703Y1155D02*
X885Y884D01*
D02*
X172Y1123D02*
X205Y1155D01*
D02*
X205Y555D02*
X205Y619D01*
D02*
X126Y516D02*
X205Y555D01*
G36*
X786Y2463D02*
X786Y2461D01*
X782Y2461D01*
X782Y2459D01*
X780Y2459D01*
X780Y2457D01*
X776Y2457D01*
X776Y2455D01*
X774Y2455D01*
X774Y2453D01*
X770Y2453D01*
X770Y2451D01*
X768Y2451D01*
X768Y2449D01*
X764Y2449D01*
X764Y2447D01*
X762Y2447D01*
X762Y2445D01*
X758Y2445D01*
X758Y2443D01*
X756Y2443D01*
X756Y2441D01*
X752Y2441D01*
X752Y2439D01*
X750Y2439D01*
X750Y2437D01*
X748Y2437D01*
X748Y2435D01*
X744Y2435D01*
X744Y2433D01*
X742Y2433D01*
X742Y2431D01*
X738Y2431D01*
X738Y2429D01*
X736Y2429D01*
X736Y2427D01*
X732Y2427D01*
X732Y2425D01*
X730Y2425D01*
X730Y2423D01*
X726Y2423D01*
X726Y2421D01*
X724Y2421D01*
X724Y2419D01*
X720Y2419D01*
X720Y2417D01*
X718Y2417D01*
X718Y2415D01*
X714Y2415D01*
X714Y2413D01*
X712Y2413D01*
X712Y2411D01*
X710Y2411D01*
X710Y2409D01*
X706Y2409D01*
X706Y2407D01*
X704Y2407D01*
X704Y2405D01*
X700Y2405D01*
X700Y2403D01*
X698Y2403D01*
X698Y2401D01*
X694Y2401D01*
X694Y2399D01*
X692Y2399D01*
X692Y2397D01*
X688Y2397D01*
X688Y2395D01*
X686Y2395D01*
X686Y2393D01*
X682Y2393D01*
X682Y2391D01*
X680Y2391D01*
X680Y2247D01*
X808Y2247D01*
X808Y2245D01*
X818Y2245D01*
X818Y2243D01*
X822Y2243D01*
X822Y2241D01*
X826Y2241D01*
X826Y2239D01*
X828Y2239D01*
X828Y2237D01*
X832Y2237D01*
X832Y2235D01*
X834Y2235D01*
X834Y2233D01*
X836Y2233D01*
X836Y2229D01*
X838Y2229D01*
X838Y2227D01*
X840Y2227D01*
X840Y2223D01*
X842Y2223D01*
X842Y2219D01*
X844Y2219D01*
X844Y2211D01*
X846Y2211D01*
X846Y2199D01*
X844Y2199D01*
X844Y2191D01*
X842Y2191D01*
X842Y2187D01*
X840Y2187D01*
X840Y2183D01*
X838Y2183D01*
X838Y2181D01*
X836Y2181D01*
X836Y2177D01*
X834Y2177D01*
X834Y2175D01*
X832Y2175D01*
X832Y2173D01*
X828Y2173D01*
X828Y2171D01*
X826Y2171D01*
X826Y2169D01*
X822Y2169D01*
X822Y2149D01*
X842Y2149D01*
X842Y2151D01*
X846Y2151D01*
X846Y2153D01*
X850Y2153D01*
X850Y2155D01*
X856Y2155D01*
X856Y2157D01*
X860Y2157D01*
X860Y2159D01*
X864Y2159D01*
X864Y2161D01*
X868Y2161D01*
X868Y2163D01*
X872Y2163D01*
X872Y2165D01*
X876Y2165D01*
X876Y2167D01*
X880Y2167D01*
X880Y2351D01*
X878Y2351D01*
X878Y2355D01*
X876Y2355D01*
X876Y2357D01*
X874Y2357D01*
X874Y2361D01*
X872Y2361D01*
X872Y2363D01*
X870Y2363D01*
X870Y2367D01*
X868Y2367D01*
X868Y2369D01*
X866Y2369D01*
X866Y2373D01*
X864Y2373D01*
X864Y2377D01*
X862Y2377D01*
X862Y2379D01*
X860Y2379D01*
X860Y2383D01*
X858Y2383D01*
X858Y2385D01*
X856Y2385D01*
X856Y2389D01*
X854Y2389D01*
X854Y2391D01*
X852Y2391D01*
X852Y2395D01*
X850Y2395D01*
X850Y2397D01*
X848Y2397D01*
X848Y2401D01*
X846Y2401D01*
X846Y2403D01*
X844Y2403D01*
X844Y2407D01*
X842Y2407D01*
X842Y2409D01*
X840Y2409D01*
X840Y2413D01*
X838Y2413D01*
X838Y2415D01*
X836Y2415D01*
X836Y2419D01*
X834Y2419D01*
X834Y2423D01*
X832Y2423D01*
X832Y2425D01*
X830Y2425D01*
X830Y2429D01*
X828Y2429D01*
X828Y2431D01*
X826Y2431D01*
X826Y2435D01*
X824Y2435D01*
X824Y2437D01*
X822Y2437D01*
X822Y2441D01*
X820Y2441D01*
X820Y2443D01*
X818Y2443D01*
X818Y2447D01*
X816Y2447D01*
X816Y2449D01*
X814Y2449D01*
X814Y2453D01*
X812Y2453D01*
X812Y2455D01*
X810Y2455D01*
X810Y2459D01*
X808Y2459D01*
X808Y2461D01*
X806Y2461D01*
X806Y2463D01*
X786Y2463D01*
G37*
D02*
G36*
X680Y2247D02*
X680Y2217D01*
X684Y2217D01*
X684Y2215D01*
X686Y2215D01*
X686Y2213D01*
X690Y2213D01*
X690Y2211D01*
X692Y2211D01*
X692Y2209D01*
X696Y2209D01*
X696Y2207D01*
X698Y2207D01*
X698Y2205D01*
X702Y2205D01*
X702Y2203D01*
X704Y2203D01*
X704Y2201D01*
X708Y2201D01*
X708Y2199D01*
X710Y2199D01*
X710Y2197D01*
X714Y2197D01*
X714Y2195D01*
X718Y2195D01*
X718Y2193D01*
X720Y2193D01*
X720Y2191D01*
X724Y2191D01*
X724Y2189D01*
X726Y2189D01*
X726Y2187D01*
X730Y2187D01*
X730Y2185D01*
X732Y2185D01*
X732Y2183D01*
X736Y2183D01*
X736Y2181D01*
X738Y2181D01*
X738Y2179D01*
X742Y2179D01*
X742Y2177D01*
X744Y2177D01*
X744Y2175D01*
X748Y2175D01*
X748Y2173D01*
X752Y2173D01*
X752Y2171D01*
X754Y2171D01*
X754Y2169D01*
X774Y2169D01*
X774Y2177D01*
X772Y2177D01*
X772Y2181D01*
X770Y2181D01*
X770Y2183D01*
X768Y2183D01*
X768Y2187D01*
X766Y2187D01*
X766Y2191D01*
X764Y2191D01*
X764Y2201D01*
X762Y2201D01*
X762Y2209D01*
X764Y2209D01*
X764Y2219D01*
X766Y2219D01*
X766Y2223D01*
X768Y2223D01*
X768Y2227D01*
X770Y2227D01*
X770Y2229D01*
X772Y2229D01*
X772Y2233D01*
X774Y2233D01*
X774Y2235D01*
X776Y2235D01*
X776Y2237D01*
X780Y2237D01*
X780Y2239D01*
X782Y2239D01*
X782Y2241D01*
X786Y2241D01*
X786Y2243D01*
X790Y2243D01*
X790Y2245D01*
X800Y2245D01*
X800Y2247D01*
X680Y2247D01*
G37*
D02*
G36*
X244Y833D02*
X244Y829D01*
X242Y829D01*
X242Y827D01*
X240Y827D01*
X240Y823D01*
X238Y823D01*
X238Y821D01*
X236Y821D01*
X236Y819D01*
X232Y819D01*
X232Y817D01*
X230Y817D01*
X230Y815D01*
X226Y815D01*
X226Y795D01*
X230Y795D01*
X230Y793D01*
X232Y793D01*
X232Y791D01*
X236Y791D01*
X236Y789D01*
X238Y789D01*
X238Y787D01*
X240Y787D01*
X240Y783D01*
X242Y783D01*
X242Y781D01*
X244Y781D01*
X244Y777D01*
X264Y777D01*
X264Y781D01*
X266Y781D01*
X266Y783D01*
X268Y783D01*
X268Y785D01*
X270Y785D01*
X270Y789D01*
X274Y789D01*
X274Y791D01*
X276Y791D01*
X276Y793D01*
X278Y793D01*
X278Y795D01*
X282Y795D01*
X282Y815D01*
X278Y815D01*
X278Y817D01*
X276Y817D01*
X276Y819D01*
X274Y819D01*
X274Y821D01*
X270Y821D01*
X270Y825D01*
X268Y825D01*
X268Y827D01*
X266Y827D01*
X266Y829D01*
X264Y829D01*
X264Y833D01*
X244Y833D01*
G37*
D02*
G36*
X80Y729D02*
X80Y535D01*
X110Y535D01*
X110Y537D01*
X112Y537D01*
X112Y539D01*
X116Y539D01*
X116Y541D01*
X120Y541D01*
X120Y543D01*
X124Y543D01*
X124Y545D01*
X128Y545D01*
X128Y547D01*
X132Y547D01*
X132Y549D01*
X136Y549D01*
X136Y551D01*
X140Y551D01*
X140Y553D01*
X144Y553D01*
X144Y555D01*
X148Y555D01*
X148Y557D01*
X152Y557D01*
X152Y559D01*
X156Y559D01*
X156Y561D01*
X160Y561D01*
X160Y563D01*
X164Y563D01*
X164Y565D01*
X168Y565D01*
X168Y567D01*
X172Y567D01*
X172Y569D01*
X176Y569D01*
X176Y571D01*
X178Y571D01*
X178Y617D01*
X176Y617D01*
X176Y619D01*
X174Y619D01*
X174Y621D01*
X170Y621D01*
X170Y625D01*
X168Y625D01*
X168Y627D01*
X166Y627D01*
X166Y629D01*
X164Y629D01*
X164Y633D01*
X162Y633D01*
X162Y637D01*
X160Y637D01*
X160Y643D01*
X158Y643D01*
X158Y667D01*
X160Y667D01*
X160Y673D01*
X162Y673D01*
X162Y677D01*
X164Y677D01*
X164Y681D01*
X166Y681D01*
X166Y683D01*
X168Y683D01*
X168Y685D01*
X170Y685D01*
X170Y689D01*
X174Y689D01*
X174Y691D01*
X176Y691D01*
X176Y693D01*
X178Y693D01*
X178Y695D01*
X182Y695D01*
X182Y715D01*
X178Y715D01*
X178Y717D01*
X176Y717D01*
X176Y719D01*
X174Y719D01*
X174Y721D01*
X170Y721D01*
X170Y725D01*
X168Y725D01*
X168Y727D01*
X166Y727D01*
X166Y729D01*
X80Y729D01*
G37*
D02*
G36*
X852Y701D02*
X852Y699D01*
X848Y699D01*
X848Y697D01*
X844Y697D01*
X844Y695D01*
X840Y695D01*
X840Y693D01*
X836Y693D01*
X836Y691D01*
X832Y691D01*
X832Y689D01*
X828Y689D01*
X828Y687D01*
X826Y687D01*
X826Y685D01*
X824Y685D01*
X824Y681D01*
X822Y681D01*
X822Y675D01*
X820Y675D01*
X820Y671D01*
X818Y671D01*
X818Y665D01*
X816Y665D01*
X816Y661D01*
X814Y661D01*
X814Y655D01*
X812Y655D01*
X812Y651D01*
X810Y651D01*
X810Y645D01*
X808Y645D01*
X808Y641D01*
X806Y641D01*
X806Y637D01*
X804Y637D01*
X804Y631D01*
X802Y631D01*
X802Y627D01*
X800Y627D01*
X800Y621D01*
X798Y621D01*
X798Y617D01*
X796Y617D01*
X796Y611D01*
X794Y611D01*
X794Y607D01*
X792Y607D01*
X792Y601D01*
X790Y601D01*
X790Y597D01*
X788Y597D01*
X788Y593D01*
X808Y593D01*
X808Y595D01*
X810Y595D01*
X810Y597D01*
X812Y597D01*
X812Y599D01*
X814Y599D01*
X814Y601D01*
X816Y601D01*
X816Y603D01*
X818Y603D01*
X818Y605D01*
X820Y605D01*
X820Y607D01*
X822Y607D01*
X822Y609D01*
X824Y609D01*
X824Y611D01*
X826Y611D01*
X826Y615D01*
X828Y615D01*
X828Y617D01*
X830Y617D01*
X830Y619D01*
X832Y619D01*
X832Y621D01*
X834Y621D01*
X834Y623D01*
X836Y623D01*
X836Y625D01*
X838Y625D01*
X838Y627D01*
X840Y627D01*
X840Y629D01*
X842Y629D01*
X842Y631D01*
X844Y631D01*
X844Y633D01*
X846Y633D01*
X846Y635D01*
X848Y635D01*
X848Y637D01*
X850Y637D01*
X850Y639D01*
X852Y639D01*
X852Y641D01*
X854Y641D01*
X854Y643D01*
X856Y643D01*
X856Y661D01*
X858Y661D01*
X858Y669D01*
X860Y669D01*
X860Y675D01*
X862Y675D01*
X862Y679D01*
X864Y679D01*
X864Y681D01*
X866Y681D01*
X866Y685D01*
X868Y685D01*
X868Y687D01*
X870Y687D01*
X870Y689D01*
X872Y689D01*
X872Y691D01*
X874Y691D01*
X874Y701D01*
X852Y701D01*
G37*
D02*
G36*
X352Y693D02*
X352Y609D01*
X350Y609D01*
X350Y607D01*
X344Y607D01*
X344Y587D01*
X346Y587D01*
X346Y577D01*
X348Y577D01*
X348Y567D01*
X350Y567D01*
X350Y557D01*
X352Y557D01*
X352Y547D01*
X354Y547D01*
X354Y539D01*
X356Y539D01*
X356Y529D01*
X358Y529D01*
X358Y519D01*
X360Y519D01*
X360Y509D01*
X380Y509D01*
X380Y689D01*
X378Y689D01*
X378Y691D01*
X374Y691D01*
X374Y693D01*
X352Y693D01*
G37*
D02*
G36*
X238Y623D02*
X238Y621D01*
X236Y621D01*
X236Y619D01*
X232Y619D01*
X232Y617D01*
X230Y617D01*
X230Y575D01*
X232Y575D01*
X232Y551D01*
X230Y551D01*
X230Y545D01*
X228Y545D01*
X228Y541D01*
X226Y541D01*
X226Y539D01*
X224Y539D01*
X224Y537D01*
X222Y537D01*
X222Y535D01*
X220Y535D01*
X220Y533D01*
X218Y533D01*
X218Y531D01*
X214Y531D01*
X214Y529D01*
X210Y529D01*
X210Y527D01*
X206Y527D01*
X206Y525D01*
X202Y525D01*
X202Y523D01*
X198Y523D01*
X198Y521D01*
X194Y521D01*
X194Y519D01*
X190Y519D01*
X190Y517D01*
X186Y517D01*
X186Y515D01*
X180Y515D01*
X180Y513D01*
X176Y513D01*
X176Y511D01*
X172Y511D01*
X172Y509D01*
X168Y509D01*
X168Y507D01*
X164Y507D01*
X164Y505D01*
X160Y505D01*
X160Y503D01*
X156Y503D01*
X156Y501D01*
X152Y501D01*
X152Y499D01*
X148Y499D01*
X148Y497D01*
X144Y497D01*
X144Y495D01*
X140Y495D01*
X140Y493D01*
X136Y493D01*
X136Y491D01*
X130Y491D01*
X130Y489D01*
X128Y489D01*
X128Y487D01*
X126Y487D01*
X126Y485D01*
X124Y485D01*
X124Y483D01*
X122Y483D01*
X122Y481D01*
X120Y481D01*
X120Y479D01*
X116Y479D01*
X116Y477D01*
X110Y477D01*
X110Y475D01*
X80Y475D01*
X80Y463D01*
X82Y463D01*
X82Y461D01*
X84Y461D01*
X84Y459D01*
X86Y459D01*
X86Y457D01*
X88Y457D01*
X88Y455D01*
X90Y455D01*
X90Y453D01*
X92Y453D01*
X92Y451D01*
X94Y451D01*
X94Y449D01*
X96Y449D01*
X96Y447D01*
X98Y447D01*
X98Y445D01*
X100Y445D01*
X100Y443D01*
X104Y443D01*
X104Y441D01*
X106Y441D01*
X106Y439D01*
X108Y439D01*
X108Y437D01*
X110Y437D01*
X110Y435D01*
X112Y435D01*
X112Y433D01*
X114Y433D01*
X114Y431D01*
X116Y431D01*
X116Y429D01*
X118Y429D01*
X118Y427D01*
X120Y427D01*
X120Y425D01*
X122Y425D01*
X122Y423D01*
X124Y423D01*
X124Y421D01*
X126Y421D01*
X126Y419D01*
X128Y419D01*
X128Y417D01*
X130Y417D01*
X130Y415D01*
X132Y415D01*
X132Y413D01*
X134Y413D01*
X134Y411D01*
X136Y411D01*
X136Y409D01*
X138Y409D01*
X138Y407D01*
X140Y407D01*
X140Y405D01*
X142Y405D01*
X142Y403D01*
X144Y403D01*
X144Y401D01*
X146Y401D01*
X146Y399D01*
X150Y399D01*
X150Y397D01*
X152Y397D01*
X152Y395D01*
X154Y395D01*
X154Y393D01*
X156Y393D01*
X156Y391D01*
X158Y391D01*
X158Y389D01*
X160Y389D01*
X160Y387D01*
X162Y387D01*
X162Y385D01*
X164Y385D01*
X164Y383D01*
X166Y383D01*
X166Y381D01*
X330Y381D01*
X330Y407D01*
X328Y407D01*
X328Y417D01*
X326Y417D01*
X326Y427D01*
X324Y427D01*
X324Y437D01*
X322Y437D01*
X322Y447D01*
X320Y447D01*
X320Y455D01*
X318Y455D01*
X318Y465D01*
X316Y465D01*
X316Y475D01*
X314Y475D01*
X314Y485D01*
X312Y485D01*
X312Y495D01*
X310Y495D01*
X310Y503D01*
X308Y503D01*
X308Y513D01*
X306Y513D01*
X306Y523D01*
X304Y523D01*
X304Y533D01*
X302Y533D01*
X302Y543D01*
X300Y543D01*
X300Y551D01*
X298Y551D01*
X298Y561D01*
X296Y561D01*
X296Y571D01*
X294Y571D01*
X294Y581D01*
X292Y581D01*
X292Y591D01*
X290Y591D01*
X290Y599D01*
X288Y599D01*
X288Y607D01*
X258Y607D01*
X258Y623D01*
X238Y623D01*
G37*
D02*
G36*
X836Y551D02*
X836Y549D01*
X834Y549D01*
X834Y547D01*
X832Y547D01*
X832Y401D01*
X830Y401D01*
X830Y381D01*
X878Y381D01*
X878Y517D01*
X874Y517D01*
X874Y519D01*
X872Y519D01*
X872Y521D01*
X870Y521D01*
X870Y523D01*
X868Y523D01*
X868Y525D01*
X866Y525D01*
X866Y529D01*
X864Y529D01*
X864Y531D01*
X862Y531D01*
X862Y535D01*
X860Y535D01*
X860Y541D01*
X858Y541D01*
X858Y549D01*
X856Y549D01*
X856Y551D01*
X836Y551D01*
G37*
D02*
G36*
X760Y527D02*
X760Y523D01*
X758Y523D01*
X758Y517D01*
X756Y517D01*
X756Y513D01*
X754Y513D01*
X754Y507D01*
X752Y507D01*
X752Y503D01*
X750Y503D01*
X750Y497D01*
X748Y497D01*
X748Y493D01*
X746Y493D01*
X746Y487D01*
X744Y487D01*
X744Y483D01*
X742Y483D01*
X742Y477D01*
X740Y477D01*
X740Y473D01*
X738Y473D01*
X738Y467D01*
X736Y467D01*
X736Y463D01*
X734Y463D01*
X734Y457D01*
X732Y457D01*
X732Y453D01*
X730Y453D01*
X730Y429D01*
X780Y429D01*
X780Y527D01*
X760Y527D01*
G37*
D02*
G36*
X40Y3195D02*
X40Y3047D01*
X1508Y3047D01*
X1508Y3045D01*
X1518Y3045D01*
X1518Y3043D01*
X1522Y3043D01*
X1522Y3041D01*
X1526Y3041D01*
X1526Y3039D01*
X1528Y3039D01*
X1528Y3037D01*
X1532Y3037D01*
X1532Y3035D01*
X1534Y3035D01*
X1534Y3033D01*
X1536Y3033D01*
X1536Y3029D01*
X1538Y3029D01*
X1538Y3027D01*
X1540Y3027D01*
X1540Y3023D01*
X1542Y3023D01*
X1542Y3019D01*
X1544Y3019D01*
X1544Y3011D01*
X1546Y3011D01*
X1546Y2993D01*
X1548Y2993D01*
X1548Y2991D01*
X1550Y2991D01*
X1550Y2989D01*
X1552Y2989D01*
X1552Y2987D01*
X1554Y2987D01*
X1554Y2985D01*
X1556Y2985D01*
X1556Y2983D01*
X1558Y2983D01*
X1558Y2981D01*
X1560Y2981D01*
X1560Y2979D01*
X1562Y2979D01*
X1562Y2977D01*
X1564Y2977D01*
X1564Y2975D01*
X1566Y2975D01*
X1566Y2973D01*
X1568Y2973D01*
X1568Y2971D01*
X1570Y2971D01*
X1570Y2969D01*
X1572Y2969D01*
X1572Y2967D01*
X1574Y2967D01*
X1574Y2965D01*
X1576Y2965D01*
X1576Y2963D01*
X1578Y2963D01*
X1578Y2961D01*
X1580Y2961D01*
X1580Y2959D01*
X1582Y2959D01*
X1582Y2957D01*
X1584Y2957D01*
X1584Y2955D01*
X1586Y2955D01*
X1586Y2953D01*
X1588Y2953D01*
X1588Y2951D01*
X1590Y2951D01*
X1590Y2949D01*
X1592Y2949D01*
X1592Y2947D01*
X1594Y2947D01*
X1594Y2945D01*
X1596Y2945D01*
X1596Y2943D01*
X1598Y2943D01*
X1598Y2941D01*
X1600Y2941D01*
X1600Y2939D01*
X1602Y2939D01*
X1602Y2937D01*
X1604Y2937D01*
X1604Y2933D01*
X1606Y2933D01*
X1606Y2931D01*
X1608Y2931D01*
X1608Y2929D01*
X1610Y2929D01*
X1610Y2927D01*
X1612Y2927D01*
X1612Y2925D01*
X1614Y2925D01*
X1614Y2923D01*
X1616Y2923D01*
X1616Y2921D01*
X1618Y2921D01*
X1618Y2919D01*
X1620Y2919D01*
X1620Y2917D01*
X1622Y2917D01*
X1622Y2915D01*
X1624Y2915D01*
X1624Y2913D01*
X1626Y2913D01*
X1626Y2911D01*
X1628Y2911D01*
X1628Y2909D01*
X1630Y2909D01*
X1630Y2907D01*
X1632Y2907D01*
X1632Y2905D01*
X1634Y2905D01*
X1634Y2903D01*
X1636Y2903D01*
X1636Y2901D01*
X1638Y2901D01*
X1638Y2899D01*
X1640Y2899D01*
X1640Y2897D01*
X1642Y2897D01*
X1642Y2895D01*
X1644Y2895D01*
X1644Y2893D01*
X1646Y2893D01*
X1646Y2891D01*
X1648Y2891D01*
X1648Y2889D01*
X1650Y2889D01*
X1650Y2887D01*
X1652Y2887D01*
X1652Y2885D01*
X1654Y2885D01*
X1654Y2883D01*
X1656Y2883D01*
X1656Y2881D01*
X1658Y2881D01*
X1658Y2879D01*
X1660Y2879D01*
X1660Y2877D01*
X1662Y2877D01*
X1662Y2875D01*
X1664Y2875D01*
X1664Y2873D01*
X1666Y2873D01*
X1666Y2871D01*
X1668Y2871D01*
X1668Y2869D01*
X1670Y2869D01*
X1670Y2867D01*
X1672Y2867D01*
X1672Y2863D01*
X1674Y2863D01*
X1674Y2859D01*
X1676Y2859D01*
X1676Y2647D01*
X1674Y2647D01*
X1674Y2641D01*
X1672Y2641D01*
X1672Y2639D01*
X1670Y2639D01*
X1670Y2637D01*
X1668Y2637D01*
X1668Y2635D01*
X1666Y2635D01*
X1666Y2633D01*
X1664Y2633D01*
X1664Y2631D01*
X1662Y2631D01*
X1662Y2629D01*
X1660Y2629D01*
X1660Y2627D01*
X1658Y2627D01*
X1658Y2625D01*
X1656Y2625D01*
X1656Y2623D01*
X1654Y2623D01*
X1654Y2621D01*
X1652Y2621D01*
X1652Y2619D01*
X1650Y2619D01*
X1650Y2617D01*
X1648Y2617D01*
X1648Y2615D01*
X1646Y2615D01*
X1646Y2613D01*
X1644Y2613D01*
X1644Y2611D01*
X1642Y2611D01*
X1642Y2609D01*
X1640Y2609D01*
X1640Y2607D01*
X1638Y2607D01*
X1638Y2605D01*
X1636Y2605D01*
X1636Y2603D01*
X1634Y2603D01*
X1634Y2601D01*
X1632Y2601D01*
X1632Y2599D01*
X1630Y2599D01*
X1630Y2597D01*
X1628Y2597D01*
X1628Y2595D01*
X1626Y2595D01*
X1626Y2593D01*
X1624Y2593D01*
X1624Y2591D01*
X1622Y2591D01*
X1622Y2589D01*
X1620Y2589D01*
X1620Y2587D01*
X1618Y2587D01*
X1618Y2585D01*
X1616Y2585D01*
X1616Y2583D01*
X1614Y2583D01*
X1614Y2581D01*
X1610Y2581D01*
X1610Y2579D01*
X1608Y2579D01*
X1608Y2577D01*
X1606Y2577D01*
X1606Y2575D01*
X1604Y2575D01*
X1604Y2573D01*
X1602Y2573D01*
X1602Y2571D01*
X1600Y2571D01*
X1600Y2569D01*
X1598Y2569D01*
X1598Y2567D01*
X1596Y2567D01*
X1596Y2565D01*
X1594Y2565D01*
X1594Y2563D01*
X1592Y2563D01*
X1592Y2561D01*
X1590Y2561D01*
X1590Y2559D01*
X1588Y2559D01*
X1588Y2557D01*
X1586Y2557D01*
X1586Y2555D01*
X1584Y2555D01*
X1584Y2553D01*
X1582Y2553D01*
X1582Y2551D01*
X1580Y2551D01*
X1580Y2549D01*
X1578Y2549D01*
X1578Y2547D01*
X1576Y2547D01*
X1576Y2545D01*
X1574Y2545D01*
X1574Y2543D01*
X1572Y2543D01*
X1572Y2541D01*
X1570Y2541D01*
X1570Y2539D01*
X1568Y2539D01*
X1568Y2537D01*
X1566Y2537D01*
X1566Y2535D01*
X1564Y2535D01*
X1564Y2533D01*
X1562Y2533D01*
X1562Y2531D01*
X1560Y2531D01*
X1560Y2529D01*
X1558Y2529D01*
X1558Y2527D01*
X1556Y2527D01*
X1556Y2525D01*
X1554Y2525D01*
X1554Y2523D01*
X1552Y2523D01*
X1552Y2521D01*
X1550Y2521D01*
X1550Y2519D01*
X1548Y2519D01*
X1548Y2517D01*
X1546Y2517D01*
X1546Y2495D01*
X1548Y2495D01*
X1548Y2493D01*
X1550Y2493D01*
X1550Y2491D01*
X1552Y2491D01*
X1552Y2489D01*
X1554Y2489D01*
X1554Y2487D01*
X1556Y2487D01*
X1556Y2485D01*
X1558Y2485D01*
X1558Y2483D01*
X1560Y2483D01*
X1560Y2481D01*
X1562Y2481D01*
X1562Y2479D01*
X1564Y2479D01*
X1564Y2477D01*
X1566Y2477D01*
X1566Y2475D01*
X1568Y2475D01*
X1568Y2473D01*
X1570Y2473D01*
X1570Y2469D01*
X1572Y2469D01*
X1572Y2467D01*
X1574Y2467D01*
X1574Y2465D01*
X1576Y2465D01*
X1576Y2463D01*
X1578Y2463D01*
X1578Y2461D01*
X1580Y2461D01*
X1580Y2459D01*
X1582Y2459D01*
X1582Y2457D01*
X1584Y2457D01*
X1584Y2455D01*
X1586Y2455D01*
X1586Y2453D01*
X1588Y2453D01*
X1588Y2451D01*
X1590Y2451D01*
X1590Y2449D01*
X1592Y2449D01*
X1592Y2447D01*
X1594Y2447D01*
X1594Y2445D01*
X1596Y2445D01*
X1596Y2443D01*
X1598Y2443D01*
X1598Y2441D01*
X1600Y2441D01*
X1600Y2439D01*
X1602Y2439D01*
X1602Y2437D01*
X1604Y2437D01*
X1604Y2435D01*
X1606Y2435D01*
X1606Y2433D01*
X1608Y2433D01*
X1608Y2431D01*
X1610Y2431D01*
X1610Y2429D01*
X1612Y2429D01*
X1612Y2427D01*
X1614Y2427D01*
X1614Y2425D01*
X1616Y2425D01*
X1616Y2423D01*
X1618Y2423D01*
X1618Y2421D01*
X1620Y2421D01*
X1620Y2419D01*
X1622Y2419D01*
X1622Y2417D01*
X1624Y2417D01*
X1624Y2413D01*
X1626Y2413D01*
X1626Y2407D01*
X1628Y2407D01*
X1628Y2153D01*
X1626Y2153D01*
X1626Y2145D01*
X1624Y2145D01*
X1624Y2143D01*
X1622Y2143D01*
X1622Y2139D01*
X1620Y2139D01*
X1620Y2137D01*
X1616Y2137D01*
X1616Y2135D01*
X1612Y2135D01*
X1612Y2133D01*
X1608Y2133D01*
X1608Y2131D01*
X1604Y2131D01*
X1604Y2129D01*
X1600Y2129D01*
X1600Y2127D01*
X1596Y2127D01*
X1596Y2125D01*
X1592Y2125D01*
X1592Y2123D01*
X1588Y2123D01*
X1588Y2121D01*
X1584Y2121D01*
X1584Y2119D01*
X1578Y2119D01*
X1578Y2117D01*
X1574Y2117D01*
X1574Y2115D01*
X1570Y2115D01*
X1570Y2113D01*
X1566Y2113D01*
X1566Y2111D01*
X1562Y2111D01*
X1562Y2109D01*
X1558Y2109D01*
X1558Y2107D01*
X1554Y2107D01*
X1554Y2087D01*
X1556Y2087D01*
X1556Y2085D01*
X1558Y2085D01*
X1558Y2083D01*
X1560Y2083D01*
X1560Y2081D01*
X1562Y2081D01*
X1562Y2079D01*
X1564Y2079D01*
X1564Y2077D01*
X1566Y2077D01*
X1566Y2075D01*
X1568Y2075D01*
X1568Y2073D01*
X1570Y2073D01*
X1570Y2069D01*
X1572Y2069D01*
X1572Y2067D01*
X1574Y2067D01*
X1574Y2065D01*
X1576Y2065D01*
X1576Y2063D01*
X1578Y2063D01*
X1578Y2061D01*
X1580Y2061D01*
X1580Y2059D01*
X1582Y2059D01*
X1582Y2057D01*
X1584Y2057D01*
X1584Y2055D01*
X1586Y2055D01*
X1586Y2053D01*
X1588Y2053D01*
X1588Y2051D01*
X1590Y2051D01*
X1590Y2049D01*
X1592Y2049D01*
X1592Y2047D01*
X1594Y2047D01*
X1594Y2045D01*
X1596Y2045D01*
X1596Y2043D01*
X1598Y2043D01*
X1598Y2041D01*
X1600Y2041D01*
X1600Y2039D01*
X1602Y2039D01*
X1602Y2037D01*
X1604Y2037D01*
X1604Y2035D01*
X1606Y2035D01*
X1606Y2033D01*
X1608Y2033D01*
X1608Y2031D01*
X1610Y2031D01*
X1610Y2029D01*
X1612Y2029D01*
X1612Y2027D01*
X1614Y2027D01*
X1614Y2025D01*
X1616Y2025D01*
X1616Y2023D01*
X1618Y2023D01*
X1618Y2021D01*
X1620Y2021D01*
X1620Y2019D01*
X1622Y2019D01*
X1622Y2017D01*
X1624Y2017D01*
X1624Y2013D01*
X1626Y2013D01*
X1626Y2007D01*
X1628Y2007D01*
X1628Y1753D01*
X1626Y1753D01*
X1626Y1745D01*
X1624Y1745D01*
X1624Y1743D01*
X1622Y1743D01*
X1622Y1739D01*
X1620Y1739D01*
X1620Y1737D01*
X1616Y1737D01*
X1616Y1735D01*
X1612Y1735D01*
X1612Y1733D01*
X1608Y1733D01*
X1608Y1731D01*
X1604Y1731D01*
X1604Y1729D01*
X1600Y1729D01*
X1600Y1727D01*
X1596Y1727D01*
X1596Y1725D01*
X1592Y1725D01*
X1592Y1723D01*
X1588Y1723D01*
X1588Y1721D01*
X1584Y1721D01*
X1584Y1719D01*
X1578Y1719D01*
X1578Y1717D01*
X1574Y1717D01*
X1574Y1715D01*
X1570Y1715D01*
X1570Y1713D01*
X1566Y1713D01*
X1566Y1711D01*
X1562Y1711D01*
X1562Y1709D01*
X1558Y1709D01*
X1558Y1687D01*
X1560Y1687D01*
X1560Y1685D01*
X1562Y1685D01*
X1562Y1683D01*
X1564Y1683D01*
X1564Y1681D01*
X1566Y1681D01*
X1566Y1679D01*
X1568Y1679D01*
X1568Y1677D01*
X1570Y1677D01*
X1570Y1675D01*
X1572Y1675D01*
X1572Y1673D01*
X1574Y1673D01*
X1574Y1671D01*
X1576Y1671D01*
X1576Y1669D01*
X1578Y1669D01*
X1578Y1667D01*
X1580Y1667D01*
X1580Y1665D01*
X1582Y1665D01*
X1582Y1663D01*
X1584Y1663D01*
X1584Y1661D01*
X1586Y1661D01*
X1586Y1659D01*
X1588Y1659D01*
X1588Y1657D01*
X1590Y1657D01*
X1590Y1655D01*
X1592Y1655D01*
X1592Y1653D01*
X1594Y1653D01*
X1594Y1651D01*
X1596Y1651D01*
X1596Y1649D01*
X1598Y1649D01*
X1598Y1647D01*
X1600Y1647D01*
X1600Y1645D01*
X1602Y1645D01*
X1602Y1643D01*
X1604Y1643D01*
X1604Y1641D01*
X1606Y1641D01*
X1606Y1639D01*
X1608Y1639D01*
X1608Y1637D01*
X1610Y1637D01*
X1610Y1635D01*
X1612Y1635D01*
X1612Y1633D01*
X1614Y1633D01*
X1614Y1631D01*
X1616Y1631D01*
X1616Y1629D01*
X1618Y1629D01*
X1618Y1627D01*
X1620Y1627D01*
X1620Y1625D01*
X1622Y1625D01*
X1622Y1623D01*
X1624Y1623D01*
X1624Y1621D01*
X1626Y1621D01*
X1626Y1619D01*
X1628Y1619D01*
X1628Y1615D01*
X1630Y1615D01*
X1630Y1607D01*
X1632Y1607D01*
X1632Y1353D01*
X1630Y1353D01*
X1630Y1345D01*
X1628Y1345D01*
X1628Y1341D01*
X1626Y1341D01*
X1626Y1339D01*
X1624Y1339D01*
X1624Y1337D01*
X1622Y1337D01*
X1622Y1335D01*
X1620Y1335D01*
X1620Y1333D01*
X1618Y1333D01*
X1618Y1331D01*
X1614Y1331D01*
X1614Y1329D01*
X1610Y1329D01*
X1610Y1327D01*
X1604Y1327D01*
X1604Y1325D01*
X1600Y1325D01*
X1600Y1323D01*
X1596Y1323D01*
X1596Y1321D01*
X1592Y1321D01*
X1592Y1319D01*
X1588Y1319D01*
X1588Y1317D01*
X1584Y1317D01*
X1584Y1315D01*
X1580Y1315D01*
X1580Y1313D01*
X1576Y1313D01*
X1576Y1311D01*
X1572Y1311D01*
X1572Y1309D01*
X1568Y1309D01*
X1568Y1307D01*
X1564Y1307D01*
X1564Y1305D01*
X1558Y1305D01*
X1558Y1303D01*
X1554Y1303D01*
X1554Y1301D01*
X1550Y1301D01*
X1550Y1299D01*
X1546Y1299D01*
X1546Y1265D01*
X2078Y1265D01*
X2078Y3195D01*
X40Y3195D01*
G37*
D02*
G36*
X40Y3047D02*
X40Y2247D01*
X408Y2247D01*
X408Y2245D01*
X418Y2245D01*
X418Y2243D01*
X422Y2243D01*
X422Y2241D01*
X426Y2241D01*
X426Y2239D01*
X428Y2239D01*
X428Y2237D01*
X432Y2237D01*
X432Y2235D01*
X434Y2235D01*
X434Y2233D01*
X436Y2233D01*
X436Y2229D01*
X438Y2229D01*
X438Y2227D01*
X440Y2227D01*
X440Y2223D01*
X442Y2223D01*
X442Y2219D01*
X444Y2219D01*
X444Y2211D01*
X446Y2211D01*
X446Y2203D01*
X466Y2203D01*
X466Y2205D01*
X468Y2205D01*
X468Y2207D01*
X470Y2207D01*
X470Y2209D01*
X472Y2209D01*
X472Y2211D01*
X474Y2211D01*
X474Y2213D01*
X476Y2213D01*
X476Y2395D01*
X474Y2395D01*
X474Y2397D01*
X472Y2397D01*
X472Y2399D01*
X470Y2399D01*
X470Y2401D01*
X468Y2401D01*
X468Y2403D01*
X466Y2403D01*
X466Y2405D01*
X464Y2405D01*
X464Y2407D01*
X462Y2407D01*
X462Y2411D01*
X460Y2411D01*
X460Y2413D01*
X458Y2413D01*
X458Y2415D01*
X456Y2415D01*
X456Y2417D01*
X454Y2417D01*
X454Y2419D01*
X452Y2419D01*
X452Y2421D01*
X450Y2421D01*
X450Y2423D01*
X448Y2423D01*
X448Y2425D01*
X446Y2425D01*
X446Y2427D01*
X444Y2427D01*
X444Y2429D01*
X442Y2429D01*
X442Y2431D01*
X440Y2431D01*
X440Y2433D01*
X438Y2433D01*
X438Y2435D01*
X436Y2435D01*
X436Y2437D01*
X434Y2437D01*
X434Y2439D01*
X432Y2439D01*
X432Y2441D01*
X430Y2441D01*
X430Y2443D01*
X428Y2443D01*
X428Y2445D01*
X426Y2445D01*
X426Y2447D01*
X424Y2447D01*
X424Y2449D01*
X422Y2449D01*
X422Y2451D01*
X420Y2451D01*
X420Y2453D01*
X418Y2453D01*
X418Y2455D01*
X416Y2455D01*
X416Y2457D01*
X414Y2457D01*
X414Y2459D01*
X412Y2459D01*
X412Y2461D01*
X410Y2461D01*
X410Y2463D01*
X408Y2463D01*
X408Y2465D01*
X362Y2465D01*
X362Y2547D01*
X364Y2547D01*
X364Y2549D01*
X384Y2549D01*
X384Y2569D01*
X382Y2569D01*
X382Y2571D01*
X380Y2571D01*
X380Y2573D01*
X376Y2573D01*
X376Y2575D01*
X374Y2575D01*
X374Y2577D01*
X372Y2577D01*
X372Y2581D01*
X370Y2581D01*
X370Y2583D01*
X368Y2583D01*
X368Y2587D01*
X366Y2587D01*
X366Y2591D01*
X364Y2591D01*
X364Y2601D01*
X362Y2601D01*
X362Y2609D01*
X364Y2609D01*
X364Y2619D01*
X366Y2619D01*
X366Y2623D01*
X368Y2623D01*
X368Y2627D01*
X370Y2627D01*
X370Y2629D01*
X372Y2629D01*
X372Y2633D01*
X374Y2633D01*
X374Y2635D01*
X376Y2635D01*
X376Y2637D01*
X380Y2637D01*
X380Y2639D01*
X382Y2639D01*
X382Y2641D01*
X386Y2641D01*
X386Y2643D01*
X390Y2643D01*
X390Y2645D01*
X400Y2645D01*
X400Y2647D01*
X410Y2647D01*
X410Y2649D01*
X412Y2649D01*
X412Y2651D01*
X414Y2651D01*
X414Y2653D01*
X416Y2653D01*
X416Y2655D01*
X418Y2655D01*
X418Y2657D01*
X420Y2657D01*
X420Y2659D01*
X422Y2659D01*
X422Y2661D01*
X424Y2661D01*
X424Y2663D01*
X426Y2663D01*
X426Y2665D01*
X428Y2665D01*
X428Y2667D01*
X430Y2667D01*
X430Y2669D01*
X432Y2669D01*
X432Y2671D01*
X434Y2671D01*
X434Y2673D01*
X436Y2673D01*
X436Y2675D01*
X438Y2675D01*
X438Y2677D01*
X440Y2677D01*
X440Y2679D01*
X442Y2679D01*
X442Y2681D01*
X444Y2681D01*
X444Y2683D01*
X446Y2683D01*
X446Y2687D01*
X448Y2687D01*
X448Y2689D01*
X450Y2689D01*
X450Y2691D01*
X452Y2691D01*
X452Y2693D01*
X454Y2693D01*
X454Y2695D01*
X456Y2695D01*
X456Y2697D01*
X458Y2697D01*
X458Y2699D01*
X460Y2699D01*
X460Y2701D01*
X462Y2701D01*
X462Y2703D01*
X464Y2703D01*
X464Y2705D01*
X466Y2705D01*
X466Y2707D01*
X468Y2707D01*
X468Y2709D01*
X470Y2709D01*
X470Y2711D01*
X472Y2711D01*
X472Y2713D01*
X474Y2713D01*
X474Y2715D01*
X476Y2715D01*
X476Y2845D01*
X474Y2845D01*
X474Y2847D01*
X472Y2847D01*
X472Y2849D01*
X470Y2849D01*
X470Y2851D01*
X468Y2851D01*
X468Y2853D01*
X466Y2853D01*
X466Y2855D01*
X464Y2855D01*
X464Y2859D01*
X462Y2859D01*
X462Y2861D01*
X460Y2861D01*
X460Y2863D01*
X458Y2863D01*
X458Y2865D01*
X412Y2865D01*
X412Y2947D01*
X414Y2947D01*
X414Y2949D01*
X436Y2949D01*
X436Y2969D01*
X432Y2969D01*
X432Y2971D01*
X430Y2971D01*
X430Y2973D01*
X426Y2973D01*
X426Y2975D01*
X424Y2975D01*
X424Y2977D01*
X422Y2977D01*
X422Y2981D01*
X420Y2981D01*
X420Y2983D01*
X418Y2983D01*
X418Y2987D01*
X416Y2987D01*
X416Y2991D01*
X414Y2991D01*
X414Y3001D01*
X412Y3001D01*
X412Y3009D01*
X414Y3009D01*
X414Y3019D01*
X416Y3019D01*
X416Y3023D01*
X418Y3023D01*
X418Y3027D01*
X420Y3027D01*
X420Y3029D01*
X422Y3029D01*
X422Y3033D01*
X424Y3033D01*
X424Y3035D01*
X426Y3035D01*
X426Y3037D01*
X430Y3037D01*
X430Y3039D01*
X432Y3039D01*
X432Y3041D01*
X436Y3041D01*
X436Y3043D01*
X440Y3043D01*
X440Y3045D01*
X450Y3045D01*
X450Y3047D01*
X40Y3047D01*
G37*
D02*
G36*
X458Y3047D02*
X458Y3045D01*
X468Y3045D01*
X468Y3043D01*
X472Y3043D01*
X472Y3041D01*
X476Y3041D01*
X476Y3039D01*
X478Y3039D01*
X478Y3037D01*
X482Y3037D01*
X482Y3035D01*
X484Y3035D01*
X484Y3033D01*
X486Y3033D01*
X486Y3029D01*
X488Y3029D01*
X488Y3027D01*
X490Y3027D01*
X490Y3023D01*
X492Y3023D01*
X492Y3019D01*
X494Y3019D01*
X494Y3011D01*
X496Y3011D01*
X496Y2999D01*
X494Y2999D01*
X494Y2991D01*
X492Y2991D01*
X492Y2987D01*
X490Y2987D01*
X490Y2983D01*
X488Y2983D01*
X488Y2981D01*
X486Y2981D01*
X486Y2977D01*
X484Y2977D01*
X484Y2975D01*
X482Y2975D01*
X482Y2973D01*
X478Y2973D01*
X478Y2971D01*
X476Y2971D01*
X476Y2969D01*
X472Y2969D01*
X472Y2949D01*
X494Y2949D01*
X494Y2947D01*
X496Y2947D01*
X496Y2899D01*
X498Y2899D01*
X498Y2895D01*
X500Y2895D01*
X500Y2893D01*
X502Y2893D01*
X502Y2891D01*
X504Y2891D01*
X504Y2889D01*
X506Y2889D01*
X506Y2887D01*
X508Y2887D01*
X508Y2885D01*
X510Y2885D01*
X510Y2883D01*
X512Y2883D01*
X512Y2881D01*
X514Y2881D01*
X514Y2879D01*
X516Y2879D01*
X516Y2877D01*
X518Y2877D01*
X518Y2873D01*
X520Y2873D01*
X520Y2871D01*
X522Y2871D01*
X522Y2869D01*
X524Y2869D01*
X524Y2867D01*
X526Y2867D01*
X526Y2863D01*
X528Y2863D01*
X528Y2853D01*
X530Y2853D01*
X530Y2707D01*
X528Y2707D01*
X528Y2697D01*
X526Y2697D01*
X526Y2693D01*
X524Y2693D01*
X524Y2689D01*
X522Y2689D01*
X522Y2687D01*
X520Y2687D01*
X520Y2685D01*
X518Y2685D01*
X518Y2683D01*
X516Y2683D01*
X516Y2681D01*
X514Y2681D01*
X514Y2679D01*
X512Y2679D01*
X512Y2677D01*
X510Y2677D01*
X510Y2675D01*
X508Y2675D01*
X508Y2673D01*
X506Y2673D01*
X506Y2671D01*
X504Y2671D01*
X504Y2669D01*
X502Y2669D01*
X502Y2667D01*
X500Y2667D01*
X500Y2665D01*
X498Y2665D01*
X498Y2663D01*
X496Y2663D01*
X496Y2661D01*
X494Y2661D01*
X494Y2659D01*
X492Y2659D01*
X492Y2657D01*
X490Y2657D01*
X490Y2655D01*
X488Y2655D01*
X488Y2653D01*
X486Y2653D01*
X486Y2651D01*
X484Y2651D01*
X484Y2649D01*
X482Y2649D01*
X482Y2647D01*
X480Y2647D01*
X480Y2645D01*
X478Y2645D01*
X478Y2643D01*
X476Y2643D01*
X476Y2641D01*
X474Y2641D01*
X474Y2639D01*
X472Y2639D01*
X472Y2637D01*
X470Y2637D01*
X470Y2635D01*
X468Y2635D01*
X468Y2633D01*
X466Y2633D01*
X466Y2631D01*
X464Y2631D01*
X464Y2629D01*
X462Y2629D01*
X462Y2625D01*
X460Y2625D01*
X460Y2623D01*
X458Y2623D01*
X458Y2621D01*
X456Y2621D01*
X456Y2619D01*
X454Y2619D01*
X454Y2617D01*
X452Y2617D01*
X452Y2615D01*
X450Y2615D01*
X450Y2613D01*
X448Y2613D01*
X448Y2611D01*
X446Y2611D01*
X446Y2585D01*
X444Y2585D01*
X444Y2577D01*
X442Y2577D01*
X442Y2573D01*
X440Y2573D01*
X440Y2571D01*
X438Y2571D01*
X438Y2569D01*
X436Y2569D01*
X436Y2549D01*
X444Y2549D01*
X444Y2547D01*
X446Y2547D01*
X446Y2499D01*
X448Y2499D01*
X448Y2497D01*
X450Y2497D01*
X450Y2495D01*
X452Y2495D01*
X452Y2493D01*
X454Y2493D01*
X454Y2491D01*
X456Y2491D01*
X456Y2489D01*
X458Y2489D01*
X458Y2487D01*
X460Y2487D01*
X460Y2485D01*
X462Y2485D01*
X462Y2483D01*
X464Y2483D01*
X464Y2481D01*
X466Y2481D01*
X466Y2479D01*
X468Y2479D01*
X468Y2477D01*
X470Y2477D01*
X470Y2475D01*
X472Y2475D01*
X472Y2473D01*
X474Y2473D01*
X474Y2471D01*
X476Y2471D01*
X476Y2469D01*
X478Y2469D01*
X478Y2467D01*
X480Y2467D01*
X480Y2465D01*
X482Y2465D01*
X482Y2463D01*
X484Y2463D01*
X484Y2461D01*
X486Y2461D01*
X486Y2457D01*
X488Y2457D01*
X488Y2455D01*
X490Y2455D01*
X490Y2453D01*
X492Y2453D01*
X492Y2451D01*
X494Y2451D01*
X494Y2449D01*
X496Y2449D01*
X496Y2447D01*
X498Y2447D01*
X498Y2445D01*
X500Y2445D01*
X500Y2443D01*
X502Y2443D01*
X502Y2441D01*
X504Y2441D01*
X504Y2439D01*
X506Y2439D01*
X506Y2437D01*
X508Y2437D01*
X508Y2435D01*
X510Y2435D01*
X510Y2433D01*
X512Y2433D01*
X512Y2431D01*
X514Y2431D01*
X514Y2429D01*
X516Y2429D01*
X516Y2427D01*
X518Y2427D01*
X518Y2425D01*
X520Y2425D01*
X520Y2423D01*
X522Y2423D01*
X522Y2421D01*
X524Y2421D01*
X524Y2417D01*
X526Y2417D01*
X526Y2413D01*
X528Y2413D01*
X528Y2403D01*
X530Y2403D01*
X530Y2205D01*
X528Y2205D01*
X528Y2193D01*
X526Y2193D01*
X526Y2191D01*
X524Y2191D01*
X524Y2187D01*
X522Y2187D01*
X522Y2185D01*
X520Y2185D01*
X520Y2183D01*
X518Y2183D01*
X518Y2181D01*
X516Y2181D01*
X516Y2179D01*
X514Y2179D01*
X514Y2177D01*
X512Y2177D01*
X512Y2175D01*
X510Y2175D01*
X510Y2173D01*
X508Y2173D01*
X508Y2171D01*
X506Y2171D01*
X506Y2169D01*
X504Y2169D01*
X504Y2167D01*
X502Y2167D01*
X502Y2165D01*
X500Y2165D01*
X500Y2163D01*
X498Y2163D01*
X498Y2161D01*
X496Y2161D01*
X496Y2159D01*
X494Y2159D01*
X494Y2157D01*
X492Y2157D01*
X492Y2155D01*
X490Y2155D01*
X490Y2153D01*
X488Y2153D01*
X488Y2151D01*
X486Y2151D01*
X486Y2149D01*
X484Y2149D01*
X484Y2147D01*
X482Y2147D01*
X482Y2145D01*
X480Y2145D01*
X480Y2143D01*
X478Y2143D01*
X478Y2141D01*
X476Y2141D01*
X476Y2139D01*
X474Y2139D01*
X474Y2137D01*
X472Y2137D01*
X472Y2135D01*
X470Y2135D01*
X470Y2133D01*
X468Y2133D01*
X468Y2131D01*
X466Y2131D01*
X466Y2129D01*
X462Y2129D01*
X462Y2127D01*
X460Y2127D01*
X460Y2125D01*
X458Y2125D01*
X458Y2123D01*
X456Y2123D01*
X456Y2121D01*
X454Y2121D01*
X454Y2119D01*
X452Y2119D01*
X452Y2117D01*
X450Y2117D01*
X450Y2095D01*
X452Y2095D01*
X452Y2093D01*
X454Y2093D01*
X454Y2091D01*
X456Y2091D01*
X456Y2089D01*
X458Y2089D01*
X458Y2087D01*
X460Y2087D01*
X460Y2085D01*
X462Y2085D01*
X462Y2083D01*
X464Y2083D01*
X464Y2081D01*
X466Y2081D01*
X466Y2079D01*
X468Y2079D01*
X468Y2077D01*
X470Y2077D01*
X470Y2075D01*
X472Y2075D01*
X472Y2073D01*
X474Y2073D01*
X474Y2071D01*
X476Y2071D01*
X476Y2069D01*
X478Y2069D01*
X478Y2067D01*
X480Y2067D01*
X480Y2065D01*
X482Y2065D01*
X482Y2063D01*
X484Y2063D01*
X484Y2061D01*
X486Y2061D01*
X486Y2057D01*
X488Y2057D01*
X488Y2055D01*
X490Y2055D01*
X490Y2053D01*
X492Y2053D01*
X492Y2051D01*
X494Y2051D01*
X494Y2049D01*
X496Y2049D01*
X496Y2047D01*
X498Y2047D01*
X498Y2045D01*
X500Y2045D01*
X500Y2043D01*
X502Y2043D01*
X502Y2041D01*
X504Y2041D01*
X504Y2039D01*
X506Y2039D01*
X506Y2037D01*
X508Y2037D01*
X508Y2035D01*
X510Y2035D01*
X510Y2033D01*
X512Y2033D01*
X512Y2031D01*
X514Y2031D01*
X514Y2029D01*
X516Y2029D01*
X516Y2027D01*
X518Y2027D01*
X518Y2025D01*
X520Y2025D01*
X520Y2023D01*
X522Y2023D01*
X522Y2021D01*
X524Y2021D01*
X524Y2017D01*
X526Y2017D01*
X526Y2013D01*
X528Y2013D01*
X528Y2003D01*
X530Y2003D01*
X530Y1755D01*
X528Y1755D01*
X528Y1745D01*
X526Y1745D01*
X526Y1741D01*
X524Y1741D01*
X524Y1739D01*
X522Y1739D01*
X522Y1737D01*
X520Y1737D01*
X520Y1735D01*
X518Y1735D01*
X518Y1733D01*
X514Y1733D01*
X514Y1731D01*
X512Y1731D01*
X512Y1729D01*
X506Y1729D01*
X506Y1727D01*
X502Y1727D01*
X502Y1725D01*
X498Y1725D01*
X498Y1723D01*
X494Y1723D01*
X494Y1721D01*
X490Y1721D01*
X490Y1719D01*
X486Y1719D01*
X486Y1717D01*
X482Y1717D01*
X482Y1715D01*
X478Y1715D01*
X478Y1713D01*
X474Y1713D01*
X474Y1711D01*
X470Y1711D01*
X470Y1709D01*
X466Y1709D01*
X466Y1707D01*
X462Y1707D01*
X462Y1705D01*
X458Y1705D01*
X458Y1703D01*
X454Y1703D01*
X454Y1701D01*
X450Y1701D01*
X450Y1699D01*
X446Y1699D01*
X446Y1677D01*
X448Y1677D01*
X448Y1673D01*
X450Y1673D01*
X450Y1669D01*
X452Y1669D01*
X452Y1665D01*
X454Y1665D01*
X454Y1661D01*
X456Y1661D01*
X456Y1657D01*
X458Y1657D01*
X458Y1653D01*
X460Y1653D01*
X460Y1649D01*
X462Y1649D01*
X462Y1645D01*
X464Y1645D01*
X464Y1641D01*
X466Y1641D01*
X466Y1637D01*
X468Y1637D01*
X468Y1633D01*
X470Y1633D01*
X470Y1629D01*
X472Y1629D01*
X472Y1625D01*
X474Y1625D01*
X474Y1621D01*
X476Y1621D01*
X476Y1617D01*
X478Y1617D01*
X478Y1611D01*
X480Y1611D01*
X480Y1445D01*
X478Y1445D01*
X478Y1441D01*
X476Y1441D01*
X476Y1437D01*
X474Y1437D01*
X474Y1435D01*
X472Y1435D01*
X472Y1433D01*
X470Y1433D01*
X470Y1431D01*
X468Y1431D01*
X468Y1429D01*
X466Y1429D01*
X466Y1427D01*
X464Y1427D01*
X464Y1425D01*
X462Y1425D01*
X462Y1423D01*
X460Y1423D01*
X460Y1421D01*
X458Y1421D01*
X458Y1419D01*
X456Y1419D01*
X456Y1417D01*
X454Y1417D01*
X454Y1415D01*
X452Y1415D01*
X452Y1413D01*
X450Y1413D01*
X450Y1411D01*
X446Y1411D01*
X446Y1399D01*
X444Y1399D01*
X444Y1391D01*
X442Y1391D01*
X442Y1387D01*
X440Y1387D01*
X440Y1383D01*
X438Y1383D01*
X438Y1381D01*
X436Y1381D01*
X436Y1377D01*
X434Y1377D01*
X434Y1375D01*
X432Y1375D01*
X432Y1373D01*
X428Y1373D01*
X428Y1371D01*
X426Y1371D01*
X426Y1369D01*
X422Y1369D01*
X422Y1349D01*
X444Y1349D01*
X444Y1347D01*
X466Y1347D01*
X466Y1349D01*
X474Y1349D01*
X474Y1351D01*
X482Y1351D01*
X482Y1353D01*
X490Y1353D01*
X490Y1355D01*
X498Y1355D01*
X498Y1357D01*
X506Y1357D01*
X506Y1359D01*
X514Y1359D01*
X514Y1361D01*
X524Y1361D01*
X524Y1363D01*
X532Y1363D01*
X532Y1365D01*
X540Y1365D01*
X540Y1367D01*
X548Y1367D01*
X548Y1369D01*
X556Y1369D01*
X556Y1371D01*
X564Y1371D01*
X564Y1373D01*
X574Y1373D01*
X574Y1375D01*
X580Y1375D01*
X580Y2013D01*
X582Y2013D01*
X582Y2017D01*
X584Y2017D01*
X584Y2021D01*
X586Y2021D01*
X586Y2023D01*
X588Y2023D01*
X588Y2025D01*
X592Y2025D01*
X592Y2027D01*
X596Y2027D01*
X596Y2029D01*
X600Y2029D01*
X600Y2031D01*
X602Y2031D01*
X602Y2033D01*
X606Y2033D01*
X606Y2035D01*
X610Y2035D01*
X610Y2037D01*
X614Y2037D01*
X614Y2039D01*
X618Y2039D01*
X618Y2041D01*
X622Y2041D01*
X622Y2043D01*
X626Y2043D01*
X626Y2045D01*
X630Y2045D01*
X630Y2047D01*
X634Y2047D01*
X634Y2049D01*
X638Y2049D01*
X638Y2051D01*
X642Y2051D01*
X642Y2053D01*
X646Y2053D01*
X646Y2055D01*
X650Y2055D01*
X650Y2057D01*
X654Y2057D01*
X654Y2059D01*
X658Y2059D01*
X658Y2061D01*
X662Y2061D01*
X662Y2063D01*
X664Y2063D01*
X664Y2065D01*
X668Y2065D01*
X668Y2067D01*
X672Y2067D01*
X672Y2069D01*
X676Y2069D01*
X676Y2071D01*
X680Y2071D01*
X680Y2073D01*
X684Y2073D01*
X684Y2075D01*
X688Y2075D01*
X688Y2077D01*
X692Y2077D01*
X692Y2079D01*
X696Y2079D01*
X696Y2081D01*
X700Y2081D01*
X700Y2083D01*
X704Y2083D01*
X704Y2085D01*
X708Y2085D01*
X708Y2087D01*
X712Y2087D01*
X712Y2089D01*
X716Y2089D01*
X716Y2091D01*
X720Y2091D01*
X720Y2093D01*
X724Y2093D01*
X724Y2095D01*
X726Y2095D01*
X726Y2097D01*
X730Y2097D01*
X730Y2099D01*
X734Y2099D01*
X734Y2101D01*
X736Y2101D01*
X736Y2121D01*
X732Y2121D01*
X732Y2123D01*
X730Y2123D01*
X730Y2125D01*
X726Y2125D01*
X726Y2127D01*
X724Y2127D01*
X724Y2129D01*
X720Y2129D01*
X720Y2131D01*
X718Y2131D01*
X718Y2133D01*
X714Y2133D01*
X714Y2135D01*
X710Y2135D01*
X710Y2137D01*
X708Y2137D01*
X708Y2139D01*
X704Y2139D01*
X704Y2141D01*
X702Y2141D01*
X702Y2143D01*
X698Y2143D01*
X698Y2145D01*
X696Y2145D01*
X696Y2147D01*
X692Y2147D01*
X692Y2149D01*
X690Y2149D01*
X690Y2151D01*
X686Y2151D01*
X686Y2153D01*
X684Y2153D01*
X684Y2155D01*
X680Y2155D01*
X680Y2157D01*
X678Y2157D01*
X678Y2159D01*
X674Y2159D01*
X674Y2161D01*
X670Y2161D01*
X670Y2163D01*
X668Y2163D01*
X668Y2165D01*
X664Y2165D01*
X664Y2167D01*
X662Y2167D01*
X662Y2169D01*
X658Y2169D01*
X658Y2171D01*
X656Y2171D01*
X656Y2173D01*
X652Y2173D01*
X652Y2175D01*
X650Y2175D01*
X650Y2177D01*
X646Y2177D01*
X646Y2179D01*
X644Y2179D01*
X644Y2181D01*
X640Y2181D01*
X640Y2183D01*
X638Y2183D01*
X638Y2185D01*
X636Y2185D01*
X636Y2187D01*
X634Y2187D01*
X634Y2189D01*
X632Y2189D01*
X632Y2193D01*
X630Y2193D01*
X630Y2197D01*
X628Y2197D01*
X628Y2411D01*
X630Y2411D01*
X630Y2415D01*
X632Y2415D01*
X632Y2419D01*
X634Y2419D01*
X634Y2421D01*
X636Y2421D01*
X636Y2423D01*
X638Y2423D01*
X638Y2425D01*
X640Y2425D01*
X640Y2427D01*
X644Y2427D01*
X644Y2429D01*
X646Y2429D01*
X646Y2431D01*
X650Y2431D01*
X650Y2433D01*
X652Y2433D01*
X652Y2435D01*
X654Y2435D01*
X654Y2437D01*
X658Y2437D01*
X658Y2439D01*
X660Y2439D01*
X660Y2441D01*
X664Y2441D01*
X664Y2443D01*
X666Y2443D01*
X666Y2445D01*
X670Y2445D01*
X670Y2447D01*
X672Y2447D01*
X672Y2449D01*
X676Y2449D01*
X676Y2451D01*
X678Y2451D01*
X678Y2453D01*
X682Y2453D01*
X682Y2455D01*
X684Y2455D01*
X684Y2457D01*
X688Y2457D01*
X688Y2459D01*
X690Y2459D01*
X690Y2461D01*
X692Y2461D01*
X692Y2463D01*
X696Y2463D01*
X696Y2465D01*
X698Y2465D01*
X698Y2467D01*
X702Y2467D01*
X702Y2469D01*
X704Y2469D01*
X704Y2471D01*
X708Y2471D01*
X708Y2473D01*
X710Y2473D01*
X710Y2475D01*
X714Y2475D01*
X714Y2477D01*
X716Y2477D01*
X716Y2479D01*
X720Y2479D01*
X720Y2481D01*
X722Y2481D01*
X722Y2483D01*
X726Y2483D01*
X726Y2485D01*
X728Y2485D01*
X728Y2505D01*
X722Y2505D01*
X722Y2507D01*
X716Y2507D01*
X716Y2509D01*
X708Y2509D01*
X708Y2511D01*
X702Y2511D01*
X702Y2513D01*
X696Y2513D01*
X696Y2515D01*
X690Y2515D01*
X690Y2517D01*
X684Y2517D01*
X684Y2519D01*
X678Y2519D01*
X678Y2521D01*
X672Y2521D01*
X672Y2523D01*
X666Y2523D01*
X666Y2525D01*
X660Y2525D01*
X660Y2527D01*
X654Y2527D01*
X654Y2529D01*
X646Y2529D01*
X646Y2531D01*
X642Y2531D01*
X642Y2533D01*
X638Y2533D01*
X638Y2535D01*
X636Y2535D01*
X636Y2537D01*
X634Y2537D01*
X634Y2539D01*
X632Y2539D01*
X632Y2543D01*
X630Y2543D01*
X630Y2549D01*
X628Y2549D01*
X628Y2761D01*
X630Y2761D01*
X630Y2767D01*
X632Y2767D01*
X632Y2771D01*
X634Y2771D01*
X634Y2773D01*
X636Y2773D01*
X636Y2775D01*
X638Y2775D01*
X638Y2777D01*
X640Y2777D01*
X640Y2779D01*
X642Y2779D01*
X642Y2781D01*
X644Y2781D01*
X644Y2783D01*
X646Y2783D01*
X646Y2785D01*
X648Y2785D01*
X648Y2787D01*
X650Y2787D01*
X650Y2789D01*
X652Y2789D01*
X652Y2791D01*
X654Y2791D01*
X654Y2793D01*
X656Y2793D01*
X656Y2795D01*
X658Y2795D01*
X658Y2797D01*
X660Y2797D01*
X660Y2799D01*
X662Y2799D01*
X662Y2801D01*
X664Y2801D01*
X664Y2803D01*
X666Y2803D01*
X666Y2805D01*
X668Y2805D01*
X668Y2807D01*
X670Y2807D01*
X670Y2809D01*
X672Y2809D01*
X672Y2811D01*
X674Y2811D01*
X674Y2813D01*
X676Y2813D01*
X676Y2815D01*
X678Y2815D01*
X678Y2817D01*
X680Y2817D01*
X680Y2819D01*
X682Y2819D01*
X682Y2821D01*
X684Y2821D01*
X684Y2823D01*
X686Y2823D01*
X686Y2825D01*
X688Y2825D01*
X688Y2827D01*
X690Y2827D01*
X690Y2829D01*
X692Y2829D01*
X692Y2831D01*
X694Y2831D01*
X694Y2833D01*
X696Y2833D01*
X696Y2835D01*
X698Y2835D01*
X698Y2837D01*
X700Y2837D01*
X700Y2839D01*
X702Y2839D01*
X702Y2841D01*
X704Y2841D01*
X704Y2843D01*
X706Y2843D01*
X706Y2845D01*
X708Y2845D01*
X708Y2847D01*
X710Y2847D01*
X710Y2849D01*
X712Y2849D01*
X712Y2851D01*
X714Y2851D01*
X714Y2853D01*
X716Y2853D01*
X716Y2855D01*
X718Y2855D01*
X718Y2857D01*
X720Y2857D01*
X720Y2859D01*
X722Y2859D01*
X722Y2861D01*
X724Y2861D01*
X724Y2863D01*
X726Y2863D01*
X726Y2865D01*
X728Y2865D01*
X728Y2867D01*
X730Y2867D01*
X730Y2869D01*
X732Y2869D01*
X732Y2871D01*
X734Y2871D01*
X734Y2873D01*
X736Y2873D01*
X736Y2875D01*
X738Y2875D01*
X738Y2877D01*
X740Y2877D01*
X740Y2879D01*
X742Y2879D01*
X742Y2881D01*
X744Y2881D01*
X744Y2883D01*
X746Y2883D01*
X746Y2885D01*
X748Y2885D01*
X748Y2887D01*
X750Y2887D01*
X750Y2889D01*
X752Y2889D01*
X752Y2891D01*
X754Y2891D01*
X754Y2893D01*
X756Y2893D01*
X756Y2895D01*
X758Y2895D01*
X758Y2897D01*
X760Y2897D01*
X760Y2899D01*
X762Y2899D01*
X762Y2947D01*
X764Y2947D01*
X764Y2949D01*
X786Y2949D01*
X786Y2969D01*
X782Y2969D01*
X782Y2971D01*
X780Y2971D01*
X780Y2973D01*
X776Y2973D01*
X776Y2975D01*
X774Y2975D01*
X774Y2977D01*
X772Y2977D01*
X772Y2981D01*
X770Y2981D01*
X770Y2983D01*
X768Y2983D01*
X768Y2987D01*
X766Y2987D01*
X766Y2991D01*
X764Y2991D01*
X764Y3001D01*
X762Y3001D01*
X762Y3009D01*
X764Y3009D01*
X764Y3019D01*
X766Y3019D01*
X766Y3023D01*
X768Y3023D01*
X768Y3027D01*
X770Y3027D01*
X770Y3029D01*
X772Y3029D01*
X772Y3033D01*
X774Y3033D01*
X774Y3035D01*
X776Y3035D01*
X776Y3037D01*
X780Y3037D01*
X780Y3039D01*
X782Y3039D01*
X782Y3041D01*
X786Y3041D01*
X786Y3043D01*
X790Y3043D01*
X790Y3045D01*
X800Y3045D01*
X800Y3047D01*
X458Y3047D01*
G37*
D02*
G36*
X808Y3047D02*
X808Y3045D01*
X818Y3045D01*
X818Y3043D01*
X822Y3043D01*
X822Y3041D01*
X826Y3041D01*
X826Y3039D01*
X828Y3039D01*
X828Y3037D01*
X832Y3037D01*
X832Y3035D01*
X834Y3035D01*
X834Y3033D01*
X836Y3033D01*
X836Y3029D01*
X838Y3029D01*
X838Y3027D01*
X840Y3027D01*
X840Y3023D01*
X842Y3023D01*
X842Y3019D01*
X844Y3019D01*
X844Y3011D01*
X846Y3011D01*
X846Y2999D01*
X844Y2999D01*
X844Y2991D01*
X842Y2991D01*
X842Y2987D01*
X840Y2987D01*
X840Y2983D01*
X838Y2983D01*
X838Y2981D01*
X836Y2981D01*
X836Y2977D01*
X834Y2977D01*
X834Y2975D01*
X832Y2975D01*
X832Y2973D01*
X828Y2973D01*
X828Y2971D01*
X826Y2971D01*
X826Y2969D01*
X822Y2969D01*
X822Y2949D01*
X844Y2949D01*
X844Y2947D01*
X846Y2947D01*
X846Y2865D01*
X798Y2865D01*
X798Y2863D01*
X796Y2863D01*
X796Y2861D01*
X794Y2861D01*
X794Y2859D01*
X792Y2859D01*
X792Y2857D01*
X790Y2857D01*
X790Y2855D01*
X788Y2855D01*
X788Y2853D01*
X786Y2853D01*
X786Y2851D01*
X784Y2851D01*
X784Y2849D01*
X782Y2849D01*
X782Y2847D01*
X780Y2847D01*
X780Y2845D01*
X778Y2845D01*
X778Y2843D01*
X776Y2843D01*
X776Y2841D01*
X774Y2841D01*
X774Y2839D01*
X772Y2839D01*
X772Y2837D01*
X770Y2837D01*
X770Y2835D01*
X768Y2835D01*
X768Y2833D01*
X766Y2833D01*
X766Y2831D01*
X764Y2831D01*
X764Y2829D01*
X762Y2829D01*
X762Y2827D01*
X760Y2827D01*
X760Y2825D01*
X758Y2825D01*
X758Y2823D01*
X756Y2823D01*
X756Y2819D01*
X754Y2819D01*
X754Y2817D01*
X752Y2817D01*
X752Y2815D01*
X750Y2815D01*
X750Y2813D01*
X748Y2813D01*
X748Y2811D01*
X746Y2811D01*
X746Y2809D01*
X744Y2809D01*
X744Y2807D01*
X742Y2807D01*
X742Y2805D01*
X740Y2805D01*
X740Y2803D01*
X738Y2803D01*
X738Y2801D01*
X736Y2801D01*
X736Y2799D01*
X734Y2799D01*
X734Y2797D01*
X732Y2797D01*
X732Y2795D01*
X730Y2795D01*
X730Y2793D01*
X728Y2793D01*
X728Y2791D01*
X726Y2791D01*
X726Y2789D01*
X724Y2789D01*
X724Y2787D01*
X722Y2787D01*
X722Y2785D01*
X720Y2785D01*
X720Y2783D01*
X718Y2783D01*
X718Y2781D01*
X716Y2781D01*
X716Y2779D01*
X714Y2779D01*
X714Y2777D01*
X712Y2777D01*
X712Y2775D01*
X710Y2775D01*
X710Y2773D01*
X708Y2773D01*
X708Y2771D01*
X706Y2771D01*
X706Y2769D01*
X704Y2769D01*
X704Y2767D01*
X702Y2767D01*
X702Y2765D01*
X700Y2765D01*
X700Y2763D01*
X698Y2763D01*
X698Y2761D01*
X696Y2761D01*
X696Y2759D01*
X694Y2759D01*
X694Y2757D01*
X692Y2757D01*
X692Y2755D01*
X690Y2755D01*
X690Y2753D01*
X688Y2753D01*
X688Y2751D01*
X686Y2751D01*
X686Y2749D01*
X684Y2749D01*
X684Y2747D01*
X682Y2747D01*
X682Y2745D01*
X680Y2745D01*
X680Y2647D01*
X1158Y2647D01*
X1158Y2645D01*
X1168Y2645D01*
X1168Y2643D01*
X1172Y2643D01*
X1172Y2641D01*
X1176Y2641D01*
X1176Y2639D01*
X1178Y2639D01*
X1178Y2637D01*
X1182Y2637D01*
X1182Y2635D01*
X1184Y2635D01*
X1184Y2633D01*
X1186Y2633D01*
X1186Y2629D01*
X1188Y2629D01*
X1188Y2627D01*
X1190Y2627D01*
X1190Y2623D01*
X1192Y2623D01*
X1192Y2619D01*
X1194Y2619D01*
X1194Y2611D01*
X1196Y2611D01*
X1196Y2599D01*
X1194Y2599D01*
X1194Y2591D01*
X1192Y2591D01*
X1192Y2587D01*
X1190Y2587D01*
X1190Y2583D01*
X1188Y2583D01*
X1188Y2581D01*
X1186Y2581D01*
X1186Y2577D01*
X1184Y2577D01*
X1184Y2575D01*
X1182Y2575D01*
X1182Y2573D01*
X1178Y2573D01*
X1178Y2571D01*
X1176Y2571D01*
X1176Y2569D01*
X1172Y2569D01*
X1172Y2549D01*
X1194Y2549D01*
X1194Y2551D01*
X1198Y2551D01*
X1198Y2553D01*
X1202Y2553D01*
X1202Y2555D01*
X1206Y2555D01*
X1206Y2557D01*
X1210Y2557D01*
X1210Y2559D01*
X1214Y2559D01*
X1214Y2561D01*
X1218Y2561D01*
X1218Y2563D01*
X1222Y2563D01*
X1222Y2565D01*
X1226Y2565D01*
X1226Y2567D01*
X1230Y2567D01*
X1230Y2569D01*
X1232Y2569D01*
X1232Y2751D01*
X1230Y2751D01*
X1230Y2753D01*
X1228Y2753D01*
X1228Y2757D01*
X1226Y2757D01*
X1226Y2759D01*
X1224Y2759D01*
X1224Y2763D01*
X1222Y2763D01*
X1222Y2765D01*
X1220Y2765D01*
X1220Y2769D01*
X1218Y2769D01*
X1218Y2771D01*
X1216Y2771D01*
X1216Y2775D01*
X1214Y2775D01*
X1214Y2777D01*
X1212Y2777D01*
X1212Y2781D01*
X1210Y2781D01*
X1210Y2783D01*
X1208Y2783D01*
X1208Y2787D01*
X1206Y2787D01*
X1206Y2789D01*
X1204Y2789D01*
X1204Y2793D01*
X1202Y2793D01*
X1202Y2795D01*
X1200Y2795D01*
X1200Y2799D01*
X1198Y2799D01*
X1198Y2801D01*
X1196Y2801D01*
X1196Y2805D01*
X1194Y2805D01*
X1194Y2807D01*
X1192Y2807D01*
X1192Y2811D01*
X1190Y2811D01*
X1190Y2813D01*
X1188Y2813D01*
X1188Y2817D01*
X1186Y2817D01*
X1186Y2819D01*
X1184Y2819D01*
X1184Y2823D01*
X1182Y2823D01*
X1182Y2825D01*
X1180Y2825D01*
X1180Y2829D01*
X1178Y2829D01*
X1178Y2831D01*
X1176Y2831D01*
X1176Y2835D01*
X1174Y2835D01*
X1174Y2837D01*
X1172Y2837D01*
X1172Y2841D01*
X1170Y2841D01*
X1170Y2845D01*
X1168Y2845D01*
X1168Y2847D01*
X1166Y2847D01*
X1166Y2851D01*
X1164Y2851D01*
X1164Y2853D01*
X1162Y2853D01*
X1162Y2857D01*
X1160Y2857D01*
X1160Y2859D01*
X1158Y2859D01*
X1158Y2863D01*
X1156Y2863D01*
X1156Y2865D01*
X1112Y2865D01*
X1112Y2947D01*
X1114Y2947D01*
X1114Y2949D01*
X1136Y2949D01*
X1136Y2969D01*
X1132Y2969D01*
X1132Y2971D01*
X1130Y2971D01*
X1130Y2973D01*
X1126Y2973D01*
X1126Y2975D01*
X1124Y2975D01*
X1124Y2977D01*
X1122Y2977D01*
X1122Y2981D01*
X1120Y2981D01*
X1120Y2983D01*
X1118Y2983D01*
X1118Y2987D01*
X1116Y2987D01*
X1116Y2991D01*
X1114Y2991D01*
X1114Y3001D01*
X1112Y3001D01*
X1112Y3009D01*
X1114Y3009D01*
X1114Y3019D01*
X1116Y3019D01*
X1116Y3023D01*
X1118Y3023D01*
X1118Y3027D01*
X1120Y3027D01*
X1120Y3029D01*
X1122Y3029D01*
X1122Y3033D01*
X1124Y3033D01*
X1124Y3035D01*
X1126Y3035D01*
X1126Y3037D01*
X1130Y3037D01*
X1130Y3039D01*
X1132Y3039D01*
X1132Y3041D01*
X1136Y3041D01*
X1136Y3043D01*
X1140Y3043D01*
X1140Y3045D01*
X1150Y3045D01*
X1150Y3047D01*
X808Y3047D01*
G37*
D02*
G36*
X1158Y3047D02*
X1158Y3045D01*
X1168Y3045D01*
X1168Y3043D01*
X1172Y3043D01*
X1172Y3041D01*
X1176Y3041D01*
X1176Y3039D01*
X1178Y3039D01*
X1178Y3037D01*
X1182Y3037D01*
X1182Y3035D01*
X1184Y3035D01*
X1184Y3033D01*
X1186Y3033D01*
X1186Y3029D01*
X1188Y3029D01*
X1188Y3027D01*
X1190Y3027D01*
X1190Y3023D01*
X1192Y3023D01*
X1192Y3019D01*
X1194Y3019D01*
X1194Y3011D01*
X1196Y3011D01*
X1196Y2999D01*
X1194Y2999D01*
X1194Y2991D01*
X1192Y2991D01*
X1192Y2987D01*
X1190Y2987D01*
X1190Y2983D01*
X1188Y2983D01*
X1188Y2981D01*
X1186Y2981D01*
X1186Y2977D01*
X1184Y2977D01*
X1184Y2975D01*
X1182Y2975D01*
X1182Y2973D01*
X1178Y2973D01*
X1178Y2971D01*
X1176Y2971D01*
X1176Y2969D01*
X1172Y2969D01*
X1172Y2949D01*
X1194Y2949D01*
X1194Y2947D01*
X1196Y2947D01*
X1196Y2881D01*
X1198Y2881D01*
X1198Y2879D01*
X1200Y2879D01*
X1200Y2875D01*
X1202Y2875D01*
X1202Y2873D01*
X1204Y2873D01*
X1204Y2869D01*
X1206Y2869D01*
X1206Y2867D01*
X1208Y2867D01*
X1208Y2863D01*
X1210Y2863D01*
X1210Y2861D01*
X1212Y2861D01*
X1212Y2857D01*
X1214Y2857D01*
X1214Y2855D01*
X1216Y2855D01*
X1216Y2851D01*
X1218Y2851D01*
X1218Y2849D01*
X1220Y2849D01*
X1220Y2845D01*
X1222Y2845D01*
X1222Y2843D01*
X1224Y2843D01*
X1224Y2839D01*
X1226Y2839D01*
X1226Y2837D01*
X1228Y2837D01*
X1228Y2833D01*
X1230Y2833D01*
X1230Y2829D01*
X1232Y2829D01*
X1232Y2827D01*
X1234Y2827D01*
X1234Y2823D01*
X1236Y2823D01*
X1236Y2821D01*
X1238Y2821D01*
X1238Y2817D01*
X1240Y2817D01*
X1240Y2815D01*
X1242Y2815D01*
X1242Y2811D01*
X1244Y2811D01*
X1244Y2809D01*
X1246Y2809D01*
X1246Y2805D01*
X1248Y2805D01*
X1248Y2803D01*
X1250Y2803D01*
X1250Y2799D01*
X1252Y2799D01*
X1252Y2797D01*
X1254Y2797D01*
X1254Y2793D01*
X1256Y2793D01*
X1256Y2791D01*
X1258Y2791D01*
X1258Y2787D01*
X1260Y2787D01*
X1260Y2785D01*
X1262Y2785D01*
X1262Y2781D01*
X1264Y2781D01*
X1264Y2779D01*
X1266Y2779D01*
X1266Y2775D01*
X1268Y2775D01*
X1268Y2773D01*
X1270Y2773D01*
X1270Y2769D01*
X1272Y2769D01*
X1272Y2767D01*
X1274Y2767D01*
X1274Y2761D01*
X1276Y2761D01*
X1276Y2549D01*
X1274Y2549D01*
X1274Y2543D01*
X1272Y2543D01*
X1272Y2541D01*
X1270Y2541D01*
X1270Y2539D01*
X1268Y2539D01*
X1268Y2537D01*
X1266Y2537D01*
X1266Y2535D01*
X1262Y2535D01*
X1262Y2533D01*
X1258Y2533D01*
X1258Y2531D01*
X1252Y2531D01*
X1252Y2529D01*
X1248Y2529D01*
X1248Y2527D01*
X1244Y2527D01*
X1244Y2525D01*
X1240Y2525D01*
X1240Y2523D01*
X1236Y2523D01*
X1236Y2521D01*
X1232Y2521D01*
X1232Y2519D01*
X1228Y2519D01*
X1228Y2517D01*
X1224Y2517D01*
X1224Y2515D01*
X1220Y2515D01*
X1220Y2513D01*
X1216Y2513D01*
X1216Y2511D01*
X1212Y2511D01*
X1212Y2509D01*
X1208Y2509D01*
X1208Y2507D01*
X1204Y2507D01*
X1204Y2505D01*
X1200Y2505D01*
X1200Y2503D01*
X1196Y2503D01*
X1196Y2465D01*
X1138Y2465D01*
X1138Y2463D01*
X1136Y2463D01*
X1136Y2461D01*
X1132Y2461D01*
X1132Y2459D01*
X1130Y2459D01*
X1130Y2457D01*
X1126Y2457D01*
X1126Y2455D01*
X1124Y2455D01*
X1124Y2453D01*
X1120Y2453D01*
X1120Y2451D01*
X1118Y2451D01*
X1118Y2449D01*
X1114Y2449D01*
X1114Y2447D01*
X1112Y2447D01*
X1112Y2445D01*
X1110Y2445D01*
X1110Y2443D01*
X1106Y2443D01*
X1106Y2441D01*
X1104Y2441D01*
X1104Y2439D01*
X1100Y2439D01*
X1100Y2437D01*
X1098Y2437D01*
X1098Y2435D01*
X1094Y2435D01*
X1094Y2433D01*
X1092Y2433D01*
X1092Y2431D01*
X1088Y2431D01*
X1088Y2429D01*
X1086Y2429D01*
X1086Y2427D01*
X1084Y2427D01*
X1084Y2425D01*
X1080Y2425D01*
X1080Y2423D01*
X1078Y2423D01*
X1078Y2421D01*
X1074Y2421D01*
X1074Y2419D01*
X1072Y2419D01*
X1072Y2417D01*
X1068Y2417D01*
X1068Y2415D01*
X1066Y2415D01*
X1066Y2413D01*
X1062Y2413D01*
X1062Y2411D01*
X1060Y2411D01*
X1060Y2409D01*
X1056Y2409D01*
X1056Y2407D01*
X1054Y2407D01*
X1054Y2405D01*
X1052Y2405D01*
X1052Y2403D01*
X1048Y2403D01*
X1048Y2401D01*
X1046Y2401D01*
X1046Y2399D01*
X1042Y2399D01*
X1042Y2397D01*
X1040Y2397D01*
X1040Y2395D01*
X1036Y2395D01*
X1036Y2393D01*
X1034Y2393D01*
X1034Y2391D01*
X1032Y2391D01*
X1032Y2247D01*
X1158Y2247D01*
X1158Y2245D01*
X1168Y2245D01*
X1168Y2243D01*
X1172Y2243D01*
X1172Y2241D01*
X1176Y2241D01*
X1176Y2239D01*
X1178Y2239D01*
X1178Y2237D01*
X1182Y2237D01*
X1182Y2235D01*
X1184Y2235D01*
X1184Y2233D01*
X1186Y2233D01*
X1186Y2229D01*
X1188Y2229D01*
X1188Y2227D01*
X1190Y2227D01*
X1190Y2223D01*
X1192Y2223D01*
X1192Y2219D01*
X1194Y2219D01*
X1194Y2211D01*
X1196Y2211D01*
X1196Y2203D01*
X1216Y2203D01*
X1216Y2205D01*
X1218Y2205D01*
X1218Y2207D01*
X1220Y2207D01*
X1220Y2209D01*
X1222Y2209D01*
X1222Y2211D01*
X1224Y2211D01*
X1224Y2213D01*
X1226Y2213D01*
X1226Y2215D01*
X1228Y2215D01*
X1228Y2217D01*
X1230Y2217D01*
X1230Y2219D01*
X1232Y2219D01*
X1232Y2221D01*
X1234Y2221D01*
X1234Y2223D01*
X1236Y2223D01*
X1236Y2225D01*
X1238Y2225D01*
X1238Y2227D01*
X1240Y2227D01*
X1240Y2229D01*
X1242Y2229D01*
X1242Y2231D01*
X1244Y2231D01*
X1244Y2233D01*
X1246Y2233D01*
X1246Y2235D01*
X1248Y2235D01*
X1248Y2237D01*
X1250Y2237D01*
X1250Y2239D01*
X1252Y2239D01*
X1252Y2241D01*
X1254Y2241D01*
X1254Y2243D01*
X1256Y2243D01*
X1256Y2245D01*
X1258Y2245D01*
X1258Y2247D01*
X1260Y2247D01*
X1260Y2249D01*
X1262Y2249D01*
X1262Y2251D01*
X1264Y2251D01*
X1264Y2253D01*
X1266Y2253D01*
X1266Y2255D01*
X1268Y2255D01*
X1268Y2257D01*
X1270Y2257D01*
X1270Y2259D01*
X1272Y2259D01*
X1272Y2261D01*
X1274Y2261D01*
X1274Y2263D01*
X1276Y2263D01*
X1276Y2265D01*
X1278Y2265D01*
X1278Y2267D01*
X1280Y2267D01*
X1280Y2269D01*
X1282Y2269D01*
X1282Y2271D01*
X1284Y2271D01*
X1284Y2273D01*
X1286Y2273D01*
X1286Y2275D01*
X1288Y2275D01*
X1288Y2277D01*
X1290Y2277D01*
X1290Y2279D01*
X1292Y2279D01*
X1292Y2281D01*
X1294Y2281D01*
X1294Y2283D01*
X1296Y2283D01*
X1296Y2285D01*
X1298Y2285D01*
X1298Y2287D01*
X1300Y2287D01*
X1300Y2289D01*
X1302Y2289D01*
X1302Y2291D01*
X1304Y2291D01*
X1304Y2293D01*
X1308Y2293D01*
X1308Y2295D01*
X1310Y2295D01*
X1310Y2297D01*
X1312Y2297D01*
X1312Y2299D01*
X1314Y2299D01*
X1314Y2301D01*
X1316Y2301D01*
X1316Y2303D01*
X1318Y2303D01*
X1318Y2305D01*
X1320Y2305D01*
X1320Y2307D01*
X1322Y2307D01*
X1322Y2309D01*
X1324Y2309D01*
X1324Y2311D01*
X1326Y2311D01*
X1326Y2313D01*
X1328Y2313D01*
X1328Y2315D01*
X1330Y2315D01*
X1330Y2809D01*
X1332Y2809D01*
X1332Y2815D01*
X1334Y2815D01*
X1334Y2819D01*
X1336Y2819D01*
X1336Y2821D01*
X1338Y2821D01*
X1338Y2823D01*
X1340Y2823D01*
X1340Y2825D01*
X1342Y2825D01*
X1342Y2827D01*
X1346Y2827D01*
X1346Y2829D01*
X1348Y2829D01*
X1348Y2831D01*
X1352Y2831D01*
X1352Y2833D01*
X1354Y2833D01*
X1354Y2835D01*
X1356Y2835D01*
X1356Y2837D01*
X1360Y2837D01*
X1360Y2839D01*
X1362Y2839D01*
X1362Y2841D01*
X1366Y2841D01*
X1366Y2843D01*
X1368Y2843D01*
X1368Y2845D01*
X1372Y2845D01*
X1372Y2847D01*
X1374Y2847D01*
X1374Y2849D01*
X1378Y2849D01*
X1378Y2851D01*
X1380Y2851D01*
X1380Y2853D01*
X1382Y2853D01*
X1382Y2855D01*
X1386Y2855D01*
X1386Y2857D01*
X1388Y2857D01*
X1388Y2859D01*
X1392Y2859D01*
X1392Y2861D01*
X1394Y2861D01*
X1394Y2863D01*
X1398Y2863D01*
X1398Y2865D01*
X1400Y2865D01*
X1400Y2867D01*
X1404Y2867D01*
X1404Y2869D01*
X1406Y2869D01*
X1406Y2871D01*
X1408Y2871D01*
X1408Y2873D01*
X1412Y2873D01*
X1412Y2875D01*
X1414Y2875D01*
X1414Y2877D01*
X1418Y2877D01*
X1418Y2879D01*
X1420Y2879D01*
X1420Y2881D01*
X1424Y2881D01*
X1424Y2883D01*
X1426Y2883D01*
X1426Y2885D01*
X1428Y2885D01*
X1428Y2887D01*
X1432Y2887D01*
X1432Y2889D01*
X1434Y2889D01*
X1434Y2891D01*
X1438Y2891D01*
X1438Y2893D01*
X1440Y2893D01*
X1440Y2895D01*
X1444Y2895D01*
X1444Y2897D01*
X1446Y2897D01*
X1446Y2899D01*
X1450Y2899D01*
X1450Y2901D01*
X1452Y2901D01*
X1452Y2903D01*
X1454Y2903D01*
X1454Y2905D01*
X1458Y2905D01*
X1458Y2907D01*
X1460Y2907D01*
X1460Y2909D01*
X1462Y2909D01*
X1462Y2947D01*
X1464Y2947D01*
X1464Y2949D01*
X1486Y2949D01*
X1486Y2969D01*
X1482Y2969D01*
X1482Y2971D01*
X1480Y2971D01*
X1480Y2973D01*
X1476Y2973D01*
X1476Y2975D01*
X1474Y2975D01*
X1474Y2977D01*
X1472Y2977D01*
X1472Y2981D01*
X1470Y2981D01*
X1470Y2983D01*
X1468Y2983D01*
X1468Y2987D01*
X1466Y2987D01*
X1466Y2991D01*
X1464Y2991D01*
X1464Y3001D01*
X1462Y3001D01*
X1462Y3009D01*
X1464Y3009D01*
X1464Y3019D01*
X1466Y3019D01*
X1466Y3023D01*
X1468Y3023D01*
X1468Y3027D01*
X1470Y3027D01*
X1470Y3029D01*
X1472Y3029D01*
X1472Y3033D01*
X1474Y3033D01*
X1474Y3035D01*
X1476Y3035D01*
X1476Y3037D01*
X1480Y3037D01*
X1480Y3039D01*
X1482Y3039D01*
X1482Y3041D01*
X1486Y3041D01*
X1486Y3043D01*
X1490Y3043D01*
X1490Y3045D01*
X1500Y3045D01*
X1500Y3047D01*
X1158Y3047D01*
G37*
D02*
G36*
X1546Y2911D02*
X1546Y2865D01*
X1488Y2865D01*
X1488Y2863D01*
X1486Y2863D01*
X1486Y2861D01*
X1482Y2861D01*
X1482Y2859D01*
X1480Y2859D01*
X1480Y2857D01*
X1476Y2857D01*
X1476Y2855D01*
X1474Y2855D01*
X1474Y2853D01*
X1472Y2853D01*
X1472Y2851D01*
X1468Y2851D01*
X1468Y2849D01*
X1466Y2849D01*
X1466Y2847D01*
X1462Y2847D01*
X1462Y2845D01*
X1460Y2845D01*
X1460Y2843D01*
X1456Y2843D01*
X1456Y2841D01*
X1454Y2841D01*
X1454Y2839D01*
X1452Y2839D01*
X1452Y2837D01*
X1448Y2837D01*
X1448Y2835D01*
X1446Y2835D01*
X1446Y2833D01*
X1442Y2833D01*
X1442Y2831D01*
X1440Y2831D01*
X1440Y2829D01*
X1436Y2829D01*
X1436Y2827D01*
X1434Y2827D01*
X1434Y2825D01*
X1430Y2825D01*
X1430Y2823D01*
X1428Y2823D01*
X1428Y2821D01*
X1426Y2821D01*
X1426Y2819D01*
X1422Y2819D01*
X1422Y2817D01*
X1420Y2817D01*
X1420Y2815D01*
X1416Y2815D01*
X1416Y2813D01*
X1414Y2813D01*
X1414Y2811D01*
X1410Y2811D01*
X1410Y2809D01*
X1408Y2809D01*
X1408Y2807D01*
X1404Y2807D01*
X1404Y2805D01*
X1402Y2805D01*
X1402Y2803D01*
X1400Y2803D01*
X1400Y2801D01*
X1396Y2801D01*
X1396Y2799D01*
X1394Y2799D01*
X1394Y2797D01*
X1390Y2797D01*
X1390Y2795D01*
X1388Y2795D01*
X1388Y2793D01*
X1384Y2793D01*
X1384Y2791D01*
X1382Y2791D01*
X1382Y2647D01*
X1508Y2647D01*
X1508Y2645D01*
X1518Y2645D01*
X1518Y2643D01*
X1522Y2643D01*
X1522Y2641D01*
X1526Y2641D01*
X1526Y2639D01*
X1528Y2639D01*
X1528Y2637D01*
X1532Y2637D01*
X1532Y2635D01*
X1534Y2635D01*
X1534Y2633D01*
X1536Y2633D01*
X1536Y2629D01*
X1538Y2629D01*
X1538Y2627D01*
X1540Y2627D01*
X1540Y2623D01*
X1542Y2623D01*
X1542Y2619D01*
X1544Y2619D01*
X1544Y2611D01*
X1546Y2611D01*
X1546Y2599D01*
X1544Y2599D01*
X1544Y2595D01*
X1564Y2595D01*
X1564Y2597D01*
X1566Y2597D01*
X1566Y2599D01*
X1568Y2599D01*
X1568Y2601D01*
X1570Y2601D01*
X1570Y2603D01*
X1572Y2603D01*
X1572Y2605D01*
X1574Y2605D01*
X1574Y2607D01*
X1576Y2607D01*
X1576Y2609D01*
X1578Y2609D01*
X1578Y2611D01*
X1580Y2611D01*
X1580Y2613D01*
X1582Y2613D01*
X1582Y2615D01*
X1584Y2615D01*
X1584Y2617D01*
X1586Y2617D01*
X1586Y2619D01*
X1588Y2619D01*
X1588Y2621D01*
X1592Y2621D01*
X1592Y2623D01*
X1594Y2623D01*
X1594Y2625D01*
X1596Y2625D01*
X1596Y2627D01*
X1598Y2627D01*
X1598Y2629D01*
X1600Y2629D01*
X1600Y2631D01*
X1602Y2631D01*
X1602Y2633D01*
X1604Y2633D01*
X1604Y2635D01*
X1606Y2635D01*
X1606Y2637D01*
X1608Y2637D01*
X1608Y2639D01*
X1610Y2639D01*
X1610Y2641D01*
X1612Y2641D01*
X1612Y2643D01*
X1614Y2643D01*
X1614Y2645D01*
X1616Y2645D01*
X1616Y2647D01*
X1618Y2647D01*
X1618Y2649D01*
X1620Y2649D01*
X1620Y2651D01*
X1622Y2651D01*
X1622Y2653D01*
X1624Y2653D01*
X1624Y2655D01*
X1626Y2655D01*
X1626Y2657D01*
X1628Y2657D01*
X1628Y2659D01*
X1630Y2659D01*
X1630Y2661D01*
X1632Y2661D01*
X1632Y2845D01*
X1630Y2845D01*
X1630Y2847D01*
X1628Y2847D01*
X1628Y2849D01*
X1626Y2849D01*
X1626Y2851D01*
X1624Y2851D01*
X1624Y2853D01*
X1622Y2853D01*
X1622Y2855D01*
X1620Y2855D01*
X1620Y2857D01*
X1618Y2857D01*
X1618Y2859D01*
X1616Y2859D01*
X1616Y2861D01*
X1614Y2861D01*
X1614Y2863D01*
X1612Y2863D01*
X1612Y2865D01*
X1610Y2865D01*
X1610Y2867D01*
X1608Y2867D01*
X1608Y2869D01*
X1606Y2869D01*
X1606Y2871D01*
X1604Y2871D01*
X1604Y2873D01*
X1602Y2873D01*
X1602Y2875D01*
X1600Y2875D01*
X1600Y2877D01*
X1598Y2877D01*
X1598Y2879D01*
X1596Y2879D01*
X1596Y2881D01*
X1594Y2881D01*
X1594Y2883D01*
X1592Y2883D01*
X1592Y2885D01*
X1590Y2885D01*
X1590Y2887D01*
X1588Y2887D01*
X1588Y2889D01*
X1586Y2889D01*
X1586Y2891D01*
X1584Y2891D01*
X1584Y2893D01*
X1582Y2893D01*
X1582Y2895D01*
X1580Y2895D01*
X1580Y2897D01*
X1578Y2897D01*
X1578Y2899D01*
X1576Y2899D01*
X1576Y2901D01*
X1574Y2901D01*
X1574Y2903D01*
X1572Y2903D01*
X1572Y2905D01*
X1570Y2905D01*
X1570Y2907D01*
X1568Y2907D01*
X1568Y2909D01*
X1566Y2909D01*
X1566Y2911D01*
X1546Y2911D01*
G37*
D02*
G36*
X680Y2647D02*
X680Y2573D01*
X686Y2573D01*
X686Y2571D01*
X692Y2571D01*
X692Y2569D01*
X698Y2569D01*
X698Y2567D01*
X704Y2567D01*
X704Y2565D01*
X710Y2565D01*
X710Y2563D01*
X718Y2563D01*
X718Y2561D01*
X724Y2561D01*
X724Y2559D01*
X730Y2559D01*
X730Y2557D01*
X736Y2557D01*
X736Y2555D01*
X742Y2555D01*
X742Y2553D01*
X748Y2553D01*
X748Y2551D01*
X754Y2551D01*
X754Y2549D01*
X786Y2549D01*
X786Y2569D01*
X782Y2569D01*
X782Y2571D01*
X780Y2571D01*
X780Y2573D01*
X776Y2573D01*
X776Y2575D01*
X774Y2575D01*
X774Y2577D01*
X772Y2577D01*
X772Y2581D01*
X770Y2581D01*
X770Y2583D01*
X768Y2583D01*
X768Y2587D01*
X766Y2587D01*
X766Y2591D01*
X764Y2591D01*
X764Y2601D01*
X762Y2601D01*
X762Y2609D01*
X764Y2609D01*
X764Y2619D01*
X766Y2619D01*
X766Y2623D01*
X768Y2623D01*
X768Y2627D01*
X770Y2627D01*
X770Y2629D01*
X772Y2629D01*
X772Y2633D01*
X774Y2633D01*
X774Y2635D01*
X776Y2635D01*
X776Y2637D01*
X780Y2637D01*
X780Y2639D01*
X782Y2639D01*
X782Y2641D01*
X786Y2641D01*
X786Y2643D01*
X790Y2643D01*
X790Y2645D01*
X800Y2645D01*
X800Y2647D01*
X680Y2647D01*
G37*
D02*
G36*
X808Y2647D02*
X808Y2645D01*
X818Y2645D01*
X818Y2643D01*
X822Y2643D01*
X822Y2641D01*
X826Y2641D01*
X826Y2639D01*
X828Y2639D01*
X828Y2637D01*
X832Y2637D01*
X832Y2635D01*
X834Y2635D01*
X834Y2633D01*
X836Y2633D01*
X836Y2629D01*
X838Y2629D01*
X838Y2627D01*
X840Y2627D01*
X840Y2623D01*
X842Y2623D01*
X842Y2619D01*
X844Y2619D01*
X844Y2611D01*
X846Y2611D01*
X846Y2599D01*
X844Y2599D01*
X844Y2591D01*
X842Y2591D01*
X842Y2587D01*
X840Y2587D01*
X840Y2583D01*
X838Y2583D01*
X838Y2581D01*
X836Y2581D01*
X836Y2577D01*
X834Y2577D01*
X834Y2575D01*
X832Y2575D01*
X832Y2573D01*
X828Y2573D01*
X828Y2571D01*
X826Y2571D01*
X826Y2569D01*
X822Y2569D01*
X822Y2549D01*
X844Y2549D01*
X844Y2547D01*
X846Y2547D01*
X846Y2481D01*
X848Y2481D01*
X848Y2479D01*
X850Y2479D01*
X850Y2475D01*
X852Y2475D01*
X852Y2471D01*
X854Y2471D01*
X854Y2469D01*
X856Y2469D01*
X856Y2465D01*
X858Y2465D01*
X858Y2463D01*
X860Y2463D01*
X860Y2459D01*
X862Y2459D01*
X862Y2457D01*
X864Y2457D01*
X864Y2453D01*
X866Y2453D01*
X866Y2451D01*
X868Y2451D01*
X868Y2447D01*
X870Y2447D01*
X870Y2445D01*
X872Y2445D01*
X872Y2441D01*
X874Y2441D01*
X874Y2439D01*
X876Y2439D01*
X876Y2435D01*
X878Y2435D01*
X878Y2433D01*
X880Y2433D01*
X880Y2429D01*
X882Y2429D01*
X882Y2425D01*
X884Y2425D01*
X884Y2423D01*
X886Y2423D01*
X886Y2419D01*
X888Y2419D01*
X888Y2417D01*
X890Y2417D01*
X890Y2413D01*
X892Y2413D01*
X892Y2411D01*
X894Y2411D01*
X894Y2407D01*
X896Y2407D01*
X896Y2405D01*
X898Y2405D01*
X898Y2401D01*
X900Y2401D01*
X900Y2399D01*
X902Y2399D01*
X902Y2395D01*
X904Y2395D01*
X904Y2393D01*
X906Y2393D01*
X906Y2389D01*
X908Y2389D01*
X908Y2387D01*
X910Y2387D01*
X910Y2383D01*
X912Y2383D01*
X912Y2379D01*
X914Y2379D01*
X914Y2377D01*
X916Y2377D01*
X916Y2373D01*
X918Y2373D01*
X918Y2371D01*
X920Y2371D01*
X920Y2367D01*
X922Y2367D01*
X922Y2365D01*
X924Y2365D01*
X924Y2355D01*
X926Y2355D01*
X926Y2155D01*
X924Y2155D01*
X924Y2145D01*
X922Y2145D01*
X922Y2143D01*
X920Y2143D01*
X920Y2139D01*
X916Y2139D01*
X916Y2137D01*
X914Y2137D01*
X914Y2135D01*
X910Y2135D01*
X910Y2133D01*
X906Y2133D01*
X906Y2131D01*
X902Y2131D01*
X902Y2129D01*
X898Y2129D01*
X898Y2127D01*
X894Y2127D01*
X894Y2125D01*
X890Y2125D01*
X890Y2123D01*
X886Y2123D01*
X886Y2121D01*
X882Y2121D01*
X882Y2119D01*
X878Y2119D01*
X878Y2117D01*
X874Y2117D01*
X874Y2115D01*
X870Y2115D01*
X870Y2113D01*
X866Y2113D01*
X866Y2111D01*
X862Y2111D01*
X862Y2109D01*
X858Y2109D01*
X858Y2107D01*
X852Y2107D01*
X852Y2105D01*
X848Y2105D01*
X848Y2103D01*
X846Y2103D01*
X846Y2065D01*
X778Y2065D01*
X778Y2063D01*
X774Y2063D01*
X774Y2061D01*
X770Y2061D01*
X770Y2059D01*
X766Y2059D01*
X766Y2057D01*
X762Y2057D01*
X762Y2055D01*
X758Y2055D01*
X758Y2053D01*
X756Y2053D01*
X756Y2051D01*
X752Y2051D01*
X752Y2049D01*
X748Y2049D01*
X748Y2047D01*
X744Y2047D01*
X744Y2045D01*
X740Y2045D01*
X740Y2043D01*
X736Y2043D01*
X736Y2041D01*
X732Y2041D01*
X732Y2039D01*
X728Y2039D01*
X728Y2037D01*
X724Y2037D01*
X724Y2035D01*
X720Y2035D01*
X720Y2033D01*
X716Y2033D01*
X716Y2031D01*
X712Y2031D01*
X712Y2029D01*
X708Y2029D01*
X708Y2027D01*
X704Y2027D01*
X704Y2025D01*
X700Y2025D01*
X700Y2023D01*
X696Y2023D01*
X696Y2021D01*
X694Y2021D01*
X694Y2019D01*
X690Y2019D01*
X690Y2017D01*
X686Y2017D01*
X686Y2015D01*
X682Y2015D01*
X682Y2013D01*
X678Y2013D01*
X678Y2011D01*
X674Y2011D01*
X674Y2009D01*
X670Y2009D01*
X670Y2007D01*
X666Y2007D01*
X666Y2005D01*
X662Y2005D01*
X662Y2003D01*
X658Y2003D01*
X658Y2001D01*
X654Y2001D01*
X654Y1999D01*
X650Y1999D01*
X650Y1997D01*
X646Y1997D01*
X646Y1995D01*
X642Y1995D01*
X642Y1993D01*
X638Y1993D01*
X638Y1991D01*
X636Y1991D01*
X636Y1989D01*
X632Y1989D01*
X632Y1847D01*
X808Y1847D01*
X808Y1845D01*
X818Y1845D01*
X818Y1843D01*
X822Y1843D01*
X822Y1841D01*
X826Y1841D01*
X826Y1839D01*
X828Y1839D01*
X828Y1837D01*
X832Y1837D01*
X832Y1835D01*
X834Y1835D01*
X834Y1833D01*
X836Y1833D01*
X836Y1829D01*
X838Y1829D01*
X838Y1827D01*
X840Y1827D01*
X840Y1823D01*
X842Y1823D01*
X842Y1819D01*
X844Y1819D01*
X844Y1811D01*
X846Y1811D01*
X846Y1803D01*
X866Y1803D01*
X866Y1805D01*
X868Y1805D01*
X868Y1807D01*
X870Y1807D01*
X870Y1809D01*
X872Y1809D01*
X872Y1811D01*
X874Y1811D01*
X874Y1813D01*
X876Y1813D01*
X876Y1815D01*
X878Y1815D01*
X878Y1817D01*
X880Y1817D01*
X880Y1819D01*
X882Y1819D01*
X882Y1821D01*
X884Y1821D01*
X884Y1823D01*
X886Y1823D01*
X886Y1825D01*
X888Y1825D01*
X888Y1827D01*
X890Y1827D01*
X890Y1829D01*
X892Y1829D01*
X892Y1831D01*
X894Y1831D01*
X894Y1833D01*
X896Y1833D01*
X896Y1835D01*
X898Y1835D01*
X898Y1837D01*
X900Y1837D01*
X900Y1839D01*
X902Y1839D01*
X902Y1841D01*
X904Y1841D01*
X904Y1843D01*
X906Y1843D01*
X906Y1845D01*
X908Y1845D01*
X908Y1847D01*
X910Y1847D01*
X910Y1849D01*
X912Y1849D01*
X912Y1851D01*
X914Y1851D01*
X914Y1853D01*
X916Y1853D01*
X916Y1855D01*
X918Y1855D01*
X918Y1857D01*
X920Y1857D01*
X920Y1859D01*
X922Y1859D01*
X922Y1861D01*
X924Y1861D01*
X924Y1863D01*
X926Y1863D01*
X926Y1865D01*
X928Y1865D01*
X928Y1867D01*
X930Y1867D01*
X930Y1869D01*
X932Y1869D01*
X932Y1871D01*
X934Y1871D01*
X934Y1873D01*
X936Y1873D01*
X936Y1875D01*
X938Y1875D01*
X938Y1877D01*
X940Y1877D01*
X940Y1879D01*
X942Y1879D01*
X942Y1881D01*
X944Y1881D01*
X944Y1883D01*
X946Y1883D01*
X946Y1885D01*
X948Y1885D01*
X948Y1887D01*
X950Y1887D01*
X950Y1889D01*
X952Y1889D01*
X952Y1891D01*
X954Y1891D01*
X954Y1893D01*
X956Y1893D01*
X956Y1895D01*
X958Y1895D01*
X958Y1897D01*
X960Y1897D01*
X960Y1899D01*
X962Y1899D01*
X962Y1901D01*
X964Y1901D01*
X964Y1903D01*
X966Y1903D01*
X966Y1905D01*
X968Y1905D01*
X968Y1907D01*
X970Y1907D01*
X970Y1909D01*
X972Y1909D01*
X972Y1911D01*
X974Y1911D01*
X974Y1913D01*
X976Y1913D01*
X976Y1915D01*
X978Y1915D01*
X978Y1917D01*
X980Y1917D01*
X980Y2413D01*
X982Y2413D01*
X982Y2417D01*
X984Y2417D01*
X984Y2421D01*
X986Y2421D01*
X986Y2423D01*
X988Y2423D01*
X988Y2425D01*
X992Y2425D01*
X992Y2427D01*
X994Y2427D01*
X994Y2429D01*
X998Y2429D01*
X998Y2431D01*
X1000Y2431D01*
X1000Y2433D01*
X1004Y2433D01*
X1004Y2435D01*
X1006Y2435D01*
X1006Y2437D01*
X1008Y2437D01*
X1008Y2439D01*
X1012Y2439D01*
X1012Y2441D01*
X1014Y2441D01*
X1014Y2443D01*
X1018Y2443D01*
X1018Y2445D01*
X1020Y2445D01*
X1020Y2447D01*
X1024Y2447D01*
X1024Y2449D01*
X1026Y2449D01*
X1026Y2451D01*
X1030Y2451D01*
X1030Y2453D01*
X1032Y2453D01*
X1032Y2455D01*
X1034Y2455D01*
X1034Y2457D01*
X1038Y2457D01*
X1038Y2459D01*
X1040Y2459D01*
X1040Y2461D01*
X1044Y2461D01*
X1044Y2463D01*
X1046Y2463D01*
X1046Y2465D01*
X1050Y2465D01*
X1050Y2467D01*
X1052Y2467D01*
X1052Y2469D01*
X1056Y2469D01*
X1056Y2471D01*
X1058Y2471D01*
X1058Y2473D01*
X1062Y2473D01*
X1062Y2475D01*
X1064Y2475D01*
X1064Y2477D01*
X1066Y2477D01*
X1066Y2479D01*
X1070Y2479D01*
X1070Y2481D01*
X1072Y2481D01*
X1072Y2483D01*
X1076Y2483D01*
X1076Y2485D01*
X1078Y2485D01*
X1078Y2487D01*
X1082Y2487D01*
X1082Y2489D01*
X1084Y2489D01*
X1084Y2491D01*
X1088Y2491D01*
X1088Y2493D01*
X1090Y2493D01*
X1090Y2495D01*
X1092Y2495D01*
X1092Y2497D01*
X1096Y2497D01*
X1096Y2499D01*
X1098Y2499D01*
X1098Y2501D01*
X1102Y2501D01*
X1102Y2503D01*
X1104Y2503D01*
X1104Y2505D01*
X1108Y2505D01*
X1108Y2507D01*
X1110Y2507D01*
X1110Y2509D01*
X1112Y2509D01*
X1112Y2547D01*
X1114Y2547D01*
X1114Y2549D01*
X1136Y2549D01*
X1136Y2569D01*
X1132Y2569D01*
X1132Y2571D01*
X1130Y2571D01*
X1130Y2573D01*
X1126Y2573D01*
X1126Y2575D01*
X1124Y2575D01*
X1124Y2577D01*
X1122Y2577D01*
X1122Y2581D01*
X1120Y2581D01*
X1120Y2583D01*
X1118Y2583D01*
X1118Y2587D01*
X1116Y2587D01*
X1116Y2591D01*
X1114Y2591D01*
X1114Y2601D01*
X1112Y2601D01*
X1112Y2609D01*
X1114Y2609D01*
X1114Y2619D01*
X1116Y2619D01*
X1116Y2623D01*
X1118Y2623D01*
X1118Y2627D01*
X1120Y2627D01*
X1120Y2629D01*
X1122Y2629D01*
X1122Y2633D01*
X1124Y2633D01*
X1124Y2635D01*
X1126Y2635D01*
X1126Y2637D01*
X1130Y2637D01*
X1130Y2639D01*
X1132Y2639D01*
X1132Y2641D01*
X1136Y2641D01*
X1136Y2643D01*
X1140Y2643D01*
X1140Y2645D01*
X1150Y2645D01*
X1150Y2647D01*
X808Y2647D01*
G37*
D02*
G36*
X1382Y2647D02*
X1382Y2299D01*
X1380Y2299D01*
X1380Y2293D01*
X1378Y2293D01*
X1378Y2291D01*
X1376Y2291D01*
X1376Y2289D01*
X1374Y2289D01*
X1374Y2287D01*
X1372Y2287D01*
X1372Y2285D01*
X1370Y2285D01*
X1370Y2283D01*
X1368Y2283D01*
X1368Y2281D01*
X1366Y2281D01*
X1366Y2279D01*
X1364Y2279D01*
X1364Y2277D01*
X1362Y2277D01*
X1362Y2275D01*
X1360Y2275D01*
X1360Y2273D01*
X1358Y2273D01*
X1358Y2271D01*
X1356Y2271D01*
X1356Y2269D01*
X1354Y2269D01*
X1354Y2267D01*
X1352Y2267D01*
X1352Y2265D01*
X1350Y2265D01*
X1350Y2263D01*
X1348Y2263D01*
X1348Y2261D01*
X1346Y2261D01*
X1346Y2259D01*
X1344Y2259D01*
X1344Y2257D01*
X1342Y2257D01*
X1342Y2255D01*
X1340Y2255D01*
X1340Y2253D01*
X1338Y2253D01*
X1338Y2251D01*
X1336Y2251D01*
X1336Y2249D01*
X1334Y2249D01*
X1334Y2247D01*
X1508Y2247D01*
X1508Y2245D01*
X1518Y2245D01*
X1518Y2243D01*
X1522Y2243D01*
X1522Y2241D01*
X1526Y2241D01*
X1526Y2239D01*
X1528Y2239D01*
X1528Y2237D01*
X1532Y2237D01*
X1532Y2235D01*
X1534Y2235D01*
X1534Y2233D01*
X1536Y2233D01*
X1536Y2229D01*
X1538Y2229D01*
X1538Y2227D01*
X1540Y2227D01*
X1540Y2223D01*
X1542Y2223D01*
X1542Y2219D01*
X1544Y2219D01*
X1544Y2211D01*
X1546Y2211D01*
X1546Y2199D01*
X1544Y2199D01*
X1544Y2191D01*
X1542Y2191D01*
X1542Y2187D01*
X1540Y2187D01*
X1540Y2183D01*
X1538Y2183D01*
X1538Y2181D01*
X1536Y2181D01*
X1536Y2177D01*
X1534Y2177D01*
X1534Y2175D01*
X1532Y2175D01*
X1532Y2173D01*
X1528Y2173D01*
X1528Y2171D01*
X1526Y2171D01*
X1526Y2169D01*
X1522Y2169D01*
X1522Y2149D01*
X1544Y2149D01*
X1544Y2151D01*
X1548Y2151D01*
X1548Y2153D01*
X1552Y2153D01*
X1552Y2155D01*
X1556Y2155D01*
X1556Y2157D01*
X1560Y2157D01*
X1560Y2159D01*
X1564Y2159D01*
X1564Y2161D01*
X1568Y2161D01*
X1568Y2163D01*
X1574Y2163D01*
X1574Y2165D01*
X1578Y2165D01*
X1578Y2167D01*
X1582Y2167D01*
X1582Y2169D01*
X1584Y2169D01*
X1584Y2395D01*
X1582Y2395D01*
X1582Y2397D01*
X1580Y2397D01*
X1580Y2399D01*
X1578Y2399D01*
X1578Y2401D01*
X1576Y2401D01*
X1576Y2403D01*
X1574Y2403D01*
X1574Y2405D01*
X1572Y2405D01*
X1572Y2407D01*
X1570Y2407D01*
X1570Y2409D01*
X1568Y2409D01*
X1568Y2411D01*
X1566Y2411D01*
X1566Y2413D01*
X1564Y2413D01*
X1564Y2415D01*
X1562Y2415D01*
X1562Y2417D01*
X1560Y2417D01*
X1560Y2419D01*
X1558Y2419D01*
X1558Y2421D01*
X1556Y2421D01*
X1556Y2423D01*
X1554Y2423D01*
X1554Y2425D01*
X1552Y2425D01*
X1552Y2427D01*
X1550Y2427D01*
X1550Y2429D01*
X1548Y2429D01*
X1548Y2431D01*
X1546Y2431D01*
X1546Y2433D01*
X1544Y2433D01*
X1544Y2435D01*
X1542Y2435D01*
X1542Y2437D01*
X1540Y2437D01*
X1540Y2439D01*
X1538Y2439D01*
X1538Y2441D01*
X1536Y2441D01*
X1536Y2443D01*
X1534Y2443D01*
X1534Y2445D01*
X1532Y2445D01*
X1532Y2447D01*
X1530Y2447D01*
X1530Y2449D01*
X1528Y2449D01*
X1528Y2451D01*
X1526Y2451D01*
X1526Y2453D01*
X1524Y2453D01*
X1524Y2457D01*
X1522Y2457D01*
X1522Y2459D01*
X1520Y2459D01*
X1520Y2461D01*
X1518Y2461D01*
X1518Y2463D01*
X1516Y2463D01*
X1516Y2465D01*
X1462Y2465D01*
X1462Y2547D01*
X1464Y2547D01*
X1464Y2549D01*
X1486Y2549D01*
X1486Y2569D01*
X1482Y2569D01*
X1482Y2571D01*
X1480Y2571D01*
X1480Y2573D01*
X1476Y2573D01*
X1476Y2575D01*
X1474Y2575D01*
X1474Y2577D01*
X1472Y2577D01*
X1472Y2581D01*
X1470Y2581D01*
X1470Y2583D01*
X1468Y2583D01*
X1468Y2587D01*
X1466Y2587D01*
X1466Y2591D01*
X1464Y2591D01*
X1464Y2601D01*
X1462Y2601D01*
X1462Y2609D01*
X1464Y2609D01*
X1464Y2619D01*
X1466Y2619D01*
X1466Y2623D01*
X1468Y2623D01*
X1468Y2627D01*
X1470Y2627D01*
X1470Y2629D01*
X1472Y2629D01*
X1472Y2633D01*
X1474Y2633D01*
X1474Y2635D01*
X1476Y2635D01*
X1476Y2637D01*
X1480Y2637D01*
X1480Y2639D01*
X1482Y2639D01*
X1482Y2641D01*
X1486Y2641D01*
X1486Y2643D01*
X1490Y2643D01*
X1490Y2645D01*
X1500Y2645D01*
X1500Y2647D01*
X1382Y2647D01*
G37*
D02*
G36*
X40Y2247D02*
X40Y1847D01*
X408Y1847D01*
X408Y1845D01*
X418Y1845D01*
X418Y1843D01*
X422Y1843D01*
X422Y1841D01*
X426Y1841D01*
X426Y1839D01*
X428Y1839D01*
X428Y1837D01*
X432Y1837D01*
X432Y1835D01*
X434Y1835D01*
X434Y1833D01*
X436Y1833D01*
X436Y1829D01*
X438Y1829D01*
X438Y1827D01*
X440Y1827D01*
X440Y1823D01*
X442Y1823D01*
X442Y1819D01*
X444Y1819D01*
X444Y1811D01*
X446Y1811D01*
X446Y1799D01*
X444Y1799D01*
X444Y1791D01*
X442Y1791D01*
X442Y1787D01*
X440Y1787D01*
X440Y1783D01*
X438Y1783D01*
X438Y1781D01*
X436Y1781D01*
X436Y1777D01*
X434Y1777D01*
X434Y1775D01*
X432Y1775D01*
X432Y1773D01*
X428Y1773D01*
X428Y1771D01*
X426Y1771D01*
X426Y1769D01*
X422Y1769D01*
X422Y1753D01*
X442Y1753D01*
X442Y1755D01*
X446Y1755D01*
X446Y1757D01*
X450Y1757D01*
X450Y1759D01*
X454Y1759D01*
X454Y1761D01*
X458Y1761D01*
X458Y1763D01*
X462Y1763D01*
X462Y1765D01*
X466Y1765D01*
X466Y1767D01*
X470Y1767D01*
X470Y1769D01*
X474Y1769D01*
X474Y1771D01*
X476Y1771D01*
X476Y1995D01*
X474Y1995D01*
X474Y1997D01*
X472Y1997D01*
X472Y1999D01*
X470Y1999D01*
X470Y2001D01*
X468Y2001D01*
X468Y2003D01*
X466Y2003D01*
X466Y2005D01*
X464Y2005D01*
X464Y2007D01*
X462Y2007D01*
X462Y2011D01*
X460Y2011D01*
X460Y2013D01*
X458Y2013D01*
X458Y2015D01*
X456Y2015D01*
X456Y2017D01*
X454Y2017D01*
X454Y2019D01*
X452Y2019D01*
X452Y2021D01*
X450Y2021D01*
X450Y2023D01*
X448Y2023D01*
X448Y2025D01*
X446Y2025D01*
X446Y2027D01*
X444Y2027D01*
X444Y2029D01*
X442Y2029D01*
X442Y2031D01*
X440Y2031D01*
X440Y2033D01*
X438Y2033D01*
X438Y2035D01*
X436Y2035D01*
X436Y2037D01*
X434Y2037D01*
X434Y2039D01*
X432Y2039D01*
X432Y2041D01*
X430Y2041D01*
X430Y2043D01*
X428Y2043D01*
X428Y2045D01*
X426Y2045D01*
X426Y2047D01*
X424Y2047D01*
X424Y2049D01*
X422Y2049D01*
X422Y2051D01*
X420Y2051D01*
X420Y2053D01*
X418Y2053D01*
X418Y2055D01*
X416Y2055D01*
X416Y2057D01*
X414Y2057D01*
X414Y2059D01*
X412Y2059D01*
X412Y2061D01*
X410Y2061D01*
X410Y2063D01*
X408Y2063D01*
X408Y2065D01*
X362Y2065D01*
X362Y2147D01*
X364Y2147D01*
X364Y2149D01*
X386Y2149D01*
X386Y2169D01*
X382Y2169D01*
X382Y2171D01*
X380Y2171D01*
X380Y2173D01*
X376Y2173D01*
X376Y2175D01*
X374Y2175D01*
X374Y2177D01*
X372Y2177D01*
X372Y2181D01*
X370Y2181D01*
X370Y2183D01*
X368Y2183D01*
X368Y2187D01*
X366Y2187D01*
X366Y2191D01*
X364Y2191D01*
X364Y2201D01*
X362Y2201D01*
X362Y2209D01*
X364Y2209D01*
X364Y2219D01*
X366Y2219D01*
X366Y2223D01*
X368Y2223D01*
X368Y2227D01*
X370Y2227D01*
X370Y2229D01*
X372Y2229D01*
X372Y2233D01*
X374Y2233D01*
X374Y2235D01*
X376Y2235D01*
X376Y2237D01*
X380Y2237D01*
X380Y2239D01*
X382Y2239D01*
X382Y2241D01*
X386Y2241D01*
X386Y2243D01*
X390Y2243D01*
X390Y2245D01*
X400Y2245D01*
X400Y2247D01*
X40Y2247D01*
G37*
D02*
G36*
X1032Y2247D02*
X1032Y1903D01*
X1030Y1903D01*
X1030Y1895D01*
X1028Y1895D01*
X1028Y1891D01*
X1026Y1891D01*
X1026Y1889D01*
X1024Y1889D01*
X1024Y1887D01*
X1022Y1887D01*
X1022Y1885D01*
X1020Y1885D01*
X1020Y1883D01*
X1018Y1883D01*
X1018Y1881D01*
X1016Y1881D01*
X1016Y1879D01*
X1014Y1879D01*
X1014Y1877D01*
X1012Y1877D01*
X1012Y1875D01*
X1010Y1875D01*
X1010Y1873D01*
X1008Y1873D01*
X1008Y1871D01*
X1006Y1871D01*
X1006Y1869D01*
X1004Y1869D01*
X1004Y1867D01*
X1002Y1867D01*
X1002Y1865D01*
X1000Y1865D01*
X1000Y1863D01*
X998Y1863D01*
X998Y1861D01*
X996Y1861D01*
X996Y1859D01*
X994Y1859D01*
X994Y1857D01*
X992Y1857D01*
X992Y1855D01*
X990Y1855D01*
X990Y1853D01*
X988Y1853D01*
X988Y1851D01*
X986Y1851D01*
X986Y1849D01*
X984Y1849D01*
X984Y1847D01*
X1158Y1847D01*
X1158Y1845D01*
X1168Y1845D01*
X1168Y1843D01*
X1172Y1843D01*
X1172Y1841D01*
X1176Y1841D01*
X1176Y1839D01*
X1178Y1839D01*
X1178Y1837D01*
X1182Y1837D01*
X1182Y1835D01*
X1184Y1835D01*
X1184Y1833D01*
X1186Y1833D01*
X1186Y1829D01*
X1188Y1829D01*
X1188Y1827D01*
X1190Y1827D01*
X1190Y1823D01*
X1192Y1823D01*
X1192Y1819D01*
X1194Y1819D01*
X1194Y1811D01*
X1196Y1811D01*
X1196Y1799D01*
X1194Y1799D01*
X1194Y1791D01*
X1192Y1791D01*
X1192Y1787D01*
X1190Y1787D01*
X1190Y1783D01*
X1188Y1783D01*
X1188Y1781D01*
X1186Y1781D01*
X1186Y1777D01*
X1184Y1777D01*
X1184Y1775D01*
X1182Y1775D01*
X1182Y1773D01*
X1178Y1773D01*
X1178Y1771D01*
X1176Y1771D01*
X1176Y1769D01*
X1172Y1769D01*
X1172Y1753D01*
X1192Y1753D01*
X1192Y1755D01*
X1196Y1755D01*
X1196Y1757D01*
X1200Y1757D01*
X1200Y1759D01*
X1204Y1759D01*
X1204Y1761D01*
X1208Y1761D01*
X1208Y1763D01*
X1214Y1763D01*
X1214Y1765D01*
X1218Y1765D01*
X1218Y1767D01*
X1222Y1767D01*
X1222Y1769D01*
X1226Y1769D01*
X1226Y1771D01*
X1228Y1771D01*
X1228Y1995D01*
X1226Y1995D01*
X1226Y1997D01*
X1224Y1997D01*
X1224Y1999D01*
X1222Y1999D01*
X1222Y2001D01*
X1220Y2001D01*
X1220Y2003D01*
X1218Y2003D01*
X1218Y2005D01*
X1216Y2005D01*
X1216Y2007D01*
X1214Y2007D01*
X1214Y2009D01*
X1212Y2009D01*
X1212Y2011D01*
X1210Y2011D01*
X1210Y2013D01*
X1208Y2013D01*
X1208Y2015D01*
X1206Y2015D01*
X1206Y2017D01*
X1204Y2017D01*
X1204Y2019D01*
X1202Y2019D01*
X1202Y2021D01*
X1200Y2021D01*
X1200Y2023D01*
X1198Y2023D01*
X1198Y2025D01*
X1196Y2025D01*
X1196Y2027D01*
X1194Y2027D01*
X1194Y2029D01*
X1192Y2029D01*
X1192Y2031D01*
X1190Y2031D01*
X1190Y2033D01*
X1188Y2033D01*
X1188Y2035D01*
X1186Y2035D01*
X1186Y2037D01*
X1184Y2037D01*
X1184Y2039D01*
X1182Y2039D01*
X1182Y2041D01*
X1180Y2041D01*
X1180Y2043D01*
X1178Y2043D01*
X1178Y2045D01*
X1176Y2045D01*
X1176Y2047D01*
X1174Y2047D01*
X1174Y2049D01*
X1172Y2049D01*
X1172Y2051D01*
X1170Y2051D01*
X1170Y2055D01*
X1168Y2055D01*
X1168Y2057D01*
X1166Y2057D01*
X1166Y2059D01*
X1164Y2059D01*
X1164Y2061D01*
X1162Y2061D01*
X1162Y2063D01*
X1160Y2063D01*
X1160Y2065D01*
X1112Y2065D01*
X1112Y2147D01*
X1114Y2147D01*
X1114Y2149D01*
X1136Y2149D01*
X1136Y2169D01*
X1132Y2169D01*
X1132Y2171D01*
X1130Y2171D01*
X1130Y2173D01*
X1126Y2173D01*
X1126Y2175D01*
X1124Y2175D01*
X1124Y2177D01*
X1122Y2177D01*
X1122Y2181D01*
X1120Y2181D01*
X1120Y2183D01*
X1118Y2183D01*
X1118Y2187D01*
X1116Y2187D01*
X1116Y2191D01*
X1114Y2191D01*
X1114Y2201D01*
X1112Y2201D01*
X1112Y2209D01*
X1114Y2209D01*
X1114Y2219D01*
X1116Y2219D01*
X1116Y2223D01*
X1118Y2223D01*
X1118Y2227D01*
X1120Y2227D01*
X1120Y2229D01*
X1122Y2229D01*
X1122Y2233D01*
X1124Y2233D01*
X1124Y2235D01*
X1126Y2235D01*
X1126Y2237D01*
X1130Y2237D01*
X1130Y2239D01*
X1132Y2239D01*
X1132Y2241D01*
X1136Y2241D01*
X1136Y2243D01*
X1140Y2243D01*
X1140Y2245D01*
X1150Y2245D01*
X1150Y2247D01*
X1032Y2247D01*
G37*
D02*
G36*
X1332Y2247D02*
X1332Y2245D01*
X1330Y2245D01*
X1330Y2243D01*
X1328Y2243D01*
X1328Y2241D01*
X1326Y2241D01*
X1326Y2239D01*
X1324Y2239D01*
X1324Y2237D01*
X1322Y2237D01*
X1322Y2235D01*
X1320Y2235D01*
X1320Y2233D01*
X1318Y2233D01*
X1318Y2231D01*
X1316Y2231D01*
X1316Y2229D01*
X1314Y2229D01*
X1314Y2227D01*
X1312Y2227D01*
X1312Y2225D01*
X1310Y2225D01*
X1310Y2223D01*
X1308Y2223D01*
X1308Y2221D01*
X1306Y2221D01*
X1306Y2219D01*
X1304Y2219D01*
X1304Y2217D01*
X1302Y2217D01*
X1302Y2215D01*
X1300Y2215D01*
X1300Y2213D01*
X1298Y2213D01*
X1298Y2211D01*
X1296Y2211D01*
X1296Y2209D01*
X1294Y2209D01*
X1294Y2207D01*
X1292Y2207D01*
X1292Y2205D01*
X1290Y2205D01*
X1290Y2203D01*
X1288Y2203D01*
X1288Y2201D01*
X1286Y2201D01*
X1286Y2199D01*
X1284Y2199D01*
X1284Y2197D01*
X1282Y2197D01*
X1282Y2195D01*
X1280Y2195D01*
X1280Y2193D01*
X1278Y2193D01*
X1278Y2191D01*
X1276Y2191D01*
X1276Y2189D01*
X1274Y2189D01*
X1274Y2187D01*
X1272Y2187D01*
X1272Y2185D01*
X1270Y2185D01*
X1270Y2183D01*
X1268Y2183D01*
X1268Y2181D01*
X1266Y2181D01*
X1266Y2179D01*
X1264Y2179D01*
X1264Y2177D01*
X1262Y2177D01*
X1262Y2175D01*
X1260Y2175D01*
X1260Y2173D01*
X1258Y2173D01*
X1258Y2171D01*
X1256Y2171D01*
X1256Y2169D01*
X1254Y2169D01*
X1254Y2167D01*
X1252Y2167D01*
X1252Y2165D01*
X1250Y2165D01*
X1250Y2163D01*
X1248Y2163D01*
X1248Y2161D01*
X1246Y2161D01*
X1246Y2159D01*
X1244Y2159D01*
X1244Y2157D01*
X1242Y2157D01*
X1242Y2155D01*
X1240Y2155D01*
X1240Y2153D01*
X1238Y2153D01*
X1238Y2151D01*
X1236Y2151D01*
X1236Y2149D01*
X1234Y2149D01*
X1234Y2147D01*
X1232Y2147D01*
X1232Y2145D01*
X1230Y2145D01*
X1230Y2143D01*
X1228Y2143D01*
X1228Y2141D01*
X1226Y2141D01*
X1226Y2139D01*
X1222Y2139D01*
X1222Y2137D01*
X1220Y2137D01*
X1220Y2135D01*
X1218Y2135D01*
X1218Y2133D01*
X1216Y2133D01*
X1216Y2131D01*
X1214Y2131D01*
X1214Y2129D01*
X1212Y2129D01*
X1212Y2127D01*
X1210Y2127D01*
X1210Y2125D01*
X1208Y2125D01*
X1208Y2123D01*
X1206Y2123D01*
X1206Y2121D01*
X1204Y2121D01*
X1204Y2119D01*
X1202Y2119D01*
X1202Y2117D01*
X1200Y2117D01*
X1200Y2095D01*
X1202Y2095D01*
X1202Y2093D01*
X1204Y2093D01*
X1204Y2091D01*
X1206Y2091D01*
X1206Y2089D01*
X1208Y2089D01*
X1208Y2087D01*
X1210Y2087D01*
X1210Y2085D01*
X1212Y2085D01*
X1212Y2083D01*
X1214Y2083D01*
X1214Y2081D01*
X1216Y2081D01*
X1216Y2079D01*
X1218Y2079D01*
X1218Y2077D01*
X1220Y2077D01*
X1220Y2075D01*
X1222Y2075D01*
X1222Y2073D01*
X1224Y2073D01*
X1224Y2071D01*
X1226Y2071D01*
X1226Y2069D01*
X1228Y2069D01*
X1228Y2067D01*
X1230Y2067D01*
X1230Y2065D01*
X1232Y2065D01*
X1232Y2063D01*
X1234Y2063D01*
X1234Y2061D01*
X1236Y2061D01*
X1236Y2059D01*
X1238Y2059D01*
X1238Y2057D01*
X1240Y2057D01*
X1240Y2055D01*
X1242Y2055D01*
X1242Y2053D01*
X1244Y2053D01*
X1244Y2051D01*
X1246Y2051D01*
X1246Y2049D01*
X1248Y2049D01*
X1248Y2047D01*
X1250Y2047D01*
X1250Y2045D01*
X1252Y2045D01*
X1252Y2043D01*
X1254Y2043D01*
X1254Y2041D01*
X1256Y2041D01*
X1256Y2039D01*
X1258Y2039D01*
X1258Y2037D01*
X1260Y2037D01*
X1260Y2035D01*
X1262Y2035D01*
X1262Y2033D01*
X1264Y2033D01*
X1264Y2029D01*
X1266Y2029D01*
X1266Y2027D01*
X1268Y2027D01*
X1268Y2025D01*
X1270Y2025D01*
X1270Y2023D01*
X1272Y2023D01*
X1272Y2021D01*
X1274Y2021D01*
X1274Y2019D01*
X1276Y2019D01*
X1276Y2015D01*
X1278Y2015D01*
X1278Y2011D01*
X1280Y2011D01*
X1280Y1847D01*
X1508Y1847D01*
X1508Y1845D01*
X1518Y1845D01*
X1518Y1843D01*
X1522Y1843D01*
X1522Y1841D01*
X1526Y1841D01*
X1526Y1839D01*
X1528Y1839D01*
X1528Y1837D01*
X1532Y1837D01*
X1532Y1835D01*
X1534Y1835D01*
X1534Y1833D01*
X1536Y1833D01*
X1536Y1829D01*
X1538Y1829D01*
X1538Y1827D01*
X1540Y1827D01*
X1540Y1823D01*
X1542Y1823D01*
X1542Y1819D01*
X1544Y1819D01*
X1544Y1811D01*
X1546Y1811D01*
X1546Y1799D01*
X1544Y1799D01*
X1544Y1791D01*
X1542Y1791D01*
X1542Y1787D01*
X1540Y1787D01*
X1540Y1783D01*
X1538Y1783D01*
X1538Y1781D01*
X1536Y1781D01*
X1536Y1777D01*
X1534Y1777D01*
X1534Y1775D01*
X1532Y1775D01*
X1532Y1773D01*
X1528Y1773D01*
X1528Y1771D01*
X1526Y1771D01*
X1526Y1769D01*
X1522Y1769D01*
X1522Y1749D01*
X1544Y1749D01*
X1544Y1751D01*
X1548Y1751D01*
X1548Y1753D01*
X1552Y1753D01*
X1552Y1755D01*
X1556Y1755D01*
X1556Y1757D01*
X1560Y1757D01*
X1560Y1759D01*
X1564Y1759D01*
X1564Y1761D01*
X1568Y1761D01*
X1568Y1763D01*
X1574Y1763D01*
X1574Y1765D01*
X1578Y1765D01*
X1578Y1767D01*
X1582Y1767D01*
X1582Y1769D01*
X1584Y1769D01*
X1584Y1995D01*
X1582Y1995D01*
X1582Y1997D01*
X1580Y1997D01*
X1580Y1999D01*
X1578Y1999D01*
X1578Y2001D01*
X1576Y2001D01*
X1576Y2003D01*
X1574Y2003D01*
X1574Y2005D01*
X1572Y2005D01*
X1572Y2007D01*
X1570Y2007D01*
X1570Y2009D01*
X1568Y2009D01*
X1568Y2011D01*
X1566Y2011D01*
X1566Y2013D01*
X1564Y2013D01*
X1564Y2015D01*
X1562Y2015D01*
X1562Y2017D01*
X1560Y2017D01*
X1560Y2019D01*
X1558Y2019D01*
X1558Y2021D01*
X1556Y2021D01*
X1556Y2023D01*
X1554Y2023D01*
X1554Y2025D01*
X1552Y2025D01*
X1552Y2027D01*
X1550Y2027D01*
X1550Y2029D01*
X1548Y2029D01*
X1548Y2031D01*
X1546Y2031D01*
X1546Y2033D01*
X1544Y2033D01*
X1544Y2035D01*
X1542Y2035D01*
X1542Y2037D01*
X1540Y2037D01*
X1540Y2039D01*
X1538Y2039D01*
X1538Y2041D01*
X1536Y2041D01*
X1536Y2043D01*
X1534Y2043D01*
X1534Y2045D01*
X1532Y2045D01*
X1532Y2047D01*
X1530Y2047D01*
X1530Y2049D01*
X1528Y2049D01*
X1528Y2051D01*
X1526Y2051D01*
X1526Y2053D01*
X1524Y2053D01*
X1524Y2057D01*
X1522Y2057D01*
X1522Y2059D01*
X1520Y2059D01*
X1520Y2061D01*
X1518Y2061D01*
X1518Y2063D01*
X1516Y2063D01*
X1516Y2065D01*
X1462Y2065D01*
X1462Y2147D01*
X1464Y2147D01*
X1464Y2149D01*
X1486Y2149D01*
X1486Y2169D01*
X1482Y2169D01*
X1482Y2171D01*
X1480Y2171D01*
X1480Y2173D01*
X1476Y2173D01*
X1476Y2175D01*
X1474Y2175D01*
X1474Y2177D01*
X1472Y2177D01*
X1472Y2181D01*
X1470Y2181D01*
X1470Y2183D01*
X1468Y2183D01*
X1468Y2187D01*
X1466Y2187D01*
X1466Y2191D01*
X1464Y2191D01*
X1464Y2201D01*
X1462Y2201D01*
X1462Y2209D01*
X1464Y2209D01*
X1464Y2219D01*
X1466Y2219D01*
X1466Y2223D01*
X1468Y2223D01*
X1468Y2227D01*
X1470Y2227D01*
X1470Y2229D01*
X1472Y2229D01*
X1472Y2233D01*
X1474Y2233D01*
X1474Y2235D01*
X1476Y2235D01*
X1476Y2237D01*
X1480Y2237D01*
X1480Y2239D01*
X1482Y2239D01*
X1482Y2241D01*
X1486Y2241D01*
X1486Y2243D01*
X1490Y2243D01*
X1490Y2245D01*
X1500Y2245D01*
X1500Y2247D01*
X1332Y2247D01*
G37*
D02*
G36*
X40Y1847D02*
X40Y1265D01*
X362Y1265D01*
X362Y1347D01*
X364Y1347D01*
X364Y1349D01*
X386Y1349D01*
X386Y1369D01*
X382Y1369D01*
X382Y1371D01*
X380Y1371D01*
X380Y1373D01*
X376Y1373D01*
X376Y1375D01*
X374Y1375D01*
X374Y1377D01*
X372Y1377D01*
X372Y1381D01*
X370Y1381D01*
X370Y1383D01*
X368Y1383D01*
X368Y1387D01*
X366Y1387D01*
X366Y1391D01*
X364Y1391D01*
X364Y1401D01*
X362Y1401D01*
X362Y1409D01*
X364Y1409D01*
X364Y1419D01*
X366Y1419D01*
X366Y1423D01*
X368Y1423D01*
X368Y1427D01*
X370Y1427D01*
X370Y1429D01*
X372Y1429D01*
X372Y1433D01*
X374Y1433D01*
X374Y1435D01*
X376Y1435D01*
X376Y1437D01*
X380Y1437D01*
X380Y1439D01*
X382Y1439D01*
X382Y1441D01*
X386Y1441D01*
X386Y1443D01*
X390Y1443D01*
X390Y1445D01*
X400Y1445D01*
X400Y1447D01*
X412Y1447D01*
X412Y1449D01*
X414Y1449D01*
X414Y1451D01*
X416Y1451D01*
X416Y1453D01*
X418Y1453D01*
X418Y1455D01*
X420Y1455D01*
X420Y1457D01*
X422Y1457D01*
X422Y1459D01*
X424Y1459D01*
X424Y1461D01*
X426Y1461D01*
X426Y1463D01*
X428Y1463D01*
X428Y1601D01*
X426Y1601D01*
X426Y1605D01*
X424Y1605D01*
X424Y1609D01*
X422Y1609D01*
X422Y1613D01*
X420Y1613D01*
X420Y1617D01*
X418Y1617D01*
X418Y1621D01*
X416Y1621D01*
X416Y1625D01*
X414Y1625D01*
X414Y1629D01*
X412Y1629D01*
X412Y1633D01*
X410Y1633D01*
X410Y1637D01*
X408Y1637D01*
X408Y1641D01*
X406Y1641D01*
X406Y1645D01*
X404Y1645D01*
X404Y1649D01*
X402Y1649D01*
X402Y1653D01*
X400Y1653D01*
X400Y1657D01*
X398Y1657D01*
X398Y1661D01*
X396Y1661D01*
X396Y1665D01*
X362Y1665D01*
X362Y1747D01*
X364Y1747D01*
X364Y1749D01*
X386Y1749D01*
X386Y1769D01*
X382Y1769D01*
X382Y1771D01*
X380Y1771D01*
X380Y1773D01*
X376Y1773D01*
X376Y1775D01*
X374Y1775D01*
X374Y1777D01*
X372Y1777D01*
X372Y1781D01*
X370Y1781D01*
X370Y1783D01*
X368Y1783D01*
X368Y1787D01*
X366Y1787D01*
X366Y1791D01*
X364Y1791D01*
X364Y1801D01*
X362Y1801D01*
X362Y1809D01*
X364Y1809D01*
X364Y1819D01*
X366Y1819D01*
X366Y1823D01*
X368Y1823D01*
X368Y1827D01*
X370Y1827D01*
X370Y1829D01*
X372Y1829D01*
X372Y1833D01*
X374Y1833D01*
X374Y1835D01*
X376Y1835D01*
X376Y1837D01*
X380Y1837D01*
X380Y1839D01*
X382Y1839D01*
X382Y1841D01*
X386Y1841D01*
X386Y1843D01*
X390Y1843D01*
X390Y1845D01*
X400Y1845D01*
X400Y1847D01*
X40Y1847D01*
G37*
D02*
G36*
X632Y1847D02*
X632Y1447D01*
X808Y1447D01*
X808Y1445D01*
X818Y1445D01*
X818Y1443D01*
X822Y1443D01*
X822Y1441D01*
X826Y1441D01*
X826Y1439D01*
X828Y1439D01*
X828Y1437D01*
X832Y1437D01*
X832Y1435D01*
X834Y1435D01*
X834Y1433D01*
X836Y1433D01*
X836Y1429D01*
X838Y1429D01*
X838Y1427D01*
X840Y1427D01*
X840Y1423D01*
X842Y1423D01*
X842Y1419D01*
X844Y1419D01*
X844Y1411D01*
X846Y1411D01*
X846Y1399D01*
X844Y1399D01*
X844Y1391D01*
X842Y1391D01*
X842Y1387D01*
X840Y1387D01*
X840Y1383D01*
X838Y1383D01*
X838Y1381D01*
X836Y1381D01*
X836Y1377D01*
X834Y1377D01*
X834Y1375D01*
X832Y1375D01*
X832Y1373D01*
X828Y1373D01*
X828Y1371D01*
X826Y1371D01*
X826Y1369D01*
X822Y1369D01*
X822Y1353D01*
X842Y1353D01*
X842Y1355D01*
X846Y1355D01*
X846Y1357D01*
X850Y1357D01*
X850Y1359D01*
X854Y1359D01*
X854Y1361D01*
X858Y1361D01*
X858Y1363D01*
X862Y1363D01*
X862Y1365D01*
X866Y1365D01*
X866Y1367D01*
X870Y1367D01*
X870Y1369D01*
X874Y1369D01*
X874Y1371D01*
X876Y1371D01*
X876Y1595D01*
X874Y1595D01*
X874Y1597D01*
X872Y1597D01*
X872Y1599D01*
X870Y1599D01*
X870Y1601D01*
X868Y1601D01*
X868Y1603D01*
X866Y1603D01*
X866Y1605D01*
X864Y1605D01*
X864Y1607D01*
X862Y1607D01*
X862Y1611D01*
X860Y1611D01*
X860Y1613D01*
X858Y1613D01*
X858Y1615D01*
X856Y1615D01*
X856Y1617D01*
X854Y1617D01*
X854Y1619D01*
X852Y1619D01*
X852Y1621D01*
X850Y1621D01*
X850Y1623D01*
X848Y1623D01*
X848Y1625D01*
X846Y1625D01*
X846Y1627D01*
X844Y1627D01*
X844Y1629D01*
X842Y1629D01*
X842Y1631D01*
X840Y1631D01*
X840Y1633D01*
X838Y1633D01*
X838Y1635D01*
X836Y1635D01*
X836Y1637D01*
X834Y1637D01*
X834Y1639D01*
X832Y1639D01*
X832Y1641D01*
X830Y1641D01*
X830Y1643D01*
X828Y1643D01*
X828Y1645D01*
X826Y1645D01*
X826Y1647D01*
X824Y1647D01*
X824Y1649D01*
X822Y1649D01*
X822Y1651D01*
X820Y1651D01*
X820Y1653D01*
X818Y1653D01*
X818Y1655D01*
X816Y1655D01*
X816Y1657D01*
X814Y1657D01*
X814Y1659D01*
X812Y1659D01*
X812Y1661D01*
X810Y1661D01*
X810Y1665D01*
X762Y1665D01*
X762Y1747D01*
X764Y1747D01*
X764Y1749D01*
X786Y1749D01*
X786Y1769D01*
X782Y1769D01*
X782Y1771D01*
X780Y1771D01*
X780Y1773D01*
X776Y1773D01*
X776Y1775D01*
X774Y1775D01*
X774Y1777D01*
X772Y1777D01*
X772Y1781D01*
X770Y1781D01*
X770Y1783D01*
X768Y1783D01*
X768Y1787D01*
X766Y1787D01*
X766Y1791D01*
X764Y1791D01*
X764Y1801D01*
X762Y1801D01*
X762Y1809D01*
X764Y1809D01*
X764Y1819D01*
X766Y1819D01*
X766Y1823D01*
X768Y1823D01*
X768Y1827D01*
X770Y1827D01*
X770Y1829D01*
X772Y1829D01*
X772Y1833D01*
X774Y1833D01*
X774Y1835D01*
X776Y1835D01*
X776Y1837D01*
X780Y1837D01*
X780Y1839D01*
X782Y1839D01*
X782Y1841D01*
X786Y1841D01*
X786Y1843D01*
X790Y1843D01*
X790Y1845D01*
X800Y1845D01*
X800Y1847D01*
X632Y1847D01*
G37*
D02*
G36*
X982Y1847D02*
X982Y1845D01*
X980Y1845D01*
X980Y1843D01*
X978Y1843D01*
X978Y1841D01*
X976Y1841D01*
X976Y1839D01*
X974Y1839D01*
X974Y1837D01*
X972Y1837D01*
X972Y1835D01*
X970Y1835D01*
X970Y1833D01*
X968Y1833D01*
X968Y1831D01*
X966Y1831D01*
X966Y1829D01*
X964Y1829D01*
X964Y1827D01*
X962Y1827D01*
X962Y1825D01*
X960Y1825D01*
X960Y1823D01*
X958Y1823D01*
X958Y1821D01*
X956Y1821D01*
X956Y1819D01*
X954Y1819D01*
X954Y1817D01*
X952Y1817D01*
X952Y1815D01*
X950Y1815D01*
X950Y1813D01*
X948Y1813D01*
X948Y1811D01*
X946Y1811D01*
X946Y1809D01*
X944Y1809D01*
X944Y1807D01*
X942Y1807D01*
X942Y1805D01*
X940Y1805D01*
X940Y1803D01*
X938Y1803D01*
X938Y1801D01*
X936Y1801D01*
X936Y1799D01*
X934Y1799D01*
X934Y1797D01*
X932Y1797D01*
X932Y1795D01*
X930Y1795D01*
X930Y1793D01*
X928Y1793D01*
X928Y1791D01*
X926Y1791D01*
X926Y1789D01*
X924Y1789D01*
X924Y1787D01*
X922Y1787D01*
X922Y1785D01*
X920Y1785D01*
X920Y1783D01*
X918Y1783D01*
X918Y1781D01*
X916Y1781D01*
X916Y1779D01*
X914Y1779D01*
X914Y1777D01*
X912Y1777D01*
X912Y1775D01*
X908Y1775D01*
X908Y1773D01*
X906Y1773D01*
X906Y1771D01*
X904Y1771D01*
X904Y1769D01*
X902Y1769D01*
X902Y1767D01*
X900Y1767D01*
X900Y1765D01*
X898Y1765D01*
X898Y1763D01*
X896Y1763D01*
X896Y1761D01*
X894Y1761D01*
X894Y1759D01*
X892Y1759D01*
X892Y1757D01*
X890Y1757D01*
X890Y1755D01*
X888Y1755D01*
X888Y1753D01*
X886Y1753D01*
X886Y1751D01*
X884Y1751D01*
X884Y1749D01*
X882Y1749D01*
X882Y1747D01*
X880Y1747D01*
X880Y1745D01*
X878Y1745D01*
X878Y1743D01*
X876Y1743D01*
X876Y1741D01*
X874Y1741D01*
X874Y1739D01*
X872Y1739D01*
X872Y1737D01*
X870Y1737D01*
X870Y1735D01*
X868Y1735D01*
X868Y1733D01*
X866Y1733D01*
X866Y1731D01*
X864Y1731D01*
X864Y1729D01*
X862Y1729D01*
X862Y1727D01*
X860Y1727D01*
X860Y1725D01*
X858Y1725D01*
X858Y1723D01*
X856Y1723D01*
X856Y1721D01*
X854Y1721D01*
X854Y1719D01*
X852Y1719D01*
X852Y1717D01*
X850Y1717D01*
X850Y1695D01*
X852Y1695D01*
X852Y1693D01*
X854Y1693D01*
X854Y1691D01*
X856Y1691D01*
X856Y1689D01*
X858Y1689D01*
X858Y1687D01*
X860Y1687D01*
X860Y1685D01*
X862Y1685D01*
X862Y1683D01*
X864Y1683D01*
X864Y1681D01*
X866Y1681D01*
X866Y1679D01*
X868Y1679D01*
X868Y1677D01*
X870Y1677D01*
X870Y1675D01*
X872Y1675D01*
X872Y1673D01*
X874Y1673D01*
X874Y1671D01*
X876Y1671D01*
X876Y1669D01*
X878Y1669D01*
X878Y1667D01*
X880Y1667D01*
X880Y1665D01*
X882Y1665D01*
X882Y1663D01*
X884Y1663D01*
X884Y1661D01*
X886Y1661D01*
X886Y1657D01*
X888Y1657D01*
X888Y1655D01*
X890Y1655D01*
X890Y1653D01*
X892Y1653D01*
X892Y1651D01*
X894Y1651D01*
X894Y1649D01*
X896Y1649D01*
X896Y1647D01*
X898Y1647D01*
X898Y1645D01*
X900Y1645D01*
X900Y1643D01*
X902Y1643D01*
X902Y1641D01*
X904Y1641D01*
X904Y1639D01*
X906Y1639D01*
X906Y1637D01*
X908Y1637D01*
X908Y1635D01*
X910Y1635D01*
X910Y1633D01*
X912Y1633D01*
X912Y1631D01*
X914Y1631D01*
X914Y1629D01*
X916Y1629D01*
X916Y1627D01*
X918Y1627D01*
X918Y1625D01*
X920Y1625D01*
X920Y1623D01*
X922Y1623D01*
X922Y1621D01*
X924Y1621D01*
X924Y1617D01*
X926Y1617D01*
X926Y1613D01*
X928Y1613D01*
X928Y1603D01*
X930Y1603D01*
X930Y1447D01*
X1158Y1447D01*
X1158Y1445D01*
X1168Y1445D01*
X1168Y1443D01*
X1172Y1443D01*
X1172Y1441D01*
X1176Y1441D01*
X1176Y1439D01*
X1178Y1439D01*
X1178Y1437D01*
X1182Y1437D01*
X1182Y1435D01*
X1184Y1435D01*
X1184Y1433D01*
X1186Y1433D01*
X1186Y1429D01*
X1188Y1429D01*
X1188Y1427D01*
X1190Y1427D01*
X1190Y1423D01*
X1192Y1423D01*
X1192Y1419D01*
X1194Y1419D01*
X1194Y1411D01*
X1196Y1411D01*
X1196Y1399D01*
X1194Y1399D01*
X1194Y1391D01*
X1192Y1391D01*
X1192Y1387D01*
X1190Y1387D01*
X1190Y1383D01*
X1188Y1383D01*
X1188Y1381D01*
X1186Y1381D01*
X1186Y1377D01*
X1184Y1377D01*
X1184Y1375D01*
X1182Y1375D01*
X1182Y1373D01*
X1178Y1373D01*
X1178Y1371D01*
X1176Y1371D01*
X1176Y1369D01*
X1172Y1369D01*
X1172Y1353D01*
X1192Y1353D01*
X1192Y1355D01*
X1196Y1355D01*
X1196Y1357D01*
X1200Y1357D01*
X1200Y1359D01*
X1204Y1359D01*
X1204Y1361D01*
X1208Y1361D01*
X1208Y1363D01*
X1214Y1363D01*
X1214Y1365D01*
X1218Y1365D01*
X1218Y1367D01*
X1222Y1367D01*
X1222Y1369D01*
X1226Y1369D01*
X1226Y1371D01*
X1228Y1371D01*
X1228Y1595D01*
X1226Y1595D01*
X1226Y1597D01*
X1224Y1597D01*
X1224Y1599D01*
X1222Y1599D01*
X1222Y1601D01*
X1220Y1601D01*
X1220Y1603D01*
X1218Y1603D01*
X1218Y1605D01*
X1216Y1605D01*
X1216Y1607D01*
X1214Y1607D01*
X1214Y1609D01*
X1212Y1609D01*
X1212Y1611D01*
X1210Y1611D01*
X1210Y1613D01*
X1208Y1613D01*
X1208Y1615D01*
X1206Y1615D01*
X1206Y1617D01*
X1204Y1617D01*
X1204Y1619D01*
X1202Y1619D01*
X1202Y1621D01*
X1200Y1621D01*
X1200Y1623D01*
X1198Y1623D01*
X1198Y1625D01*
X1196Y1625D01*
X1196Y1627D01*
X1194Y1627D01*
X1194Y1629D01*
X1192Y1629D01*
X1192Y1631D01*
X1190Y1631D01*
X1190Y1633D01*
X1188Y1633D01*
X1188Y1635D01*
X1186Y1635D01*
X1186Y1637D01*
X1184Y1637D01*
X1184Y1639D01*
X1182Y1639D01*
X1182Y1641D01*
X1180Y1641D01*
X1180Y1643D01*
X1178Y1643D01*
X1178Y1645D01*
X1176Y1645D01*
X1176Y1647D01*
X1174Y1647D01*
X1174Y1649D01*
X1172Y1649D01*
X1172Y1651D01*
X1170Y1651D01*
X1170Y1655D01*
X1168Y1655D01*
X1168Y1657D01*
X1166Y1657D01*
X1166Y1659D01*
X1164Y1659D01*
X1164Y1661D01*
X1162Y1661D01*
X1162Y1663D01*
X1160Y1663D01*
X1160Y1665D01*
X1112Y1665D01*
X1112Y1747D01*
X1114Y1747D01*
X1114Y1749D01*
X1136Y1749D01*
X1136Y1769D01*
X1132Y1769D01*
X1132Y1771D01*
X1130Y1771D01*
X1130Y1773D01*
X1126Y1773D01*
X1126Y1775D01*
X1124Y1775D01*
X1124Y1777D01*
X1122Y1777D01*
X1122Y1781D01*
X1120Y1781D01*
X1120Y1783D01*
X1118Y1783D01*
X1118Y1787D01*
X1116Y1787D01*
X1116Y1791D01*
X1114Y1791D01*
X1114Y1801D01*
X1112Y1801D01*
X1112Y1809D01*
X1114Y1809D01*
X1114Y1819D01*
X1116Y1819D01*
X1116Y1823D01*
X1118Y1823D01*
X1118Y1827D01*
X1120Y1827D01*
X1120Y1829D01*
X1122Y1829D01*
X1122Y1833D01*
X1124Y1833D01*
X1124Y1835D01*
X1126Y1835D01*
X1126Y1837D01*
X1130Y1837D01*
X1130Y1839D01*
X1132Y1839D01*
X1132Y1841D01*
X1136Y1841D01*
X1136Y1843D01*
X1140Y1843D01*
X1140Y1845D01*
X1150Y1845D01*
X1150Y1847D01*
X982Y1847D01*
G37*
D02*
G36*
X1280Y1847D02*
X1280Y1747D01*
X1278Y1747D01*
X1278Y1743D01*
X1276Y1743D01*
X1276Y1739D01*
X1274Y1739D01*
X1274Y1737D01*
X1272Y1737D01*
X1272Y1735D01*
X1270Y1735D01*
X1270Y1733D01*
X1266Y1733D01*
X1266Y1731D01*
X1262Y1731D01*
X1262Y1729D01*
X1258Y1729D01*
X1258Y1727D01*
X1254Y1727D01*
X1254Y1725D01*
X1250Y1725D01*
X1250Y1723D01*
X1246Y1723D01*
X1246Y1721D01*
X1242Y1721D01*
X1242Y1719D01*
X1238Y1719D01*
X1238Y1717D01*
X1234Y1717D01*
X1234Y1715D01*
X1230Y1715D01*
X1230Y1713D01*
X1224Y1713D01*
X1224Y1711D01*
X1220Y1711D01*
X1220Y1709D01*
X1216Y1709D01*
X1216Y1707D01*
X1212Y1707D01*
X1212Y1705D01*
X1210Y1705D01*
X1210Y1685D01*
X1212Y1685D01*
X1212Y1683D01*
X1214Y1683D01*
X1214Y1681D01*
X1216Y1681D01*
X1216Y1679D01*
X1218Y1679D01*
X1218Y1677D01*
X1220Y1677D01*
X1220Y1675D01*
X1222Y1675D01*
X1222Y1673D01*
X1224Y1673D01*
X1224Y1671D01*
X1226Y1671D01*
X1226Y1669D01*
X1228Y1669D01*
X1228Y1667D01*
X1230Y1667D01*
X1230Y1665D01*
X1232Y1665D01*
X1232Y1663D01*
X1234Y1663D01*
X1234Y1661D01*
X1236Y1661D01*
X1236Y1659D01*
X1238Y1659D01*
X1238Y1657D01*
X1240Y1657D01*
X1240Y1655D01*
X1242Y1655D01*
X1242Y1653D01*
X1244Y1653D01*
X1244Y1651D01*
X1246Y1651D01*
X1246Y1649D01*
X1248Y1649D01*
X1248Y1647D01*
X1250Y1647D01*
X1250Y1645D01*
X1252Y1645D01*
X1252Y1643D01*
X1254Y1643D01*
X1254Y1641D01*
X1256Y1641D01*
X1256Y1639D01*
X1258Y1639D01*
X1258Y1637D01*
X1260Y1637D01*
X1260Y1635D01*
X1262Y1635D01*
X1262Y1633D01*
X1264Y1633D01*
X1264Y1629D01*
X1266Y1629D01*
X1266Y1627D01*
X1268Y1627D01*
X1268Y1625D01*
X1270Y1625D01*
X1270Y1623D01*
X1272Y1623D01*
X1272Y1621D01*
X1274Y1621D01*
X1274Y1619D01*
X1276Y1619D01*
X1276Y1615D01*
X1278Y1615D01*
X1278Y1611D01*
X1280Y1611D01*
X1280Y1447D01*
X1508Y1447D01*
X1508Y1445D01*
X1518Y1445D01*
X1518Y1443D01*
X1522Y1443D01*
X1522Y1441D01*
X1526Y1441D01*
X1526Y1439D01*
X1528Y1439D01*
X1528Y1437D01*
X1532Y1437D01*
X1532Y1435D01*
X1534Y1435D01*
X1534Y1433D01*
X1536Y1433D01*
X1536Y1429D01*
X1538Y1429D01*
X1538Y1427D01*
X1540Y1427D01*
X1540Y1423D01*
X1542Y1423D01*
X1542Y1419D01*
X1544Y1419D01*
X1544Y1411D01*
X1546Y1411D01*
X1546Y1399D01*
X1544Y1399D01*
X1544Y1391D01*
X1542Y1391D01*
X1542Y1387D01*
X1540Y1387D01*
X1540Y1383D01*
X1538Y1383D01*
X1538Y1381D01*
X1536Y1381D01*
X1536Y1377D01*
X1534Y1377D01*
X1534Y1375D01*
X1532Y1375D01*
X1532Y1373D01*
X1528Y1373D01*
X1528Y1371D01*
X1526Y1371D01*
X1526Y1369D01*
X1522Y1369D01*
X1522Y1353D01*
X1542Y1353D01*
X1542Y1355D01*
X1548Y1355D01*
X1548Y1357D01*
X1552Y1357D01*
X1552Y1359D01*
X1556Y1359D01*
X1556Y1361D01*
X1560Y1361D01*
X1560Y1363D01*
X1564Y1363D01*
X1564Y1365D01*
X1568Y1365D01*
X1568Y1367D01*
X1572Y1367D01*
X1572Y1369D01*
X1576Y1369D01*
X1576Y1371D01*
X1580Y1371D01*
X1580Y1593D01*
X1578Y1593D01*
X1578Y1595D01*
X1576Y1595D01*
X1576Y1597D01*
X1574Y1597D01*
X1574Y1599D01*
X1572Y1599D01*
X1572Y1601D01*
X1570Y1601D01*
X1570Y1603D01*
X1568Y1603D01*
X1568Y1605D01*
X1566Y1605D01*
X1566Y1607D01*
X1564Y1607D01*
X1564Y1609D01*
X1562Y1609D01*
X1562Y1611D01*
X1560Y1611D01*
X1560Y1613D01*
X1558Y1613D01*
X1558Y1615D01*
X1556Y1615D01*
X1556Y1617D01*
X1554Y1617D01*
X1554Y1619D01*
X1552Y1619D01*
X1552Y1621D01*
X1550Y1621D01*
X1550Y1623D01*
X1548Y1623D01*
X1548Y1625D01*
X1546Y1625D01*
X1546Y1627D01*
X1544Y1627D01*
X1544Y1631D01*
X1542Y1631D01*
X1542Y1633D01*
X1540Y1633D01*
X1540Y1635D01*
X1538Y1635D01*
X1538Y1637D01*
X1536Y1637D01*
X1536Y1639D01*
X1534Y1639D01*
X1534Y1641D01*
X1532Y1641D01*
X1532Y1643D01*
X1530Y1643D01*
X1530Y1645D01*
X1528Y1645D01*
X1528Y1647D01*
X1526Y1647D01*
X1526Y1649D01*
X1524Y1649D01*
X1524Y1651D01*
X1522Y1651D01*
X1522Y1653D01*
X1520Y1653D01*
X1520Y1655D01*
X1518Y1655D01*
X1518Y1657D01*
X1516Y1657D01*
X1516Y1659D01*
X1514Y1659D01*
X1514Y1661D01*
X1512Y1661D01*
X1512Y1663D01*
X1510Y1663D01*
X1510Y1665D01*
X1462Y1665D01*
X1462Y1747D01*
X1464Y1747D01*
X1464Y1749D01*
X1486Y1749D01*
X1486Y1769D01*
X1482Y1769D01*
X1482Y1771D01*
X1480Y1771D01*
X1480Y1773D01*
X1476Y1773D01*
X1476Y1775D01*
X1474Y1775D01*
X1474Y1777D01*
X1472Y1777D01*
X1472Y1781D01*
X1470Y1781D01*
X1470Y1783D01*
X1468Y1783D01*
X1468Y1787D01*
X1466Y1787D01*
X1466Y1791D01*
X1464Y1791D01*
X1464Y1801D01*
X1462Y1801D01*
X1462Y1809D01*
X1464Y1809D01*
X1464Y1819D01*
X1466Y1819D01*
X1466Y1823D01*
X1468Y1823D01*
X1468Y1827D01*
X1470Y1827D01*
X1470Y1829D01*
X1472Y1829D01*
X1472Y1833D01*
X1474Y1833D01*
X1474Y1835D01*
X1476Y1835D01*
X1476Y1837D01*
X1480Y1837D01*
X1480Y1839D01*
X1482Y1839D01*
X1482Y1841D01*
X1486Y1841D01*
X1486Y1843D01*
X1490Y1843D01*
X1490Y1845D01*
X1500Y1845D01*
X1500Y1847D01*
X1280Y1847D01*
G37*
D02*
G36*
X632Y1447D02*
X632Y1353D01*
X630Y1353D01*
X630Y1345D01*
X628Y1345D01*
X628Y1341D01*
X626Y1341D01*
X626Y1339D01*
X624Y1339D01*
X624Y1337D01*
X622Y1337D01*
X622Y1335D01*
X620Y1335D01*
X620Y1333D01*
X618Y1333D01*
X618Y1331D01*
X612Y1331D01*
X612Y1329D01*
X604Y1329D01*
X604Y1327D01*
X596Y1327D01*
X596Y1325D01*
X588Y1325D01*
X588Y1323D01*
X580Y1323D01*
X580Y1321D01*
X570Y1321D01*
X570Y1319D01*
X562Y1319D01*
X562Y1317D01*
X554Y1317D01*
X554Y1315D01*
X546Y1315D01*
X546Y1313D01*
X538Y1313D01*
X538Y1311D01*
X530Y1311D01*
X530Y1309D01*
X522Y1309D01*
X522Y1307D01*
X512Y1307D01*
X512Y1305D01*
X504Y1305D01*
X504Y1303D01*
X496Y1303D01*
X496Y1301D01*
X488Y1301D01*
X488Y1299D01*
X480Y1299D01*
X480Y1297D01*
X472Y1297D01*
X472Y1295D01*
X464Y1295D01*
X464Y1293D01*
X454Y1293D01*
X454Y1291D01*
X446Y1291D01*
X446Y1265D01*
X762Y1265D01*
X762Y1347D01*
X764Y1347D01*
X764Y1349D01*
X786Y1349D01*
X786Y1369D01*
X782Y1369D01*
X782Y1371D01*
X780Y1371D01*
X780Y1373D01*
X776Y1373D01*
X776Y1375D01*
X774Y1375D01*
X774Y1377D01*
X772Y1377D01*
X772Y1381D01*
X770Y1381D01*
X770Y1383D01*
X768Y1383D01*
X768Y1387D01*
X766Y1387D01*
X766Y1391D01*
X764Y1391D01*
X764Y1401D01*
X762Y1401D01*
X762Y1409D01*
X764Y1409D01*
X764Y1419D01*
X766Y1419D01*
X766Y1423D01*
X768Y1423D01*
X768Y1427D01*
X770Y1427D01*
X770Y1429D01*
X772Y1429D01*
X772Y1433D01*
X774Y1433D01*
X774Y1435D01*
X776Y1435D01*
X776Y1437D01*
X780Y1437D01*
X780Y1439D01*
X782Y1439D01*
X782Y1441D01*
X786Y1441D01*
X786Y1443D01*
X790Y1443D01*
X790Y1445D01*
X800Y1445D01*
X800Y1447D01*
X632Y1447D01*
G37*
D02*
G36*
X930Y1447D02*
X930Y1355D01*
X928Y1355D01*
X928Y1345D01*
X926Y1345D01*
X926Y1341D01*
X924Y1341D01*
X924Y1339D01*
X922Y1339D01*
X922Y1337D01*
X920Y1337D01*
X920Y1335D01*
X918Y1335D01*
X918Y1333D01*
X914Y1333D01*
X914Y1331D01*
X912Y1331D01*
X912Y1329D01*
X906Y1329D01*
X906Y1327D01*
X902Y1327D01*
X902Y1325D01*
X898Y1325D01*
X898Y1323D01*
X894Y1323D01*
X894Y1321D01*
X890Y1321D01*
X890Y1319D01*
X886Y1319D01*
X886Y1317D01*
X882Y1317D01*
X882Y1315D01*
X878Y1315D01*
X878Y1313D01*
X874Y1313D01*
X874Y1311D01*
X870Y1311D01*
X870Y1309D01*
X866Y1309D01*
X866Y1307D01*
X862Y1307D01*
X862Y1305D01*
X858Y1305D01*
X858Y1303D01*
X854Y1303D01*
X854Y1301D01*
X850Y1301D01*
X850Y1299D01*
X846Y1299D01*
X846Y1265D01*
X1112Y1265D01*
X1112Y1347D01*
X1114Y1347D01*
X1114Y1349D01*
X1136Y1349D01*
X1136Y1369D01*
X1132Y1369D01*
X1132Y1371D01*
X1130Y1371D01*
X1130Y1373D01*
X1126Y1373D01*
X1126Y1375D01*
X1124Y1375D01*
X1124Y1377D01*
X1122Y1377D01*
X1122Y1381D01*
X1120Y1381D01*
X1120Y1383D01*
X1118Y1383D01*
X1118Y1387D01*
X1116Y1387D01*
X1116Y1391D01*
X1114Y1391D01*
X1114Y1401D01*
X1112Y1401D01*
X1112Y1409D01*
X1114Y1409D01*
X1114Y1419D01*
X1116Y1419D01*
X1116Y1423D01*
X1118Y1423D01*
X1118Y1427D01*
X1120Y1427D01*
X1120Y1429D01*
X1122Y1429D01*
X1122Y1433D01*
X1124Y1433D01*
X1124Y1435D01*
X1126Y1435D01*
X1126Y1437D01*
X1130Y1437D01*
X1130Y1439D01*
X1132Y1439D01*
X1132Y1441D01*
X1136Y1441D01*
X1136Y1443D01*
X1140Y1443D01*
X1140Y1445D01*
X1150Y1445D01*
X1150Y1447D01*
X930Y1447D01*
G37*
D02*
G36*
X1280Y1447D02*
X1280Y1347D01*
X1278Y1347D01*
X1278Y1343D01*
X1276Y1343D01*
X1276Y1339D01*
X1274Y1339D01*
X1274Y1337D01*
X1272Y1337D01*
X1272Y1335D01*
X1270Y1335D01*
X1270Y1333D01*
X1266Y1333D01*
X1266Y1331D01*
X1262Y1331D01*
X1262Y1329D01*
X1258Y1329D01*
X1258Y1327D01*
X1254Y1327D01*
X1254Y1325D01*
X1250Y1325D01*
X1250Y1323D01*
X1246Y1323D01*
X1246Y1321D01*
X1242Y1321D01*
X1242Y1319D01*
X1238Y1319D01*
X1238Y1317D01*
X1234Y1317D01*
X1234Y1315D01*
X1230Y1315D01*
X1230Y1313D01*
X1224Y1313D01*
X1224Y1311D01*
X1220Y1311D01*
X1220Y1309D01*
X1216Y1309D01*
X1216Y1307D01*
X1212Y1307D01*
X1212Y1305D01*
X1208Y1305D01*
X1208Y1303D01*
X1204Y1303D01*
X1204Y1301D01*
X1200Y1301D01*
X1200Y1299D01*
X1196Y1299D01*
X1196Y1265D01*
X1462Y1265D01*
X1462Y1347D01*
X1464Y1347D01*
X1464Y1349D01*
X1486Y1349D01*
X1486Y1369D01*
X1482Y1369D01*
X1482Y1371D01*
X1480Y1371D01*
X1480Y1373D01*
X1476Y1373D01*
X1476Y1375D01*
X1474Y1375D01*
X1474Y1377D01*
X1472Y1377D01*
X1472Y1381D01*
X1470Y1381D01*
X1470Y1383D01*
X1468Y1383D01*
X1468Y1387D01*
X1466Y1387D01*
X1466Y1391D01*
X1464Y1391D01*
X1464Y1401D01*
X1462Y1401D01*
X1462Y1409D01*
X1464Y1409D01*
X1464Y1419D01*
X1466Y1419D01*
X1466Y1423D01*
X1468Y1423D01*
X1468Y1427D01*
X1470Y1427D01*
X1470Y1429D01*
X1472Y1429D01*
X1472Y1433D01*
X1474Y1433D01*
X1474Y1435D01*
X1476Y1435D01*
X1476Y1437D01*
X1480Y1437D01*
X1480Y1439D01*
X1482Y1439D01*
X1482Y1441D01*
X1486Y1441D01*
X1486Y1443D01*
X1490Y1443D01*
X1490Y1445D01*
X1500Y1445D01*
X1500Y1447D01*
X1280Y1447D01*
G37*
D02*
G36*
X40Y1265D02*
X40Y1263D01*
X2078Y1263D01*
X2078Y1265D01*
X40Y1265D01*
G37*
D02*
G36*
X40Y1265D02*
X40Y1263D01*
X2078Y1263D01*
X2078Y1265D01*
X40Y1265D01*
G37*
D02*
G36*
X40Y1265D02*
X40Y1263D01*
X2078Y1263D01*
X2078Y1265D01*
X40Y1265D01*
G37*
D02*
G36*
X40Y1265D02*
X40Y1263D01*
X2078Y1263D01*
X2078Y1265D01*
X40Y1265D01*
G37*
D02*
G36*
X40Y1265D02*
X40Y1263D01*
X2078Y1263D01*
X2078Y1265D01*
X40Y1265D01*
G37*
D02*
G36*
X40Y1263D02*
X40Y1181D01*
X710Y1181D01*
X710Y1179D01*
X714Y1179D01*
X714Y1177D01*
X718Y1177D01*
X718Y1175D01*
X720Y1175D01*
X720Y1173D01*
X722Y1173D01*
X722Y1171D01*
X724Y1171D01*
X724Y1169D01*
X726Y1169D01*
X726Y1165D01*
X728Y1165D01*
X728Y1163D01*
X730Y1163D01*
X730Y1159D01*
X732Y1159D01*
X732Y1157D01*
X734Y1157D01*
X734Y1153D01*
X736Y1153D01*
X736Y1151D01*
X738Y1151D01*
X738Y1147D01*
X740Y1147D01*
X740Y1145D01*
X742Y1145D01*
X742Y1143D01*
X744Y1143D01*
X744Y1139D01*
X746Y1139D01*
X746Y1137D01*
X748Y1137D01*
X748Y1133D01*
X750Y1133D01*
X750Y1131D01*
X752Y1131D01*
X752Y1127D01*
X754Y1127D01*
X754Y1125D01*
X756Y1125D01*
X756Y1121D01*
X758Y1121D01*
X758Y1119D01*
X760Y1119D01*
X760Y1115D01*
X762Y1115D01*
X762Y1113D01*
X764Y1113D01*
X764Y1109D01*
X766Y1109D01*
X766Y1107D01*
X768Y1107D01*
X768Y1103D01*
X770Y1103D01*
X770Y1101D01*
X772Y1101D01*
X772Y1097D01*
X774Y1097D01*
X774Y1095D01*
X776Y1095D01*
X776Y1091D01*
X778Y1091D01*
X778Y1089D01*
X780Y1089D01*
X780Y1085D01*
X782Y1085D01*
X782Y1083D01*
X784Y1083D01*
X784Y1079D01*
X786Y1079D01*
X786Y1077D01*
X788Y1077D01*
X788Y1073D01*
X790Y1073D01*
X790Y1071D01*
X792Y1071D01*
X792Y1067D01*
X794Y1067D01*
X794Y1065D01*
X796Y1065D01*
X796Y1061D01*
X798Y1061D01*
X798Y1059D01*
X800Y1059D01*
X800Y1055D01*
X802Y1055D01*
X802Y1053D01*
X1610Y1053D01*
X1610Y1051D01*
X1618Y1051D01*
X1618Y1049D01*
X1624Y1049D01*
X1624Y1047D01*
X1628Y1047D01*
X1628Y1045D01*
X1630Y1045D01*
X1630Y1043D01*
X1634Y1043D01*
X1634Y1041D01*
X1636Y1041D01*
X1636Y1039D01*
X1638Y1039D01*
X1638Y1037D01*
X1640Y1037D01*
X1640Y1035D01*
X1642Y1035D01*
X1642Y1033D01*
X1644Y1033D01*
X1644Y1029D01*
X1646Y1029D01*
X1646Y1025D01*
X1648Y1025D01*
X1648Y1019D01*
X1650Y1019D01*
X1650Y1011D01*
X1652Y1011D01*
X1652Y999D01*
X1650Y999D01*
X1650Y991D01*
X1648Y991D01*
X1648Y985D01*
X1646Y985D01*
X1646Y981D01*
X1644Y981D01*
X1644Y977D01*
X1642Y977D01*
X1642Y975D01*
X1640Y975D01*
X1640Y973D01*
X1638Y973D01*
X1638Y971D01*
X1636Y971D01*
X1636Y969D01*
X1634Y969D01*
X1634Y967D01*
X1630Y967D01*
X1630Y965D01*
X1628Y965D01*
X1628Y963D01*
X1624Y963D01*
X1624Y961D01*
X1618Y961D01*
X1618Y959D01*
X1610Y959D01*
X1610Y957D01*
X2078Y957D01*
X2078Y1263D01*
X40Y1263D01*
G37*
D02*
G36*
X40Y1181D02*
X40Y1075D01*
X148Y1075D01*
X148Y1077D01*
X142Y1077D01*
X142Y1079D01*
X138Y1079D01*
X138Y1081D01*
X136Y1081D01*
X136Y1083D01*
X134Y1083D01*
X134Y1085D01*
X132Y1085D01*
X132Y1087D01*
X130Y1087D01*
X130Y1089D01*
X128Y1089D01*
X128Y1093D01*
X126Y1093D01*
X126Y1101D01*
X124Y1101D01*
X124Y1109D01*
X126Y1109D01*
X126Y1117D01*
X128Y1117D01*
X128Y1121D01*
X130Y1121D01*
X130Y1123D01*
X132Y1123D01*
X132Y1125D01*
X134Y1125D01*
X134Y1127D01*
X136Y1127D01*
X136Y1129D01*
X138Y1129D01*
X138Y1131D01*
X142Y1131D01*
X142Y1133D01*
X148Y1133D01*
X148Y1137D01*
X150Y1137D01*
X150Y1139D01*
X152Y1139D01*
X152Y1141D01*
X154Y1141D01*
X154Y1143D01*
X156Y1143D01*
X156Y1145D01*
X158Y1145D01*
X158Y1147D01*
X160Y1147D01*
X160Y1149D01*
X162Y1149D01*
X162Y1151D01*
X164Y1151D01*
X164Y1153D01*
X166Y1153D01*
X166Y1155D01*
X170Y1155D01*
X170Y1157D01*
X172Y1157D01*
X172Y1159D01*
X174Y1159D01*
X174Y1161D01*
X176Y1161D01*
X176Y1163D01*
X178Y1163D01*
X178Y1165D01*
X180Y1165D01*
X180Y1167D01*
X182Y1167D01*
X182Y1169D01*
X184Y1169D01*
X184Y1171D01*
X186Y1171D01*
X186Y1173D01*
X188Y1173D01*
X188Y1175D01*
X190Y1175D01*
X190Y1177D01*
X194Y1177D01*
X194Y1179D01*
X198Y1179D01*
X198Y1181D01*
X40Y1181D01*
G37*
D02*
G36*
X214Y1129D02*
X214Y1127D01*
X212Y1127D01*
X212Y1125D01*
X210Y1125D01*
X210Y1123D01*
X208Y1123D01*
X208Y1121D01*
X206Y1121D01*
X206Y1119D01*
X204Y1119D01*
X204Y1117D01*
X202Y1117D01*
X202Y1115D01*
X200Y1115D01*
X200Y1113D01*
X198Y1113D01*
X198Y1111D01*
X196Y1111D01*
X196Y1109D01*
X194Y1109D01*
X194Y1107D01*
X192Y1107D01*
X192Y1105D01*
X190Y1105D01*
X190Y1103D01*
X188Y1103D01*
X188Y1101D01*
X186Y1101D01*
X186Y1099D01*
X184Y1099D01*
X184Y1097D01*
X182Y1097D01*
X182Y1093D01*
X180Y1093D01*
X180Y1089D01*
X178Y1089D01*
X178Y1087D01*
X176Y1087D01*
X176Y1085D01*
X174Y1085D01*
X174Y1083D01*
X564Y1083D01*
X564Y1081D01*
X568Y1081D01*
X568Y1079D01*
X572Y1079D01*
X572Y1077D01*
X574Y1077D01*
X574Y1075D01*
X576Y1075D01*
X576Y1073D01*
X578Y1073D01*
X578Y1069D01*
X580Y1069D01*
X580Y1065D01*
X582Y1065D01*
X582Y1057D01*
X584Y1057D01*
X584Y1049D01*
X586Y1049D01*
X586Y1041D01*
X588Y1041D01*
X588Y1031D01*
X590Y1031D01*
X590Y1023D01*
X592Y1023D01*
X592Y1015D01*
X594Y1015D01*
X594Y1007D01*
X596Y1007D01*
X596Y999D01*
X598Y999D01*
X598Y989D01*
X600Y989D01*
X600Y981D01*
X602Y981D01*
X602Y973D01*
X604Y973D01*
X604Y965D01*
X606Y965D01*
X606Y955D01*
X608Y955D01*
X608Y947D01*
X610Y947D01*
X610Y939D01*
X612Y939D01*
X612Y931D01*
X614Y931D01*
X614Y921D01*
X616Y921D01*
X616Y913D01*
X618Y913D01*
X618Y905D01*
X620Y905D01*
X620Y903D01*
X652Y903D01*
X652Y807D01*
X638Y807D01*
X638Y787D01*
X640Y787D01*
X640Y785D01*
X642Y785D01*
X642Y783D01*
X644Y783D01*
X644Y779D01*
X646Y779D01*
X646Y775D01*
X648Y775D01*
X648Y769D01*
X650Y769D01*
X650Y761D01*
X652Y761D01*
X652Y749D01*
X650Y749D01*
X650Y741D01*
X648Y741D01*
X648Y735D01*
X646Y735D01*
X646Y731D01*
X644Y731D01*
X644Y727D01*
X642Y727D01*
X642Y725D01*
X640Y725D01*
X640Y723D01*
X638Y723D01*
X638Y721D01*
X636Y721D01*
X636Y719D01*
X634Y719D01*
X634Y717D01*
X630Y717D01*
X630Y715D01*
X628Y715D01*
X628Y695D01*
X630Y695D01*
X630Y693D01*
X634Y693D01*
X634Y691D01*
X636Y691D01*
X636Y689D01*
X638Y689D01*
X638Y687D01*
X640Y687D01*
X640Y685D01*
X642Y685D01*
X642Y683D01*
X644Y683D01*
X644Y679D01*
X646Y679D01*
X646Y675D01*
X648Y675D01*
X648Y669D01*
X650Y669D01*
X650Y661D01*
X652Y661D01*
X652Y649D01*
X650Y649D01*
X650Y641D01*
X648Y641D01*
X648Y635D01*
X646Y635D01*
X646Y631D01*
X644Y631D01*
X644Y627D01*
X642Y627D01*
X642Y625D01*
X640Y625D01*
X640Y623D01*
X638Y623D01*
X638Y621D01*
X636Y621D01*
X636Y619D01*
X634Y619D01*
X634Y617D01*
X630Y617D01*
X630Y615D01*
X628Y615D01*
X628Y595D01*
X630Y595D01*
X630Y593D01*
X634Y593D01*
X634Y591D01*
X636Y591D01*
X636Y589D01*
X638Y589D01*
X638Y587D01*
X640Y587D01*
X640Y585D01*
X642Y585D01*
X642Y583D01*
X644Y583D01*
X644Y579D01*
X646Y579D01*
X646Y575D01*
X648Y575D01*
X648Y569D01*
X650Y569D01*
X650Y561D01*
X652Y561D01*
X652Y549D01*
X650Y549D01*
X650Y541D01*
X648Y541D01*
X648Y535D01*
X646Y535D01*
X646Y531D01*
X644Y531D01*
X644Y527D01*
X642Y527D01*
X642Y525D01*
X640Y525D01*
X640Y523D01*
X638Y523D01*
X638Y521D01*
X636Y521D01*
X636Y519D01*
X634Y519D01*
X634Y517D01*
X630Y517D01*
X630Y515D01*
X628Y515D01*
X628Y513D01*
X624Y513D01*
X624Y511D01*
X618Y511D01*
X618Y509D01*
X610Y509D01*
X610Y507D01*
X698Y507D01*
X698Y513D01*
X700Y513D01*
X700Y517D01*
X702Y517D01*
X702Y523D01*
X704Y523D01*
X704Y527D01*
X706Y527D01*
X706Y533D01*
X708Y533D01*
X708Y537D01*
X710Y537D01*
X710Y543D01*
X712Y543D01*
X712Y547D01*
X714Y547D01*
X714Y553D01*
X716Y553D01*
X716Y557D01*
X718Y557D01*
X718Y561D01*
X720Y561D01*
X720Y567D01*
X722Y567D01*
X722Y571D01*
X724Y571D01*
X724Y577D01*
X726Y577D01*
X726Y581D01*
X728Y581D01*
X728Y587D01*
X730Y587D01*
X730Y591D01*
X732Y591D01*
X732Y597D01*
X734Y597D01*
X734Y601D01*
X736Y601D01*
X736Y607D01*
X738Y607D01*
X738Y611D01*
X740Y611D01*
X740Y617D01*
X742Y617D01*
X742Y621D01*
X744Y621D01*
X744Y627D01*
X746Y627D01*
X746Y631D01*
X748Y631D01*
X748Y637D01*
X750Y637D01*
X750Y641D01*
X752Y641D01*
X752Y647D01*
X754Y647D01*
X754Y651D01*
X756Y651D01*
X756Y657D01*
X758Y657D01*
X758Y661D01*
X760Y661D01*
X760Y667D01*
X762Y667D01*
X762Y671D01*
X764Y671D01*
X764Y675D01*
X766Y675D01*
X766Y681D01*
X768Y681D01*
X768Y685D01*
X770Y685D01*
X770Y691D01*
X772Y691D01*
X772Y695D01*
X774Y695D01*
X774Y701D01*
X776Y701D01*
X776Y705D01*
X778Y705D01*
X778Y711D01*
X780Y711D01*
X780Y715D01*
X782Y715D01*
X782Y719D01*
X784Y719D01*
X784Y723D01*
X786Y723D01*
X786Y725D01*
X788Y725D01*
X788Y727D01*
X792Y727D01*
X792Y729D01*
X794Y729D01*
X794Y731D01*
X798Y731D01*
X798Y733D01*
X802Y733D01*
X802Y735D01*
X806Y735D01*
X806Y737D01*
X812Y737D01*
X812Y739D01*
X816Y739D01*
X816Y741D01*
X820Y741D01*
X820Y743D01*
X824Y743D01*
X824Y745D01*
X828Y745D01*
X828Y747D01*
X832Y747D01*
X832Y749D01*
X836Y749D01*
X836Y751D01*
X840Y751D01*
X840Y753D01*
X844Y753D01*
X844Y755D01*
X848Y755D01*
X848Y757D01*
X852Y757D01*
X852Y759D01*
X856Y759D01*
X856Y761D01*
X858Y761D01*
X858Y769D01*
X860Y769D01*
X860Y775D01*
X862Y775D01*
X862Y779D01*
X864Y779D01*
X864Y781D01*
X866Y781D01*
X866Y785D01*
X868Y785D01*
X868Y787D01*
X870Y787D01*
X870Y789D01*
X872Y789D01*
X872Y791D01*
X874Y791D01*
X874Y793D01*
X878Y793D01*
X878Y795D01*
X880Y795D01*
X880Y815D01*
X878Y815D01*
X878Y817D01*
X874Y817D01*
X874Y819D01*
X872Y819D01*
X872Y821D01*
X870Y821D01*
X870Y823D01*
X868Y823D01*
X868Y825D01*
X866Y825D01*
X866Y829D01*
X864Y829D01*
X864Y831D01*
X862Y831D01*
X862Y835D01*
X860Y835D01*
X860Y841D01*
X858Y841D01*
X858Y849D01*
X856Y849D01*
X856Y881D01*
X854Y881D01*
X854Y885D01*
X852Y885D01*
X852Y887D01*
X850Y887D01*
X850Y891D01*
X848Y891D01*
X848Y893D01*
X846Y893D01*
X846Y897D01*
X844Y897D01*
X844Y899D01*
X842Y899D01*
X842Y903D01*
X840Y903D01*
X840Y905D01*
X838Y905D01*
X838Y909D01*
X836Y909D01*
X836Y911D01*
X834Y911D01*
X834Y915D01*
X832Y915D01*
X832Y917D01*
X830Y917D01*
X830Y921D01*
X828Y921D01*
X828Y923D01*
X826Y923D01*
X826Y927D01*
X824Y927D01*
X824Y929D01*
X822Y929D01*
X822Y933D01*
X820Y933D01*
X820Y935D01*
X818Y935D01*
X818Y939D01*
X816Y939D01*
X816Y941D01*
X814Y941D01*
X814Y945D01*
X812Y945D01*
X812Y947D01*
X810Y947D01*
X810Y951D01*
X808Y951D01*
X808Y953D01*
X806Y953D01*
X806Y957D01*
X804Y957D01*
X804Y959D01*
X802Y959D01*
X802Y963D01*
X800Y963D01*
X800Y965D01*
X798Y965D01*
X798Y969D01*
X796Y969D01*
X796Y971D01*
X794Y971D01*
X794Y975D01*
X792Y975D01*
X792Y977D01*
X790Y977D01*
X790Y981D01*
X788Y981D01*
X788Y983D01*
X786Y983D01*
X786Y985D01*
X784Y985D01*
X784Y989D01*
X782Y989D01*
X782Y991D01*
X780Y991D01*
X780Y995D01*
X778Y995D01*
X778Y997D01*
X776Y997D01*
X776Y1001D01*
X774Y1001D01*
X774Y1003D01*
X772Y1003D01*
X772Y1007D01*
X770Y1007D01*
X770Y1009D01*
X768Y1009D01*
X768Y1013D01*
X766Y1013D01*
X766Y1015D01*
X764Y1015D01*
X764Y1019D01*
X762Y1019D01*
X762Y1021D01*
X760Y1021D01*
X760Y1025D01*
X758Y1025D01*
X758Y1027D01*
X756Y1027D01*
X756Y1031D01*
X754Y1031D01*
X754Y1033D01*
X752Y1033D01*
X752Y1037D01*
X750Y1037D01*
X750Y1039D01*
X748Y1039D01*
X748Y1043D01*
X746Y1043D01*
X746Y1045D01*
X744Y1045D01*
X744Y1049D01*
X742Y1049D01*
X742Y1051D01*
X740Y1051D01*
X740Y1055D01*
X738Y1055D01*
X738Y1057D01*
X736Y1057D01*
X736Y1061D01*
X734Y1061D01*
X734Y1063D01*
X732Y1063D01*
X732Y1067D01*
X730Y1067D01*
X730Y1069D01*
X728Y1069D01*
X728Y1073D01*
X726Y1073D01*
X726Y1075D01*
X724Y1075D01*
X724Y1079D01*
X722Y1079D01*
X722Y1081D01*
X720Y1081D01*
X720Y1085D01*
X718Y1085D01*
X718Y1087D01*
X716Y1087D01*
X716Y1091D01*
X714Y1091D01*
X714Y1093D01*
X712Y1093D01*
X712Y1097D01*
X710Y1097D01*
X710Y1099D01*
X708Y1099D01*
X708Y1103D01*
X706Y1103D01*
X706Y1105D01*
X704Y1105D01*
X704Y1109D01*
X702Y1109D01*
X702Y1111D01*
X700Y1111D01*
X700Y1115D01*
X698Y1115D01*
X698Y1117D01*
X696Y1117D01*
X696Y1121D01*
X694Y1121D01*
X694Y1123D01*
X692Y1123D01*
X692Y1127D01*
X690Y1127D01*
X690Y1129D01*
X214Y1129D01*
G37*
D02*
G36*
X172Y1083D02*
X172Y1081D01*
X170Y1081D01*
X170Y1079D01*
X166Y1079D01*
X166Y1077D01*
X160Y1077D01*
X160Y1075D01*
X334Y1075D01*
X334Y1077D01*
X336Y1077D01*
X336Y1079D01*
X340Y1079D01*
X340Y1081D01*
X344Y1081D01*
X344Y1083D01*
X172Y1083D01*
G37*
D02*
G36*
X40Y1075D02*
X40Y1073D01*
X332Y1073D01*
X332Y1075D01*
X40Y1075D01*
G37*
D02*
G36*
X40Y1075D02*
X40Y1073D01*
X332Y1073D01*
X332Y1075D01*
X40Y1075D01*
G37*
D02*
G36*
X40Y1073D02*
X40Y901D01*
X216Y901D01*
X216Y899D01*
X222Y899D01*
X222Y897D01*
X226Y897D01*
X226Y895D01*
X230Y895D01*
X230Y893D01*
X232Y893D01*
X232Y891D01*
X236Y891D01*
X236Y889D01*
X238Y889D01*
X238Y887D01*
X240Y887D01*
X240Y883D01*
X242Y883D01*
X242Y881D01*
X244Y881D01*
X244Y877D01*
X264Y877D01*
X264Y881D01*
X266Y881D01*
X266Y883D01*
X268Y883D01*
X268Y885D01*
X270Y885D01*
X270Y889D01*
X274Y889D01*
X274Y891D01*
X276Y891D01*
X276Y893D01*
X278Y893D01*
X278Y895D01*
X282Y895D01*
X282Y897D01*
X286Y897D01*
X286Y899D01*
X288Y899D01*
X288Y905D01*
X290Y905D01*
X290Y913D01*
X292Y913D01*
X292Y921D01*
X294Y921D01*
X294Y929D01*
X296Y929D01*
X296Y937D01*
X298Y937D01*
X298Y947D01*
X300Y947D01*
X300Y955D01*
X302Y955D01*
X302Y963D01*
X304Y963D01*
X304Y971D01*
X306Y971D01*
X306Y981D01*
X308Y981D01*
X308Y989D01*
X310Y989D01*
X310Y997D01*
X312Y997D01*
X312Y1005D01*
X314Y1005D01*
X314Y1015D01*
X316Y1015D01*
X316Y1023D01*
X318Y1023D01*
X318Y1031D01*
X320Y1031D01*
X320Y1039D01*
X322Y1039D01*
X322Y1049D01*
X324Y1049D01*
X324Y1057D01*
X326Y1057D01*
X326Y1065D01*
X328Y1065D01*
X328Y1069D01*
X330Y1069D01*
X330Y1073D01*
X40Y1073D01*
G37*
D02*
G36*
X804Y1053D02*
X804Y1049D01*
X806Y1049D01*
X806Y1047D01*
X808Y1047D01*
X808Y1043D01*
X810Y1043D01*
X810Y1041D01*
X812Y1041D01*
X812Y1037D01*
X814Y1037D01*
X814Y1035D01*
X816Y1035D01*
X816Y1031D01*
X818Y1031D01*
X818Y1029D01*
X820Y1029D01*
X820Y1025D01*
X822Y1025D01*
X822Y1023D01*
X824Y1023D01*
X824Y1019D01*
X826Y1019D01*
X826Y1017D01*
X828Y1017D01*
X828Y1013D01*
X830Y1013D01*
X830Y1011D01*
X832Y1011D01*
X832Y1007D01*
X834Y1007D01*
X834Y1005D01*
X836Y1005D01*
X836Y1001D01*
X838Y1001D01*
X838Y999D01*
X840Y999D01*
X840Y995D01*
X842Y995D01*
X842Y993D01*
X844Y993D01*
X844Y989D01*
X846Y989D01*
X846Y987D01*
X848Y987D01*
X848Y983D01*
X850Y983D01*
X850Y981D01*
X852Y981D01*
X852Y977D01*
X854Y977D01*
X854Y975D01*
X856Y975D01*
X856Y971D01*
X858Y971D01*
X858Y969D01*
X860Y969D01*
X860Y967D01*
X862Y967D01*
X862Y963D01*
X864Y963D01*
X864Y961D01*
X866Y961D01*
X866Y957D01*
X1198Y957D01*
X1198Y959D01*
X1190Y959D01*
X1190Y961D01*
X1184Y961D01*
X1184Y963D01*
X1180Y963D01*
X1180Y965D01*
X1178Y965D01*
X1178Y967D01*
X1174Y967D01*
X1174Y969D01*
X1172Y969D01*
X1172Y971D01*
X1170Y971D01*
X1170Y973D01*
X1168Y973D01*
X1168Y975D01*
X1166Y975D01*
X1166Y979D01*
X1164Y979D01*
X1164Y981D01*
X1162Y981D01*
X1162Y985D01*
X1160Y985D01*
X1160Y991D01*
X1158Y991D01*
X1158Y999D01*
X1156Y999D01*
X1156Y1011D01*
X1158Y1011D01*
X1158Y1019D01*
X1160Y1019D01*
X1160Y1025D01*
X1162Y1025D01*
X1162Y1029D01*
X1164Y1029D01*
X1164Y1031D01*
X1166Y1031D01*
X1166Y1035D01*
X1168Y1035D01*
X1168Y1037D01*
X1170Y1037D01*
X1170Y1039D01*
X1172Y1039D01*
X1172Y1041D01*
X1174Y1041D01*
X1174Y1043D01*
X1178Y1043D01*
X1178Y1045D01*
X1180Y1045D01*
X1180Y1047D01*
X1184Y1047D01*
X1184Y1049D01*
X1190Y1049D01*
X1190Y1051D01*
X1198Y1051D01*
X1198Y1053D01*
X804Y1053D01*
G37*
D02*
G36*
X1210Y1053D02*
X1210Y1051D01*
X1218Y1051D01*
X1218Y1049D01*
X1224Y1049D01*
X1224Y1047D01*
X1228Y1047D01*
X1228Y1045D01*
X1230Y1045D01*
X1230Y1043D01*
X1234Y1043D01*
X1234Y1041D01*
X1236Y1041D01*
X1236Y1039D01*
X1238Y1039D01*
X1238Y1037D01*
X1240Y1037D01*
X1240Y1035D01*
X1242Y1035D01*
X1242Y1033D01*
X1244Y1033D01*
X1244Y1029D01*
X1246Y1029D01*
X1246Y1025D01*
X1248Y1025D01*
X1248Y1019D01*
X1250Y1019D01*
X1250Y1011D01*
X1252Y1011D01*
X1252Y999D01*
X1250Y999D01*
X1250Y991D01*
X1248Y991D01*
X1248Y985D01*
X1246Y985D01*
X1246Y981D01*
X1244Y981D01*
X1244Y977D01*
X1242Y977D01*
X1242Y975D01*
X1240Y975D01*
X1240Y973D01*
X1238Y973D01*
X1238Y971D01*
X1236Y971D01*
X1236Y969D01*
X1234Y969D01*
X1234Y967D01*
X1230Y967D01*
X1230Y965D01*
X1228Y965D01*
X1228Y963D01*
X1224Y963D01*
X1224Y961D01*
X1218Y961D01*
X1218Y959D01*
X1210Y959D01*
X1210Y957D01*
X1598Y957D01*
X1598Y959D01*
X1590Y959D01*
X1590Y961D01*
X1584Y961D01*
X1584Y963D01*
X1580Y963D01*
X1580Y965D01*
X1578Y965D01*
X1578Y967D01*
X1574Y967D01*
X1574Y969D01*
X1572Y969D01*
X1572Y971D01*
X1570Y971D01*
X1570Y973D01*
X1568Y973D01*
X1568Y975D01*
X1566Y975D01*
X1566Y979D01*
X1564Y979D01*
X1564Y981D01*
X1562Y981D01*
X1562Y985D01*
X1560Y985D01*
X1560Y991D01*
X1558Y991D01*
X1558Y999D01*
X1556Y999D01*
X1556Y1011D01*
X1558Y1011D01*
X1558Y1019D01*
X1560Y1019D01*
X1560Y1025D01*
X1562Y1025D01*
X1562Y1029D01*
X1564Y1029D01*
X1564Y1031D01*
X1566Y1031D01*
X1566Y1035D01*
X1568Y1035D01*
X1568Y1037D01*
X1570Y1037D01*
X1570Y1039D01*
X1572Y1039D01*
X1572Y1041D01*
X1574Y1041D01*
X1574Y1043D01*
X1578Y1043D01*
X1578Y1045D01*
X1580Y1045D01*
X1580Y1047D01*
X1584Y1047D01*
X1584Y1049D01*
X1590Y1049D01*
X1590Y1051D01*
X1598Y1051D01*
X1598Y1053D01*
X1210Y1053D01*
G37*
D02*
G36*
X372Y1031D02*
X372Y1025D01*
X370Y1025D01*
X370Y1017D01*
X368Y1017D01*
X368Y1009D01*
X366Y1009D01*
X366Y999D01*
X364Y999D01*
X364Y991D01*
X362Y991D01*
X362Y983D01*
X360Y983D01*
X360Y975D01*
X358Y975D01*
X358Y965D01*
X356Y965D01*
X356Y957D01*
X354Y957D01*
X354Y949D01*
X352Y949D01*
X352Y941D01*
X350Y941D01*
X350Y931D01*
X348Y931D01*
X348Y923D01*
X346Y923D01*
X346Y915D01*
X344Y915D01*
X344Y907D01*
X342Y907D01*
X342Y881D01*
X344Y881D01*
X344Y877D01*
X346Y877D01*
X346Y875D01*
X348Y875D01*
X348Y869D01*
X350Y869D01*
X350Y857D01*
X352Y857D01*
X352Y853D01*
X350Y853D01*
X350Y841D01*
X348Y841D01*
X348Y835D01*
X346Y835D01*
X346Y833D01*
X344Y833D01*
X344Y829D01*
X342Y829D01*
X342Y827D01*
X340Y827D01*
X340Y823D01*
X338Y823D01*
X338Y821D01*
X336Y821D01*
X336Y819D01*
X332Y819D01*
X332Y817D01*
X330Y817D01*
X330Y815D01*
X326Y815D01*
X326Y795D01*
X330Y795D01*
X330Y793D01*
X332Y793D01*
X332Y791D01*
X336Y791D01*
X336Y789D01*
X338Y789D01*
X338Y787D01*
X340Y787D01*
X340Y783D01*
X342Y783D01*
X342Y781D01*
X344Y781D01*
X344Y777D01*
X346Y777D01*
X346Y775D01*
X348Y775D01*
X348Y769D01*
X350Y769D01*
X350Y761D01*
X354Y761D01*
X354Y759D01*
X358Y759D01*
X358Y757D01*
X362Y757D01*
X362Y755D01*
X366Y755D01*
X366Y753D01*
X370Y753D01*
X370Y751D01*
X374Y751D01*
X374Y749D01*
X378Y749D01*
X378Y747D01*
X382Y747D01*
X382Y745D01*
X386Y745D01*
X386Y743D01*
X390Y743D01*
X390Y741D01*
X394Y741D01*
X394Y739D01*
X398Y739D01*
X398Y737D01*
X404Y737D01*
X404Y735D01*
X408Y735D01*
X408Y733D01*
X412Y733D01*
X412Y731D01*
X416Y731D01*
X416Y729D01*
X420Y729D01*
X420Y727D01*
X422Y727D01*
X422Y725D01*
X424Y725D01*
X424Y723D01*
X426Y723D01*
X426Y721D01*
X428Y721D01*
X428Y717D01*
X430Y717D01*
X430Y709D01*
X432Y709D01*
X432Y507D01*
X598Y507D01*
X598Y509D01*
X590Y509D01*
X590Y511D01*
X584Y511D01*
X584Y513D01*
X580Y513D01*
X580Y515D01*
X578Y515D01*
X578Y517D01*
X574Y517D01*
X574Y519D01*
X572Y519D01*
X572Y521D01*
X570Y521D01*
X570Y523D01*
X568Y523D01*
X568Y525D01*
X566Y525D01*
X566Y529D01*
X564Y529D01*
X564Y531D01*
X562Y531D01*
X562Y535D01*
X560Y535D01*
X560Y541D01*
X558Y541D01*
X558Y549D01*
X556Y549D01*
X556Y561D01*
X558Y561D01*
X558Y569D01*
X560Y569D01*
X560Y575D01*
X562Y575D01*
X562Y579D01*
X564Y579D01*
X564Y581D01*
X566Y581D01*
X566Y585D01*
X568Y585D01*
X568Y587D01*
X570Y587D01*
X570Y589D01*
X572Y589D01*
X572Y591D01*
X574Y591D01*
X574Y593D01*
X578Y593D01*
X578Y595D01*
X580Y595D01*
X580Y615D01*
X578Y615D01*
X578Y617D01*
X574Y617D01*
X574Y619D01*
X572Y619D01*
X572Y621D01*
X570Y621D01*
X570Y623D01*
X568Y623D01*
X568Y625D01*
X566Y625D01*
X566Y629D01*
X564Y629D01*
X564Y631D01*
X562Y631D01*
X562Y635D01*
X560Y635D01*
X560Y641D01*
X558Y641D01*
X558Y649D01*
X556Y649D01*
X556Y661D01*
X558Y661D01*
X558Y669D01*
X560Y669D01*
X560Y675D01*
X562Y675D01*
X562Y679D01*
X564Y679D01*
X564Y681D01*
X566Y681D01*
X566Y685D01*
X568Y685D01*
X568Y687D01*
X570Y687D01*
X570Y689D01*
X572Y689D01*
X572Y691D01*
X574Y691D01*
X574Y693D01*
X578Y693D01*
X578Y695D01*
X580Y695D01*
X580Y715D01*
X578Y715D01*
X578Y717D01*
X574Y717D01*
X574Y719D01*
X572Y719D01*
X572Y721D01*
X570Y721D01*
X570Y723D01*
X568Y723D01*
X568Y725D01*
X566Y725D01*
X566Y729D01*
X564Y729D01*
X564Y731D01*
X562Y731D01*
X562Y735D01*
X560Y735D01*
X560Y741D01*
X558Y741D01*
X558Y749D01*
X556Y749D01*
X556Y761D01*
X558Y761D01*
X558Y769D01*
X560Y769D01*
X560Y775D01*
X562Y775D01*
X562Y779D01*
X564Y779D01*
X564Y781D01*
X566Y781D01*
X566Y785D01*
X568Y785D01*
X568Y787D01*
X570Y787D01*
X570Y807D01*
X556Y807D01*
X556Y903D01*
X562Y903D01*
X562Y925D01*
X560Y925D01*
X560Y933D01*
X558Y933D01*
X558Y941D01*
X556Y941D01*
X556Y949D01*
X554Y949D01*
X554Y959D01*
X552Y959D01*
X552Y967D01*
X550Y967D01*
X550Y975D01*
X548Y975D01*
X548Y983D01*
X546Y983D01*
X546Y993D01*
X544Y993D01*
X544Y1001D01*
X542Y1001D01*
X542Y1009D01*
X540Y1009D01*
X540Y1017D01*
X538Y1017D01*
X538Y1025D01*
X536Y1025D01*
X536Y1031D01*
X372Y1031D01*
G37*
D02*
G36*
X868Y957D02*
X868Y955D01*
X2078Y955D01*
X2078Y957D01*
X868Y957D01*
G37*
D02*
G36*
X868Y957D02*
X868Y955D01*
X2078Y955D01*
X2078Y957D01*
X868Y957D01*
G37*
D02*
G36*
X868Y957D02*
X868Y955D01*
X2078Y955D01*
X2078Y957D01*
X868Y957D01*
G37*
D02*
G36*
X870Y955D02*
X870Y951D01*
X872Y951D01*
X872Y949D01*
X874Y949D01*
X874Y945D01*
X876Y945D01*
X876Y943D01*
X878Y943D01*
X878Y939D01*
X880Y939D01*
X880Y937D01*
X882Y937D01*
X882Y933D01*
X884Y933D01*
X884Y931D01*
X886Y931D01*
X886Y927D01*
X888Y927D01*
X888Y925D01*
X890Y925D01*
X890Y921D01*
X892Y921D01*
X892Y919D01*
X894Y919D01*
X894Y915D01*
X896Y915D01*
X896Y913D01*
X898Y913D01*
X898Y909D01*
X900Y909D01*
X900Y907D01*
X902Y907D01*
X902Y903D01*
X1610Y903D01*
X1610Y901D01*
X1618Y901D01*
X1618Y899D01*
X1624Y899D01*
X1624Y897D01*
X1628Y897D01*
X1628Y895D01*
X1630Y895D01*
X1630Y893D01*
X1634Y893D01*
X1634Y891D01*
X1636Y891D01*
X1636Y889D01*
X1638Y889D01*
X1638Y887D01*
X1640Y887D01*
X1640Y885D01*
X1642Y885D01*
X1642Y883D01*
X1644Y883D01*
X1644Y879D01*
X1646Y879D01*
X1646Y875D01*
X1648Y875D01*
X1648Y869D01*
X1650Y869D01*
X1650Y861D01*
X1652Y861D01*
X1652Y849D01*
X1650Y849D01*
X1650Y841D01*
X1648Y841D01*
X1648Y835D01*
X1646Y835D01*
X1646Y831D01*
X1644Y831D01*
X1644Y827D01*
X1642Y827D01*
X1642Y825D01*
X1640Y825D01*
X1640Y823D01*
X1638Y823D01*
X1638Y821D01*
X1636Y821D01*
X1636Y819D01*
X1634Y819D01*
X1634Y817D01*
X1630Y817D01*
X1630Y815D01*
X1628Y815D01*
X1628Y795D01*
X1630Y795D01*
X1630Y793D01*
X1634Y793D01*
X1634Y791D01*
X1636Y791D01*
X1636Y789D01*
X1638Y789D01*
X1638Y787D01*
X1640Y787D01*
X1640Y785D01*
X1642Y785D01*
X1642Y783D01*
X1644Y783D01*
X1644Y779D01*
X1646Y779D01*
X1646Y775D01*
X1648Y775D01*
X1648Y769D01*
X1650Y769D01*
X1650Y761D01*
X1652Y761D01*
X1652Y749D01*
X1650Y749D01*
X1650Y741D01*
X1648Y741D01*
X1648Y735D01*
X1646Y735D01*
X1646Y731D01*
X1644Y731D01*
X1644Y727D01*
X1642Y727D01*
X1642Y725D01*
X1640Y725D01*
X1640Y723D01*
X1638Y723D01*
X1638Y721D01*
X1636Y721D01*
X1636Y719D01*
X1634Y719D01*
X1634Y717D01*
X1630Y717D01*
X1630Y715D01*
X1628Y715D01*
X1628Y695D01*
X1630Y695D01*
X1630Y693D01*
X1634Y693D01*
X1634Y691D01*
X1636Y691D01*
X1636Y689D01*
X1638Y689D01*
X1638Y687D01*
X1640Y687D01*
X1640Y685D01*
X1642Y685D01*
X1642Y683D01*
X1644Y683D01*
X1644Y679D01*
X1646Y679D01*
X1646Y675D01*
X1648Y675D01*
X1648Y669D01*
X1650Y669D01*
X1650Y661D01*
X1652Y661D01*
X1652Y649D01*
X1650Y649D01*
X1650Y641D01*
X1648Y641D01*
X1648Y635D01*
X1646Y635D01*
X1646Y631D01*
X1644Y631D01*
X1644Y627D01*
X1642Y627D01*
X1642Y625D01*
X1640Y625D01*
X1640Y623D01*
X1638Y623D01*
X1638Y621D01*
X1636Y621D01*
X1636Y619D01*
X1634Y619D01*
X1634Y617D01*
X1630Y617D01*
X1630Y615D01*
X1628Y615D01*
X1628Y613D01*
X1624Y613D01*
X1624Y611D01*
X1618Y611D01*
X1618Y609D01*
X1610Y609D01*
X1610Y607D01*
X2078Y607D01*
X2078Y955D01*
X870Y955D01*
G37*
D02*
G36*
X910Y903D02*
X910Y901D01*
X918Y901D01*
X918Y899D01*
X924Y899D01*
X924Y897D01*
X928Y897D01*
X928Y895D01*
X930Y895D01*
X930Y893D01*
X934Y893D01*
X934Y891D01*
X936Y891D01*
X936Y889D01*
X938Y889D01*
X938Y887D01*
X940Y887D01*
X940Y885D01*
X942Y885D01*
X942Y883D01*
X944Y883D01*
X944Y879D01*
X946Y879D01*
X946Y875D01*
X948Y875D01*
X948Y869D01*
X950Y869D01*
X950Y861D01*
X952Y861D01*
X952Y849D01*
X950Y849D01*
X950Y841D01*
X948Y841D01*
X948Y835D01*
X946Y835D01*
X946Y831D01*
X944Y831D01*
X944Y827D01*
X942Y827D01*
X942Y825D01*
X940Y825D01*
X940Y823D01*
X938Y823D01*
X938Y821D01*
X936Y821D01*
X936Y819D01*
X934Y819D01*
X934Y817D01*
X930Y817D01*
X930Y815D01*
X928Y815D01*
X928Y795D01*
X930Y795D01*
X930Y793D01*
X934Y793D01*
X934Y791D01*
X936Y791D01*
X936Y789D01*
X938Y789D01*
X938Y787D01*
X940Y787D01*
X940Y785D01*
X942Y785D01*
X942Y783D01*
X944Y783D01*
X944Y779D01*
X946Y779D01*
X946Y775D01*
X948Y775D01*
X948Y769D01*
X950Y769D01*
X950Y761D01*
X952Y761D01*
X952Y749D01*
X950Y749D01*
X950Y741D01*
X948Y741D01*
X948Y735D01*
X946Y735D01*
X946Y731D01*
X944Y731D01*
X944Y727D01*
X942Y727D01*
X942Y725D01*
X940Y725D01*
X940Y723D01*
X938Y723D01*
X938Y721D01*
X936Y721D01*
X936Y719D01*
X934Y719D01*
X934Y717D01*
X930Y717D01*
X930Y715D01*
X928Y715D01*
X928Y695D01*
X930Y695D01*
X930Y693D01*
X934Y693D01*
X934Y691D01*
X936Y691D01*
X936Y689D01*
X938Y689D01*
X938Y687D01*
X940Y687D01*
X940Y685D01*
X942Y685D01*
X942Y683D01*
X944Y683D01*
X944Y679D01*
X946Y679D01*
X946Y675D01*
X948Y675D01*
X948Y669D01*
X950Y669D01*
X950Y661D01*
X952Y661D01*
X952Y649D01*
X950Y649D01*
X950Y641D01*
X948Y641D01*
X948Y635D01*
X946Y635D01*
X946Y631D01*
X944Y631D01*
X944Y627D01*
X942Y627D01*
X942Y625D01*
X940Y625D01*
X940Y623D01*
X938Y623D01*
X938Y621D01*
X936Y621D01*
X936Y619D01*
X934Y619D01*
X934Y617D01*
X930Y617D01*
X930Y615D01*
X928Y615D01*
X928Y607D01*
X1198Y607D01*
X1198Y609D01*
X1190Y609D01*
X1190Y611D01*
X1184Y611D01*
X1184Y613D01*
X1180Y613D01*
X1180Y615D01*
X1178Y615D01*
X1178Y617D01*
X1174Y617D01*
X1174Y619D01*
X1172Y619D01*
X1172Y621D01*
X1170Y621D01*
X1170Y623D01*
X1168Y623D01*
X1168Y625D01*
X1166Y625D01*
X1166Y629D01*
X1164Y629D01*
X1164Y631D01*
X1162Y631D01*
X1162Y635D01*
X1160Y635D01*
X1160Y641D01*
X1158Y641D01*
X1158Y649D01*
X1156Y649D01*
X1156Y661D01*
X1158Y661D01*
X1158Y669D01*
X1160Y669D01*
X1160Y675D01*
X1162Y675D01*
X1162Y679D01*
X1164Y679D01*
X1164Y681D01*
X1166Y681D01*
X1166Y685D01*
X1168Y685D01*
X1168Y687D01*
X1170Y687D01*
X1170Y689D01*
X1172Y689D01*
X1172Y691D01*
X1174Y691D01*
X1174Y693D01*
X1178Y693D01*
X1178Y695D01*
X1180Y695D01*
X1180Y715D01*
X1178Y715D01*
X1178Y717D01*
X1174Y717D01*
X1174Y719D01*
X1172Y719D01*
X1172Y721D01*
X1170Y721D01*
X1170Y723D01*
X1168Y723D01*
X1168Y725D01*
X1166Y725D01*
X1166Y729D01*
X1164Y729D01*
X1164Y731D01*
X1162Y731D01*
X1162Y735D01*
X1160Y735D01*
X1160Y741D01*
X1158Y741D01*
X1158Y749D01*
X1156Y749D01*
X1156Y761D01*
X1158Y761D01*
X1158Y769D01*
X1160Y769D01*
X1160Y775D01*
X1162Y775D01*
X1162Y779D01*
X1164Y779D01*
X1164Y781D01*
X1166Y781D01*
X1166Y785D01*
X1168Y785D01*
X1168Y787D01*
X1170Y787D01*
X1170Y789D01*
X1172Y789D01*
X1172Y791D01*
X1174Y791D01*
X1174Y793D01*
X1178Y793D01*
X1178Y795D01*
X1180Y795D01*
X1180Y815D01*
X1178Y815D01*
X1178Y817D01*
X1174Y817D01*
X1174Y819D01*
X1172Y819D01*
X1172Y821D01*
X1170Y821D01*
X1170Y823D01*
X1168Y823D01*
X1168Y825D01*
X1166Y825D01*
X1166Y829D01*
X1164Y829D01*
X1164Y831D01*
X1162Y831D01*
X1162Y835D01*
X1160Y835D01*
X1160Y841D01*
X1158Y841D01*
X1158Y849D01*
X1156Y849D01*
X1156Y861D01*
X1158Y861D01*
X1158Y869D01*
X1160Y869D01*
X1160Y875D01*
X1162Y875D01*
X1162Y879D01*
X1164Y879D01*
X1164Y881D01*
X1166Y881D01*
X1166Y885D01*
X1168Y885D01*
X1168Y887D01*
X1170Y887D01*
X1170Y889D01*
X1172Y889D01*
X1172Y891D01*
X1174Y891D01*
X1174Y893D01*
X1178Y893D01*
X1178Y895D01*
X1180Y895D01*
X1180Y897D01*
X1184Y897D01*
X1184Y899D01*
X1190Y899D01*
X1190Y901D01*
X1198Y901D01*
X1198Y903D01*
X910Y903D01*
G37*
D02*
G36*
X1210Y903D02*
X1210Y901D01*
X1218Y901D01*
X1218Y899D01*
X1224Y899D01*
X1224Y897D01*
X1228Y897D01*
X1228Y895D01*
X1230Y895D01*
X1230Y893D01*
X1234Y893D01*
X1234Y891D01*
X1236Y891D01*
X1236Y889D01*
X1238Y889D01*
X1238Y887D01*
X1240Y887D01*
X1240Y885D01*
X1242Y885D01*
X1242Y883D01*
X1244Y883D01*
X1244Y879D01*
X1246Y879D01*
X1246Y875D01*
X1248Y875D01*
X1248Y869D01*
X1250Y869D01*
X1250Y861D01*
X1252Y861D01*
X1252Y849D01*
X1250Y849D01*
X1250Y841D01*
X1248Y841D01*
X1248Y835D01*
X1246Y835D01*
X1246Y831D01*
X1244Y831D01*
X1244Y827D01*
X1242Y827D01*
X1242Y825D01*
X1240Y825D01*
X1240Y823D01*
X1238Y823D01*
X1238Y821D01*
X1236Y821D01*
X1236Y819D01*
X1234Y819D01*
X1234Y817D01*
X1230Y817D01*
X1230Y815D01*
X1228Y815D01*
X1228Y795D01*
X1230Y795D01*
X1230Y793D01*
X1234Y793D01*
X1234Y791D01*
X1236Y791D01*
X1236Y789D01*
X1238Y789D01*
X1238Y787D01*
X1240Y787D01*
X1240Y785D01*
X1242Y785D01*
X1242Y783D01*
X1244Y783D01*
X1244Y779D01*
X1246Y779D01*
X1246Y775D01*
X1248Y775D01*
X1248Y769D01*
X1250Y769D01*
X1250Y761D01*
X1252Y761D01*
X1252Y749D01*
X1250Y749D01*
X1250Y741D01*
X1248Y741D01*
X1248Y735D01*
X1246Y735D01*
X1246Y731D01*
X1244Y731D01*
X1244Y727D01*
X1242Y727D01*
X1242Y725D01*
X1240Y725D01*
X1240Y723D01*
X1238Y723D01*
X1238Y721D01*
X1236Y721D01*
X1236Y719D01*
X1234Y719D01*
X1234Y717D01*
X1230Y717D01*
X1230Y715D01*
X1228Y715D01*
X1228Y695D01*
X1230Y695D01*
X1230Y693D01*
X1234Y693D01*
X1234Y691D01*
X1236Y691D01*
X1236Y689D01*
X1238Y689D01*
X1238Y687D01*
X1240Y687D01*
X1240Y685D01*
X1242Y685D01*
X1242Y683D01*
X1244Y683D01*
X1244Y679D01*
X1246Y679D01*
X1246Y675D01*
X1248Y675D01*
X1248Y669D01*
X1250Y669D01*
X1250Y661D01*
X1252Y661D01*
X1252Y649D01*
X1250Y649D01*
X1250Y641D01*
X1248Y641D01*
X1248Y635D01*
X1246Y635D01*
X1246Y631D01*
X1244Y631D01*
X1244Y627D01*
X1242Y627D01*
X1242Y625D01*
X1240Y625D01*
X1240Y623D01*
X1238Y623D01*
X1238Y621D01*
X1236Y621D01*
X1236Y619D01*
X1234Y619D01*
X1234Y617D01*
X1230Y617D01*
X1230Y615D01*
X1228Y615D01*
X1228Y613D01*
X1224Y613D01*
X1224Y611D01*
X1218Y611D01*
X1218Y609D01*
X1210Y609D01*
X1210Y607D01*
X1598Y607D01*
X1598Y609D01*
X1590Y609D01*
X1590Y611D01*
X1584Y611D01*
X1584Y613D01*
X1580Y613D01*
X1580Y615D01*
X1578Y615D01*
X1578Y617D01*
X1574Y617D01*
X1574Y619D01*
X1572Y619D01*
X1572Y621D01*
X1570Y621D01*
X1570Y623D01*
X1568Y623D01*
X1568Y625D01*
X1566Y625D01*
X1566Y629D01*
X1564Y629D01*
X1564Y631D01*
X1562Y631D01*
X1562Y635D01*
X1560Y635D01*
X1560Y641D01*
X1558Y641D01*
X1558Y649D01*
X1556Y649D01*
X1556Y661D01*
X1558Y661D01*
X1558Y669D01*
X1560Y669D01*
X1560Y675D01*
X1562Y675D01*
X1562Y679D01*
X1564Y679D01*
X1564Y681D01*
X1566Y681D01*
X1566Y685D01*
X1568Y685D01*
X1568Y687D01*
X1570Y687D01*
X1570Y689D01*
X1572Y689D01*
X1572Y691D01*
X1574Y691D01*
X1574Y693D01*
X1578Y693D01*
X1578Y695D01*
X1580Y695D01*
X1580Y715D01*
X1578Y715D01*
X1578Y717D01*
X1574Y717D01*
X1574Y719D01*
X1572Y719D01*
X1572Y721D01*
X1570Y721D01*
X1570Y723D01*
X1568Y723D01*
X1568Y725D01*
X1566Y725D01*
X1566Y729D01*
X1564Y729D01*
X1564Y731D01*
X1562Y731D01*
X1562Y735D01*
X1560Y735D01*
X1560Y741D01*
X1558Y741D01*
X1558Y749D01*
X1556Y749D01*
X1556Y761D01*
X1558Y761D01*
X1558Y769D01*
X1560Y769D01*
X1560Y775D01*
X1562Y775D01*
X1562Y779D01*
X1564Y779D01*
X1564Y781D01*
X1566Y781D01*
X1566Y785D01*
X1568Y785D01*
X1568Y787D01*
X1570Y787D01*
X1570Y789D01*
X1572Y789D01*
X1572Y791D01*
X1574Y791D01*
X1574Y793D01*
X1578Y793D01*
X1578Y795D01*
X1580Y795D01*
X1580Y815D01*
X1578Y815D01*
X1578Y817D01*
X1574Y817D01*
X1574Y819D01*
X1572Y819D01*
X1572Y821D01*
X1570Y821D01*
X1570Y823D01*
X1568Y823D01*
X1568Y825D01*
X1566Y825D01*
X1566Y829D01*
X1564Y829D01*
X1564Y831D01*
X1562Y831D01*
X1562Y835D01*
X1560Y835D01*
X1560Y841D01*
X1558Y841D01*
X1558Y849D01*
X1556Y849D01*
X1556Y861D01*
X1558Y861D01*
X1558Y869D01*
X1560Y869D01*
X1560Y875D01*
X1562Y875D01*
X1562Y879D01*
X1564Y879D01*
X1564Y881D01*
X1566Y881D01*
X1566Y885D01*
X1568Y885D01*
X1568Y887D01*
X1570Y887D01*
X1570Y889D01*
X1572Y889D01*
X1572Y891D01*
X1574Y891D01*
X1574Y893D01*
X1578Y893D01*
X1578Y895D01*
X1580Y895D01*
X1580Y897D01*
X1584Y897D01*
X1584Y899D01*
X1590Y899D01*
X1590Y901D01*
X1598Y901D01*
X1598Y903D01*
X1210Y903D01*
G37*
D02*
G36*
X40Y901D02*
X40Y781D01*
X166Y781D01*
X166Y783D01*
X168Y783D01*
X168Y785D01*
X170Y785D01*
X170Y789D01*
X174Y789D01*
X174Y791D01*
X176Y791D01*
X176Y793D01*
X178Y793D01*
X178Y795D01*
X182Y795D01*
X182Y815D01*
X178Y815D01*
X178Y817D01*
X176Y817D01*
X176Y819D01*
X174Y819D01*
X174Y821D01*
X170Y821D01*
X170Y825D01*
X168Y825D01*
X168Y827D01*
X166Y827D01*
X166Y829D01*
X164Y829D01*
X164Y833D01*
X162Y833D01*
X162Y837D01*
X160Y837D01*
X160Y843D01*
X158Y843D01*
X158Y867D01*
X160Y867D01*
X160Y873D01*
X162Y873D01*
X162Y877D01*
X164Y877D01*
X164Y881D01*
X166Y881D01*
X166Y883D01*
X168Y883D01*
X168Y885D01*
X170Y885D01*
X170Y889D01*
X174Y889D01*
X174Y891D01*
X176Y891D01*
X176Y893D01*
X178Y893D01*
X178Y895D01*
X182Y895D01*
X182Y897D01*
X186Y897D01*
X186Y899D01*
X192Y899D01*
X192Y901D01*
X40Y901D01*
G37*
D02*
G36*
X928Y607D02*
X928Y605D01*
X2078Y605D01*
X2078Y607D01*
X928Y607D01*
G37*
D02*
G36*
X928Y607D02*
X928Y605D01*
X2078Y605D01*
X2078Y607D01*
X928Y607D01*
G37*
D02*
G36*
X928Y607D02*
X928Y605D01*
X2078Y605D01*
X2078Y607D01*
X928Y607D01*
G37*
D02*
G36*
X928Y605D02*
X928Y595D01*
X930Y595D01*
X930Y593D01*
X934Y593D01*
X934Y591D01*
X936Y591D01*
X936Y589D01*
X938Y589D01*
X938Y587D01*
X940Y587D01*
X940Y585D01*
X942Y585D01*
X942Y583D01*
X944Y583D01*
X944Y579D01*
X946Y579D01*
X946Y575D01*
X948Y575D01*
X948Y569D01*
X950Y569D01*
X950Y561D01*
X952Y561D01*
X952Y553D01*
X1610Y553D01*
X1610Y551D01*
X1618Y551D01*
X1618Y549D01*
X1624Y549D01*
X1624Y547D01*
X1628Y547D01*
X1628Y545D01*
X1630Y545D01*
X1630Y543D01*
X1634Y543D01*
X1634Y541D01*
X1636Y541D01*
X1636Y539D01*
X1638Y539D01*
X1638Y537D01*
X1640Y537D01*
X1640Y535D01*
X1642Y535D01*
X1642Y533D01*
X1644Y533D01*
X1644Y529D01*
X1646Y529D01*
X1646Y525D01*
X1648Y525D01*
X1648Y519D01*
X1650Y519D01*
X1650Y511D01*
X1652Y511D01*
X1652Y499D01*
X1650Y499D01*
X1650Y491D01*
X1648Y491D01*
X1648Y485D01*
X1646Y485D01*
X1646Y481D01*
X1644Y481D01*
X1644Y477D01*
X1642Y477D01*
X1642Y475D01*
X1640Y475D01*
X1640Y473D01*
X1638Y473D01*
X1638Y471D01*
X1636Y471D01*
X1636Y469D01*
X1634Y469D01*
X1634Y467D01*
X1630Y467D01*
X1630Y465D01*
X1628Y465D01*
X1628Y463D01*
X1624Y463D01*
X1624Y461D01*
X1618Y461D01*
X1618Y459D01*
X1610Y459D01*
X1610Y457D01*
X2078Y457D01*
X2078Y605D01*
X928Y605D01*
G37*
D02*
G36*
X952Y553D02*
X952Y549D01*
X950Y549D01*
X950Y541D01*
X948Y541D01*
X948Y535D01*
X946Y535D01*
X946Y531D01*
X944Y531D01*
X944Y527D01*
X942Y527D01*
X942Y525D01*
X940Y525D01*
X940Y523D01*
X938Y523D01*
X938Y521D01*
X936Y521D01*
X936Y519D01*
X934Y519D01*
X934Y517D01*
X930Y517D01*
X930Y457D01*
X1198Y457D01*
X1198Y459D01*
X1190Y459D01*
X1190Y461D01*
X1184Y461D01*
X1184Y463D01*
X1180Y463D01*
X1180Y465D01*
X1178Y465D01*
X1178Y467D01*
X1174Y467D01*
X1174Y469D01*
X1172Y469D01*
X1172Y471D01*
X1170Y471D01*
X1170Y473D01*
X1168Y473D01*
X1168Y475D01*
X1166Y475D01*
X1166Y479D01*
X1164Y479D01*
X1164Y481D01*
X1162Y481D01*
X1162Y485D01*
X1160Y485D01*
X1160Y491D01*
X1158Y491D01*
X1158Y499D01*
X1156Y499D01*
X1156Y511D01*
X1158Y511D01*
X1158Y519D01*
X1160Y519D01*
X1160Y525D01*
X1162Y525D01*
X1162Y529D01*
X1164Y529D01*
X1164Y531D01*
X1166Y531D01*
X1166Y535D01*
X1168Y535D01*
X1168Y537D01*
X1170Y537D01*
X1170Y539D01*
X1172Y539D01*
X1172Y541D01*
X1174Y541D01*
X1174Y543D01*
X1178Y543D01*
X1178Y545D01*
X1180Y545D01*
X1180Y547D01*
X1184Y547D01*
X1184Y549D01*
X1190Y549D01*
X1190Y551D01*
X1198Y551D01*
X1198Y553D01*
X952Y553D01*
G37*
D02*
G36*
X1210Y553D02*
X1210Y551D01*
X1218Y551D01*
X1218Y549D01*
X1224Y549D01*
X1224Y547D01*
X1228Y547D01*
X1228Y545D01*
X1230Y545D01*
X1230Y543D01*
X1234Y543D01*
X1234Y541D01*
X1236Y541D01*
X1236Y539D01*
X1238Y539D01*
X1238Y537D01*
X1240Y537D01*
X1240Y535D01*
X1242Y535D01*
X1242Y533D01*
X1244Y533D01*
X1244Y529D01*
X1246Y529D01*
X1246Y525D01*
X1248Y525D01*
X1248Y519D01*
X1250Y519D01*
X1250Y511D01*
X1252Y511D01*
X1252Y499D01*
X1250Y499D01*
X1250Y491D01*
X1248Y491D01*
X1248Y485D01*
X1246Y485D01*
X1246Y481D01*
X1244Y481D01*
X1244Y477D01*
X1242Y477D01*
X1242Y475D01*
X1240Y475D01*
X1240Y473D01*
X1238Y473D01*
X1238Y471D01*
X1236Y471D01*
X1236Y469D01*
X1234Y469D01*
X1234Y467D01*
X1230Y467D01*
X1230Y465D01*
X1228Y465D01*
X1228Y463D01*
X1224Y463D01*
X1224Y461D01*
X1218Y461D01*
X1218Y459D01*
X1210Y459D01*
X1210Y457D01*
X1598Y457D01*
X1598Y459D01*
X1590Y459D01*
X1590Y461D01*
X1584Y461D01*
X1584Y463D01*
X1580Y463D01*
X1580Y465D01*
X1578Y465D01*
X1578Y467D01*
X1574Y467D01*
X1574Y469D01*
X1572Y469D01*
X1572Y471D01*
X1570Y471D01*
X1570Y473D01*
X1568Y473D01*
X1568Y475D01*
X1566Y475D01*
X1566Y479D01*
X1564Y479D01*
X1564Y481D01*
X1562Y481D01*
X1562Y485D01*
X1560Y485D01*
X1560Y491D01*
X1558Y491D01*
X1558Y499D01*
X1556Y499D01*
X1556Y511D01*
X1558Y511D01*
X1558Y519D01*
X1560Y519D01*
X1560Y525D01*
X1562Y525D01*
X1562Y529D01*
X1564Y529D01*
X1564Y531D01*
X1566Y531D01*
X1566Y535D01*
X1568Y535D01*
X1568Y537D01*
X1570Y537D01*
X1570Y539D01*
X1572Y539D01*
X1572Y541D01*
X1574Y541D01*
X1574Y543D01*
X1578Y543D01*
X1578Y545D01*
X1580Y545D01*
X1580Y547D01*
X1584Y547D01*
X1584Y549D01*
X1590Y549D01*
X1590Y551D01*
X1598Y551D01*
X1598Y553D01*
X1210Y553D01*
G37*
D02*
G36*
X432Y507D02*
X432Y505D01*
X696Y505D01*
X696Y507D01*
X432Y507D01*
G37*
D02*
G36*
X432Y507D02*
X432Y505D01*
X696Y505D01*
X696Y507D01*
X432Y507D01*
G37*
D02*
G36*
X432Y505D02*
X432Y479D01*
X686Y479D01*
X686Y483D01*
X688Y483D01*
X688Y487D01*
X690Y487D01*
X690Y493D01*
X692Y493D01*
X692Y497D01*
X694Y497D01*
X694Y503D01*
X696Y503D01*
X696Y505D01*
X432Y505D01*
G37*
D02*
G36*
X930Y457D02*
X930Y455D01*
X2078Y455D01*
X2078Y457D01*
X930Y457D01*
G37*
D02*
G36*
X930Y457D02*
X930Y455D01*
X2078Y455D01*
X2078Y457D01*
X930Y457D01*
G37*
D02*
G36*
X930Y457D02*
X930Y455D01*
X2078Y455D01*
X2078Y457D01*
X930Y457D01*
G37*
D02*
G36*
X930Y455D02*
X930Y355D01*
X928Y355D01*
X928Y345D01*
X926Y345D01*
X926Y341D01*
X924Y341D01*
X924Y339D01*
X922Y339D01*
X922Y337D01*
X920Y337D01*
X920Y335D01*
X918Y335D01*
X918Y333D01*
X914Y333D01*
X914Y331D01*
X910Y331D01*
X910Y329D01*
X2078Y329D01*
X2078Y455D01*
X930Y455D01*
G37*
D02*
G36*
X40Y413D02*
X40Y329D01*
X150Y329D01*
X150Y331D01*
X144Y331D01*
X144Y333D01*
X142Y333D01*
X142Y335D01*
X138Y335D01*
X138Y337D01*
X136Y337D01*
X136Y339D01*
X134Y339D01*
X134Y341D01*
X132Y341D01*
X132Y343D01*
X130Y343D01*
X130Y345D01*
X128Y345D01*
X128Y347D01*
X126Y347D01*
X126Y349D01*
X124Y349D01*
X124Y351D01*
X122Y351D01*
X122Y353D01*
X120Y353D01*
X120Y355D01*
X118Y355D01*
X118Y357D01*
X116Y357D01*
X116Y359D01*
X114Y359D01*
X114Y361D01*
X112Y361D01*
X112Y363D01*
X110Y363D01*
X110Y365D01*
X108Y365D01*
X108Y367D01*
X106Y367D01*
X106Y369D01*
X104Y369D01*
X104Y371D01*
X100Y371D01*
X100Y373D01*
X98Y373D01*
X98Y375D01*
X96Y375D01*
X96Y377D01*
X94Y377D01*
X94Y379D01*
X92Y379D01*
X92Y381D01*
X90Y381D01*
X90Y383D01*
X88Y383D01*
X88Y385D01*
X86Y385D01*
X86Y387D01*
X84Y387D01*
X84Y389D01*
X82Y389D01*
X82Y391D01*
X80Y391D01*
X80Y393D01*
X78Y393D01*
X78Y395D01*
X76Y395D01*
X76Y397D01*
X74Y397D01*
X74Y399D01*
X72Y399D01*
X72Y401D01*
X70Y401D01*
X70Y403D01*
X68Y403D01*
X68Y405D01*
X66Y405D01*
X66Y407D01*
X64Y407D01*
X64Y409D01*
X62Y409D01*
X62Y411D01*
X60Y411D01*
X60Y413D01*
X40Y413D01*
G37*
D02*
G36*
X40Y329D02*
X40Y327D01*
X2078Y327D01*
X2078Y329D01*
X40Y329D01*
G37*
D02*
G36*
X40Y329D02*
X40Y327D01*
X2078Y327D01*
X2078Y329D01*
X40Y329D01*
G37*
D02*
G36*
X40Y327D02*
X40Y205D01*
X1202Y205D01*
X1202Y203D01*
X1204Y203D01*
X1204Y107D01*
X1202Y107D01*
X1202Y105D01*
X2078Y105D01*
X2078Y327D01*
X40Y327D01*
G37*
D02*
G36*
X40Y205D02*
X40Y203D01*
X1068Y203D01*
X1068Y201D01*
X1074Y201D01*
X1074Y199D01*
X1078Y199D01*
X1078Y197D01*
X1080Y197D01*
X1080Y195D01*
X1084Y195D01*
X1084Y193D01*
X1086Y193D01*
X1086Y191D01*
X1106Y191D01*
X1106Y205D01*
X40Y205D01*
G37*
D02*
G36*
X40Y203D02*
X40Y107D01*
X1042Y107D01*
X1042Y109D01*
X1034Y109D01*
X1034Y111D01*
X1032Y111D01*
X1032Y113D01*
X1028Y113D01*
X1028Y115D01*
X1024Y115D01*
X1024Y117D01*
X1022Y117D01*
X1022Y119D01*
X1020Y119D01*
X1020Y121D01*
X1018Y121D01*
X1018Y123D01*
X1016Y123D01*
X1016Y125D01*
X1014Y125D01*
X1014Y129D01*
X1012Y129D01*
X1012Y133D01*
X1010Y133D01*
X1010Y135D01*
X1008Y135D01*
X1008Y143D01*
X1006Y143D01*
X1006Y167D01*
X1008Y167D01*
X1008Y175D01*
X1010Y175D01*
X1010Y177D01*
X1012Y177D01*
X1012Y181D01*
X1014Y181D01*
X1014Y185D01*
X1016Y185D01*
X1016Y187D01*
X1018Y187D01*
X1018Y189D01*
X1020Y189D01*
X1020Y191D01*
X1022Y191D01*
X1022Y193D01*
X1024Y193D01*
X1024Y195D01*
X1028Y195D01*
X1028Y197D01*
X1032Y197D01*
X1032Y199D01*
X1034Y199D01*
X1034Y201D01*
X1042Y201D01*
X1042Y203D01*
X40Y203D01*
G37*
D02*
G36*
X1086Y119D02*
X1086Y117D01*
X1084Y117D01*
X1084Y115D01*
X1080Y115D01*
X1080Y113D01*
X1078Y113D01*
X1078Y111D01*
X1074Y111D01*
X1074Y109D01*
X1068Y109D01*
X1068Y107D01*
X1106Y107D01*
X1106Y119D01*
X1086Y119D01*
G37*
D02*
G36*
X40Y107D02*
X40Y105D01*
X1106Y105D01*
X1106Y107D01*
X40Y107D01*
G37*
D02*
G36*
X40Y107D02*
X40Y105D01*
X1106Y105D01*
X1106Y107D01*
X40Y107D01*
G37*
D02*
G36*
X40Y105D02*
X40Y103D01*
X2078Y103D01*
X2078Y105D01*
X40Y105D01*
G37*
D02*
G36*
X40Y105D02*
X40Y103D01*
X2078Y103D01*
X2078Y105D01*
X40Y105D01*
G37*
D02*
G36*
X40Y103D02*
X40Y41D01*
X2078Y41D01*
X2078Y103D01*
X40Y103D01*
G37*
D02*
G36*
X552Y579D02*
X584Y579D01*
X584Y536D01*
X552Y536D01*
X552Y579D01*
G37*
D02*
G36*
X154Y879D02*
X184Y879D01*
X184Y836D01*
X154Y836D01*
X154Y879D01*
G37*
D02*
G36*
X1129Y209D02*
X1174Y209D01*
X1174Y177D01*
X1129Y177D01*
X1129Y209D01*
G37*
D02*
G36*
X1129Y139D02*
X1174Y139D01*
X1174Y105D01*
X1129Y105D01*
X1129Y139D01*
G37*
D02*
G36*
X1170Y180D02*
X1204Y180D01*
X1204Y135D01*
X1170Y135D01*
X1170Y180D01*
G37*
D02*
G36*
X1129Y209D02*
X1174Y209D01*
X1174Y177D01*
X1129Y177D01*
X1129Y209D01*
G37*
D02*
G36*
X1129Y139D02*
X1174Y139D01*
X1174Y105D01*
X1129Y105D01*
X1129Y139D01*
G37*
D02*
G36*
X1170Y180D02*
X1204Y180D01*
X1204Y135D01*
X1170Y135D01*
X1170Y180D01*
G37*
D02*
G54D20*
X267Y692D02*
X340Y692D01*
X267Y691D02*
X340Y691D01*
X267Y690D02*
X340Y690D01*
X267Y689D02*
X340Y689D01*
X267Y688D02*
X340Y688D01*
X267Y687D02*
X340Y687D01*
X267Y686D02*
X340Y686D01*
X267Y685D02*
X340Y685D01*
X267Y684D02*
X340Y684D01*
X267Y683D02*
X340Y683D01*
X267Y682D02*
X340Y682D01*
X267Y681D02*
X340Y681D01*
X267Y680D02*
X340Y680D01*
X267Y679D02*
X340Y679D01*
X267Y678D02*
X340Y678D01*
X267Y677D02*
X340Y677D01*
X267Y676D02*
X340Y676D01*
X267Y675D02*
X298Y675D01*
X310Y675D02*
X340Y675D01*
X267Y674D02*
X295Y674D01*
X312Y674D02*
X340Y674D01*
X267Y673D02*
X293Y673D01*
X314Y673D02*
X340Y673D01*
X267Y672D02*
X291Y672D01*
X316Y672D02*
X340Y672D01*
X267Y671D02*
X290Y671D01*
X317Y671D02*
X340Y671D01*
X267Y670D02*
X289Y670D01*
X318Y670D02*
X340Y670D01*
X267Y669D02*
X288Y669D01*
X319Y669D02*
X340Y669D01*
X267Y668D02*
X287Y668D01*
X320Y668D02*
X340Y668D01*
X267Y667D02*
X287Y667D01*
X321Y667D02*
X340Y667D01*
X267Y666D02*
X286Y666D01*
X321Y666D02*
X340Y666D01*
X267Y665D02*
X285Y665D01*
X322Y665D02*
X340Y665D01*
X267Y664D02*
X285Y664D01*
X322Y664D02*
X340Y664D01*
X267Y663D02*
X284Y663D01*
X323Y663D02*
X340Y663D01*
X267Y662D02*
X284Y662D01*
X323Y662D02*
X340Y662D01*
X267Y661D02*
X284Y661D01*
X323Y661D02*
X340Y661D01*
X267Y660D02*
X284Y660D01*
X324Y660D02*
X340Y660D01*
X267Y659D02*
X283Y659D01*
X324Y659D02*
X340Y659D01*
X267Y658D02*
X283Y658D01*
X324Y658D02*
X340Y658D01*
X267Y657D02*
X283Y657D01*
X324Y657D02*
X340Y657D01*
X267Y656D02*
X283Y656D01*
X324Y656D02*
X340Y656D01*
X267Y655D02*
X283Y655D01*
X324Y655D02*
X340Y655D01*
X267Y654D02*
X283Y654D01*
X324Y654D02*
X340Y654D01*
X267Y653D02*
X283Y653D01*
X324Y653D02*
X340Y653D01*
X267Y652D02*
X283Y652D01*
X324Y652D02*
X340Y652D01*
X267Y651D02*
X284Y651D01*
X323Y651D02*
X340Y651D01*
X267Y650D02*
X284Y650D01*
X323Y650D02*
X340Y650D01*
X267Y649D02*
X284Y649D01*
X323Y649D02*
X340Y649D01*
X267Y648D02*
X285Y648D01*
X322Y648D02*
X340Y648D01*
X267Y647D02*
X285Y647D01*
X322Y647D02*
X340Y647D01*
X267Y646D02*
X286Y646D01*
X321Y646D02*
X340Y646D01*
X267Y645D02*
X286Y645D01*
X321Y645D02*
X340Y645D01*
X267Y644D02*
X287Y644D01*
X320Y644D02*
X340Y644D01*
X267Y643D02*
X288Y643D01*
X319Y643D02*
X340Y643D01*
X267Y642D02*
X289Y642D01*
X318Y642D02*
X340Y642D01*
X267Y641D02*
X290Y641D01*
X317Y641D02*
X340Y641D01*
X267Y640D02*
X291Y640D01*
X316Y640D02*
X340Y640D01*
X267Y639D02*
X292Y639D01*
X315Y639D02*
X340Y639D01*
X267Y638D02*
X294Y638D01*
X313Y638D02*
X340Y638D01*
X267Y637D02*
X297Y637D01*
X310Y637D02*
X340Y637D01*
X267Y636D02*
X302Y636D01*
X305Y636D02*
X340Y636D01*
X267Y635D02*
X340Y635D01*
X267Y634D02*
X340Y634D01*
X267Y633D02*
X340Y633D01*
X267Y632D02*
X340Y632D01*
X267Y631D02*
X340Y631D01*
X267Y630D02*
X340Y630D01*
X267Y629D02*
X340Y629D01*
X267Y628D02*
X340Y628D01*
X267Y627D02*
X340Y627D01*
X267Y626D02*
X340Y626D01*
X267Y625D02*
X340Y625D01*
X267Y624D02*
X340Y624D01*
X267Y623D02*
X340Y623D01*
X267Y622D02*
X340Y622D01*
X267Y621D02*
X340Y621D01*
X267Y620D02*
X340Y620D01*
X267Y619D02*
X340Y619D01*
D02*
G04 End of Copper0*
M02*