G04 MADE WITH FRITZING*
G04 WWW.FRITZING.ORG*
G04 DOUBLE SIDED*
G04 HOLES PLATED*
G04 CONTOUR ON CENTER OF CONTOUR VECTOR*
%ASAXBY*%
%FSLAX23Y23*%
%MOIN*%
%OFA0B0*%
%SFA1.0B1.0*%
%ADD10C,0.023361*%
%ADD11R,0.309167X0.027778*%
%ADD12R,2.119130X3.235450X2.103130X3.219450*%
%ADD13C,0.008000*%
%ADD14R,0.001000X0.001000*%
%LNSILK0*%
G90*
G70*
G54D10*
X1872Y232D03*
G54D11*
X1861Y144D03*
G54D13*
X4Y3231D02*
X2115Y3231D01*
X2115Y4D01*
X4Y4D01*
X4Y3231D01*
D02*
G54D14*
X1867Y2266D02*
X1871Y2266D01*
X1905Y2266D02*
X1935Y2266D01*
X1866Y2265D02*
X1872Y2265D01*
X1903Y2265D02*
X1937Y2265D01*
X1865Y2264D02*
X1873Y2264D01*
X1902Y2264D02*
X1938Y2264D01*
X1865Y2263D02*
X1873Y2263D01*
X1901Y2263D02*
X1939Y2263D01*
X1865Y2262D02*
X1874Y2262D01*
X1900Y2262D02*
X1940Y2262D01*
X1865Y2261D02*
X1874Y2261D01*
X1900Y2261D02*
X1941Y2261D01*
X1865Y2260D02*
X1874Y2260D01*
X1899Y2260D02*
X1941Y2260D01*
X1865Y2259D02*
X1874Y2259D01*
X1899Y2259D02*
X1941Y2259D01*
X1865Y2258D02*
X1874Y2258D01*
X1899Y2258D02*
X1941Y2258D01*
X1865Y2257D02*
X1874Y2257D01*
X1899Y2257D02*
X1942Y2257D01*
X1865Y2256D02*
X1874Y2256D01*
X1899Y2256D02*
X1908Y2256D01*
X1932Y2256D02*
X1942Y2256D01*
X1865Y2255D02*
X1874Y2255D01*
X1899Y2255D02*
X1908Y2255D01*
X1932Y2255D02*
X1942Y2255D01*
X1865Y2254D02*
X1874Y2254D01*
X1899Y2254D02*
X1908Y2254D01*
X1932Y2254D02*
X1942Y2254D01*
X1865Y2253D02*
X1874Y2253D01*
X1899Y2253D02*
X1908Y2253D01*
X1932Y2253D02*
X1942Y2253D01*
X1865Y2252D02*
X1874Y2252D01*
X1899Y2252D02*
X1908Y2252D01*
X1932Y2252D02*
X1942Y2252D01*
X1865Y2251D02*
X1874Y2251D01*
X1899Y2251D02*
X1908Y2251D01*
X1932Y2251D02*
X1942Y2251D01*
X1865Y2250D02*
X1874Y2250D01*
X1899Y2250D02*
X1908Y2250D01*
X1932Y2250D02*
X1942Y2250D01*
X1865Y2249D02*
X1874Y2249D01*
X1899Y2249D02*
X1908Y2249D01*
X1932Y2249D02*
X1942Y2249D01*
X1865Y2248D02*
X1874Y2248D01*
X1899Y2248D02*
X1908Y2248D01*
X1932Y2248D02*
X1942Y2248D01*
X1865Y2247D02*
X1874Y2247D01*
X1899Y2247D02*
X1908Y2247D01*
X1932Y2247D02*
X1942Y2247D01*
X1865Y2246D02*
X1874Y2246D01*
X1899Y2246D02*
X1908Y2246D01*
X1932Y2246D02*
X1942Y2246D01*
X1865Y2245D02*
X1874Y2245D01*
X1899Y2245D02*
X1908Y2245D01*
X1932Y2245D02*
X1942Y2245D01*
X1865Y2244D02*
X1874Y2244D01*
X1899Y2244D02*
X1908Y2244D01*
X1932Y2244D02*
X1942Y2244D01*
X1865Y2243D02*
X1874Y2243D01*
X1899Y2243D02*
X1908Y2243D01*
X1932Y2243D02*
X1942Y2243D01*
X1865Y2242D02*
X1874Y2242D01*
X1899Y2242D02*
X1908Y2242D01*
X1932Y2242D02*
X1942Y2242D01*
X1865Y2241D02*
X1874Y2241D01*
X1899Y2241D02*
X1908Y2241D01*
X1932Y2241D02*
X1942Y2241D01*
X1865Y2240D02*
X1874Y2240D01*
X1899Y2240D02*
X1908Y2240D01*
X1932Y2240D02*
X1942Y2240D01*
X1865Y2239D02*
X1874Y2239D01*
X1899Y2239D02*
X1908Y2239D01*
X1932Y2239D02*
X1942Y2239D01*
X1865Y2238D02*
X1874Y2238D01*
X1899Y2238D02*
X1908Y2238D01*
X1932Y2238D02*
X1942Y2238D01*
X1865Y2237D02*
X1874Y2237D01*
X1899Y2237D02*
X1908Y2237D01*
X1932Y2237D02*
X1942Y2237D01*
X1865Y2236D02*
X1874Y2236D01*
X1899Y2236D02*
X1908Y2236D01*
X1932Y2236D02*
X1942Y2236D01*
X1865Y2235D02*
X1874Y2235D01*
X1899Y2235D02*
X1908Y2235D01*
X1932Y2235D02*
X1942Y2235D01*
X1865Y2234D02*
X1874Y2234D01*
X1899Y2234D02*
X1908Y2234D01*
X1932Y2234D02*
X1942Y2234D01*
X1865Y2233D02*
X1874Y2233D01*
X1899Y2233D02*
X1908Y2233D01*
X1932Y2233D02*
X1942Y2233D01*
X1865Y2232D02*
X1874Y2232D01*
X1899Y2232D02*
X1908Y2232D01*
X1932Y2232D02*
X1942Y2232D01*
X1865Y2231D02*
X1874Y2231D01*
X1899Y2231D02*
X1908Y2231D01*
X1932Y2231D02*
X1942Y2231D01*
X1865Y2230D02*
X1874Y2230D01*
X1899Y2230D02*
X1908Y2230D01*
X1932Y2230D02*
X1942Y2230D01*
X1865Y2229D02*
X1874Y2229D01*
X1899Y2229D02*
X1908Y2229D01*
X1932Y2229D02*
X1942Y2229D01*
X1865Y2228D02*
X1874Y2228D01*
X1899Y2228D02*
X1908Y2228D01*
X1932Y2228D02*
X1942Y2228D01*
X1865Y2227D02*
X1908Y2227D01*
X1932Y2227D02*
X1942Y2227D01*
X1865Y2226D02*
X1907Y2226D01*
X1932Y2226D02*
X1942Y2226D01*
X1865Y2225D02*
X1907Y2225D01*
X1932Y2225D02*
X1942Y2225D01*
X1865Y2224D02*
X1907Y2224D01*
X1932Y2224D02*
X1942Y2224D01*
X1865Y2223D02*
X1907Y2223D01*
X1932Y2223D02*
X1942Y2223D01*
X1865Y2222D02*
X1906Y2222D01*
X1932Y2222D02*
X1942Y2222D01*
X1865Y2221D02*
X1905Y2221D01*
X1933Y2221D02*
X1941Y2221D01*
X1865Y2220D02*
X1905Y2220D01*
X1933Y2220D02*
X1941Y2220D01*
X1865Y2219D02*
X1903Y2219D01*
X1934Y2219D02*
X1940Y2219D01*
X1865Y2218D02*
X1902Y2218D01*
X1935Y2218D02*
X1939Y2218D01*
X1867Y2194D02*
X1871Y2194D01*
X1905Y2194D02*
X1935Y2194D01*
X1866Y2193D02*
X1872Y2193D01*
X1903Y2193D02*
X1937Y2193D01*
X1865Y2192D02*
X1873Y2192D01*
X1902Y2192D02*
X1938Y2192D01*
X1865Y2191D02*
X1873Y2191D01*
X1901Y2191D02*
X1939Y2191D01*
X1865Y2190D02*
X1874Y2190D01*
X1900Y2190D02*
X1940Y2190D01*
X1865Y2189D02*
X1874Y2189D01*
X1900Y2189D02*
X1940Y2189D01*
X1865Y2188D02*
X1874Y2188D01*
X1899Y2188D02*
X1941Y2188D01*
X1865Y2187D02*
X1874Y2187D01*
X1899Y2187D02*
X1941Y2187D01*
X1865Y2186D02*
X1874Y2186D01*
X1899Y2186D02*
X1941Y2186D01*
X1865Y2185D02*
X1874Y2185D01*
X1899Y2185D02*
X1941Y2185D01*
X1865Y2184D02*
X1874Y2184D01*
X1899Y2184D02*
X1908Y2184D01*
X1932Y2184D02*
X1942Y2184D01*
X1865Y2183D02*
X1874Y2183D01*
X1899Y2183D02*
X1908Y2183D01*
X1932Y2183D02*
X1942Y2183D01*
X1865Y2182D02*
X1874Y2182D01*
X1899Y2182D02*
X1908Y2182D01*
X1932Y2182D02*
X1942Y2182D01*
X1865Y2181D02*
X1874Y2181D01*
X1899Y2181D02*
X1908Y2181D01*
X1932Y2181D02*
X1942Y2181D01*
X1865Y2180D02*
X1874Y2180D01*
X1899Y2180D02*
X1908Y2180D01*
X1932Y2180D02*
X1942Y2180D01*
X1865Y2179D02*
X1874Y2179D01*
X1899Y2179D02*
X1908Y2179D01*
X1932Y2179D02*
X1942Y2179D01*
X1865Y2178D02*
X1874Y2178D01*
X1899Y2178D02*
X1908Y2178D01*
X1932Y2178D02*
X1942Y2178D01*
X1865Y2177D02*
X1874Y2177D01*
X1899Y2177D02*
X1908Y2177D01*
X1932Y2177D02*
X1942Y2177D01*
X1865Y2176D02*
X1874Y2176D01*
X1899Y2176D02*
X1908Y2176D01*
X1932Y2176D02*
X1942Y2176D01*
X1865Y2175D02*
X1874Y2175D01*
X1899Y2175D02*
X1908Y2175D01*
X1932Y2175D02*
X1942Y2175D01*
X1865Y2174D02*
X1874Y2174D01*
X1899Y2174D02*
X1908Y2174D01*
X1932Y2174D02*
X1942Y2174D01*
X1865Y2173D02*
X1874Y2173D01*
X1899Y2173D02*
X1908Y2173D01*
X1932Y2173D02*
X1942Y2173D01*
X1865Y2172D02*
X1874Y2172D01*
X1899Y2172D02*
X1908Y2172D01*
X1932Y2172D02*
X1942Y2172D01*
X1865Y2171D02*
X1874Y2171D01*
X1899Y2171D02*
X1908Y2171D01*
X1932Y2171D02*
X1942Y2171D01*
X1865Y2170D02*
X1874Y2170D01*
X1899Y2170D02*
X1908Y2170D01*
X1932Y2170D02*
X1942Y2170D01*
X1865Y2169D02*
X1874Y2169D01*
X1899Y2169D02*
X1908Y2169D01*
X1932Y2169D02*
X1942Y2169D01*
X1865Y2168D02*
X1874Y2168D01*
X1899Y2168D02*
X1908Y2168D01*
X1932Y2168D02*
X1942Y2168D01*
X1865Y2167D02*
X1874Y2167D01*
X1899Y2167D02*
X1908Y2167D01*
X1932Y2167D02*
X1942Y2167D01*
X1865Y2166D02*
X1874Y2166D01*
X1899Y2166D02*
X1908Y2166D01*
X1932Y2166D02*
X1942Y2166D01*
X1865Y2165D02*
X1874Y2165D01*
X1899Y2165D02*
X1908Y2165D01*
X1932Y2165D02*
X1942Y2165D01*
X1865Y2164D02*
X1874Y2164D01*
X1899Y2164D02*
X1908Y2164D01*
X1932Y2164D02*
X1942Y2164D01*
X1865Y2163D02*
X1874Y2163D01*
X1899Y2163D02*
X1908Y2163D01*
X1932Y2163D02*
X1942Y2163D01*
X1865Y2162D02*
X1874Y2162D01*
X1899Y2162D02*
X1908Y2162D01*
X1932Y2162D02*
X1942Y2162D01*
X1865Y2161D02*
X1874Y2161D01*
X1899Y2161D02*
X1908Y2161D01*
X1932Y2161D02*
X1942Y2161D01*
X1865Y2160D02*
X1874Y2160D01*
X1899Y2160D02*
X1908Y2160D01*
X1932Y2160D02*
X1942Y2160D01*
X1865Y2159D02*
X1874Y2159D01*
X1899Y2159D02*
X1908Y2159D01*
X1932Y2159D02*
X1942Y2159D01*
X1865Y2158D02*
X1874Y2158D01*
X1899Y2158D02*
X1908Y2158D01*
X1932Y2158D02*
X1942Y2158D01*
X1865Y2157D02*
X1874Y2157D01*
X1899Y2157D02*
X1908Y2157D01*
X1932Y2157D02*
X1942Y2157D01*
X1865Y2156D02*
X1874Y2156D01*
X1899Y2156D02*
X1908Y2156D01*
X1932Y2156D02*
X1942Y2156D01*
X1865Y2155D02*
X1874Y2155D01*
X1898Y2155D02*
X1908Y2155D01*
X1932Y2155D02*
X1942Y2155D01*
X1865Y2154D02*
X1907Y2154D01*
X1932Y2154D02*
X1942Y2154D01*
X1865Y2153D02*
X1907Y2153D01*
X1932Y2153D02*
X1942Y2153D01*
X1865Y2152D02*
X1907Y2152D01*
X1932Y2152D02*
X1942Y2152D01*
X1865Y2151D02*
X1907Y2151D01*
X1932Y2151D02*
X1942Y2151D01*
X1865Y2150D02*
X1906Y2150D01*
X1932Y2150D02*
X1942Y2150D01*
X1865Y2149D02*
X1906Y2149D01*
X1933Y2149D02*
X1941Y2149D01*
X1865Y2148D02*
X1905Y2148D01*
X1933Y2148D02*
X1941Y2148D01*
X1865Y2147D02*
X1904Y2147D01*
X1933Y2147D02*
X1941Y2147D01*
X1865Y2146D02*
X1902Y2146D01*
X1934Y2146D02*
X1940Y2146D01*
X1865Y2145D02*
X1900Y2145D01*
X1936Y2145D02*
X1938Y2145D01*
X1873Y2122D02*
X1934Y2122D01*
X1870Y2121D02*
X1936Y2121D01*
X1868Y2120D02*
X1938Y2120D01*
X1867Y2119D02*
X1939Y2119D01*
X1867Y2118D02*
X1940Y2118D01*
X1866Y2117D02*
X1940Y2117D01*
X1865Y2116D02*
X1941Y2116D01*
X1865Y2115D02*
X1941Y2115D01*
X1865Y2114D02*
X1941Y2114D01*
X1865Y2113D02*
X1941Y2113D01*
X1865Y2112D02*
X1874Y2112D01*
X1932Y2112D02*
X1942Y2112D01*
X1865Y2111D02*
X1874Y2111D01*
X1932Y2111D02*
X1942Y2111D01*
X1865Y2110D02*
X1874Y2110D01*
X1932Y2110D02*
X1942Y2110D01*
X1865Y2109D02*
X1874Y2109D01*
X1932Y2109D02*
X1942Y2109D01*
X1865Y2108D02*
X1874Y2108D01*
X1932Y2108D02*
X1942Y2108D01*
X1865Y2107D02*
X1874Y2107D01*
X1932Y2107D02*
X1942Y2107D01*
X1865Y2106D02*
X1874Y2106D01*
X1932Y2106D02*
X1942Y2106D01*
X1865Y2105D02*
X1874Y2105D01*
X1932Y2105D02*
X1942Y2105D01*
X1865Y2104D02*
X1874Y2104D01*
X1932Y2104D02*
X1942Y2104D01*
X1865Y2103D02*
X1874Y2103D01*
X1932Y2103D02*
X1942Y2103D01*
X1865Y2102D02*
X1874Y2102D01*
X1932Y2102D02*
X1942Y2102D01*
X1865Y2101D02*
X1874Y2101D01*
X1932Y2101D02*
X1942Y2101D01*
X1865Y2100D02*
X1874Y2100D01*
X1932Y2100D02*
X1942Y2100D01*
X1865Y2099D02*
X1874Y2099D01*
X1932Y2099D02*
X1942Y2099D01*
X1865Y2098D02*
X1874Y2098D01*
X1932Y2098D02*
X1942Y2098D01*
X1865Y2097D02*
X1874Y2097D01*
X1932Y2097D02*
X1942Y2097D01*
X1865Y2096D02*
X1874Y2096D01*
X1932Y2096D02*
X1942Y2096D01*
X1865Y2095D02*
X1874Y2095D01*
X1932Y2095D02*
X1942Y2095D01*
X1865Y2094D02*
X1874Y2094D01*
X1932Y2094D02*
X1942Y2094D01*
X1865Y2093D02*
X1874Y2093D01*
X1932Y2093D02*
X1942Y2093D01*
X1865Y2092D02*
X1874Y2092D01*
X1932Y2092D02*
X1942Y2092D01*
X1865Y2091D02*
X1874Y2091D01*
X1932Y2091D02*
X1942Y2091D01*
X1865Y2090D02*
X1874Y2090D01*
X1932Y2090D02*
X1942Y2090D01*
X1865Y2089D02*
X1874Y2089D01*
X1932Y2089D02*
X1942Y2089D01*
X1865Y2088D02*
X1874Y2088D01*
X1932Y2088D02*
X1942Y2088D01*
X1865Y2087D02*
X1874Y2087D01*
X1932Y2087D02*
X1942Y2087D01*
X1865Y2086D02*
X1874Y2086D01*
X1932Y2086D02*
X1942Y2086D01*
X1865Y2085D02*
X1874Y2085D01*
X1932Y2085D02*
X1942Y2085D01*
X1865Y2084D02*
X1874Y2084D01*
X1932Y2084D02*
X1942Y2084D01*
X1865Y2083D02*
X1874Y2083D01*
X1932Y2083D02*
X1942Y2083D01*
X1865Y2082D02*
X1941Y2082D01*
X1865Y2081D02*
X1941Y2081D01*
X1865Y2080D02*
X1941Y2080D01*
X1865Y2079D02*
X1941Y2079D01*
X1866Y2078D02*
X1940Y2078D01*
X1866Y2077D02*
X1940Y2077D01*
X1867Y2076D02*
X1939Y2076D01*
X1868Y2075D02*
X1938Y2075D01*
X1869Y2074D02*
X1937Y2074D01*
X1871Y2073D02*
X1935Y2073D01*
X1867Y2049D02*
X1871Y2049D01*
X1904Y2049D02*
X1936Y2049D01*
X1866Y2048D02*
X1872Y2048D01*
X1903Y2048D02*
X1937Y2048D01*
X1865Y2047D02*
X1873Y2047D01*
X1902Y2047D02*
X1938Y2047D01*
X1865Y2046D02*
X1873Y2046D01*
X1901Y2046D02*
X1939Y2046D01*
X1865Y2045D02*
X1874Y2045D01*
X1900Y2045D02*
X1940Y2045D01*
X1865Y2044D02*
X1874Y2044D01*
X1899Y2044D02*
X1941Y2044D01*
X1865Y2043D02*
X1874Y2043D01*
X1899Y2043D02*
X1941Y2043D01*
X1865Y2042D02*
X1874Y2042D01*
X1899Y2042D02*
X1941Y2042D01*
X1865Y2041D02*
X1874Y2041D01*
X1899Y2041D02*
X1941Y2041D01*
X1865Y2040D02*
X1874Y2040D01*
X1899Y2040D02*
X1942Y2040D01*
X1865Y2039D02*
X1874Y2039D01*
X1899Y2039D02*
X1908Y2039D01*
X1932Y2039D02*
X1942Y2039D01*
X1865Y2038D02*
X1874Y2038D01*
X1899Y2038D02*
X1908Y2038D01*
X1932Y2038D02*
X1942Y2038D01*
X1865Y2037D02*
X1874Y2037D01*
X1899Y2037D02*
X1908Y2037D01*
X1932Y2037D02*
X1942Y2037D01*
X1865Y2036D02*
X1874Y2036D01*
X1899Y2036D02*
X1908Y2036D01*
X1932Y2036D02*
X1942Y2036D01*
X1865Y2035D02*
X1874Y2035D01*
X1899Y2035D02*
X1908Y2035D01*
X1932Y2035D02*
X1942Y2035D01*
X1865Y2034D02*
X1874Y2034D01*
X1899Y2034D02*
X1908Y2034D01*
X1932Y2034D02*
X1942Y2034D01*
X1865Y2033D02*
X1874Y2033D01*
X1899Y2033D02*
X1908Y2033D01*
X1932Y2033D02*
X1942Y2033D01*
X1865Y2032D02*
X1874Y2032D01*
X1899Y2032D02*
X1908Y2032D01*
X1932Y2032D02*
X1942Y2032D01*
X1865Y2031D02*
X1874Y2031D01*
X1899Y2031D02*
X1908Y2031D01*
X1932Y2031D02*
X1942Y2031D01*
X1865Y2030D02*
X1874Y2030D01*
X1899Y2030D02*
X1908Y2030D01*
X1932Y2030D02*
X1942Y2030D01*
X1865Y2029D02*
X1874Y2029D01*
X1899Y2029D02*
X1908Y2029D01*
X1932Y2029D02*
X1942Y2029D01*
X1865Y2028D02*
X1874Y2028D01*
X1899Y2028D02*
X1908Y2028D01*
X1932Y2028D02*
X1942Y2028D01*
X1865Y2027D02*
X1874Y2027D01*
X1899Y2027D02*
X1908Y2027D01*
X1932Y2027D02*
X1942Y2027D01*
X1865Y2026D02*
X1874Y2026D01*
X1899Y2026D02*
X1908Y2026D01*
X1932Y2026D02*
X1942Y2026D01*
X1865Y2025D02*
X1874Y2025D01*
X1899Y2025D02*
X1908Y2025D01*
X1932Y2025D02*
X1942Y2025D01*
X1865Y2024D02*
X1874Y2024D01*
X1899Y2024D02*
X1908Y2024D01*
X1932Y2024D02*
X1942Y2024D01*
X1865Y2023D02*
X1874Y2023D01*
X1899Y2023D02*
X1908Y2023D01*
X1932Y2023D02*
X1942Y2023D01*
X1865Y2022D02*
X1874Y2022D01*
X1899Y2022D02*
X1908Y2022D01*
X1932Y2022D02*
X1942Y2022D01*
X1865Y2021D02*
X1874Y2021D01*
X1899Y2021D02*
X1908Y2021D01*
X1932Y2021D02*
X1942Y2021D01*
X1865Y2020D02*
X1874Y2020D01*
X1899Y2020D02*
X1908Y2020D01*
X1932Y2020D02*
X1942Y2020D01*
X1865Y2019D02*
X1874Y2019D01*
X1899Y2019D02*
X1908Y2019D01*
X1932Y2019D02*
X1942Y2019D01*
X1865Y2018D02*
X1874Y2018D01*
X1899Y2018D02*
X1908Y2018D01*
X1932Y2018D02*
X1942Y2018D01*
X1865Y2017D02*
X1874Y2017D01*
X1899Y2017D02*
X1908Y2017D01*
X1932Y2017D02*
X1942Y2017D01*
X1865Y2016D02*
X1874Y2016D01*
X1899Y2016D02*
X1908Y2016D01*
X1932Y2016D02*
X1942Y2016D01*
X1865Y2015D02*
X1874Y2015D01*
X1899Y2015D02*
X1908Y2015D01*
X1932Y2015D02*
X1942Y2015D01*
X1865Y2014D02*
X1874Y2014D01*
X1899Y2014D02*
X1908Y2014D01*
X1932Y2014D02*
X1942Y2014D01*
X1865Y2013D02*
X1874Y2013D01*
X1899Y2013D02*
X1908Y2013D01*
X1932Y2013D02*
X1942Y2013D01*
X1865Y2012D02*
X1874Y2012D01*
X1899Y2012D02*
X1908Y2012D01*
X1932Y2012D02*
X1942Y2012D01*
X1865Y2011D02*
X1874Y2011D01*
X1899Y2011D02*
X1908Y2011D01*
X1932Y2011D02*
X1942Y2011D01*
X1865Y2010D02*
X1908Y2010D01*
X1932Y2010D02*
X1942Y2010D01*
X1865Y2009D02*
X1907Y2009D01*
X1932Y2009D02*
X1942Y2009D01*
X1865Y2008D02*
X1907Y2008D01*
X1932Y2008D02*
X1942Y2008D01*
X1865Y2007D02*
X1907Y2007D01*
X1932Y2007D02*
X1942Y2007D01*
X1865Y2006D02*
X1907Y2006D01*
X1932Y2006D02*
X1942Y2006D01*
X1865Y2005D02*
X1906Y2005D01*
X1932Y2005D02*
X1942Y2005D01*
X1865Y2004D02*
X1905Y2004D01*
X1933Y2004D02*
X1941Y2004D01*
X1865Y2003D02*
X1904Y2003D01*
X1933Y2003D02*
X1941Y2003D01*
X1865Y2002D02*
X1903Y2002D01*
X1934Y2002D02*
X1940Y2002D01*
X1865Y2001D02*
X1901Y2001D01*
X1935Y2001D02*
X1939Y2001D01*
X1880Y1787D02*
X1893Y1787D01*
X1914Y1787D02*
X1926Y1787D01*
X1877Y1786D02*
X1895Y1786D01*
X1911Y1786D02*
X1929Y1786D01*
X1875Y1785D02*
X1897Y1785D01*
X1909Y1785D02*
X1931Y1785D01*
X1873Y1784D02*
X1899Y1784D01*
X1907Y1784D02*
X1933Y1784D01*
X1872Y1783D02*
X1900Y1783D01*
X1906Y1783D02*
X1934Y1783D01*
X1871Y1782D02*
X1901Y1782D01*
X1905Y1782D02*
X1935Y1782D01*
X1870Y1781D02*
X1902Y1781D01*
X1904Y1781D02*
X1936Y1781D01*
X1869Y1780D02*
X1937Y1780D01*
X1868Y1779D02*
X1938Y1779D01*
X1868Y1778D02*
X1938Y1778D01*
X1867Y1777D02*
X1880Y1777D01*
X1892Y1777D02*
X1914Y1777D01*
X1926Y1777D02*
X1939Y1777D01*
X1867Y1776D02*
X1878Y1776D01*
X1894Y1776D02*
X1912Y1776D01*
X1928Y1776D02*
X1940Y1776D01*
X1866Y1775D02*
X1877Y1775D01*
X1895Y1775D02*
X1911Y1775D01*
X1929Y1775D02*
X1940Y1775D01*
X1866Y1774D02*
X1876Y1774D01*
X1896Y1774D02*
X1910Y1774D01*
X1930Y1774D02*
X1940Y1774D01*
X1865Y1773D02*
X1875Y1773D01*
X1897Y1773D02*
X1909Y1773D01*
X1931Y1773D02*
X1941Y1773D01*
X1865Y1772D02*
X1875Y1772D01*
X1897Y1772D02*
X1909Y1772D01*
X1931Y1772D02*
X1941Y1772D01*
X1865Y1771D02*
X1874Y1771D01*
X1898Y1771D02*
X1908Y1771D01*
X1932Y1771D02*
X1941Y1771D01*
X1865Y1770D02*
X1874Y1770D01*
X1898Y1770D02*
X1908Y1770D01*
X1932Y1770D02*
X1941Y1770D01*
X1865Y1769D02*
X1874Y1769D01*
X1898Y1769D02*
X1908Y1769D01*
X1932Y1769D02*
X1941Y1769D01*
X1865Y1768D02*
X1874Y1768D01*
X1898Y1768D02*
X1908Y1768D01*
X1932Y1768D02*
X1941Y1768D01*
X1865Y1767D02*
X1874Y1767D01*
X1899Y1767D02*
X1908Y1767D01*
X1932Y1767D02*
X1942Y1767D01*
X1865Y1766D02*
X1874Y1766D01*
X1899Y1766D02*
X1908Y1766D01*
X1932Y1766D02*
X1942Y1766D01*
X1865Y1765D02*
X1874Y1765D01*
X1899Y1765D02*
X1908Y1765D01*
X1932Y1765D02*
X1942Y1765D01*
X1865Y1764D02*
X1874Y1764D01*
X1899Y1764D02*
X1908Y1764D01*
X1932Y1764D02*
X1942Y1764D01*
X1865Y1763D02*
X1874Y1763D01*
X1899Y1763D02*
X1908Y1763D01*
X1932Y1763D02*
X1942Y1763D01*
X1865Y1762D02*
X1874Y1762D01*
X1899Y1762D02*
X1908Y1762D01*
X1932Y1762D02*
X1942Y1762D01*
X1865Y1761D02*
X1874Y1761D01*
X1899Y1761D02*
X1908Y1761D01*
X1932Y1761D02*
X1942Y1761D01*
X1865Y1760D02*
X1874Y1760D01*
X1899Y1760D02*
X1908Y1760D01*
X1932Y1760D02*
X1942Y1760D01*
X1865Y1759D02*
X1874Y1759D01*
X1899Y1759D02*
X1908Y1759D01*
X1932Y1759D02*
X1942Y1759D01*
X1865Y1758D02*
X1874Y1758D01*
X1899Y1758D02*
X1908Y1758D01*
X1932Y1758D02*
X1942Y1758D01*
X1865Y1757D02*
X1874Y1757D01*
X1899Y1757D02*
X1908Y1757D01*
X1932Y1757D02*
X1942Y1757D01*
X1865Y1756D02*
X1874Y1756D01*
X1899Y1756D02*
X1908Y1756D01*
X1932Y1756D02*
X1942Y1756D01*
X1865Y1755D02*
X1874Y1755D01*
X1899Y1755D02*
X1908Y1755D01*
X1932Y1755D02*
X1942Y1755D01*
X1865Y1754D02*
X1874Y1754D01*
X1899Y1754D02*
X1908Y1754D01*
X1932Y1754D02*
X1942Y1754D01*
X1865Y1753D02*
X1874Y1753D01*
X1899Y1753D02*
X1908Y1753D01*
X1932Y1753D02*
X1942Y1753D01*
X1865Y1752D02*
X1874Y1752D01*
X1899Y1752D02*
X1908Y1752D01*
X1932Y1752D02*
X1942Y1752D01*
X1865Y1751D02*
X1874Y1751D01*
X1899Y1751D02*
X1908Y1751D01*
X1932Y1751D02*
X1942Y1751D01*
X1865Y1750D02*
X1874Y1750D01*
X1899Y1750D02*
X1908Y1750D01*
X1932Y1750D02*
X1942Y1750D01*
X1865Y1749D02*
X1874Y1749D01*
X1899Y1749D02*
X1908Y1749D01*
X1932Y1749D02*
X1942Y1749D01*
X1865Y1748D02*
X1942Y1748D01*
X1865Y1747D02*
X1942Y1747D01*
X1865Y1746D02*
X1942Y1746D01*
X1865Y1745D02*
X1942Y1745D01*
X1865Y1744D02*
X1942Y1744D01*
X1865Y1743D02*
X1942Y1743D01*
X1865Y1742D02*
X1942Y1742D01*
X1865Y1741D02*
X1942Y1741D01*
X1865Y1740D02*
X1942Y1740D01*
X1865Y1739D02*
X1942Y1739D01*
X1865Y1738D02*
X1941Y1738D01*
X1868Y1715D02*
X1870Y1715D01*
X1936Y1715D02*
X1938Y1715D01*
X1866Y1714D02*
X1872Y1714D01*
X1934Y1714D02*
X1940Y1714D01*
X1865Y1713D02*
X1873Y1713D01*
X1933Y1713D02*
X1941Y1713D01*
X1865Y1712D02*
X1873Y1712D01*
X1933Y1712D02*
X1941Y1712D01*
X1865Y1711D02*
X1874Y1711D01*
X1933Y1711D02*
X1941Y1711D01*
X1865Y1710D02*
X1874Y1710D01*
X1932Y1710D02*
X1942Y1710D01*
X1865Y1709D02*
X1874Y1709D01*
X1932Y1709D02*
X1942Y1709D01*
X1865Y1708D02*
X1874Y1708D01*
X1932Y1708D02*
X1942Y1708D01*
X1865Y1707D02*
X1874Y1707D01*
X1932Y1707D02*
X1942Y1707D01*
X1865Y1706D02*
X1874Y1706D01*
X1932Y1706D02*
X1942Y1706D01*
X1865Y1705D02*
X1874Y1705D01*
X1932Y1705D02*
X1942Y1705D01*
X1865Y1704D02*
X1874Y1704D01*
X1932Y1704D02*
X1942Y1704D01*
X1865Y1703D02*
X1874Y1703D01*
X1932Y1703D02*
X1942Y1703D01*
X1865Y1702D02*
X1874Y1702D01*
X1932Y1702D02*
X1942Y1702D01*
X1865Y1701D02*
X1874Y1701D01*
X1932Y1701D02*
X1942Y1701D01*
X1865Y1700D02*
X1874Y1700D01*
X1932Y1700D02*
X1942Y1700D01*
X1865Y1699D02*
X1874Y1699D01*
X1932Y1699D02*
X1942Y1699D01*
X1865Y1698D02*
X1874Y1698D01*
X1932Y1698D02*
X1942Y1698D01*
X1865Y1697D02*
X1874Y1697D01*
X1932Y1697D02*
X1942Y1697D01*
X1865Y1696D02*
X1874Y1696D01*
X1932Y1696D02*
X1942Y1696D01*
X1865Y1695D02*
X1874Y1695D01*
X1932Y1695D02*
X1942Y1695D01*
X1865Y1694D02*
X1874Y1694D01*
X1932Y1694D02*
X1942Y1694D01*
X1865Y1693D02*
X1874Y1693D01*
X1932Y1693D02*
X1942Y1693D01*
X1865Y1692D02*
X1874Y1692D01*
X1932Y1692D02*
X1942Y1692D01*
X1865Y1691D02*
X1874Y1691D01*
X1932Y1691D02*
X1941Y1691D01*
X1865Y1690D02*
X1874Y1690D01*
X1932Y1690D02*
X1941Y1690D01*
X1865Y1689D02*
X1874Y1689D01*
X1932Y1689D02*
X1941Y1689D01*
X1865Y1688D02*
X1875Y1688D01*
X1931Y1688D02*
X1941Y1688D01*
X1865Y1687D02*
X1877Y1687D01*
X1929Y1687D02*
X1941Y1687D01*
X1866Y1686D02*
X1879Y1686D01*
X1927Y1686D02*
X1940Y1686D01*
X1866Y1685D02*
X1881Y1685D01*
X1925Y1685D02*
X1940Y1685D01*
X1867Y1684D02*
X1883Y1684D01*
X1923Y1684D02*
X1939Y1684D01*
X1867Y1683D02*
X1885Y1683D01*
X1921Y1683D02*
X1939Y1683D01*
X1868Y1682D02*
X1887Y1682D01*
X1919Y1682D02*
X1938Y1682D01*
X1869Y1681D02*
X1889Y1681D01*
X1917Y1681D02*
X1937Y1681D01*
X1870Y1680D02*
X1891Y1680D01*
X1915Y1680D02*
X1936Y1680D01*
X1872Y1679D02*
X1893Y1679D01*
X1913Y1679D02*
X1935Y1679D01*
X1873Y1678D02*
X1895Y1678D01*
X1911Y1678D02*
X1933Y1678D01*
X1875Y1677D02*
X1897Y1677D01*
X1909Y1677D02*
X1931Y1677D01*
X1877Y1676D02*
X1900Y1676D01*
X1906Y1676D02*
X1929Y1676D01*
X1879Y1675D02*
X1927Y1675D01*
X1881Y1674D02*
X1925Y1674D01*
X1883Y1673D02*
X1923Y1673D01*
X1885Y1672D02*
X1921Y1672D01*
X1887Y1671D02*
X1919Y1671D01*
X1889Y1670D02*
X1917Y1670D01*
X1891Y1669D02*
X1915Y1669D01*
X1893Y1668D02*
X1913Y1668D01*
X1896Y1667D02*
X1910Y1667D01*
X1900Y1666D02*
X1907Y1666D01*
X1908Y1643D02*
X1928Y1643D01*
X1904Y1642D02*
X1932Y1642D01*
X1902Y1641D02*
X1934Y1641D01*
X1900Y1640D02*
X1935Y1640D01*
X1899Y1639D02*
X1937Y1639D01*
X1898Y1638D02*
X1938Y1638D01*
X1897Y1637D02*
X1938Y1637D01*
X1897Y1636D02*
X1939Y1636D01*
X1896Y1635D02*
X1940Y1635D01*
X1896Y1634D02*
X1940Y1634D01*
X1895Y1633D02*
X1909Y1633D01*
X1927Y1633D02*
X1941Y1633D01*
X1895Y1632D02*
X1906Y1632D01*
X1930Y1632D02*
X1941Y1632D01*
X1895Y1631D02*
X1905Y1631D01*
X1931Y1631D02*
X1941Y1631D01*
X1894Y1630D02*
X1904Y1630D01*
X1932Y1630D02*
X1941Y1630D01*
X1894Y1629D02*
X1904Y1629D01*
X1932Y1629D02*
X1941Y1629D01*
X1894Y1628D02*
X1903Y1628D01*
X1932Y1628D02*
X1942Y1628D01*
X1894Y1627D02*
X1903Y1627D01*
X1932Y1627D02*
X1942Y1627D01*
X1894Y1626D02*
X1903Y1626D01*
X1932Y1626D02*
X1942Y1626D01*
X1894Y1625D02*
X1903Y1625D01*
X1932Y1625D02*
X1942Y1625D01*
X1894Y1624D02*
X1903Y1624D01*
X1932Y1624D02*
X1942Y1624D01*
X1894Y1623D02*
X1903Y1623D01*
X1932Y1623D02*
X1942Y1623D01*
X1894Y1622D02*
X1903Y1622D01*
X1932Y1622D02*
X1942Y1622D01*
X1894Y1621D02*
X1903Y1621D01*
X1932Y1621D02*
X1942Y1621D01*
X1894Y1620D02*
X1903Y1620D01*
X1932Y1620D02*
X1942Y1620D01*
X1894Y1619D02*
X1903Y1619D01*
X1932Y1619D02*
X1942Y1619D01*
X1894Y1618D02*
X1903Y1618D01*
X1932Y1618D02*
X1942Y1618D01*
X1894Y1617D02*
X1903Y1617D01*
X1932Y1617D02*
X1942Y1617D01*
X1894Y1616D02*
X1903Y1616D01*
X1932Y1616D02*
X1942Y1616D01*
X1894Y1615D02*
X1903Y1615D01*
X1932Y1615D02*
X1942Y1615D01*
X1894Y1614D02*
X1903Y1614D01*
X1932Y1614D02*
X1942Y1614D01*
X1894Y1613D02*
X1903Y1613D01*
X1932Y1613D02*
X1942Y1613D01*
X1894Y1612D02*
X1903Y1612D01*
X1932Y1612D02*
X1942Y1612D01*
X1894Y1611D02*
X1903Y1611D01*
X1932Y1611D02*
X1942Y1611D01*
X1894Y1610D02*
X1903Y1610D01*
X1932Y1610D02*
X1942Y1610D01*
X1894Y1609D02*
X1903Y1609D01*
X1932Y1609D02*
X1942Y1609D01*
X1894Y1608D02*
X1903Y1608D01*
X1932Y1608D02*
X1942Y1608D01*
X1894Y1607D02*
X1903Y1607D01*
X1932Y1607D02*
X1942Y1607D01*
X1894Y1606D02*
X1903Y1606D01*
X1932Y1606D02*
X1942Y1606D01*
X1894Y1605D02*
X1903Y1605D01*
X1932Y1605D02*
X1942Y1605D01*
X1894Y1604D02*
X1903Y1604D01*
X1932Y1604D02*
X1942Y1604D01*
X1868Y1603D02*
X1942Y1603D01*
X1866Y1602D02*
X1942Y1602D01*
X1865Y1601D02*
X1942Y1601D01*
X1865Y1600D02*
X1942Y1600D01*
X1865Y1599D02*
X1942Y1599D01*
X1865Y1598D02*
X1942Y1598D01*
X1865Y1597D02*
X1942Y1597D01*
X1865Y1596D02*
X1942Y1596D01*
X1866Y1595D02*
X1942Y1595D01*
X1867Y1594D02*
X1942Y1594D01*
X1905Y1570D02*
X1918Y1570D01*
X1903Y1569D02*
X1919Y1569D01*
X1900Y1568D02*
X1920Y1568D01*
X1898Y1567D02*
X1920Y1567D01*
X1896Y1566D02*
X1920Y1566D01*
X1894Y1565D02*
X1920Y1565D01*
X1891Y1564D02*
X1920Y1564D01*
X1889Y1563D02*
X1919Y1563D01*
X1887Y1562D02*
X1919Y1562D01*
X1884Y1561D02*
X1917Y1561D01*
X1882Y1560D02*
X1906Y1560D01*
X1880Y1559D02*
X1904Y1559D01*
X1878Y1558D02*
X1902Y1558D01*
X1875Y1557D02*
X1899Y1557D01*
X1873Y1556D02*
X1897Y1556D01*
X1871Y1555D02*
X1895Y1555D01*
X1868Y1554D02*
X1893Y1554D01*
X1866Y1553D02*
X1890Y1553D01*
X1865Y1552D02*
X1888Y1552D01*
X1865Y1551D02*
X1886Y1551D01*
X1865Y1550D02*
X1883Y1550D01*
X1865Y1549D02*
X1881Y1549D01*
X1865Y1548D02*
X1879Y1548D01*
X1865Y1547D02*
X1877Y1547D01*
X1865Y1546D02*
X1875Y1546D01*
X1865Y1545D02*
X1876Y1545D01*
X1865Y1544D02*
X1878Y1544D01*
X1865Y1543D02*
X1881Y1543D01*
X1865Y1542D02*
X1883Y1542D01*
X1865Y1541D02*
X1885Y1541D01*
X1865Y1540D02*
X1887Y1540D01*
X1866Y1539D02*
X1890Y1539D01*
X1868Y1538D02*
X1892Y1538D01*
X1870Y1537D02*
X1894Y1537D01*
X1872Y1536D02*
X1897Y1536D01*
X1875Y1535D02*
X1899Y1535D01*
X1877Y1534D02*
X1901Y1534D01*
X1879Y1533D02*
X1904Y1533D01*
X1882Y1532D02*
X1906Y1532D01*
X1884Y1531D02*
X1916Y1531D01*
X1886Y1530D02*
X1918Y1530D01*
X1888Y1529D02*
X1919Y1529D01*
X1891Y1528D02*
X1920Y1528D01*
X1893Y1527D02*
X1920Y1527D01*
X1895Y1526D02*
X1920Y1526D01*
X1898Y1525D02*
X1920Y1525D01*
X1900Y1524D02*
X1920Y1524D01*
X1902Y1523D02*
X1919Y1523D01*
X1904Y1522D02*
X1918Y1522D01*
X1867Y1498D02*
X1871Y1498D01*
X1889Y1498D02*
X1906Y1498D01*
X1866Y1497D02*
X1872Y1497D01*
X1887Y1497D02*
X1909Y1497D01*
X1865Y1496D02*
X1873Y1496D01*
X1887Y1496D02*
X1911Y1496D01*
X1865Y1495D02*
X1873Y1495D01*
X1886Y1495D02*
X1912Y1495D01*
X1865Y1494D02*
X1874Y1494D01*
X1886Y1494D02*
X1913Y1494D01*
X1865Y1493D02*
X1874Y1493D01*
X1886Y1493D02*
X1914Y1493D01*
X1865Y1492D02*
X1874Y1492D01*
X1886Y1492D02*
X1915Y1492D01*
X1865Y1491D02*
X1874Y1491D01*
X1886Y1491D02*
X1916Y1491D01*
X1865Y1490D02*
X1874Y1490D01*
X1886Y1490D02*
X1916Y1490D01*
X1865Y1489D02*
X1874Y1489D01*
X1886Y1489D02*
X1917Y1489D01*
X1865Y1488D02*
X1874Y1488D01*
X1886Y1488D02*
X1895Y1488D01*
X1905Y1488D02*
X1918Y1488D01*
X1865Y1487D02*
X1874Y1487D01*
X1886Y1487D02*
X1895Y1487D01*
X1907Y1487D02*
X1919Y1487D01*
X1865Y1486D02*
X1874Y1486D01*
X1886Y1486D02*
X1895Y1486D01*
X1908Y1486D02*
X1919Y1486D01*
X1865Y1485D02*
X1874Y1485D01*
X1886Y1485D02*
X1895Y1485D01*
X1909Y1485D02*
X1919Y1485D01*
X1865Y1484D02*
X1874Y1484D01*
X1886Y1484D02*
X1895Y1484D01*
X1910Y1484D02*
X1920Y1484D01*
X1865Y1483D02*
X1874Y1483D01*
X1886Y1483D02*
X1895Y1483D01*
X1910Y1483D02*
X1920Y1483D01*
X1865Y1482D02*
X1874Y1482D01*
X1886Y1482D02*
X1895Y1482D01*
X1911Y1482D02*
X1920Y1482D01*
X1865Y1481D02*
X1874Y1481D01*
X1886Y1481D02*
X1895Y1481D01*
X1911Y1481D02*
X1920Y1481D01*
X1865Y1480D02*
X1874Y1480D01*
X1886Y1480D02*
X1895Y1480D01*
X1911Y1480D02*
X1920Y1480D01*
X1865Y1479D02*
X1874Y1479D01*
X1886Y1479D02*
X1895Y1479D01*
X1911Y1479D02*
X1920Y1479D01*
X1865Y1478D02*
X1874Y1478D01*
X1886Y1478D02*
X1895Y1478D01*
X1911Y1478D02*
X1920Y1478D01*
X1865Y1477D02*
X1874Y1477D01*
X1886Y1477D02*
X1895Y1477D01*
X1911Y1477D02*
X1920Y1477D01*
X1865Y1476D02*
X1874Y1476D01*
X1886Y1476D02*
X1895Y1476D01*
X1911Y1476D02*
X1920Y1476D01*
X1865Y1475D02*
X1874Y1475D01*
X1886Y1475D02*
X1895Y1475D01*
X1911Y1475D02*
X1920Y1475D01*
X1865Y1474D02*
X1874Y1474D01*
X1886Y1474D02*
X1895Y1474D01*
X1911Y1474D02*
X1920Y1474D01*
X1865Y1473D02*
X1874Y1473D01*
X1886Y1473D02*
X1895Y1473D01*
X1911Y1473D02*
X1920Y1473D01*
X1865Y1472D02*
X1874Y1472D01*
X1886Y1472D02*
X1895Y1472D01*
X1911Y1472D02*
X1920Y1472D01*
X1865Y1471D02*
X1874Y1471D01*
X1886Y1471D02*
X1895Y1471D01*
X1911Y1471D02*
X1920Y1471D01*
X1865Y1470D02*
X1874Y1470D01*
X1886Y1470D02*
X1895Y1470D01*
X1911Y1470D02*
X1920Y1470D01*
X1865Y1469D02*
X1874Y1469D01*
X1886Y1469D02*
X1895Y1469D01*
X1911Y1469D02*
X1920Y1469D01*
X1865Y1468D02*
X1874Y1468D01*
X1886Y1468D02*
X1895Y1468D01*
X1911Y1468D02*
X1920Y1468D01*
X1865Y1467D02*
X1874Y1467D01*
X1886Y1467D02*
X1895Y1467D01*
X1911Y1467D02*
X1920Y1467D01*
X1865Y1466D02*
X1874Y1466D01*
X1886Y1466D02*
X1895Y1466D01*
X1911Y1466D02*
X1920Y1466D01*
X1865Y1465D02*
X1874Y1465D01*
X1886Y1465D02*
X1895Y1465D01*
X1911Y1465D02*
X1920Y1465D01*
X1865Y1464D02*
X1875Y1464D01*
X1886Y1464D02*
X1895Y1464D01*
X1910Y1464D02*
X1920Y1464D01*
X1865Y1463D02*
X1876Y1463D01*
X1886Y1463D02*
X1895Y1463D01*
X1909Y1463D02*
X1920Y1463D01*
X1866Y1462D02*
X1877Y1462D01*
X1886Y1462D02*
X1895Y1462D01*
X1908Y1462D02*
X1919Y1462D01*
X1866Y1461D02*
X1877Y1461D01*
X1886Y1461D02*
X1895Y1461D01*
X1907Y1461D02*
X1919Y1461D01*
X1866Y1460D02*
X1879Y1460D01*
X1886Y1460D02*
X1895Y1460D01*
X1906Y1460D02*
X1918Y1460D01*
X1867Y1459D02*
X1881Y1459D01*
X1885Y1459D02*
X1895Y1459D01*
X1904Y1459D02*
X1918Y1459D01*
X1868Y1458D02*
X1917Y1458D01*
X1869Y1457D02*
X1916Y1457D01*
X1869Y1456D02*
X1915Y1456D01*
X1870Y1455D02*
X1914Y1455D01*
X1871Y1454D02*
X1914Y1454D01*
X1872Y1453D02*
X1913Y1453D01*
X1873Y1452D02*
X1911Y1452D01*
X1875Y1451D02*
X1910Y1451D01*
X1876Y1450D02*
X1908Y1450D01*
X1880Y1449D02*
X1904Y1449D01*
X1869Y1426D02*
X1874Y1426D01*
X1866Y1425D02*
X1904Y1425D01*
X1866Y1424D02*
X1911Y1424D01*
X1865Y1423D02*
X1913Y1423D01*
X1865Y1422D02*
X1914Y1422D01*
X1865Y1421D02*
X1915Y1421D01*
X1865Y1420D02*
X1916Y1420D01*
X1865Y1419D02*
X1917Y1419D01*
X1866Y1418D02*
X1918Y1418D01*
X1867Y1417D02*
X1919Y1417D01*
X1874Y1416D02*
X1919Y1416D01*
X1903Y1415D02*
X1919Y1415D01*
X1909Y1414D02*
X1920Y1414D01*
X1910Y1413D02*
X1920Y1413D01*
X1911Y1412D02*
X1920Y1412D01*
X1911Y1411D02*
X1920Y1411D01*
X1911Y1410D02*
X1920Y1410D01*
X1911Y1409D02*
X1920Y1409D01*
X1911Y1408D02*
X1920Y1408D01*
X1911Y1407D02*
X1920Y1407D01*
X1911Y1406D02*
X1920Y1406D01*
X1911Y1405D02*
X1920Y1405D01*
X1911Y1404D02*
X1920Y1404D01*
X1911Y1403D02*
X1920Y1403D01*
X1911Y1402D02*
X1920Y1402D01*
X1910Y1401D02*
X1920Y1401D01*
X1909Y1400D02*
X1920Y1400D01*
X1909Y1399D02*
X1919Y1399D01*
X1908Y1398D02*
X1919Y1398D01*
X1907Y1397D02*
X1918Y1397D01*
X1907Y1396D02*
X1918Y1396D01*
X1906Y1395D02*
X1917Y1395D01*
X1906Y1394D02*
X1917Y1394D01*
X1905Y1393D02*
X1916Y1393D01*
X1904Y1392D02*
X1915Y1392D01*
X1904Y1391D02*
X1915Y1391D01*
X1903Y1390D02*
X1914Y1390D01*
X1902Y1389D02*
X1913Y1389D01*
X1902Y1388D02*
X1913Y1388D01*
X1901Y1387D02*
X1912Y1387D01*
X1867Y1386D02*
X1939Y1386D01*
X1866Y1385D02*
X1940Y1385D01*
X1865Y1384D02*
X1941Y1384D01*
X1865Y1383D02*
X1941Y1383D01*
X1865Y1382D02*
X1941Y1382D01*
X1865Y1381D02*
X1941Y1381D01*
X1865Y1380D02*
X1941Y1380D01*
X1865Y1379D02*
X1941Y1379D01*
X1866Y1378D02*
X1940Y1378D01*
X1867Y1377D02*
X1939Y1377D01*
X1867Y1353D02*
X1871Y1353D01*
X1913Y1353D02*
X1918Y1353D01*
X1866Y1352D02*
X1872Y1352D01*
X1912Y1352D02*
X1919Y1352D01*
X1865Y1351D02*
X1873Y1351D01*
X1912Y1351D02*
X1920Y1351D01*
X1865Y1350D02*
X1873Y1350D01*
X1911Y1350D02*
X1920Y1350D01*
X1865Y1349D02*
X1874Y1349D01*
X1911Y1349D02*
X1920Y1349D01*
X1865Y1348D02*
X1874Y1348D01*
X1911Y1348D02*
X1920Y1348D01*
X1865Y1347D02*
X1874Y1347D01*
X1911Y1347D02*
X1920Y1347D01*
X1865Y1346D02*
X1874Y1346D01*
X1911Y1346D02*
X1920Y1346D01*
X1865Y1345D02*
X1874Y1345D01*
X1911Y1345D02*
X1920Y1345D01*
X1865Y1344D02*
X1874Y1344D01*
X1911Y1344D02*
X1920Y1344D01*
X1865Y1343D02*
X1874Y1343D01*
X1911Y1343D02*
X1920Y1343D01*
X1865Y1342D02*
X1874Y1342D01*
X1911Y1342D02*
X1920Y1342D01*
X1865Y1341D02*
X1874Y1341D01*
X1911Y1341D02*
X1920Y1341D01*
X1865Y1340D02*
X1874Y1340D01*
X1911Y1340D02*
X1920Y1340D01*
X1865Y1339D02*
X1874Y1339D01*
X1911Y1339D02*
X1920Y1339D01*
X1865Y1338D02*
X1874Y1338D01*
X1911Y1338D02*
X1920Y1338D01*
X1865Y1337D02*
X1874Y1337D01*
X1911Y1337D02*
X1920Y1337D01*
X1865Y1336D02*
X1874Y1336D01*
X1911Y1336D02*
X1920Y1336D01*
X1865Y1335D02*
X1874Y1335D01*
X1911Y1335D02*
X1920Y1335D01*
X1865Y1334D02*
X1874Y1334D01*
X1911Y1334D02*
X1920Y1334D01*
X1865Y1333D02*
X1874Y1333D01*
X1911Y1333D02*
X1920Y1333D01*
X1865Y1332D02*
X1874Y1332D01*
X1911Y1332D02*
X1920Y1332D01*
X1865Y1331D02*
X1874Y1331D01*
X1911Y1331D02*
X1920Y1331D01*
X1865Y1330D02*
X1874Y1330D01*
X1911Y1330D02*
X1920Y1330D01*
X1865Y1329D02*
X1874Y1329D01*
X1911Y1329D02*
X1920Y1329D01*
X1865Y1328D02*
X1874Y1328D01*
X1911Y1328D02*
X1920Y1328D01*
X1865Y1327D02*
X1874Y1327D01*
X1911Y1327D02*
X1920Y1327D01*
X1865Y1326D02*
X1874Y1326D01*
X1911Y1326D02*
X1920Y1326D01*
X1865Y1325D02*
X1875Y1325D01*
X1910Y1325D02*
X1920Y1325D01*
X1865Y1324D02*
X1875Y1324D01*
X1910Y1324D02*
X1920Y1324D01*
X1865Y1323D02*
X1876Y1323D01*
X1909Y1323D02*
X1919Y1323D01*
X1866Y1322D02*
X1877Y1322D01*
X1908Y1322D02*
X1919Y1322D01*
X1866Y1321D02*
X1878Y1321D01*
X1907Y1321D02*
X1919Y1321D01*
X1867Y1320D02*
X1879Y1320D01*
X1906Y1320D02*
X1918Y1320D01*
X1867Y1319D02*
X1880Y1319D01*
X1905Y1319D02*
X1918Y1319D01*
X1868Y1318D02*
X1880Y1318D01*
X1904Y1318D02*
X1917Y1318D01*
X1869Y1317D02*
X1881Y1317D01*
X1904Y1317D02*
X1916Y1317D01*
X1870Y1316D02*
X1882Y1316D01*
X1903Y1316D02*
X1915Y1316D01*
X1871Y1315D02*
X1883Y1315D01*
X1902Y1315D02*
X1914Y1315D01*
X1872Y1314D02*
X1914Y1314D01*
X1872Y1313D02*
X1913Y1313D01*
X1873Y1312D02*
X1912Y1312D01*
X1874Y1311D02*
X1911Y1311D01*
X1875Y1310D02*
X1910Y1310D01*
X1876Y1309D02*
X1909Y1309D01*
X1877Y1308D02*
X1908Y1308D01*
X1878Y1307D02*
X1907Y1307D01*
X1880Y1306D02*
X1905Y1306D01*
X1882Y1305D02*
X1903Y1305D01*
X1867Y1281D02*
X1887Y1281D01*
X1866Y1280D02*
X1909Y1280D01*
X1865Y1279D02*
X1912Y1279D01*
X1865Y1278D02*
X1913Y1278D01*
X1865Y1277D02*
X1915Y1277D01*
X1865Y1276D02*
X1916Y1276D01*
X1865Y1275D02*
X1917Y1275D01*
X1865Y1274D02*
X1918Y1274D01*
X1866Y1273D02*
X1918Y1273D01*
X1868Y1272D02*
X1919Y1272D01*
X1886Y1271D02*
X1919Y1271D01*
X1908Y1270D02*
X1920Y1270D01*
X1909Y1269D02*
X1920Y1269D01*
X1910Y1268D02*
X1920Y1268D01*
X1911Y1267D02*
X1920Y1267D01*
X1911Y1266D02*
X1920Y1266D01*
X1911Y1265D02*
X1920Y1265D01*
X1911Y1264D02*
X1920Y1264D01*
X1911Y1263D02*
X1920Y1263D01*
X1911Y1262D02*
X1920Y1262D01*
X1911Y1261D02*
X1920Y1261D01*
X1911Y1260D02*
X1920Y1260D01*
X1911Y1259D02*
X1920Y1259D01*
X1911Y1258D02*
X1920Y1258D01*
X1910Y1257D02*
X1920Y1257D01*
X1910Y1256D02*
X1920Y1256D01*
X1909Y1255D02*
X1920Y1255D01*
X1908Y1254D02*
X1919Y1254D01*
X1908Y1253D02*
X1919Y1253D01*
X1907Y1252D02*
X1918Y1252D01*
X1907Y1251D02*
X1918Y1251D01*
X1906Y1250D02*
X1917Y1250D01*
X1905Y1249D02*
X1916Y1249D01*
X1905Y1248D02*
X1916Y1248D01*
X1904Y1247D02*
X1915Y1247D01*
X1903Y1246D02*
X1914Y1246D01*
X1903Y1245D02*
X1914Y1245D01*
X1902Y1244D02*
X1913Y1244D01*
X1901Y1243D02*
X1912Y1243D01*
X1870Y1242D02*
X1915Y1242D01*
X1867Y1241D02*
X1918Y1241D01*
X1866Y1240D02*
X1919Y1240D01*
X1865Y1239D02*
X1920Y1239D01*
X1865Y1238D02*
X1920Y1238D01*
X1865Y1237D02*
X1920Y1237D01*
X1865Y1236D02*
X1920Y1236D01*
X1865Y1235D02*
X1920Y1235D01*
X1866Y1234D02*
X1919Y1234D01*
X1867Y1233D02*
X1918Y1233D01*
X1869Y1232D02*
X1916Y1232D01*
X1868Y1209D02*
X1880Y1209D01*
X1866Y1208D02*
X1907Y1208D01*
X1865Y1207D02*
X1911Y1207D01*
X1865Y1206D02*
X1913Y1206D01*
X1865Y1205D02*
X1914Y1205D01*
X1865Y1204D02*
X1916Y1204D01*
X1865Y1203D02*
X1917Y1203D01*
X1865Y1202D02*
X1917Y1202D01*
X1866Y1201D02*
X1918Y1201D01*
X1867Y1200D02*
X1919Y1200D01*
X1869Y1199D02*
X1919Y1199D01*
X1869Y1198D02*
X1880Y1198D01*
X1887Y1198D02*
X1899Y1198D01*
X1906Y1198D02*
X1920Y1198D01*
X1868Y1197D02*
X1879Y1197D01*
X1889Y1197D02*
X1899Y1197D01*
X1909Y1197D02*
X1920Y1197D01*
X1868Y1196D02*
X1878Y1196D01*
X1889Y1196D02*
X1899Y1196D01*
X1910Y1196D02*
X1920Y1196D01*
X1867Y1195D02*
X1878Y1195D01*
X1890Y1195D02*
X1899Y1195D01*
X1911Y1195D02*
X1920Y1195D01*
X1866Y1194D02*
X1877Y1194D01*
X1890Y1194D02*
X1899Y1194D01*
X1911Y1194D02*
X1920Y1194D01*
X1866Y1193D02*
X1877Y1193D01*
X1890Y1193D02*
X1899Y1193D01*
X1911Y1193D02*
X1920Y1193D01*
X1865Y1192D02*
X1876Y1192D01*
X1890Y1192D02*
X1899Y1192D01*
X1911Y1192D02*
X1920Y1192D01*
X1865Y1191D02*
X1875Y1191D01*
X1890Y1191D02*
X1899Y1191D01*
X1911Y1191D02*
X1920Y1191D01*
X1865Y1190D02*
X1875Y1190D01*
X1890Y1190D02*
X1899Y1190D01*
X1911Y1190D02*
X1920Y1190D01*
X1865Y1189D02*
X1874Y1189D01*
X1890Y1189D02*
X1899Y1189D01*
X1911Y1189D02*
X1920Y1189D01*
X1865Y1188D02*
X1874Y1188D01*
X1890Y1188D02*
X1899Y1188D01*
X1911Y1188D02*
X1920Y1188D01*
X1865Y1187D02*
X1874Y1187D01*
X1890Y1187D02*
X1899Y1187D01*
X1911Y1187D02*
X1920Y1187D01*
X1865Y1186D02*
X1874Y1186D01*
X1890Y1186D02*
X1899Y1186D01*
X1911Y1186D02*
X1920Y1186D01*
X1865Y1185D02*
X1874Y1185D01*
X1890Y1185D02*
X1899Y1185D01*
X1911Y1185D02*
X1920Y1185D01*
X1865Y1184D02*
X1874Y1184D01*
X1890Y1184D02*
X1899Y1184D01*
X1911Y1184D02*
X1920Y1184D01*
X1865Y1183D02*
X1874Y1183D01*
X1890Y1183D02*
X1899Y1183D01*
X1911Y1183D02*
X1920Y1183D01*
X1865Y1182D02*
X1874Y1182D01*
X1890Y1182D02*
X1899Y1182D01*
X1911Y1182D02*
X1920Y1182D01*
X1865Y1181D02*
X1874Y1181D01*
X1890Y1181D02*
X1899Y1181D01*
X1911Y1181D02*
X1920Y1181D01*
X1865Y1180D02*
X1874Y1180D01*
X1890Y1180D02*
X1899Y1180D01*
X1911Y1180D02*
X1920Y1180D01*
X1865Y1179D02*
X1874Y1179D01*
X1890Y1179D02*
X1899Y1179D01*
X1911Y1179D02*
X1920Y1179D01*
X1865Y1178D02*
X1874Y1178D01*
X1890Y1178D02*
X1899Y1178D01*
X1911Y1178D02*
X1920Y1178D01*
X1865Y1177D02*
X1874Y1177D01*
X1890Y1177D02*
X1899Y1177D01*
X1911Y1177D02*
X1920Y1177D01*
X1865Y1176D02*
X1874Y1176D01*
X1890Y1176D02*
X1899Y1176D01*
X1911Y1176D02*
X1920Y1176D01*
X1865Y1175D02*
X1874Y1175D01*
X1890Y1175D02*
X1899Y1175D01*
X1911Y1175D02*
X1920Y1175D01*
X1865Y1174D02*
X1874Y1174D01*
X1890Y1174D02*
X1899Y1174D01*
X1911Y1174D02*
X1920Y1174D01*
X1865Y1173D02*
X1874Y1173D01*
X1890Y1173D02*
X1899Y1173D01*
X1912Y1173D02*
X1920Y1173D01*
X1865Y1172D02*
X1874Y1172D01*
X1889Y1172D02*
X1899Y1172D01*
X1912Y1172D02*
X1920Y1172D01*
X1865Y1171D02*
X1875Y1171D01*
X1888Y1171D02*
X1899Y1171D01*
X1913Y1171D02*
X1919Y1171D01*
X1865Y1170D02*
X1877Y1170D01*
X1887Y1170D02*
X1898Y1170D01*
X1914Y1170D02*
X1917Y1170D01*
X1866Y1169D02*
X1898Y1169D01*
X1866Y1168D02*
X1898Y1168D01*
X1867Y1167D02*
X1897Y1167D01*
X1867Y1166D02*
X1896Y1166D01*
X1868Y1165D02*
X1896Y1165D01*
X1869Y1164D02*
X1895Y1164D01*
X1870Y1163D02*
X1894Y1163D01*
X1871Y1162D02*
X1892Y1162D01*
X1873Y1161D02*
X1890Y1161D01*
X1876Y1160D02*
X1888Y1160D01*
X1877Y1137D02*
X1878Y1137D01*
X1874Y1136D02*
X1880Y1136D01*
X1872Y1135D02*
X1881Y1135D01*
X1871Y1134D02*
X1882Y1134D01*
X1869Y1133D02*
X1882Y1133D01*
X1868Y1132D02*
X1882Y1132D01*
X1868Y1131D02*
X1882Y1131D01*
X1913Y1131D02*
X1918Y1131D01*
X1867Y1130D02*
X1882Y1130D01*
X1912Y1130D02*
X1919Y1130D01*
X1866Y1129D02*
X1881Y1129D01*
X1912Y1129D02*
X1920Y1129D01*
X1866Y1128D02*
X1880Y1128D01*
X1911Y1128D02*
X1920Y1128D01*
X1865Y1127D02*
X1878Y1127D01*
X1911Y1127D02*
X1920Y1127D01*
X1865Y1126D02*
X1876Y1126D01*
X1911Y1126D02*
X1920Y1126D01*
X1865Y1125D02*
X1875Y1125D01*
X1911Y1125D02*
X1920Y1125D01*
X1865Y1124D02*
X1874Y1124D01*
X1911Y1124D02*
X1920Y1124D01*
X1865Y1123D02*
X1874Y1123D01*
X1911Y1123D02*
X1920Y1123D01*
X1865Y1122D02*
X1874Y1122D01*
X1911Y1122D02*
X1920Y1122D01*
X1865Y1121D02*
X1874Y1121D01*
X1911Y1121D02*
X1920Y1121D01*
X1865Y1120D02*
X1874Y1120D01*
X1911Y1120D02*
X1920Y1120D01*
X1865Y1119D02*
X1874Y1119D01*
X1911Y1119D02*
X1920Y1119D01*
X1865Y1118D02*
X1874Y1118D01*
X1911Y1118D02*
X1920Y1118D01*
X1865Y1117D02*
X1874Y1117D01*
X1911Y1117D02*
X1920Y1117D01*
X1865Y1116D02*
X1874Y1116D01*
X1911Y1116D02*
X1920Y1116D01*
X1865Y1115D02*
X1874Y1115D01*
X1911Y1115D02*
X1920Y1115D01*
X1865Y1114D02*
X1874Y1114D01*
X1911Y1114D02*
X1920Y1114D01*
X1865Y1113D02*
X1874Y1113D01*
X1911Y1113D02*
X1920Y1113D01*
X1865Y1112D02*
X1874Y1112D01*
X1911Y1112D02*
X1920Y1112D01*
X1865Y1111D02*
X1874Y1111D01*
X1911Y1111D02*
X1920Y1111D01*
X1865Y1110D02*
X1874Y1110D01*
X1911Y1110D02*
X1920Y1110D01*
X1865Y1109D02*
X1875Y1109D01*
X1911Y1109D02*
X1920Y1109D01*
X1865Y1108D02*
X1876Y1108D01*
X1911Y1108D02*
X1920Y1108D01*
X1865Y1107D02*
X1934Y1107D01*
X1866Y1106D02*
X1936Y1106D01*
X1866Y1105D02*
X1936Y1105D01*
X1867Y1104D02*
X1937Y1104D01*
X1868Y1103D02*
X1937Y1103D01*
X1869Y1102D02*
X1937Y1102D01*
X1870Y1101D02*
X1937Y1101D01*
X1871Y1100D02*
X1937Y1100D01*
X1873Y1099D02*
X1936Y1099D01*
X1875Y1098D02*
X1935Y1098D01*
X1911Y1097D02*
X1921Y1097D01*
X1911Y1096D02*
X1920Y1096D01*
X1911Y1095D02*
X1920Y1095D01*
X1911Y1094D02*
X1920Y1094D01*
X1911Y1093D02*
X1920Y1093D01*
X1911Y1092D02*
X1920Y1092D01*
X1911Y1091D02*
X1920Y1091D01*
X1912Y1090D02*
X1920Y1090D01*
X1913Y1089D02*
X1919Y1089D01*
X1914Y1088D02*
X1918Y1088D01*
X1872Y1064D02*
X1879Y1064D01*
X1926Y1064D02*
X1933Y1064D01*
X1870Y1063D02*
X1881Y1063D01*
X1925Y1063D02*
X1935Y1063D01*
X1869Y1062D02*
X1882Y1062D01*
X1925Y1062D02*
X1936Y1062D01*
X1867Y1061D02*
X1884Y1061D01*
X1924Y1061D02*
X1937Y1061D01*
X1867Y1060D02*
X1885Y1060D01*
X1924Y1060D02*
X1938Y1060D01*
X1866Y1059D02*
X1886Y1059D01*
X1924Y1059D02*
X1939Y1059D01*
X1865Y1058D02*
X1887Y1058D01*
X1924Y1058D02*
X1940Y1058D01*
X1865Y1057D02*
X1889Y1057D01*
X1925Y1057D02*
X1940Y1057D01*
X1865Y1056D02*
X1890Y1056D01*
X1926Y1056D02*
X1941Y1056D01*
X1865Y1055D02*
X1891Y1055D01*
X1928Y1055D02*
X1941Y1055D01*
X1865Y1054D02*
X1874Y1054D01*
X1877Y1054D02*
X1893Y1054D01*
X1931Y1054D02*
X1941Y1054D01*
X1865Y1053D02*
X1874Y1053D01*
X1878Y1053D02*
X1894Y1053D01*
X1932Y1053D02*
X1941Y1053D01*
X1865Y1052D02*
X1874Y1052D01*
X1879Y1052D02*
X1895Y1052D01*
X1932Y1052D02*
X1941Y1052D01*
X1865Y1051D02*
X1874Y1051D01*
X1881Y1051D02*
X1896Y1051D01*
X1932Y1051D02*
X1942Y1051D01*
X1865Y1050D02*
X1874Y1050D01*
X1882Y1050D02*
X1898Y1050D01*
X1932Y1050D02*
X1942Y1050D01*
X1865Y1049D02*
X1874Y1049D01*
X1883Y1049D02*
X1899Y1049D01*
X1932Y1049D02*
X1942Y1049D01*
X1865Y1048D02*
X1874Y1048D01*
X1885Y1048D02*
X1900Y1048D01*
X1932Y1048D02*
X1942Y1048D01*
X1865Y1047D02*
X1874Y1047D01*
X1886Y1047D02*
X1902Y1047D01*
X1932Y1047D02*
X1942Y1047D01*
X1865Y1046D02*
X1874Y1046D01*
X1887Y1046D02*
X1903Y1046D01*
X1932Y1046D02*
X1942Y1046D01*
X1865Y1045D02*
X1874Y1045D01*
X1888Y1045D02*
X1904Y1045D01*
X1932Y1045D02*
X1942Y1045D01*
X1865Y1044D02*
X1874Y1044D01*
X1890Y1044D02*
X1905Y1044D01*
X1932Y1044D02*
X1942Y1044D01*
X1865Y1043D02*
X1874Y1043D01*
X1891Y1043D02*
X1907Y1043D01*
X1932Y1043D02*
X1942Y1043D01*
X1865Y1042D02*
X1874Y1042D01*
X1892Y1042D02*
X1908Y1042D01*
X1932Y1042D02*
X1942Y1042D01*
X1865Y1041D02*
X1874Y1041D01*
X1894Y1041D02*
X1909Y1041D01*
X1932Y1041D02*
X1942Y1041D01*
X1865Y1040D02*
X1874Y1040D01*
X1895Y1040D02*
X1911Y1040D01*
X1932Y1040D02*
X1942Y1040D01*
X1865Y1039D02*
X1874Y1039D01*
X1896Y1039D02*
X1912Y1039D01*
X1932Y1039D02*
X1942Y1039D01*
X1865Y1038D02*
X1874Y1038D01*
X1898Y1038D02*
X1913Y1038D01*
X1932Y1038D02*
X1942Y1038D01*
X1865Y1037D02*
X1874Y1037D01*
X1899Y1037D02*
X1914Y1037D01*
X1932Y1037D02*
X1942Y1037D01*
X1865Y1036D02*
X1874Y1036D01*
X1900Y1036D02*
X1916Y1036D01*
X1932Y1036D02*
X1942Y1036D01*
X1865Y1035D02*
X1874Y1035D01*
X1901Y1035D02*
X1917Y1035D01*
X1932Y1035D02*
X1942Y1035D01*
X1865Y1034D02*
X1874Y1034D01*
X1903Y1034D02*
X1918Y1034D01*
X1932Y1034D02*
X1942Y1034D01*
X1865Y1033D02*
X1874Y1033D01*
X1904Y1033D02*
X1920Y1033D01*
X1932Y1033D02*
X1942Y1033D01*
X1865Y1032D02*
X1874Y1032D01*
X1905Y1032D02*
X1921Y1032D01*
X1932Y1032D02*
X1942Y1032D01*
X1865Y1031D02*
X1874Y1031D01*
X1907Y1031D02*
X1922Y1031D01*
X1932Y1031D02*
X1942Y1031D01*
X1865Y1030D02*
X1874Y1030D01*
X1908Y1030D02*
X1923Y1030D01*
X1932Y1030D02*
X1942Y1030D01*
X1865Y1029D02*
X1874Y1029D01*
X1909Y1029D02*
X1925Y1029D01*
X1932Y1029D02*
X1942Y1029D01*
X1865Y1028D02*
X1874Y1028D01*
X1910Y1028D02*
X1926Y1028D01*
X1932Y1028D02*
X1942Y1028D01*
X1865Y1027D02*
X1874Y1027D01*
X1912Y1027D02*
X1927Y1027D01*
X1932Y1027D02*
X1942Y1027D01*
X1865Y1026D02*
X1875Y1026D01*
X1913Y1026D02*
X1929Y1026D01*
X1932Y1026D02*
X1942Y1026D01*
X1865Y1025D02*
X1878Y1025D01*
X1914Y1025D02*
X1941Y1025D01*
X1865Y1024D02*
X1880Y1024D01*
X1916Y1024D02*
X1941Y1024D01*
X1866Y1023D02*
X1881Y1023D01*
X1917Y1023D02*
X1941Y1023D01*
X1866Y1022D02*
X1882Y1022D01*
X1918Y1022D02*
X1941Y1022D01*
X1867Y1021D02*
X1882Y1021D01*
X1919Y1021D02*
X1940Y1021D01*
X1868Y1020D02*
X1882Y1020D01*
X1921Y1020D02*
X1940Y1020D01*
X1869Y1019D02*
X1882Y1019D01*
X1922Y1019D02*
X1939Y1019D01*
X1870Y1018D02*
X1882Y1018D01*
X1923Y1018D02*
X1938Y1018D01*
X1871Y1017D02*
X1881Y1017D01*
X1925Y1017D02*
X1937Y1017D01*
X1873Y1016D02*
X1880Y1016D01*
X1927Y1016D02*
X1935Y1016D01*
X1706Y439D02*
X2014Y439D01*
X1706Y438D02*
X2014Y438D01*
X1706Y437D02*
X2014Y437D01*
X1706Y436D02*
X2014Y436D01*
X1706Y435D02*
X2014Y435D01*
X1706Y434D02*
X2014Y434D01*
X1706Y433D02*
X2014Y433D01*
X1706Y432D02*
X2014Y432D01*
X1706Y431D02*
X2014Y431D01*
X1706Y430D02*
X2014Y430D01*
X1706Y429D02*
X2014Y429D01*
X1706Y428D02*
X2014Y428D01*
X1706Y427D02*
X2014Y427D01*
X1706Y426D02*
X2014Y426D01*
X1706Y425D02*
X2014Y425D01*
X1706Y424D02*
X2014Y424D01*
X1706Y423D02*
X2014Y423D01*
X1706Y422D02*
X2014Y422D01*
X1706Y421D02*
X2014Y421D01*
X1706Y420D02*
X2014Y420D01*
X1706Y419D02*
X2014Y419D01*
X1706Y418D02*
X2014Y418D01*
X1706Y417D02*
X2014Y417D01*
X1706Y416D02*
X2014Y416D01*
X1706Y415D02*
X2014Y415D01*
X1706Y414D02*
X2014Y414D01*
X1706Y413D02*
X2014Y413D01*
X1706Y412D02*
X2014Y412D01*
X1706Y411D02*
X2014Y411D01*
X1706Y410D02*
X2014Y410D01*
X1706Y409D02*
X2014Y409D01*
X1706Y408D02*
X2014Y408D01*
X1706Y407D02*
X2014Y407D01*
X1706Y406D02*
X2014Y406D01*
X1706Y405D02*
X2014Y405D01*
X1706Y404D02*
X2014Y404D01*
X1706Y403D02*
X2014Y403D01*
X1706Y402D02*
X2014Y402D01*
X1706Y401D02*
X2014Y401D01*
X1706Y400D02*
X2014Y400D01*
X1706Y399D02*
X1812Y399D01*
X1853Y399D02*
X2014Y399D01*
X1706Y398D02*
X1809Y398D01*
X1858Y398D02*
X2014Y398D01*
X1706Y397D02*
X1807Y397D01*
X1861Y397D02*
X2014Y397D01*
X1706Y396D02*
X1805Y396D01*
X1863Y396D02*
X2014Y396D01*
X1706Y395D02*
X1804Y395D01*
X1865Y395D02*
X2014Y395D01*
X1706Y394D02*
X1803Y394D01*
X1867Y394D02*
X2014Y394D01*
X1706Y393D02*
X1803Y393D01*
X1868Y393D02*
X2014Y393D01*
X1706Y392D02*
X1802Y392D01*
X1869Y392D02*
X2014Y392D01*
X1706Y391D02*
X1802Y391D01*
X1870Y391D02*
X2014Y391D01*
X1706Y390D02*
X1801Y390D01*
X1872Y390D02*
X2014Y390D01*
X1706Y389D02*
X1801Y389D01*
X1873Y389D02*
X2014Y389D01*
X1706Y388D02*
X1801Y388D01*
X1874Y388D02*
X2014Y388D01*
X1706Y387D02*
X1801Y387D01*
X1875Y387D02*
X2014Y387D01*
X1706Y386D02*
X1801Y386D01*
X1876Y386D02*
X2014Y386D01*
X1706Y385D02*
X1801Y385D01*
X1877Y385D02*
X2014Y385D01*
X1706Y384D02*
X1801Y384D01*
X1877Y384D02*
X2014Y384D01*
X1706Y383D02*
X1801Y383D01*
X1878Y383D02*
X2014Y383D01*
X1706Y382D02*
X1801Y382D01*
X1879Y382D02*
X2014Y382D01*
X1706Y381D02*
X1801Y381D01*
X1880Y381D02*
X2014Y381D01*
X1706Y380D02*
X1802Y380D01*
X1880Y380D02*
X2014Y380D01*
X1706Y379D02*
X1802Y379D01*
X1881Y379D02*
X2014Y379D01*
X1706Y378D02*
X1803Y378D01*
X1881Y378D02*
X2014Y378D01*
X1706Y377D02*
X1803Y377D01*
X1882Y377D02*
X2014Y377D01*
X1706Y376D02*
X1804Y376D01*
X1882Y376D02*
X2014Y376D01*
X1706Y375D02*
X1805Y375D01*
X1883Y375D02*
X2014Y375D01*
X1706Y374D02*
X1807Y374D01*
X1883Y374D02*
X2014Y374D01*
X1706Y373D02*
X1809Y373D01*
X1883Y373D02*
X2014Y373D01*
X1706Y372D02*
X1812Y372D01*
X1884Y372D02*
X2014Y372D01*
X1706Y371D02*
X1846Y371D01*
X1884Y371D02*
X2014Y371D01*
X1706Y370D02*
X1850Y370D01*
X1884Y370D02*
X2014Y370D01*
X1706Y369D02*
X1851Y369D01*
X1884Y369D02*
X2014Y369D01*
X1706Y368D02*
X1852Y368D01*
X1885Y368D02*
X2014Y368D01*
X1706Y367D02*
X1853Y367D01*
X1885Y367D02*
X2014Y367D01*
X1706Y366D02*
X1854Y366D01*
X1885Y366D02*
X2014Y366D01*
X1706Y365D02*
X1855Y365D01*
X1885Y365D02*
X2014Y365D01*
X1706Y364D02*
X1855Y364D01*
X1885Y364D02*
X2014Y364D01*
X1706Y363D02*
X1855Y363D01*
X1885Y363D02*
X2014Y363D01*
X1706Y362D02*
X1856Y362D01*
X1886Y362D02*
X2014Y362D01*
X1706Y361D02*
X1856Y361D01*
X1886Y361D02*
X2014Y361D01*
X1706Y360D02*
X1856Y360D01*
X1886Y360D02*
X2014Y360D01*
X1706Y359D02*
X1856Y359D01*
X1886Y359D02*
X2014Y359D01*
X1706Y358D02*
X1856Y358D01*
X1886Y358D02*
X2014Y358D01*
X1706Y357D02*
X1856Y357D01*
X1886Y357D02*
X2014Y357D01*
X1706Y356D02*
X1856Y356D01*
X1886Y356D02*
X2014Y356D01*
X1706Y355D02*
X1856Y355D01*
X1886Y355D02*
X2014Y355D01*
X1706Y354D02*
X1856Y354D01*
X1886Y354D02*
X2014Y354D01*
X1706Y353D02*
X1857Y353D01*
X1886Y353D02*
X2014Y353D01*
X1706Y352D02*
X1857Y352D01*
X1886Y352D02*
X2014Y352D01*
X1706Y351D02*
X1857Y351D01*
X1886Y351D02*
X2014Y351D01*
X1706Y350D02*
X1857Y350D01*
X1886Y350D02*
X2014Y350D01*
X1706Y349D02*
X1857Y349D01*
X1886Y349D02*
X2014Y349D01*
X1706Y348D02*
X1857Y348D01*
X1886Y348D02*
X2014Y348D01*
X1706Y347D02*
X1857Y347D01*
X1886Y347D02*
X2014Y347D01*
X1706Y346D02*
X1857Y346D01*
X1886Y346D02*
X2014Y346D01*
X1706Y345D02*
X1857Y345D01*
X1886Y345D02*
X2014Y345D01*
X1706Y344D02*
X1857Y344D01*
X1886Y344D02*
X2014Y344D01*
X1706Y343D02*
X1857Y343D01*
X1886Y343D02*
X2014Y343D01*
X1706Y342D02*
X1839Y342D01*
X1896Y342D02*
X2014Y342D01*
X1706Y341D02*
X1832Y341D01*
X1904Y341D02*
X2014Y341D01*
X1706Y340D02*
X1829Y340D01*
X1906Y340D02*
X2014Y340D01*
X1706Y339D02*
X1827Y339D01*
X1908Y339D02*
X2014Y339D01*
X1706Y338D02*
X1826Y338D01*
X1910Y338D02*
X2014Y338D01*
X1706Y337D02*
X1825Y337D01*
X1911Y337D02*
X2014Y337D01*
X1706Y336D02*
X1824Y336D01*
X1911Y336D02*
X2014Y336D01*
X1706Y335D02*
X1823Y335D01*
X1912Y335D02*
X2014Y335D01*
X1706Y334D02*
X1823Y334D01*
X1912Y334D02*
X2014Y334D01*
X1706Y333D02*
X1823Y333D01*
X1913Y333D02*
X2014Y333D01*
X1706Y332D02*
X1822Y332D01*
X1913Y332D02*
X2014Y332D01*
X1706Y331D02*
X1822Y331D01*
X1913Y331D02*
X2014Y331D01*
X1706Y330D02*
X1822Y330D01*
X1913Y330D02*
X2014Y330D01*
X1706Y329D02*
X1822Y329D01*
X1913Y329D02*
X2014Y329D01*
X1706Y328D02*
X1822Y328D01*
X1914Y328D02*
X2014Y328D01*
X1706Y327D02*
X1822Y327D01*
X1914Y327D02*
X2014Y327D01*
X1706Y326D02*
X1822Y326D01*
X1913Y326D02*
X2014Y326D01*
X1706Y325D02*
X1822Y325D01*
X1913Y325D02*
X2014Y325D01*
X1706Y324D02*
X1822Y324D01*
X1913Y324D02*
X2014Y324D01*
X1706Y323D02*
X1822Y323D01*
X1913Y323D02*
X2014Y323D01*
X1706Y322D02*
X1823Y322D01*
X1913Y322D02*
X2014Y322D01*
X1706Y321D02*
X1823Y321D01*
X1912Y321D02*
X2014Y321D01*
X1706Y320D02*
X1824Y320D01*
X1912Y320D02*
X2014Y320D01*
X1706Y319D02*
X1824Y319D01*
X1911Y319D02*
X2014Y319D01*
X1706Y318D02*
X1825Y318D01*
X1910Y318D02*
X2014Y318D01*
X1706Y317D02*
X1826Y317D01*
X1909Y317D02*
X2014Y317D01*
X1706Y316D02*
X1828Y316D01*
X1907Y316D02*
X2014Y316D01*
X1706Y315D02*
X1830Y315D01*
X1905Y315D02*
X2014Y315D01*
X1706Y314D02*
X1834Y314D01*
X1901Y314D02*
X2014Y314D01*
X1706Y313D02*
X1857Y313D01*
X1886Y313D02*
X2014Y313D01*
X1706Y312D02*
X1857Y312D01*
X1886Y312D02*
X2014Y312D01*
X1706Y311D02*
X1857Y311D01*
X1886Y311D02*
X2014Y311D01*
X1706Y310D02*
X1857Y310D01*
X1886Y310D02*
X2014Y310D01*
X1706Y309D02*
X1857Y309D01*
X1886Y309D02*
X2014Y309D01*
X1706Y308D02*
X1857Y308D01*
X1886Y308D02*
X2014Y308D01*
X1706Y307D02*
X1857Y307D01*
X1886Y307D02*
X2014Y307D01*
X1706Y306D02*
X1857Y306D01*
X1886Y306D02*
X2014Y306D01*
X1706Y305D02*
X1857Y305D01*
X1886Y305D02*
X2014Y305D01*
X1706Y304D02*
X1857Y304D01*
X1886Y304D02*
X2014Y304D01*
X1706Y303D02*
X1857Y303D01*
X1886Y303D02*
X2014Y303D01*
X1706Y302D02*
X1857Y302D01*
X1886Y302D02*
X2014Y302D01*
X1706Y301D02*
X1857Y301D01*
X1886Y301D02*
X2014Y301D01*
X1706Y300D02*
X1857Y300D01*
X1886Y300D02*
X2014Y300D01*
X1706Y299D02*
X1857Y299D01*
X1886Y299D02*
X2014Y299D01*
X1706Y298D02*
X1857Y298D01*
X1886Y298D02*
X2014Y298D01*
X1706Y297D02*
X1857Y297D01*
X1886Y297D02*
X2014Y297D01*
X1706Y296D02*
X1857Y296D01*
X1886Y296D02*
X2014Y296D01*
X1706Y295D02*
X1857Y295D01*
X1886Y295D02*
X2014Y295D01*
X1706Y294D02*
X1857Y294D01*
X1886Y294D02*
X2014Y294D01*
X1706Y293D02*
X1857Y293D01*
X1886Y293D02*
X2014Y293D01*
X1706Y292D02*
X1857Y292D01*
X1886Y292D02*
X2014Y292D01*
X1706Y291D02*
X1857Y291D01*
X1886Y291D02*
X2014Y291D01*
X1706Y290D02*
X1857Y290D01*
X1886Y290D02*
X2014Y290D01*
X1706Y289D02*
X1857Y289D01*
X1886Y289D02*
X2014Y289D01*
X1706Y288D02*
X1857Y288D01*
X1886Y288D02*
X2014Y288D01*
X1706Y287D02*
X1857Y287D01*
X1886Y287D02*
X2014Y287D01*
X1706Y286D02*
X1857Y286D01*
X1886Y286D02*
X2014Y286D01*
X1706Y285D02*
X1857Y285D01*
X1886Y285D02*
X2014Y285D01*
X1706Y284D02*
X1857Y284D01*
X1886Y284D02*
X2014Y284D01*
X1706Y283D02*
X1857Y283D01*
X1886Y283D02*
X2014Y283D01*
X1706Y282D02*
X1857Y282D01*
X1886Y282D02*
X2014Y282D01*
X1706Y281D02*
X1857Y281D01*
X1886Y281D02*
X2014Y281D01*
X1706Y280D02*
X1857Y280D01*
X1886Y280D02*
X2014Y280D01*
X1706Y279D02*
X1857Y279D01*
X1886Y279D02*
X2014Y279D01*
X1706Y278D02*
X1857Y278D01*
X1886Y278D02*
X2014Y278D01*
X1706Y277D02*
X1857Y277D01*
X1886Y277D02*
X2014Y277D01*
X1706Y276D02*
X1857Y276D01*
X1886Y276D02*
X2014Y276D01*
X1706Y275D02*
X1857Y275D01*
X1886Y275D02*
X2014Y275D01*
X1706Y274D02*
X1857Y274D01*
X1886Y274D02*
X2014Y274D01*
X1706Y273D02*
X1857Y273D01*
X1886Y273D02*
X2014Y273D01*
X1706Y272D02*
X1857Y272D01*
X1886Y272D02*
X2014Y272D01*
X1706Y271D02*
X1857Y271D01*
X1886Y271D02*
X2014Y271D01*
X1706Y270D02*
X1857Y270D01*
X1886Y270D02*
X2014Y270D01*
X1706Y269D02*
X1857Y269D01*
X1886Y269D02*
X2014Y269D01*
X1706Y268D02*
X1857Y268D01*
X1886Y268D02*
X2014Y268D01*
X1706Y267D02*
X1857Y267D01*
X1886Y267D02*
X2014Y267D01*
X1706Y266D02*
X1857Y266D01*
X1886Y266D02*
X2014Y266D01*
X1706Y265D02*
X1857Y265D01*
X1886Y265D02*
X2014Y265D01*
X1706Y264D02*
X1857Y264D01*
X1886Y264D02*
X2014Y264D01*
X1706Y263D02*
X1857Y263D01*
X1886Y263D02*
X2014Y263D01*
X1706Y262D02*
X1857Y262D01*
X1886Y262D02*
X2014Y262D01*
X1706Y261D02*
X1856Y261D01*
X1886Y261D02*
X2014Y261D01*
X1706Y260D02*
X1854Y260D01*
X1888Y260D02*
X2014Y260D01*
X1706Y259D02*
X1853Y259D01*
X1890Y259D02*
X2014Y259D01*
X1706Y258D02*
X1851Y258D01*
X1891Y258D02*
X2014Y258D01*
X1706Y257D02*
X1850Y257D01*
X1892Y257D02*
X2014Y257D01*
X1706Y256D02*
X1849Y256D01*
X1894Y256D02*
X2014Y256D01*
X1706Y255D02*
X1848Y255D01*
X1895Y255D02*
X2014Y255D01*
X1706Y254D02*
X1847Y254D01*
X1896Y254D02*
X2014Y254D01*
X1706Y253D02*
X1846Y253D01*
X1896Y253D02*
X2014Y253D01*
X1706Y252D02*
X1845Y252D01*
X1897Y252D02*
X2014Y252D01*
X1706Y251D02*
X1845Y251D01*
X1898Y251D02*
X2014Y251D01*
X1706Y250D02*
X1844Y250D01*
X1899Y250D02*
X2014Y250D01*
X1706Y249D02*
X1843Y249D01*
X1899Y249D02*
X2014Y249D01*
X1706Y248D02*
X1843Y248D01*
X1900Y248D02*
X2014Y248D01*
X1706Y247D02*
X1842Y247D01*
X1900Y247D02*
X2014Y247D01*
X1706Y246D02*
X1842Y246D01*
X1901Y246D02*
X2014Y246D01*
X1706Y245D02*
X1841Y245D01*
X1901Y245D02*
X2014Y245D01*
X1706Y244D02*
X1841Y244D01*
X1902Y244D02*
X2014Y244D01*
X1706Y243D02*
X1840Y243D01*
X1902Y243D02*
X2014Y243D01*
X1706Y242D02*
X1840Y242D01*
X1902Y242D02*
X2014Y242D01*
X1706Y241D02*
X1840Y241D01*
X1903Y241D02*
X2014Y241D01*
X1706Y240D02*
X1840Y240D01*
X1903Y240D02*
X2014Y240D01*
X1706Y239D02*
X1839Y239D01*
X1903Y239D02*
X2014Y239D01*
X1706Y238D02*
X1839Y238D01*
X1903Y238D02*
X2014Y238D01*
X1706Y237D02*
X1839Y237D01*
X1904Y237D02*
X2014Y237D01*
X1706Y236D02*
X1839Y236D01*
X1904Y236D02*
X2014Y236D01*
X1706Y235D02*
X1839Y235D01*
X1904Y235D02*
X2014Y235D01*
X1706Y234D02*
X1839Y234D01*
X1904Y234D02*
X2014Y234D01*
X1706Y233D02*
X1839Y233D01*
X1904Y233D02*
X2014Y233D01*
X1706Y232D02*
X1839Y232D01*
X1904Y232D02*
X2014Y232D01*
X1706Y231D02*
X1839Y231D01*
X1904Y231D02*
X2014Y231D01*
X1706Y230D02*
X1839Y230D01*
X1904Y230D02*
X2014Y230D01*
X1706Y229D02*
X1839Y229D01*
X1904Y229D02*
X2014Y229D01*
X1706Y228D02*
X1839Y228D01*
X1903Y228D02*
X2014Y228D01*
X1706Y227D02*
X1839Y227D01*
X1903Y227D02*
X2014Y227D01*
X1706Y226D02*
X1839Y226D01*
X1903Y226D02*
X2014Y226D01*
X1706Y225D02*
X1840Y225D01*
X1903Y225D02*
X2014Y225D01*
X1706Y224D02*
X1840Y224D01*
X1903Y224D02*
X2014Y224D01*
X1706Y223D02*
X1840Y223D01*
X1902Y223D02*
X2014Y223D01*
X1706Y222D02*
X1840Y222D01*
X1902Y222D02*
X2014Y222D01*
X1706Y221D02*
X1841Y221D01*
X1902Y221D02*
X2014Y221D01*
X1706Y220D02*
X1841Y220D01*
X1901Y220D02*
X2014Y220D01*
X1706Y219D02*
X1842Y219D01*
X1901Y219D02*
X2014Y219D01*
X1706Y218D02*
X1842Y218D01*
X1900Y218D02*
X2014Y218D01*
X1706Y217D02*
X1843Y217D01*
X1900Y217D02*
X2014Y217D01*
X1706Y216D02*
X1843Y216D01*
X1899Y216D02*
X2014Y216D01*
X1706Y215D02*
X1844Y215D01*
X1899Y215D02*
X2014Y215D01*
X1706Y214D02*
X1845Y214D01*
X1898Y214D02*
X2014Y214D01*
X1706Y213D02*
X1845Y213D01*
X1897Y213D02*
X2014Y213D01*
X1706Y212D02*
X1846Y212D01*
X1896Y212D02*
X2014Y212D01*
X1706Y211D02*
X1847Y211D01*
X1895Y211D02*
X2014Y211D01*
X1706Y210D02*
X1848Y210D01*
X1894Y210D02*
X2014Y210D01*
X1706Y209D02*
X1849Y209D01*
X1893Y209D02*
X2014Y209D01*
X1706Y208D02*
X1850Y208D01*
X1892Y208D02*
X2014Y208D01*
X1706Y207D02*
X1851Y207D01*
X1891Y207D02*
X2014Y207D01*
X1706Y206D02*
X1853Y206D01*
X1890Y206D02*
X2014Y206D01*
X1706Y205D02*
X1854Y205D01*
X1888Y205D02*
X2014Y205D01*
X1706Y204D02*
X1856Y204D01*
X1886Y204D02*
X2014Y204D01*
X1706Y203D02*
X1858Y203D01*
X1884Y203D02*
X2014Y203D01*
X1706Y202D02*
X1861Y202D01*
X1881Y202D02*
X2014Y202D01*
X1706Y201D02*
X1866Y201D01*
X1877Y201D02*
X2014Y201D01*
X1706Y200D02*
X2014Y200D01*
X1706Y199D02*
X2014Y199D01*
X1706Y198D02*
X2014Y198D01*
X1706Y197D02*
X2014Y197D01*
X1706Y196D02*
X2014Y196D01*
X1706Y195D02*
X2014Y195D01*
X1706Y194D02*
X2014Y194D01*
X1706Y193D02*
X2014Y193D01*
X1706Y192D02*
X2014Y192D01*
X1706Y191D02*
X2014Y191D01*
X1706Y190D02*
X2014Y190D01*
X1706Y189D02*
X2014Y189D01*
X1706Y188D02*
X2014Y188D01*
X1706Y187D02*
X2014Y187D01*
X1706Y186D02*
X2014Y186D01*
X1706Y185D02*
X2014Y185D01*
X1706Y184D02*
X2014Y184D01*
X1706Y183D02*
X2014Y183D01*
X1706Y182D02*
X2014Y182D01*
X1706Y181D02*
X2014Y181D01*
X1706Y180D02*
X2014Y180D01*
X1706Y179D02*
X2014Y179D01*
X1706Y178D02*
X2014Y178D01*
X1706Y177D02*
X2014Y177D01*
X1706Y176D02*
X2014Y176D01*
D02*
G04 End of Silk0*
M02*