G04 MADE WITH FRITZING*
G04 WWW.FRITZING.ORG*
G04 DOUBLE SIDED*
G04 HOLES PLATED*
G04 CONTOUR ON CENTER OF CONTOUR VECTOR*
%ASAXBY*%
%FSLAX23Y23*%
%MOIN*%
%OFA0B0*%
%SFA1.0B1.0*%
%ADD10C,0.075000*%
%ADD11C,0.078000*%
%ADD12C,0.074000*%
%ADD13C,0.039370*%
%ADD14C,0.062992*%
%ADD15R,0.075000X0.075000*%
%ADD16R,0.078000X0.078000*%
%ADD17R,0.039370X0.031496*%
%ADD18R,0.027559X0.059055*%
%ADD19R,0.062992X0.062992*%
%ADD20C,0.032000*%
%ADD21C,0.024000*%
%ADD22R,0.001000X0.001000*%
%LNCOPPER1*%
G90*
G70*
G54D10*
X123Y3112D03*
X604Y855D03*
X904Y855D03*
X604Y755D03*
X904Y755D03*
X604Y655D03*
X904Y655D03*
X604Y555D03*
X904Y555D03*
G54D11*
X1154Y155D03*
X1054Y155D03*
G54D12*
X304Y655D03*
X204Y655D03*
X304Y755D03*
X204Y755D03*
X304Y855D03*
X204Y855D03*
X304Y655D03*
X204Y655D03*
X304Y755D03*
X204Y755D03*
X304Y855D03*
X204Y855D03*
G54D13*
X154Y1105D03*
X104Y505D03*
G54D14*
X1504Y1307D03*
X1504Y1405D03*
X1154Y1307D03*
X1154Y1405D03*
X804Y1307D03*
X804Y1405D03*
X404Y1307D03*
X404Y1405D03*
X1504Y1707D03*
X1504Y1805D03*
X1154Y1707D03*
X1154Y1805D03*
X804Y1707D03*
X804Y1805D03*
X404Y1707D03*
X404Y1805D03*
X1504Y2107D03*
X1504Y2205D03*
X1154Y2107D03*
X1154Y2205D03*
X804Y2107D03*
X804Y2205D03*
X404Y2107D03*
X404Y2205D03*
X1504Y2507D03*
X1504Y2605D03*
X1154Y2507D03*
X1154Y2605D03*
X804Y2507D03*
X804Y2605D03*
X404Y2507D03*
X404Y2605D03*
X1504Y2907D03*
X1504Y3005D03*
X1154Y2907D03*
X1154Y3005D03*
X804Y2907D03*
X804Y3005D03*
X454Y2907D03*
X454Y3005D03*
G54D10*
X1604Y1005D03*
X1204Y1005D03*
X1604Y855D03*
X1204Y855D03*
X1604Y755D03*
X1204Y755D03*
X1604Y655D03*
X1204Y655D03*
X1604Y505D03*
X1204Y505D03*
G54D15*
X604Y855D03*
G54D16*
X1154Y155D03*
G54D17*
X561Y210D03*
X561Y124D03*
X888Y124D03*
X888Y210D03*
G54D18*
X636Y255D03*
X754Y255D03*
X813Y255D03*
G54D19*
X1504Y1307D03*
X1154Y1307D03*
X804Y1307D03*
X404Y1307D03*
X1504Y1707D03*
X1154Y1707D03*
X804Y1707D03*
X404Y1707D03*
X1504Y2107D03*
X1154Y2107D03*
X804Y2107D03*
X404Y2107D03*
X1504Y2507D03*
X1154Y2507D03*
X804Y2507D03*
X404Y2507D03*
X1504Y2907D03*
X1154Y2907D03*
X804Y2907D03*
X454Y2907D03*
G54D20*
X772Y2205D02*
X437Y2205D01*
D02*
X1472Y2605D02*
X1254Y2604D01*
D02*
X1254Y2604D02*
X1187Y2605D01*
D02*
X1122Y2605D02*
X1103Y2604D01*
D02*
X1103Y2604D02*
X837Y2605D01*
D02*
X772Y2605D02*
X437Y2605D01*
G54D21*
D02*
X777Y1805D02*
X431Y1805D01*
G54D20*
D02*
X1122Y1805D02*
X837Y1805D01*
D02*
X1187Y2205D02*
X1512Y2200D01*
D02*
X1512Y2200D02*
X1530Y2187D01*
D02*
X837Y2205D02*
X1122Y2205D01*
D02*
X1472Y1405D02*
X1205Y1404D01*
D02*
X1205Y1404D02*
X1187Y1405D01*
D02*
X1122Y1405D02*
X1054Y1404D01*
D02*
X1054Y1404D02*
X837Y1405D01*
D02*
X772Y1405D02*
X437Y1405D01*
D02*
X1472Y1805D02*
X1254Y1804D01*
D02*
X1254Y1804D02*
X1187Y1805D01*
D02*
X1756Y1004D02*
X1638Y1005D01*
D02*
X1703Y1404D02*
X1756Y1307D01*
D02*
X1756Y1155D02*
X1756Y1004D01*
D02*
X1756Y1307D02*
X1756Y1155D01*
D02*
X1537Y1405D02*
X1703Y1404D01*
D02*
X1805Y2853D02*
X1903Y2604D01*
D02*
X1756Y2507D02*
X1956Y2107D01*
D02*
X1903Y2604D02*
X2005Y2155D01*
D02*
X1903Y858D02*
X1636Y767D01*
D02*
X1956Y1355D02*
X1956Y804D01*
D02*
X1956Y804D02*
X1636Y669D01*
D02*
X1956Y2107D02*
X1956Y1355D01*
D02*
X1534Y2594D02*
X1756Y2507D01*
D02*
X2005Y707D02*
X1635Y521D01*
D02*
X2005Y2155D02*
X2005Y707D01*
D02*
X1533Y2991D02*
X1805Y2853D01*
D02*
X1903Y2004D02*
X1903Y858D01*
D02*
X1533Y2191D02*
X1903Y2004D01*
D02*
X703Y755D02*
X638Y755D01*
D02*
X756Y955D02*
X703Y755D01*
D02*
X1854Y955D02*
X1636Y868D01*
D02*
X1854Y1755D02*
X1854Y955D01*
D02*
X1536Y1801D02*
X1854Y1755D01*
D02*
X956Y604D02*
X929Y579D01*
D02*
X1103Y604D02*
X956Y604D01*
D02*
X1005Y707D02*
X935Y671D01*
D02*
X1174Y671D02*
X1103Y707D01*
D02*
X1103Y707D02*
X1005Y707D01*
D02*
X1005Y804D02*
X935Y770D01*
D02*
X1173Y770D02*
X1103Y804D01*
D02*
X1103Y804D02*
X1005Y804D01*
D02*
X1176Y874D02*
X1054Y955D01*
D02*
X1054Y955D02*
X756Y955D01*
D02*
X1103Y1053D02*
X805Y1053D01*
D02*
X805Y1053D02*
X503Y955D01*
D02*
X503Y707D02*
X574Y671D01*
D02*
X503Y955D02*
X503Y707D01*
D02*
X1173Y1020D02*
X1103Y1053D01*
D02*
X1180Y529D02*
X1103Y604D01*
D02*
X103Y658D02*
X104Y530D01*
D02*
X103Y955D02*
X103Y658D01*
D02*
X146Y1082D02*
X103Y955D01*
D02*
X903Y307D02*
X821Y260D01*
D02*
X503Y53D02*
X405Y155D01*
D02*
X1043Y189D02*
X1005Y307D01*
D02*
X1005Y307D02*
X903Y307D01*
D02*
X405Y404D02*
X577Y535D01*
D02*
X1103Y53D02*
X503Y53D01*
D02*
X405Y155D02*
X405Y404D01*
D02*
X756Y707D02*
X805Y858D01*
D02*
X854Y453D02*
X756Y707D01*
D02*
X805Y858D02*
X870Y856D01*
D02*
X756Y307D02*
X854Y453D01*
D02*
X755Y279D02*
X756Y307D01*
D02*
X1138Y124D02*
X1103Y53D01*
D02*
X1472Y3005D02*
X1187Y3005D01*
D02*
X1122Y3005D02*
X837Y3005D01*
D02*
X772Y3005D02*
X487Y3005D01*
G36*
X776Y929D02*
X776Y925D01*
X774Y925D01*
X774Y917D01*
X772Y917D01*
X772Y909D01*
X770Y909D01*
X770Y903D01*
X910Y903D01*
X910Y901D01*
X918Y901D01*
X918Y899D01*
X924Y899D01*
X924Y897D01*
X928Y897D01*
X928Y895D01*
X930Y895D01*
X930Y893D01*
X934Y893D01*
X934Y891D01*
X936Y891D01*
X936Y889D01*
X938Y889D01*
X938Y887D01*
X940Y887D01*
X940Y885D01*
X942Y885D01*
X942Y883D01*
X944Y883D01*
X944Y879D01*
X946Y879D01*
X946Y875D01*
X948Y875D01*
X948Y869D01*
X950Y869D01*
X950Y861D01*
X952Y861D01*
X952Y849D01*
X950Y849D01*
X950Y841D01*
X948Y841D01*
X948Y835D01*
X946Y835D01*
X946Y831D01*
X944Y831D01*
X944Y829D01*
X1112Y829D01*
X1112Y827D01*
X1116Y827D01*
X1116Y825D01*
X1122Y825D01*
X1122Y823D01*
X1126Y823D01*
X1126Y821D01*
X1130Y821D01*
X1130Y819D01*
X1134Y819D01*
X1134Y817D01*
X1138Y817D01*
X1138Y815D01*
X1142Y815D01*
X1142Y813D01*
X1146Y813D01*
X1146Y811D01*
X1150Y811D01*
X1150Y809D01*
X1154Y809D01*
X1154Y807D01*
X1158Y807D01*
X1158Y805D01*
X1178Y805D01*
X1178Y817D01*
X1174Y817D01*
X1174Y819D01*
X1172Y819D01*
X1172Y821D01*
X1170Y821D01*
X1170Y823D01*
X1168Y823D01*
X1168Y825D01*
X1166Y825D01*
X1166Y829D01*
X1164Y829D01*
X1164Y831D01*
X1162Y831D01*
X1162Y835D01*
X1160Y835D01*
X1160Y841D01*
X1158Y841D01*
X1158Y849D01*
X1156Y849D01*
X1156Y857D01*
X1152Y857D01*
X1152Y859D01*
X1150Y859D01*
X1150Y861D01*
X1146Y861D01*
X1146Y863D01*
X1144Y863D01*
X1144Y865D01*
X1140Y865D01*
X1140Y867D01*
X1138Y867D01*
X1138Y869D01*
X1134Y869D01*
X1134Y871D01*
X1132Y871D01*
X1132Y873D01*
X1128Y873D01*
X1128Y875D01*
X1126Y875D01*
X1126Y877D01*
X1122Y877D01*
X1122Y879D01*
X1120Y879D01*
X1120Y881D01*
X1116Y881D01*
X1116Y883D01*
X1114Y883D01*
X1114Y885D01*
X1110Y885D01*
X1110Y887D01*
X1108Y887D01*
X1108Y889D01*
X1104Y889D01*
X1104Y891D01*
X1102Y891D01*
X1102Y893D01*
X1098Y893D01*
X1098Y895D01*
X1096Y895D01*
X1096Y897D01*
X1092Y897D01*
X1092Y899D01*
X1090Y899D01*
X1090Y901D01*
X1086Y901D01*
X1086Y903D01*
X1084Y903D01*
X1084Y905D01*
X1080Y905D01*
X1080Y907D01*
X1078Y907D01*
X1078Y909D01*
X1074Y909D01*
X1074Y911D01*
X1072Y911D01*
X1072Y913D01*
X1068Y913D01*
X1068Y915D01*
X1066Y915D01*
X1066Y917D01*
X1062Y917D01*
X1062Y919D01*
X1060Y919D01*
X1060Y921D01*
X1056Y921D01*
X1056Y923D01*
X1054Y923D01*
X1054Y925D01*
X1050Y925D01*
X1050Y927D01*
X1048Y927D01*
X1048Y929D01*
X776Y929D01*
G37*
D02*
G36*
X770Y903D02*
X770Y901D01*
X768Y901D01*
X768Y895D01*
X766Y895D01*
X766Y887D01*
X764Y887D01*
X764Y879D01*
X762Y879D01*
X762Y871D01*
X760Y871D01*
X760Y865D01*
X758Y865D01*
X758Y857D01*
X756Y857D01*
X756Y849D01*
X754Y849D01*
X754Y843D01*
X774Y843D01*
X774Y849D01*
X776Y849D01*
X776Y855D01*
X778Y855D01*
X778Y861D01*
X780Y861D01*
X780Y867D01*
X782Y867D01*
X782Y871D01*
X784Y871D01*
X784Y873D01*
X786Y873D01*
X786Y875D01*
X788Y875D01*
X788Y877D01*
X790Y877D01*
X790Y879D01*
X792Y879D01*
X792Y881D01*
X798Y881D01*
X798Y883D01*
X866Y883D01*
X866Y885D01*
X868Y885D01*
X868Y887D01*
X870Y887D01*
X870Y889D01*
X872Y889D01*
X872Y891D01*
X874Y891D01*
X874Y893D01*
X878Y893D01*
X878Y895D01*
X880Y895D01*
X880Y897D01*
X884Y897D01*
X884Y899D01*
X890Y899D01*
X890Y901D01*
X898Y901D01*
X898Y903D01*
X770Y903D01*
G37*
D02*
G36*
X944Y829D02*
X944Y827D01*
X942Y827D01*
X942Y825D01*
X940Y825D01*
X940Y823D01*
X938Y823D01*
X938Y821D01*
X936Y821D01*
X936Y819D01*
X934Y819D01*
X934Y817D01*
X930Y817D01*
X930Y815D01*
X928Y815D01*
X928Y805D01*
X950Y805D01*
X950Y807D01*
X954Y807D01*
X954Y809D01*
X958Y809D01*
X958Y811D01*
X962Y811D01*
X962Y813D01*
X966Y813D01*
X966Y815D01*
X970Y815D01*
X970Y817D01*
X974Y817D01*
X974Y819D01*
X978Y819D01*
X978Y821D01*
X982Y821D01*
X982Y823D01*
X988Y823D01*
X988Y825D01*
X992Y825D01*
X992Y827D01*
X996Y827D01*
X996Y829D01*
X944Y829D01*
G37*
D02*
G36*
X1856Y929D02*
X1856Y927D01*
X1852Y927D01*
X1852Y925D01*
X1846Y925D01*
X1846Y923D01*
X1842Y923D01*
X1842Y921D01*
X1836Y921D01*
X1836Y919D01*
X1832Y919D01*
X1832Y917D01*
X1826Y917D01*
X1826Y915D01*
X1822Y915D01*
X1822Y913D01*
X1816Y913D01*
X1816Y911D01*
X1812Y911D01*
X1812Y909D01*
X1806Y909D01*
X1806Y907D01*
X1802Y907D01*
X1802Y905D01*
X1796Y905D01*
X1796Y903D01*
X1792Y903D01*
X1792Y901D01*
X1786Y901D01*
X1786Y899D01*
X1782Y899D01*
X1782Y897D01*
X1776Y897D01*
X1776Y895D01*
X1772Y895D01*
X1772Y893D01*
X1766Y893D01*
X1766Y891D01*
X1762Y891D01*
X1762Y889D01*
X1756Y889D01*
X1756Y887D01*
X1752Y887D01*
X1752Y885D01*
X1746Y885D01*
X1746Y883D01*
X1742Y883D01*
X1742Y881D01*
X1736Y881D01*
X1736Y879D01*
X1732Y879D01*
X1732Y877D01*
X1726Y877D01*
X1726Y875D01*
X1722Y875D01*
X1722Y873D01*
X1716Y873D01*
X1716Y871D01*
X1712Y871D01*
X1712Y869D01*
X1706Y869D01*
X1706Y867D01*
X1702Y867D01*
X1702Y865D01*
X1696Y865D01*
X1696Y863D01*
X1692Y863D01*
X1692Y861D01*
X1686Y861D01*
X1686Y859D01*
X1682Y859D01*
X1682Y857D01*
X1676Y857D01*
X1676Y855D01*
X1672Y855D01*
X1672Y853D01*
X1666Y853D01*
X1666Y851D01*
X1662Y851D01*
X1662Y849D01*
X1656Y849D01*
X1656Y847D01*
X1652Y847D01*
X1652Y845D01*
X1650Y845D01*
X1650Y841D01*
X1648Y841D01*
X1648Y835D01*
X1646Y835D01*
X1646Y831D01*
X1644Y831D01*
X1644Y827D01*
X1642Y827D01*
X1642Y825D01*
X1640Y825D01*
X1640Y823D01*
X1638Y823D01*
X1638Y821D01*
X1636Y821D01*
X1636Y819D01*
X1634Y819D01*
X1634Y817D01*
X1630Y817D01*
X1630Y815D01*
X1628Y815D01*
X1628Y797D01*
X1650Y797D01*
X1650Y799D01*
X1656Y799D01*
X1656Y801D01*
X1662Y801D01*
X1662Y803D01*
X1668Y803D01*
X1668Y805D01*
X1672Y805D01*
X1672Y807D01*
X1678Y807D01*
X1678Y809D01*
X1684Y809D01*
X1684Y811D01*
X1690Y811D01*
X1690Y813D01*
X1696Y813D01*
X1696Y815D01*
X1702Y815D01*
X1702Y817D01*
X1708Y817D01*
X1708Y819D01*
X1714Y819D01*
X1714Y821D01*
X1720Y821D01*
X1720Y823D01*
X1726Y823D01*
X1726Y825D01*
X1732Y825D01*
X1732Y827D01*
X1738Y827D01*
X1738Y829D01*
X1744Y829D01*
X1744Y831D01*
X1748Y831D01*
X1748Y833D01*
X1754Y833D01*
X1754Y835D01*
X1760Y835D01*
X1760Y837D01*
X1766Y837D01*
X1766Y839D01*
X1772Y839D01*
X1772Y841D01*
X1778Y841D01*
X1778Y843D01*
X1784Y843D01*
X1784Y845D01*
X1790Y845D01*
X1790Y847D01*
X1796Y847D01*
X1796Y849D01*
X1802Y849D01*
X1802Y851D01*
X1808Y851D01*
X1808Y853D01*
X1814Y853D01*
X1814Y855D01*
X1820Y855D01*
X1820Y857D01*
X1824Y857D01*
X1824Y859D01*
X1830Y859D01*
X1830Y861D01*
X1836Y861D01*
X1836Y863D01*
X1842Y863D01*
X1842Y865D01*
X1848Y865D01*
X1848Y867D01*
X1854Y867D01*
X1854Y869D01*
X1860Y869D01*
X1860Y871D01*
X1866Y871D01*
X1866Y873D01*
X1872Y873D01*
X1872Y875D01*
X1876Y875D01*
X1876Y929D01*
X1856Y929D01*
G37*
D02*
G36*
X244Y833D02*
X244Y829D01*
X242Y829D01*
X242Y827D01*
X240Y827D01*
X240Y823D01*
X238Y823D01*
X238Y821D01*
X236Y821D01*
X236Y819D01*
X232Y819D01*
X232Y817D01*
X230Y817D01*
X230Y815D01*
X226Y815D01*
X226Y795D01*
X230Y795D01*
X230Y793D01*
X232Y793D01*
X232Y791D01*
X236Y791D01*
X236Y789D01*
X238Y789D01*
X238Y787D01*
X240Y787D01*
X240Y783D01*
X242Y783D01*
X242Y781D01*
X244Y781D01*
X244Y777D01*
X264Y777D01*
X264Y781D01*
X266Y781D01*
X266Y783D01*
X268Y783D01*
X268Y785D01*
X270Y785D01*
X270Y789D01*
X274Y789D01*
X274Y791D01*
X276Y791D01*
X276Y793D01*
X278Y793D01*
X278Y795D01*
X282Y795D01*
X282Y815D01*
X278Y815D01*
X278Y817D01*
X276Y817D01*
X276Y819D01*
X274Y819D01*
X274Y821D01*
X270Y821D01*
X270Y825D01*
X268Y825D01*
X268Y827D01*
X266Y827D01*
X266Y829D01*
X264Y829D01*
X264Y833D01*
X244Y833D01*
G37*
D02*
G36*
X824Y831D02*
X824Y827D01*
X822Y827D01*
X822Y821D01*
X820Y821D01*
X820Y815D01*
X818Y815D01*
X818Y809D01*
X816Y809D01*
X816Y803D01*
X814Y803D01*
X814Y797D01*
X812Y797D01*
X812Y791D01*
X810Y791D01*
X810Y785D01*
X808Y785D01*
X808Y779D01*
X806Y779D01*
X806Y773D01*
X804Y773D01*
X804Y765D01*
X802Y765D01*
X802Y759D01*
X800Y759D01*
X800Y753D01*
X798Y753D01*
X798Y747D01*
X796Y747D01*
X796Y741D01*
X794Y741D01*
X794Y735D01*
X792Y735D01*
X792Y729D01*
X790Y729D01*
X790Y723D01*
X788Y723D01*
X788Y693D01*
X790Y693D01*
X790Y689D01*
X792Y689D01*
X792Y683D01*
X794Y683D01*
X794Y679D01*
X796Y679D01*
X796Y673D01*
X798Y673D01*
X798Y667D01*
X800Y667D01*
X800Y663D01*
X802Y663D01*
X802Y657D01*
X804Y657D01*
X804Y653D01*
X806Y653D01*
X806Y647D01*
X808Y647D01*
X808Y641D01*
X810Y641D01*
X810Y637D01*
X812Y637D01*
X812Y631D01*
X814Y631D01*
X814Y627D01*
X816Y627D01*
X816Y621D01*
X818Y621D01*
X818Y615D01*
X820Y615D01*
X820Y611D01*
X822Y611D01*
X822Y605D01*
X824Y605D01*
X824Y601D01*
X826Y601D01*
X826Y595D01*
X828Y595D01*
X828Y591D01*
X830Y591D01*
X830Y585D01*
X832Y585D01*
X832Y579D01*
X834Y579D01*
X834Y575D01*
X836Y575D01*
X836Y569D01*
X838Y569D01*
X838Y565D01*
X858Y565D01*
X858Y569D01*
X860Y569D01*
X860Y575D01*
X862Y575D01*
X862Y579D01*
X864Y579D01*
X864Y581D01*
X866Y581D01*
X866Y585D01*
X868Y585D01*
X868Y587D01*
X870Y587D01*
X870Y589D01*
X872Y589D01*
X872Y591D01*
X874Y591D01*
X874Y593D01*
X878Y593D01*
X878Y595D01*
X880Y595D01*
X880Y615D01*
X878Y615D01*
X878Y617D01*
X874Y617D01*
X874Y619D01*
X872Y619D01*
X872Y621D01*
X870Y621D01*
X870Y623D01*
X868Y623D01*
X868Y625D01*
X866Y625D01*
X866Y629D01*
X864Y629D01*
X864Y631D01*
X862Y631D01*
X862Y635D01*
X860Y635D01*
X860Y641D01*
X858Y641D01*
X858Y649D01*
X856Y649D01*
X856Y661D01*
X858Y661D01*
X858Y669D01*
X860Y669D01*
X860Y675D01*
X862Y675D01*
X862Y679D01*
X864Y679D01*
X864Y681D01*
X866Y681D01*
X866Y685D01*
X868Y685D01*
X868Y687D01*
X870Y687D01*
X870Y689D01*
X872Y689D01*
X872Y691D01*
X874Y691D01*
X874Y693D01*
X878Y693D01*
X878Y695D01*
X880Y695D01*
X880Y715D01*
X878Y715D01*
X878Y717D01*
X874Y717D01*
X874Y719D01*
X872Y719D01*
X872Y721D01*
X870Y721D01*
X870Y723D01*
X868Y723D01*
X868Y725D01*
X866Y725D01*
X866Y729D01*
X864Y729D01*
X864Y731D01*
X862Y731D01*
X862Y735D01*
X860Y735D01*
X860Y741D01*
X858Y741D01*
X858Y749D01*
X856Y749D01*
X856Y761D01*
X858Y761D01*
X858Y769D01*
X860Y769D01*
X860Y775D01*
X862Y775D01*
X862Y779D01*
X864Y779D01*
X864Y781D01*
X866Y781D01*
X866Y785D01*
X868Y785D01*
X868Y787D01*
X870Y787D01*
X870Y789D01*
X872Y789D01*
X872Y791D01*
X874Y791D01*
X874Y793D01*
X878Y793D01*
X878Y795D01*
X880Y795D01*
X880Y815D01*
X878Y815D01*
X878Y817D01*
X874Y817D01*
X874Y819D01*
X872Y819D01*
X872Y821D01*
X870Y821D01*
X870Y823D01*
X868Y823D01*
X868Y825D01*
X866Y825D01*
X866Y829D01*
X860Y829D01*
X860Y831D01*
X824Y831D01*
G37*
D02*
G36*
X1886Y825D02*
X1886Y823D01*
X1880Y823D01*
X1880Y821D01*
X1874Y821D01*
X1874Y819D01*
X1868Y819D01*
X1868Y817D01*
X1862Y817D01*
X1862Y815D01*
X1856Y815D01*
X1856Y813D01*
X1852Y813D01*
X1852Y811D01*
X1846Y811D01*
X1846Y809D01*
X1840Y809D01*
X1840Y807D01*
X1834Y807D01*
X1834Y805D01*
X1828Y805D01*
X1828Y803D01*
X1822Y803D01*
X1822Y801D01*
X1816Y801D01*
X1816Y799D01*
X1810Y799D01*
X1810Y797D01*
X1804Y797D01*
X1804Y795D01*
X1798Y795D01*
X1798Y793D01*
X1792Y793D01*
X1792Y791D01*
X1786Y791D01*
X1786Y789D01*
X1780Y789D01*
X1780Y787D01*
X1776Y787D01*
X1776Y785D01*
X1770Y785D01*
X1770Y783D01*
X1764Y783D01*
X1764Y781D01*
X1758Y781D01*
X1758Y779D01*
X1752Y779D01*
X1752Y777D01*
X1746Y777D01*
X1746Y775D01*
X1740Y775D01*
X1740Y773D01*
X1734Y773D01*
X1734Y771D01*
X1728Y771D01*
X1728Y769D01*
X1722Y769D01*
X1722Y767D01*
X1716Y767D01*
X1716Y765D01*
X1710Y765D01*
X1710Y763D01*
X1704Y763D01*
X1704Y761D01*
X1700Y761D01*
X1700Y759D01*
X1694Y759D01*
X1694Y757D01*
X1688Y757D01*
X1688Y755D01*
X1682Y755D01*
X1682Y753D01*
X1676Y753D01*
X1676Y751D01*
X1670Y751D01*
X1670Y749D01*
X1664Y749D01*
X1664Y747D01*
X1658Y747D01*
X1658Y745D01*
X1652Y745D01*
X1652Y743D01*
X1650Y743D01*
X1650Y741D01*
X1648Y741D01*
X1648Y735D01*
X1646Y735D01*
X1646Y731D01*
X1644Y731D01*
X1644Y727D01*
X1642Y727D01*
X1642Y725D01*
X1640Y725D01*
X1640Y723D01*
X1638Y723D01*
X1638Y721D01*
X1636Y721D01*
X1636Y719D01*
X1634Y719D01*
X1634Y717D01*
X1630Y717D01*
X1630Y715D01*
X1628Y715D01*
X1628Y701D01*
X1648Y701D01*
X1648Y703D01*
X1654Y703D01*
X1654Y705D01*
X1658Y705D01*
X1658Y707D01*
X1662Y707D01*
X1662Y709D01*
X1668Y709D01*
X1668Y711D01*
X1672Y711D01*
X1672Y713D01*
X1676Y713D01*
X1676Y715D01*
X1682Y715D01*
X1682Y717D01*
X1686Y717D01*
X1686Y719D01*
X1692Y719D01*
X1692Y721D01*
X1696Y721D01*
X1696Y723D01*
X1700Y723D01*
X1700Y725D01*
X1706Y725D01*
X1706Y727D01*
X1710Y727D01*
X1710Y729D01*
X1714Y729D01*
X1714Y731D01*
X1720Y731D01*
X1720Y733D01*
X1724Y733D01*
X1724Y735D01*
X1728Y735D01*
X1728Y737D01*
X1734Y737D01*
X1734Y739D01*
X1738Y739D01*
X1738Y741D01*
X1744Y741D01*
X1744Y743D01*
X1748Y743D01*
X1748Y745D01*
X1752Y745D01*
X1752Y747D01*
X1758Y747D01*
X1758Y749D01*
X1762Y749D01*
X1762Y751D01*
X1766Y751D01*
X1766Y753D01*
X1772Y753D01*
X1772Y755D01*
X1776Y755D01*
X1776Y757D01*
X1780Y757D01*
X1780Y759D01*
X1786Y759D01*
X1786Y761D01*
X1790Y761D01*
X1790Y763D01*
X1796Y763D01*
X1796Y765D01*
X1800Y765D01*
X1800Y767D01*
X1804Y767D01*
X1804Y769D01*
X1810Y769D01*
X1810Y771D01*
X1814Y771D01*
X1814Y773D01*
X1818Y773D01*
X1818Y775D01*
X1824Y775D01*
X1824Y777D01*
X1828Y777D01*
X1828Y779D01*
X1834Y779D01*
X1834Y781D01*
X1838Y781D01*
X1838Y783D01*
X1842Y783D01*
X1842Y785D01*
X1848Y785D01*
X1848Y787D01*
X1852Y787D01*
X1852Y789D01*
X1856Y789D01*
X1856Y791D01*
X1862Y791D01*
X1862Y793D01*
X1866Y793D01*
X1866Y795D01*
X1870Y795D01*
X1870Y797D01*
X1876Y797D01*
X1876Y799D01*
X1880Y799D01*
X1880Y801D01*
X1886Y801D01*
X1886Y803D01*
X1890Y803D01*
X1890Y805D01*
X1894Y805D01*
X1894Y807D01*
X1900Y807D01*
X1900Y809D01*
X1904Y809D01*
X1904Y811D01*
X1908Y811D01*
X1908Y825D01*
X1886Y825D01*
G37*
D02*
G36*
X1008Y777D02*
X1008Y775D01*
X1004Y775D01*
X1004Y773D01*
X1000Y773D01*
X1000Y771D01*
X994Y771D01*
X994Y769D01*
X990Y769D01*
X990Y767D01*
X986Y767D01*
X986Y765D01*
X982Y765D01*
X982Y763D01*
X978Y763D01*
X978Y761D01*
X974Y761D01*
X974Y759D01*
X970Y759D01*
X970Y757D01*
X966Y757D01*
X966Y755D01*
X962Y755D01*
X962Y753D01*
X958Y753D01*
X958Y751D01*
X954Y751D01*
X954Y749D01*
X950Y749D01*
X950Y741D01*
X948Y741D01*
X948Y735D01*
X946Y735D01*
X946Y733D01*
X1106Y733D01*
X1106Y731D01*
X1114Y731D01*
X1114Y729D01*
X1118Y729D01*
X1118Y727D01*
X1122Y727D01*
X1122Y725D01*
X1126Y725D01*
X1126Y723D01*
X1130Y723D01*
X1130Y721D01*
X1134Y721D01*
X1134Y719D01*
X1138Y719D01*
X1138Y717D01*
X1142Y717D01*
X1142Y715D01*
X1146Y715D01*
X1146Y713D01*
X1150Y713D01*
X1150Y711D01*
X1152Y711D01*
X1152Y709D01*
X1174Y709D01*
X1174Y719D01*
X1172Y719D01*
X1172Y721D01*
X1170Y721D01*
X1170Y723D01*
X1168Y723D01*
X1168Y725D01*
X1166Y725D01*
X1166Y729D01*
X1164Y729D01*
X1164Y731D01*
X1162Y731D01*
X1162Y735D01*
X1160Y735D01*
X1160Y741D01*
X1158Y741D01*
X1158Y749D01*
X1154Y749D01*
X1154Y751D01*
X1150Y751D01*
X1150Y753D01*
X1146Y753D01*
X1146Y755D01*
X1142Y755D01*
X1142Y757D01*
X1138Y757D01*
X1138Y759D01*
X1134Y759D01*
X1134Y761D01*
X1130Y761D01*
X1130Y763D01*
X1126Y763D01*
X1126Y765D01*
X1122Y765D01*
X1122Y767D01*
X1118Y767D01*
X1118Y769D01*
X1114Y769D01*
X1114Y771D01*
X1110Y771D01*
X1110Y773D01*
X1106Y773D01*
X1106Y775D01*
X1100Y775D01*
X1100Y777D01*
X1008Y777D01*
G37*
D02*
G36*
X946Y733D02*
X946Y731D01*
X944Y731D01*
X944Y727D01*
X942Y727D01*
X942Y725D01*
X940Y725D01*
X940Y723D01*
X938Y723D01*
X938Y721D01*
X936Y721D01*
X936Y719D01*
X934Y719D01*
X934Y709D01*
X956Y709D01*
X956Y711D01*
X960Y711D01*
X960Y713D01*
X964Y713D01*
X964Y715D01*
X968Y715D01*
X968Y717D01*
X972Y717D01*
X972Y719D01*
X976Y719D01*
X976Y721D01*
X978Y721D01*
X978Y723D01*
X982Y723D01*
X982Y725D01*
X986Y725D01*
X986Y727D01*
X990Y727D01*
X990Y729D01*
X996Y729D01*
X996Y731D01*
X1004Y731D01*
X1004Y733D01*
X946Y733D01*
G37*
D02*
G36*
X40Y3195D02*
X40Y3047D01*
X1508Y3047D01*
X1508Y3045D01*
X1518Y3045D01*
X1518Y3043D01*
X1522Y3043D01*
X1522Y3041D01*
X1526Y3041D01*
X1526Y3039D01*
X1528Y3039D01*
X1528Y3037D01*
X1532Y3037D01*
X1532Y3035D01*
X1534Y3035D01*
X1534Y3033D01*
X1536Y3033D01*
X1536Y3029D01*
X1538Y3029D01*
X1538Y3027D01*
X1540Y3027D01*
X1540Y3023D01*
X1542Y3023D01*
X1542Y3019D01*
X1544Y3019D01*
X1544Y3013D01*
X1548Y3013D01*
X1548Y3011D01*
X1552Y3011D01*
X1552Y3009D01*
X1556Y3009D01*
X1556Y3007D01*
X1560Y3007D01*
X1560Y3005D01*
X1564Y3005D01*
X1564Y3003D01*
X1568Y3003D01*
X1568Y3001D01*
X1572Y3001D01*
X1572Y2999D01*
X1576Y2999D01*
X1576Y2997D01*
X1580Y2997D01*
X1580Y2995D01*
X1584Y2995D01*
X1584Y2993D01*
X1588Y2993D01*
X1588Y2991D01*
X1592Y2991D01*
X1592Y2989D01*
X1596Y2989D01*
X1596Y2987D01*
X1600Y2987D01*
X1600Y2985D01*
X1604Y2985D01*
X1604Y2983D01*
X1608Y2983D01*
X1608Y2981D01*
X1612Y2981D01*
X1612Y2979D01*
X1616Y2979D01*
X1616Y2977D01*
X1620Y2977D01*
X1620Y2975D01*
X1624Y2975D01*
X1624Y2973D01*
X1628Y2973D01*
X1628Y2971D01*
X1630Y2971D01*
X1630Y2969D01*
X1634Y2969D01*
X1634Y2967D01*
X1638Y2967D01*
X1638Y2965D01*
X1642Y2965D01*
X1642Y2963D01*
X1646Y2963D01*
X1646Y2961D01*
X1650Y2961D01*
X1650Y2959D01*
X1654Y2959D01*
X1654Y2957D01*
X1658Y2957D01*
X1658Y2955D01*
X1662Y2955D01*
X1662Y2953D01*
X1666Y2953D01*
X1666Y2951D01*
X1670Y2951D01*
X1670Y2949D01*
X1674Y2949D01*
X1674Y2947D01*
X1678Y2947D01*
X1678Y2945D01*
X1682Y2945D01*
X1682Y2943D01*
X1686Y2943D01*
X1686Y2941D01*
X1690Y2941D01*
X1690Y2939D01*
X1694Y2939D01*
X1694Y2937D01*
X1698Y2937D01*
X1698Y2935D01*
X1702Y2935D01*
X1702Y2933D01*
X1706Y2933D01*
X1706Y2931D01*
X1710Y2931D01*
X1710Y2929D01*
X1714Y2929D01*
X1714Y2927D01*
X1718Y2927D01*
X1718Y2925D01*
X1722Y2925D01*
X1722Y2923D01*
X1726Y2923D01*
X1726Y2921D01*
X1730Y2921D01*
X1730Y2919D01*
X1734Y2919D01*
X1734Y2917D01*
X1738Y2917D01*
X1738Y2915D01*
X1742Y2915D01*
X1742Y2913D01*
X1746Y2913D01*
X1746Y2911D01*
X1750Y2911D01*
X1750Y2909D01*
X1754Y2909D01*
X1754Y2907D01*
X1758Y2907D01*
X1758Y2905D01*
X1762Y2905D01*
X1762Y2903D01*
X1766Y2903D01*
X1766Y2901D01*
X1770Y2901D01*
X1770Y2899D01*
X1774Y2899D01*
X1774Y2897D01*
X1778Y2897D01*
X1778Y2895D01*
X1782Y2895D01*
X1782Y2893D01*
X1786Y2893D01*
X1786Y2891D01*
X1790Y2891D01*
X1790Y2889D01*
X1794Y2889D01*
X1794Y2887D01*
X1798Y2887D01*
X1798Y2885D01*
X1802Y2885D01*
X1802Y2883D01*
X1806Y2883D01*
X1806Y2881D01*
X1808Y2881D01*
X1808Y2879D01*
X1812Y2879D01*
X1812Y2877D01*
X1816Y2877D01*
X1816Y2875D01*
X1820Y2875D01*
X1820Y2873D01*
X1822Y2873D01*
X1822Y2871D01*
X1824Y2871D01*
X1824Y2869D01*
X1826Y2869D01*
X1826Y2867D01*
X1828Y2867D01*
X1828Y2863D01*
X1830Y2863D01*
X1830Y2859D01*
X1832Y2859D01*
X1832Y2853D01*
X1834Y2853D01*
X1834Y2849D01*
X1836Y2849D01*
X1836Y2843D01*
X1838Y2843D01*
X1838Y2837D01*
X1840Y2837D01*
X1840Y2833D01*
X1842Y2833D01*
X1842Y2827D01*
X1844Y2827D01*
X1844Y2823D01*
X1846Y2823D01*
X1846Y2817D01*
X1848Y2817D01*
X1848Y2813D01*
X1850Y2813D01*
X1850Y2807D01*
X1852Y2807D01*
X1852Y2803D01*
X1854Y2803D01*
X1854Y2797D01*
X1856Y2797D01*
X1856Y2793D01*
X1858Y2793D01*
X1858Y2787D01*
X1860Y2787D01*
X1860Y2781D01*
X1862Y2781D01*
X1862Y2777D01*
X1864Y2777D01*
X1864Y2771D01*
X1866Y2771D01*
X1866Y2767D01*
X1868Y2767D01*
X1868Y2761D01*
X1870Y2761D01*
X1870Y2757D01*
X1872Y2757D01*
X1872Y2751D01*
X1874Y2751D01*
X1874Y2747D01*
X1876Y2747D01*
X1876Y2741D01*
X1878Y2741D01*
X1878Y2737D01*
X1880Y2737D01*
X1880Y2731D01*
X1882Y2731D01*
X1882Y2725D01*
X1884Y2725D01*
X1884Y2721D01*
X1886Y2721D01*
X1886Y2715D01*
X1888Y2715D01*
X1888Y2711D01*
X1890Y2711D01*
X1890Y2705D01*
X1892Y2705D01*
X1892Y2701D01*
X1894Y2701D01*
X1894Y2695D01*
X1896Y2695D01*
X1896Y2691D01*
X1898Y2691D01*
X1898Y2685D01*
X1900Y2685D01*
X1900Y2681D01*
X1902Y2681D01*
X1902Y2675D01*
X1904Y2675D01*
X1904Y2669D01*
X1906Y2669D01*
X1906Y2665D01*
X1908Y2665D01*
X1908Y2659D01*
X1910Y2659D01*
X1910Y2655D01*
X1912Y2655D01*
X1912Y2649D01*
X1914Y2649D01*
X1914Y2645D01*
X1916Y2645D01*
X1916Y2639D01*
X1918Y2639D01*
X1918Y2635D01*
X1920Y2635D01*
X1920Y2629D01*
X1922Y2629D01*
X1922Y2625D01*
X1924Y2625D01*
X1924Y2619D01*
X1926Y2619D01*
X1926Y2613D01*
X1928Y2613D01*
X1928Y2607D01*
X1930Y2607D01*
X1930Y2597D01*
X1932Y2597D01*
X1932Y2589D01*
X1934Y2589D01*
X1934Y2581D01*
X1936Y2581D01*
X1936Y2571D01*
X1938Y2571D01*
X1938Y2563D01*
X1940Y2563D01*
X1940Y2555D01*
X1942Y2555D01*
X1942Y2545D01*
X1944Y2545D01*
X1944Y2537D01*
X1946Y2537D01*
X1946Y2527D01*
X1948Y2527D01*
X1948Y2519D01*
X1950Y2519D01*
X1950Y2511D01*
X1952Y2511D01*
X1952Y2501D01*
X1954Y2501D01*
X1954Y2493D01*
X1956Y2493D01*
X1956Y2483D01*
X1958Y2483D01*
X1958Y2475D01*
X1960Y2475D01*
X1960Y2467D01*
X1962Y2467D01*
X1962Y2457D01*
X1964Y2457D01*
X1964Y2449D01*
X1966Y2449D01*
X1966Y2439D01*
X1968Y2439D01*
X1968Y2431D01*
X1970Y2431D01*
X1970Y2423D01*
X1972Y2423D01*
X1972Y2413D01*
X1974Y2413D01*
X1974Y2405D01*
X1976Y2405D01*
X1976Y2395D01*
X1978Y2395D01*
X1978Y2387D01*
X1980Y2387D01*
X1980Y2379D01*
X1982Y2379D01*
X1982Y2369D01*
X1984Y2369D01*
X1984Y2361D01*
X1986Y2361D01*
X1986Y2353D01*
X1988Y2353D01*
X1988Y2343D01*
X1990Y2343D01*
X1990Y2335D01*
X1992Y2335D01*
X1992Y2325D01*
X1994Y2325D01*
X1994Y2317D01*
X1996Y2317D01*
X1996Y2309D01*
X1998Y2309D01*
X1998Y2299D01*
X2000Y2299D01*
X2000Y2291D01*
X2002Y2291D01*
X2002Y2281D01*
X2004Y2281D01*
X2004Y2273D01*
X2006Y2273D01*
X2006Y2265D01*
X2008Y2265D01*
X2008Y2255D01*
X2010Y2255D01*
X2010Y2247D01*
X2012Y2247D01*
X2012Y2237D01*
X2014Y2237D01*
X2014Y2229D01*
X2016Y2229D01*
X2016Y2221D01*
X2018Y2221D01*
X2018Y2211D01*
X2020Y2211D01*
X2020Y2203D01*
X2022Y2203D01*
X2022Y2193D01*
X2024Y2193D01*
X2024Y2185D01*
X2026Y2185D01*
X2026Y2177D01*
X2028Y2177D01*
X2028Y2167D01*
X2030Y2167D01*
X2030Y2157D01*
X2032Y2157D01*
X2032Y703D01*
X2030Y703D01*
X2030Y695D01*
X2028Y695D01*
X2028Y691D01*
X2026Y691D01*
X2026Y689D01*
X2024Y689D01*
X2024Y687D01*
X2022Y687D01*
X2022Y685D01*
X2018Y685D01*
X2018Y683D01*
X2016Y683D01*
X2016Y681D01*
X2012Y681D01*
X2012Y679D01*
X2008Y679D01*
X2008Y677D01*
X2004Y677D01*
X2004Y675D01*
X2000Y675D01*
X2000Y673D01*
X1996Y673D01*
X1996Y671D01*
X1992Y671D01*
X1992Y669D01*
X1988Y669D01*
X1988Y667D01*
X1984Y667D01*
X1984Y665D01*
X1980Y665D01*
X1980Y663D01*
X1976Y663D01*
X1976Y661D01*
X1972Y661D01*
X1972Y659D01*
X1968Y659D01*
X1968Y657D01*
X1964Y657D01*
X1964Y655D01*
X1960Y655D01*
X1960Y653D01*
X1956Y653D01*
X1956Y651D01*
X1952Y651D01*
X1952Y649D01*
X1948Y649D01*
X1948Y647D01*
X1944Y647D01*
X1944Y645D01*
X1940Y645D01*
X1940Y643D01*
X1936Y643D01*
X1936Y641D01*
X1932Y641D01*
X1932Y639D01*
X1928Y639D01*
X1928Y637D01*
X1924Y637D01*
X1924Y635D01*
X1920Y635D01*
X1920Y633D01*
X1916Y633D01*
X1916Y631D01*
X1912Y631D01*
X1912Y629D01*
X1908Y629D01*
X1908Y627D01*
X1904Y627D01*
X1904Y625D01*
X1900Y625D01*
X1900Y623D01*
X1896Y623D01*
X1896Y621D01*
X1892Y621D01*
X1892Y619D01*
X1888Y619D01*
X1888Y617D01*
X1884Y617D01*
X1884Y615D01*
X1880Y615D01*
X1880Y613D01*
X1876Y613D01*
X1876Y611D01*
X1872Y611D01*
X1872Y609D01*
X1868Y609D01*
X1868Y607D01*
X1864Y607D01*
X1864Y605D01*
X1860Y605D01*
X1860Y603D01*
X1856Y603D01*
X1856Y601D01*
X1852Y601D01*
X1852Y599D01*
X1848Y599D01*
X1848Y597D01*
X1844Y597D01*
X1844Y595D01*
X1840Y595D01*
X1840Y593D01*
X1836Y593D01*
X1836Y591D01*
X1832Y591D01*
X1832Y589D01*
X1828Y589D01*
X1828Y587D01*
X1824Y587D01*
X1824Y585D01*
X1820Y585D01*
X1820Y583D01*
X1816Y583D01*
X1816Y581D01*
X1812Y581D01*
X1812Y579D01*
X1808Y579D01*
X1808Y577D01*
X1804Y577D01*
X1804Y575D01*
X1800Y575D01*
X1800Y573D01*
X1796Y573D01*
X1796Y571D01*
X1792Y571D01*
X1792Y569D01*
X1788Y569D01*
X1788Y567D01*
X1784Y567D01*
X1784Y565D01*
X1780Y565D01*
X1780Y563D01*
X1776Y563D01*
X1776Y561D01*
X1772Y561D01*
X1772Y559D01*
X1768Y559D01*
X1768Y557D01*
X1764Y557D01*
X1764Y555D01*
X1760Y555D01*
X1760Y553D01*
X1756Y553D01*
X1756Y551D01*
X1752Y551D01*
X1752Y549D01*
X1748Y549D01*
X1748Y547D01*
X1744Y547D01*
X1744Y545D01*
X1740Y545D01*
X1740Y543D01*
X1736Y543D01*
X1736Y541D01*
X1732Y541D01*
X1732Y539D01*
X1728Y539D01*
X1728Y537D01*
X1724Y537D01*
X1724Y535D01*
X1720Y535D01*
X1720Y533D01*
X1716Y533D01*
X1716Y531D01*
X1712Y531D01*
X1712Y529D01*
X1708Y529D01*
X1708Y527D01*
X1704Y527D01*
X1704Y525D01*
X1700Y525D01*
X1700Y523D01*
X1696Y523D01*
X1696Y521D01*
X1692Y521D01*
X1692Y519D01*
X1688Y519D01*
X1688Y517D01*
X1684Y517D01*
X1684Y515D01*
X1680Y515D01*
X1680Y513D01*
X1676Y513D01*
X1676Y511D01*
X1672Y511D01*
X1672Y509D01*
X1668Y509D01*
X1668Y507D01*
X1664Y507D01*
X1664Y505D01*
X1660Y505D01*
X1660Y503D01*
X1656Y503D01*
X1656Y501D01*
X1652Y501D01*
X1652Y499D01*
X1650Y499D01*
X1650Y491D01*
X1648Y491D01*
X1648Y485D01*
X1646Y485D01*
X1646Y481D01*
X1644Y481D01*
X1644Y477D01*
X1642Y477D01*
X1642Y475D01*
X1640Y475D01*
X1640Y473D01*
X1638Y473D01*
X1638Y471D01*
X1636Y471D01*
X1636Y469D01*
X1634Y469D01*
X1634Y467D01*
X1630Y467D01*
X1630Y465D01*
X1628Y465D01*
X1628Y463D01*
X1624Y463D01*
X1624Y461D01*
X1618Y461D01*
X1618Y459D01*
X1610Y459D01*
X1610Y457D01*
X2078Y457D01*
X2078Y3195D01*
X40Y3195D01*
G37*
D02*
G36*
X40Y3047D02*
X40Y2865D01*
X412Y2865D01*
X412Y2947D01*
X414Y2947D01*
X414Y2949D01*
X436Y2949D01*
X436Y2969D01*
X432Y2969D01*
X432Y2971D01*
X430Y2971D01*
X430Y2973D01*
X426Y2973D01*
X426Y2975D01*
X424Y2975D01*
X424Y2977D01*
X422Y2977D01*
X422Y2981D01*
X420Y2981D01*
X420Y2983D01*
X418Y2983D01*
X418Y2987D01*
X416Y2987D01*
X416Y2991D01*
X414Y2991D01*
X414Y3001D01*
X412Y3001D01*
X412Y3009D01*
X414Y3009D01*
X414Y3019D01*
X416Y3019D01*
X416Y3023D01*
X418Y3023D01*
X418Y3027D01*
X420Y3027D01*
X420Y3029D01*
X422Y3029D01*
X422Y3033D01*
X424Y3033D01*
X424Y3035D01*
X426Y3035D01*
X426Y3037D01*
X430Y3037D01*
X430Y3039D01*
X432Y3039D01*
X432Y3041D01*
X436Y3041D01*
X436Y3043D01*
X440Y3043D01*
X440Y3045D01*
X450Y3045D01*
X450Y3047D01*
X40Y3047D01*
G37*
D02*
G36*
X458Y3047D02*
X458Y3045D01*
X468Y3045D01*
X468Y3043D01*
X472Y3043D01*
X472Y3041D01*
X476Y3041D01*
X476Y3039D01*
X478Y3039D01*
X478Y3037D01*
X482Y3037D01*
X482Y3035D01*
X484Y3035D01*
X484Y3033D01*
X486Y3033D01*
X486Y3031D01*
X772Y3031D01*
X772Y3033D01*
X774Y3033D01*
X774Y3035D01*
X776Y3035D01*
X776Y3037D01*
X780Y3037D01*
X780Y3039D01*
X782Y3039D01*
X782Y3041D01*
X786Y3041D01*
X786Y3043D01*
X790Y3043D01*
X790Y3045D01*
X800Y3045D01*
X800Y3047D01*
X458Y3047D01*
G37*
D02*
G36*
X808Y3047D02*
X808Y3045D01*
X818Y3045D01*
X818Y3043D01*
X822Y3043D01*
X822Y3041D01*
X826Y3041D01*
X826Y3039D01*
X828Y3039D01*
X828Y3037D01*
X832Y3037D01*
X832Y3035D01*
X834Y3035D01*
X834Y3033D01*
X836Y3033D01*
X836Y3031D01*
X1122Y3031D01*
X1122Y3033D01*
X1124Y3033D01*
X1124Y3035D01*
X1126Y3035D01*
X1126Y3037D01*
X1130Y3037D01*
X1130Y3039D01*
X1132Y3039D01*
X1132Y3041D01*
X1136Y3041D01*
X1136Y3043D01*
X1140Y3043D01*
X1140Y3045D01*
X1150Y3045D01*
X1150Y3047D01*
X808Y3047D01*
G37*
D02*
G36*
X1158Y3047D02*
X1158Y3045D01*
X1168Y3045D01*
X1168Y3043D01*
X1172Y3043D01*
X1172Y3041D01*
X1176Y3041D01*
X1176Y3039D01*
X1178Y3039D01*
X1178Y3037D01*
X1182Y3037D01*
X1182Y3035D01*
X1184Y3035D01*
X1184Y3033D01*
X1186Y3033D01*
X1186Y3031D01*
X1472Y3031D01*
X1472Y3033D01*
X1474Y3033D01*
X1474Y3035D01*
X1476Y3035D01*
X1476Y3037D01*
X1480Y3037D01*
X1480Y3039D01*
X1482Y3039D01*
X1482Y3041D01*
X1486Y3041D01*
X1486Y3043D01*
X1490Y3043D01*
X1490Y3045D01*
X1500Y3045D01*
X1500Y3047D01*
X1158Y3047D01*
G37*
D02*
G36*
X486Y2979D02*
X486Y2977D01*
X484Y2977D01*
X484Y2975D01*
X482Y2975D01*
X482Y2973D01*
X478Y2973D01*
X478Y2971D01*
X476Y2971D01*
X476Y2969D01*
X472Y2969D01*
X472Y2949D01*
X494Y2949D01*
X494Y2947D01*
X496Y2947D01*
X496Y2865D01*
X762Y2865D01*
X762Y2947D01*
X764Y2947D01*
X764Y2949D01*
X786Y2949D01*
X786Y2969D01*
X782Y2969D01*
X782Y2971D01*
X780Y2971D01*
X780Y2973D01*
X776Y2973D01*
X776Y2975D01*
X774Y2975D01*
X774Y2977D01*
X772Y2977D01*
X772Y2979D01*
X486Y2979D01*
G37*
D02*
G36*
X836Y2979D02*
X836Y2977D01*
X834Y2977D01*
X834Y2975D01*
X832Y2975D01*
X832Y2973D01*
X828Y2973D01*
X828Y2971D01*
X826Y2971D01*
X826Y2969D01*
X822Y2969D01*
X822Y2949D01*
X844Y2949D01*
X844Y2947D01*
X846Y2947D01*
X846Y2865D01*
X1112Y2865D01*
X1112Y2947D01*
X1114Y2947D01*
X1114Y2949D01*
X1136Y2949D01*
X1136Y2969D01*
X1132Y2969D01*
X1132Y2971D01*
X1130Y2971D01*
X1130Y2973D01*
X1126Y2973D01*
X1126Y2975D01*
X1124Y2975D01*
X1124Y2977D01*
X1122Y2977D01*
X1122Y2979D01*
X836Y2979D01*
G37*
D02*
G36*
X1186Y2979D02*
X1186Y2977D01*
X1184Y2977D01*
X1184Y2975D01*
X1182Y2975D01*
X1182Y2973D01*
X1178Y2973D01*
X1178Y2971D01*
X1176Y2971D01*
X1176Y2969D01*
X1172Y2969D01*
X1172Y2949D01*
X1194Y2949D01*
X1194Y2947D01*
X1196Y2947D01*
X1196Y2865D01*
X1462Y2865D01*
X1462Y2947D01*
X1464Y2947D01*
X1464Y2949D01*
X1486Y2949D01*
X1486Y2969D01*
X1482Y2969D01*
X1482Y2971D01*
X1480Y2971D01*
X1480Y2973D01*
X1476Y2973D01*
X1476Y2975D01*
X1474Y2975D01*
X1474Y2977D01*
X1472Y2977D01*
X1472Y2979D01*
X1186Y2979D01*
G37*
D02*
G36*
X1546Y2945D02*
X1546Y2865D01*
X1722Y2865D01*
X1722Y2867D01*
X1718Y2867D01*
X1718Y2869D01*
X1714Y2869D01*
X1714Y2871D01*
X1710Y2871D01*
X1710Y2873D01*
X1706Y2873D01*
X1706Y2875D01*
X1702Y2875D01*
X1702Y2877D01*
X1698Y2877D01*
X1698Y2879D01*
X1694Y2879D01*
X1694Y2881D01*
X1690Y2881D01*
X1690Y2883D01*
X1686Y2883D01*
X1686Y2885D01*
X1682Y2885D01*
X1682Y2887D01*
X1678Y2887D01*
X1678Y2889D01*
X1674Y2889D01*
X1674Y2891D01*
X1670Y2891D01*
X1670Y2893D01*
X1666Y2893D01*
X1666Y2895D01*
X1662Y2895D01*
X1662Y2897D01*
X1658Y2897D01*
X1658Y2899D01*
X1654Y2899D01*
X1654Y2901D01*
X1650Y2901D01*
X1650Y2903D01*
X1646Y2903D01*
X1646Y2905D01*
X1642Y2905D01*
X1642Y2907D01*
X1638Y2907D01*
X1638Y2909D01*
X1634Y2909D01*
X1634Y2911D01*
X1630Y2911D01*
X1630Y2913D01*
X1626Y2913D01*
X1626Y2915D01*
X1622Y2915D01*
X1622Y2917D01*
X1618Y2917D01*
X1618Y2919D01*
X1614Y2919D01*
X1614Y2921D01*
X1610Y2921D01*
X1610Y2923D01*
X1606Y2923D01*
X1606Y2925D01*
X1602Y2925D01*
X1602Y2927D01*
X1598Y2927D01*
X1598Y2929D01*
X1594Y2929D01*
X1594Y2931D01*
X1590Y2931D01*
X1590Y2933D01*
X1586Y2933D01*
X1586Y2935D01*
X1582Y2935D01*
X1582Y2937D01*
X1578Y2937D01*
X1578Y2939D01*
X1576Y2939D01*
X1576Y2941D01*
X1572Y2941D01*
X1572Y2943D01*
X1568Y2943D01*
X1568Y2945D01*
X1546Y2945D01*
G37*
D02*
G36*
X40Y2865D02*
X40Y2863D01*
X1726Y2863D01*
X1726Y2865D01*
X40Y2865D01*
G37*
D02*
G36*
X40Y2865D02*
X40Y2863D01*
X1726Y2863D01*
X1726Y2865D01*
X40Y2865D01*
G37*
D02*
G36*
X40Y2865D02*
X40Y2863D01*
X1726Y2863D01*
X1726Y2865D01*
X40Y2865D01*
G37*
D02*
G36*
X40Y2865D02*
X40Y2863D01*
X1726Y2863D01*
X1726Y2865D01*
X40Y2865D01*
G37*
D02*
G36*
X40Y2865D02*
X40Y2863D01*
X1726Y2863D01*
X1726Y2865D01*
X40Y2865D01*
G37*
D02*
G36*
X40Y2863D02*
X40Y2647D01*
X1508Y2647D01*
X1508Y2645D01*
X1518Y2645D01*
X1518Y2643D01*
X1522Y2643D01*
X1522Y2641D01*
X1526Y2641D01*
X1526Y2639D01*
X1528Y2639D01*
X1528Y2637D01*
X1532Y2637D01*
X1532Y2635D01*
X1534Y2635D01*
X1534Y2633D01*
X1536Y2633D01*
X1536Y2629D01*
X1538Y2629D01*
X1538Y2627D01*
X1540Y2627D01*
X1540Y2623D01*
X1542Y2623D01*
X1542Y2619D01*
X1544Y2619D01*
X1544Y2617D01*
X1548Y2617D01*
X1548Y2615D01*
X1552Y2615D01*
X1552Y2613D01*
X1558Y2613D01*
X1558Y2611D01*
X1562Y2611D01*
X1562Y2609D01*
X1568Y2609D01*
X1568Y2607D01*
X1572Y2607D01*
X1572Y2605D01*
X1578Y2605D01*
X1578Y2603D01*
X1584Y2603D01*
X1584Y2601D01*
X1588Y2601D01*
X1588Y2599D01*
X1594Y2599D01*
X1594Y2597D01*
X1598Y2597D01*
X1598Y2595D01*
X1604Y2595D01*
X1604Y2593D01*
X1608Y2593D01*
X1608Y2591D01*
X1614Y2591D01*
X1614Y2589D01*
X1618Y2589D01*
X1618Y2587D01*
X1624Y2587D01*
X1624Y2585D01*
X1628Y2585D01*
X1628Y2583D01*
X1634Y2583D01*
X1634Y2581D01*
X1640Y2581D01*
X1640Y2579D01*
X1644Y2579D01*
X1644Y2577D01*
X1650Y2577D01*
X1650Y2575D01*
X1654Y2575D01*
X1654Y2573D01*
X1660Y2573D01*
X1660Y2571D01*
X1664Y2571D01*
X1664Y2569D01*
X1670Y2569D01*
X1670Y2567D01*
X1674Y2567D01*
X1674Y2565D01*
X1680Y2565D01*
X1680Y2563D01*
X1686Y2563D01*
X1686Y2561D01*
X1690Y2561D01*
X1690Y2559D01*
X1696Y2559D01*
X1696Y2557D01*
X1700Y2557D01*
X1700Y2555D01*
X1706Y2555D01*
X1706Y2553D01*
X1710Y2553D01*
X1710Y2551D01*
X1716Y2551D01*
X1716Y2549D01*
X1720Y2549D01*
X1720Y2547D01*
X1726Y2547D01*
X1726Y2545D01*
X1730Y2545D01*
X1730Y2543D01*
X1736Y2543D01*
X1736Y2541D01*
X1742Y2541D01*
X1742Y2539D01*
X1746Y2539D01*
X1746Y2537D01*
X1752Y2537D01*
X1752Y2535D01*
X1756Y2535D01*
X1756Y2533D01*
X1762Y2533D01*
X1762Y2531D01*
X1766Y2531D01*
X1766Y2529D01*
X1770Y2529D01*
X1770Y2527D01*
X1772Y2527D01*
X1772Y2525D01*
X1776Y2525D01*
X1776Y2521D01*
X1778Y2521D01*
X1778Y2519D01*
X1780Y2519D01*
X1780Y2515D01*
X1782Y2515D01*
X1782Y2511D01*
X1784Y2511D01*
X1784Y2507D01*
X1786Y2507D01*
X1786Y2503D01*
X1788Y2503D01*
X1788Y2499D01*
X1790Y2499D01*
X1790Y2495D01*
X1792Y2495D01*
X1792Y2491D01*
X1794Y2491D01*
X1794Y2487D01*
X1796Y2487D01*
X1796Y2483D01*
X1798Y2483D01*
X1798Y2479D01*
X1800Y2479D01*
X1800Y2475D01*
X1802Y2475D01*
X1802Y2471D01*
X1804Y2471D01*
X1804Y2467D01*
X1806Y2467D01*
X1806Y2463D01*
X1808Y2463D01*
X1808Y2459D01*
X1810Y2459D01*
X1810Y2455D01*
X1812Y2455D01*
X1812Y2451D01*
X1814Y2451D01*
X1814Y2447D01*
X1816Y2447D01*
X1816Y2443D01*
X1818Y2443D01*
X1818Y2439D01*
X1820Y2439D01*
X1820Y2435D01*
X1822Y2435D01*
X1822Y2431D01*
X1824Y2431D01*
X1824Y2427D01*
X1826Y2427D01*
X1826Y2423D01*
X1828Y2423D01*
X1828Y2419D01*
X1830Y2419D01*
X1830Y2415D01*
X1832Y2415D01*
X1832Y2411D01*
X1834Y2411D01*
X1834Y2407D01*
X1836Y2407D01*
X1836Y2403D01*
X1838Y2403D01*
X1838Y2399D01*
X1840Y2399D01*
X1840Y2395D01*
X1842Y2395D01*
X1842Y2391D01*
X1844Y2391D01*
X1844Y2387D01*
X1846Y2387D01*
X1846Y2383D01*
X1848Y2383D01*
X1848Y2379D01*
X1850Y2379D01*
X1850Y2375D01*
X1852Y2375D01*
X1852Y2371D01*
X1854Y2371D01*
X1854Y2367D01*
X1856Y2367D01*
X1856Y2363D01*
X1858Y2363D01*
X1858Y2359D01*
X1860Y2359D01*
X1860Y2355D01*
X1862Y2355D01*
X1862Y2351D01*
X1864Y2351D01*
X1864Y2347D01*
X1866Y2347D01*
X1866Y2343D01*
X1868Y2343D01*
X1868Y2339D01*
X1870Y2339D01*
X1870Y2335D01*
X1872Y2335D01*
X1872Y2331D01*
X1874Y2331D01*
X1874Y2327D01*
X1876Y2327D01*
X1876Y2323D01*
X1878Y2323D01*
X1878Y2319D01*
X1880Y2319D01*
X1880Y2315D01*
X1882Y2315D01*
X1882Y2311D01*
X1884Y2311D01*
X1884Y2307D01*
X1886Y2307D01*
X1886Y2303D01*
X1888Y2303D01*
X1888Y2299D01*
X1890Y2299D01*
X1890Y2295D01*
X1892Y2295D01*
X1892Y2291D01*
X1894Y2291D01*
X1894Y2287D01*
X1896Y2287D01*
X1896Y2283D01*
X1898Y2283D01*
X1898Y2279D01*
X1900Y2279D01*
X1900Y2275D01*
X1902Y2275D01*
X1902Y2271D01*
X1904Y2271D01*
X1904Y2267D01*
X1906Y2267D01*
X1906Y2263D01*
X1908Y2263D01*
X1908Y2259D01*
X1910Y2259D01*
X1910Y2255D01*
X1912Y2255D01*
X1912Y2251D01*
X1914Y2251D01*
X1914Y2247D01*
X1916Y2247D01*
X1916Y2243D01*
X1918Y2243D01*
X1918Y2239D01*
X1920Y2239D01*
X1920Y2235D01*
X1922Y2235D01*
X1922Y2231D01*
X1924Y2231D01*
X1924Y2227D01*
X1926Y2227D01*
X1926Y2223D01*
X1928Y2223D01*
X1928Y2219D01*
X1930Y2219D01*
X1930Y2215D01*
X1932Y2215D01*
X1932Y2211D01*
X1934Y2211D01*
X1934Y2207D01*
X1936Y2207D01*
X1936Y2203D01*
X1938Y2203D01*
X1938Y2199D01*
X1940Y2199D01*
X1940Y2195D01*
X1942Y2195D01*
X1942Y2191D01*
X1944Y2191D01*
X1944Y2187D01*
X1946Y2187D01*
X1946Y2183D01*
X1948Y2183D01*
X1948Y2179D01*
X1950Y2179D01*
X1950Y2175D01*
X1952Y2175D01*
X1952Y2171D01*
X1954Y2171D01*
X1954Y2167D01*
X1956Y2167D01*
X1956Y2163D01*
X1976Y2163D01*
X1976Y2171D01*
X1974Y2171D01*
X1974Y2179D01*
X1972Y2179D01*
X1972Y2189D01*
X1970Y2189D01*
X1970Y2197D01*
X1968Y2197D01*
X1968Y2205D01*
X1966Y2205D01*
X1966Y2215D01*
X1964Y2215D01*
X1964Y2223D01*
X1962Y2223D01*
X1962Y2233D01*
X1960Y2233D01*
X1960Y2241D01*
X1958Y2241D01*
X1958Y2249D01*
X1956Y2249D01*
X1956Y2259D01*
X1954Y2259D01*
X1954Y2267D01*
X1952Y2267D01*
X1952Y2275D01*
X1950Y2275D01*
X1950Y2285D01*
X1948Y2285D01*
X1948Y2293D01*
X1946Y2293D01*
X1946Y2303D01*
X1944Y2303D01*
X1944Y2311D01*
X1942Y2311D01*
X1942Y2319D01*
X1940Y2319D01*
X1940Y2329D01*
X1938Y2329D01*
X1938Y2337D01*
X1936Y2337D01*
X1936Y2347D01*
X1934Y2347D01*
X1934Y2355D01*
X1932Y2355D01*
X1932Y2363D01*
X1930Y2363D01*
X1930Y2373D01*
X1928Y2373D01*
X1928Y2381D01*
X1926Y2381D01*
X1926Y2391D01*
X1924Y2391D01*
X1924Y2399D01*
X1922Y2399D01*
X1922Y2407D01*
X1920Y2407D01*
X1920Y2417D01*
X1918Y2417D01*
X1918Y2425D01*
X1916Y2425D01*
X1916Y2435D01*
X1914Y2435D01*
X1914Y2443D01*
X1912Y2443D01*
X1912Y2451D01*
X1910Y2451D01*
X1910Y2461D01*
X1908Y2461D01*
X1908Y2469D01*
X1906Y2469D01*
X1906Y2479D01*
X1904Y2479D01*
X1904Y2487D01*
X1902Y2487D01*
X1902Y2495D01*
X1900Y2495D01*
X1900Y2505D01*
X1898Y2505D01*
X1898Y2513D01*
X1896Y2513D01*
X1896Y2521D01*
X1894Y2521D01*
X1894Y2531D01*
X1892Y2531D01*
X1892Y2539D01*
X1890Y2539D01*
X1890Y2549D01*
X1888Y2549D01*
X1888Y2557D01*
X1886Y2557D01*
X1886Y2565D01*
X1884Y2565D01*
X1884Y2575D01*
X1882Y2575D01*
X1882Y2583D01*
X1880Y2583D01*
X1880Y2593D01*
X1878Y2593D01*
X1878Y2599D01*
X1876Y2599D01*
X1876Y2605D01*
X1874Y2605D01*
X1874Y2609D01*
X1872Y2609D01*
X1872Y2615D01*
X1870Y2615D01*
X1870Y2619D01*
X1868Y2619D01*
X1868Y2625D01*
X1866Y2625D01*
X1866Y2629D01*
X1864Y2629D01*
X1864Y2635D01*
X1862Y2635D01*
X1862Y2639D01*
X1860Y2639D01*
X1860Y2645D01*
X1858Y2645D01*
X1858Y2649D01*
X1856Y2649D01*
X1856Y2655D01*
X1854Y2655D01*
X1854Y2661D01*
X1852Y2661D01*
X1852Y2665D01*
X1850Y2665D01*
X1850Y2671D01*
X1848Y2671D01*
X1848Y2675D01*
X1846Y2675D01*
X1846Y2681D01*
X1844Y2681D01*
X1844Y2685D01*
X1842Y2685D01*
X1842Y2691D01*
X1840Y2691D01*
X1840Y2695D01*
X1838Y2695D01*
X1838Y2701D01*
X1836Y2701D01*
X1836Y2705D01*
X1834Y2705D01*
X1834Y2711D01*
X1832Y2711D01*
X1832Y2717D01*
X1830Y2717D01*
X1830Y2721D01*
X1828Y2721D01*
X1828Y2727D01*
X1826Y2727D01*
X1826Y2731D01*
X1824Y2731D01*
X1824Y2737D01*
X1822Y2737D01*
X1822Y2741D01*
X1820Y2741D01*
X1820Y2747D01*
X1818Y2747D01*
X1818Y2751D01*
X1816Y2751D01*
X1816Y2757D01*
X1814Y2757D01*
X1814Y2761D01*
X1812Y2761D01*
X1812Y2767D01*
X1810Y2767D01*
X1810Y2773D01*
X1808Y2773D01*
X1808Y2777D01*
X1806Y2777D01*
X1806Y2783D01*
X1804Y2783D01*
X1804Y2787D01*
X1802Y2787D01*
X1802Y2793D01*
X1800Y2793D01*
X1800Y2797D01*
X1798Y2797D01*
X1798Y2803D01*
X1796Y2803D01*
X1796Y2807D01*
X1794Y2807D01*
X1794Y2813D01*
X1792Y2813D01*
X1792Y2817D01*
X1790Y2817D01*
X1790Y2823D01*
X1788Y2823D01*
X1788Y2829D01*
X1786Y2829D01*
X1786Y2833D01*
X1784Y2833D01*
X1784Y2835D01*
X1780Y2835D01*
X1780Y2837D01*
X1776Y2837D01*
X1776Y2839D01*
X1772Y2839D01*
X1772Y2841D01*
X1768Y2841D01*
X1768Y2843D01*
X1764Y2843D01*
X1764Y2845D01*
X1760Y2845D01*
X1760Y2847D01*
X1758Y2847D01*
X1758Y2849D01*
X1754Y2849D01*
X1754Y2851D01*
X1750Y2851D01*
X1750Y2853D01*
X1746Y2853D01*
X1746Y2855D01*
X1742Y2855D01*
X1742Y2857D01*
X1738Y2857D01*
X1738Y2859D01*
X1734Y2859D01*
X1734Y2861D01*
X1730Y2861D01*
X1730Y2863D01*
X40Y2863D01*
G37*
D02*
G36*
X40Y2647D02*
X40Y2465D01*
X362Y2465D01*
X362Y2547D01*
X364Y2547D01*
X364Y2549D01*
X386Y2549D01*
X386Y2569D01*
X382Y2569D01*
X382Y2571D01*
X380Y2571D01*
X380Y2573D01*
X376Y2573D01*
X376Y2575D01*
X374Y2575D01*
X374Y2577D01*
X372Y2577D01*
X372Y2581D01*
X370Y2581D01*
X370Y2583D01*
X368Y2583D01*
X368Y2587D01*
X366Y2587D01*
X366Y2591D01*
X364Y2591D01*
X364Y2601D01*
X362Y2601D01*
X362Y2609D01*
X364Y2609D01*
X364Y2619D01*
X366Y2619D01*
X366Y2623D01*
X368Y2623D01*
X368Y2627D01*
X370Y2627D01*
X370Y2629D01*
X372Y2629D01*
X372Y2633D01*
X374Y2633D01*
X374Y2635D01*
X376Y2635D01*
X376Y2637D01*
X380Y2637D01*
X380Y2639D01*
X382Y2639D01*
X382Y2641D01*
X386Y2641D01*
X386Y2643D01*
X390Y2643D01*
X390Y2645D01*
X400Y2645D01*
X400Y2647D01*
X40Y2647D01*
G37*
D02*
G36*
X408Y2647D02*
X408Y2645D01*
X418Y2645D01*
X418Y2643D01*
X422Y2643D01*
X422Y2641D01*
X426Y2641D01*
X426Y2639D01*
X428Y2639D01*
X428Y2637D01*
X432Y2637D01*
X432Y2635D01*
X434Y2635D01*
X434Y2633D01*
X436Y2633D01*
X436Y2631D01*
X772Y2631D01*
X772Y2633D01*
X774Y2633D01*
X774Y2635D01*
X776Y2635D01*
X776Y2637D01*
X780Y2637D01*
X780Y2639D01*
X782Y2639D01*
X782Y2641D01*
X786Y2641D01*
X786Y2643D01*
X790Y2643D01*
X790Y2645D01*
X800Y2645D01*
X800Y2647D01*
X408Y2647D01*
G37*
D02*
G36*
X808Y2647D02*
X808Y2645D01*
X818Y2645D01*
X818Y2643D01*
X822Y2643D01*
X822Y2641D01*
X826Y2641D01*
X826Y2639D01*
X828Y2639D01*
X828Y2637D01*
X832Y2637D01*
X832Y2635D01*
X834Y2635D01*
X834Y2633D01*
X836Y2633D01*
X836Y2631D01*
X1074Y2631D01*
X1074Y2629D01*
X1108Y2629D01*
X1108Y2631D01*
X1122Y2631D01*
X1122Y2633D01*
X1124Y2633D01*
X1124Y2635D01*
X1126Y2635D01*
X1126Y2637D01*
X1130Y2637D01*
X1130Y2639D01*
X1132Y2639D01*
X1132Y2641D01*
X1136Y2641D01*
X1136Y2643D01*
X1140Y2643D01*
X1140Y2645D01*
X1150Y2645D01*
X1150Y2647D01*
X808Y2647D01*
G37*
D02*
G36*
X1158Y2647D02*
X1158Y2645D01*
X1168Y2645D01*
X1168Y2643D01*
X1172Y2643D01*
X1172Y2641D01*
X1176Y2641D01*
X1176Y2639D01*
X1178Y2639D01*
X1178Y2637D01*
X1182Y2637D01*
X1182Y2635D01*
X1184Y2635D01*
X1184Y2633D01*
X1186Y2633D01*
X1186Y2631D01*
X1244Y2631D01*
X1244Y2629D01*
X1280Y2629D01*
X1280Y2631D01*
X1472Y2631D01*
X1472Y2633D01*
X1474Y2633D01*
X1474Y2635D01*
X1476Y2635D01*
X1476Y2637D01*
X1480Y2637D01*
X1480Y2639D01*
X1482Y2639D01*
X1482Y2641D01*
X1486Y2641D01*
X1486Y2643D01*
X1490Y2643D01*
X1490Y2645D01*
X1500Y2645D01*
X1500Y2647D01*
X1158Y2647D01*
G37*
D02*
G36*
X436Y2579D02*
X436Y2577D01*
X434Y2577D01*
X434Y2575D01*
X432Y2575D01*
X432Y2573D01*
X428Y2573D01*
X428Y2571D01*
X426Y2571D01*
X426Y2569D01*
X422Y2569D01*
X422Y2549D01*
X444Y2549D01*
X444Y2547D01*
X446Y2547D01*
X446Y2465D01*
X762Y2465D01*
X762Y2547D01*
X764Y2547D01*
X764Y2549D01*
X786Y2549D01*
X786Y2569D01*
X782Y2569D01*
X782Y2571D01*
X780Y2571D01*
X780Y2573D01*
X776Y2573D01*
X776Y2575D01*
X774Y2575D01*
X774Y2577D01*
X772Y2577D01*
X772Y2579D01*
X436Y2579D01*
G37*
D02*
G36*
X836Y2579D02*
X836Y2577D01*
X834Y2577D01*
X834Y2575D01*
X832Y2575D01*
X832Y2573D01*
X828Y2573D01*
X828Y2571D01*
X826Y2571D01*
X826Y2569D01*
X822Y2569D01*
X822Y2549D01*
X844Y2549D01*
X844Y2547D01*
X846Y2547D01*
X846Y2465D01*
X1112Y2465D01*
X1112Y2547D01*
X1114Y2547D01*
X1114Y2549D01*
X1136Y2549D01*
X1136Y2569D01*
X1132Y2569D01*
X1132Y2571D01*
X1130Y2571D01*
X1130Y2573D01*
X1126Y2573D01*
X1126Y2575D01*
X1124Y2575D01*
X1124Y2577D01*
X1068Y2577D01*
X1068Y2579D01*
X836Y2579D01*
G37*
D02*
G36*
X1186Y2579D02*
X1186Y2577D01*
X1242Y2577D01*
X1242Y2579D01*
X1186Y2579D01*
G37*
D02*
G36*
X1282Y2579D02*
X1282Y2577D01*
X1472Y2577D01*
X1472Y2579D01*
X1282Y2579D01*
G37*
D02*
G36*
X1184Y2577D02*
X1184Y2575D01*
X1474Y2575D01*
X1474Y2577D01*
X1184Y2577D01*
G37*
D02*
G36*
X1184Y2577D02*
X1184Y2575D01*
X1474Y2575D01*
X1474Y2577D01*
X1184Y2577D01*
G37*
D02*
G36*
X1182Y2575D02*
X1182Y2573D01*
X1178Y2573D01*
X1178Y2571D01*
X1176Y2571D01*
X1176Y2569D01*
X1172Y2569D01*
X1172Y2549D01*
X1194Y2549D01*
X1194Y2547D01*
X1196Y2547D01*
X1196Y2465D01*
X1462Y2465D01*
X1462Y2547D01*
X1464Y2547D01*
X1464Y2549D01*
X1486Y2549D01*
X1486Y2569D01*
X1482Y2569D01*
X1482Y2571D01*
X1480Y2571D01*
X1480Y2573D01*
X1476Y2573D01*
X1476Y2575D01*
X1182Y2575D01*
G37*
D02*
G36*
X1546Y2553D02*
X1546Y2465D01*
X1748Y2465D01*
X1748Y2467D01*
X1746Y2467D01*
X1746Y2471D01*
X1744Y2471D01*
X1744Y2475D01*
X1742Y2475D01*
X1742Y2479D01*
X1740Y2479D01*
X1740Y2483D01*
X1738Y2483D01*
X1738Y2485D01*
X1736Y2485D01*
X1736Y2487D01*
X1732Y2487D01*
X1732Y2489D01*
X1726Y2489D01*
X1726Y2491D01*
X1722Y2491D01*
X1722Y2493D01*
X1716Y2493D01*
X1716Y2495D01*
X1710Y2495D01*
X1710Y2497D01*
X1706Y2497D01*
X1706Y2499D01*
X1700Y2499D01*
X1700Y2501D01*
X1696Y2501D01*
X1696Y2503D01*
X1690Y2503D01*
X1690Y2505D01*
X1686Y2505D01*
X1686Y2507D01*
X1680Y2507D01*
X1680Y2509D01*
X1676Y2509D01*
X1676Y2511D01*
X1670Y2511D01*
X1670Y2513D01*
X1664Y2513D01*
X1664Y2515D01*
X1660Y2515D01*
X1660Y2517D01*
X1654Y2517D01*
X1654Y2519D01*
X1650Y2519D01*
X1650Y2521D01*
X1644Y2521D01*
X1644Y2523D01*
X1640Y2523D01*
X1640Y2525D01*
X1634Y2525D01*
X1634Y2527D01*
X1630Y2527D01*
X1630Y2529D01*
X1624Y2529D01*
X1624Y2531D01*
X1620Y2531D01*
X1620Y2533D01*
X1614Y2533D01*
X1614Y2535D01*
X1608Y2535D01*
X1608Y2537D01*
X1604Y2537D01*
X1604Y2539D01*
X1598Y2539D01*
X1598Y2541D01*
X1594Y2541D01*
X1594Y2543D01*
X1588Y2543D01*
X1588Y2545D01*
X1584Y2545D01*
X1584Y2547D01*
X1578Y2547D01*
X1578Y2549D01*
X1574Y2549D01*
X1574Y2551D01*
X1568Y2551D01*
X1568Y2553D01*
X1546Y2553D01*
G37*
D02*
G36*
X40Y2465D02*
X40Y2463D01*
X1748Y2463D01*
X1748Y2465D01*
X40Y2465D01*
G37*
D02*
G36*
X40Y2465D02*
X40Y2463D01*
X1748Y2463D01*
X1748Y2465D01*
X40Y2465D01*
G37*
D02*
G36*
X40Y2465D02*
X40Y2463D01*
X1748Y2463D01*
X1748Y2465D01*
X40Y2465D01*
G37*
D02*
G36*
X40Y2465D02*
X40Y2463D01*
X1748Y2463D01*
X1748Y2465D01*
X40Y2465D01*
G37*
D02*
G36*
X40Y2465D02*
X40Y2463D01*
X1748Y2463D01*
X1748Y2465D01*
X40Y2465D01*
G37*
D02*
G36*
X40Y2463D02*
X40Y2247D01*
X1508Y2247D01*
X1508Y2245D01*
X1518Y2245D01*
X1518Y2243D01*
X1522Y2243D01*
X1522Y2241D01*
X1526Y2241D01*
X1526Y2239D01*
X1528Y2239D01*
X1528Y2237D01*
X1532Y2237D01*
X1532Y2235D01*
X1534Y2235D01*
X1534Y2233D01*
X1536Y2233D01*
X1536Y2229D01*
X1538Y2229D01*
X1538Y2227D01*
X1540Y2227D01*
X1540Y2223D01*
X1542Y2223D01*
X1542Y2219D01*
X1544Y2219D01*
X1544Y2213D01*
X1548Y2213D01*
X1548Y2211D01*
X1552Y2211D01*
X1552Y2209D01*
X1556Y2209D01*
X1556Y2207D01*
X1560Y2207D01*
X1560Y2205D01*
X1564Y2205D01*
X1564Y2203D01*
X1568Y2203D01*
X1568Y2201D01*
X1572Y2201D01*
X1572Y2199D01*
X1576Y2199D01*
X1576Y2197D01*
X1580Y2197D01*
X1580Y2195D01*
X1584Y2195D01*
X1584Y2193D01*
X1588Y2193D01*
X1588Y2191D01*
X1592Y2191D01*
X1592Y2189D01*
X1596Y2189D01*
X1596Y2187D01*
X1600Y2187D01*
X1600Y2185D01*
X1604Y2185D01*
X1604Y2183D01*
X1608Y2183D01*
X1608Y2181D01*
X1612Y2181D01*
X1612Y2179D01*
X1616Y2179D01*
X1616Y2177D01*
X1620Y2177D01*
X1620Y2175D01*
X1624Y2175D01*
X1624Y2173D01*
X1628Y2173D01*
X1628Y2171D01*
X1632Y2171D01*
X1632Y2169D01*
X1636Y2169D01*
X1636Y2167D01*
X1640Y2167D01*
X1640Y2165D01*
X1644Y2165D01*
X1644Y2163D01*
X1648Y2163D01*
X1648Y2161D01*
X1652Y2161D01*
X1652Y2159D01*
X1656Y2159D01*
X1656Y2157D01*
X1660Y2157D01*
X1660Y2155D01*
X1664Y2155D01*
X1664Y2153D01*
X1666Y2153D01*
X1666Y2151D01*
X1670Y2151D01*
X1670Y2149D01*
X1674Y2149D01*
X1674Y2147D01*
X1678Y2147D01*
X1678Y2145D01*
X1682Y2145D01*
X1682Y2143D01*
X1686Y2143D01*
X1686Y2141D01*
X1690Y2141D01*
X1690Y2139D01*
X1694Y2139D01*
X1694Y2137D01*
X1698Y2137D01*
X1698Y2135D01*
X1702Y2135D01*
X1702Y2133D01*
X1706Y2133D01*
X1706Y2131D01*
X1710Y2131D01*
X1710Y2129D01*
X1714Y2129D01*
X1714Y2127D01*
X1718Y2127D01*
X1718Y2125D01*
X1722Y2125D01*
X1722Y2123D01*
X1726Y2123D01*
X1726Y2121D01*
X1730Y2121D01*
X1730Y2119D01*
X1734Y2119D01*
X1734Y2117D01*
X1738Y2117D01*
X1738Y2115D01*
X1742Y2115D01*
X1742Y2113D01*
X1746Y2113D01*
X1746Y2111D01*
X1750Y2111D01*
X1750Y2109D01*
X1754Y2109D01*
X1754Y2107D01*
X1758Y2107D01*
X1758Y2105D01*
X1762Y2105D01*
X1762Y2103D01*
X1766Y2103D01*
X1766Y2101D01*
X1770Y2101D01*
X1770Y2099D01*
X1774Y2099D01*
X1774Y2097D01*
X1778Y2097D01*
X1778Y2095D01*
X1782Y2095D01*
X1782Y2093D01*
X1786Y2093D01*
X1786Y2091D01*
X1790Y2091D01*
X1790Y2089D01*
X1794Y2089D01*
X1794Y2087D01*
X1798Y2087D01*
X1798Y2085D01*
X1802Y2085D01*
X1802Y2083D01*
X1806Y2083D01*
X1806Y2081D01*
X1810Y2081D01*
X1810Y2079D01*
X1814Y2079D01*
X1814Y2077D01*
X1818Y2077D01*
X1818Y2075D01*
X1822Y2075D01*
X1822Y2073D01*
X1826Y2073D01*
X1826Y2071D01*
X1830Y2071D01*
X1830Y2069D01*
X1834Y2069D01*
X1834Y2067D01*
X1838Y2067D01*
X1838Y2065D01*
X1842Y2065D01*
X1842Y2063D01*
X1846Y2063D01*
X1846Y2061D01*
X1850Y2061D01*
X1850Y2059D01*
X1854Y2059D01*
X1854Y2057D01*
X1858Y2057D01*
X1858Y2055D01*
X1862Y2055D01*
X1862Y2053D01*
X1866Y2053D01*
X1866Y2051D01*
X1870Y2051D01*
X1870Y2049D01*
X1874Y2049D01*
X1874Y2047D01*
X1878Y2047D01*
X1878Y2045D01*
X1882Y2045D01*
X1882Y2043D01*
X1886Y2043D01*
X1886Y2041D01*
X1890Y2041D01*
X1890Y2039D01*
X1894Y2039D01*
X1894Y2037D01*
X1898Y2037D01*
X1898Y2035D01*
X1902Y2035D01*
X1902Y2033D01*
X1906Y2033D01*
X1906Y2031D01*
X1908Y2031D01*
X1908Y2029D01*
X1930Y2029D01*
X1930Y2103D01*
X1928Y2103D01*
X1928Y2107D01*
X1926Y2107D01*
X1926Y2111D01*
X1924Y2111D01*
X1924Y2115D01*
X1922Y2115D01*
X1922Y2119D01*
X1920Y2119D01*
X1920Y2123D01*
X1918Y2123D01*
X1918Y2127D01*
X1916Y2127D01*
X1916Y2131D01*
X1914Y2131D01*
X1914Y2135D01*
X1912Y2135D01*
X1912Y2139D01*
X1910Y2139D01*
X1910Y2143D01*
X1908Y2143D01*
X1908Y2147D01*
X1906Y2147D01*
X1906Y2151D01*
X1904Y2151D01*
X1904Y2155D01*
X1902Y2155D01*
X1902Y2159D01*
X1900Y2159D01*
X1900Y2163D01*
X1898Y2163D01*
X1898Y2167D01*
X1896Y2167D01*
X1896Y2171D01*
X1894Y2171D01*
X1894Y2175D01*
X1892Y2175D01*
X1892Y2179D01*
X1890Y2179D01*
X1890Y2183D01*
X1888Y2183D01*
X1888Y2187D01*
X1886Y2187D01*
X1886Y2191D01*
X1884Y2191D01*
X1884Y2195D01*
X1882Y2195D01*
X1882Y2199D01*
X1880Y2199D01*
X1880Y2203D01*
X1878Y2203D01*
X1878Y2207D01*
X1876Y2207D01*
X1876Y2211D01*
X1874Y2211D01*
X1874Y2215D01*
X1872Y2215D01*
X1872Y2219D01*
X1870Y2219D01*
X1870Y2223D01*
X1868Y2223D01*
X1868Y2227D01*
X1866Y2227D01*
X1866Y2231D01*
X1864Y2231D01*
X1864Y2235D01*
X1862Y2235D01*
X1862Y2239D01*
X1860Y2239D01*
X1860Y2243D01*
X1858Y2243D01*
X1858Y2247D01*
X1856Y2247D01*
X1856Y2251D01*
X1854Y2251D01*
X1854Y2255D01*
X1852Y2255D01*
X1852Y2259D01*
X1850Y2259D01*
X1850Y2263D01*
X1848Y2263D01*
X1848Y2267D01*
X1846Y2267D01*
X1846Y2271D01*
X1844Y2271D01*
X1844Y2275D01*
X1842Y2275D01*
X1842Y2279D01*
X1840Y2279D01*
X1840Y2283D01*
X1838Y2283D01*
X1838Y2287D01*
X1836Y2287D01*
X1836Y2291D01*
X1834Y2291D01*
X1834Y2295D01*
X1832Y2295D01*
X1832Y2299D01*
X1830Y2299D01*
X1830Y2303D01*
X1828Y2303D01*
X1828Y2307D01*
X1826Y2307D01*
X1826Y2311D01*
X1824Y2311D01*
X1824Y2315D01*
X1822Y2315D01*
X1822Y2319D01*
X1820Y2319D01*
X1820Y2323D01*
X1818Y2323D01*
X1818Y2327D01*
X1816Y2327D01*
X1816Y2331D01*
X1814Y2331D01*
X1814Y2335D01*
X1812Y2335D01*
X1812Y2339D01*
X1810Y2339D01*
X1810Y2343D01*
X1808Y2343D01*
X1808Y2347D01*
X1806Y2347D01*
X1806Y2351D01*
X1804Y2351D01*
X1804Y2355D01*
X1802Y2355D01*
X1802Y2359D01*
X1800Y2359D01*
X1800Y2363D01*
X1798Y2363D01*
X1798Y2367D01*
X1796Y2367D01*
X1796Y2371D01*
X1794Y2371D01*
X1794Y2375D01*
X1792Y2375D01*
X1792Y2379D01*
X1790Y2379D01*
X1790Y2383D01*
X1788Y2383D01*
X1788Y2387D01*
X1786Y2387D01*
X1786Y2391D01*
X1784Y2391D01*
X1784Y2395D01*
X1782Y2395D01*
X1782Y2399D01*
X1780Y2399D01*
X1780Y2403D01*
X1778Y2403D01*
X1778Y2407D01*
X1776Y2407D01*
X1776Y2411D01*
X1774Y2411D01*
X1774Y2415D01*
X1772Y2415D01*
X1772Y2419D01*
X1770Y2419D01*
X1770Y2423D01*
X1768Y2423D01*
X1768Y2427D01*
X1766Y2427D01*
X1766Y2431D01*
X1764Y2431D01*
X1764Y2435D01*
X1762Y2435D01*
X1762Y2439D01*
X1760Y2439D01*
X1760Y2443D01*
X1758Y2443D01*
X1758Y2447D01*
X1756Y2447D01*
X1756Y2451D01*
X1754Y2451D01*
X1754Y2455D01*
X1752Y2455D01*
X1752Y2459D01*
X1750Y2459D01*
X1750Y2463D01*
X40Y2463D01*
G37*
D02*
G36*
X40Y2247D02*
X40Y2065D01*
X362Y2065D01*
X362Y2147D01*
X364Y2147D01*
X364Y2149D01*
X386Y2149D01*
X386Y2169D01*
X382Y2169D01*
X382Y2171D01*
X380Y2171D01*
X380Y2173D01*
X376Y2173D01*
X376Y2175D01*
X374Y2175D01*
X374Y2177D01*
X372Y2177D01*
X372Y2181D01*
X370Y2181D01*
X370Y2183D01*
X368Y2183D01*
X368Y2187D01*
X366Y2187D01*
X366Y2191D01*
X364Y2191D01*
X364Y2201D01*
X362Y2201D01*
X362Y2209D01*
X364Y2209D01*
X364Y2219D01*
X366Y2219D01*
X366Y2223D01*
X368Y2223D01*
X368Y2227D01*
X370Y2227D01*
X370Y2229D01*
X372Y2229D01*
X372Y2233D01*
X374Y2233D01*
X374Y2235D01*
X376Y2235D01*
X376Y2237D01*
X380Y2237D01*
X380Y2239D01*
X382Y2239D01*
X382Y2241D01*
X386Y2241D01*
X386Y2243D01*
X390Y2243D01*
X390Y2245D01*
X400Y2245D01*
X400Y2247D01*
X40Y2247D01*
G37*
D02*
G36*
X408Y2247D02*
X408Y2245D01*
X418Y2245D01*
X418Y2243D01*
X422Y2243D01*
X422Y2241D01*
X426Y2241D01*
X426Y2239D01*
X428Y2239D01*
X428Y2237D01*
X432Y2237D01*
X432Y2235D01*
X434Y2235D01*
X434Y2233D01*
X436Y2233D01*
X436Y2231D01*
X772Y2231D01*
X772Y2233D01*
X774Y2233D01*
X774Y2235D01*
X776Y2235D01*
X776Y2237D01*
X780Y2237D01*
X780Y2239D01*
X782Y2239D01*
X782Y2241D01*
X786Y2241D01*
X786Y2243D01*
X790Y2243D01*
X790Y2245D01*
X800Y2245D01*
X800Y2247D01*
X408Y2247D01*
G37*
D02*
G36*
X808Y2247D02*
X808Y2245D01*
X818Y2245D01*
X818Y2243D01*
X822Y2243D01*
X822Y2241D01*
X826Y2241D01*
X826Y2239D01*
X828Y2239D01*
X828Y2237D01*
X832Y2237D01*
X832Y2235D01*
X834Y2235D01*
X834Y2233D01*
X836Y2233D01*
X836Y2231D01*
X1122Y2231D01*
X1122Y2233D01*
X1124Y2233D01*
X1124Y2235D01*
X1126Y2235D01*
X1126Y2237D01*
X1130Y2237D01*
X1130Y2239D01*
X1132Y2239D01*
X1132Y2241D01*
X1136Y2241D01*
X1136Y2243D01*
X1140Y2243D01*
X1140Y2245D01*
X1150Y2245D01*
X1150Y2247D01*
X808Y2247D01*
G37*
D02*
G36*
X1158Y2247D02*
X1158Y2245D01*
X1168Y2245D01*
X1168Y2243D01*
X1172Y2243D01*
X1172Y2241D01*
X1176Y2241D01*
X1176Y2239D01*
X1178Y2239D01*
X1178Y2237D01*
X1182Y2237D01*
X1182Y2235D01*
X1184Y2235D01*
X1184Y2233D01*
X1186Y2233D01*
X1186Y2231D01*
X1220Y2231D01*
X1220Y2229D01*
X1348Y2229D01*
X1348Y2227D01*
X1470Y2227D01*
X1470Y2229D01*
X1472Y2229D01*
X1472Y2233D01*
X1474Y2233D01*
X1474Y2235D01*
X1476Y2235D01*
X1476Y2237D01*
X1480Y2237D01*
X1480Y2239D01*
X1482Y2239D01*
X1482Y2241D01*
X1486Y2241D01*
X1486Y2243D01*
X1490Y2243D01*
X1490Y2245D01*
X1500Y2245D01*
X1500Y2247D01*
X1158Y2247D01*
G37*
D02*
G36*
X436Y2179D02*
X436Y2177D01*
X434Y2177D01*
X434Y2175D01*
X432Y2175D01*
X432Y2173D01*
X428Y2173D01*
X428Y2171D01*
X426Y2171D01*
X426Y2169D01*
X422Y2169D01*
X422Y2149D01*
X444Y2149D01*
X444Y2147D01*
X446Y2147D01*
X446Y2065D01*
X762Y2065D01*
X762Y2147D01*
X764Y2147D01*
X764Y2149D01*
X786Y2149D01*
X786Y2169D01*
X782Y2169D01*
X782Y2171D01*
X780Y2171D01*
X780Y2173D01*
X776Y2173D01*
X776Y2175D01*
X774Y2175D01*
X774Y2177D01*
X772Y2177D01*
X772Y2179D01*
X436Y2179D01*
G37*
D02*
G36*
X836Y2179D02*
X836Y2177D01*
X834Y2177D01*
X834Y2175D01*
X832Y2175D01*
X832Y2173D01*
X828Y2173D01*
X828Y2171D01*
X826Y2171D01*
X826Y2169D01*
X822Y2169D01*
X822Y2149D01*
X844Y2149D01*
X844Y2147D01*
X846Y2147D01*
X846Y2065D01*
X1112Y2065D01*
X1112Y2147D01*
X1114Y2147D01*
X1114Y2149D01*
X1136Y2149D01*
X1136Y2169D01*
X1132Y2169D01*
X1132Y2171D01*
X1130Y2171D01*
X1130Y2173D01*
X1126Y2173D01*
X1126Y2175D01*
X1124Y2175D01*
X1124Y2177D01*
X1122Y2177D01*
X1122Y2179D01*
X836Y2179D01*
G37*
D02*
G36*
X1186Y2179D02*
X1186Y2177D01*
X1184Y2177D01*
X1184Y2175D01*
X1182Y2175D01*
X1182Y2173D01*
X1178Y2173D01*
X1178Y2171D01*
X1176Y2171D01*
X1176Y2169D01*
X1172Y2169D01*
X1172Y2149D01*
X1194Y2149D01*
X1194Y2147D01*
X1196Y2147D01*
X1196Y2065D01*
X1462Y2065D01*
X1462Y2147D01*
X1464Y2147D01*
X1464Y2149D01*
X1486Y2149D01*
X1486Y2169D01*
X1482Y2169D01*
X1482Y2171D01*
X1480Y2171D01*
X1480Y2173D01*
X1476Y2173D01*
X1476Y2175D01*
X1346Y2175D01*
X1346Y2177D01*
X1218Y2177D01*
X1218Y2179D01*
X1186Y2179D01*
G37*
D02*
G36*
X1546Y2145D02*
X1546Y2065D01*
X1722Y2065D01*
X1722Y2067D01*
X1718Y2067D01*
X1718Y2069D01*
X1714Y2069D01*
X1714Y2071D01*
X1710Y2071D01*
X1710Y2073D01*
X1706Y2073D01*
X1706Y2075D01*
X1702Y2075D01*
X1702Y2077D01*
X1698Y2077D01*
X1698Y2079D01*
X1694Y2079D01*
X1694Y2081D01*
X1690Y2081D01*
X1690Y2083D01*
X1686Y2083D01*
X1686Y2085D01*
X1682Y2085D01*
X1682Y2087D01*
X1678Y2087D01*
X1678Y2089D01*
X1674Y2089D01*
X1674Y2091D01*
X1670Y2091D01*
X1670Y2093D01*
X1666Y2093D01*
X1666Y2095D01*
X1662Y2095D01*
X1662Y2097D01*
X1658Y2097D01*
X1658Y2099D01*
X1654Y2099D01*
X1654Y2101D01*
X1650Y2101D01*
X1650Y2103D01*
X1646Y2103D01*
X1646Y2105D01*
X1642Y2105D01*
X1642Y2107D01*
X1638Y2107D01*
X1638Y2109D01*
X1634Y2109D01*
X1634Y2111D01*
X1630Y2111D01*
X1630Y2113D01*
X1626Y2113D01*
X1626Y2115D01*
X1622Y2115D01*
X1622Y2117D01*
X1618Y2117D01*
X1618Y2119D01*
X1614Y2119D01*
X1614Y2121D01*
X1610Y2121D01*
X1610Y2123D01*
X1608Y2123D01*
X1608Y2125D01*
X1604Y2125D01*
X1604Y2127D01*
X1600Y2127D01*
X1600Y2129D01*
X1596Y2129D01*
X1596Y2131D01*
X1592Y2131D01*
X1592Y2133D01*
X1588Y2133D01*
X1588Y2135D01*
X1584Y2135D01*
X1584Y2137D01*
X1580Y2137D01*
X1580Y2139D01*
X1576Y2139D01*
X1576Y2141D01*
X1572Y2141D01*
X1572Y2143D01*
X1568Y2143D01*
X1568Y2145D01*
X1546Y2145D01*
G37*
D02*
G36*
X40Y2065D02*
X40Y2063D01*
X1726Y2063D01*
X1726Y2065D01*
X40Y2065D01*
G37*
D02*
G36*
X40Y2065D02*
X40Y2063D01*
X1726Y2063D01*
X1726Y2065D01*
X40Y2065D01*
G37*
D02*
G36*
X40Y2065D02*
X40Y2063D01*
X1726Y2063D01*
X1726Y2065D01*
X40Y2065D01*
G37*
D02*
G36*
X40Y2065D02*
X40Y2063D01*
X1726Y2063D01*
X1726Y2065D01*
X40Y2065D01*
G37*
D02*
G36*
X40Y2065D02*
X40Y2063D01*
X1726Y2063D01*
X1726Y2065D01*
X40Y2065D01*
G37*
D02*
G36*
X40Y2063D02*
X40Y1847D01*
X1508Y1847D01*
X1508Y1845D01*
X1518Y1845D01*
X1518Y1843D01*
X1522Y1843D01*
X1522Y1841D01*
X1526Y1841D01*
X1526Y1839D01*
X1528Y1839D01*
X1528Y1837D01*
X1532Y1837D01*
X1532Y1835D01*
X1534Y1835D01*
X1534Y1833D01*
X1536Y1833D01*
X1536Y1829D01*
X1538Y1829D01*
X1538Y1827D01*
X1542Y1827D01*
X1542Y1825D01*
X1556Y1825D01*
X1556Y1823D01*
X1570Y1823D01*
X1570Y1821D01*
X1584Y1821D01*
X1584Y1819D01*
X1598Y1819D01*
X1598Y1817D01*
X1612Y1817D01*
X1612Y1815D01*
X1626Y1815D01*
X1626Y1813D01*
X1640Y1813D01*
X1640Y1811D01*
X1654Y1811D01*
X1654Y1809D01*
X1668Y1809D01*
X1668Y1807D01*
X1682Y1807D01*
X1682Y1805D01*
X1696Y1805D01*
X1696Y1803D01*
X1710Y1803D01*
X1710Y1801D01*
X1724Y1801D01*
X1724Y1799D01*
X1738Y1799D01*
X1738Y1797D01*
X1752Y1797D01*
X1752Y1795D01*
X1766Y1795D01*
X1766Y1793D01*
X1780Y1793D01*
X1780Y1791D01*
X1794Y1791D01*
X1794Y1789D01*
X1808Y1789D01*
X1808Y1787D01*
X1822Y1787D01*
X1822Y1785D01*
X1836Y1785D01*
X1836Y1783D01*
X1850Y1783D01*
X1850Y1781D01*
X1876Y1781D01*
X1876Y1989D01*
X1872Y1989D01*
X1872Y1991D01*
X1868Y1991D01*
X1868Y1993D01*
X1864Y1993D01*
X1864Y1995D01*
X1860Y1995D01*
X1860Y1997D01*
X1856Y1997D01*
X1856Y1999D01*
X1852Y1999D01*
X1852Y2001D01*
X1848Y2001D01*
X1848Y2003D01*
X1846Y2003D01*
X1846Y2005D01*
X1842Y2005D01*
X1842Y2007D01*
X1838Y2007D01*
X1838Y2009D01*
X1834Y2009D01*
X1834Y2011D01*
X1830Y2011D01*
X1830Y2013D01*
X1826Y2013D01*
X1826Y2015D01*
X1822Y2015D01*
X1822Y2017D01*
X1818Y2017D01*
X1818Y2019D01*
X1814Y2019D01*
X1814Y2021D01*
X1810Y2021D01*
X1810Y2023D01*
X1806Y2023D01*
X1806Y2025D01*
X1802Y2025D01*
X1802Y2027D01*
X1798Y2027D01*
X1798Y2029D01*
X1794Y2029D01*
X1794Y2031D01*
X1790Y2031D01*
X1790Y2033D01*
X1786Y2033D01*
X1786Y2035D01*
X1782Y2035D01*
X1782Y2037D01*
X1778Y2037D01*
X1778Y2039D01*
X1774Y2039D01*
X1774Y2041D01*
X1770Y2041D01*
X1770Y2043D01*
X1766Y2043D01*
X1766Y2045D01*
X1762Y2045D01*
X1762Y2047D01*
X1758Y2047D01*
X1758Y2049D01*
X1754Y2049D01*
X1754Y2051D01*
X1750Y2051D01*
X1750Y2053D01*
X1746Y2053D01*
X1746Y2055D01*
X1742Y2055D01*
X1742Y2057D01*
X1738Y2057D01*
X1738Y2059D01*
X1734Y2059D01*
X1734Y2061D01*
X1730Y2061D01*
X1730Y2063D01*
X40Y2063D01*
G37*
D02*
G36*
X40Y1847D02*
X40Y1665D01*
X362Y1665D01*
X362Y1747D01*
X364Y1747D01*
X364Y1749D01*
X386Y1749D01*
X386Y1769D01*
X382Y1769D01*
X382Y1771D01*
X380Y1771D01*
X380Y1773D01*
X376Y1773D01*
X376Y1775D01*
X374Y1775D01*
X374Y1777D01*
X372Y1777D01*
X372Y1781D01*
X370Y1781D01*
X370Y1783D01*
X368Y1783D01*
X368Y1787D01*
X366Y1787D01*
X366Y1791D01*
X364Y1791D01*
X364Y1801D01*
X362Y1801D01*
X362Y1809D01*
X364Y1809D01*
X364Y1819D01*
X366Y1819D01*
X366Y1823D01*
X368Y1823D01*
X368Y1827D01*
X370Y1827D01*
X370Y1829D01*
X372Y1829D01*
X372Y1833D01*
X374Y1833D01*
X374Y1835D01*
X376Y1835D01*
X376Y1837D01*
X380Y1837D01*
X380Y1839D01*
X382Y1839D01*
X382Y1841D01*
X386Y1841D01*
X386Y1843D01*
X390Y1843D01*
X390Y1845D01*
X400Y1845D01*
X400Y1847D01*
X40Y1847D01*
G37*
D02*
G36*
X408Y1847D02*
X408Y1845D01*
X418Y1845D01*
X418Y1843D01*
X422Y1843D01*
X422Y1841D01*
X426Y1841D01*
X426Y1839D01*
X428Y1839D01*
X428Y1837D01*
X432Y1837D01*
X432Y1835D01*
X434Y1835D01*
X434Y1833D01*
X436Y1833D01*
X436Y1829D01*
X438Y1829D01*
X438Y1827D01*
X770Y1827D01*
X770Y1829D01*
X772Y1829D01*
X772Y1833D01*
X774Y1833D01*
X774Y1835D01*
X776Y1835D01*
X776Y1837D01*
X780Y1837D01*
X780Y1839D01*
X782Y1839D01*
X782Y1841D01*
X786Y1841D01*
X786Y1843D01*
X790Y1843D01*
X790Y1845D01*
X800Y1845D01*
X800Y1847D01*
X408Y1847D01*
G37*
D02*
G36*
X808Y1847D02*
X808Y1845D01*
X818Y1845D01*
X818Y1843D01*
X822Y1843D01*
X822Y1841D01*
X826Y1841D01*
X826Y1839D01*
X828Y1839D01*
X828Y1837D01*
X832Y1837D01*
X832Y1835D01*
X834Y1835D01*
X834Y1833D01*
X836Y1833D01*
X836Y1831D01*
X1122Y1831D01*
X1122Y1833D01*
X1124Y1833D01*
X1124Y1835D01*
X1126Y1835D01*
X1126Y1837D01*
X1130Y1837D01*
X1130Y1839D01*
X1132Y1839D01*
X1132Y1841D01*
X1136Y1841D01*
X1136Y1843D01*
X1140Y1843D01*
X1140Y1845D01*
X1150Y1845D01*
X1150Y1847D01*
X808Y1847D01*
G37*
D02*
G36*
X1158Y1847D02*
X1158Y1845D01*
X1168Y1845D01*
X1168Y1843D01*
X1172Y1843D01*
X1172Y1841D01*
X1176Y1841D01*
X1176Y1839D01*
X1178Y1839D01*
X1178Y1837D01*
X1182Y1837D01*
X1182Y1835D01*
X1184Y1835D01*
X1184Y1833D01*
X1186Y1833D01*
X1186Y1831D01*
X1244Y1831D01*
X1244Y1829D01*
X1280Y1829D01*
X1280Y1831D01*
X1472Y1831D01*
X1472Y1833D01*
X1474Y1833D01*
X1474Y1835D01*
X1476Y1835D01*
X1476Y1837D01*
X1480Y1837D01*
X1480Y1839D01*
X1482Y1839D01*
X1482Y1841D01*
X1486Y1841D01*
X1486Y1843D01*
X1490Y1843D01*
X1490Y1845D01*
X1500Y1845D01*
X1500Y1847D01*
X1158Y1847D01*
G37*
D02*
G36*
X438Y1783D02*
X438Y1781D01*
X436Y1781D01*
X436Y1777D01*
X434Y1777D01*
X434Y1775D01*
X432Y1775D01*
X432Y1773D01*
X428Y1773D01*
X428Y1771D01*
X426Y1771D01*
X426Y1769D01*
X422Y1769D01*
X422Y1749D01*
X444Y1749D01*
X444Y1747D01*
X446Y1747D01*
X446Y1665D01*
X762Y1665D01*
X762Y1747D01*
X764Y1747D01*
X764Y1749D01*
X786Y1749D01*
X786Y1769D01*
X782Y1769D01*
X782Y1771D01*
X780Y1771D01*
X780Y1773D01*
X776Y1773D01*
X776Y1775D01*
X774Y1775D01*
X774Y1777D01*
X772Y1777D01*
X772Y1781D01*
X770Y1781D01*
X770Y1783D01*
X438Y1783D01*
G37*
D02*
G36*
X836Y1779D02*
X836Y1777D01*
X834Y1777D01*
X834Y1775D01*
X832Y1775D01*
X832Y1773D01*
X828Y1773D01*
X828Y1771D01*
X826Y1771D01*
X826Y1769D01*
X822Y1769D01*
X822Y1749D01*
X844Y1749D01*
X844Y1747D01*
X846Y1747D01*
X846Y1665D01*
X1112Y1665D01*
X1112Y1747D01*
X1114Y1747D01*
X1114Y1749D01*
X1136Y1749D01*
X1136Y1769D01*
X1132Y1769D01*
X1132Y1771D01*
X1130Y1771D01*
X1130Y1773D01*
X1126Y1773D01*
X1126Y1775D01*
X1124Y1775D01*
X1124Y1777D01*
X1122Y1777D01*
X1122Y1779D01*
X836Y1779D01*
G37*
D02*
G36*
X1186Y1779D02*
X1186Y1777D01*
X1242Y1777D01*
X1242Y1779D01*
X1186Y1779D01*
G37*
D02*
G36*
X1282Y1779D02*
X1282Y1777D01*
X1472Y1777D01*
X1472Y1779D01*
X1282Y1779D01*
G37*
D02*
G36*
X1184Y1777D02*
X1184Y1775D01*
X1474Y1775D01*
X1474Y1777D01*
X1184Y1777D01*
G37*
D02*
G36*
X1184Y1777D02*
X1184Y1775D01*
X1474Y1775D01*
X1474Y1777D01*
X1184Y1777D01*
G37*
D02*
G36*
X1182Y1775D02*
X1182Y1773D01*
X1178Y1773D01*
X1178Y1771D01*
X1176Y1771D01*
X1176Y1769D01*
X1172Y1769D01*
X1172Y1749D01*
X1194Y1749D01*
X1194Y1747D01*
X1196Y1747D01*
X1196Y1665D01*
X1462Y1665D01*
X1462Y1747D01*
X1464Y1747D01*
X1464Y1749D01*
X1486Y1749D01*
X1486Y1769D01*
X1482Y1769D01*
X1482Y1771D01*
X1480Y1771D01*
X1480Y1773D01*
X1476Y1773D01*
X1476Y1775D01*
X1182Y1775D01*
G37*
D02*
G36*
X1528Y1773D02*
X1528Y1771D01*
X1526Y1771D01*
X1526Y1769D01*
X1522Y1769D01*
X1522Y1749D01*
X1544Y1749D01*
X1544Y1747D01*
X1546Y1747D01*
X1546Y1665D01*
X1828Y1665D01*
X1828Y1733D01*
X1818Y1733D01*
X1818Y1735D01*
X1804Y1735D01*
X1804Y1737D01*
X1790Y1737D01*
X1790Y1739D01*
X1776Y1739D01*
X1776Y1741D01*
X1762Y1741D01*
X1762Y1743D01*
X1748Y1743D01*
X1748Y1745D01*
X1734Y1745D01*
X1734Y1747D01*
X1720Y1747D01*
X1720Y1749D01*
X1706Y1749D01*
X1706Y1751D01*
X1692Y1751D01*
X1692Y1753D01*
X1678Y1753D01*
X1678Y1755D01*
X1664Y1755D01*
X1664Y1757D01*
X1650Y1757D01*
X1650Y1759D01*
X1636Y1759D01*
X1636Y1761D01*
X1622Y1761D01*
X1622Y1763D01*
X1608Y1763D01*
X1608Y1765D01*
X1594Y1765D01*
X1594Y1767D01*
X1580Y1767D01*
X1580Y1769D01*
X1566Y1769D01*
X1566Y1771D01*
X1552Y1771D01*
X1552Y1773D01*
X1528Y1773D01*
G37*
D02*
G36*
X40Y1665D02*
X40Y1663D01*
X1828Y1663D01*
X1828Y1665D01*
X40Y1665D01*
G37*
D02*
G36*
X40Y1665D02*
X40Y1663D01*
X1828Y1663D01*
X1828Y1665D01*
X40Y1665D01*
G37*
D02*
G36*
X40Y1665D02*
X40Y1663D01*
X1828Y1663D01*
X1828Y1665D01*
X40Y1665D01*
G37*
D02*
G36*
X40Y1665D02*
X40Y1663D01*
X1828Y1663D01*
X1828Y1665D01*
X40Y1665D01*
G37*
D02*
G36*
X40Y1665D02*
X40Y1663D01*
X1828Y1663D01*
X1828Y1665D01*
X40Y1665D01*
G37*
D02*
G36*
X40Y1663D02*
X40Y1447D01*
X1508Y1447D01*
X1508Y1445D01*
X1518Y1445D01*
X1518Y1443D01*
X1522Y1443D01*
X1522Y1441D01*
X1526Y1441D01*
X1526Y1439D01*
X1528Y1439D01*
X1528Y1437D01*
X1532Y1437D01*
X1532Y1435D01*
X1534Y1435D01*
X1534Y1433D01*
X1536Y1433D01*
X1536Y1431D01*
X1682Y1431D01*
X1682Y1429D01*
X1712Y1429D01*
X1712Y1427D01*
X1716Y1427D01*
X1716Y1425D01*
X1720Y1425D01*
X1720Y1423D01*
X1722Y1423D01*
X1722Y1421D01*
X1724Y1421D01*
X1724Y1417D01*
X1726Y1417D01*
X1726Y1415D01*
X1728Y1415D01*
X1728Y1411D01*
X1730Y1411D01*
X1730Y1407D01*
X1732Y1407D01*
X1732Y1403D01*
X1734Y1403D01*
X1734Y1399D01*
X1736Y1399D01*
X1736Y1395D01*
X1738Y1395D01*
X1738Y1393D01*
X1740Y1393D01*
X1740Y1389D01*
X1742Y1389D01*
X1742Y1385D01*
X1744Y1385D01*
X1744Y1381D01*
X1746Y1381D01*
X1746Y1377D01*
X1748Y1377D01*
X1748Y1373D01*
X1750Y1373D01*
X1750Y1371D01*
X1752Y1371D01*
X1752Y1367D01*
X1754Y1367D01*
X1754Y1363D01*
X1756Y1363D01*
X1756Y1359D01*
X1758Y1359D01*
X1758Y1355D01*
X1760Y1355D01*
X1760Y1351D01*
X1762Y1351D01*
X1762Y1349D01*
X1764Y1349D01*
X1764Y1345D01*
X1766Y1345D01*
X1766Y1341D01*
X1768Y1341D01*
X1768Y1337D01*
X1770Y1337D01*
X1770Y1333D01*
X1772Y1333D01*
X1772Y1329D01*
X1774Y1329D01*
X1774Y1327D01*
X1776Y1327D01*
X1776Y1323D01*
X1778Y1323D01*
X1778Y1319D01*
X1780Y1319D01*
X1780Y1315D01*
X1782Y1315D01*
X1782Y997D01*
X1780Y997D01*
X1780Y991D01*
X1778Y991D01*
X1778Y989D01*
X1776Y989D01*
X1776Y985D01*
X1772Y985D01*
X1772Y983D01*
X1770Y983D01*
X1770Y981D01*
X1766Y981D01*
X1766Y979D01*
X1758Y979D01*
X1758Y977D01*
X1828Y977D01*
X1828Y1663D01*
X40Y1663D01*
G37*
D02*
G36*
X40Y1447D02*
X40Y1265D01*
X362Y1265D01*
X362Y1347D01*
X364Y1347D01*
X364Y1349D01*
X386Y1349D01*
X386Y1369D01*
X382Y1369D01*
X382Y1371D01*
X380Y1371D01*
X380Y1373D01*
X376Y1373D01*
X376Y1375D01*
X374Y1375D01*
X374Y1377D01*
X372Y1377D01*
X372Y1381D01*
X370Y1381D01*
X370Y1383D01*
X368Y1383D01*
X368Y1387D01*
X366Y1387D01*
X366Y1391D01*
X364Y1391D01*
X364Y1401D01*
X362Y1401D01*
X362Y1409D01*
X364Y1409D01*
X364Y1419D01*
X366Y1419D01*
X366Y1423D01*
X368Y1423D01*
X368Y1427D01*
X370Y1427D01*
X370Y1429D01*
X372Y1429D01*
X372Y1433D01*
X374Y1433D01*
X374Y1435D01*
X376Y1435D01*
X376Y1437D01*
X380Y1437D01*
X380Y1439D01*
X382Y1439D01*
X382Y1441D01*
X386Y1441D01*
X386Y1443D01*
X390Y1443D01*
X390Y1445D01*
X400Y1445D01*
X400Y1447D01*
X40Y1447D01*
G37*
D02*
G36*
X408Y1447D02*
X408Y1445D01*
X418Y1445D01*
X418Y1443D01*
X422Y1443D01*
X422Y1441D01*
X426Y1441D01*
X426Y1439D01*
X428Y1439D01*
X428Y1437D01*
X432Y1437D01*
X432Y1435D01*
X434Y1435D01*
X434Y1433D01*
X436Y1433D01*
X436Y1431D01*
X772Y1431D01*
X772Y1433D01*
X774Y1433D01*
X774Y1435D01*
X776Y1435D01*
X776Y1437D01*
X780Y1437D01*
X780Y1439D01*
X782Y1439D01*
X782Y1441D01*
X786Y1441D01*
X786Y1443D01*
X790Y1443D01*
X790Y1445D01*
X800Y1445D01*
X800Y1447D01*
X408Y1447D01*
G37*
D02*
G36*
X808Y1447D02*
X808Y1445D01*
X818Y1445D01*
X818Y1443D01*
X822Y1443D01*
X822Y1441D01*
X826Y1441D01*
X826Y1439D01*
X828Y1439D01*
X828Y1437D01*
X832Y1437D01*
X832Y1435D01*
X834Y1435D01*
X834Y1433D01*
X836Y1433D01*
X836Y1431D01*
X1028Y1431D01*
X1028Y1429D01*
X1064Y1429D01*
X1064Y1431D01*
X1122Y1431D01*
X1122Y1433D01*
X1124Y1433D01*
X1124Y1435D01*
X1126Y1435D01*
X1126Y1437D01*
X1130Y1437D01*
X1130Y1439D01*
X1132Y1439D01*
X1132Y1441D01*
X1136Y1441D01*
X1136Y1443D01*
X1140Y1443D01*
X1140Y1445D01*
X1150Y1445D01*
X1150Y1447D01*
X808Y1447D01*
G37*
D02*
G36*
X1158Y1447D02*
X1158Y1445D01*
X1168Y1445D01*
X1168Y1443D01*
X1172Y1443D01*
X1172Y1441D01*
X1176Y1441D01*
X1176Y1439D01*
X1178Y1439D01*
X1178Y1437D01*
X1182Y1437D01*
X1182Y1435D01*
X1184Y1435D01*
X1184Y1433D01*
X1186Y1433D01*
X1186Y1431D01*
X1200Y1431D01*
X1200Y1429D01*
X1236Y1429D01*
X1236Y1431D01*
X1472Y1431D01*
X1472Y1433D01*
X1474Y1433D01*
X1474Y1435D01*
X1476Y1435D01*
X1476Y1437D01*
X1480Y1437D01*
X1480Y1439D01*
X1482Y1439D01*
X1482Y1441D01*
X1486Y1441D01*
X1486Y1443D01*
X1490Y1443D01*
X1490Y1445D01*
X1500Y1445D01*
X1500Y1447D01*
X1158Y1447D01*
G37*
D02*
G36*
X436Y1379D02*
X436Y1377D01*
X434Y1377D01*
X434Y1375D01*
X432Y1375D01*
X432Y1373D01*
X428Y1373D01*
X428Y1371D01*
X426Y1371D01*
X426Y1369D01*
X422Y1369D01*
X422Y1349D01*
X444Y1349D01*
X444Y1347D01*
X446Y1347D01*
X446Y1265D01*
X762Y1265D01*
X762Y1347D01*
X764Y1347D01*
X764Y1349D01*
X786Y1349D01*
X786Y1369D01*
X782Y1369D01*
X782Y1371D01*
X780Y1371D01*
X780Y1373D01*
X776Y1373D01*
X776Y1375D01*
X774Y1375D01*
X774Y1377D01*
X772Y1377D01*
X772Y1379D01*
X436Y1379D01*
G37*
D02*
G36*
X836Y1379D02*
X836Y1377D01*
X1026Y1377D01*
X1026Y1379D01*
X836Y1379D01*
G37*
D02*
G36*
X1066Y1379D02*
X1066Y1377D01*
X1122Y1377D01*
X1122Y1379D01*
X1066Y1379D01*
G37*
D02*
G36*
X1240Y1379D02*
X1240Y1377D01*
X1184Y1377D01*
X1184Y1375D01*
X1182Y1375D01*
X1182Y1373D01*
X1178Y1373D01*
X1178Y1371D01*
X1176Y1371D01*
X1176Y1369D01*
X1172Y1369D01*
X1172Y1349D01*
X1194Y1349D01*
X1194Y1347D01*
X1196Y1347D01*
X1196Y1265D01*
X1462Y1265D01*
X1462Y1347D01*
X1464Y1347D01*
X1464Y1349D01*
X1486Y1349D01*
X1486Y1369D01*
X1482Y1369D01*
X1482Y1371D01*
X1480Y1371D01*
X1480Y1373D01*
X1476Y1373D01*
X1476Y1375D01*
X1474Y1375D01*
X1474Y1377D01*
X1472Y1377D01*
X1472Y1379D01*
X1240Y1379D01*
G37*
D02*
G36*
X1536Y1379D02*
X1536Y1377D01*
X1534Y1377D01*
X1534Y1375D01*
X1532Y1375D01*
X1532Y1373D01*
X1528Y1373D01*
X1528Y1371D01*
X1526Y1371D01*
X1526Y1369D01*
X1522Y1369D01*
X1522Y1349D01*
X1544Y1349D01*
X1544Y1347D01*
X1546Y1347D01*
X1546Y1265D01*
X1730Y1265D01*
X1730Y1301D01*
X1728Y1301D01*
X1728Y1305D01*
X1726Y1305D01*
X1726Y1309D01*
X1724Y1309D01*
X1724Y1313D01*
X1722Y1313D01*
X1722Y1317D01*
X1720Y1317D01*
X1720Y1321D01*
X1718Y1321D01*
X1718Y1323D01*
X1716Y1323D01*
X1716Y1327D01*
X1714Y1327D01*
X1714Y1331D01*
X1712Y1331D01*
X1712Y1335D01*
X1710Y1335D01*
X1710Y1339D01*
X1708Y1339D01*
X1708Y1343D01*
X1706Y1343D01*
X1706Y1345D01*
X1704Y1345D01*
X1704Y1349D01*
X1702Y1349D01*
X1702Y1353D01*
X1700Y1353D01*
X1700Y1357D01*
X1698Y1357D01*
X1698Y1361D01*
X1696Y1361D01*
X1696Y1365D01*
X1694Y1365D01*
X1694Y1367D01*
X1692Y1367D01*
X1692Y1371D01*
X1690Y1371D01*
X1690Y1375D01*
X1688Y1375D01*
X1688Y1377D01*
X1680Y1377D01*
X1680Y1379D01*
X1536Y1379D01*
G37*
D02*
G36*
X834Y1377D02*
X834Y1375D01*
X1124Y1375D01*
X1124Y1377D01*
X834Y1377D01*
G37*
D02*
G36*
X834Y1377D02*
X834Y1375D01*
X1124Y1375D01*
X1124Y1377D01*
X834Y1377D01*
G37*
D02*
G36*
X832Y1375D02*
X832Y1373D01*
X828Y1373D01*
X828Y1371D01*
X826Y1371D01*
X826Y1369D01*
X822Y1369D01*
X822Y1349D01*
X844Y1349D01*
X844Y1347D01*
X846Y1347D01*
X846Y1265D01*
X1112Y1265D01*
X1112Y1347D01*
X1114Y1347D01*
X1114Y1349D01*
X1136Y1349D01*
X1136Y1369D01*
X1132Y1369D01*
X1132Y1371D01*
X1130Y1371D01*
X1130Y1373D01*
X1126Y1373D01*
X1126Y1375D01*
X832Y1375D01*
G37*
D02*
G36*
X40Y1265D02*
X40Y1263D01*
X1730Y1263D01*
X1730Y1265D01*
X40Y1265D01*
G37*
D02*
G36*
X40Y1265D02*
X40Y1263D01*
X1730Y1263D01*
X1730Y1265D01*
X40Y1265D01*
G37*
D02*
G36*
X40Y1265D02*
X40Y1263D01*
X1730Y1263D01*
X1730Y1265D01*
X40Y1265D01*
G37*
D02*
G36*
X40Y1265D02*
X40Y1263D01*
X1730Y1263D01*
X1730Y1265D01*
X40Y1265D01*
G37*
D02*
G36*
X40Y1265D02*
X40Y1263D01*
X1730Y1263D01*
X1730Y1265D01*
X40Y1265D01*
G37*
D02*
G36*
X40Y1263D02*
X40Y1135D01*
X160Y1135D01*
X160Y1133D01*
X166Y1133D01*
X166Y1131D01*
X170Y1131D01*
X170Y1129D01*
X172Y1129D01*
X172Y1127D01*
X174Y1127D01*
X174Y1125D01*
X176Y1125D01*
X176Y1123D01*
X178Y1123D01*
X178Y1121D01*
X180Y1121D01*
X180Y1117D01*
X182Y1117D01*
X182Y1111D01*
X184Y1111D01*
X184Y1099D01*
X182Y1099D01*
X182Y1093D01*
X180Y1093D01*
X180Y1089D01*
X178Y1089D01*
X178Y1087D01*
X176Y1087D01*
X176Y1085D01*
X174Y1085D01*
X174Y1083D01*
X172Y1083D01*
X172Y1079D01*
X1110Y1079D01*
X1110Y1077D01*
X1114Y1077D01*
X1114Y1075D01*
X1118Y1075D01*
X1118Y1073D01*
X1124Y1073D01*
X1124Y1071D01*
X1128Y1071D01*
X1128Y1069D01*
X1132Y1069D01*
X1132Y1067D01*
X1136Y1067D01*
X1136Y1065D01*
X1140Y1065D01*
X1140Y1063D01*
X1144Y1063D01*
X1144Y1061D01*
X1148Y1061D01*
X1148Y1059D01*
X1152Y1059D01*
X1152Y1057D01*
X1158Y1057D01*
X1158Y1055D01*
X1162Y1055D01*
X1162Y1053D01*
X1610Y1053D01*
X1610Y1051D01*
X1618Y1051D01*
X1618Y1049D01*
X1624Y1049D01*
X1624Y1047D01*
X1628Y1047D01*
X1628Y1045D01*
X1630Y1045D01*
X1630Y1043D01*
X1634Y1043D01*
X1634Y1041D01*
X1636Y1041D01*
X1636Y1039D01*
X1638Y1039D01*
X1638Y1037D01*
X1640Y1037D01*
X1640Y1035D01*
X1642Y1035D01*
X1642Y1033D01*
X1644Y1033D01*
X1644Y1031D01*
X1730Y1031D01*
X1730Y1263D01*
X40Y1263D01*
G37*
D02*
G36*
X40Y1135D02*
X40Y475D01*
X98Y475D01*
X98Y477D01*
X92Y477D01*
X92Y479D01*
X88Y479D01*
X88Y481D01*
X86Y481D01*
X86Y483D01*
X84Y483D01*
X84Y485D01*
X82Y485D01*
X82Y487D01*
X80Y487D01*
X80Y489D01*
X78Y489D01*
X78Y493D01*
X76Y493D01*
X76Y501D01*
X74Y501D01*
X74Y509D01*
X76Y509D01*
X76Y517D01*
X78Y517D01*
X78Y655D01*
X76Y655D01*
X76Y955D01*
X78Y955D01*
X78Y965D01*
X80Y965D01*
X80Y971D01*
X82Y971D01*
X82Y977D01*
X84Y977D01*
X84Y983D01*
X86Y983D01*
X86Y989D01*
X88Y989D01*
X88Y995D01*
X90Y995D01*
X90Y1001D01*
X92Y1001D01*
X92Y1007D01*
X94Y1007D01*
X94Y1013D01*
X96Y1013D01*
X96Y1019D01*
X98Y1019D01*
X98Y1023D01*
X100Y1023D01*
X100Y1029D01*
X102Y1029D01*
X102Y1035D01*
X104Y1035D01*
X104Y1041D01*
X106Y1041D01*
X106Y1047D01*
X108Y1047D01*
X108Y1053D01*
X110Y1053D01*
X110Y1059D01*
X112Y1059D01*
X112Y1065D01*
X114Y1065D01*
X114Y1071D01*
X116Y1071D01*
X116Y1077D01*
X118Y1077D01*
X118Y1083D01*
X120Y1083D01*
X120Y1089D01*
X122Y1089D01*
X122Y1093D01*
X124Y1093D01*
X124Y1109D01*
X126Y1109D01*
X126Y1117D01*
X128Y1117D01*
X128Y1121D01*
X130Y1121D01*
X130Y1123D01*
X132Y1123D01*
X132Y1125D01*
X134Y1125D01*
X134Y1127D01*
X136Y1127D01*
X136Y1129D01*
X138Y1129D01*
X138Y1131D01*
X142Y1131D01*
X142Y1133D01*
X148Y1133D01*
X148Y1135D01*
X40Y1135D01*
G37*
D02*
G36*
X172Y1079D02*
X172Y1075D01*
X170Y1075D01*
X170Y1069D01*
X168Y1069D01*
X168Y1063D01*
X166Y1063D01*
X166Y1057D01*
X164Y1057D01*
X164Y1051D01*
X162Y1051D01*
X162Y1045D01*
X160Y1045D01*
X160Y1039D01*
X158Y1039D01*
X158Y1033D01*
X156Y1033D01*
X156Y1027D01*
X154Y1027D01*
X154Y1021D01*
X152Y1021D01*
X152Y1015D01*
X150Y1015D01*
X150Y1009D01*
X148Y1009D01*
X148Y1003D01*
X146Y1003D01*
X146Y997D01*
X144Y997D01*
X144Y991D01*
X142Y991D01*
X142Y985D01*
X140Y985D01*
X140Y981D01*
X138Y981D01*
X138Y975D01*
X136Y975D01*
X136Y969D01*
X134Y969D01*
X134Y963D01*
X132Y963D01*
X132Y957D01*
X130Y957D01*
X130Y901D01*
X316Y901D01*
X316Y899D01*
X322Y899D01*
X322Y897D01*
X326Y897D01*
X326Y895D01*
X330Y895D01*
X330Y893D01*
X332Y893D01*
X332Y891D01*
X336Y891D01*
X336Y889D01*
X338Y889D01*
X338Y887D01*
X340Y887D01*
X340Y883D01*
X342Y883D01*
X342Y881D01*
X344Y881D01*
X344Y877D01*
X346Y877D01*
X346Y875D01*
X348Y875D01*
X348Y869D01*
X350Y869D01*
X350Y857D01*
X352Y857D01*
X352Y853D01*
X350Y853D01*
X350Y841D01*
X348Y841D01*
X348Y835D01*
X346Y835D01*
X346Y833D01*
X344Y833D01*
X344Y829D01*
X342Y829D01*
X342Y827D01*
X340Y827D01*
X340Y823D01*
X338Y823D01*
X338Y821D01*
X336Y821D01*
X336Y819D01*
X332Y819D01*
X332Y817D01*
X330Y817D01*
X330Y815D01*
X326Y815D01*
X326Y795D01*
X330Y795D01*
X330Y793D01*
X332Y793D01*
X332Y791D01*
X336Y791D01*
X336Y789D01*
X338Y789D01*
X338Y787D01*
X340Y787D01*
X340Y783D01*
X342Y783D01*
X342Y781D01*
X344Y781D01*
X344Y777D01*
X346Y777D01*
X346Y775D01*
X348Y775D01*
X348Y769D01*
X350Y769D01*
X350Y757D01*
X352Y757D01*
X352Y753D01*
X350Y753D01*
X350Y741D01*
X348Y741D01*
X348Y735D01*
X346Y735D01*
X346Y733D01*
X344Y733D01*
X344Y729D01*
X342Y729D01*
X342Y727D01*
X340Y727D01*
X340Y723D01*
X338Y723D01*
X338Y703D01*
X350Y703D01*
X350Y701D01*
X352Y701D01*
X352Y609D01*
X350Y609D01*
X350Y607D01*
X580Y607D01*
X580Y615D01*
X578Y615D01*
X578Y617D01*
X574Y617D01*
X574Y619D01*
X572Y619D01*
X572Y621D01*
X570Y621D01*
X570Y623D01*
X568Y623D01*
X568Y625D01*
X566Y625D01*
X566Y629D01*
X564Y629D01*
X564Y631D01*
X562Y631D01*
X562Y635D01*
X560Y635D01*
X560Y641D01*
X558Y641D01*
X558Y649D01*
X556Y649D01*
X556Y651D01*
X552Y651D01*
X552Y653D01*
X548Y653D01*
X548Y655D01*
X544Y655D01*
X544Y657D01*
X540Y657D01*
X540Y659D01*
X536Y659D01*
X536Y661D01*
X532Y661D01*
X532Y663D01*
X528Y663D01*
X528Y665D01*
X524Y665D01*
X524Y667D01*
X520Y667D01*
X520Y669D01*
X516Y669D01*
X516Y671D01*
X512Y671D01*
X512Y673D01*
X508Y673D01*
X508Y675D01*
X504Y675D01*
X504Y677D01*
X500Y677D01*
X500Y679D01*
X498Y679D01*
X498Y681D01*
X494Y681D01*
X494Y683D01*
X490Y683D01*
X490Y685D01*
X486Y685D01*
X486Y687D01*
X484Y687D01*
X484Y689D01*
X482Y689D01*
X482Y693D01*
X480Y693D01*
X480Y697D01*
X478Y697D01*
X478Y707D01*
X476Y707D01*
X476Y955D01*
X478Y955D01*
X478Y965D01*
X480Y965D01*
X480Y969D01*
X482Y969D01*
X482Y971D01*
X484Y971D01*
X484Y973D01*
X486Y973D01*
X486Y975D01*
X488Y975D01*
X488Y977D01*
X490Y977D01*
X490Y979D01*
X496Y979D01*
X496Y981D01*
X502Y981D01*
X502Y983D01*
X508Y983D01*
X508Y985D01*
X514Y985D01*
X514Y987D01*
X520Y987D01*
X520Y989D01*
X526Y989D01*
X526Y991D01*
X532Y991D01*
X532Y993D01*
X540Y993D01*
X540Y995D01*
X546Y995D01*
X546Y997D01*
X552Y997D01*
X552Y999D01*
X558Y999D01*
X558Y1001D01*
X564Y1001D01*
X564Y1003D01*
X570Y1003D01*
X570Y1005D01*
X576Y1005D01*
X576Y1007D01*
X582Y1007D01*
X582Y1009D01*
X588Y1009D01*
X588Y1011D01*
X594Y1011D01*
X594Y1013D01*
X600Y1013D01*
X600Y1015D01*
X608Y1015D01*
X608Y1017D01*
X614Y1017D01*
X614Y1019D01*
X620Y1019D01*
X620Y1021D01*
X626Y1021D01*
X626Y1023D01*
X632Y1023D01*
X632Y1025D01*
X638Y1025D01*
X638Y1027D01*
X644Y1027D01*
X644Y1029D01*
X650Y1029D01*
X650Y1031D01*
X656Y1031D01*
X656Y1033D01*
X662Y1033D01*
X662Y1035D01*
X668Y1035D01*
X668Y1037D01*
X676Y1037D01*
X676Y1039D01*
X682Y1039D01*
X682Y1041D01*
X688Y1041D01*
X688Y1043D01*
X694Y1043D01*
X694Y1045D01*
X700Y1045D01*
X700Y1047D01*
X706Y1047D01*
X706Y1049D01*
X712Y1049D01*
X712Y1051D01*
X718Y1051D01*
X718Y1053D01*
X724Y1053D01*
X724Y1055D01*
X730Y1055D01*
X730Y1057D01*
X736Y1057D01*
X736Y1059D01*
X742Y1059D01*
X742Y1061D01*
X750Y1061D01*
X750Y1063D01*
X756Y1063D01*
X756Y1065D01*
X762Y1065D01*
X762Y1067D01*
X768Y1067D01*
X768Y1069D01*
X774Y1069D01*
X774Y1071D01*
X780Y1071D01*
X780Y1073D01*
X786Y1073D01*
X786Y1075D01*
X792Y1075D01*
X792Y1077D01*
X800Y1077D01*
X800Y1079D01*
X172Y1079D01*
G37*
D02*
G36*
X1166Y1053D02*
X1166Y1051D01*
X1170Y1051D01*
X1170Y1049D01*
X1190Y1049D01*
X1190Y1051D01*
X1198Y1051D01*
X1198Y1053D01*
X1166Y1053D01*
G37*
D02*
G36*
X1210Y1053D02*
X1210Y1051D01*
X1218Y1051D01*
X1218Y1049D01*
X1224Y1049D01*
X1224Y1047D01*
X1228Y1047D01*
X1228Y1045D01*
X1230Y1045D01*
X1230Y1043D01*
X1234Y1043D01*
X1234Y1041D01*
X1236Y1041D01*
X1236Y1039D01*
X1238Y1039D01*
X1238Y1037D01*
X1240Y1037D01*
X1240Y1035D01*
X1242Y1035D01*
X1242Y1033D01*
X1244Y1033D01*
X1244Y1029D01*
X1246Y1029D01*
X1246Y1025D01*
X1248Y1025D01*
X1248Y1019D01*
X1250Y1019D01*
X1250Y1011D01*
X1252Y1011D01*
X1252Y999D01*
X1250Y999D01*
X1250Y991D01*
X1248Y991D01*
X1248Y985D01*
X1246Y985D01*
X1246Y981D01*
X1244Y981D01*
X1244Y977D01*
X1242Y977D01*
X1242Y975D01*
X1240Y975D01*
X1240Y973D01*
X1238Y973D01*
X1238Y971D01*
X1236Y971D01*
X1236Y969D01*
X1234Y969D01*
X1234Y967D01*
X1230Y967D01*
X1230Y965D01*
X1228Y965D01*
X1228Y963D01*
X1224Y963D01*
X1224Y961D01*
X1218Y961D01*
X1218Y959D01*
X1210Y959D01*
X1210Y957D01*
X1598Y957D01*
X1598Y959D01*
X1590Y959D01*
X1590Y961D01*
X1584Y961D01*
X1584Y963D01*
X1580Y963D01*
X1580Y965D01*
X1578Y965D01*
X1578Y967D01*
X1574Y967D01*
X1574Y969D01*
X1572Y969D01*
X1572Y971D01*
X1570Y971D01*
X1570Y973D01*
X1568Y973D01*
X1568Y975D01*
X1566Y975D01*
X1566Y979D01*
X1564Y979D01*
X1564Y981D01*
X1562Y981D01*
X1562Y985D01*
X1560Y985D01*
X1560Y991D01*
X1558Y991D01*
X1558Y999D01*
X1556Y999D01*
X1556Y1011D01*
X1558Y1011D01*
X1558Y1019D01*
X1560Y1019D01*
X1560Y1025D01*
X1562Y1025D01*
X1562Y1029D01*
X1564Y1029D01*
X1564Y1031D01*
X1566Y1031D01*
X1566Y1035D01*
X1568Y1035D01*
X1568Y1037D01*
X1570Y1037D01*
X1570Y1039D01*
X1572Y1039D01*
X1572Y1041D01*
X1574Y1041D01*
X1574Y1043D01*
X1578Y1043D01*
X1578Y1045D01*
X1580Y1045D01*
X1580Y1047D01*
X1584Y1047D01*
X1584Y1049D01*
X1590Y1049D01*
X1590Y1051D01*
X1598Y1051D01*
X1598Y1053D01*
X1210Y1053D01*
G37*
D02*
G36*
X806Y1027D02*
X806Y1025D01*
X800Y1025D01*
X800Y1023D01*
X794Y1023D01*
X794Y1021D01*
X788Y1021D01*
X788Y1019D01*
X782Y1019D01*
X782Y1017D01*
X776Y1017D01*
X776Y1015D01*
X770Y1015D01*
X770Y1013D01*
X764Y1013D01*
X764Y1011D01*
X758Y1011D01*
X758Y1009D01*
X752Y1009D01*
X752Y1007D01*
X746Y1007D01*
X746Y1005D01*
X738Y1005D01*
X738Y1003D01*
X732Y1003D01*
X732Y1001D01*
X726Y1001D01*
X726Y999D01*
X720Y999D01*
X720Y997D01*
X714Y997D01*
X714Y995D01*
X708Y995D01*
X708Y993D01*
X702Y993D01*
X702Y991D01*
X696Y991D01*
X696Y989D01*
X690Y989D01*
X690Y987D01*
X684Y987D01*
X684Y985D01*
X678Y985D01*
X678Y983D01*
X670Y983D01*
X670Y981D01*
X1060Y981D01*
X1060Y979D01*
X1066Y979D01*
X1066Y977D01*
X1070Y977D01*
X1070Y975D01*
X1072Y975D01*
X1072Y973D01*
X1076Y973D01*
X1076Y971D01*
X1078Y971D01*
X1078Y969D01*
X1082Y969D01*
X1082Y967D01*
X1084Y967D01*
X1084Y965D01*
X1088Y965D01*
X1088Y963D01*
X1090Y963D01*
X1090Y961D01*
X1094Y961D01*
X1094Y959D01*
X1096Y959D01*
X1096Y957D01*
X1198Y957D01*
X1198Y959D01*
X1190Y959D01*
X1190Y961D01*
X1184Y961D01*
X1184Y963D01*
X1180Y963D01*
X1180Y965D01*
X1178Y965D01*
X1178Y967D01*
X1174Y967D01*
X1174Y969D01*
X1172Y969D01*
X1172Y971D01*
X1170Y971D01*
X1170Y973D01*
X1168Y973D01*
X1168Y975D01*
X1166Y975D01*
X1166Y979D01*
X1164Y979D01*
X1164Y981D01*
X1162Y981D01*
X1162Y985D01*
X1160Y985D01*
X1160Y991D01*
X1158Y991D01*
X1158Y999D01*
X1154Y999D01*
X1154Y1001D01*
X1150Y1001D01*
X1150Y1003D01*
X1146Y1003D01*
X1146Y1005D01*
X1142Y1005D01*
X1142Y1007D01*
X1136Y1007D01*
X1136Y1009D01*
X1132Y1009D01*
X1132Y1011D01*
X1128Y1011D01*
X1128Y1013D01*
X1124Y1013D01*
X1124Y1015D01*
X1120Y1015D01*
X1120Y1017D01*
X1116Y1017D01*
X1116Y1019D01*
X1112Y1019D01*
X1112Y1021D01*
X1108Y1021D01*
X1108Y1023D01*
X1104Y1023D01*
X1104Y1025D01*
X1098Y1025D01*
X1098Y1027D01*
X806Y1027D01*
G37*
D02*
G36*
X664Y981D02*
X664Y979D01*
X658Y979D01*
X658Y977D01*
X652Y977D01*
X652Y975D01*
X646Y975D01*
X646Y973D01*
X640Y973D01*
X640Y971D01*
X634Y971D01*
X634Y969D01*
X628Y969D01*
X628Y967D01*
X622Y967D01*
X622Y965D01*
X616Y965D01*
X616Y963D01*
X610Y963D01*
X610Y961D01*
X602Y961D01*
X602Y959D01*
X596Y959D01*
X596Y957D01*
X590Y957D01*
X590Y955D01*
X584Y955D01*
X584Y953D01*
X578Y953D01*
X578Y951D01*
X572Y951D01*
X572Y949D01*
X566Y949D01*
X566Y947D01*
X560Y947D01*
X560Y945D01*
X554Y945D01*
X554Y943D01*
X548Y943D01*
X548Y941D01*
X542Y941D01*
X542Y939D01*
X534Y939D01*
X534Y937D01*
X530Y937D01*
X530Y903D01*
X652Y903D01*
X652Y807D01*
X638Y807D01*
X638Y787D01*
X640Y787D01*
X640Y785D01*
X642Y785D01*
X642Y783D01*
X644Y783D01*
X644Y781D01*
X684Y781D01*
X684Y789D01*
X686Y789D01*
X686Y795D01*
X688Y795D01*
X688Y803D01*
X690Y803D01*
X690Y811D01*
X692Y811D01*
X692Y819D01*
X694Y819D01*
X694Y825D01*
X696Y825D01*
X696Y833D01*
X698Y833D01*
X698Y841D01*
X700Y841D01*
X700Y849D01*
X702Y849D01*
X702Y855D01*
X704Y855D01*
X704Y863D01*
X706Y863D01*
X706Y871D01*
X708Y871D01*
X708Y879D01*
X710Y879D01*
X710Y885D01*
X712Y885D01*
X712Y893D01*
X714Y893D01*
X714Y901D01*
X716Y901D01*
X716Y909D01*
X718Y909D01*
X718Y915D01*
X720Y915D01*
X720Y923D01*
X722Y923D01*
X722Y931D01*
X724Y931D01*
X724Y939D01*
X726Y939D01*
X726Y945D01*
X728Y945D01*
X728Y953D01*
X730Y953D01*
X730Y961D01*
X732Y961D01*
X732Y967D01*
X734Y967D01*
X734Y969D01*
X736Y969D01*
X736Y973D01*
X738Y973D01*
X738Y975D01*
X742Y975D01*
X742Y977D01*
X744Y977D01*
X744Y979D01*
X750Y979D01*
X750Y981D01*
X664Y981D01*
G37*
D02*
G36*
X1644Y979D02*
X1644Y977D01*
X1740Y977D01*
X1740Y979D01*
X1644Y979D01*
G37*
D02*
G36*
X1642Y977D02*
X1642Y975D01*
X1828Y975D01*
X1828Y977D01*
X1642Y977D01*
G37*
D02*
G36*
X1642Y977D02*
X1642Y975D01*
X1828Y975D01*
X1828Y977D01*
X1642Y977D01*
G37*
D02*
G36*
X1640Y975D02*
X1640Y973D01*
X1638Y973D01*
X1638Y971D01*
X1636Y971D01*
X1636Y969D01*
X1634Y969D01*
X1634Y967D01*
X1630Y967D01*
X1630Y965D01*
X1628Y965D01*
X1628Y963D01*
X1624Y963D01*
X1624Y961D01*
X1618Y961D01*
X1618Y959D01*
X1610Y959D01*
X1610Y957D01*
X1792Y957D01*
X1792Y959D01*
X1796Y959D01*
X1796Y961D01*
X1802Y961D01*
X1802Y963D01*
X1806Y963D01*
X1806Y965D01*
X1812Y965D01*
X1812Y967D01*
X1816Y967D01*
X1816Y969D01*
X1822Y969D01*
X1822Y971D01*
X1826Y971D01*
X1826Y973D01*
X1828Y973D01*
X1828Y975D01*
X1640Y975D01*
G37*
D02*
G36*
X1100Y957D02*
X1100Y955D01*
X1786Y955D01*
X1786Y957D01*
X1100Y957D01*
G37*
D02*
G36*
X1100Y957D02*
X1100Y955D01*
X1786Y955D01*
X1786Y957D01*
X1100Y957D01*
G37*
D02*
G36*
X1100Y957D02*
X1100Y955D01*
X1786Y955D01*
X1786Y957D01*
X1100Y957D01*
G37*
D02*
G36*
X1102Y955D02*
X1102Y953D01*
X1106Y953D01*
X1106Y951D01*
X1108Y951D01*
X1108Y949D01*
X1112Y949D01*
X1112Y947D01*
X1114Y947D01*
X1114Y945D01*
X1118Y945D01*
X1118Y943D01*
X1120Y943D01*
X1120Y941D01*
X1124Y941D01*
X1124Y939D01*
X1126Y939D01*
X1126Y937D01*
X1130Y937D01*
X1130Y935D01*
X1132Y935D01*
X1132Y933D01*
X1136Y933D01*
X1136Y931D01*
X1138Y931D01*
X1138Y929D01*
X1142Y929D01*
X1142Y927D01*
X1144Y927D01*
X1144Y925D01*
X1148Y925D01*
X1148Y923D01*
X1150Y923D01*
X1150Y921D01*
X1154Y921D01*
X1154Y919D01*
X1156Y919D01*
X1156Y917D01*
X1160Y917D01*
X1160Y915D01*
X1162Y915D01*
X1162Y913D01*
X1166Y913D01*
X1166Y911D01*
X1168Y911D01*
X1168Y909D01*
X1172Y909D01*
X1172Y907D01*
X1174Y907D01*
X1174Y905D01*
X1178Y905D01*
X1178Y903D01*
X1610Y903D01*
X1610Y901D01*
X1618Y901D01*
X1618Y899D01*
X1646Y899D01*
X1646Y901D01*
X1652Y901D01*
X1652Y903D01*
X1656Y903D01*
X1656Y905D01*
X1662Y905D01*
X1662Y907D01*
X1666Y907D01*
X1666Y909D01*
X1672Y909D01*
X1672Y911D01*
X1676Y911D01*
X1676Y913D01*
X1682Y913D01*
X1682Y915D01*
X1686Y915D01*
X1686Y917D01*
X1692Y917D01*
X1692Y919D01*
X1696Y919D01*
X1696Y921D01*
X1702Y921D01*
X1702Y923D01*
X1706Y923D01*
X1706Y925D01*
X1712Y925D01*
X1712Y927D01*
X1716Y927D01*
X1716Y929D01*
X1722Y929D01*
X1722Y931D01*
X1726Y931D01*
X1726Y933D01*
X1732Y933D01*
X1732Y935D01*
X1736Y935D01*
X1736Y937D01*
X1742Y937D01*
X1742Y939D01*
X1746Y939D01*
X1746Y941D01*
X1752Y941D01*
X1752Y943D01*
X1756Y943D01*
X1756Y945D01*
X1762Y945D01*
X1762Y947D01*
X1766Y947D01*
X1766Y949D01*
X1772Y949D01*
X1772Y951D01*
X1776Y951D01*
X1776Y953D01*
X1782Y953D01*
X1782Y955D01*
X1102Y955D01*
G37*
D02*
G36*
X530Y903D02*
X530Y721D01*
X534Y721D01*
X534Y719D01*
X538Y719D01*
X538Y717D01*
X542Y717D01*
X542Y715D01*
X546Y715D01*
X546Y713D01*
X548Y713D01*
X548Y711D01*
X552Y711D01*
X552Y709D01*
X574Y709D01*
X574Y719D01*
X572Y719D01*
X572Y721D01*
X570Y721D01*
X570Y723D01*
X568Y723D01*
X568Y725D01*
X566Y725D01*
X566Y729D01*
X564Y729D01*
X564Y731D01*
X562Y731D01*
X562Y735D01*
X560Y735D01*
X560Y741D01*
X558Y741D01*
X558Y749D01*
X556Y749D01*
X556Y761D01*
X558Y761D01*
X558Y769D01*
X560Y769D01*
X560Y775D01*
X562Y775D01*
X562Y779D01*
X564Y779D01*
X564Y781D01*
X566Y781D01*
X566Y785D01*
X568Y785D01*
X568Y787D01*
X570Y787D01*
X570Y807D01*
X556Y807D01*
X556Y903D01*
X530Y903D01*
G37*
D02*
G36*
X1210Y903D02*
X1210Y901D01*
X1218Y901D01*
X1218Y899D01*
X1224Y899D01*
X1224Y897D01*
X1228Y897D01*
X1228Y895D01*
X1230Y895D01*
X1230Y893D01*
X1234Y893D01*
X1234Y891D01*
X1236Y891D01*
X1236Y889D01*
X1238Y889D01*
X1238Y887D01*
X1240Y887D01*
X1240Y885D01*
X1242Y885D01*
X1242Y883D01*
X1244Y883D01*
X1244Y879D01*
X1246Y879D01*
X1246Y875D01*
X1248Y875D01*
X1248Y869D01*
X1250Y869D01*
X1250Y861D01*
X1252Y861D01*
X1252Y849D01*
X1250Y849D01*
X1250Y841D01*
X1248Y841D01*
X1248Y835D01*
X1246Y835D01*
X1246Y831D01*
X1244Y831D01*
X1244Y827D01*
X1242Y827D01*
X1242Y825D01*
X1240Y825D01*
X1240Y823D01*
X1238Y823D01*
X1238Y821D01*
X1236Y821D01*
X1236Y819D01*
X1234Y819D01*
X1234Y817D01*
X1230Y817D01*
X1230Y815D01*
X1228Y815D01*
X1228Y795D01*
X1230Y795D01*
X1230Y793D01*
X1234Y793D01*
X1234Y791D01*
X1236Y791D01*
X1236Y789D01*
X1238Y789D01*
X1238Y787D01*
X1240Y787D01*
X1240Y785D01*
X1242Y785D01*
X1242Y783D01*
X1244Y783D01*
X1244Y779D01*
X1246Y779D01*
X1246Y775D01*
X1248Y775D01*
X1248Y769D01*
X1250Y769D01*
X1250Y761D01*
X1252Y761D01*
X1252Y749D01*
X1250Y749D01*
X1250Y741D01*
X1248Y741D01*
X1248Y735D01*
X1246Y735D01*
X1246Y731D01*
X1244Y731D01*
X1244Y727D01*
X1242Y727D01*
X1242Y725D01*
X1240Y725D01*
X1240Y723D01*
X1238Y723D01*
X1238Y721D01*
X1236Y721D01*
X1236Y719D01*
X1234Y719D01*
X1234Y717D01*
X1230Y717D01*
X1230Y715D01*
X1228Y715D01*
X1228Y695D01*
X1230Y695D01*
X1230Y693D01*
X1234Y693D01*
X1234Y691D01*
X1236Y691D01*
X1236Y689D01*
X1238Y689D01*
X1238Y687D01*
X1240Y687D01*
X1240Y685D01*
X1242Y685D01*
X1242Y683D01*
X1244Y683D01*
X1244Y679D01*
X1246Y679D01*
X1246Y675D01*
X1248Y675D01*
X1248Y669D01*
X1250Y669D01*
X1250Y661D01*
X1252Y661D01*
X1252Y649D01*
X1250Y649D01*
X1250Y641D01*
X1248Y641D01*
X1248Y635D01*
X1246Y635D01*
X1246Y631D01*
X1244Y631D01*
X1244Y627D01*
X1242Y627D01*
X1242Y625D01*
X1240Y625D01*
X1240Y623D01*
X1238Y623D01*
X1238Y621D01*
X1236Y621D01*
X1236Y619D01*
X1234Y619D01*
X1234Y617D01*
X1230Y617D01*
X1230Y615D01*
X1228Y615D01*
X1228Y613D01*
X1224Y613D01*
X1224Y611D01*
X1218Y611D01*
X1218Y609D01*
X1210Y609D01*
X1210Y607D01*
X1598Y607D01*
X1598Y609D01*
X1590Y609D01*
X1590Y611D01*
X1584Y611D01*
X1584Y613D01*
X1580Y613D01*
X1580Y615D01*
X1578Y615D01*
X1578Y617D01*
X1574Y617D01*
X1574Y619D01*
X1572Y619D01*
X1572Y621D01*
X1570Y621D01*
X1570Y623D01*
X1568Y623D01*
X1568Y625D01*
X1566Y625D01*
X1566Y629D01*
X1564Y629D01*
X1564Y631D01*
X1562Y631D01*
X1562Y635D01*
X1560Y635D01*
X1560Y641D01*
X1558Y641D01*
X1558Y649D01*
X1556Y649D01*
X1556Y661D01*
X1558Y661D01*
X1558Y669D01*
X1560Y669D01*
X1560Y675D01*
X1562Y675D01*
X1562Y679D01*
X1564Y679D01*
X1564Y681D01*
X1566Y681D01*
X1566Y685D01*
X1568Y685D01*
X1568Y687D01*
X1570Y687D01*
X1570Y689D01*
X1572Y689D01*
X1572Y691D01*
X1574Y691D01*
X1574Y693D01*
X1578Y693D01*
X1578Y695D01*
X1580Y695D01*
X1580Y715D01*
X1578Y715D01*
X1578Y717D01*
X1574Y717D01*
X1574Y719D01*
X1572Y719D01*
X1572Y721D01*
X1570Y721D01*
X1570Y723D01*
X1568Y723D01*
X1568Y725D01*
X1566Y725D01*
X1566Y729D01*
X1564Y729D01*
X1564Y731D01*
X1562Y731D01*
X1562Y735D01*
X1560Y735D01*
X1560Y741D01*
X1558Y741D01*
X1558Y749D01*
X1556Y749D01*
X1556Y761D01*
X1558Y761D01*
X1558Y769D01*
X1560Y769D01*
X1560Y775D01*
X1562Y775D01*
X1562Y779D01*
X1564Y779D01*
X1564Y781D01*
X1566Y781D01*
X1566Y785D01*
X1568Y785D01*
X1568Y787D01*
X1570Y787D01*
X1570Y789D01*
X1572Y789D01*
X1572Y791D01*
X1574Y791D01*
X1574Y793D01*
X1578Y793D01*
X1578Y795D01*
X1580Y795D01*
X1580Y815D01*
X1578Y815D01*
X1578Y817D01*
X1574Y817D01*
X1574Y819D01*
X1572Y819D01*
X1572Y821D01*
X1570Y821D01*
X1570Y823D01*
X1568Y823D01*
X1568Y825D01*
X1566Y825D01*
X1566Y829D01*
X1564Y829D01*
X1564Y831D01*
X1562Y831D01*
X1562Y835D01*
X1560Y835D01*
X1560Y841D01*
X1558Y841D01*
X1558Y849D01*
X1556Y849D01*
X1556Y861D01*
X1558Y861D01*
X1558Y869D01*
X1560Y869D01*
X1560Y875D01*
X1562Y875D01*
X1562Y879D01*
X1564Y879D01*
X1564Y881D01*
X1566Y881D01*
X1566Y885D01*
X1568Y885D01*
X1568Y887D01*
X1570Y887D01*
X1570Y889D01*
X1572Y889D01*
X1572Y891D01*
X1574Y891D01*
X1574Y893D01*
X1578Y893D01*
X1578Y895D01*
X1580Y895D01*
X1580Y897D01*
X1584Y897D01*
X1584Y899D01*
X1590Y899D01*
X1590Y901D01*
X1598Y901D01*
X1598Y903D01*
X1210Y903D01*
G37*
D02*
G36*
X130Y901D02*
X130Y609D01*
X192Y609D01*
X192Y611D01*
X186Y611D01*
X186Y613D01*
X182Y613D01*
X182Y615D01*
X178Y615D01*
X178Y617D01*
X176Y617D01*
X176Y619D01*
X174Y619D01*
X174Y621D01*
X170Y621D01*
X170Y625D01*
X168Y625D01*
X168Y627D01*
X166Y627D01*
X166Y629D01*
X164Y629D01*
X164Y633D01*
X162Y633D01*
X162Y637D01*
X160Y637D01*
X160Y643D01*
X158Y643D01*
X158Y667D01*
X160Y667D01*
X160Y673D01*
X162Y673D01*
X162Y677D01*
X164Y677D01*
X164Y681D01*
X166Y681D01*
X166Y683D01*
X168Y683D01*
X168Y685D01*
X170Y685D01*
X170Y689D01*
X174Y689D01*
X174Y691D01*
X176Y691D01*
X176Y693D01*
X178Y693D01*
X178Y695D01*
X182Y695D01*
X182Y715D01*
X178Y715D01*
X178Y717D01*
X176Y717D01*
X176Y719D01*
X174Y719D01*
X174Y721D01*
X170Y721D01*
X170Y725D01*
X168Y725D01*
X168Y727D01*
X166Y727D01*
X166Y729D01*
X164Y729D01*
X164Y733D01*
X162Y733D01*
X162Y737D01*
X160Y737D01*
X160Y743D01*
X158Y743D01*
X158Y767D01*
X160Y767D01*
X160Y773D01*
X162Y773D01*
X162Y777D01*
X164Y777D01*
X164Y781D01*
X166Y781D01*
X166Y783D01*
X168Y783D01*
X168Y785D01*
X170Y785D01*
X170Y789D01*
X174Y789D01*
X174Y791D01*
X176Y791D01*
X176Y793D01*
X178Y793D01*
X178Y795D01*
X182Y795D01*
X182Y815D01*
X178Y815D01*
X178Y817D01*
X176Y817D01*
X176Y819D01*
X174Y819D01*
X174Y821D01*
X170Y821D01*
X170Y825D01*
X168Y825D01*
X168Y827D01*
X166Y827D01*
X166Y829D01*
X164Y829D01*
X164Y833D01*
X162Y833D01*
X162Y837D01*
X160Y837D01*
X160Y843D01*
X158Y843D01*
X158Y867D01*
X160Y867D01*
X160Y873D01*
X162Y873D01*
X162Y877D01*
X164Y877D01*
X164Y881D01*
X166Y881D01*
X166Y883D01*
X168Y883D01*
X168Y885D01*
X170Y885D01*
X170Y889D01*
X174Y889D01*
X174Y891D01*
X176Y891D01*
X176Y893D01*
X178Y893D01*
X178Y895D01*
X182Y895D01*
X182Y897D01*
X186Y897D01*
X186Y899D01*
X192Y899D01*
X192Y901D01*
X130Y901D01*
G37*
D02*
G36*
X216Y901D02*
X216Y899D01*
X222Y899D01*
X222Y897D01*
X226Y897D01*
X226Y895D01*
X230Y895D01*
X230Y893D01*
X232Y893D01*
X232Y891D01*
X236Y891D01*
X236Y889D01*
X238Y889D01*
X238Y887D01*
X240Y887D01*
X240Y883D01*
X242Y883D01*
X242Y881D01*
X244Y881D01*
X244Y877D01*
X264Y877D01*
X264Y881D01*
X266Y881D01*
X266Y883D01*
X268Y883D01*
X268Y885D01*
X270Y885D01*
X270Y889D01*
X274Y889D01*
X274Y891D01*
X276Y891D01*
X276Y893D01*
X278Y893D01*
X278Y895D01*
X282Y895D01*
X282Y897D01*
X286Y897D01*
X286Y899D01*
X292Y899D01*
X292Y901D01*
X216Y901D01*
G37*
D02*
G36*
X1958Y777D02*
X1958Y775D01*
X1952Y775D01*
X1952Y773D01*
X1948Y773D01*
X1948Y771D01*
X1942Y771D01*
X1942Y769D01*
X1938Y769D01*
X1938Y767D01*
X1934Y767D01*
X1934Y765D01*
X1928Y765D01*
X1928Y763D01*
X1924Y763D01*
X1924Y761D01*
X1920Y761D01*
X1920Y759D01*
X1914Y759D01*
X1914Y757D01*
X1910Y757D01*
X1910Y755D01*
X1906Y755D01*
X1906Y753D01*
X1900Y753D01*
X1900Y751D01*
X1896Y751D01*
X1896Y749D01*
X1890Y749D01*
X1890Y747D01*
X1886Y747D01*
X1886Y745D01*
X1882Y745D01*
X1882Y743D01*
X1876Y743D01*
X1876Y741D01*
X1872Y741D01*
X1872Y739D01*
X1868Y739D01*
X1868Y737D01*
X1862Y737D01*
X1862Y735D01*
X1858Y735D01*
X1858Y733D01*
X1854Y733D01*
X1854Y731D01*
X1848Y731D01*
X1848Y729D01*
X1844Y729D01*
X1844Y727D01*
X1838Y727D01*
X1838Y725D01*
X1834Y725D01*
X1834Y723D01*
X1830Y723D01*
X1830Y721D01*
X1824Y721D01*
X1824Y719D01*
X1820Y719D01*
X1820Y717D01*
X1816Y717D01*
X1816Y715D01*
X1810Y715D01*
X1810Y713D01*
X1806Y713D01*
X1806Y711D01*
X1802Y711D01*
X1802Y709D01*
X1796Y709D01*
X1796Y707D01*
X1792Y707D01*
X1792Y705D01*
X1786Y705D01*
X1786Y703D01*
X1782Y703D01*
X1782Y701D01*
X1778Y701D01*
X1778Y699D01*
X1772Y699D01*
X1772Y697D01*
X1768Y697D01*
X1768Y695D01*
X1764Y695D01*
X1764Y693D01*
X1758Y693D01*
X1758Y691D01*
X1754Y691D01*
X1754Y689D01*
X1748Y689D01*
X1748Y687D01*
X1744Y687D01*
X1744Y685D01*
X1740Y685D01*
X1740Y683D01*
X1734Y683D01*
X1734Y681D01*
X1730Y681D01*
X1730Y679D01*
X1726Y679D01*
X1726Y677D01*
X1720Y677D01*
X1720Y675D01*
X1716Y675D01*
X1716Y673D01*
X1712Y673D01*
X1712Y671D01*
X1706Y671D01*
X1706Y669D01*
X1702Y669D01*
X1702Y667D01*
X1696Y667D01*
X1696Y665D01*
X1692Y665D01*
X1692Y663D01*
X1688Y663D01*
X1688Y661D01*
X1682Y661D01*
X1682Y659D01*
X1678Y659D01*
X1678Y657D01*
X1674Y657D01*
X1674Y655D01*
X1668Y655D01*
X1668Y653D01*
X1664Y653D01*
X1664Y651D01*
X1660Y651D01*
X1660Y649D01*
X1654Y649D01*
X1654Y647D01*
X1650Y647D01*
X1650Y641D01*
X1648Y641D01*
X1648Y635D01*
X1646Y635D01*
X1646Y631D01*
X1644Y631D01*
X1644Y627D01*
X1642Y627D01*
X1642Y625D01*
X1640Y625D01*
X1640Y623D01*
X1638Y623D01*
X1638Y621D01*
X1636Y621D01*
X1636Y619D01*
X1634Y619D01*
X1634Y617D01*
X1630Y617D01*
X1630Y615D01*
X1628Y615D01*
X1628Y613D01*
X1624Y613D01*
X1624Y611D01*
X1618Y611D01*
X1618Y609D01*
X1610Y609D01*
X1610Y607D01*
X1752Y607D01*
X1752Y609D01*
X1756Y609D01*
X1756Y611D01*
X1760Y611D01*
X1760Y613D01*
X1764Y613D01*
X1764Y615D01*
X1768Y615D01*
X1768Y617D01*
X1772Y617D01*
X1772Y619D01*
X1776Y619D01*
X1776Y621D01*
X1780Y621D01*
X1780Y623D01*
X1784Y623D01*
X1784Y625D01*
X1788Y625D01*
X1788Y627D01*
X1792Y627D01*
X1792Y629D01*
X1796Y629D01*
X1796Y631D01*
X1800Y631D01*
X1800Y633D01*
X1804Y633D01*
X1804Y635D01*
X1808Y635D01*
X1808Y637D01*
X1812Y637D01*
X1812Y639D01*
X1816Y639D01*
X1816Y641D01*
X1820Y641D01*
X1820Y643D01*
X1824Y643D01*
X1824Y645D01*
X1828Y645D01*
X1828Y647D01*
X1832Y647D01*
X1832Y649D01*
X1836Y649D01*
X1836Y651D01*
X1840Y651D01*
X1840Y653D01*
X1844Y653D01*
X1844Y655D01*
X1848Y655D01*
X1848Y657D01*
X1852Y657D01*
X1852Y659D01*
X1856Y659D01*
X1856Y661D01*
X1860Y661D01*
X1860Y663D01*
X1864Y663D01*
X1864Y665D01*
X1868Y665D01*
X1868Y667D01*
X1872Y667D01*
X1872Y669D01*
X1876Y669D01*
X1876Y671D01*
X1880Y671D01*
X1880Y673D01*
X1884Y673D01*
X1884Y675D01*
X1888Y675D01*
X1888Y677D01*
X1892Y677D01*
X1892Y679D01*
X1896Y679D01*
X1896Y681D01*
X1900Y681D01*
X1900Y683D01*
X1904Y683D01*
X1904Y685D01*
X1908Y685D01*
X1908Y687D01*
X1912Y687D01*
X1912Y689D01*
X1916Y689D01*
X1916Y691D01*
X1920Y691D01*
X1920Y693D01*
X1924Y693D01*
X1924Y695D01*
X1928Y695D01*
X1928Y697D01*
X1932Y697D01*
X1932Y699D01*
X1936Y699D01*
X1936Y701D01*
X1940Y701D01*
X1940Y703D01*
X1942Y703D01*
X1942Y705D01*
X1946Y705D01*
X1946Y707D01*
X1950Y707D01*
X1950Y709D01*
X1954Y709D01*
X1954Y711D01*
X1958Y711D01*
X1958Y713D01*
X1962Y713D01*
X1962Y715D01*
X1966Y715D01*
X1966Y717D01*
X1970Y717D01*
X1970Y719D01*
X1974Y719D01*
X1974Y721D01*
X1978Y721D01*
X1978Y723D01*
X1980Y723D01*
X1980Y777D01*
X1958Y777D01*
G37*
D02*
G36*
X718Y735D02*
X718Y733D01*
X714Y733D01*
X714Y731D01*
X710Y731D01*
X710Y729D01*
X644Y729D01*
X644Y727D01*
X642Y727D01*
X642Y725D01*
X640Y725D01*
X640Y723D01*
X638Y723D01*
X638Y721D01*
X636Y721D01*
X636Y719D01*
X634Y719D01*
X634Y717D01*
X630Y717D01*
X630Y715D01*
X628Y715D01*
X628Y695D01*
X630Y695D01*
X630Y693D01*
X634Y693D01*
X634Y691D01*
X636Y691D01*
X636Y689D01*
X638Y689D01*
X638Y687D01*
X640Y687D01*
X640Y685D01*
X642Y685D01*
X642Y683D01*
X644Y683D01*
X644Y679D01*
X646Y679D01*
X646Y675D01*
X648Y675D01*
X648Y669D01*
X650Y669D01*
X650Y661D01*
X652Y661D01*
X652Y649D01*
X650Y649D01*
X650Y641D01*
X648Y641D01*
X648Y635D01*
X646Y635D01*
X646Y631D01*
X644Y631D01*
X644Y627D01*
X642Y627D01*
X642Y625D01*
X640Y625D01*
X640Y623D01*
X638Y623D01*
X638Y621D01*
X636Y621D01*
X636Y619D01*
X634Y619D01*
X634Y617D01*
X630Y617D01*
X630Y615D01*
X628Y615D01*
X628Y595D01*
X630Y595D01*
X630Y593D01*
X634Y593D01*
X634Y591D01*
X636Y591D01*
X636Y589D01*
X638Y589D01*
X638Y587D01*
X640Y587D01*
X640Y585D01*
X642Y585D01*
X642Y583D01*
X644Y583D01*
X644Y579D01*
X646Y579D01*
X646Y575D01*
X648Y575D01*
X648Y569D01*
X650Y569D01*
X650Y561D01*
X652Y561D01*
X652Y549D01*
X650Y549D01*
X650Y541D01*
X648Y541D01*
X648Y535D01*
X646Y535D01*
X646Y531D01*
X644Y531D01*
X644Y527D01*
X642Y527D01*
X642Y525D01*
X640Y525D01*
X640Y523D01*
X638Y523D01*
X638Y521D01*
X636Y521D01*
X636Y519D01*
X634Y519D01*
X634Y517D01*
X630Y517D01*
X630Y515D01*
X628Y515D01*
X628Y513D01*
X624Y513D01*
X624Y511D01*
X618Y511D01*
X618Y509D01*
X610Y509D01*
X610Y507D01*
X804Y507D01*
X804Y513D01*
X802Y513D01*
X802Y519D01*
X800Y519D01*
X800Y523D01*
X798Y523D01*
X798Y529D01*
X796Y529D01*
X796Y533D01*
X794Y533D01*
X794Y539D01*
X792Y539D01*
X792Y545D01*
X790Y545D01*
X790Y549D01*
X788Y549D01*
X788Y555D01*
X786Y555D01*
X786Y559D01*
X784Y559D01*
X784Y565D01*
X782Y565D01*
X782Y569D01*
X780Y569D01*
X780Y575D01*
X778Y575D01*
X778Y581D01*
X776Y581D01*
X776Y585D01*
X774Y585D01*
X774Y591D01*
X772Y591D01*
X772Y595D01*
X770Y595D01*
X770Y601D01*
X768Y601D01*
X768Y607D01*
X766Y607D01*
X766Y611D01*
X764Y611D01*
X764Y617D01*
X762Y617D01*
X762Y621D01*
X760Y621D01*
X760Y627D01*
X758Y627D01*
X758Y633D01*
X756Y633D01*
X756Y637D01*
X754Y637D01*
X754Y643D01*
X752Y643D01*
X752Y647D01*
X750Y647D01*
X750Y653D01*
X748Y653D01*
X748Y659D01*
X746Y659D01*
X746Y663D01*
X744Y663D01*
X744Y669D01*
X742Y669D01*
X742Y673D01*
X740Y673D01*
X740Y679D01*
X738Y679D01*
X738Y683D01*
X736Y683D01*
X736Y689D01*
X734Y689D01*
X734Y695D01*
X732Y695D01*
X732Y701D01*
X730Y701D01*
X730Y711D01*
X732Y711D01*
X732Y719D01*
X734Y719D01*
X734Y725D01*
X736Y725D01*
X736Y731D01*
X738Y731D01*
X738Y735D01*
X718Y735D01*
G37*
D02*
G36*
X1012Y681D02*
X1012Y679D01*
X1008Y679D01*
X1008Y677D01*
X1004Y677D01*
X1004Y675D01*
X1000Y675D01*
X1000Y673D01*
X996Y673D01*
X996Y671D01*
X992Y671D01*
X992Y669D01*
X988Y669D01*
X988Y667D01*
X984Y667D01*
X984Y665D01*
X980Y665D01*
X980Y663D01*
X976Y663D01*
X976Y661D01*
X972Y661D01*
X972Y659D01*
X968Y659D01*
X968Y657D01*
X964Y657D01*
X964Y655D01*
X960Y655D01*
X960Y653D01*
X956Y653D01*
X956Y651D01*
X952Y651D01*
X952Y649D01*
X950Y649D01*
X950Y629D01*
X1112Y629D01*
X1112Y627D01*
X1116Y627D01*
X1116Y625D01*
X1120Y625D01*
X1120Y623D01*
X1122Y623D01*
X1122Y621D01*
X1124Y621D01*
X1124Y619D01*
X1126Y619D01*
X1126Y617D01*
X1128Y617D01*
X1128Y615D01*
X1130Y615D01*
X1130Y613D01*
X1132Y613D01*
X1132Y611D01*
X1134Y611D01*
X1134Y609D01*
X1136Y609D01*
X1136Y607D01*
X1198Y607D01*
X1198Y609D01*
X1190Y609D01*
X1190Y611D01*
X1184Y611D01*
X1184Y613D01*
X1180Y613D01*
X1180Y615D01*
X1178Y615D01*
X1178Y617D01*
X1174Y617D01*
X1174Y619D01*
X1172Y619D01*
X1172Y621D01*
X1170Y621D01*
X1170Y623D01*
X1168Y623D01*
X1168Y625D01*
X1166Y625D01*
X1166Y629D01*
X1164Y629D01*
X1164Y631D01*
X1162Y631D01*
X1162Y635D01*
X1160Y635D01*
X1160Y641D01*
X1158Y641D01*
X1158Y649D01*
X1156Y649D01*
X1156Y651D01*
X1152Y651D01*
X1152Y653D01*
X1148Y653D01*
X1148Y655D01*
X1144Y655D01*
X1144Y657D01*
X1140Y657D01*
X1140Y659D01*
X1136Y659D01*
X1136Y661D01*
X1132Y661D01*
X1132Y663D01*
X1128Y663D01*
X1128Y665D01*
X1124Y665D01*
X1124Y667D01*
X1120Y667D01*
X1120Y669D01*
X1116Y669D01*
X1116Y671D01*
X1112Y671D01*
X1112Y673D01*
X1108Y673D01*
X1108Y675D01*
X1104Y675D01*
X1104Y677D01*
X1100Y677D01*
X1100Y679D01*
X1098Y679D01*
X1098Y681D01*
X1012Y681D01*
G37*
D02*
G36*
X238Y623D02*
X238Y621D01*
X236Y621D01*
X236Y619D01*
X232Y619D01*
X232Y617D01*
X230Y617D01*
X230Y615D01*
X226Y615D01*
X226Y613D01*
X222Y613D01*
X222Y611D01*
X216Y611D01*
X216Y609D01*
X258Y609D01*
X258Y623D01*
X238Y623D01*
G37*
D02*
G36*
X130Y609D02*
X130Y607D01*
X258Y607D01*
X258Y609D01*
X130Y609D01*
G37*
D02*
G36*
X130Y609D02*
X130Y607D01*
X258Y607D01*
X258Y609D01*
X130Y609D01*
G37*
D02*
G36*
X130Y607D02*
X130Y605D01*
X580Y605D01*
X580Y607D01*
X130Y607D01*
G37*
D02*
G36*
X130Y607D02*
X130Y605D01*
X580Y605D01*
X580Y607D01*
X130Y607D01*
G37*
D02*
G36*
X1138Y607D02*
X1138Y605D01*
X1748Y605D01*
X1748Y607D01*
X1138Y607D01*
G37*
D02*
G36*
X1138Y607D02*
X1138Y605D01*
X1748Y605D01*
X1748Y607D01*
X1138Y607D01*
G37*
D02*
G36*
X1138Y607D02*
X1138Y605D01*
X1748Y605D01*
X1748Y607D01*
X1138Y607D01*
G37*
D02*
G36*
X130Y605D02*
X130Y517D01*
X132Y517D01*
X132Y511D01*
X134Y511D01*
X134Y507D01*
X598Y507D01*
X598Y509D01*
X590Y509D01*
X590Y511D01*
X584Y511D01*
X584Y513D01*
X580Y513D01*
X580Y515D01*
X578Y515D01*
X578Y517D01*
X574Y517D01*
X574Y519D01*
X572Y519D01*
X572Y521D01*
X570Y521D01*
X570Y523D01*
X568Y523D01*
X568Y525D01*
X566Y525D01*
X566Y529D01*
X564Y529D01*
X564Y531D01*
X562Y531D01*
X562Y535D01*
X560Y535D01*
X560Y541D01*
X558Y541D01*
X558Y549D01*
X556Y549D01*
X556Y561D01*
X558Y561D01*
X558Y569D01*
X560Y569D01*
X560Y575D01*
X562Y575D01*
X562Y579D01*
X564Y579D01*
X564Y581D01*
X566Y581D01*
X566Y585D01*
X568Y585D01*
X568Y587D01*
X570Y587D01*
X570Y589D01*
X572Y589D01*
X572Y591D01*
X574Y591D01*
X574Y593D01*
X578Y593D01*
X578Y595D01*
X580Y595D01*
X580Y605D01*
X130Y605D01*
G37*
D02*
G36*
X1140Y605D02*
X1140Y603D01*
X1142Y603D01*
X1142Y601D01*
X1144Y601D01*
X1144Y599D01*
X1146Y599D01*
X1146Y597D01*
X1148Y597D01*
X1148Y595D01*
X1150Y595D01*
X1150Y593D01*
X1152Y593D01*
X1152Y591D01*
X1154Y591D01*
X1154Y589D01*
X1156Y589D01*
X1156Y587D01*
X1158Y587D01*
X1158Y585D01*
X1160Y585D01*
X1160Y583D01*
X1162Y583D01*
X1162Y581D01*
X1164Y581D01*
X1164Y579D01*
X1166Y579D01*
X1166Y577D01*
X1168Y577D01*
X1168Y575D01*
X1170Y575D01*
X1170Y573D01*
X1172Y573D01*
X1172Y571D01*
X1174Y571D01*
X1174Y569D01*
X1176Y569D01*
X1176Y567D01*
X1178Y567D01*
X1178Y565D01*
X1180Y565D01*
X1180Y563D01*
X1184Y563D01*
X1184Y561D01*
X1186Y561D01*
X1186Y559D01*
X1188Y559D01*
X1188Y557D01*
X1190Y557D01*
X1190Y555D01*
X1192Y555D01*
X1192Y553D01*
X1610Y553D01*
X1610Y551D01*
X1640Y551D01*
X1640Y553D01*
X1644Y553D01*
X1644Y555D01*
X1648Y555D01*
X1648Y557D01*
X1652Y557D01*
X1652Y559D01*
X1656Y559D01*
X1656Y561D01*
X1660Y561D01*
X1660Y563D01*
X1664Y563D01*
X1664Y565D01*
X1668Y565D01*
X1668Y567D01*
X1672Y567D01*
X1672Y569D01*
X1676Y569D01*
X1676Y571D01*
X1680Y571D01*
X1680Y573D01*
X1684Y573D01*
X1684Y575D01*
X1688Y575D01*
X1688Y577D01*
X1692Y577D01*
X1692Y579D01*
X1696Y579D01*
X1696Y581D01*
X1700Y581D01*
X1700Y583D01*
X1704Y583D01*
X1704Y585D01*
X1708Y585D01*
X1708Y587D01*
X1712Y587D01*
X1712Y589D01*
X1716Y589D01*
X1716Y591D01*
X1720Y591D01*
X1720Y593D01*
X1724Y593D01*
X1724Y595D01*
X1728Y595D01*
X1728Y597D01*
X1732Y597D01*
X1732Y599D01*
X1736Y599D01*
X1736Y601D01*
X1740Y601D01*
X1740Y603D01*
X1744Y603D01*
X1744Y605D01*
X1140Y605D01*
G37*
D02*
G36*
X964Y577D02*
X964Y575D01*
X962Y575D01*
X962Y573D01*
X960Y573D01*
X960Y571D01*
X958Y571D01*
X958Y569D01*
X956Y569D01*
X956Y567D01*
X954Y567D01*
X954Y565D01*
X952Y565D01*
X952Y549D01*
X950Y549D01*
X950Y541D01*
X948Y541D01*
X948Y535D01*
X946Y535D01*
X946Y531D01*
X944Y531D01*
X944Y527D01*
X942Y527D01*
X942Y525D01*
X940Y525D01*
X940Y523D01*
X938Y523D01*
X938Y521D01*
X936Y521D01*
X936Y519D01*
X934Y519D01*
X934Y517D01*
X930Y517D01*
X930Y515D01*
X928Y515D01*
X928Y513D01*
X924Y513D01*
X924Y511D01*
X918Y511D01*
X918Y509D01*
X910Y509D01*
X910Y507D01*
X1156Y507D01*
X1156Y517D01*
X1154Y517D01*
X1154Y519D01*
X1152Y519D01*
X1152Y521D01*
X1150Y521D01*
X1150Y523D01*
X1148Y523D01*
X1148Y525D01*
X1146Y525D01*
X1146Y527D01*
X1144Y527D01*
X1144Y529D01*
X1142Y529D01*
X1142Y531D01*
X1140Y531D01*
X1140Y533D01*
X1138Y533D01*
X1138Y535D01*
X1136Y535D01*
X1136Y537D01*
X1134Y537D01*
X1134Y539D01*
X1132Y539D01*
X1132Y541D01*
X1130Y541D01*
X1130Y543D01*
X1128Y543D01*
X1128Y545D01*
X1124Y545D01*
X1124Y547D01*
X1122Y547D01*
X1122Y549D01*
X1120Y549D01*
X1120Y551D01*
X1118Y551D01*
X1118Y553D01*
X1116Y553D01*
X1116Y555D01*
X1114Y555D01*
X1114Y557D01*
X1112Y557D01*
X1112Y559D01*
X1110Y559D01*
X1110Y561D01*
X1108Y561D01*
X1108Y563D01*
X1106Y563D01*
X1106Y565D01*
X1104Y565D01*
X1104Y567D01*
X1102Y567D01*
X1102Y569D01*
X1100Y569D01*
X1100Y571D01*
X1098Y571D01*
X1098Y573D01*
X1096Y573D01*
X1096Y575D01*
X1094Y575D01*
X1094Y577D01*
X964Y577D01*
G37*
D02*
G36*
X1210Y553D02*
X1210Y551D01*
X1218Y551D01*
X1218Y549D01*
X1224Y549D01*
X1224Y547D01*
X1228Y547D01*
X1228Y545D01*
X1230Y545D01*
X1230Y543D01*
X1234Y543D01*
X1234Y541D01*
X1236Y541D01*
X1236Y539D01*
X1238Y539D01*
X1238Y537D01*
X1240Y537D01*
X1240Y535D01*
X1242Y535D01*
X1242Y533D01*
X1244Y533D01*
X1244Y529D01*
X1246Y529D01*
X1246Y525D01*
X1248Y525D01*
X1248Y519D01*
X1250Y519D01*
X1250Y511D01*
X1252Y511D01*
X1252Y499D01*
X1250Y499D01*
X1250Y491D01*
X1248Y491D01*
X1248Y485D01*
X1246Y485D01*
X1246Y481D01*
X1244Y481D01*
X1244Y477D01*
X1242Y477D01*
X1242Y475D01*
X1240Y475D01*
X1240Y473D01*
X1238Y473D01*
X1238Y471D01*
X1236Y471D01*
X1236Y469D01*
X1234Y469D01*
X1234Y467D01*
X1230Y467D01*
X1230Y465D01*
X1228Y465D01*
X1228Y463D01*
X1224Y463D01*
X1224Y461D01*
X1218Y461D01*
X1218Y459D01*
X1210Y459D01*
X1210Y457D01*
X1598Y457D01*
X1598Y459D01*
X1590Y459D01*
X1590Y461D01*
X1584Y461D01*
X1584Y463D01*
X1580Y463D01*
X1580Y465D01*
X1578Y465D01*
X1578Y467D01*
X1574Y467D01*
X1574Y469D01*
X1572Y469D01*
X1572Y471D01*
X1570Y471D01*
X1570Y473D01*
X1568Y473D01*
X1568Y475D01*
X1566Y475D01*
X1566Y479D01*
X1564Y479D01*
X1564Y481D01*
X1562Y481D01*
X1562Y485D01*
X1560Y485D01*
X1560Y491D01*
X1558Y491D01*
X1558Y499D01*
X1556Y499D01*
X1556Y511D01*
X1558Y511D01*
X1558Y519D01*
X1560Y519D01*
X1560Y525D01*
X1562Y525D01*
X1562Y529D01*
X1564Y529D01*
X1564Y531D01*
X1566Y531D01*
X1566Y535D01*
X1568Y535D01*
X1568Y537D01*
X1570Y537D01*
X1570Y539D01*
X1572Y539D01*
X1572Y541D01*
X1574Y541D01*
X1574Y543D01*
X1578Y543D01*
X1578Y545D01*
X1580Y545D01*
X1580Y547D01*
X1584Y547D01*
X1584Y549D01*
X1590Y549D01*
X1590Y551D01*
X1598Y551D01*
X1598Y553D01*
X1210Y553D01*
G37*
D02*
G36*
X858Y517D02*
X858Y513D01*
X860Y513D01*
X860Y507D01*
X898Y507D01*
X898Y509D01*
X890Y509D01*
X890Y511D01*
X884Y511D01*
X884Y513D01*
X880Y513D01*
X880Y515D01*
X878Y515D01*
X878Y517D01*
X858Y517D01*
G37*
D02*
G36*
X134Y507D02*
X134Y505D01*
X806Y505D01*
X806Y507D01*
X134Y507D01*
G37*
D02*
G36*
X134Y507D02*
X134Y505D01*
X806Y505D01*
X806Y507D01*
X134Y507D01*
G37*
D02*
G36*
X862Y507D02*
X862Y505D01*
X1156Y505D01*
X1156Y507D01*
X862Y507D01*
G37*
D02*
G36*
X862Y507D02*
X862Y505D01*
X1156Y505D01*
X1156Y507D01*
X862Y507D01*
G37*
D02*
G36*
X134Y505D02*
X134Y499D01*
X132Y499D01*
X132Y493D01*
X130Y493D01*
X130Y489D01*
X128Y489D01*
X128Y487D01*
X126Y487D01*
X126Y485D01*
X124Y485D01*
X124Y483D01*
X122Y483D01*
X122Y481D01*
X120Y481D01*
X120Y479D01*
X116Y479D01*
X116Y477D01*
X110Y477D01*
X110Y475D01*
X818Y475D01*
X818Y477D01*
X816Y477D01*
X816Y481D01*
X814Y481D01*
X814Y487D01*
X812Y487D01*
X812Y493D01*
X810Y493D01*
X810Y497D01*
X808Y497D01*
X808Y503D01*
X806Y503D01*
X806Y505D01*
X134Y505D01*
G37*
D02*
G36*
X862Y505D02*
X862Y501D01*
X864Y501D01*
X864Y497D01*
X866Y497D01*
X866Y491D01*
X868Y491D01*
X868Y487D01*
X870Y487D01*
X870Y481D01*
X872Y481D01*
X872Y477D01*
X874Y477D01*
X874Y471D01*
X876Y471D01*
X876Y465D01*
X878Y465D01*
X878Y459D01*
X880Y459D01*
X880Y457D01*
X1198Y457D01*
X1198Y459D01*
X1190Y459D01*
X1190Y461D01*
X1184Y461D01*
X1184Y463D01*
X1180Y463D01*
X1180Y465D01*
X1178Y465D01*
X1178Y467D01*
X1174Y467D01*
X1174Y469D01*
X1172Y469D01*
X1172Y471D01*
X1170Y471D01*
X1170Y473D01*
X1168Y473D01*
X1168Y475D01*
X1166Y475D01*
X1166Y479D01*
X1164Y479D01*
X1164Y481D01*
X1162Y481D01*
X1162Y485D01*
X1160Y485D01*
X1160Y491D01*
X1158Y491D01*
X1158Y499D01*
X1156Y499D01*
X1156Y505D01*
X862Y505D01*
G37*
D02*
G36*
X40Y475D02*
X40Y473D01*
X818Y473D01*
X818Y475D01*
X40Y475D01*
G37*
D02*
G36*
X40Y475D02*
X40Y473D01*
X818Y473D01*
X818Y475D01*
X40Y475D01*
G37*
D02*
G36*
X40Y473D02*
X40Y295D01*
X660Y295D01*
X660Y215D01*
X730Y215D01*
X730Y311D01*
X732Y311D01*
X732Y317D01*
X734Y317D01*
X734Y321D01*
X736Y321D01*
X736Y325D01*
X738Y325D01*
X738Y327D01*
X740Y327D01*
X740Y331D01*
X742Y331D01*
X742Y333D01*
X744Y333D01*
X744Y337D01*
X746Y337D01*
X746Y339D01*
X748Y339D01*
X748Y343D01*
X750Y343D01*
X750Y345D01*
X752Y345D01*
X752Y349D01*
X754Y349D01*
X754Y351D01*
X756Y351D01*
X756Y355D01*
X758Y355D01*
X758Y357D01*
X760Y357D01*
X760Y361D01*
X762Y361D01*
X762Y363D01*
X764Y363D01*
X764Y367D01*
X766Y367D01*
X766Y369D01*
X768Y369D01*
X768Y373D01*
X770Y373D01*
X770Y375D01*
X772Y375D01*
X772Y379D01*
X774Y379D01*
X774Y381D01*
X776Y381D01*
X776Y385D01*
X778Y385D01*
X778Y387D01*
X780Y387D01*
X780Y391D01*
X782Y391D01*
X782Y393D01*
X784Y393D01*
X784Y397D01*
X786Y397D01*
X786Y399D01*
X788Y399D01*
X788Y403D01*
X790Y403D01*
X790Y405D01*
X792Y405D01*
X792Y409D01*
X794Y409D01*
X794Y411D01*
X796Y411D01*
X796Y415D01*
X798Y415D01*
X798Y417D01*
X800Y417D01*
X800Y421D01*
X802Y421D01*
X802Y423D01*
X804Y423D01*
X804Y427D01*
X806Y427D01*
X806Y429D01*
X808Y429D01*
X808Y433D01*
X810Y433D01*
X810Y435D01*
X812Y435D01*
X812Y439D01*
X814Y439D01*
X814Y441D01*
X816Y441D01*
X816Y445D01*
X818Y445D01*
X818Y447D01*
X820Y447D01*
X820Y471D01*
X818Y471D01*
X818Y473D01*
X40Y473D01*
G37*
D02*
G36*
X880Y457D02*
X880Y455D01*
X2078Y455D01*
X2078Y457D01*
X880Y457D01*
G37*
D02*
G36*
X880Y457D02*
X880Y455D01*
X2078Y455D01*
X2078Y457D01*
X880Y457D01*
G37*
D02*
G36*
X880Y457D02*
X880Y455D01*
X2078Y455D01*
X2078Y457D01*
X880Y457D01*
G37*
D02*
G36*
X880Y455D02*
X880Y445D01*
X878Y445D01*
X878Y441D01*
X876Y441D01*
X876Y437D01*
X874Y437D01*
X874Y435D01*
X872Y435D01*
X872Y431D01*
X870Y431D01*
X870Y429D01*
X868Y429D01*
X868Y425D01*
X866Y425D01*
X866Y423D01*
X864Y423D01*
X864Y419D01*
X862Y419D01*
X862Y417D01*
X860Y417D01*
X860Y413D01*
X858Y413D01*
X858Y411D01*
X856Y411D01*
X856Y407D01*
X854Y407D01*
X854Y405D01*
X852Y405D01*
X852Y401D01*
X850Y401D01*
X850Y399D01*
X848Y399D01*
X848Y395D01*
X846Y395D01*
X846Y393D01*
X844Y393D01*
X844Y389D01*
X842Y389D01*
X842Y387D01*
X840Y387D01*
X840Y383D01*
X838Y383D01*
X838Y381D01*
X836Y381D01*
X836Y377D01*
X834Y377D01*
X834Y375D01*
X832Y375D01*
X832Y371D01*
X830Y371D01*
X830Y369D01*
X828Y369D01*
X828Y365D01*
X826Y365D01*
X826Y363D01*
X824Y363D01*
X824Y359D01*
X822Y359D01*
X822Y357D01*
X820Y357D01*
X820Y353D01*
X818Y353D01*
X818Y351D01*
X816Y351D01*
X816Y347D01*
X814Y347D01*
X814Y345D01*
X812Y345D01*
X812Y341D01*
X810Y341D01*
X810Y339D01*
X808Y339D01*
X808Y335D01*
X806Y335D01*
X806Y333D01*
X1008Y333D01*
X1008Y331D01*
X1016Y331D01*
X1016Y329D01*
X1020Y329D01*
X1020Y327D01*
X1022Y327D01*
X1022Y325D01*
X1024Y325D01*
X1024Y323D01*
X1026Y323D01*
X1026Y321D01*
X1028Y321D01*
X1028Y317D01*
X1030Y317D01*
X1030Y311D01*
X1032Y311D01*
X1032Y305D01*
X1034Y305D01*
X1034Y299D01*
X1036Y299D01*
X1036Y293D01*
X1038Y293D01*
X1038Y287D01*
X1040Y287D01*
X1040Y281D01*
X1042Y281D01*
X1042Y273D01*
X1044Y273D01*
X1044Y267D01*
X1046Y267D01*
X1046Y261D01*
X1048Y261D01*
X1048Y255D01*
X1050Y255D01*
X1050Y249D01*
X1052Y249D01*
X1052Y243D01*
X1054Y243D01*
X1054Y237D01*
X1056Y237D01*
X1056Y231D01*
X1058Y231D01*
X1058Y225D01*
X1060Y225D01*
X1060Y219D01*
X1062Y219D01*
X1062Y211D01*
X1064Y211D01*
X1064Y205D01*
X1202Y205D01*
X1202Y203D01*
X1204Y203D01*
X1204Y107D01*
X1202Y107D01*
X1202Y105D01*
X2078Y105D01*
X2078Y455D01*
X880Y455D01*
G37*
D02*
G36*
X804Y333D02*
X804Y329D01*
X802Y329D01*
X802Y327D01*
X800Y327D01*
X800Y323D01*
X798Y323D01*
X798Y321D01*
X796Y321D01*
X796Y317D01*
X794Y317D01*
X794Y315D01*
X792Y315D01*
X792Y295D01*
X832Y295D01*
X832Y297D01*
X836Y297D01*
X836Y299D01*
X840Y299D01*
X840Y301D01*
X844Y301D01*
X844Y303D01*
X846Y303D01*
X846Y305D01*
X850Y305D01*
X850Y307D01*
X854Y307D01*
X854Y309D01*
X858Y309D01*
X858Y311D01*
X860Y311D01*
X860Y313D01*
X864Y313D01*
X864Y315D01*
X868Y315D01*
X868Y317D01*
X872Y317D01*
X872Y319D01*
X874Y319D01*
X874Y321D01*
X878Y321D01*
X878Y323D01*
X882Y323D01*
X882Y325D01*
X886Y325D01*
X886Y327D01*
X888Y327D01*
X888Y329D01*
X892Y329D01*
X892Y331D01*
X902Y331D01*
X902Y333D01*
X804Y333D01*
G37*
D02*
G36*
X40Y295D02*
X40Y235D01*
X590Y235D01*
X590Y215D01*
X612Y215D01*
X612Y295D01*
X40Y295D01*
G37*
D02*
G36*
X910Y281D02*
X910Y279D01*
X906Y279D01*
X906Y277D01*
X902Y277D01*
X902Y275D01*
X900Y275D01*
X900Y273D01*
X896Y273D01*
X896Y271D01*
X892Y271D01*
X892Y269D01*
X888Y269D01*
X888Y267D01*
X886Y267D01*
X886Y265D01*
X882Y265D01*
X882Y263D01*
X878Y263D01*
X878Y261D01*
X874Y261D01*
X874Y259D01*
X872Y259D01*
X872Y257D01*
X868Y257D01*
X868Y255D01*
X864Y255D01*
X864Y235D01*
X918Y235D01*
X918Y185D01*
X916Y185D01*
X916Y183D01*
X1012Y183D01*
X1012Y203D01*
X1010Y203D01*
X1010Y209D01*
X1008Y209D01*
X1008Y217D01*
X1006Y217D01*
X1006Y223D01*
X1004Y223D01*
X1004Y229D01*
X1002Y229D01*
X1002Y235D01*
X1000Y235D01*
X1000Y241D01*
X998Y241D01*
X998Y247D01*
X996Y247D01*
X996Y253D01*
X994Y253D01*
X994Y259D01*
X992Y259D01*
X992Y265D01*
X990Y265D01*
X990Y271D01*
X988Y271D01*
X988Y277D01*
X986Y277D01*
X986Y281D01*
X910Y281D01*
G37*
D02*
G36*
X836Y239D02*
X836Y215D01*
X858Y215D01*
X858Y239D01*
X836Y239D01*
G37*
D02*
G36*
X40Y235D02*
X40Y183D01*
X532Y183D01*
X532Y235D01*
X40Y235D01*
G37*
D02*
G36*
X590Y215D02*
X590Y213D01*
X858Y213D01*
X858Y215D01*
X590Y215D01*
G37*
D02*
G36*
X590Y215D02*
X590Y213D01*
X858Y213D01*
X858Y215D01*
X590Y215D01*
G37*
D02*
G36*
X590Y215D02*
X590Y213D01*
X858Y213D01*
X858Y215D01*
X590Y215D01*
G37*
D02*
G36*
X590Y213D02*
X590Y195D01*
X784Y195D01*
X784Y193D01*
X794Y193D01*
X794Y191D01*
X798Y191D01*
X798Y189D01*
X800Y189D01*
X800Y187D01*
X804Y187D01*
X804Y183D01*
X860Y183D01*
X860Y185D01*
X858Y185D01*
X858Y213D01*
X590Y213D01*
G37*
D02*
G36*
X1066Y205D02*
X1066Y203D01*
X1068Y203D01*
X1068Y201D01*
X1074Y201D01*
X1074Y199D01*
X1078Y199D01*
X1078Y197D01*
X1080Y197D01*
X1080Y195D01*
X1084Y195D01*
X1084Y193D01*
X1086Y193D01*
X1086Y191D01*
X1106Y191D01*
X1106Y205D01*
X1066Y205D01*
G37*
D02*
G36*
X590Y195D02*
X590Y183D01*
X644Y183D01*
X644Y185D01*
X646Y185D01*
X646Y187D01*
X648Y187D01*
X648Y189D01*
X652Y189D01*
X652Y191D01*
X656Y191D01*
X656Y193D01*
X664Y193D01*
X664Y195D01*
X590Y195D01*
G37*
D02*
G36*
X666Y195D02*
X666Y193D01*
X676Y193D01*
X676Y191D01*
X680Y191D01*
X680Y189D01*
X682Y189D01*
X682Y187D01*
X686Y187D01*
X686Y183D01*
X688Y183D01*
X688Y181D01*
X690Y181D01*
X690Y177D01*
X692Y177D01*
X692Y169D01*
X694Y169D01*
X694Y165D01*
X692Y165D01*
X692Y157D01*
X690Y157D01*
X690Y153D01*
X688Y153D01*
X688Y149D01*
X686Y149D01*
X686Y147D01*
X684Y147D01*
X684Y145D01*
X682Y145D01*
X682Y143D01*
X678Y143D01*
X678Y141D01*
X672Y141D01*
X672Y139D01*
X776Y139D01*
X776Y141D01*
X772Y141D01*
X772Y143D01*
X768Y143D01*
X768Y145D01*
X766Y145D01*
X766Y147D01*
X764Y147D01*
X764Y149D01*
X762Y149D01*
X762Y151D01*
X760Y151D01*
X760Y155D01*
X758Y155D01*
X758Y159D01*
X756Y159D01*
X756Y173D01*
X758Y173D01*
X758Y179D01*
X760Y179D01*
X760Y183D01*
X762Y183D01*
X762Y185D01*
X764Y185D01*
X764Y187D01*
X766Y187D01*
X766Y189D01*
X770Y189D01*
X770Y191D01*
X774Y191D01*
X774Y193D01*
X782Y193D01*
X782Y195D01*
X666Y195D01*
G37*
D02*
G36*
X40Y183D02*
X40Y181D01*
X642Y181D01*
X642Y183D01*
X40Y183D01*
G37*
D02*
G36*
X40Y183D02*
X40Y181D01*
X642Y181D01*
X642Y183D01*
X40Y183D01*
G37*
D02*
G36*
X806Y183D02*
X806Y181D01*
X1012Y181D01*
X1012Y183D01*
X806Y183D01*
G37*
D02*
G36*
X806Y183D02*
X806Y181D01*
X1012Y181D01*
X1012Y183D01*
X806Y183D01*
G37*
D02*
G36*
X40Y181D02*
X40Y149D01*
X590Y149D01*
X590Y139D01*
X658Y139D01*
X658Y141D01*
X654Y141D01*
X654Y143D01*
X650Y143D01*
X650Y145D01*
X646Y145D01*
X646Y147D01*
X644Y147D01*
X644Y151D01*
X642Y151D01*
X642Y155D01*
X640Y155D01*
X640Y159D01*
X638Y159D01*
X638Y173D01*
X640Y173D01*
X640Y179D01*
X642Y179D01*
X642Y181D01*
X40Y181D01*
G37*
D02*
G36*
X808Y181D02*
X808Y177D01*
X810Y177D01*
X810Y169D01*
X812Y169D01*
X812Y163D01*
X810Y163D01*
X810Y155D01*
X808Y155D01*
X808Y151D01*
X806Y151D01*
X806Y149D01*
X918Y149D01*
X918Y107D01*
X1042Y107D01*
X1042Y109D01*
X1034Y109D01*
X1034Y111D01*
X1032Y111D01*
X1032Y113D01*
X1028Y113D01*
X1028Y115D01*
X1024Y115D01*
X1024Y117D01*
X1022Y117D01*
X1022Y119D01*
X1020Y119D01*
X1020Y121D01*
X1018Y121D01*
X1018Y123D01*
X1016Y123D01*
X1016Y125D01*
X1014Y125D01*
X1014Y129D01*
X1012Y129D01*
X1012Y133D01*
X1010Y133D01*
X1010Y135D01*
X1008Y135D01*
X1008Y143D01*
X1006Y143D01*
X1006Y167D01*
X1008Y167D01*
X1008Y175D01*
X1010Y175D01*
X1010Y177D01*
X1012Y177D01*
X1012Y181D01*
X808Y181D01*
G37*
D02*
G36*
X40Y149D02*
X40Y97D01*
X532Y97D01*
X532Y149D01*
X40Y149D01*
G37*
D02*
G36*
X804Y149D02*
X804Y147D01*
X802Y147D01*
X802Y145D01*
X800Y145D01*
X800Y143D01*
X796Y143D01*
X796Y141D01*
X792Y141D01*
X792Y139D01*
X858Y139D01*
X858Y149D01*
X804Y149D01*
G37*
D02*
G36*
X590Y139D02*
X590Y137D01*
X858Y137D01*
X858Y139D01*
X590Y139D01*
G37*
D02*
G36*
X590Y139D02*
X590Y137D01*
X858Y137D01*
X858Y139D01*
X590Y139D01*
G37*
D02*
G36*
X590Y139D02*
X590Y137D01*
X858Y137D01*
X858Y139D01*
X590Y139D01*
G37*
D02*
G36*
X590Y137D02*
X590Y97D01*
X858Y97D01*
X858Y137D01*
X590Y137D01*
G37*
D02*
G36*
X1086Y119D02*
X1086Y117D01*
X1084Y117D01*
X1084Y115D01*
X1080Y115D01*
X1080Y113D01*
X1078Y113D01*
X1078Y111D01*
X1074Y111D01*
X1074Y109D01*
X1068Y109D01*
X1068Y107D01*
X1106Y107D01*
X1106Y119D01*
X1086Y119D01*
G37*
D02*
G36*
X918Y107D02*
X918Y105D01*
X1106Y105D01*
X1106Y107D01*
X918Y107D01*
G37*
D02*
G36*
X918Y107D02*
X918Y105D01*
X1106Y105D01*
X1106Y107D01*
X918Y107D01*
G37*
D02*
G36*
X918Y105D02*
X918Y103D01*
X2078Y103D01*
X2078Y105D01*
X918Y105D01*
G37*
D02*
G36*
X918Y105D02*
X918Y103D01*
X2078Y103D01*
X2078Y105D01*
X918Y105D01*
G37*
D02*
G36*
X918Y103D02*
X918Y97D01*
X2078Y97D01*
X2078Y103D01*
X918Y103D01*
G37*
D02*
G36*
X40Y97D02*
X40Y95D01*
X2078Y95D01*
X2078Y97D01*
X40Y97D01*
G37*
D02*
G36*
X40Y97D02*
X40Y95D01*
X2078Y95D01*
X2078Y97D01*
X40Y97D01*
G37*
D02*
G36*
X40Y97D02*
X40Y95D01*
X2078Y95D01*
X2078Y97D01*
X40Y97D01*
G37*
D02*
G36*
X40Y95D02*
X40Y41D01*
X2078Y41D01*
X2078Y95D01*
X40Y95D01*
G37*
D02*
G36*
X618Y579D02*
X652Y579D01*
X652Y536D01*
X618Y536D01*
X618Y579D01*
G37*
D02*
G36*
X182Y905D02*
X225Y905D01*
X225Y877D01*
X182Y877D01*
X182Y905D01*
G37*
D02*
G36*
X1129Y209D02*
X1174Y209D01*
X1174Y177D01*
X1129Y177D01*
X1129Y209D01*
G37*
D02*
G36*
X1170Y180D02*
X1204Y180D01*
X1204Y135D01*
X1170Y135D01*
X1170Y180D01*
G37*
D02*
G36*
X1129Y209D02*
X1174Y209D01*
X1174Y177D01*
X1129Y177D01*
X1129Y209D01*
G37*
D02*
G36*
X1170Y180D02*
X1204Y180D01*
X1204Y135D01*
X1170Y135D01*
X1170Y180D01*
G37*
D02*
G54D22*
X267Y692D02*
X340Y692D01*
X267Y691D02*
X340Y691D01*
X267Y690D02*
X340Y690D01*
X267Y689D02*
X340Y689D01*
X267Y688D02*
X340Y688D01*
X267Y687D02*
X340Y687D01*
X267Y686D02*
X340Y686D01*
X267Y685D02*
X340Y685D01*
X267Y684D02*
X340Y684D01*
X267Y683D02*
X340Y683D01*
X267Y682D02*
X340Y682D01*
X267Y681D02*
X340Y681D01*
X267Y680D02*
X340Y680D01*
X267Y679D02*
X340Y679D01*
X267Y678D02*
X340Y678D01*
X267Y677D02*
X340Y677D01*
X267Y676D02*
X340Y676D01*
X267Y675D02*
X298Y675D01*
X310Y675D02*
X340Y675D01*
X267Y674D02*
X295Y674D01*
X312Y674D02*
X340Y674D01*
X267Y673D02*
X293Y673D01*
X314Y673D02*
X340Y673D01*
X267Y672D02*
X291Y672D01*
X316Y672D02*
X340Y672D01*
X267Y671D02*
X290Y671D01*
X317Y671D02*
X340Y671D01*
X267Y670D02*
X289Y670D01*
X318Y670D02*
X340Y670D01*
X267Y669D02*
X288Y669D01*
X319Y669D02*
X340Y669D01*
X267Y668D02*
X287Y668D01*
X320Y668D02*
X340Y668D01*
X267Y667D02*
X287Y667D01*
X321Y667D02*
X340Y667D01*
X267Y666D02*
X286Y666D01*
X321Y666D02*
X340Y666D01*
X267Y665D02*
X285Y665D01*
X322Y665D02*
X340Y665D01*
X267Y664D02*
X285Y664D01*
X322Y664D02*
X340Y664D01*
X267Y663D02*
X284Y663D01*
X323Y663D02*
X340Y663D01*
X267Y662D02*
X284Y662D01*
X323Y662D02*
X340Y662D01*
X267Y661D02*
X284Y661D01*
X323Y661D02*
X340Y661D01*
X267Y660D02*
X284Y660D01*
X324Y660D02*
X340Y660D01*
X267Y659D02*
X283Y659D01*
X324Y659D02*
X340Y659D01*
X267Y658D02*
X283Y658D01*
X324Y658D02*
X340Y658D01*
X267Y657D02*
X283Y657D01*
X324Y657D02*
X340Y657D01*
X267Y656D02*
X283Y656D01*
X324Y656D02*
X340Y656D01*
X267Y655D02*
X283Y655D01*
X324Y655D02*
X340Y655D01*
X267Y654D02*
X283Y654D01*
X324Y654D02*
X340Y654D01*
X267Y653D02*
X283Y653D01*
X324Y653D02*
X340Y653D01*
X267Y652D02*
X283Y652D01*
X324Y652D02*
X340Y652D01*
X267Y651D02*
X284Y651D01*
X323Y651D02*
X340Y651D01*
X267Y650D02*
X284Y650D01*
X323Y650D02*
X340Y650D01*
X267Y649D02*
X284Y649D01*
X323Y649D02*
X340Y649D01*
X267Y648D02*
X285Y648D01*
X322Y648D02*
X340Y648D01*
X267Y647D02*
X285Y647D01*
X322Y647D02*
X340Y647D01*
X267Y646D02*
X286Y646D01*
X321Y646D02*
X340Y646D01*
X267Y645D02*
X286Y645D01*
X321Y645D02*
X340Y645D01*
X267Y644D02*
X287Y644D01*
X320Y644D02*
X340Y644D01*
X267Y643D02*
X288Y643D01*
X319Y643D02*
X340Y643D01*
X267Y642D02*
X289Y642D01*
X318Y642D02*
X340Y642D01*
X267Y641D02*
X290Y641D01*
X317Y641D02*
X340Y641D01*
X267Y640D02*
X291Y640D01*
X316Y640D02*
X340Y640D01*
X267Y639D02*
X292Y639D01*
X315Y639D02*
X340Y639D01*
X267Y638D02*
X294Y638D01*
X313Y638D02*
X340Y638D01*
X267Y637D02*
X297Y637D01*
X310Y637D02*
X340Y637D01*
X267Y636D02*
X302Y636D01*
X305Y636D02*
X340Y636D01*
X267Y635D02*
X340Y635D01*
X267Y634D02*
X340Y634D01*
X267Y633D02*
X340Y633D01*
X267Y632D02*
X340Y632D01*
X267Y631D02*
X340Y631D01*
X267Y630D02*
X340Y630D01*
X267Y629D02*
X340Y629D01*
X267Y628D02*
X340Y628D01*
X267Y627D02*
X340Y627D01*
X267Y626D02*
X340Y626D01*
X267Y625D02*
X340Y625D01*
X267Y624D02*
X340Y624D01*
X267Y623D02*
X340Y623D01*
X267Y622D02*
X340Y622D01*
X267Y621D02*
X340Y621D01*
X267Y620D02*
X340Y620D01*
X267Y619D02*
X340Y619D01*
D02*
G04 End of Copper1*
M02*