; NON-PLATED HOLES START AT T1
; THROUGH (PLATED) HOLES START AT T100
M48
INCH
T100C0.038000
T101C0.035000
T102C0.031497
T103C0.042000
T104C0.052000
%
T100
X003203Y030109
X004203Y030109
T101
X006703Y024609
X003703Y024609
X003203Y007609
X003203Y005609
X005203Y020609
X006203Y006609
X006203Y007609
X006203Y005609
X005203Y024609
X002203Y024609
X006203Y008609
X003203Y006609
X003203Y008609
X006703Y020609
X002203Y020609
X003703Y020609
T102
X005203Y014609
X002203Y013624
X008203Y014609
X005203Y013624
X002203Y014609
X008203Y013624
T103
X003703Y027609
X002703Y027609
X004703Y027609
T104
X001703Y017609
X005203Y026109
X004703Y017609
X002203Y026109
T00
M30
