G04 MADE WITH FRITZING*
G04 WWW.FRITZING.ORG*
G04 DOUBLE SIDED*
G04 HOLES PLATED*
G04 CONTOUR ON CENTER OF CONTOUR VECTOR*
%ASAXBY*%
%FSLAX23Y23*%
%MOIN*%
%OFA0B0*%
%SFA1.0B1.0*%
%ADD10C,0.075000*%
%ADD11C,0.082000*%
%ADD12C,0.078000*%
%ADD13C,0.092000*%
%ADD14C,0.062992*%
%ADD15R,0.075000X0.075000*%
%ADD16R,0.082000X0.082000*%
%ADD17R,0.078000X0.078000*%
%ADD18R,0.092000X0.092000*%
%ADD19R,0.062992X0.062992*%
%ADD20C,0.032000*%
%LNCOPPER1*%
G90*
G70*
G54D10*
X110Y2997D03*
X317Y1385D03*
X320Y861D03*
X620Y861D03*
X320Y761D03*
X620Y761D03*
X320Y661D03*
X620Y661D03*
X320Y561D03*
X620Y561D03*
G54D11*
X270Y2761D03*
X370Y2761D03*
X470Y2761D03*
G54D12*
X420Y3011D03*
X320Y3011D03*
G54D13*
X520Y2611D03*
X220Y2611D03*
X470Y1761D03*
X170Y1761D03*
G54D10*
X220Y2061D03*
X220Y2461D03*
G54D14*
X520Y1362D03*
X520Y1461D03*
X220Y1362D03*
X220Y1461D03*
X820Y1362D03*
X820Y1461D03*
G54D10*
X670Y2061D03*
X670Y2461D03*
X520Y2061D03*
X520Y2461D03*
X370Y2061D03*
X370Y2461D03*
G54D15*
X320Y861D03*
G54D16*
X270Y2761D03*
G54D17*
X420Y3011D03*
G54D18*
X520Y2611D03*
X470Y1761D03*
G54D19*
X520Y1362D03*
X220Y1362D03*
X820Y1362D03*
G54D20*
X278Y2798D02*
X313Y2976D01*
D02*
X378Y2798D02*
X413Y2976D01*
D02*
X507Y2651D02*
X482Y2725D01*
D02*
X336Y2461D02*
X255Y2461D01*
D02*
X405Y2461D02*
X486Y2461D01*
D02*
X555Y2461D02*
X636Y2461D01*
D02*
X177Y1803D02*
X215Y2027D01*
D02*
X768Y1910D02*
X768Y1912D01*
D02*
X768Y1912D02*
X689Y2032D01*
D02*
X768Y1611D02*
X768Y1910D01*
D02*
X810Y1492D02*
X768Y1611D01*
D02*
X420Y1460D02*
X253Y1461D01*
D02*
X570Y1663D02*
X570Y1611D01*
D02*
X570Y1861D02*
X570Y1762D01*
D02*
X570Y1611D02*
X420Y1460D01*
D02*
X570Y1762D02*
X570Y1663D01*
D02*
X471Y2011D02*
X570Y1861D01*
D02*
X401Y2046D02*
X471Y2011D01*
D02*
X669Y1611D02*
X669Y1861D01*
D02*
X669Y1861D02*
X541Y2033D01*
D02*
X543Y1484D02*
X669Y1611D01*
D02*
X721Y763D02*
X768Y909D01*
D02*
X768Y909D02*
X669Y1060D01*
D02*
X669Y1060D02*
X372Y1159D01*
D02*
X372Y1159D02*
X240Y1336D01*
D02*
X644Y685D02*
X721Y763D01*
D02*
X71Y711D02*
X71Y1960D01*
D02*
X71Y1960D02*
X353Y2432D01*
D02*
X291Y579D02*
X71Y711D01*
D02*
X768Y612D02*
X872Y909D01*
D02*
X570Y1210D02*
X530Y1332D01*
D02*
X768Y1111D02*
X570Y1210D01*
D02*
X872Y909D02*
X768Y1111D01*
D02*
X653Y572D02*
X768Y612D01*
G36*
X40Y3071D02*
X40Y2711D01*
X220Y2711D01*
X220Y2813D01*
X254Y2813D01*
X254Y2817D01*
X256Y2817D01*
X256Y2827D01*
X258Y2827D01*
X258Y2837D01*
X260Y2837D01*
X260Y2847D01*
X262Y2847D01*
X262Y2857D01*
X264Y2857D01*
X264Y2867D01*
X266Y2867D01*
X266Y2877D01*
X268Y2877D01*
X268Y2887D01*
X270Y2887D01*
X270Y2897D01*
X272Y2897D01*
X272Y2907D01*
X274Y2907D01*
X274Y2917D01*
X276Y2917D01*
X276Y2927D01*
X278Y2927D01*
X278Y2937D01*
X280Y2937D01*
X280Y2947D01*
X282Y2947D01*
X282Y2957D01*
X284Y2957D01*
X284Y2979D01*
X282Y2979D01*
X282Y2983D01*
X280Y2983D01*
X280Y2985D01*
X278Y2985D01*
X278Y2989D01*
X276Y2989D01*
X276Y2993D01*
X274Y2993D01*
X274Y2999D01*
X272Y2999D01*
X272Y3023D01*
X274Y3023D01*
X274Y3029D01*
X276Y3029D01*
X276Y3033D01*
X278Y3033D01*
X278Y3037D01*
X280Y3037D01*
X280Y3039D01*
X282Y3039D01*
X282Y3043D01*
X284Y3043D01*
X284Y3045D01*
X286Y3045D01*
X286Y3047D01*
X288Y3047D01*
X288Y3049D01*
X292Y3049D01*
X292Y3051D01*
X294Y3051D01*
X294Y3071D01*
X40Y3071D01*
G37*
D02*
G36*
X470Y3071D02*
X470Y2963D01*
X948Y2963D01*
X948Y3071D01*
X470Y3071D01*
G37*
D02*
G36*
X352Y2975D02*
X352Y2973D01*
X350Y2973D01*
X350Y2971D01*
X346Y2971D01*
X346Y2969D01*
X344Y2969D01*
X344Y2967D01*
X340Y2967D01*
X340Y2965D01*
X338Y2965D01*
X338Y2963D01*
X372Y2963D01*
X372Y2975D01*
X352Y2975D01*
G37*
D02*
G36*
X338Y2963D02*
X338Y2961D01*
X948Y2961D01*
X948Y2963D01*
X338Y2963D01*
G37*
D02*
G36*
X338Y2963D02*
X338Y2961D01*
X948Y2961D01*
X948Y2963D01*
X338Y2963D01*
G37*
D02*
G36*
X336Y2961D02*
X336Y2951D01*
X334Y2951D01*
X334Y2941D01*
X332Y2941D01*
X332Y2931D01*
X330Y2931D01*
X330Y2921D01*
X328Y2921D01*
X328Y2911D01*
X326Y2911D01*
X326Y2901D01*
X324Y2901D01*
X324Y2891D01*
X322Y2891D01*
X322Y2881D01*
X320Y2881D01*
X320Y2871D01*
X318Y2871D01*
X318Y2861D01*
X316Y2861D01*
X316Y2851D01*
X314Y2851D01*
X314Y2841D01*
X312Y2841D01*
X312Y2813D01*
X320Y2813D01*
X320Y2811D01*
X484Y2811D01*
X484Y2809D01*
X490Y2809D01*
X490Y2807D01*
X494Y2807D01*
X494Y2805D01*
X498Y2805D01*
X498Y2803D01*
X500Y2803D01*
X500Y2801D01*
X502Y2801D01*
X502Y2799D01*
X506Y2799D01*
X506Y2797D01*
X508Y2797D01*
X508Y2793D01*
X510Y2793D01*
X510Y2791D01*
X512Y2791D01*
X512Y2789D01*
X514Y2789D01*
X514Y2785D01*
X516Y2785D01*
X516Y2781D01*
X518Y2781D01*
X518Y2777D01*
X520Y2777D01*
X520Y2767D01*
X522Y2767D01*
X522Y2755D01*
X520Y2755D01*
X520Y2745D01*
X518Y2745D01*
X518Y2741D01*
X516Y2741D01*
X516Y2737D01*
X514Y2737D01*
X514Y2709D01*
X516Y2709D01*
X516Y2703D01*
X518Y2703D01*
X518Y2697D01*
X520Y2697D01*
X520Y2691D01*
X522Y2691D01*
X522Y2685D01*
X524Y2685D01*
X524Y2679D01*
X526Y2679D01*
X526Y2673D01*
X528Y2673D01*
X528Y2667D01*
X576Y2667D01*
X576Y2555D01*
X948Y2555D01*
X948Y2961D01*
X336Y2961D01*
G37*
D02*
G36*
X322Y2811D02*
X322Y2803D01*
X344Y2803D01*
X344Y2805D01*
X346Y2805D01*
X346Y2807D01*
X350Y2807D01*
X350Y2809D01*
X356Y2809D01*
X356Y2811D01*
X322Y2811D01*
G37*
D02*
G36*
X384Y2811D02*
X384Y2809D01*
X390Y2809D01*
X390Y2807D01*
X394Y2807D01*
X394Y2805D01*
X398Y2805D01*
X398Y2803D01*
X400Y2803D01*
X400Y2801D01*
X402Y2801D01*
X402Y2799D01*
X406Y2799D01*
X406Y2797D01*
X408Y2797D01*
X408Y2793D01*
X410Y2793D01*
X410Y2791D01*
X430Y2791D01*
X430Y2793D01*
X432Y2793D01*
X432Y2795D01*
X434Y2795D01*
X434Y2797D01*
X436Y2797D01*
X436Y2799D01*
X438Y2799D01*
X438Y2801D01*
X440Y2801D01*
X440Y2803D01*
X444Y2803D01*
X444Y2805D01*
X446Y2805D01*
X446Y2807D01*
X450Y2807D01*
X450Y2809D01*
X456Y2809D01*
X456Y2811D01*
X384Y2811D01*
G37*
D02*
G36*
X410Y2731D02*
X410Y2729D01*
X408Y2729D01*
X408Y2725D01*
X406Y2725D01*
X406Y2723D01*
X402Y2723D01*
X402Y2721D01*
X400Y2721D01*
X400Y2719D01*
X398Y2719D01*
X398Y2717D01*
X394Y2717D01*
X394Y2715D01*
X390Y2715D01*
X390Y2713D01*
X384Y2713D01*
X384Y2711D01*
X456Y2711D01*
X456Y2713D01*
X450Y2713D01*
X450Y2715D01*
X446Y2715D01*
X446Y2717D01*
X444Y2717D01*
X444Y2719D01*
X440Y2719D01*
X440Y2721D01*
X438Y2721D01*
X438Y2723D01*
X436Y2723D01*
X436Y2725D01*
X434Y2725D01*
X434Y2727D01*
X432Y2727D01*
X432Y2729D01*
X430Y2729D01*
X430Y2731D01*
X410Y2731D01*
G37*
D02*
G36*
X322Y2719D02*
X322Y2711D01*
X356Y2711D01*
X356Y2713D01*
X350Y2713D01*
X350Y2715D01*
X346Y2715D01*
X346Y2717D01*
X344Y2717D01*
X344Y2719D01*
X322Y2719D01*
G37*
D02*
G36*
X40Y2711D02*
X40Y2709D01*
X460Y2709D01*
X460Y2711D01*
X40Y2711D01*
G37*
D02*
G36*
X40Y2711D02*
X40Y2709D01*
X460Y2709D01*
X460Y2711D01*
X40Y2711D01*
G37*
D02*
G36*
X40Y2711D02*
X40Y2709D01*
X460Y2709D01*
X460Y2711D01*
X40Y2711D01*
G37*
D02*
G36*
X40Y2709D02*
X40Y2667D01*
X230Y2667D01*
X230Y2665D01*
X238Y2665D01*
X238Y2663D01*
X244Y2663D01*
X244Y2661D01*
X248Y2661D01*
X248Y2659D01*
X250Y2659D01*
X250Y2657D01*
X254Y2657D01*
X254Y2655D01*
X256Y2655D01*
X256Y2653D01*
X258Y2653D01*
X258Y2651D01*
X260Y2651D01*
X260Y2649D01*
X262Y2649D01*
X262Y2647D01*
X264Y2647D01*
X264Y2645D01*
X266Y2645D01*
X266Y2641D01*
X268Y2641D01*
X268Y2639D01*
X270Y2639D01*
X270Y2635D01*
X272Y2635D01*
X272Y2629D01*
X274Y2629D01*
X274Y2623D01*
X276Y2623D01*
X276Y2599D01*
X274Y2599D01*
X274Y2593D01*
X272Y2593D01*
X272Y2587D01*
X270Y2587D01*
X270Y2583D01*
X268Y2583D01*
X268Y2581D01*
X266Y2581D01*
X266Y2577D01*
X264Y2577D01*
X264Y2575D01*
X262Y2575D01*
X262Y2573D01*
X260Y2573D01*
X260Y2571D01*
X258Y2571D01*
X258Y2569D01*
X256Y2569D01*
X256Y2567D01*
X254Y2567D01*
X254Y2565D01*
X250Y2565D01*
X250Y2563D01*
X248Y2563D01*
X248Y2561D01*
X244Y2561D01*
X244Y2559D01*
X238Y2559D01*
X238Y2557D01*
X230Y2557D01*
X230Y2555D01*
X464Y2555D01*
X464Y2667D01*
X468Y2667D01*
X468Y2689D01*
X466Y2689D01*
X466Y2695D01*
X464Y2695D01*
X464Y2701D01*
X462Y2701D01*
X462Y2707D01*
X460Y2707D01*
X460Y2709D01*
X40Y2709D01*
G37*
D02*
G36*
X40Y2667D02*
X40Y2555D01*
X210Y2555D01*
X210Y2557D01*
X202Y2557D01*
X202Y2559D01*
X198Y2559D01*
X198Y2561D01*
X194Y2561D01*
X194Y2563D01*
X190Y2563D01*
X190Y2565D01*
X188Y2565D01*
X188Y2567D01*
X184Y2567D01*
X184Y2569D01*
X182Y2569D01*
X182Y2571D01*
X180Y2571D01*
X180Y2573D01*
X178Y2573D01*
X178Y2577D01*
X176Y2577D01*
X176Y2579D01*
X174Y2579D01*
X174Y2581D01*
X172Y2581D01*
X172Y2585D01*
X170Y2585D01*
X170Y2589D01*
X168Y2589D01*
X168Y2595D01*
X166Y2595D01*
X166Y2603D01*
X164Y2603D01*
X164Y2619D01*
X166Y2619D01*
X166Y2627D01*
X168Y2627D01*
X168Y2633D01*
X170Y2633D01*
X170Y2637D01*
X172Y2637D01*
X172Y2641D01*
X174Y2641D01*
X174Y2643D01*
X176Y2643D01*
X176Y2647D01*
X178Y2647D01*
X178Y2649D01*
X180Y2649D01*
X180Y2651D01*
X182Y2651D01*
X182Y2653D01*
X184Y2653D01*
X184Y2655D01*
X188Y2655D01*
X188Y2657D01*
X190Y2657D01*
X190Y2659D01*
X194Y2659D01*
X194Y2661D01*
X198Y2661D01*
X198Y2663D01*
X202Y2663D01*
X202Y2665D01*
X210Y2665D01*
X210Y2667D01*
X40Y2667D01*
G37*
D02*
G36*
X40Y2555D02*
X40Y2553D01*
X948Y2553D01*
X948Y2555D01*
X40Y2555D01*
G37*
D02*
G36*
X40Y2555D02*
X40Y2553D01*
X948Y2553D01*
X948Y2555D01*
X40Y2555D01*
G37*
D02*
G36*
X40Y2555D02*
X40Y2553D01*
X948Y2553D01*
X948Y2555D01*
X40Y2555D01*
G37*
D02*
G36*
X40Y2553D02*
X40Y2509D01*
X676Y2509D01*
X676Y2507D01*
X684Y2507D01*
X684Y2505D01*
X690Y2505D01*
X690Y2503D01*
X694Y2503D01*
X694Y2501D01*
X698Y2501D01*
X698Y2499D01*
X700Y2499D01*
X700Y2497D01*
X702Y2497D01*
X702Y2495D01*
X704Y2495D01*
X704Y2493D01*
X706Y2493D01*
X706Y2491D01*
X708Y2491D01*
X708Y2489D01*
X710Y2489D01*
X710Y2485D01*
X712Y2485D01*
X712Y2481D01*
X714Y2481D01*
X714Y2477D01*
X716Y2477D01*
X716Y2469D01*
X718Y2469D01*
X718Y2453D01*
X716Y2453D01*
X716Y2445D01*
X714Y2445D01*
X714Y2441D01*
X712Y2441D01*
X712Y2437D01*
X710Y2437D01*
X710Y2433D01*
X708Y2433D01*
X708Y2431D01*
X706Y2431D01*
X706Y2429D01*
X704Y2429D01*
X704Y2427D01*
X702Y2427D01*
X702Y2425D01*
X700Y2425D01*
X700Y2423D01*
X698Y2423D01*
X698Y2421D01*
X694Y2421D01*
X694Y2419D01*
X690Y2419D01*
X690Y2417D01*
X684Y2417D01*
X684Y2415D01*
X676Y2415D01*
X676Y2413D01*
X948Y2413D01*
X948Y2553D01*
X40Y2553D01*
G37*
D02*
G36*
X40Y2509D02*
X40Y2413D01*
X214Y2413D01*
X214Y2415D01*
X206Y2415D01*
X206Y2417D01*
X200Y2417D01*
X200Y2419D01*
X196Y2419D01*
X196Y2421D01*
X194Y2421D01*
X194Y2423D01*
X190Y2423D01*
X190Y2425D01*
X188Y2425D01*
X188Y2427D01*
X186Y2427D01*
X186Y2429D01*
X184Y2429D01*
X184Y2433D01*
X182Y2433D01*
X182Y2435D01*
X180Y2435D01*
X180Y2439D01*
X178Y2439D01*
X178Y2441D01*
X176Y2441D01*
X176Y2447D01*
X174Y2447D01*
X174Y2459D01*
X172Y2459D01*
X172Y2463D01*
X174Y2463D01*
X174Y2475D01*
X176Y2475D01*
X176Y2481D01*
X178Y2481D01*
X178Y2483D01*
X180Y2483D01*
X180Y2487D01*
X182Y2487D01*
X182Y2489D01*
X184Y2489D01*
X184Y2493D01*
X186Y2493D01*
X186Y2495D01*
X188Y2495D01*
X188Y2497D01*
X190Y2497D01*
X190Y2499D01*
X194Y2499D01*
X194Y2501D01*
X196Y2501D01*
X196Y2503D01*
X200Y2503D01*
X200Y2505D01*
X206Y2505D01*
X206Y2507D01*
X214Y2507D01*
X214Y2509D01*
X40Y2509D01*
G37*
D02*
G36*
X226Y2509D02*
X226Y2507D01*
X234Y2507D01*
X234Y2505D01*
X240Y2505D01*
X240Y2503D01*
X244Y2503D01*
X244Y2501D01*
X248Y2501D01*
X248Y2499D01*
X250Y2499D01*
X250Y2497D01*
X252Y2497D01*
X252Y2495D01*
X254Y2495D01*
X254Y2493D01*
X256Y2493D01*
X256Y2491D01*
X258Y2491D01*
X258Y2489D01*
X260Y2489D01*
X260Y2485D01*
X262Y2485D01*
X262Y2481D01*
X264Y2481D01*
X264Y2477D01*
X266Y2477D01*
X266Y2469D01*
X268Y2469D01*
X268Y2453D01*
X266Y2453D01*
X266Y2445D01*
X264Y2445D01*
X264Y2441D01*
X262Y2441D01*
X262Y2437D01*
X260Y2437D01*
X260Y2433D01*
X258Y2433D01*
X258Y2431D01*
X256Y2431D01*
X256Y2429D01*
X254Y2429D01*
X254Y2427D01*
X252Y2427D01*
X252Y2425D01*
X250Y2425D01*
X250Y2423D01*
X248Y2423D01*
X248Y2421D01*
X244Y2421D01*
X244Y2419D01*
X240Y2419D01*
X240Y2417D01*
X234Y2417D01*
X234Y2415D01*
X226Y2415D01*
X226Y2413D01*
X364Y2413D01*
X364Y2415D01*
X356Y2415D01*
X356Y2417D01*
X350Y2417D01*
X350Y2419D01*
X346Y2419D01*
X346Y2421D01*
X344Y2421D01*
X344Y2423D01*
X340Y2423D01*
X340Y2425D01*
X338Y2425D01*
X338Y2427D01*
X336Y2427D01*
X336Y2429D01*
X334Y2429D01*
X334Y2433D01*
X332Y2433D01*
X332Y2435D01*
X330Y2435D01*
X330Y2439D01*
X328Y2439D01*
X328Y2441D01*
X326Y2441D01*
X326Y2447D01*
X324Y2447D01*
X324Y2459D01*
X322Y2459D01*
X322Y2463D01*
X324Y2463D01*
X324Y2475D01*
X326Y2475D01*
X326Y2481D01*
X328Y2481D01*
X328Y2483D01*
X330Y2483D01*
X330Y2487D01*
X332Y2487D01*
X332Y2489D01*
X334Y2489D01*
X334Y2493D01*
X336Y2493D01*
X336Y2495D01*
X338Y2495D01*
X338Y2497D01*
X340Y2497D01*
X340Y2499D01*
X344Y2499D01*
X344Y2501D01*
X346Y2501D01*
X346Y2503D01*
X350Y2503D01*
X350Y2505D01*
X356Y2505D01*
X356Y2507D01*
X364Y2507D01*
X364Y2509D01*
X226Y2509D01*
G37*
D02*
G36*
X376Y2509D02*
X376Y2507D01*
X384Y2507D01*
X384Y2505D01*
X390Y2505D01*
X390Y2503D01*
X394Y2503D01*
X394Y2501D01*
X398Y2501D01*
X398Y2499D01*
X400Y2499D01*
X400Y2497D01*
X402Y2497D01*
X402Y2495D01*
X404Y2495D01*
X404Y2493D01*
X406Y2493D01*
X406Y2491D01*
X408Y2491D01*
X408Y2489D01*
X410Y2489D01*
X410Y2485D01*
X412Y2485D01*
X412Y2481D01*
X414Y2481D01*
X414Y2477D01*
X416Y2477D01*
X416Y2469D01*
X418Y2469D01*
X418Y2453D01*
X416Y2453D01*
X416Y2445D01*
X414Y2445D01*
X414Y2441D01*
X412Y2441D01*
X412Y2437D01*
X410Y2437D01*
X410Y2433D01*
X408Y2433D01*
X408Y2431D01*
X406Y2431D01*
X406Y2429D01*
X404Y2429D01*
X404Y2427D01*
X402Y2427D01*
X402Y2425D01*
X400Y2425D01*
X400Y2423D01*
X398Y2423D01*
X398Y2421D01*
X394Y2421D01*
X394Y2419D01*
X390Y2419D01*
X390Y2417D01*
X384Y2417D01*
X384Y2415D01*
X376Y2415D01*
X376Y2413D01*
X514Y2413D01*
X514Y2415D01*
X506Y2415D01*
X506Y2417D01*
X500Y2417D01*
X500Y2419D01*
X496Y2419D01*
X496Y2421D01*
X494Y2421D01*
X494Y2423D01*
X490Y2423D01*
X490Y2425D01*
X488Y2425D01*
X488Y2427D01*
X486Y2427D01*
X486Y2429D01*
X484Y2429D01*
X484Y2433D01*
X482Y2433D01*
X482Y2435D01*
X480Y2435D01*
X480Y2439D01*
X478Y2439D01*
X478Y2441D01*
X476Y2441D01*
X476Y2447D01*
X474Y2447D01*
X474Y2459D01*
X472Y2459D01*
X472Y2463D01*
X474Y2463D01*
X474Y2475D01*
X476Y2475D01*
X476Y2481D01*
X478Y2481D01*
X478Y2483D01*
X480Y2483D01*
X480Y2487D01*
X482Y2487D01*
X482Y2489D01*
X484Y2489D01*
X484Y2493D01*
X486Y2493D01*
X486Y2495D01*
X488Y2495D01*
X488Y2497D01*
X490Y2497D01*
X490Y2499D01*
X494Y2499D01*
X494Y2501D01*
X496Y2501D01*
X496Y2503D01*
X500Y2503D01*
X500Y2505D01*
X506Y2505D01*
X506Y2507D01*
X514Y2507D01*
X514Y2509D01*
X376Y2509D01*
G37*
D02*
G36*
X526Y2509D02*
X526Y2507D01*
X534Y2507D01*
X534Y2505D01*
X540Y2505D01*
X540Y2503D01*
X544Y2503D01*
X544Y2501D01*
X548Y2501D01*
X548Y2499D01*
X550Y2499D01*
X550Y2497D01*
X552Y2497D01*
X552Y2495D01*
X554Y2495D01*
X554Y2493D01*
X556Y2493D01*
X556Y2491D01*
X558Y2491D01*
X558Y2489D01*
X560Y2489D01*
X560Y2485D01*
X562Y2485D01*
X562Y2481D01*
X564Y2481D01*
X564Y2477D01*
X566Y2477D01*
X566Y2469D01*
X568Y2469D01*
X568Y2453D01*
X566Y2453D01*
X566Y2445D01*
X564Y2445D01*
X564Y2441D01*
X562Y2441D01*
X562Y2437D01*
X560Y2437D01*
X560Y2433D01*
X558Y2433D01*
X558Y2431D01*
X556Y2431D01*
X556Y2429D01*
X554Y2429D01*
X554Y2427D01*
X552Y2427D01*
X552Y2425D01*
X550Y2425D01*
X550Y2423D01*
X548Y2423D01*
X548Y2421D01*
X544Y2421D01*
X544Y2419D01*
X540Y2419D01*
X540Y2417D01*
X534Y2417D01*
X534Y2415D01*
X526Y2415D01*
X526Y2413D01*
X664Y2413D01*
X664Y2415D01*
X656Y2415D01*
X656Y2417D01*
X650Y2417D01*
X650Y2419D01*
X646Y2419D01*
X646Y2421D01*
X644Y2421D01*
X644Y2423D01*
X640Y2423D01*
X640Y2425D01*
X638Y2425D01*
X638Y2427D01*
X636Y2427D01*
X636Y2429D01*
X634Y2429D01*
X634Y2433D01*
X632Y2433D01*
X632Y2435D01*
X630Y2435D01*
X630Y2439D01*
X628Y2439D01*
X628Y2441D01*
X626Y2441D01*
X626Y2447D01*
X624Y2447D01*
X624Y2459D01*
X622Y2459D01*
X622Y2463D01*
X624Y2463D01*
X624Y2475D01*
X626Y2475D01*
X626Y2481D01*
X628Y2481D01*
X628Y2483D01*
X630Y2483D01*
X630Y2487D01*
X632Y2487D01*
X632Y2489D01*
X634Y2489D01*
X634Y2493D01*
X636Y2493D01*
X636Y2495D01*
X638Y2495D01*
X638Y2497D01*
X640Y2497D01*
X640Y2499D01*
X644Y2499D01*
X644Y2501D01*
X646Y2501D01*
X646Y2503D01*
X650Y2503D01*
X650Y2505D01*
X656Y2505D01*
X656Y2507D01*
X664Y2507D01*
X664Y2509D01*
X526Y2509D01*
G37*
D02*
G36*
X40Y2413D02*
X40Y2411D01*
X948Y2411D01*
X948Y2413D01*
X40Y2413D01*
G37*
D02*
G36*
X40Y2413D02*
X40Y2411D01*
X948Y2411D01*
X948Y2413D01*
X40Y2413D01*
G37*
D02*
G36*
X40Y2413D02*
X40Y2411D01*
X948Y2411D01*
X948Y2413D01*
X40Y2413D01*
G37*
D02*
G36*
X40Y2413D02*
X40Y2411D01*
X948Y2411D01*
X948Y2413D01*
X40Y2413D01*
G37*
D02*
G36*
X40Y2413D02*
X40Y2411D01*
X948Y2411D01*
X948Y2413D01*
X40Y2413D01*
G37*
D02*
G36*
X40Y2411D02*
X40Y2109D01*
X676Y2109D01*
X676Y2107D01*
X684Y2107D01*
X684Y2105D01*
X690Y2105D01*
X690Y2103D01*
X694Y2103D01*
X694Y2101D01*
X698Y2101D01*
X698Y2099D01*
X700Y2099D01*
X700Y2097D01*
X702Y2097D01*
X702Y2095D01*
X704Y2095D01*
X704Y2093D01*
X706Y2093D01*
X706Y2091D01*
X708Y2091D01*
X708Y2089D01*
X710Y2089D01*
X710Y2085D01*
X712Y2085D01*
X712Y2081D01*
X714Y2081D01*
X714Y2077D01*
X716Y2077D01*
X716Y2069D01*
X718Y2069D01*
X718Y2035D01*
X720Y2035D01*
X720Y2031D01*
X722Y2031D01*
X722Y2029D01*
X724Y2029D01*
X724Y2025D01*
X726Y2025D01*
X726Y2023D01*
X728Y2023D01*
X728Y2019D01*
X730Y2019D01*
X730Y2017D01*
X732Y2017D01*
X732Y2013D01*
X734Y2013D01*
X734Y2011D01*
X736Y2011D01*
X736Y2007D01*
X738Y2007D01*
X738Y2005D01*
X740Y2005D01*
X740Y2001D01*
X742Y2001D01*
X742Y1997D01*
X744Y1997D01*
X744Y1995D01*
X746Y1995D01*
X746Y1991D01*
X748Y1991D01*
X748Y1989D01*
X750Y1989D01*
X750Y1985D01*
X752Y1985D01*
X752Y1983D01*
X754Y1983D01*
X754Y1979D01*
X756Y1979D01*
X756Y1977D01*
X758Y1977D01*
X758Y1973D01*
X760Y1973D01*
X760Y1971D01*
X762Y1971D01*
X762Y1967D01*
X764Y1967D01*
X764Y1965D01*
X766Y1965D01*
X766Y1961D01*
X768Y1961D01*
X768Y1959D01*
X770Y1959D01*
X770Y1955D01*
X772Y1955D01*
X772Y1953D01*
X774Y1953D01*
X774Y1949D01*
X776Y1949D01*
X776Y1947D01*
X778Y1947D01*
X778Y1943D01*
X780Y1943D01*
X780Y1941D01*
X782Y1941D01*
X782Y1937D01*
X784Y1937D01*
X784Y1935D01*
X786Y1935D01*
X786Y1931D01*
X788Y1931D01*
X788Y1929D01*
X790Y1929D01*
X790Y1925D01*
X792Y1925D01*
X792Y1921D01*
X794Y1921D01*
X794Y1613D01*
X796Y1613D01*
X796Y1607D01*
X798Y1607D01*
X798Y1601D01*
X800Y1601D01*
X800Y1597D01*
X802Y1597D01*
X802Y1591D01*
X804Y1591D01*
X804Y1585D01*
X806Y1585D01*
X806Y1579D01*
X808Y1579D01*
X808Y1573D01*
X810Y1573D01*
X810Y1567D01*
X812Y1567D01*
X812Y1561D01*
X814Y1561D01*
X814Y1555D01*
X816Y1555D01*
X816Y1549D01*
X818Y1549D01*
X818Y1545D01*
X820Y1545D01*
X820Y1539D01*
X822Y1539D01*
X822Y1533D01*
X824Y1533D01*
X824Y1527D01*
X826Y1527D01*
X826Y1521D01*
X828Y1521D01*
X828Y1515D01*
X830Y1515D01*
X830Y1509D01*
X832Y1509D01*
X832Y1503D01*
X834Y1503D01*
X834Y1499D01*
X838Y1499D01*
X838Y1497D01*
X842Y1497D01*
X842Y1495D01*
X846Y1495D01*
X846Y1493D01*
X848Y1493D01*
X848Y1491D01*
X850Y1491D01*
X850Y1489D01*
X852Y1489D01*
X852Y1487D01*
X854Y1487D01*
X854Y1483D01*
X856Y1483D01*
X856Y1479D01*
X858Y1479D01*
X858Y1475D01*
X860Y1475D01*
X860Y1469D01*
X862Y1469D01*
X862Y1453D01*
X860Y1453D01*
X860Y1447D01*
X858Y1447D01*
X858Y1443D01*
X856Y1443D01*
X856Y1439D01*
X854Y1439D01*
X854Y1435D01*
X852Y1435D01*
X852Y1433D01*
X850Y1433D01*
X850Y1431D01*
X848Y1431D01*
X848Y1429D01*
X846Y1429D01*
X846Y1427D01*
X842Y1427D01*
X842Y1425D01*
X838Y1425D01*
X838Y1405D01*
X862Y1405D01*
X862Y1321D01*
X948Y1321D01*
X948Y2411D01*
X40Y2411D01*
G37*
D02*
G36*
X40Y2109D02*
X40Y1705D01*
X160Y1705D01*
X160Y1707D01*
X152Y1707D01*
X152Y1709D01*
X148Y1709D01*
X148Y1711D01*
X144Y1711D01*
X144Y1713D01*
X140Y1713D01*
X140Y1715D01*
X138Y1715D01*
X138Y1717D01*
X134Y1717D01*
X134Y1719D01*
X132Y1719D01*
X132Y1721D01*
X130Y1721D01*
X130Y1723D01*
X128Y1723D01*
X128Y1727D01*
X126Y1727D01*
X126Y1729D01*
X124Y1729D01*
X124Y1731D01*
X122Y1731D01*
X122Y1735D01*
X120Y1735D01*
X120Y1739D01*
X118Y1739D01*
X118Y1745D01*
X116Y1745D01*
X116Y1753D01*
X114Y1753D01*
X114Y1769D01*
X116Y1769D01*
X116Y1777D01*
X118Y1777D01*
X118Y1783D01*
X120Y1783D01*
X120Y1787D01*
X122Y1787D01*
X122Y1791D01*
X124Y1791D01*
X124Y1793D01*
X126Y1793D01*
X126Y1797D01*
X128Y1797D01*
X128Y1799D01*
X130Y1799D01*
X130Y1801D01*
X132Y1801D01*
X132Y1803D01*
X134Y1803D01*
X134Y1805D01*
X138Y1805D01*
X138Y1807D01*
X140Y1807D01*
X140Y1809D01*
X144Y1809D01*
X144Y1811D01*
X148Y1811D01*
X148Y1813D01*
X152Y1813D01*
X152Y1815D01*
X154Y1815D01*
X154Y1827D01*
X156Y1827D01*
X156Y1839D01*
X158Y1839D01*
X158Y1851D01*
X160Y1851D01*
X160Y1863D01*
X162Y1863D01*
X162Y1875D01*
X164Y1875D01*
X164Y1887D01*
X166Y1887D01*
X166Y1899D01*
X168Y1899D01*
X168Y1911D01*
X170Y1911D01*
X170Y1923D01*
X172Y1923D01*
X172Y1935D01*
X174Y1935D01*
X174Y1947D01*
X176Y1947D01*
X176Y1959D01*
X178Y1959D01*
X178Y1971D01*
X180Y1971D01*
X180Y1983D01*
X182Y1983D01*
X182Y1995D01*
X184Y1995D01*
X184Y2007D01*
X186Y2007D01*
X186Y2029D01*
X184Y2029D01*
X184Y2033D01*
X182Y2033D01*
X182Y2035D01*
X180Y2035D01*
X180Y2039D01*
X178Y2039D01*
X178Y2041D01*
X176Y2041D01*
X176Y2047D01*
X174Y2047D01*
X174Y2059D01*
X172Y2059D01*
X172Y2063D01*
X174Y2063D01*
X174Y2075D01*
X176Y2075D01*
X176Y2081D01*
X178Y2081D01*
X178Y2083D01*
X180Y2083D01*
X180Y2087D01*
X182Y2087D01*
X182Y2089D01*
X184Y2089D01*
X184Y2093D01*
X186Y2093D01*
X186Y2095D01*
X188Y2095D01*
X188Y2097D01*
X190Y2097D01*
X190Y2099D01*
X194Y2099D01*
X194Y2101D01*
X196Y2101D01*
X196Y2103D01*
X200Y2103D01*
X200Y2105D01*
X206Y2105D01*
X206Y2107D01*
X214Y2107D01*
X214Y2109D01*
X40Y2109D01*
G37*
D02*
G36*
X226Y2109D02*
X226Y2107D01*
X234Y2107D01*
X234Y2105D01*
X240Y2105D01*
X240Y2103D01*
X244Y2103D01*
X244Y2101D01*
X248Y2101D01*
X248Y2099D01*
X250Y2099D01*
X250Y2097D01*
X252Y2097D01*
X252Y2095D01*
X254Y2095D01*
X254Y2093D01*
X256Y2093D01*
X256Y2091D01*
X258Y2091D01*
X258Y2089D01*
X260Y2089D01*
X260Y2085D01*
X262Y2085D01*
X262Y2081D01*
X264Y2081D01*
X264Y2077D01*
X266Y2077D01*
X266Y2069D01*
X268Y2069D01*
X268Y2053D01*
X266Y2053D01*
X266Y2045D01*
X264Y2045D01*
X264Y2041D01*
X262Y2041D01*
X262Y2037D01*
X260Y2037D01*
X260Y2033D01*
X258Y2033D01*
X258Y2031D01*
X256Y2031D01*
X256Y2029D01*
X254Y2029D01*
X254Y2027D01*
X252Y2027D01*
X252Y2025D01*
X250Y2025D01*
X250Y2023D01*
X248Y2023D01*
X248Y2021D01*
X244Y2021D01*
X244Y2019D01*
X240Y2019D01*
X240Y2015D01*
X238Y2015D01*
X238Y2013D01*
X364Y2013D01*
X364Y2015D01*
X356Y2015D01*
X356Y2017D01*
X350Y2017D01*
X350Y2019D01*
X346Y2019D01*
X346Y2021D01*
X344Y2021D01*
X344Y2023D01*
X340Y2023D01*
X340Y2025D01*
X338Y2025D01*
X338Y2027D01*
X336Y2027D01*
X336Y2029D01*
X334Y2029D01*
X334Y2033D01*
X332Y2033D01*
X332Y2035D01*
X330Y2035D01*
X330Y2039D01*
X328Y2039D01*
X328Y2041D01*
X326Y2041D01*
X326Y2047D01*
X324Y2047D01*
X324Y2059D01*
X322Y2059D01*
X322Y2063D01*
X324Y2063D01*
X324Y2075D01*
X326Y2075D01*
X326Y2081D01*
X328Y2081D01*
X328Y2083D01*
X330Y2083D01*
X330Y2087D01*
X332Y2087D01*
X332Y2089D01*
X334Y2089D01*
X334Y2093D01*
X336Y2093D01*
X336Y2095D01*
X338Y2095D01*
X338Y2097D01*
X340Y2097D01*
X340Y2099D01*
X344Y2099D01*
X344Y2101D01*
X346Y2101D01*
X346Y2103D01*
X350Y2103D01*
X350Y2105D01*
X356Y2105D01*
X356Y2107D01*
X364Y2107D01*
X364Y2109D01*
X226Y2109D01*
G37*
D02*
G36*
X376Y2109D02*
X376Y2107D01*
X384Y2107D01*
X384Y2105D01*
X390Y2105D01*
X390Y2103D01*
X394Y2103D01*
X394Y2101D01*
X398Y2101D01*
X398Y2099D01*
X400Y2099D01*
X400Y2097D01*
X402Y2097D01*
X402Y2095D01*
X404Y2095D01*
X404Y2093D01*
X406Y2093D01*
X406Y2091D01*
X408Y2091D01*
X408Y2089D01*
X410Y2089D01*
X410Y2085D01*
X412Y2085D01*
X412Y2081D01*
X414Y2081D01*
X414Y2077D01*
X416Y2077D01*
X416Y2069D01*
X418Y2069D01*
X418Y2067D01*
X420Y2067D01*
X420Y2065D01*
X424Y2065D01*
X424Y2063D01*
X428Y2063D01*
X428Y2061D01*
X432Y2061D01*
X432Y2059D01*
X436Y2059D01*
X436Y2057D01*
X440Y2057D01*
X440Y2055D01*
X444Y2055D01*
X444Y2053D01*
X448Y2053D01*
X448Y2051D01*
X452Y2051D01*
X452Y2049D01*
X474Y2049D01*
X474Y2059D01*
X472Y2059D01*
X472Y2063D01*
X474Y2063D01*
X474Y2075D01*
X476Y2075D01*
X476Y2081D01*
X478Y2081D01*
X478Y2083D01*
X480Y2083D01*
X480Y2087D01*
X482Y2087D01*
X482Y2089D01*
X484Y2089D01*
X484Y2093D01*
X486Y2093D01*
X486Y2095D01*
X488Y2095D01*
X488Y2097D01*
X490Y2097D01*
X490Y2099D01*
X494Y2099D01*
X494Y2101D01*
X496Y2101D01*
X496Y2103D01*
X500Y2103D01*
X500Y2105D01*
X506Y2105D01*
X506Y2107D01*
X514Y2107D01*
X514Y2109D01*
X376Y2109D01*
G37*
D02*
G36*
X526Y2109D02*
X526Y2107D01*
X534Y2107D01*
X534Y2105D01*
X540Y2105D01*
X540Y2103D01*
X544Y2103D01*
X544Y2101D01*
X548Y2101D01*
X548Y2099D01*
X550Y2099D01*
X550Y2097D01*
X552Y2097D01*
X552Y2095D01*
X554Y2095D01*
X554Y2093D01*
X556Y2093D01*
X556Y2091D01*
X558Y2091D01*
X558Y2089D01*
X560Y2089D01*
X560Y2085D01*
X562Y2085D01*
X562Y2081D01*
X564Y2081D01*
X564Y2077D01*
X566Y2077D01*
X566Y2069D01*
X568Y2069D01*
X568Y2039D01*
X570Y2039D01*
X570Y2037D01*
X572Y2037D01*
X572Y2033D01*
X574Y2033D01*
X574Y2031D01*
X576Y2031D01*
X576Y2029D01*
X578Y2029D01*
X578Y2025D01*
X580Y2025D01*
X580Y2023D01*
X582Y2023D01*
X582Y2021D01*
X584Y2021D01*
X584Y2017D01*
X586Y2017D01*
X586Y2015D01*
X588Y2015D01*
X588Y2013D01*
X590Y2013D01*
X590Y2009D01*
X592Y2009D01*
X592Y2007D01*
X594Y2007D01*
X594Y2005D01*
X596Y2005D01*
X596Y2001D01*
X598Y2001D01*
X598Y1999D01*
X600Y1999D01*
X600Y1997D01*
X602Y1997D01*
X602Y1993D01*
X604Y1993D01*
X604Y1991D01*
X606Y1991D01*
X606Y1989D01*
X608Y1989D01*
X608Y1985D01*
X610Y1985D01*
X610Y1983D01*
X612Y1983D01*
X612Y1979D01*
X614Y1979D01*
X614Y1977D01*
X616Y1977D01*
X616Y1975D01*
X618Y1975D01*
X618Y1971D01*
X620Y1971D01*
X620Y1969D01*
X622Y1969D01*
X622Y1967D01*
X624Y1967D01*
X624Y1963D01*
X626Y1963D01*
X626Y1961D01*
X628Y1961D01*
X628Y1959D01*
X630Y1959D01*
X630Y1955D01*
X632Y1955D01*
X632Y1953D01*
X634Y1953D01*
X634Y1951D01*
X636Y1951D01*
X636Y1947D01*
X638Y1947D01*
X638Y1945D01*
X640Y1945D01*
X640Y1943D01*
X642Y1943D01*
X642Y1939D01*
X644Y1939D01*
X644Y1937D01*
X646Y1937D01*
X646Y1935D01*
X648Y1935D01*
X648Y1931D01*
X650Y1931D01*
X650Y1929D01*
X652Y1929D01*
X652Y1927D01*
X654Y1927D01*
X654Y1923D01*
X656Y1923D01*
X656Y1921D01*
X658Y1921D01*
X658Y1919D01*
X660Y1919D01*
X660Y1915D01*
X662Y1915D01*
X662Y1913D01*
X664Y1913D01*
X664Y1911D01*
X666Y1911D01*
X666Y1907D01*
X668Y1907D01*
X668Y1905D01*
X670Y1905D01*
X670Y1901D01*
X672Y1901D01*
X672Y1899D01*
X674Y1899D01*
X674Y1897D01*
X676Y1897D01*
X676Y1893D01*
X678Y1893D01*
X678Y1891D01*
X680Y1891D01*
X680Y1889D01*
X682Y1889D01*
X682Y1885D01*
X684Y1885D01*
X684Y1883D01*
X686Y1883D01*
X686Y1881D01*
X688Y1881D01*
X688Y1877D01*
X690Y1877D01*
X690Y1875D01*
X692Y1875D01*
X692Y1871D01*
X694Y1871D01*
X694Y1863D01*
X696Y1863D01*
X696Y1607D01*
X694Y1607D01*
X694Y1601D01*
X692Y1601D01*
X692Y1597D01*
X690Y1597D01*
X690Y1595D01*
X688Y1595D01*
X688Y1591D01*
X686Y1591D01*
X686Y1589D01*
X684Y1589D01*
X684Y1587D01*
X682Y1587D01*
X682Y1585D01*
X680Y1585D01*
X680Y1583D01*
X678Y1583D01*
X678Y1581D01*
X676Y1581D01*
X676Y1579D01*
X674Y1579D01*
X674Y1577D01*
X672Y1577D01*
X672Y1575D01*
X670Y1575D01*
X670Y1573D01*
X668Y1573D01*
X668Y1571D01*
X666Y1571D01*
X666Y1569D01*
X664Y1569D01*
X664Y1567D01*
X662Y1567D01*
X662Y1565D01*
X660Y1565D01*
X660Y1563D01*
X658Y1563D01*
X658Y1561D01*
X656Y1561D01*
X656Y1559D01*
X654Y1559D01*
X654Y1557D01*
X652Y1557D01*
X652Y1555D01*
X650Y1555D01*
X650Y1553D01*
X648Y1553D01*
X648Y1551D01*
X646Y1551D01*
X646Y1549D01*
X644Y1549D01*
X644Y1547D01*
X642Y1547D01*
X642Y1545D01*
X640Y1545D01*
X640Y1543D01*
X638Y1543D01*
X638Y1541D01*
X636Y1541D01*
X636Y1539D01*
X634Y1539D01*
X634Y1537D01*
X632Y1537D01*
X632Y1535D01*
X630Y1535D01*
X630Y1533D01*
X628Y1533D01*
X628Y1531D01*
X626Y1531D01*
X626Y1529D01*
X624Y1529D01*
X624Y1527D01*
X622Y1527D01*
X622Y1525D01*
X620Y1525D01*
X620Y1523D01*
X618Y1523D01*
X618Y1521D01*
X616Y1521D01*
X616Y1519D01*
X614Y1519D01*
X614Y1517D01*
X612Y1517D01*
X612Y1515D01*
X610Y1515D01*
X610Y1513D01*
X608Y1513D01*
X608Y1511D01*
X606Y1511D01*
X606Y1509D01*
X604Y1509D01*
X604Y1507D01*
X602Y1507D01*
X602Y1505D01*
X600Y1505D01*
X600Y1503D01*
X598Y1503D01*
X598Y1501D01*
X596Y1501D01*
X596Y1499D01*
X594Y1499D01*
X594Y1497D01*
X592Y1497D01*
X592Y1495D01*
X590Y1495D01*
X590Y1493D01*
X588Y1493D01*
X588Y1491D01*
X586Y1491D01*
X586Y1489D01*
X584Y1489D01*
X584Y1487D01*
X582Y1487D01*
X582Y1485D01*
X580Y1485D01*
X580Y1483D01*
X578Y1483D01*
X578Y1481D01*
X576Y1481D01*
X576Y1479D01*
X574Y1479D01*
X574Y1477D01*
X572Y1477D01*
X572Y1475D01*
X570Y1475D01*
X570Y1473D01*
X568Y1473D01*
X568Y1471D01*
X566Y1471D01*
X566Y1469D01*
X564Y1469D01*
X564Y1467D01*
X562Y1467D01*
X562Y1453D01*
X560Y1453D01*
X560Y1447D01*
X558Y1447D01*
X558Y1443D01*
X556Y1443D01*
X556Y1439D01*
X554Y1439D01*
X554Y1435D01*
X552Y1435D01*
X552Y1433D01*
X550Y1433D01*
X550Y1431D01*
X548Y1431D01*
X548Y1429D01*
X546Y1429D01*
X546Y1427D01*
X542Y1427D01*
X542Y1425D01*
X538Y1425D01*
X538Y1405D01*
X562Y1405D01*
X562Y1321D01*
X778Y1321D01*
X778Y1403D01*
X780Y1403D01*
X780Y1405D01*
X802Y1405D01*
X802Y1425D01*
X798Y1425D01*
X798Y1427D01*
X796Y1427D01*
X796Y1429D01*
X794Y1429D01*
X794Y1431D01*
X790Y1431D01*
X790Y1435D01*
X788Y1435D01*
X788Y1437D01*
X786Y1437D01*
X786Y1439D01*
X784Y1439D01*
X784Y1443D01*
X782Y1443D01*
X782Y1449D01*
X780Y1449D01*
X780Y1459D01*
X778Y1459D01*
X778Y1463D01*
X780Y1463D01*
X780Y1473D01*
X782Y1473D01*
X782Y1495D01*
X780Y1495D01*
X780Y1501D01*
X778Y1501D01*
X778Y1507D01*
X776Y1507D01*
X776Y1513D01*
X774Y1513D01*
X774Y1519D01*
X772Y1519D01*
X772Y1523D01*
X770Y1523D01*
X770Y1529D01*
X768Y1529D01*
X768Y1535D01*
X766Y1535D01*
X766Y1541D01*
X764Y1541D01*
X764Y1547D01*
X762Y1547D01*
X762Y1553D01*
X760Y1553D01*
X760Y1559D01*
X758Y1559D01*
X758Y1565D01*
X756Y1565D01*
X756Y1569D01*
X754Y1569D01*
X754Y1575D01*
X752Y1575D01*
X752Y1581D01*
X750Y1581D01*
X750Y1587D01*
X748Y1587D01*
X748Y1593D01*
X746Y1593D01*
X746Y1599D01*
X744Y1599D01*
X744Y1605D01*
X742Y1605D01*
X742Y1907D01*
X740Y1907D01*
X740Y1909D01*
X738Y1909D01*
X738Y1913D01*
X736Y1913D01*
X736Y1915D01*
X734Y1915D01*
X734Y1919D01*
X732Y1919D01*
X732Y1921D01*
X730Y1921D01*
X730Y1925D01*
X728Y1925D01*
X728Y1927D01*
X726Y1927D01*
X726Y1931D01*
X724Y1931D01*
X724Y1933D01*
X722Y1933D01*
X722Y1937D01*
X720Y1937D01*
X720Y1939D01*
X718Y1939D01*
X718Y1943D01*
X716Y1943D01*
X716Y1945D01*
X714Y1945D01*
X714Y1949D01*
X712Y1949D01*
X712Y1953D01*
X710Y1953D01*
X710Y1955D01*
X708Y1955D01*
X708Y1959D01*
X706Y1959D01*
X706Y1961D01*
X704Y1961D01*
X704Y1965D01*
X702Y1965D01*
X702Y1967D01*
X700Y1967D01*
X700Y1971D01*
X698Y1971D01*
X698Y1973D01*
X696Y1973D01*
X696Y1977D01*
X694Y1977D01*
X694Y1979D01*
X692Y1979D01*
X692Y1983D01*
X690Y1983D01*
X690Y1985D01*
X688Y1985D01*
X688Y1989D01*
X686Y1989D01*
X686Y1991D01*
X684Y1991D01*
X684Y1995D01*
X682Y1995D01*
X682Y1997D01*
X680Y1997D01*
X680Y2001D01*
X678Y2001D01*
X678Y2003D01*
X676Y2003D01*
X676Y2007D01*
X674Y2007D01*
X674Y2009D01*
X672Y2009D01*
X672Y2013D01*
X664Y2013D01*
X664Y2015D01*
X656Y2015D01*
X656Y2017D01*
X650Y2017D01*
X650Y2019D01*
X646Y2019D01*
X646Y2021D01*
X644Y2021D01*
X644Y2023D01*
X640Y2023D01*
X640Y2025D01*
X638Y2025D01*
X638Y2027D01*
X636Y2027D01*
X636Y2029D01*
X634Y2029D01*
X634Y2033D01*
X632Y2033D01*
X632Y2035D01*
X630Y2035D01*
X630Y2039D01*
X628Y2039D01*
X628Y2041D01*
X626Y2041D01*
X626Y2047D01*
X624Y2047D01*
X624Y2059D01*
X622Y2059D01*
X622Y2063D01*
X624Y2063D01*
X624Y2075D01*
X626Y2075D01*
X626Y2081D01*
X628Y2081D01*
X628Y2083D01*
X630Y2083D01*
X630Y2087D01*
X632Y2087D01*
X632Y2089D01*
X634Y2089D01*
X634Y2093D01*
X636Y2093D01*
X636Y2095D01*
X638Y2095D01*
X638Y2097D01*
X640Y2097D01*
X640Y2099D01*
X644Y2099D01*
X644Y2101D01*
X646Y2101D01*
X646Y2103D01*
X650Y2103D01*
X650Y2105D01*
X656Y2105D01*
X656Y2107D01*
X664Y2107D01*
X664Y2109D01*
X526Y2109D01*
G37*
D02*
G36*
X376Y2015D02*
X376Y2013D01*
X406Y2013D01*
X406Y2015D01*
X376Y2015D01*
G37*
D02*
G36*
X238Y2013D02*
X238Y2011D01*
X412Y2011D01*
X412Y2013D01*
X238Y2013D01*
G37*
D02*
G36*
X238Y2013D02*
X238Y2011D01*
X412Y2011D01*
X412Y2013D01*
X238Y2013D01*
G37*
D02*
G36*
X238Y2011D02*
X238Y2003D01*
X236Y2003D01*
X236Y1991D01*
X234Y1991D01*
X234Y1979D01*
X232Y1979D01*
X232Y1967D01*
X230Y1967D01*
X230Y1955D01*
X228Y1955D01*
X228Y1943D01*
X226Y1943D01*
X226Y1931D01*
X224Y1931D01*
X224Y1919D01*
X222Y1919D01*
X222Y1907D01*
X220Y1907D01*
X220Y1895D01*
X218Y1895D01*
X218Y1883D01*
X216Y1883D01*
X216Y1871D01*
X214Y1871D01*
X214Y1859D01*
X212Y1859D01*
X212Y1847D01*
X210Y1847D01*
X210Y1835D01*
X208Y1835D01*
X208Y1823D01*
X206Y1823D01*
X206Y1803D01*
X208Y1803D01*
X208Y1801D01*
X210Y1801D01*
X210Y1799D01*
X212Y1799D01*
X212Y1797D01*
X214Y1797D01*
X214Y1795D01*
X216Y1795D01*
X216Y1791D01*
X218Y1791D01*
X218Y1789D01*
X220Y1789D01*
X220Y1785D01*
X222Y1785D01*
X222Y1779D01*
X224Y1779D01*
X224Y1773D01*
X226Y1773D01*
X226Y1749D01*
X224Y1749D01*
X224Y1743D01*
X222Y1743D01*
X222Y1737D01*
X220Y1737D01*
X220Y1733D01*
X218Y1733D01*
X218Y1731D01*
X216Y1731D01*
X216Y1727D01*
X214Y1727D01*
X214Y1725D01*
X212Y1725D01*
X212Y1723D01*
X210Y1723D01*
X210Y1721D01*
X208Y1721D01*
X208Y1719D01*
X206Y1719D01*
X206Y1717D01*
X204Y1717D01*
X204Y1715D01*
X200Y1715D01*
X200Y1713D01*
X198Y1713D01*
X198Y1711D01*
X194Y1711D01*
X194Y1709D01*
X188Y1709D01*
X188Y1707D01*
X180Y1707D01*
X180Y1705D01*
X414Y1705D01*
X414Y1817D01*
X544Y1817D01*
X544Y1855D01*
X542Y1855D01*
X542Y1857D01*
X540Y1857D01*
X540Y1861D01*
X538Y1861D01*
X538Y1863D01*
X536Y1863D01*
X536Y1867D01*
X534Y1867D01*
X534Y1871D01*
X532Y1871D01*
X532Y1873D01*
X530Y1873D01*
X530Y1877D01*
X528Y1877D01*
X528Y1879D01*
X526Y1879D01*
X526Y1883D01*
X524Y1883D01*
X524Y1885D01*
X522Y1885D01*
X522Y1889D01*
X520Y1889D01*
X520Y1891D01*
X518Y1891D01*
X518Y1895D01*
X516Y1895D01*
X516Y1897D01*
X514Y1897D01*
X514Y1901D01*
X512Y1901D01*
X512Y1903D01*
X510Y1903D01*
X510Y1907D01*
X508Y1907D01*
X508Y1909D01*
X506Y1909D01*
X506Y1913D01*
X504Y1913D01*
X504Y1915D01*
X502Y1915D01*
X502Y1919D01*
X500Y1919D01*
X500Y1921D01*
X498Y1921D01*
X498Y1925D01*
X496Y1925D01*
X496Y1927D01*
X494Y1927D01*
X494Y1931D01*
X492Y1931D01*
X492Y1933D01*
X490Y1933D01*
X490Y1937D01*
X488Y1937D01*
X488Y1941D01*
X486Y1941D01*
X486Y1943D01*
X484Y1943D01*
X484Y1947D01*
X482Y1947D01*
X482Y1949D01*
X480Y1949D01*
X480Y1953D01*
X478Y1953D01*
X478Y1955D01*
X476Y1955D01*
X476Y1959D01*
X474Y1959D01*
X474Y1961D01*
X472Y1961D01*
X472Y1965D01*
X470Y1965D01*
X470Y1967D01*
X468Y1967D01*
X468Y1971D01*
X466Y1971D01*
X466Y1973D01*
X464Y1973D01*
X464Y1977D01*
X462Y1977D01*
X462Y1979D01*
X460Y1979D01*
X460Y1983D01*
X458Y1983D01*
X458Y1985D01*
X456Y1985D01*
X456Y1989D01*
X454Y1989D01*
X454Y1991D01*
X452Y1991D01*
X452Y1993D01*
X448Y1993D01*
X448Y1995D01*
X444Y1995D01*
X444Y1997D01*
X440Y1997D01*
X440Y1999D01*
X436Y1999D01*
X436Y2001D01*
X432Y2001D01*
X432Y2003D01*
X428Y2003D01*
X428Y2005D01*
X424Y2005D01*
X424Y2007D01*
X420Y2007D01*
X420Y2009D01*
X416Y2009D01*
X416Y2011D01*
X238Y2011D01*
G37*
D02*
G36*
X40Y1705D02*
X40Y1703D01*
X544Y1703D01*
X544Y1705D01*
X40Y1705D01*
G37*
D02*
G36*
X40Y1705D02*
X40Y1703D01*
X544Y1703D01*
X544Y1705D01*
X40Y1705D01*
G37*
D02*
G36*
X40Y1703D02*
X40Y1503D01*
X226Y1503D01*
X226Y1501D01*
X234Y1501D01*
X234Y1499D01*
X238Y1499D01*
X238Y1497D01*
X242Y1497D01*
X242Y1495D01*
X246Y1495D01*
X246Y1493D01*
X248Y1493D01*
X248Y1491D01*
X250Y1491D01*
X250Y1489D01*
X252Y1489D01*
X252Y1487D01*
X410Y1487D01*
X410Y1489D01*
X412Y1489D01*
X412Y1491D01*
X414Y1491D01*
X414Y1493D01*
X416Y1493D01*
X416Y1495D01*
X418Y1495D01*
X418Y1497D01*
X420Y1497D01*
X420Y1499D01*
X422Y1499D01*
X422Y1501D01*
X424Y1501D01*
X424Y1503D01*
X426Y1503D01*
X426Y1505D01*
X428Y1505D01*
X428Y1507D01*
X430Y1507D01*
X430Y1509D01*
X432Y1509D01*
X432Y1511D01*
X434Y1511D01*
X434Y1513D01*
X436Y1513D01*
X436Y1515D01*
X438Y1515D01*
X438Y1517D01*
X440Y1517D01*
X440Y1519D01*
X442Y1519D01*
X442Y1521D01*
X444Y1521D01*
X444Y1523D01*
X446Y1523D01*
X446Y1525D01*
X448Y1525D01*
X448Y1527D01*
X450Y1527D01*
X450Y1529D01*
X452Y1529D01*
X452Y1531D01*
X454Y1531D01*
X454Y1533D01*
X456Y1533D01*
X456Y1535D01*
X458Y1535D01*
X458Y1537D01*
X460Y1537D01*
X460Y1539D01*
X462Y1539D01*
X462Y1541D01*
X464Y1541D01*
X464Y1543D01*
X466Y1543D01*
X466Y1545D01*
X468Y1545D01*
X468Y1547D01*
X470Y1547D01*
X470Y1549D01*
X472Y1549D01*
X472Y1551D01*
X474Y1551D01*
X474Y1553D01*
X476Y1553D01*
X476Y1555D01*
X478Y1555D01*
X478Y1557D01*
X480Y1557D01*
X480Y1559D01*
X482Y1559D01*
X482Y1561D01*
X484Y1561D01*
X484Y1563D01*
X486Y1563D01*
X486Y1565D01*
X488Y1565D01*
X488Y1567D01*
X490Y1567D01*
X490Y1569D01*
X492Y1569D01*
X492Y1571D01*
X494Y1571D01*
X494Y1573D01*
X496Y1573D01*
X496Y1575D01*
X498Y1575D01*
X498Y1577D01*
X500Y1577D01*
X500Y1579D01*
X502Y1579D01*
X502Y1581D01*
X504Y1581D01*
X504Y1583D01*
X506Y1583D01*
X506Y1585D01*
X508Y1585D01*
X508Y1587D01*
X510Y1587D01*
X510Y1589D01*
X512Y1589D01*
X512Y1591D01*
X514Y1591D01*
X514Y1593D01*
X516Y1593D01*
X516Y1595D01*
X518Y1595D01*
X518Y1597D01*
X520Y1597D01*
X520Y1599D01*
X522Y1599D01*
X522Y1601D01*
X524Y1601D01*
X524Y1603D01*
X526Y1603D01*
X526Y1605D01*
X528Y1605D01*
X528Y1607D01*
X530Y1607D01*
X530Y1609D01*
X532Y1609D01*
X532Y1611D01*
X534Y1611D01*
X534Y1613D01*
X536Y1613D01*
X536Y1615D01*
X538Y1615D01*
X538Y1617D01*
X540Y1617D01*
X540Y1619D01*
X542Y1619D01*
X542Y1621D01*
X544Y1621D01*
X544Y1703D01*
X40Y1703D01*
G37*
D02*
G36*
X40Y1503D02*
X40Y909D01*
X626Y909D01*
X626Y907D01*
X634Y907D01*
X634Y905D01*
X640Y905D01*
X640Y903D01*
X644Y903D01*
X644Y901D01*
X648Y901D01*
X648Y899D01*
X650Y899D01*
X650Y897D01*
X652Y897D01*
X652Y895D01*
X654Y895D01*
X654Y893D01*
X656Y893D01*
X656Y891D01*
X658Y891D01*
X658Y889D01*
X660Y889D01*
X660Y885D01*
X662Y885D01*
X662Y881D01*
X664Y881D01*
X664Y877D01*
X666Y877D01*
X666Y869D01*
X668Y869D01*
X668Y853D01*
X666Y853D01*
X666Y845D01*
X664Y845D01*
X664Y841D01*
X662Y841D01*
X662Y837D01*
X660Y837D01*
X660Y833D01*
X658Y833D01*
X658Y831D01*
X656Y831D01*
X656Y829D01*
X654Y829D01*
X654Y827D01*
X652Y827D01*
X652Y825D01*
X650Y825D01*
X650Y823D01*
X648Y823D01*
X648Y821D01*
X644Y821D01*
X644Y801D01*
X648Y801D01*
X648Y799D01*
X650Y799D01*
X650Y797D01*
X652Y797D01*
X652Y795D01*
X654Y795D01*
X654Y793D01*
X656Y793D01*
X656Y791D01*
X658Y791D01*
X658Y789D01*
X660Y789D01*
X660Y785D01*
X662Y785D01*
X662Y781D01*
X664Y781D01*
X664Y777D01*
X666Y777D01*
X666Y769D01*
X668Y769D01*
X668Y765D01*
X688Y765D01*
X688Y767D01*
X690Y767D01*
X690Y769D01*
X692Y769D01*
X692Y771D01*
X694Y771D01*
X694Y773D01*
X696Y773D01*
X696Y775D01*
X698Y775D01*
X698Y779D01*
X700Y779D01*
X700Y785D01*
X702Y785D01*
X702Y791D01*
X704Y791D01*
X704Y799D01*
X706Y799D01*
X706Y805D01*
X708Y805D01*
X708Y811D01*
X710Y811D01*
X710Y817D01*
X712Y817D01*
X712Y823D01*
X714Y823D01*
X714Y829D01*
X716Y829D01*
X716Y835D01*
X718Y835D01*
X718Y841D01*
X720Y841D01*
X720Y847D01*
X722Y847D01*
X722Y853D01*
X724Y853D01*
X724Y859D01*
X726Y859D01*
X726Y867D01*
X728Y867D01*
X728Y873D01*
X730Y873D01*
X730Y879D01*
X732Y879D01*
X732Y885D01*
X734Y885D01*
X734Y891D01*
X736Y891D01*
X736Y913D01*
X734Y913D01*
X734Y915D01*
X732Y915D01*
X732Y919D01*
X730Y919D01*
X730Y921D01*
X728Y921D01*
X728Y925D01*
X726Y925D01*
X726Y927D01*
X724Y927D01*
X724Y931D01*
X722Y931D01*
X722Y933D01*
X720Y933D01*
X720Y937D01*
X718Y937D01*
X718Y939D01*
X716Y939D01*
X716Y943D01*
X714Y943D01*
X714Y947D01*
X712Y947D01*
X712Y949D01*
X710Y949D01*
X710Y953D01*
X708Y953D01*
X708Y955D01*
X706Y955D01*
X706Y959D01*
X704Y959D01*
X704Y961D01*
X702Y961D01*
X702Y965D01*
X700Y965D01*
X700Y967D01*
X698Y967D01*
X698Y971D01*
X696Y971D01*
X696Y973D01*
X694Y973D01*
X694Y977D01*
X692Y977D01*
X692Y979D01*
X690Y979D01*
X690Y983D01*
X688Y983D01*
X688Y985D01*
X686Y985D01*
X686Y989D01*
X684Y989D01*
X684Y991D01*
X682Y991D01*
X682Y995D01*
X680Y995D01*
X680Y997D01*
X678Y997D01*
X678Y1001D01*
X676Y1001D01*
X676Y1003D01*
X674Y1003D01*
X674Y1007D01*
X672Y1007D01*
X672Y1009D01*
X670Y1009D01*
X670Y1013D01*
X668Y1013D01*
X668Y1017D01*
X666Y1017D01*
X666Y1019D01*
X664Y1019D01*
X664Y1023D01*
X662Y1023D01*
X662Y1025D01*
X660Y1025D01*
X660Y1029D01*
X658Y1029D01*
X658Y1031D01*
X656Y1031D01*
X656Y1035D01*
X654Y1035D01*
X654Y1037D01*
X652Y1037D01*
X652Y1039D01*
X646Y1039D01*
X646Y1041D01*
X640Y1041D01*
X640Y1043D01*
X634Y1043D01*
X634Y1045D01*
X628Y1045D01*
X628Y1047D01*
X622Y1047D01*
X622Y1049D01*
X616Y1049D01*
X616Y1051D01*
X610Y1051D01*
X610Y1053D01*
X604Y1053D01*
X604Y1055D01*
X598Y1055D01*
X598Y1057D01*
X592Y1057D01*
X592Y1059D01*
X586Y1059D01*
X586Y1061D01*
X580Y1061D01*
X580Y1063D01*
X574Y1063D01*
X574Y1065D01*
X568Y1065D01*
X568Y1067D01*
X562Y1067D01*
X562Y1069D01*
X556Y1069D01*
X556Y1071D01*
X550Y1071D01*
X550Y1073D01*
X544Y1073D01*
X544Y1075D01*
X538Y1075D01*
X538Y1077D01*
X532Y1077D01*
X532Y1079D01*
X526Y1079D01*
X526Y1081D01*
X520Y1081D01*
X520Y1083D01*
X514Y1083D01*
X514Y1085D01*
X508Y1085D01*
X508Y1087D01*
X502Y1087D01*
X502Y1089D01*
X496Y1089D01*
X496Y1091D01*
X490Y1091D01*
X490Y1093D01*
X484Y1093D01*
X484Y1095D01*
X478Y1095D01*
X478Y1097D01*
X472Y1097D01*
X472Y1099D01*
X466Y1099D01*
X466Y1101D01*
X460Y1101D01*
X460Y1103D01*
X454Y1103D01*
X454Y1105D01*
X448Y1105D01*
X448Y1107D01*
X442Y1107D01*
X442Y1109D01*
X436Y1109D01*
X436Y1111D01*
X430Y1111D01*
X430Y1113D01*
X424Y1113D01*
X424Y1115D01*
X418Y1115D01*
X418Y1117D01*
X412Y1117D01*
X412Y1119D01*
X406Y1119D01*
X406Y1121D01*
X400Y1121D01*
X400Y1123D01*
X394Y1123D01*
X394Y1125D01*
X388Y1125D01*
X388Y1127D01*
X382Y1127D01*
X382Y1129D01*
X376Y1129D01*
X376Y1131D01*
X370Y1131D01*
X370Y1133D01*
X364Y1133D01*
X364Y1135D01*
X360Y1135D01*
X360Y1137D01*
X358Y1137D01*
X358Y1139D01*
X354Y1139D01*
X354Y1141D01*
X352Y1141D01*
X352Y1143D01*
X350Y1143D01*
X350Y1147D01*
X348Y1147D01*
X348Y1149D01*
X346Y1149D01*
X346Y1151D01*
X344Y1151D01*
X344Y1155D01*
X342Y1155D01*
X342Y1157D01*
X340Y1157D01*
X340Y1161D01*
X338Y1161D01*
X338Y1163D01*
X336Y1163D01*
X336Y1165D01*
X334Y1165D01*
X334Y1169D01*
X332Y1169D01*
X332Y1171D01*
X330Y1171D01*
X330Y1173D01*
X328Y1173D01*
X328Y1177D01*
X326Y1177D01*
X326Y1179D01*
X324Y1179D01*
X324Y1181D01*
X322Y1181D01*
X322Y1185D01*
X320Y1185D01*
X320Y1187D01*
X318Y1187D01*
X318Y1189D01*
X316Y1189D01*
X316Y1193D01*
X314Y1193D01*
X314Y1195D01*
X312Y1195D01*
X312Y1197D01*
X310Y1197D01*
X310Y1201D01*
X308Y1201D01*
X308Y1203D01*
X306Y1203D01*
X306Y1205D01*
X304Y1205D01*
X304Y1209D01*
X302Y1209D01*
X302Y1211D01*
X300Y1211D01*
X300Y1213D01*
X298Y1213D01*
X298Y1217D01*
X296Y1217D01*
X296Y1219D01*
X294Y1219D01*
X294Y1221D01*
X292Y1221D01*
X292Y1225D01*
X290Y1225D01*
X290Y1227D01*
X288Y1227D01*
X288Y1229D01*
X286Y1229D01*
X286Y1233D01*
X284Y1233D01*
X284Y1235D01*
X282Y1235D01*
X282Y1237D01*
X280Y1237D01*
X280Y1241D01*
X278Y1241D01*
X278Y1243D01*
X276Y1243D01*
X276Y1245D01*
X274Y1245D01*
X274Y1249D01*
X272Y1249D01*
X272Y1251D01*
X270Y1251D01*
X270Y1253D01*
X268Y1253D01*
X268Y1257D01*
X266Y1257D01*
X266Y1259D01*
X264Y1259D01*
X264Y1261D01*
X262Y1261D01*
X262Y1265D01*
X260Y1265D01*
X260Y1267D01*
X258Y1267D01*
X258Y1269D01*
X256Y1269D01*
X256Y1273D01*
X254Y1273D01*
X254Y1275D01*
X252Y1275D01*
X252Y1277D01*
X250Y1277D01*
X250Y1281D01*
X248Y1281D01*
X248Y1283D01*
X246Y1283D01*
X246Y1287D01*
X244Y1287D01*
X244Y1289D01*
X242Y1289D01*
X242Y1291D01*
X240Y1291D01*
X240Y1295D01*
X238Y1295D01*
X238Y1297D01*
X236Y1297D01*
X236Y1299D01*
X234Y1299D01*
X234Y1303D01*
X232Y1303D01*
X232Y1305D01*
X230Y1305D01*
X230Y1307D01*
X228Y1307D01*
X228Y1311D01*
X226Y1311D01*
X226Y1313D01*
X224Y1313D01*
X224Y1315D01*
X222Y1315D01*
X222Y1319D01*
X220Y1319D01*
X220Y1321D01*
X178Y1321D01*
X178Y1403D01*
X180Y1403D01*
X180Y1405D01*
X202Y1405D01*
X202Y1425D01*
X198Y1425D01*
X198Y1427D01*
X196Y1427D01*
X196Y1429D01*
X194Y1429D01*
X194Y1431D01*
X190Y1431D01*
X190Y1435D01*
X188Y1435D01*
X188Y1437D01*
X186Y1437D01*
X186Y1439D01*
X184Y1439D01*
X184Y1443D01*
X182Y1443D01*
X182Y1449D01*
X180Y1449D01*
X180Y1459D01*
X178Y1459D01*
X178Y1463D01*
X180Y1463D01*
X180Y1473D01*
X182Y1473D01*
X182Y1479D01*
X184Y1479D01*
X184Y1483D01*
X186Y1483D01*
X186Y1485D01*
X188Y1485D01*
X188Y1487D01*
X190Y1487D01*
X190Y1491D01*
X192Y1491D01*
X192Y1493D01*
X196Y1493D01*
X196Y1495D01*
X198Y1495D01*
X198Y1497D01*
X202Y1497D01*
X202Y1499D01*
X206Y1499D01*
X206Y1501D01*
X216Y1501D01*
X216Y1503D01*
X40Y1503D01*
G37*
D02*
G36*
X562Y1321D02*
X562Y1319D01*
X948Y1319D01*
X948Y1321D01*
X562Y1321D01*
G37*
D02*
G36*
X562Y1321D02*
X562Y1319D01*
X948Y1319D01*
X948Y1321D01*
X562Y1321D01*
G37*
D02*
G36*
X562Y1319D02*
X562Y1317D01*
X564Y1317D01*
X564Y1309D01*
X566Y1309D01*
X566Y1303D01*
X568Y1303D01*
X568Y1297D01*
X570Y1297D01*
X570Y1291D01*
X572Y1291D01*
X572Y1285D01*
X574Y1285D01*
X574Y1279D01*
X576Y1279D01*
X576Y1273D01*
X578Y1273D01*
X578Y1267D01*
X580Y1267D01*
X580Y1261D01*
X582Y1261D01*
X582Y1255D01*
X584Y1255D01*
X584Y1249D01*
X586Y1249D01*
X586Y1243D01*
X588Y1243D01*
X588Y1237D01*
X590Y1237D01*
X590Y1231D01*
X592Y1231D01*
X592Y1229D01*
X594Y1229D01*
X594Y1227D01*
X598Y1227D01*
X598Y1225D01*
X602Y1225D01*
X602Y1223D01*
X606Y1223D01*
X606Y1221D01*
X610Y1221D01*
X610Y1219D01*
X614Y1219D01*
X614Y1217D01*
X618Y1217D01*
X618Y1215D01*
X622Y1215D01*
X622Y1213D01*
X626Y1213D01*
X626Y1211D01*
X630Y1211D01*
X630Y1209D01*
X634Y1209D01*
X634Y1207D01*
X638Y1207D01*
X638Y1205D01*
X642Y1205D01*
X642Y1203D01*
X646Y1203D01*
X646Y1201D01*
X650Y1201D01*
X650Y1199D01*
X654Y1199D01*
X654Y1197D01*
X658Y1197D01*
X658Y1195D01*
X662Y1195D01*
X662Y1193D01*
X666Y1193D01*
X666Y1191D01*
X670Y1191D01*
X670Y1189D01*
X674Y1189D01*
X674Y1187D01*
X678Y1187D01*
X678Y1185D01*
X682Y1185D01*
X682Y1183D01*
X686Y1183D01*
X686Y1181D01*
X690Y1181D01*
X690Y1179D01*
X694Y1179D01*
X694Y1177D01*
X698Y1177D01*
X698Y1175D01*
X702Y1175D01*
X702Y1173D01*
X706Y1173D01*
X706Y1171D01*
X710Y1171D01*
X710Y1169D01*
X714Y1169D01*
X714Y1167D01*
X718Y1167D01*
X718Y1165D01*
X722Y1165D01*
X722Y1163D01*
X726Y1163D01*
X726Y1161D01*
X730Y1161D01*
X730Y1159D01*
X734Y1159D01*
X734Y1157D01*
X738Y1157D01*
X738Y1155D01*
X742Y1155D01*
X742Y1153D01*
X746Y1153D01*
X746Y1151D01*
X750Y1151D01*
X750Y1149D01*
X754Y1149D01*
X754Y1147D01*
X758Y1147D01*
X758Y1145D01*
X762Y1145D01*
X762Y1143D01*
X766Y1143D01*
X766Y1141D01*
X770Y1141D01*
X770Y1139D01*
X774Y1139D01*
X774Y1137D01*
X778Y1137D01*
X778Y1135D01*
X782Y1135D01*
X782Y1133D01*
X784Y1133D01*
X784Y1131D01*
X786Y1131D01*
X786Y1129D01*
X788Y1129D01*
X788Y1127D01*
X790Y1127D01*
X790Y1125D01*
X792Y1125D01*
X792Y1121D01*
X794Y1121D01*
X794Y1117D01*
X796Y1117D01*
X796Y1113D01*
X798Y1113D01*
X798Y1109D01*
X800Y1109D01*
X800Y1105D01*
X802Y1105D01*
X802Y1101D01*
X804Y1101D01*
X804Y1097D01*
X806Y1097D01*
X806Y1093D01*
X808Y1093D01*
X808Y1089D01*
X810Y1089D01*
X810Y1085D01*
X812Y1085D01*
X812Y1081D01*
X814Y1081D01*
X814Y1077D01*
X816Y1077D01*
X816Y1073D01*
X818Y1073D01*
X818Y1069D01*
X820Y1069D01*
X820Y1065D01*
X822Y1065D01*
X822Y1061D01*
X824Y1061D01*
X824Y1057D01*
X826Y1057D01*
X826Y1053D01*
X828Y1053D01*
X828Y1049D01*
X830Y1049D01*
X830Y1045D01*
X832Y1045D01*
X832Y1043D01*
X834Y1043D01*
X834Y1039D01*
X836Y1039D01*
X836Y1035D01*
X838Y1035D01*
X838Y1031D01*
X840Y1031D01*
X840Y1027D01*
X842Y1027D01*
X842Y1023D01*
X844Y1023D01*
X844Y1019D01*
X846Y1019D01*
X846Y1015D01*
X848Y1015D01*
X848Y1011D01*
X850Y1011D01*
X850Y1007D01*
X852Y1007D01*
X852Y1003D01*
X854Y1003D01*
X854Y999D01*
X856Y999D01*
X856Y995D01*
X858Y995D01*
X858Y991D01*
X860Y991D01*
X860Y987D01*
X862Y987D01*
X862Y983D01*
X864Y983D01*
X864Y979D01*
X866Y979D01*
X866Y975D01*
X868Y975D01*
X868Y971D01*
X870Y971D01*
X870Y967D01*
X872Y967D01*
X872Y963D01*
X874Y963D01*
X874Y959D01*
X876Y959D01*
X876Y955D01*
X878Y955D01*
X878Y953D01*
X880Y953D01*
X880Y949D01*
X882Y949D01*
X882Y945D01*
X884Y945D01*
X884Y941D01*
X886Y941D01*
X886Y937D01*
X888Y937D01*
X888Y933D01*
X890Y933D01*
X890Y929D01*
X892Y929D01*
X892Y925D01*
X894Y925D01*
X894Y921D01*
X896Y921D01*
X896Y915D01*
X898Y915D01*
X898Y905D01*
X896Y905D01*
X896Y897D01*
X894Y897D01*
X894Y891D01*
X892Y891D01*
X892Y885D01*
X890Y885D01*
X890Y881D01*
X888Y881D01*
X888Y875D01*
X886Y875D01*
X886Y869D01*
X884Y869D01*
X884Y863D01*
X882Y863D01*
X882Y857D01*
X880Y857D01*
X880Y851D01*
X878Y851D01*
X878Y845D01*
X876Y845D01*
X876Y839D01*
X874Y839D01*
X874Y835D01*
X872Y835D01*
X872Y829D01*
X870Y829D01*
X870Y823D01*
X868Y823D01*
X868Y817D01*
X866Y817D01*
X866Y811D01*
X864Y811D01*
X864Y805D01*
X862Y805D01*
X862Y799D01*
X860Y799D01*
X860Y793D01*
X858Y793D01*
X858Y789D01*
X856Y789D01*
X856Y783D01*
X854Y783D01*
X854Y777D01*
X852Y777D01*
X852Y771D01*
X850Y771D01*
X850Y765D01*
X848Y765D01*
X848Y759D01*
X846Y759D01*
X846Y753D01*
X844Y753D01*
X844Y747D01*
X842Y747D01*
X842Y743D01*
X840Y743D01*
X840Y737D01*
X838Y737D01*
X838Y731D01*
X836Y731D01*
X836Y725D01*
X834Y725D01*
X834Y719D01*
X832Y719D01*
X832Y713D01*
X830Y713D01*
X830Y707D01*
X828Y707D01*
X828Y701D01*
X826Y701D01*
X826Y697D01*
X824Y697D01*
X824Y691D01*
X822Y691D01*
X822Y685D01*
X820Y685D01*
X820Y679D01*
X818Y679D01*
X818Y673D01*
X816Y673D01*
X816Y667D01*
X814Y667D01*
X814Y661D01*
X812Y661D01*
X812Y655D01*
X810Y655D01*
X810Y651D01*
X808Y651D01*
X808Y645D01*
X806Y645D01*
X806Y639D01*
X804Y639D01*
X804Y633D01*
X802Y633D01*
X802Y627D01*
X800Y627D01*
X800Y621D01*
X798Y621D01*
X798Y615D01*
X796Y615D01*
X796Y609D01*
X794Y609D01*
X794Y605D01*
X792Y605D01*
X792Y599D01*
X790Y599D01*
X790Y597D01*
X788Y597D01*
X788Y595D01*
X786Y595D01*
X786Y593D01*
X784Y593D01*
X784Y591D01*
X782Y591D01*
X782Y589D01*
X778Y589D01*
X778Y587D01*
X772Y587D01*
X772Y585D01*
X766Y585D01*
X766Y583D01*
X760Y583D01*
X760Y581D01*
X754Y581D01*
X754Y579D01*
X748Y579D01*
X748Y577D01*
X744Y577D01*
X744Y575D01*
X738Y575D01*
X738Y573D01*
X732Y573D01*
X732Y571D01*
X726Y571D01*
X726Y569D01*
X720Y569D01*
X720Y567D01*
X714Y567D01*
X714Y565D01*
X708Y565D01*
X708Y563D01*
X702Y563D01*
X702Y561D01*
X696Y561D01*
X696Y559D01*
X692Y559D01*
X692Y557D01*
X686Y557D01*
X686Y555D01*
X680Y555D01*
X680Y553D01*
X674Y553D01*
X674Y551D01*
X668Y551D01*
X668Y549D01*
X666Y549D01*
X666Y545D01*
X664Y545D01*
X664Y541D01*
X662Y541D01*
X662Y537D01*
X660Y537D01*
X660Y533D01*
X658Y533D01*
X658Y531D01*
X656Y531D01*
X656Y529D01*
X654Y529D01*
X654Y527D01*
X652Y527D01*
X652Y525D01*
X650Y525D01*
X650Y523D01*
X648Y523D01*
X648Y521D01*
X644Y521D01*
X644Y519D01*
X640Y519D01*
X640Y517D01*
X634Y517D01*
X634Y515D01*
X626Y515D01*
X626Y513D01*
X948Y513D01*
X948Y1319D01*
X562Y1319D01*
G37*
D02*
G36*
X40Y909D02*
X40Y513D01*
X314Y513D01*
X314Y515D01*
X306Y515D01*
X306Y517D01*
X300Y517D01*
X300Y519D01*
X296Y519D01*
X296Y521D01*
X294Y521D01*
X294Y523D01*
X290Y523D01*
X290Y525D01*
X288Y525D01*
X288Y527D01*
X286Y527D01*
X286Y529D01*
X284Y529D01*
X284Y533D01*
X282Y533D01*
X282Y535D01*
X280Y535D01*
X280Y539D01*
X278Y539D01*
X278Y541D01*
X276Y541D01*
X276Y547D01*
X274Y547D01*
X274Y559D01*
X272Y559D01*
X272Y563D01*
X274Y563D01*
X274Y575D01*
X276Y575D01*
X276Y581D01*
X278Y581D01*
X278Y583D01*
X280Y583D01*
X280Y587D01*
X282Y587D01*
X282Y589D01*
X284Y589D01*
X284Y593D01*
X286Y593D01*
X286Y595D01*
X288Y595D01*
X288Y597D01*
X290Y597D01*
X290Y599D01*
X294Y599D01*
X294Y601D01*
X296Y601D01*
X296Y621D01*
X294Y621D01*
X294Y623D01*
X290Y623D01*
X290Y625D01*
X288Y625D01*
X288Y627D01*
X286Y627D01*
X286Y629D01*
X284Y629D01*
X284Y633D01*
X282Y633D01*
X282Y635D01*
X280Y635D01*
X280Y639D01*
X278Y639D01*
X278Y641D01*
X276Y641D01*
X276Y647D01*
X274Y647D01*
X274Y659D01*
X272Y659D01*
X272Y663D01*
X274Y663D01*
X274Y675D01*
X276Y675D01*
X276Y681D01*
X278Y681D01*
X278Y683D01*
X280Y683D01*
X280Y687D01*
X282Y687D01*
X282Y689D01*
X284Y689D01*
X284Y693D01*
X286Y693D01*
X286Y695D01*
X288Y695D01*
X288Y697D01*
X290Y697D01*
X290Y699D01*
X294Y699D01*
X294Y701D01*
X296Y701D01*
X296Y721D01*
X294Y721D01*
X294Y723D01*
X290Y723D01*
X290Y725D01*
X288Y725D01*
X288Y727D01*
X286Y727D01*
X286Y729D01*
X284Y729D01*
X284Y733D01*
X282Y733D01*
X282Y735D01*
X280Y735D01*
X280Y739D01*
X278Y739D01*
X278Y741D01*
X276Y741D01*
X276Y747D01*
X274Y747D01*
X274Y759D01*
X272Y759D01*
X272Y763D01*
X274Y763D01*
X274Y775D01*
X276Y775D01*
X276Y781D01*
X278Y781D01*
X278Y783D01*
X280Y783D01*
X280Y787D01*
X282Y787D01*
X282Y789D01*
X284Y789D01*
X284Y793D01*
X286Y793D01*
X286Y813D01*
X274Y813D01*
X274Y815D01*
X272Y815D01*
X272Y907D01*
X274Y907D01*
X274Y909D01*
X40Y909D01*
G37*
D02*
G36*
X368Y909D02*
X368Y813D01*
X354Y813D01*
X354Y793D01*
X356Y793D01*
X356Y791D01*
X358Y791D01*
X358Y789D01*
X360Y789D01*
X360Y785D01*
X362Y785D01*
X362Y781D01*
X364Y781D01*
X364Y777D01*
X366Y777D01*
X366Y769D01*
X368Y769D01*
X368Y753D01*
X366Y753D01*
X366Y745D01*
X364Y745D01*
X364Y741D01*
X362Y741D01*
X362Y737D01*
X360Y737D01*
X360Y733D01*
X358Y733D01*
X358Y731D01*
X356Y731D01*
X356Y729D01*
X354Y729D01*
X354Y727D01*
X352Y727D01*
X352Y725D01*
X350Y725D01*
X350Y723D01*
X348Y723D01*
X348Y721D01*
X344Y721D01*
X344Y701D01*
X348Y701D01*
X348Y699D01*
X350Y699D01*
X350Y697D01*
X352Y697D01*
X352Y695D01*
X354Y695D01*
X354Y693D01*
X356Y693D01*
X356Y691D01*
X358Y691D01*
X358Y689D01*
X360Y689D01*
X360Y685D01*
X362Y685D01*
X362Y681D01*
X364Y681D01*
X364Y677D01*
X366Y677D01*
X366Y669D01*
X368Y669D01*
X368Y653D01*
X366Y653D01*
X366Y645D01*
X364Y645D01*
X364Y641D01*
X362Y641D01*
X362Y637D01*
X360Y637D01*
X360Y633D01*
X358Y633D01*
X358Y631D01*
X356Y631D01*
X356Y629D01*
X354Y629D01*
X354Y627D01*
X352Y627D01*
X352Y625D01*
X350Y625D01*
X350Y623D01*
X348Y623D01*
X348Y621D01*
X344Y621D01*
X344Y601D01*
X348Y601D01*
X348Y599D01*
X350Y599D01*
X350Y597D01*
X352Y597D01*
X352Y595D01*
X354Y595D01*
X354Y593D01*
X356Y593D01*
X356Y591D01*
X358Y591D01*
X358Y589D01*
X360Y589D01*
X360Y585D01*
X362Y585D01*
X362Y581D01*
X364Y581D01*
X364Y577D01*
X366Y577D01*
X366Y569D01*
X368Y569D01*
X368Y553D01*
X366Y553D01*
X366Y545D01*
X364Y545D01*
X364Y541D01*
X362Y541D01*
X362Y537D01*
X360Y537D01*
X360Y533D01*
X358Y533D01*
X358Y531D01*
X356Y531D01*
X356Y529D01*
X354Y529D01*
X354Y527D01*
X352Y527D01*
X352Y525D01*
X350Y525D01*
X350Y523D01*
X348Y523D01*
X348Y521D01*
X344Y521D01*
X344Y519D01*
X340Y519D01*
X340Y517D01*
X334Y517D01*
X334Y515D01*
X326Y515D01*
X326Y513D01*
X614Y513D01*
X614Y515D01*
X606Y515D01*
X606Y517D01*
X600Y517D01*
X600Y519D01*
X596Y519D01*
X596Y521D01*
X594Y521D01*
X594Y523D01*
X590Y523D01*
X590Y525D01*
X588Y525D01*
X588Y527D01*
X586Y527D01*
X586Y529D01*
X584Y529D01*
X584Y533D01*
X582Y533D01*
X582Y535D01*
X580Y535D01*
X580Y539D01*
X578Y539D01*
X578Y541D01*
X576Y541D01*
X576Y547D01*
X574Y547D01*
X574Y559D01*
X572Y559D01*
X572Y563D01*
X574Y563D01*
X574Y575D01*
X576Y575D01*
X576Y581D01*
X578Y581D01*
X578Y583D01*
X580Y583D01*
X580Y587D01*
X582Y587D01*
X582Y589D01*
X584Y589D01*
X584Y593D01*
X586Y593D01*
X586Y595D01*
X588Y595D01*
X588Y597D01*
X590Y597D01*
X590Y599D01*
X594Y599D01*
X594Y601D01*
X596Y601D01*
X596Y621D01*
X594Y621D01*
X594Y623D01*
X590Y623D01*
X590Y625D01*
X588Y625D01*
X588Y627D01*
X586Y627D01*
X586Y629D01*
X584Y629D01*
X584Y633D01*
X582Y633D01*
X582Y635D01*
X580Y635D01*
X580Y639D01*
X578Y639D01*
X578Y641D01*
X576Y641D01*
X576Y647D01*
X574Y647D01*
X574Y659D01*
X572Y659D01*
X572Y663D01*
X574Y663D01*
X574Y675D01*
X576Y675D01*
X576Y681D01*
X578Y681D01*
X578Y683D01*
X580Y683D01*
X580Y687D01*
X582Y687D01*
X582Y689D01*
X584Y689D01*
X584Y693D01*
X586Y693D01*
X586Y695D01*
X588Y695D01*
X588Y697D01*
X590Y697D01*
X590Y699D01*
X594Y699D01*
X594Y701D01*
X596Y701D01*
X596Y721D01*
X594Y721D01*
X594Y723D01*
X590Y723D01*
X590Y725D01*
X588Y725D01*
X588Y727D01*
X586Y727D01*
X586Y729D01*
X584Y729D01*
X584Y733D01*
X582Y733D01*
X582Y735D01*
X580Y735D01*
X580Y739D01*
X578Y739D01*
X578Y741D01*
X576Y741D01*
X576Y747D01*
X574Y747D01*
X574Y759D01*
X572Y759D01*
X572Y763D01*
X574Y763D01*
X574Y775D01*
X576Y775D01*
X576Y781D01*
X578Y781D01*
X578Y783D01*
X580Y783D01*
X580Y787D01*
X582Y787D01*
X582Y789D01*
X584Y789D01*
X584Y793D01*
X586Y793D01*
X586Y795D01*
X588Y795D01*
X588Y797D01*
X590Y797D01*
X590Y799D01*
X594Y799D01*
X594Y801D01*
X596Y801D01*
X596Y821D01*
X594Y821D01*
X594Y823D01*
X590Y823D01*
X590Y825D01*
X588Y825D01*
X588Y827D01*
X586Y827D01*
X586Y829D01*
X584Y829D01*
X584Y833D01*
X582Y833D01*
X582Y835D01*
X580Y835D01*
X580Y839D01*
X578Y839D01*
X578Y841D01*
X576Y841D01*
X576Y847D01*
X574Y847D01*
X574Y859D01*
X572Y859D01*
X572Y863D01*
X574Y863D01*
X574Y875D01*
X576Y875D01*
X576Y881D01*
X578Y881D01*
X578Y883D01*
X580Y883D01*
X580Y887D01*
X582Y887D01*
X582Y889D01*
X584Y889D01*
X584Y893D01*
X586Y893D01*
X586Y895D01*
X588Y895D01*
X588Y897D01*
X590Y897D01*
X590Y899D01*
X594Y899D01*
X594Y901D01*
X596Y901D01*
X596Y903D01*
X600Y903D01*
X600Y905D01*
X606Y905D01*
X606Y907D01*
X614Y907D01*
X614Y909D01*
X368Y909D01*
G37*
D02*
G36*
X40Y513D02*
X40Y511D01*
X948Y511D01*
X948Y513D01*
X40Y513D01*
G37*
D02*
G36*
X40Y513D02*
X40Y511D01*
X948Y511D01*
X948Y513D01*
X40Y513D01*
G37*
D02*
G36*
X40Y513D02*
X40Y511D01*
X948Y511D01*
X948Y513D01*
X40Y513D01*
G37*
D02*
G36*
X40Y511D02*
X40Y41D01*
X948Y41D01*
X948Y511D01*
X40Y511D01*
G37*
D02*
G36*
X512Y2003D02*
X512Y1995D01*
X514Y1995D01*
X514Y1993D01*
X516Y1993D01*
X516Y1989D01*
X518Y1989D01*
X518Y1987D01*
X520Y1987D01*
X520Y1983D01*
X522Y1983D01*
X522Y1979D01*
X524Y1979D01*
X524Y1977D01*
X526Y1977D01*
X526Y1973D01*
X528Y1973D01*
X528Y1971D01*
X530Y1971D01*
X530Y1967D01*
X532Y1967D01*
X532Y1965D01*
X534Y1965D01*
X534Y1961D01*
X536Y1961D01*
X536Y1959D01*
X538Y1959D01*
X538Y1955D01*
X540Y1955D01*
X540Y1953D01*
X542Y1953D01*
X542Y1949D01*
X544Y1949D01*
X544Y1947D01*
X546Y1947D01*
X546Y1943D01*
X548Y1943D01*
X548Y1941D01*
X550Y1941D01*
X550Y1937D01*
X552Y1937D01*
X552Y1935D01*
X554Y1935D01*
X554Y1931D01*
X556Y1931D01*
X556Y1929D01*
X558Y1929D01*
X558Y1925D01*
X560Y1925D01*
X560Y1923D01*
X562Y1923D01*
X562Y1919D01*
X564Y1919D01*
X564Y1917D01*
X566Y1917D01*
X566Y1913D01*
X568Y1913D01*
X568Y1909D01*
X570Y1909D01*
X570Y1907D01*
X572Y1907D01*
X572Y1903D01*
X574Y1903D01*
X574Y1901D01*
X576Y1901D01*
X576Y1897D01*
X578Y1897D01*
X578Y1895D01*
X580Y1895D01*
X580Y1891D01*
X582Y1891D01*
X582Y1889D01*
X584Y1889D01*
X584Y1885D01*
X586Y1885D01*
X586Y1883D01*
X588Y1883D01*
X588Y1879D01*
X590Y1879D01*
X590Y1877D01*
X592Y1877D01*
X592Y1873D01*
X594Y1873D01*
X594Y1869D01*
X596Y1869D01*
X596Y1603D01*
X594Y1603D01*
X594Y1599D01*
X592Y1599D01*
X592Y1595D01*
X590Y1595D01*
X590Y1593D01*
X588Y1593D01*
X588Y1591D01*
X586Y1591D01*
X586Y1589D01*
X584Y1589D01*
X584Y1587D01*
X582Y1587D01*
X582Y1585D01*
X580Y1585D01*
X580Y1583D01*
X578Y1583D01*
X578Y1581D01*
X576Y1581D01*
X576Y1579D01*
X574Y1579D01*
X574Y1577D01*
X572Y1577D01*
X572Y1575D01*
X570Y1575D01*
X570Y1573D01*
X568Y1573D01*
X568Y1571D01*
X566Y1571D01*
X566Y1569D01*
X564Y1569D01*
X564Y1567D01*
X562Y1567D01*
X562Y1565D01*
X560Y1565D01*
X560Y1563D01*
X558Y1563D01*
X558Y1561D01*
X556Y1561D01*
X556Y1559D01*
X554Y1559D01*
X554Y1557D01*
X552Y1557D01*
X552Y1555D01*
X550Y1555D01*
X550Y1553D01*
X548Y1553D01*
X548Y1551D01*
X546Y1551D01*
X546Y1549D01*
X544Y1549D01*
X544Y1547D01*
X542Y1547D01*
X542Y1545D01*
X540Y1545D01*
X540Y1543D01*
X538Y1543D01*
X538Y1541D01*
X536Y1541D01*
X536Y1539D01*
X534Y1539D01*
X534Y1537D01*
X532Y1537D01*
X532Y1535D01*
X530Y1535D01*
X530Y1533D01*
X528Y1533D01*
X528Y1531D01*
X526Y1531D01*
X526Y1529D01*
X524Y1529D01*
X524Y1527D01*
X522Y1527D01*
X522Y1525D01*
X520Y1525D01*
X520Y1523D01*
X518Y1523D01*
X518Y1515D01*
X538Y1515D01*
X538Y1517D01*
X540Y1517D01*
X540Y1519D01*
X542Y1519D01*
X542Y1521D01*
X544Y1521D01*
X544Y1523D01*
X546Y1523D01*
X546Y1525D01*
X548Y1525D01*
X548Y1527D01*
X550Y1527D01*
X550Y1529D01*
X552Y1529D01*
X552Y1531D01*
X554Y1531D01*
X554Y1533D01*
X556Y1533D01*
X556Y1535D01*
X558Y1535D01*
X558Y1537D01*
X560Y1537D01*
X560Y1539D01*
X562Y1539D01*
X562Y1541D01*
X564Y1541D01*
X564Y1543D01*
X566Y1543D01*
X566Y1545D01*
X568Y1545D01*
X568Y1547D01*
X570Y1547D01*
X570Y1549D01*
X572Y1549D01*
X572Y1551D01*
X574Y1551D01*
X574Y1553D01*
X576Y1553D01*
X576Y1555D01*
X578Y1555D01*
X578Y1557D01*
X580Y1557D01*
X580Y1559D01*
X582Y1559D01*
X582Y1561D01*
X584Y1561D01*
X584Y1563D01*
X586Y1563D01*
X586Y1565D01*
X588Y1565D01*
X588Y1567D01*
X590Y1567D01*
X590Y1569D01*
X592Y1569D01*
X592Y1571D01*
X594Y1571D01*
X594Y1573D01*
X596Y1573D01*
X596Y1575D01*
X598Y1575D01*
X598Y1577D01*
X600Y1577D01*
X600Y1579D01*
X602Y1579D01*
X602Y1581D01*
X604Y1581D01*
X604Y1583D01*
X606Y1583D01*
X606Y1585D01*
X608Y1585D01*
X608Y1587D01*
X610Y1587D01*
X610Y1589D01*
X612Y1589D01*
X612Y1591D01*
X614Y1591D01*
X614Y1593D01*
X616Y1593D01*
X616Y1595D01*
X618Y1595D01*
X618Y1597D01*
X620Y1597D01*
X620Y1599D01*
X622Y1599D01*
X622Y1601D01*
X624Y1601D01*
X624Y1603D01*
X626Y1603D01*
X626Y1605D01*
X628Y1605D01*
X628Y1607D01*
X630Y1607D01*
X630Y1609D01*
X632Y1609D01*
X632Y1611D01*
X634Y1611D01*
X634Y1613D01*
X636Y1613D01*
X636Y1615D01*
X638Y1615D01*
X638Y1617D01*
X640Y1617D01*
X640Y1619D01*
X642Y1619D01*
X642Y1621D01*
X644Y1621D01*
X644Y1853D01*
X642Y1853D01*
X642Y1855D01*
X640Y1855D01*
X640Y1857D01*
X638Y1857D01*
X638Y1861D01*
X636Y1861D01*
X636Y1863D01*
X634Y1863D01*
X634Y1865D01*
X632Y1865D01*
X632Y1869D01*
X630Y1869D01*
X630Y1871D01*
X628Y1871D01*
X628Y1873D01*
X626Y1873D01*
X626Y1877D01*
X624Y1877D01*
X624Y1879D01*
X622Y1879D01*
X622Y1883D01*
X620Y1883D01*
X620Y1885D01*
X618Y1885D01*
X618Y1887D01*
X616Y1887D01*
X616Y1891D01*
X614Y1891D01*
X614Y1893D01*
X612Y1893D01*
X612Y1895D01*
X610Y1895D01*
X610Y1899D01*
X608Y1899D01*
X608Y1901D01*
X606Y1901D01*
X606Y1903D01*
X604Y1903D01*
X604Y1907D01*
X602Y1907D01*
X602Y1909D01*
X600Y1909D01*
X600Y1911D01*
X598Y1911D01*
X598Y1915D01*
X596Y1915D01*
X596Y1917D01*
X594Y1917D01*
X594Y1919D01*
X592Y1919D01*
X592Y1923D01*
X590Y1923D01*
X590Y1925D01*
X588Y1925D01*
X588Y1927D01*
X586Y1927D01*
X586Y1931D01*
X584Y1931D01*
X584Y1933D01*
X582Y1933D01*
X582Y1935D01*
X580Y1935D01*
X580Y1939D01*
X578Y1939D01*
X578Y1941D01*
X576Y1941D01*
X576Y1943D01*
X574Y1943D01*
X574Y1947D01*
X572Y1947D01*
X572Y1949D01*
X570Y1949D01*
X570Y1953D01*
X568Y1953D01*
X568Y1955D01*
X566Y1955D01*
X566Y1957D01*
X564Y1957D01*
X564Y1961D01*
X562Y1961D01*
X562Y1963D01*
X560Y1963D01*
X560Y1965D01*
X558Y1965D01*
X558Y1969D01*
X556Y1969D01*
X556Y1971D01*
X554Y1971D01*
X554Y1973D01*
X552Y1973D01*
X552Y1977D01*
X550Y1977D01*
X550Y1979D01*
X548Y1979D01*
X548Y1981D01*
X546Y1981D01*
X546Y1985D01*
X544Y1985D01*
X544Y1987D01*
X542Y1987D01*
X542Y1989D01*
X540Y1989D01*
X540Y1993D01*
X538Y1993D01*
X538Y1995D01*
X536Y1995D01*
X536Y1997D01*
X534Y1997D01*
X534Y2001D01*
X532Y2001D01*
X532Y2003D01*
X512Y2003D01*
G37*
D02*
G36*
X460Y1465D02*
X460Y1463D01*
X458Y1463D01*
X458Y1461D01*
X456Y1461D01*
X456Y1459D01*
X454Y1459D01*
X454Y1457D01*
X452Y1457D01*
X452Y1455D01*
X450Y1455D01*
X450Y1453D01*
X448Y1453D01*
X448Y1451D01*
X446Y1451D01*
X446Y1449D01*
X444Y1449D01*
X444Y1447D01*
X442Y1447D01*
X442Y1445D01*
X440Y1445D01*
X440Y1443D01*
X438Y1443D01*
X438Y1441D01*
X436Y1441D01*
X436Y1439D01*
X432Y1439D01*
X432Y1437D01*
X428Y1437D01*
X428Y1435D01*
X252Y1435D01*
X252Y1433D01*
X250Y1433D01*
X250Y1431D01*
X248Y1431D01*
X248Y1429D01*
X246Y1429D01*
X246Y1427D01*
X242Y1427D01*
X242Y1425D01*
X238Y1425D01*
X238Y1405D01*
X262Y1405D01*
X262Y1349D01*
X264Y1349D01*
X264Y1347D01*
X266Y1347D01*
X266Y1343D01*
X268Y1343D01*
X268Y1341D01*
X270Y1341D01*
X270Y1339D01*
X272Y1339D01*
X272Y1335D01*
X274Y1335D01*
X274Y1333D01*
X276Y1333D01*
X276Y1331D01*
X278Y1331D01*
X278Y1327D01*
X280Y1327D01*
X280Y1325D01*
X282Y1325D01*
X282Y1323D01*
X284Y1323D01*
X284Y1319D01*
X286Y1319D01*
X286Y1317D01*
X288Y1317D01*
X288Y1315D01*
X290Y1315D01*
X290Y1311D01*
X292Y1311D01*
X292Y1309D01*
X294Y1309D01*
X294Y1305D01*
X296Y1305D01*
X296Y1303D01*
X298Y1303D01*
X298Y1301D01*
X300Y1301D01*
X300Y1297D01*
X302Y1297D01*
X302Y1295D01*
X304Y1295D01*
X304Y1293D01*
X306Y1293D01*
X306Y1289D01*
X308Y1289D01*
X308Y1287D01*
X310Y1287D01*
X310Y1285D01*
X312Y1285D01*
X312Y1281D01*
X314Y1281D01*
X314Y1279D01*
X316Y1279D01*
X316Y1277D01*
X318Y1277D01*
X318Y1273D01*
X320Y1273D01*
X320Y1271D01*
X322Y1271D01*
X322Y1269D01*
X324Y1269D01*
X324Y1265D01*
X326Y1265D01*
X326Y1263D01*
X328Y1263D01*
X328Y1261D01*
X330Y1261D01*
X330Y1257D01*
X332Y1257D01*
X332Y1255D01*
X334Y1255D01*
X334Y1253D01*
X336Y1253D01*
X336Y1249D01*
X338Y1249D01*
X338Y1247D01*
X340Y1247D01*
X340Y1245D01*
X342Y1245D01*
X342Y1241D01*
X344Y1241D01*
X344Y1239D01*
X346Y1239D01*
X346Y1237D01*
X348Y1237D01*
X348Y1233D01*
X350Y1233D01*
X350Y1231D01*
X352Y1231D01*
X352Y1229D01*
X354Y1229D01*
X354Y1225D01*
X356Y1225D01*
X356Y1223D01*
X358Y1223D01*
X358Y1221D01*
X360Y1221D01*
X360Y1217D01*
X362Y1217D01*
X362Y1215D01*
X364Y1215D01*
X364Y1213D01*
X366Y1213D01*
X366Y1209D01*
X368Y1209D01*
X368Y1207D01*
X370Y1207D01*
X370Y1205D01*
X372Y1205D01*
X372Y1201D01*
X374Y1201D01*
X374Y1199D01*
X376Y1199D01*
X376Y1197D01*
X378Y1197D01*
X378Y1193D01*
X380Y1193D01*
X380Y1191D01*
X382Y1191D01*
X382Y1189D01*
X384Y1189D01*
X384Y1185D01*
X386Y1185D01*
X386Y1183D01*
X388Y1183D01*
X388Y1181D01*
X392Y1181D01*
X392Y1179D01*
X398Y1179D01*
X398Y1177D01*
X404Y1177D01*
X404Y1175D01*
X410Y1175D01*
X410Y1173D01*
X416Y1173D01*
X416Y1171D01*
X422Y1171D01*
X422Y1169D01*
X428Y1169D01*
X428Y1167D01*
X434Y1167D01*
X434Y1165D01*
X440Y1165D01*
X440Y1163D01*
X446Y1163D01*
X446Y1161D01*
X452Y1161D01*
X452Y1159D01*
X458Y1159D01*
X458Y1157D01*
X464Y1157D01*
X464Y1155D01*
X470Y1155D01*
X470Y1153D01*
X476Y1153D01*
X476Y1151D01*
X482Y1151D01*
X482Y1149D01*
X488Y1149D01*
X488Y1147D01*
X494Y1147D01*
X494Y1145D01*
X500Y1145D01*
X500Y1143D01*
X506Y1143D01*
X506Y1141D01*
X512Y1141D01*
X512Y1139D01*
X518Y1139D01*
X518Y1137D01*
X524Y1137D01*
X524Y1135D01*
X530Y1135D01*
X530Y1133D01*
X536Y1133D01*
X536Y1131D01*
X542Y1131D01*
X542Y1129D01*
X548Y1129D01*
X548Y1127D01*
X554Y1127D01*
X554Y1125D01*
X560Y1125D01*
X560Y1123D01*
X566Y1123D01*
X566Y1121D01*
X572Y1121D01*
X572Y1119D01*
X578Y1119D01*
X578Y1117D01*
X584Y1117D01*
X584Y1115D01*
X590Y1115D01*
X590Y1113D01*
X596Y1113D01*
X596Y1111D01*
X602Y1111D01*
X602Y1109D01*
X608Y1109D01*
X608Y1107D01*
X614Y1107D01*
X614Y1105D01*
X620Y1105D01*
X620Y1103D01*
X626Y1103D01*
X626Y1101D01*
X632Y1101D01*
X632Y1099D01*
X638Y1099D01*
X638Y1097D01*
X644Y1097D01*
X644Y1095D01*
X650Y1095D01*
X650Y1093D01*
X656Y1093D01*
X656Y1091D01*
X662Y1091D01*
X662Y1089D01*
X668Y1089D01*
X668Y1087D01*
X674Y1087D01*
X674Y1085D01*
X678Y1085D01*
X678Y1083D01*
X682Y1083D01*
X682Y1081D01*
X686Y1081D01*
X686Y1079D01*
X688Y1079D01*
X688Y1077D01*
X690Y1077D01*
X690Y1075D01*
X692Y1075D01*
X692Y1071D01*
X694Y1071D01*
X694Y1069D01*
X696Y1069D01*
X696Y1065D01*
X698Y1065D01*
X698Y1063D01*
X700Y1063D01*
X700Y1059D01*
X702Y1059D01*
X702Y1057D01*
X704Y1057D01*
X704Y1053D01*
X706Y1053D01*
X706Y1049D01*
X708Y1049D01*
X708Y1047D01*
X710Y1047D01*
X710Y1043D01*
X712Y1043D01*
X712Y1041D01*
X714Y1041D01*
X714Y1037D01*
X716Y1037D01*
X716Y1035D01*
X718Y1035D01*
X718Y1031D01*
X720Y1031D01*
X720Y1029D01*
X722Y1029D01*
X722Y1025D01*
X724Y1025D01*
X724Y1023D01*
X726Y1023D01*
X726Y1019D01*
X728Y1019D01*
X728Y1017D01*
X730Y1017D01*
X730Y1013D01*
X732Y1013D01*
X732Y1011D01*
X734Y1011D01*
X734Y1007D01*
X736Y1007D01*
X736Y1005D01*
X738Y1005D01*
X738Y1001D01*
X740Y1001D01*
X740Y999D01*
X742Y999D01*
X742Y995D01*
X744Y995D01*
X744Y993D01*
X746Y993D01*
X746Y989D01*
X748Y989D01*
X748Y985D01*
X750Y985D01*
X750Y983D01*
X752Y983D01*
X752Y979D01*
X754Y979D01*
X754Y977D01*
X756Y977D01*
X756Y973D01*
X758Y973D01*
X758Y971D01*
X760Y971D01*
X760Y967D01*
X762Y967D01*
X762Y965D01*
X764Y965D01*
X764Y961D01*
X766Y961D01*
X766Y959D01*
X768Y959D01*
X768Y955D01*
X770Y955D01*
X770Y953D01*
X772Y953D01*
X772Y949D01*
X774Y949D01*
X774Y947D01*
X776Y947D01*
X776Y943D01*
X778Y943D01*
X778Y941D01*
X780Y941D01*
X780Y937D01*
X782Y937D01*
X782Y935D01*
X784Y935D01*
X784Y931D01*
X786Y931D01*
X786Y929D01*
X788Y929D01*
X788Y925D01*
X790Y925D01*
X790Y921D01*
X792Y921D01*
X792Y917D01*
X794Y917D01*
X794Y901D01*
X792Y901D01*
X792Y895D01*
X790Y895D01*
X790Y889D01*
X788Y889D01*
X788Y883D01*
X786Y883D01*
X786Y877D01*
X784Y877D01*
X784Y871D01*
X782Y871D01*
X782Y863D01*
X780Y863D01*
X780Y857D01*
X778Y857D01*
X778Y851D01*
X776Y851D01*
X776Y845D01*
X774Y845D01*
X774Y839D01*
X772Y839D01*
X772Y833D01*
X770Y833D01*
X770Y827D01*
X768Y827D01*
X768Y821D01*
X766Y821D01*
X766Y815D01*
X764Y815D01*
X764Y809D01*
X762Y809D01*
X762Y803D01*
X760Y803D01*
X760Y795D01*
X758Y795D01*
X758Y789D01*
X756Y789D01*
X756Y783D01*
X754Y783D01*
X754Y777D01*
X752Y777D01*
X752Y771D01*
X750Y771D01*
X750Y765D01*
X748Y765D01*
X748Y759D01*
X746Y759D01*
X746Y753D01*
X744Y753D01*
X744Y749D01*
X742Y749D01*
X742Y747D01*
X740Y747D01*
X740Y745D01*
X738Y745D01*
X738Y743D01*
X736Y743D01*
X736Y741D01*
X734Y741D01*
X734Y739D01*
X732Y739D01*
X732Y737D01*
X730Y737D01*
X730Y735D01*
X728Y735D01*
X728Y733D01*
X726Y733D01*
X726Y729D01*
X724Y729D01*
X724Y727D01*
X722Y727D01*
X722Y725D01*
X720Y725D01*
X720Y723D01*
X718Y723D01*
X718Y721D01*
X716Y721D01*
X716Y719D01*
X714Y719D01*
X714Y717D01*
X712Y717D01*
X712Y715D01*
X710Y715D01*
X710Y713D01*
X708Y713D01*
X708Y711D01*
X706Y711D01*
X706Y709D01*
X704Y709D01*
X704Y707D01*
X702Y707D01*
X702Y705D01*
X700Y705D01*
X700Y703D01*
X698Y703D01*
X698Y701D01*
X696Y701D01*
X696Y699D01*
X694Y699D01*
X694Y697D01*
X692Y697D01*
X692Y695D01*
X690Y695D01*
X690Y693D01*
X688Y693D01*
X688Y691D01*
X686Y691D01*
X686Y689D01*
X684Y689D01*
X684Y687D01*
X682Y687D01*
X682Y685D01*
X680Y685D01*
X680Y683D01*
X678Y683D01*
X678Y681D01*
X676Y681D01*
X676Y679D01*
X674Y679D01*
X674Y677D01*
X672Y677D01*
X672Y675D01*
X670Y675D01*
X670Y673D01*
X668Y673D01*
X668Y653D01*
X666Y653D01*
X666Y645D01*
X664Y645D01*
X664Y641D01*
X662Y641D01*
X662Y637D01*
X660Y637D01*
X660Y633D01*
X658Y633D01*
X658Y631D01*
X656Y631D01*
X656Y629D01*
X654Y629D01*
X654Y627D01*
X652Y627D01*
X652Y625D01*
X650Y625D01*
X650Y623D01*
X648Y623D01*
X648Y621D01*
X644Y621D01*
X644Y603D01*
X666Y603D01*
X666Y605D01*
X670Y605D01*
X670Y607D01*
X676Y607D01*
X676Y609D01*
X682Y609D01*
X682Y611D01*
X688Y611D01*
X688Y613D01*
X694Y613D01*
X694Y615D01*
X700Y615D01*
X700Y617D01*
X706Y617D01*
X706Y619D01*
X712Y619D01*
X712Y621D01*
X718Y621D01*
X718Y623D01*
X722Y623D01*
X722Y625D01*
X728Y625D01*
X728Y627D01*
X734Y627D01*
X734Y629D01*
X740Y629D01*
X740Y631D01*
X746Y631D01*
X746Y633D01*
X748Y633D01*
X748Y635D01*
X750Y635D01*
X750Y641D01*
X752Y641D01*
X752Y647D01*
X754Y647D01*
X754Y653D01*
X756Y653D01*
X756Y659D01*
X758Y659D01*
X758Y665D01*
X760Y665D01*
X760Y671D01*
X762Y671D01*
X762Y677D01*
X764Y677D01*
X764Y681D01*
X766Y681D01*
X766Y687D01*
X768Y687D01*
X768Y693D01*
X770Y693D01*
X770Y699D01*
X772Y699D01*
X772Y705D01*
X774Y705D01*
X774Y711D01*
X776Y711D01*
X776Y717D01*
X778Y717D01*
X778Y723D01*
X780Y723D01*
X780Y727D01*
X782Y727D01*
X782Y733D01*
X784Y733D01*
X784Y739D01*
X786Y739D01*
X786Y745D01*
X788Y745D01*
X788Y751D01*
X790Y751D01*
X790Y757D01*
X792Y757D01*
X792Y763D01*
X794Y763D01*
X794Y769D01*
X796Y769D01*
X796Y773D01*
X798Y773D01*
X798Y779D01*
X800Y779D01*
X800Y785D01*
X802Y785D01*
X802Y791D01*
X804Y791D01*
X804Y797D01*
X806Y797D01*
X806Y803D01*
X808Y803D01*
X808Y809D01*
X810Y809D01*
X810Y815D01*
X812Y815D01*
X812Y819D01*
X814Y819D01*
X814Y825D01*
X816Y825D01*
X816Y831D01*
X818Y831D01*
X818Y837D01*
X820Y837D01*
X820Y843D01*
X822Y843D01*
X822Y849D01*
X824Y849D01*
X824Y855D01*
X826Y855D01*
X826Y861D01*
X828Y861D01*
X828Y865D01*
X830Y865D01*
X830Y871D01*
X832Y871D01*
X832Y877D01*
X834Y877D01*
X834Y883D01*
X836Y883D01*
X836Y889D01*
X838Y889D01*
X838Y895D01*
X840Y895D01*
X840Y915D01*
X838Y915D01*
X838Y919D01*
X836Y919D01*
X836Y923D01*
X834Y923D01*
X834Y927D01*
X832Y927D01*
X832Y931D01*
X830Y931D01*
X830Y935D01*
X828Y935D01*
X828Y939D01*
X826Y939D01*
X826Y943D01*
X824Y943D01*
X824Y947D01*
X822Y947D01*
X822Y951D01*
X820Y951D01*
X820Y955D01*
X818Y955D01*
X818Y959D01*
X816Y959D01*
X816Y963D01*
X814Y963D01*
X814Y967D01*
X812Y967D01*
X812Y971D01*
X810Y971D01*
X810Y975D01*
X808Y975D01*
X808Y979D01*
X806Y979D01*
X806Y983D01*
X804Y983D01*
X804Y987D01*
X802Y987D01*
X802Y991D01*
X800Y991D01*
X800Y995D01*
X798Y995D01*
X798Y999D01*
X796Y999D01*
X796Y1003D01*
X794Y1003D01*
X794Y1007D01*
X792Y1007D01*
X792Y1009D01*
X790Y1009D01*
X790Y1013D01*
X788Y1013D01*
X788Y1017D01*
X786Y1017D01*
X786Y1021D01*
X784Y1021D01*
X784Y1025D01*
X782Y1025D01*
X782Y1029D01*
X780Y1029D01*
X780Y1033D01*
X778Y1033D01*
X778Y1037D01*
X776Y1037D01*
X776Y1041D01*
X774Y1041D01*
X774Y1045D01*
X772Y1045D01*
X772Y1049D01*
X770Y1049D01*
X770Y1053D01*
X768Y1053D01*
X768Y1057D01*
X766Y1057D01*
X766Y1061D01*
X764Y1061D01*
X764Y1065D01*
X762Y1065D01*
X762Y1069D01*
X760Y1069D01*
X760Y1073D01*
X758Y1073D01*
X758Y1077D01*
X756Y1077D01*
X756Y1081D01*
X754Y1081D01*
X754Y1085D01*
X752Y1085D01*
X752Y1089D01*
X750Y1089D01*
X750Y1093D01*
X746Y1093D01*
X746Y1095D01*
X742Y1095D01*
X742Y1097D01*
X738Y1097D01*
X738Y1099D01*
X734Y1099D01*
X734Y1101D01*
X730Y1101D01*
X730Y1103D01*
X726Y1103D01*
X726Y1105D01*
X722Y1105D01*
X722Y1107D01*
X718Y1107D01*
X718Y1109D01*
X714Y1109D01*
X714Y1111D01*
X710Y1111D01*
X710Y1113D01*
X706Y1113D01*
X706Y1115D01*
X702Y1115D01*
X702Y1117D01*
X698Y1117D01*
X698Y1119D01*
X694Y1119D01*
X694Y1121D01*
X690Y1121D01*
X690Y1123D01*
X686Y1123D01*
X686Y1125D01*
X682Y1125D01*
X682Y1127D01*
X678Y1127D01*
X678Y1129D01*
X674Y1129D01*
X674Y1131D01*
X670Y1131D01*
X670Y1133D01*
X666Y1133D01*
X666Y1135D01*
X662Y1135D01*
X662Y1137D01*
X658Y1137D01*
X658Y1139D01*
X654Y1139D01*
X654Y1141D01*
X650Y1141D01*
X650Y1143D01*
X646Y1143D01*
X646Y1145D01*
X642Y1145D01*
X642Y1147D01*
X638Y1147D01*
X638Y1149D01*
X634Y1149D01*
X634Y1151D01*
X630Y1151D01*
X630Y1153D01*
X626Y1153D01*
X626Y1155D01*
X622Y1155D01*
X622Y1157D01*
X618Y1157D01*
X618Y1159D01*
X614Y1159D01*
X614Y1161D01*
X610Y1161D01*
X610Y1163D01*
X606Y1163D01*
X606Y1165D01*
X602Y1165D01*
X602Y1167D01*
X598Y1167D01*
X598Y1169D01*
X594Y1169D01*
X594Y1171D01*
X590Y1171D01*
X590Y1173D01*
X586Y1173D01*
X586Y1175D01*
X582Y1175D01*
X582Y1177D01*
X578Y1177D01*
X578Y1179D01*
X574Y1179D01*
X574Y1181D01*
X570Y1181D01*
X570Y1183D01*
X566Y1183D01*
X566Y1185D01*
X562Y1185D01*
X562Y1187D01*
X558Y1187D01*
X558Y1189D01*
X554Y1189D01*
X554Y1191D01*
X552Y1191D01*
X552Y1193D01*
X550Y1193D01*
X550Y1195D01*
X548Y1195D01*
X548Y1199D01*
X546Y1199D01*
X546Y1205D01*
X544Y1205D01*
X544Y1211D01*
X542Y1211D01*
X542Y1217D01*
X540Y1217D01*
X540Y1223D01*
X538Y1223D01*
X538Y1229D01*
X536Y1229D01*
X536Y1235D01*
X534Y1235D01*
X534Y1241D01*
X532Y1241D01*
X532Y1247D01*
X530Y1247D01*
X530Y1253D01*
X528Y1253D01*
X528Y1259D01*
X526Y1259D01*
X526Y1265D01*
X524Y1265D01*
X524Y1271D01*
X522Y1271D01*
X522Y1277D01*
X520Y1277D01*
X520Y1283D01*
X518Y1283D01*
X518Y1289D01*
X516Y1289D01*
X516Y1295D01*
X514Y1295D01*
X514Y1301D01*
X512Y1301D01*
X512Y1307D01*
X510Y1307D01*
X510Y1313D01*
X508Y1313D01*
X508Y1319D01*
X506Y1319D01*
X506Y1321D01*
X478Y1321D01*
X478Y1403D01*
X480Y1403D01*
X480Y1405D01*
X502Y1405D01*
X502Y1425D01*
X498Y1425D01*
X498Y1427D01*
X496Y1427D01*
X496Y1429D01*
X494Y1429D01*
X494Y1431D01*
X490Y1431D01*
X490Y1435D01*
X488Y1435D01*
X488Y1437D01*
X486Y1437D01*
X486Y1439D01*
X484Y1439D01*
X484Y1443D01*
X482Y1443D01*
X482Y1449D01*
X480Y1449D01*
X480Y1459D01*
X478Y1459D01*
X478Y1463D01*
X480Y1463D01*
X480Y1465D01*
X460Y1465D01*
G37*
D02*
G36*
X344Y2743D02*
X391Y2743D01*
X391Y2711D01*
X344Y2711D01*
X344Y2743D01*
G37*
D02*
G36*
X395Y3065D02*
X440Y3065D01*
X440Y3033D01*
X395Y3033D01*
X395Y3065D01*
G37*
D02*
G36*
X436Y3036D02*
X470Y3036D01*
X470Y2991D01*
X436Y2991D01*
X436Y3036D01*
G37*
D02*
G36*
X346Y2513D02*
X389Y2513D01*
X389Y2481D01*
X346Y2481D01*
X346Y2513D01*
G37*
D02*
G36*
X198Y2447D02*
X241Y2447D01*
X241Y2413D01*
X198Y2413D01*
X198Y2447D01*
G37*
D02*
G36*
X168Y2485D02*
X202Y2485D01*
X202Y2442D01*
X168Y2442D01*
X168Y2485D01*
G37*
D02*
G36*
X496Y2447D02*
X539Y2447D01*
X539Y2413D01*
X496Y2413D01*
X496Y2447D01*
G37*
D02*
G36*
X646Y2513D02*
X689Y2513D01*
X689Y2481D01*
X646Y2481D01*
X646Y2513D01*
G37*
D02*
G36*
X646Y2447D02*
X689Y2447D01*
X689Y2413D01*
X646Y2413D01*
X646Y2447D01*
G37*
D02*
G36*
X684Y2485D02*
X718Y2485D01*
X718Y2442D01*
X684Y2442D01*
X684Y2485D01*
G37*
D02*
G36*
X296Y547D02*
X339Y547D01*
X339Y513D01*
X296Y513D01*
X296Y547D01*
G37*
D02*
G36*
X334Y585D02*
X368Y585D01*
X368Y542D01*
X334Y542D01*
X334Y585D01*
G37*
D02*
G04 End of Copper1*
M02*